<svg xmlns="http://www.w3.org/2000/svg" width="124" height="40" viewBox="0 0 124 40">
    <g fill="none" fill-rule="evenodd">
        <path fill="#E31449" d="M28.46 4.523l-1.265-.002.03 9.578-2.469.008-.037-11.552 4.072-.013c.06-.003.116-.003.176-.003 1.929-.008 3.503 1.517 3.508 3.4.004 1.606-1.128 2.955-2.654 3.326l3.423 4.817-2.91.006-2.476-3.775-.01-2.768.57.005c.914-.008 1.65-.685 1.648-1.52-.003-.835-.695-1.51-1.605-1.507zm31.284-1.132c.535.566.84 1.289.844 2.073.005.87-.383 1.659-1.016 2.248 1.564.723 2.033 1.655 2.04 2.973 0 1.808-1.574 3.281-3.539 3.317l-5.121.032-.034-11.496 3.971.008c1.32-.004 2.298.243 2.855.845zm-2.102 8.613l-2.223.005-.021-7.494 1.545-.007c.686 0 1.236.55 1.239 1.22 0 .68-.547 1.229-1.23 1.233l-.807.002.01 2.076 1.476-.004c.824-.004 1.447.656 1.455 1.478-.032.844-.553 1.429-1.444 1.49zM47.47 13.233c-.616.619-1.435 1.004-2.342 1.006-1.915.007-3.472-1.677-3.48-3.76-.005-2.087 1.543-3.78 3.456-3.787.899-.003 1.72.365 2.338.967l-.025-5.731 2.322-.009.04 12.102-2.307.006-.002-.794zm-3.397-2.81c0-1.02.758-1.85 1.7-1.855.939-.005 1.705.826 1.705 1.844.005 1.026-.755 1.857-1.696 1.857-.941.006-1.704-.824-1.71-1.846zm-3.543.524c.013-.158.023-.32.018-.485.03-2.497-1.636-3.863-3.756-3.857-2.117.006-3.829 1.737-3.823 3.87.007 2.136 1.73 3.859 3.85 3.854 1.616-.005 2.875-.735 3.522-1.879l-1.89-.859c-.237.519-.794.878-1.449.88-.874.003-1.582-.636-1.584-1.43 0-.05-.02-.029-.016-.08l5.128-.014zm-5.126-1.313a1.414 1.414 0 0 1 1.415-1.411 1.412 1.412 0 0 1 1.42 1.406l-2.835.005zM73.27 13.98l-2.321.007-.037-12.149 2.32-.008.038 12.15zm3.926-.014l-2.322.006-.037-12.149 2.32-.005.04 12.148zm-12.47-2.881v-4.16l-2.32.004.012 4.608c.006 1.554 1.635 2.813 3.636 2.806 2-.005 3.616-1.272 3.613-2.829l-.016-4.606-2.28.027.009 4.141c0 .69-.592 1.257-1.326 1.26-.734 0-1.328-.556-1.328-1.251z"/>
        <path fill="#FCD205" d="M97.458 10.101c-.442.03-.713.132-1.014.165.023.294.18.526.412.845.092-.488.488-.657.602-1.01"/>
        <path fill="#FCD205" fill-rule="nonzero" d="M95.229 7.906C95.216 3.551 98.745.012 103.107 0c4.364-.011 7.913 3.506 7.926 7.86.013 4.349-3.514 7.887-7.879 7.898-4.363.01-7.912-3.502-7.925-7.852"/>
        <path fill="#E31449" d="M94.341 11.819c.015.093.15.188.053.266-.154.127-.344.207-.556.173-.16-.115-.155-.354-.295-.504-.035-.12-.232-.12-.188-.253l.06-.043c.225 0 .453-.007.674-.042.226.006.16.27.252.403zm-10.225.11c-.114.208-.254.442-.471.573a.41.41 0 0 1-.264-.016c-.036-.04-.124-.09-.127-.161.015-.076-.01-.182.056-.23.173-.104.335-.212.487-.341.046-.016.108-.045.15-.012.066.059.143.11.169.187zm-.898.857v.07c-.102.238-.163.538-.241.809-.19-.017-.336-.082-.494-.13-.043-.04 0-.093.004-.132.18-.161.13-.368.162-.59.03-.133.145-.235.26-.29.14.029.228.157.31.263zM84.404 3.7c.48.12 1.018.134 1.388.509.198.248.225.665.071.923-.275.486-.844.743-1.198 1.17-.345.291-.477.74-.356 1.171.126.377.507.645.9.673.602.017 1.067-.288 1.548-.567.483-.343.928-.792 1.498-.932.357-.139.786-.064 1.132-.212.402-.081.696-.406 1.004-.69.344-.278.75-.446 1.204-.429.41.064.637-.308.909-.544.47-.42 1.084-.472 1.632-.716.38-.13.7-.399 1.057-.591.34-.148.823-.174 1.17-.044.234.106.464.2.668.352l1.665 1.37c.02.057.092.091.137.135.474.56.965 1.116 1.35 1.731.129.217.178.453.24.682.082.935.34 1.75.645 2.567.086.128.246.214.339.35.262.359.43.818.85 1.059l.25.123c.017.029.025.062 0 .087l-.035.036c-.506.086-.895-.224-1.162-.595-.165-.324-.385-.674-.753-.8-.017-.008-.036.012-.048.024.05.117.16.206.213.317.14.222.268.474.339.702.075.258.364.457.593.596l.335.168c.04.027.05.09.02.129l-.05.023a1.805 1.805 0 0 1-1.427-.559c-.09-.093-.21-.187-.341-.187-.246.218-.492.434-.82.454-.339-.051-.726-.053-1.03.077-.282.097-.564.215-.875.23-.147.001-.318-.067-.368-.211 0-.168-.134-.377-.02-.56l.209-.31a.086.086 0 0 0-.071-.08c-.09-.013-.225.13-.26-.022.02-.316.318-.503.528-.722a1.32 1.32 0 0 1 .323-.663c0-.027-.027-.052-.057-.069-.258.043-.526.116-.811.107-.226.122-.506.204-.771.122-.055-.034-.034-.098-.023-.146.277-.377.375-.867.306-1.35-.018-.015-.03-.069-.068-.056-.05 0-.055.043-.068.073-.061.438-.2.803-.436 1.171-.183.19-.468.178-.707.254-.057.027-.117.078-.117.146-.006.154.104.273.168.406l.544.967c.013.27-.1.533-.158.766.026.051.066.032.103.008.189-.166.306-.387.383-.622.021-.11-.024-.227-.053-.314l-.562-1.085c.034-.072.126-.058.188-.083.135-.01.238.06.359.096.13.335.26.661.5.953.051.175.107.418-.015.576-.112.24-.24.45-.393.673-.14.146-.356.138-.555.154h-.162c-.476.263-1.002.43-1.517.595a.657.657 0 0 1-.673-.125c-.181-.139-.257-.355-.382-.535-.144-.178-.364-.023-.526-.12-.14-.228-.278-.449-.412-.682a.207.207 0 0 1 .058-.167c.183-.062.384-.072.594-.094.186-.012.372.012.497.152.25.287.353.676.721.857.28.028.54-.075.776-.189.144-.084.312-.21.312-.393-.025-.353-.273-.639-.567-.845-.31-.158-.639-.38-.864-.664-.11-.153-.141-.34-.206-.515-.027-.036-.09-.05-.124-.022-.12.106-.03.28-.013.406.013.084.068.174.02.25-.172.141-.43.073-.659.079-.454-.025-.87-.198-1.344-.157-.456.024-1.058.324-1.397-.116-.172-.418-.12-.926-.046-1.36.002-.047-.052-.074-.091-.085-.037-.012-.084.01-.096.057-.112.417-.145.89-.239 1.326-.164.392-.437.8-.835 1.003-.358.184-.761.253-1.18.284-.768.016-1.498.173-1.965.834-.034.064-.11.111-.087.201.028.024.079.034.112.013.53-.593 1.214-.822 1.977-.798.742-.005 1.475-.135 1.933-.76.121-.14.195-.295.302-.437.083-.01.143.093.203.142.013.22-.169.366-.238.553-.09.202-.196.447-.409.557-.247.058-.453.227-.668.36-.234.102-.512.15-.779.078-.339-.059-.784-.142-1.106.01-.166.108-.299.285-.46.392-.235.094-.428.287-.702.274-.184-.032-.415-.157-.57.012-.193.187-.25.498-.507.62-.303.17-.624.005-.935-.023.048-.295.09-.596.277-.811.117-.015.237-.035.323-.122.122-.104.212-.243.296-.376.26-.161.566-.293.734-.572.12-.267.13-.51.334-.747l.104-.05.545-.041c.228-.094.435-.202.64-.356.064-.07.076-.17.06-.258-.095-.262-.187-.452-.256-.725-.069-.292-.017-.576-.056-.898-.02-.028-.039-.078-.095-.078-.36.08-.721.184-1.12.125-.543-.073-1.114-.423-1.318-.97-.186-.473-.146-1.134.208-1.513.328-.407.736-.72 1.127-1.05.067-.049.072-.12.085-.189-.003-.074-.077-.146-.149-.175-.25-.053-.533.022-.776-.081-.422-.15-.758-.547-.813-.985a.812.812 0 0 1 .118-.535c.279.15.514.387.826.468zm14.92 7.37c.018.135.015.295-.095.377-.133.044-.28.06-.427.05-.035-.012-.086-.032-.071-.075.063-.186.245-.377.448-.42.055-.002.134-.01.144.067zm.435-2.404c.238.254.388.54.317.898-.041.063-.028.174-.124.198-.042.007-.076-.018-.073-.059-.018-.186-.018-.384-.13-.538-.129-.131-.266-.359-.46-.36-.143.039-.249.205-.335.314-.006.011-.028.014-.039.006-.082-.192.071-.36.136-.531.121-.115.095-.468.359-.355.177.1.216.293.349.427zm-3.29-2.848c.135.31.138.722.044 1.048-.015.015-.034.024-.05.01a5.183 5.183 0 0 0-.239-.854c-.063-.159-.272-.292-.174-.479.042-.045.118-.05.173-.027.108.072.182.193.247.302zM112.485 11.458c-.03.199-.093.395-.164.583-.06.118-.235.08-.353.064-.131-.044-.325-.058-.352-.235-.019-.172.063-.326.144-.45.19-.03.41.011.597-.024.058-.02.112.008.128.062zm9.85.13c.165.136.381.249.514.434.018.085-.04.161-.085.228-.071.059-.148.107-.246.107a.328.328 0 0 1-.245-.15c-.108-.15-.245-.294-.296-.459.068-.107.216-.284.358-.16zm1.04.918c.105.152.064.372.099.535.03.122.176.219.098.346l-.449.148c-.076-.004-.047-.098-.075-.147-.047-.26-.11-.445-.192-.697-.02-.143.126-.244.223-.326.12-.033.204.076.297.141zm-11.689-9.008c.22.145.32.44.59.503.446.096.896.203 1.303.402.296.148.566.36.814.579.246.135.55.118.817.212.383.098.7.39 1.046.61.456.362 1.089.301 1.605.535.817.257 1.477.883 2.237 1.264.392.21.982.292 1.373.049.26-.188.43-.435.372-.77-.151-.832-1.07-1.276-1.509-1.964a.877.877 0 0 1-.1-.582c.148-.41.592-.624.953-.783.284-.142.65-.113.924-.277.097-.055.175-.15.255-.216.06.003.061.066.075.11.086.49-.004.997-.429 1.286-.164.11-.358.163-.557.21-.16.073-.484-.068-.469.222.038.13.17.233.275.32.57.477 1.097 1.078 1.168 1.816.027.57-.367 1.07-.857 1.313-.356.153-.821.21-1.215.103-.108-.02-.275-.116-.345.02-.025.155.079.278.09.434.039.27.037.61-.047.871-.038.204-.254.451-.058.66.191.281.554.195.861.24.166.035.215.215.268.339.054.155.068.346.133.461-.007.302.335.424.513.625.212.224.39.611.746.588.112.253.192.477.23.763l-.048.038c-.294 0-.667.087-.888-.124-.244-.16-.331-.607-.688-.487a.578.578 0 0 1-.577.088c-.177-.062-.305-.226-.467-.321-.491-.354-1.137-.536-1.773-.39-.363.098-.654-.159-.949-.327-.378-.163-.495-.58-.58-.93l-.07-.435a.116.116 0 0 1 .076-.092h.056c.22.507.649 1.073 1.203 1.253.507.2.986-.057 1.526.04.51.063.912.392 1.312.695.035.01.064-.024.081-.054v-.034c-.465-.589-1.121-.897-1.88-.837-.623.133-1.256-.071-1.615-.606-.197-.3-.354-.625-.412-.981-.057-.407-.147-.86-.282-1.228-.038-.029-.081-.066-.126-.038l-.037.067c.068.39.176.862.038 1.275-.095.324-.432.452-.74.468-.31.022-.596-.04-.913-.04-.746-.03-1.383.28-2.146.2.062-.174.181-.362.116-.568-.03-.042-.078-.046-.12-.042-.138.09-.123.272-.21.39a1.23 1.23 0 0 1-.771.567c-.217.17-.426.402-.6.608-.068.06-.072.171-.05.265.156.368.572.417.905.504.164.013.319-.042.395-.182.143-.228.167-.592.498-.639l.715-.002c.057.028.112.059.135.123l-.031.099c-.152.187-.22.443-.432.583-.113.037-.268-.004-.347.102-.036.242-.1.507-.345.642-.176.155-.456.08-.653.02-.382-.147-.79-.217-1.167-.34-.17-.048-.232-.253-.4-.293-.167-.045-.352.088-.484-.059a1.95 1.95 0 0 1-.175-.505 1.39 1.39 0 0 1-.123-.4c-.028-.118.003-.201.04-.312l.522-.958c.046-.058.086-.12.148-.148.126.026.26.088.383.151l-.02.068-.543.832c-.118.279.01.575.125.802.03.014.039.057.069.04-.015-.165-.033-.336.001-.511.034-.154.128-.304.227-.447l.423-.634c.048-.113.04-.277-.034-.372-.188-.192-.454-.24-.615-.486-.354-.467-.383-1.013-.432-1.613a.153.153 0 0 0-.097-.128c-.035-.011-.074.039-.095.068-.113.378-.043.856.06 1.2.067.274.182.525.305.778a.1.1 0 0 1-.066.115c-.283.02-.57-.009-.844-.035-.38-.057-.648-.344-.946-.56-.035-.028-.07.012-.093.043.085.413.545.645.687 1.028.088.305.376.54.451.86 0 .055-.038.105-.079.13-.098.031-.201-.037-.295.012-.013.18.096.361.022.545-.095.153-.235.336-.424.347-.373-.13-.73-.28-1.104-.391-.27-.02-.534.011-.787.05-.24-.048-.407-.258-.593-.397-.053-.015-.109-.021-.148.02-.418.417-.86.861-1.477.834-.034-.01-.068-.044-.07-.08l.007-.042c.272-.24.597-.499.707-.834.08-.283.338-.485.42-.768.015-.048-.027-.07-.066-.075l-.071.031a7.08 7.08 0 0 0-.742.994c-.222.232-.55.368-.886.282-.043-.027-.045-.09-.022-.126 1.27-.783 1.413-2.173 1.76-3.437.245-.84.414-1.702 1.072-2.386.978-1.08 2.205-1.728 3.275-2.67.162-.141.325-.283.536-.298.507-.042.917.166 1.29.462zm-1.159 1.316c.057.088-.009.159-.05.231-.286.277-.634.559-.845.889-.08.107-.133.224-.192.349-.004.01-.023.016-.048.01-.056-.167.018-.345.055-.508.148-.394.475-.757.815-1.01.076-.053.223-.066.265.04zm-3.065 6.268c.043.086.121.188.073.285-.082.064-.229.029-.34.014-.127-.068-.153-.213-.17-.356 0-.033.008-.07.043-.097.15-.002.296.034.394.154zm-.078-2.727c.13.16.221.337.3.524.011.044 0 .088-.015.129-.03.033-.071.084-.122.05-.136-.047-.12-.264-.294-.252-.133-.008-.21.104-.314.163-.184.159-.43.333-.47.577-.033.092-.021.217-.097.267-.05.012-.102-.027-.107-.07a1.018 1.018 0 0 1 .314-.853c.232-.185.392-.446.58-.667.11-.021.187.055.225.132z"/>
        <g fill="#FFF">
            <path fill-rule="nonzero" d="M104.892 31.919v-2.424h-2.937v2.424h-1.458v2.424h5.876V31.92h-1.48"/>
            <path fill-rule="nonzero" d="M112.891 22.888h-3.25v-2.412h3.25v2.412zm4.319 3.412l-1.085-.158c-1.962-.253-2.626-.854-2.626-1.8 0-1.041.754-1.799 2.265-1.799 1.627 0 3.167.6 4.614 1.61.15.095.302.064.422-.094l2.263-3.441c.121-.19.09-.35-.06-.475-1.84-1.45-4.495-2.365-7.33-2.365-4.648 0-7.634 2.682-7.634 6.69 0 .063.006.12.006.181h4.846v2.412h-4.426c.872 2.345 3.068 3.662 6.422 4.163l1.087.16c2.02.282 2.594.881 2.594 1.797 0 1.201-.996 2.021-2.895 2.021-2.054 0-3.984-1.01-5.22-2.146-.122-.128-.304-.128-.424.03l-2.716 3.345a.37.37 0 0 0-.077.123h-1.674v2.412h5.007c1.508.62 3.277 1.034 5.043 1.034 5.49 0 8.388-2.904 8.388-6.882 0-4.072-2.294-6.155-6.79-6.818zM94.418 31.92h-4.086v2.405h-2.195v2.443h3.884v-2.406h2.397V31.92"/>
            <path fill-rule="nonzero" d="M96.5 27.865v-2.41h-2.284v6.472h2.348v2.413h-2.348v5.033c0 .064.03.095.059.127.06.064.09.096.15.096h4.76c.059 0 .12 0 .149-.032.09-.064.12-.096.15-.191V27.865H96.5M105.097 18.337c0-.03-.03-.061-.03-.061a.274.274 0 0 0-.211-.094h-15.9c-.12.031-.21.155-.21.313v4.255c0 .062 0 .125.03.186.03 0 .03.033.03.033l.03.03c.03.031.06.064.12.064h5.179l.001.001h2.527v2.39h2.953v-2.297c.03-.031.03-.063.06-.063.03-.03.062-.03.121-.03h5.118a.24.24 0 0 0 .153-.064.368.368 0 0 0 .089-.25v-4.255a.242.242 0 0 0-.06-.158"/>
            <path d="M65.04 27.879h6.483v-2.424h-6.484z"/>
            <path fill-rule="nonzero" d="M48.02 34.343h3.241V31.92H48.02v2.424z"/>
            <path fill-rule="nonzero" d="M54.38 32.712v-2.409h-2.644v6.885H48.83v2.407h3.203l.003.001h4.678c.179 0 .3-.128.3-.317v-4.977l1.136-1.59h-3.77M57.137 25.481v-6.985c0-.189-.12-.314-.3-.314H52.17c-.18 0-.3.125-.3.314v9.383h2.638V25.48h2.63M44.575 30.303h7.294v-2.424h-7.294zM48.224 34.655L44.17 32.82c-.213-.093-.335-.03-.426.19-.578 1.266-1.31 2.026-2.71 2.026-1.312 0-2.134-.664-2.499-1.867-.213-.663-.305-1.328-.305-4.3 0-.363.002-.691.005-.99h-2.378v2.419h-3.034c.045 2.156.213 3.176.594 4.39C34.514 38.198 37.195 40 40.943 40c3.655 0 6.274-1.802 7.433-4.903.092-.22.06-.347-.152-.442M38.348 25.474c.048-.385.111-.64.193-.896.365-1.195 1.187-1.859 2.497-1.859 1.4 0 2.132.758 2.71 2.019.09.22.212.282.425.189l4.05-1.828c.214-.095.245-.22.153-.442-1.158-3.086-3.776-4.88-7.43-4.88-2.833 0-5.055 1.029-6.444 3.043h4.643v-2.407h3.283v2.407h-3.283v2.408h-5.768c-.37 1.219-.524 2.296-.553 4.65h3.04v-2.404h2.484M33.634 18.182h3.242v-2.424h-3.242zM30.392 20.606h3.242v-2.424h-3.242zM15.898 33.033h-3.263v-2.406h3.263v2.406zm5.924-14.695c0-.03-.031-.062-.031-.062a.267.267 0 0 0-.211-.094H5.683c-.123.031-.212.156-.212.315v4.282c0 .062 0 .126.03.187.03 0 .03.034.03.034l.03.03c.03.03.06.064.122.064h7.293v2.28h1.29v2.532h-3.254v11.468c0 .064.03.094.06.127.06.063.091.095.151.095h4.816c.06 0 .12 0 .15-.032.091-.063.122-.096.152-.19V23.189c.03-.032.03-.063.06-.063.03-.032.06-.032.122-.032h5.117a.23.23 0 0 0 .15-.064.365.365 0 0 0 .092-.25v-4.283a.247.247 0 0 0-.06-.159z"/>
            <path fill-rule="nonzero" d="M3.242 27.879h3.242v-2.424H3.242zM6.484 30.303h3.241v-2.424H6.484v2.424z"/>
            <path d="M0 32.93h3.242v-2.425H0z"/>
            <path fill-rule="nonzero" d="M29.582 27.879v-9.383c0-.189-.12-.314-.3-.314h-4.668c-.18 0-.3.125-.3.314v9.383h5.268M24.314 30.303v2.68h2.096v2.37h3.172v-5.05h-5.268M26.469 35.354h-6.815v2.453h4.784v1.466c0 .192.122.323.304.323h4.738c.183 0 .304-.13.304-.323v-1.466H26.47v-2.453M22.693 25.657H19.37v2.247h-1.946v2.399h3.322v-2.246h1.946v-2.4M89.746 25.455v2.423h-2.824v2.425h2.955v-2.425H93v-2.423h-3.254"/>
            <path fill-rule="nonzero" d="M78.339 22.872h8.279c.183 0 .304-.126.304-.313v-4.062c0-.19-.121-.315-.304-.315H73.122c-.18 0-.304.126-.304.315v11.817H66.78v3.807l-3.82-7.249 6.158-8.28c.12-.19.06-.41-.183-.41h-5.337c-.243 0-.364.094-.517.283l-5.31 7.55v1.888h-3.268v2.409h5.978v2.406h-.37l3.274 6.594c.091.189.213.284.486.284H69.3c.212 0 .273-.19.183-.348l-2.174-4.124h2.74v-2.406h2.77v2.406h2.613v2.405h-2.613v1.75c0 .19.123.317.304.317h13.496c.183 0 .304-.128.304-.317v-4.06c0-.19-.121-.315-.304-.315h-8.28c-.12 0-.182-.063-.182-.19v-3.432c0-.127.061-.19.183-.19h6.794c.181 0 .302-.127.302-.315V26.81c0-.189-.12-.315-.302-.315H78.34c-.122 0-.183-.063-.183-.189v-3.245c0-.125.061-.19.183-.19"/>
        </g>
    </g>
</svg>
