<?xml version="1.0" standalone="no"?>
<!DOCTYPE svg PUBLIC "-//W3C//DTD SVG 1.1//EN" "http://www.w3.org/Graphics/SVG/1.1/DTD/svg11.dtd" >
<svg xmlns="http://www.w3.org/2000/svg" xmlns:xlink="http://www.w3.org/1999/xlink" version="1.1">
<metadata>
 By Katja
Exclusively designed for Red Bull TV. Copyright (C) 2015 by Red Bull Media House GmbH. All rights reserved.
</metadata>
<defs>
<font id="Font" horiz-adv-x="0" >
  <font-face 
    font-family="Font"
    font-weight="900"
    font-stretch="normal"
    units-per-em="1000"
    panose-1="2 11 10 4 4 0 0 0 0 0"
    ascent="800"
    descent="-200"
    x-height="507"
    cap-height="673"
    bbox="-292 -223 1295 1003"
    underline-thickness="100"
    underline-position="-110"
    stemh="184"
    stemv="220"
    unicode-range="U+0020-FB02"
  />
<missing-glyph horiz-adv-x="730" 
d="M57 673h616v-673h-616v673zM529 117v426h-330z" />
    <glyph glyph-name="fi" unicode="fi" horiz-adv-x="709" 
d="M397 518h-61c-32 0 -43 -9 -43 -36v-3h104v-184h-104v-295h-221v295h-67v184h67c4 135 77 194 242 194h83v-155zM556 540c-69 0 -121 51 -121 118c0 66 52 117 121 117s121 -51 121 -117c0 -67 -52 -118 -121 -118zM445 0v507h221v-507h-221z" />
    <glyph glyph-name="fl" unicode="fl" horiz-adv-x="709" 
d="M397 518h-61c-32 0 -43 -9 -43 -36v-3h104v-184h-104v-295h-221v295h-67v184h67c4 135 77 194 242 194h83v-155zM445 0v673h221v-673h-221z" />
    <glyph glyph-name=".notdef" horiz-adv-x="730" 
d="M57 673h616v-673h-616v673zM529 117v426h-330z" />
    <glyph glyph-name=".null" 
 />
    <glyph glyph-name="CR" horiz-adv-x="270" 
 />
    <glyph glyph-name="space" unicode=" " horiz-adv-x="270" 
 />
    <glyph glyph-name="A" unicode="A" horiz-adv-x="698" 
d="M471 0l-30 103h-183l-31 -103h-236l238 673h240l238 -673h-236zM397 263l-48 182l-47 -182h95z" />
    <glyph glyph-name="Aacute" unicode="&#xc1;" horiz-adv-x="698" 
d="M471 0l-30 103h-183l-31 -103h-236l238 673h240l238 -673h-236zM397 263l-48 182l-47 -182h95zM262 724l59 196h254l-130 -196h-183z" />
    <glyph glyph-name="Abreve" unicode="&#x102;" horiz-adv-x="698" 
d="M471 0l-30 103h-183l-31 -103h-236l238 673h240l238 -673h-236zM397 263l-48 182l-47 -182h95zM348 717c-142 0 -230 76 -230 203h156c0 -39 30 -62 75 -62c44 0 74 23 74 62h156c0 -127 -88 -203 -231 -203z" />
    <glyph glyph-name="Acircumflex" unicode="&#xc2;" horiz-adv-x="698" 
d="M471 0l-30 103h-183l-31 -103h-236l238 673h240l238 -673h-236zM397 263l-48 182l-47 -182h95zM587 724h-173l-65 71l-65 -71h-172l150 196h176z" />
    <glyph glyph-name="Adieresis" unicode="&#xc4;" horiz-adv-x="698" 
d="M471 0l-30 103h-183l-31 -103h-236l238 673h240l238 -673h-236zM397 263l-48 182l-47 -182h95zM218 712c-62 0 -116 51 -116 110c0 62 51 111 116 111c68 0 117 -47 117 -111c0 -61 -52 -110 -117 -110zM479 712c-63 0 -116 51 -116 110c0 62 51 111 116 111
c68 0 117 -47 117 -111c0 -61 -52 -110 -117 -110z" />
    <glyph glyph-name="Agrave" unicode="&#xc0;" horiz-adv-x="698" 
d="M471 0l-30 103h-183l-31 -103h-236l238 673h240l238 -673h-236zM397 263l-48 182l-47 -182h95zM257 724l-121 196h246l58 -196h-183z" />
    <glyph glyph-name="Amacron" unicode="&#x100;" horiz-adv-x="698" 
d="M471 0l-30 103h-183l-31 -103h-236l238 673h240l238 -673h-236zM397 263l-48 182l-47 -182h95zM167 737v161h363v-161h-363z" />
    <glyph glyph-name="Aogonek" unicode="&#x104;" horiz-adv-x="698" 
d="M471 0l-30 103h-183l-31 -103h-236l238 673h240l238 -673l-21 -11c-19 -9 -26 -16 -26 -30s9 -22 24 -22h23v-122c-38 -5 -69 -8 -95 -8c-95 0 -154 43 -154 111c0 29 13 58 37 82h-24zM397 263l-48 182l-47 -182h95z" />
    <glyph glyph-name="Aring" unicode="&#xc5;" horiz-adv-x="698" 
d="M471 0l-30 103h-183l-31 -103h-236l238 673h240l238 -673h-236zM397 263l-48 182l-47 -182h95zM348 717c-88 0 -150 59 -150 144c0 84 62 142 150 142c89 0 151 -58 151 -142c0 -85 -62 -144 -151 -144zM350 824c21 0 35 14 35 37c0 22 -13 35 -35 35s-36 -14 -36 -35
c0 -22 14 -37 36 -37z" />
    <glyph glyph-name="Atilde" unicode="&#xc3;" horiz-adv-x="698" 
d="M471 0l-30 103h-183l-31 -103h-236l238 673h240l238 -673h-236zM397 263l-48 182l-47 -182h95zM440 709c-32 0 -61 6 -104 23c-39 15 -57 19 -79 19c-41 0 -72 -9 -116 -35v153c46 31 76 42 117 42c32 0 61 -6 104 -23c39 -15 57 -19 79 -19c41 0 72 9 116 35v-153
c-46 -31 -76 -42 -117 -42z" />
    <glyph glyph-name="AE" unicode="&#xc6;" horiz-adv-x="883" 
d="M637 188h211v-188h-386l-15 85h-198l-33 -85h-231l276 673h576v-188h-248l10 -60h228v-174h-200zM423 246l-35 247l-83 -247h118z" />
    <glyph glyph-name="B" unicode="B" horiz-adv-x="656" 
d="M527 340c71 -29 112 -85 112 -159c0 -112 -91 -181 -236 -181h-346v673h300c157 0 250 -69 250 -187c0 -65 -28 -115 -80 -146zM266 172h115c28 0 48 16 48 46c0 28 -20 44 -49 44h-114v-90zM353 501h-87v-88h88c28 0 47 18 47 44c0 29 -19 44 -48 44z" />
    <glyph glyph-name="C" unicode="C" horiz-adv-x="781" 
d="M391 -14c-217 0 -369 145 -369 350c0 206 153 351 370 351c206 0 358 -129 367 -312h-234c-15 64 -67 105 -135 105c-79 0 -132 -57 -132 -143c0 -87 53 -144 132 -144c68 0 120 41 135 105h234c-10 -184 -161 -312 -368 -312z" />
    <glyph glyph-name="Cacute" unicode="&#x106;" horiz-adv-x="781" 
d="M391 -14c-217 0 -369 145 -369 350c0 206 153 351 370 351c206 0 358 -129 367 -312h-234c-15 64 -67 105 -135 105c-79 0 -132 -57 -132 -143c0 -87 53 -144 132 -144c68 0 120 41 135 105h234c-10 -184 -161 -312 -368 -312zM305 724l59 196h254l-130 -196h-183z" />
    <glyph glyph-name="Ccaron" unicode="&#x10c;" horiz-adv-x="781" 
d="M391 -14c-217 0 -369 145 -369 350c0 206 153 351 370 351c206 0 358 -129 367 -312h-234c-15 64 -67 105 -135 105c-79 0 -132 -57 -132 -143c0 -87 53 -144 132 -144c68 0 120 41 135 105h234c-10 -184 -161 -312 -368 -312zM457 920h172l-150 -196h-176l-149 196h173
l65 -71z" />
    <glyph glyph-name="Ccedilla" unicode="&#xc7;" horiz-adv-x="781" 
d="M347 -195c-31 0 -51 1 -91 5v129h59c28 0 45 15 45 39v9c-201 13 -338 154 -338 349c0 206 153 351 370 351c206 0 358 -129 367 -312h-234c-15 64 -67 105 -135 105c-79 0 -132 -57 -132 -143c0 -87 53 -144 132 -144c68 0 120 41 135 105h234
c-8 -149 -108 -261 -255 -298c9 -17 14 -34 14 -52c0 -96 -56 -143 -171 -143z" />
    <glyph glyph-name="D" unicode="D" horiz-adv-x="748" 
d="M57 0v673h298c218 0 371 -139 371 -334c0 -194 -158 -339 -371 -339h-298zM283 203h71c85 0 136 52 136 136c0 82 -50 131 -136 131h-71v-267z" />
    <glyph glyph-name="Eth" unicode="&#xd0;" horiz-adv-x="772" 
d="M81 673h298c217 0 371 -138 371 -334c0 -194 -158 -339 -371 -339h-298v256h-68v162h68v255zM307 203h71c85 0 136 52 136 136c0 82 -50 131 -136 131h-71v-52h89v-162h-89v-53z" />
    <glyph glyph-name="Dcaron" unicode="&#x10e;" horiz-adv-x="748" 
d="M57 0v673h298c218 0 371 -139 371 -334c0 -194 -158 -339 -371 -339h-298zM283 203h71c85 0 136 52 136 136c0 82 -50 131 -136 131h-71v-267zM377 920h172l-150 -196h-176l-149 196h173l65 -71z" />
    <glyph glyph-name="Dcroat" unicode="&#x110;" horiz-adv-x="772" 
d="M81 673h298c217 0 371 -138 371 -334c0 -194 -158 -339 -371 -339h-298v256h-68v162h68v255zM307 203h71c85 0 136 52 136 136c0 82 -50 131 -136 131h-71v-52h89v-162h-89v-53z" />
    <glyph glyph-name="E" unicode="E" horiz-adv-x="534" 
d="M57 0v673h431v-188h-205v-60h195v-174h-195v-63h216v-188h-442z" />
    <glyph glyph-name="Eacute" unicode="&#xc9;" horiz-adv-x="534" 
d="M57 0v673h431v-188h-205v-60h195v-174h-195v-63h216v-188h-442zM186 724l59 196h254l-130 -196h-183z" />
    <glyph glyph-name="Ecaron" unicode="&#x11a;" horiz-adv-x="534" 
d="M57 0v673h431v-188h-205v-60h195v-174h-195v-63h216v-188h-442zM338 920h172l-150 -196h-176l-149 196h173l65 -71z" />
    <glyph glyph-name="Ecircumflex" unicode="&#xca;" horiz-adv-x="534" 
d="M57 0v673h431v-188h-205v-60h195v-174h-195v-63h216v-188h-442zM511 724h-173l-65 71l-65 -71h-172l150 196h176z" />
    <glyph glyph-name="Edieresis" unicode="&#xcb;" horiz-adv-x="534" 
d="M57 0v673h431v-188h-205v-60h195v-174h-195v-63h216v-188h-442zM142 712c-62 0 -116 51 -116 110c0 62 51 111 116 111c68 0 117 -47 117 -111c0 -61 -52 -110 -117 -110zM403 712c-63 0 -116 51 -116 110c0 62 51 111 116 111c68 0 117 -47 117 -111
c0 -61 -52 -110 -117 -110z" />
    <glyph glyph-name="Edotaccent" unicode="&#x116;" horiz-adv-x="534" 
d="M57 0v673h431v-188h-205v-60h195v-174h-195v-63h216v-188h-442zM272 698c-72 0 -129 55 -129 124c0 70 57 125 129 125c73 0 131 -55 131 -125c0 -69 -58 -124 -131 -124z" />
    <glyph glyph-name="Egrave" unicode="&#xc8;" horiz-adv-x="534" 
d="M57 0v673h431v-188h-205v-60h195v-174h-195v-63h216v-188h-442zM181 724l-121 196h246l58 -196h-183z" />
    <glyph glyph-name="Emacron" unicode="&#x112;" horiz-adv-x="534" 
d="M57 0v673h431v-188h-205v-60h195v-174h-195v-63h216v-188h-442zM91 737v161h363v-161h-363z" />
    <glyph glyph-name="Eogonek" unicode="&#x118;" horiz-adv-x="534" 
d="M57 0v673h431v-188h-205v-60h195v-174h-195v-63h216v-188l-21 -11c-19 -9 -26 -16 -26 -30s9 -22 24 -22h23v-122c-38 -5 -69 -8 -95 -8c-95 0 -154 43 -154 111c0 29 13 58 37 82h-230z" />
    <glyph glyph-name="F" unicode="F" horiz-adv-x="512" 
d="M57 0v673h430v-203h-204v-65h196v-191h-196v-214h-226z" />
    <glyph glyph-name="G" unicode="G" horiz-adv-x="779" 
d="M397 238v137h340v-215c-67 -110 -192 -174 -341 -174c-223 0 -374 143 -374 352c0 208 149 349 370 349c184 0 317 -97 345 -251h-243c-21 36 -53 53 -100 53c-90 0 -146 -60 -146 -155c0 -97 59 -157 156 -157c41 0 81 11 112 30v31h-119z" />
    <glyph glyph-name="Gbreve" unicode="&#x11e;" horiz-adv-x="779" 
d="M397 238v137h340v-215c-67 -110 -192 -174 -341 -174c-223 0 -374 143 -374 352c0 208 149 349 370 349c184 0 317 -97 345 -251h-243c-21 36 -53 53 -100 53c-90 0 -146 -60 -146 -155c0 -97 59 -157 156 -157c41 0 81 11 112 30v31h-119zM393 717
c-142 0 -230 76 -230 203h156c0 -39 30 -62 75 -62c44 0 74 23 74 62h156c0 -127 -88 -203 -231 -203z" />
    <glyph glyph-name="Gcommaaccent" unicode="&#x122;" horiz-adv-x="779" 
d="M397 238v137h340v-215c-67 -110 -192 -174 -341 -174c-223 0 -374 143 -374 352c0 208 149 349 370 349c184 0 317 -97 345 -251h-243c-21 36 -53 53 -100 53c-90 0 -146 -60 -146 -155c0 -97 59 -157 156 -157c41 0 81 11 112 30v31h-119zM288 -220v179h195l-27 -179
h-168z" />
    <glyph glyph-name="H" unicode="H" horiz-adv-x="707" 
d="M57 0v673h225v-230h143v230h225v-673h-225v240h-143v-240h-225z" />
    <glyph glyph-name="I" unicode="I" horiz-adv-x="340" 
d="M57 0v673h226v-673h-226z" />
    <glyph glyph-name="Iacute" unicode="&#xcd;" horiz-adv-x="340" 
d="M57 0v673h226v-673h-226zM83 724l59 196h254l-130 -196h-183z" />
    <glyph glyph-name="Icircumflex" unicode="&#xce;" horiz-adv-x="340" 
d="M57 0v673h226v-673h-226zM408 724h-173l-65 71l-65 -71h-172l150 196h176z" />
    <glyph glyph-name="Idieresis" unicode="&#xcf;" horiz-adv-x="340" 
d="M57 0v673h226v-673h-226zM39 712c-62 0 -116 51 -116 110c0 62 51 111 116 111c68 0 117 -47 117 -111c0 -61 -52 -110 -117 -110zM300 712c-63 0 -116 51 -116 110c0 62 51 111 116 111c68 0 117 -47 117 -111c0 -61 -52 -110 -117 -110z" />
    <glyph glyph-name="Idotaccent" unicode="&#x130;" horiz-adv-x="340" 
d="M57 0v673h226v-673h-226zM169 698c-72 0 -129 55 -129 124c0 70 57 125 129 125c73 0 131 -55 131 -125c0 -69 -58 -124 -131 -124z" />
    <glyph glyph-name="Igrave" unicode="&#xcc;" horiz-adv-x="340" 
d="M57 0v673h226v-673h-226zM78 724l-121 196h246l58 -196h-183z" />
    <glyph glyph-name="Imacron" unicode="&#x12a;" horiz-adv-x="340" 
d="M57 0v673h226v-673h-226zM-12 737v161h363v-161h-363z" />
    <glyph glyph-name="Iogonek" unicode="&#x12e;" horiz-adv-x="340" 
d="M57 0v673h226v-673h-1l-21 -11c-19 -9 -26 -16 -26 -30s9 -22 24 -22h23v-122c-38 -5 -69 -8 -95 -8c-95 0 -154 43 -154 111c0 29 13 58 37 82h-13z" />
    <glyph glyph-name="J" unicode="J" horiz-adv-x="406" 
d="M3 0v203h53c49 0 68 14 68 50v420h225v-454c0 -147 -81 -219 -245 -219h-101z" />
    <glyph glyph-name="K" unicode="K" horiz-adv-x="693" 
d="M709 0h-265l-161 272v-272h-226v673h226v-254l154 254h253l-198 -324z" />
    <glyph glyph-name="Kcommaaccent" unicode="&#x136;" horiz-adv-x="693" 
d="M709 0h-265l-161 272v-272h-226v673h226v-254l154 254h253l-198 -324zM254 -220v179h195l-27 -179h-168z" />
    <glyph glyph-name="L" unicode="L" horiz-adv-x="499" 
d="M57 0v673h226v-470h202v-203h-428z" />
    <glyph glyph-name="Lacute" unicode="&#x139;" horiz-adv-x="499" 
d="M57 0v673h226v-470h202v-203h-428zM87 724l59 196h254l-130 -196h-183z" />
    <glyph glyph-name="Lcaron" unicode="&#x13d;" horiz-adv-x="571" 
d="M57 0v673h226v-470h202v-203h-428zM338 480v193h218l-63 -193h-155z" />
    <glyph glyph-name="Lcommaaccent" unicode="&#x13b;" horiz-adv-x="499" 
d="M57 0v673h226v-470h202v-203h-428zM180 -220v179h195l-27 -179h-168z" />
    <glyph glyph-name="Ldot" unicode="&#x13f;" horiz-adv-x="573" 
d="M57 0v673h226v-470h202v-203h-428zM457 289c-72 0 -125 51 -125 121s53 122 125 122s125 -52 125 -122s-53 -121 -125 -121z" />
    <glyph glyph-name="Lslash" unicode="&#x141;" horiz-adv-x="524" 
d="M82 0v198l-69 -30v209l69 30v266h226v-177l164 74v-209l-164 -74v-84h202v-203h-428z" />
    <glyph glyph-name="M" unicode="M" horiz-adv-x="889" 
d="M541 673h291v-673h-210v358l-93 -358h-170l-92 357v-357h-210v673h290l98 -377z" />
    <glyph glyph-name="N" unicode="N" horiz-adv-x="708" 
d="M437 673h214v-673h-231l-149 308v-308h-214v673h231l149 -309v309z" />
    <glyph glyph-name="Nacute" unicode="&#x143;" horiz-adv-x="708" 
d="M437 673h214v-673h-231l-149 308v-308h-214v673h231l149 -309v309zM267 724l59 196h254l-130 -196h-183z" />
    <glyph glyph-name="Ncaron" unicode="&#x147;" horiz-adv-x="708" 
d="M437 673h214v-673h-231l-149 308v-308h-214v673h231l149 -309v309zM419 920h172l-150 -196h-176l-149 196h173l65 -71z" />
    <glyph glyph-name="Ncommaaccent" unicode="&#x145;" horiz-adv-x="708" 
d="M437 673h214v-673h-231l-149 308v-308h-214v673h231l149 -309v309zM248 -220v179h195l-27 -179h-168z" />
    <glyph glyph-name="Ntilde" unicode="&#xd1;" horiz-adv-x="708" 
d="M437 673h214v-673h-231l-149 308v-308h-214v673h231l149 -309v309zM445 709c-32 0 -61 6 -104 23c-39 15 -57 19 -79 19c-41 0 -72 -9 -116 -35v153c46 31 76 42 117 42c32 0 61 -6 104 -23c39 -15 57 -19 79 -19c41 0 72 9 116 35v-153c-46 -31 -76 -42 -117 -42z" />
    <glyph glyph-name="O" unicode="O" horiz-adv-x="795" 
d="M398 -14c-221 0 -376 145 -376 351s155 350 376 350c220 0 375 -145 375 -350c0 -206 -155 -351 -375 -351zM398 193c82 0 139 59 139 144c0 84 -57 143 -139 143c-83 0 -140 -59 -140 -143c0 -85 57 -144 140 -144z" />
    <glyph glyph-name="Oacute" unicode="&#xd3;" horiz-adv-x="795" 
d="M398 -14c-221 0 -376 145 -376 351s155 350 376 350c220 0 375 -145 375 -350c0 -206 -155 -351 -375 -351zM398 193c82 0 139 59 139 144c0 84 -57 143 -139 143c-83 0 -140 -59 -140 -143c0 -85 57 -144 140 -144zM311 724l59 196h254l-130 -196h-183z" />
    <glyph glyph-name="Ocircumflex" unicode="&#xd4;" horiz-adv-x="795" 
d="M398 -14c-221 0 -376 145 -376 351s155 350 376 350c220 0 375 -145 375 -350c0 -206 -155 -351 -375 -351zM398 193c82 0 139 59 139 144c0 84 -57 143 -139 143c-83 0 -140 -59 -140 -143c0 -85 57 -144 140 -144zM636 724h-173l-65 71l-65 -71h-172l150 196h176z" />
    <glyph glyph-name="Odieresis" unicode="&#xd6;" horiz-adv-x="795" 
d="M398 -14c-221 0 -376 145 -376 351s155 350 376 350c220 0 375 -145 375 -350c0 -206 -155 -351 -375 -351zM398 193c82 0 139 59 139 144c0 84 -57 143 -139 143c-83 0 -140 -59 -140 -143c0 -85 57 -144 140 -144zM267 712c-62 0 -116 51 -116 110c0 62 51 111 116 111
c68 0 117 -47 117 -111c0 -61 -52 -110 -117 -110zM528 712c-63 0 -116 51 -116 110c0 62 51 111 116 111c68 0 117 -47 117 -111c0 -61 -52 -110 -117 -110z" />
    <glyph glyph-name="Ograve" unicode="&#xd2;" horiz-adv-x="795" 
d="M398 -14c-221 0 -376 145 -376 351s155 350 376 350c220 0 375 -145 375 -350c0 -206 -155 -351 -375 -351zM398 193c82 0 139 59 139 144c0 84 -57 143 -139 143c-83 0 -140 -59 -140 -143c0 -85 57 -144 140 -144zM306 724l-121 196h246l58 -196h-183z" />
    <glyph glyph-name="Ohungarumlaut" unicode="&#x150;" horiz-adv-x="795" 
d="M398 -14c-221 0 -376 145 -376 351s155 350 376 350c220 0 375 -145 375 -350c0 -206 -155 -351 -375 -351zM398 193c82 0 139 59 139 144c0 84 -57 143 -139 143c-83 0 -140 -59 -140 -143c0 -85 57 -144 140 -144zM220 724l58 196h182l-72 -196h-168zM444 724l71 196
h204l-124 -196h-151z" />
    <glyph glyph-name="Omacron" unicode="&#x14c;" horiz-adv-x="795" 
d="M398 -14c-221 0 -376 145 -376 351s155 350 376 350c220 0 375 -145 375 -350c0 -206 -155 -351 -375 -351zM398 193c82 0 139 59 139 144c0 84 -57 143 -139 143c-83 0 -140 -59 -140 -143c0 -85 57 -144 140 -144zM216 737v161h363v-161h-363z" />
    <glyph glyph-name="Oslash" unicode="&#xd8;" horiz-adv-x="815" 
d="M814 709l-113 -144c52 -60 82 -138 82 -228c0 -206 -155 -351 -375 -351c-50 0 -97 7 -139 21l-34 -43h-234l112 145c-51 60 -81 138 -81 228c0 206 155 350 376 350c50 0 96 -7 138 -21l34 43h234zM408 486c-85 0 -143 -60 -143 -149c0 -18 2 -35 7 -50l154 198
c-6 1 -12 1 -18 1zM408 187c84 0 142 60 142 150c0 18 -2 34 -7 50l-154 -199c6 -1 13 -1 19 -1z" />
    <glyph glyph-name="Otilde" unicode="&#xd5;" horiz-adv-x="795" 
d="M398 -14c-221 0 -376 145 -376 351s155 350 376 350c220 0 375 -145 375 -350c0 -206 -155 -351 -375 -351zM398 193c82 0 139 59 139 144c0 84 -57 143 -139 143c-83 0 -140 -59 -140 -143c0 -85 57 -144 140 -144zM489 709c-32 0 -61 6 -104 23c-39 15 -57 19 -79 19
c-41 0 -72 -9 -116 -35v153c46 31 76 42 117 42c32 0 61 -6 104 -23c39 -15 57 -19 79 -19c41 0 72 9 116 35v-153c-46 -31 -76 -42 -117 -42z" />
    <glyph glyph-name="OE" unicode="&#x152;" horiz-adv-x="999" 
d="M748 188h216v-188h-427v21c-44 -22 -96 -34 -149 -34c-214 0 -366 146 -366 350c0 203 154 349 367 349c52 0 104 -13 148 -34v21h416v-188h-205v-60h195v-174h-195v-63zM396 194c84 0 140 57 140 141c0 86 -56 144 -140 144s-137 -56 -137 -144c0 -85 54 -141 137 -141z
" />
    <glyph glyph-name="P" unicode="P" horiz-adv-x="602" 
d="M57 0v673h265c168 0 270 -90 270 -240c0 -145 -100 -231 -270 -231h-39v-202h-226zM283 374h36c33 0 56 24 56 59c0 34 -23 58 -56 58h-36v-117z" />
    <glyph glyph-name="Thorn" unicode="&#xde;" horiz-adv-x="637" 
d="M57 0v673h232v-78h56c175 0 282 -96 282 -253s-110 -256 -282 -256h-56v-86h-232zM289 289h51c31 0 51 20 51 53c0 31 -20 52 -51 52h-51v-105z" />
    <glyph glyph-name="Q" unicode="Q" horiz-adv-x="795" 
d="M638 95l158 -43v-193l-479 133c-190 53 -295 173 -295 337c0 203 163 358 375 358c213 0 376 -149 376 -345c0 -108 -49 -194 -135 -247zM398 480c-83 0 -140 -59 -140 -143c0 -85 57 -144 140 -144c82 0 139 59 139 144c0 84 -57 143 -139 143z" />
    <glyph glyph-name="R" unicode="R" horiz-adv-x="644" 
d="M57 0v673h265c168 0 270 -90 270 -240c0 -80 -31 -142 -87 -182l139 -251h-259l-98 202h-4v-202h-226zM283 374h36c33 0 56 24 56 59c0 34 -23 58 -56 58h-36v-117z" />
    <glyph glyph-name="Racute" unicode="&#x154;" horiz-adv-x="644" 
d="M57 0v673h265c168 0 270 -90 270 -240c0 -80 -31 -142 -87 -182l139 -251h-259l-98 202h-4v-202h-226zM283 374h36c33 0 56 24 56 59c0 34 -23 58 -56 58h-36v-117zM225 724l59 196h254l-130 -196h-183z" />
    <glyph glyph-name="Rcaron" unicode="&#x158;" horiz-adv-x="644" 
d="M57 0v673h265c168 0 270 -90 270 -240c0 -80 -31 -142 -87 -182l139 -251h-259l-98 202h-4v-202h-226zM283 374h36c33 0 56 24 56 59c0 34 -23 58 -56 58h-36v-117zM377 920h172l-150 -196h-176l-149 196h173l65 -71z" />
    <glyph glyph-name="Rcommaaccent" unicode="&#x156;" horiz-adv-x="644" 
d="M57 0v673h265c168 0 270 -90 270 -240c0 -80 -31 -142 -87 -182l139 -251h-259l-98 202h-4v-202h-226zM283 374h36c33 0 56 24 56 59c0 34 -23 58 -56 58h-36v-117zM216 -220v179h195l-27 -179h-168z" />
    <glyph glyph-name="S" unicode="S" horiz-adv-x="574" 
d="M291 -15c-170 0 -274 89 -278 239h212c1 -45 20 -65 59 -65c29 0 49 14 49 34s-11 30 -44 41l-74 25c-121 41 -181 113 -181 218c0 125 104 210 256 210s241 -79 252 -225h-207c-2 33 -18 52 -45 52c-22 0 -38 -14 -38 -32c0 -19 12 -30 43 -41l77 -28
c133 -47 184 -103 184 -206c0 -138 -101 -222 -265 -222z" />
    <glyph glyph-name="Sacute" unicode="&#x15a;" horiz-adv-x="574" 
d="M291 -15c-170 0 -274 89 -278 239h212c1 -45 20 -65 59 -65c29 0 49 14 49 34s-11 30 -44 41l-74 25c-121 41 -181 113 -181 218c0 125 104 210 256 210s241 -79 252 -225h-207c-2 33 -18 52 -45 52c-22 0 -38 -14 -38 -32c0 -19 12 -30 43 -41l77 -28
c133 -47 184 -103 184 -206c0 -138 -101 -222 -265 -222zM200 724l59 196h254l-130 -196h-183z" />
    <glyph glyph-name="Scaron" unicode="&#x160;" horiz-adv-x="574" 
d="M291 -15c-170 0 -274 89 -278 239h212c1 -45 20 -65 59 -65c29 0 49 14 49 34s-11 30 -44 41l-74 25c-121 41 -181 113 -181 218c0 125 104 210 256 210s241 -79 252 -225h-207c-2 33 -18 52 -45 52c-22 0 -38 -14 -38 -32c0 -19 12 -30 43 -41l77 -28
c133 -47 184 -103 184 -206c0 -138 -101 -222 -265 -222zM352 920h172l-150 -196h-176l-149 196h173l65 -71z" />
    <glyph glyph-name="Scedilla" unicode="&#x15e;" horiz-adv-x="574" 
d="M242 -195c-31 0 -51 1 -91 5v129h59c28 0 45 15 45 39v9c-149 12 -239 98 -242 237h212c1 -45 20 -65 59 -65c29 0 49 14 49 34s-11 30 -44 41l-74 25c-121 41 -181 113 -181 218c0 125 104 210 256 210s241 -79 252 -225h-207c-2 33 -18 52 -45 52
c-22 0 -38 -14 -38 -32c0 -19 12 -30 43 -41l77 -28c133 -47 184 -103 184 -206c0 -105 -58 -178 -157 -207c9 -17 14 -34 14 -52c0 -96 -56 -143 -171 -143z" />
    <glyph glyph-name="Scommaaccent" unicode="&#x218;" horiz-adv-x="574" 
d="M291 -15c-170 0 -274 89 -278 239h212c1 -45 20 -65 59 -65c29 0 49 14 49 34s-11 30 -44 41l-74 25c-121 41 -181 113 -181 218c0 125 104 210 256 210s241 -79 252 -225h-207c-2 33 -18 52 -45 52c-22 0 -38 -14 -38 -32c0 -19 12 -30 43 -41l77 -28
c133 -47 184 -103 184 -206c0 -138 -101 -222 -265 -222zM181 -220v179h195l-27 -179h-168z" />
    <glyph glyph-name="T" unicode="T" horiz-adv-x="586" 
d="M173 0v470h-153v203h546v-203h-167v-470h-226z" />
    <glyph glyph-name="Tcaron" unicode="&#x164;" horiz-adv-x="586" 
d="M173 0v470h-153v203h546v-203h-167v-470h-226zM358 920h172l-150 -196h-176l-149 196h173l65 -71z" />
    <glyph glyph-name="uni0162" unicode="&#x162;" horiz-adv-x="586" 
d="M173 0v470h-153v203h546v-203h-167v-460c13 -19 20 -41 20 -62c0 -96 -56 -143 -171 -143c-31 0 -51 1 -91 5v129h59c28 0 45 15 45 39c0 8 -1 15 -2 22h-86z" />
    <glyph glyph-name="uni021A" unicode="&#x21a;" horiz-adv-x="586" 
d="M173 0v470h-153v203h546v-203h-167v-470h-226zM187 -220v179h195l-27 -179h-168z" />
    <glyph glyph-name="U" unicode="U" horiz-adv-x="698" 
d="M347 -14c-177 0 -295 115 -295 286v401h226v-398c0 -48 25 -76 69 -76c48 0 73 27 73 76v398h226v-401c0 -173 -118 -286 -299 -286z" />
    <glyph glyph-name="Uacute" unicode="&#xda;" horiz-adv-x="698" 
d="M347 -14c-177 0 -295 115 -295 286v401h226v-398c0 -48 25 -76 69 -76c48 0 73 27 73 76v398h226v-401c0 -173 -118 -286 -299 -286zM262 724l59 196h254l-130 -196h-183z" />
    <glyph glyph-name="Ucircumflex" unicode="&#xdb;" horiz-adv-x="698" 
d="M347 -14c-177 0 -295 115 -295 286v401h226v-398c0 -48 25 -76 69 -76c48 0 73 27 73 76v398h226v-401c0 -173 -118 -286 -299 -286zM587 724h-173l-65 71l-65 -71h-172l150 196h176z" />
    <glyph glyph-name="Udieresis" unicode="&#xdc;" horiz-adv-x="698" 
d="M347 -14c-177 0 -295 115 -295 286v401h226v-398c0 -48 25 -76 69 -76c48 0 73 27 73 76v398h226v-401c0 -173 -118 -286 -299 -286zM218 712c-62 0 -116 51 -116 110c0 62 51 111 116 111c68 0 117 -47 117 -111c0 -61 -52 -110 -117 -110zM479 712
c-63 0 -116 51 -116 110c0 62 51 111 116 111c68 0 117 -47 117 -111c0 -61 -52 -110 -117 -110z" />
    <glyph glyph-name="Ugrave" unicode="&#xd9;" horiz-adv-x="698" 
d="M347 -14c-177 0 -295 115 -295 286v401h226v-398c0 -48 25 -76 69 -76c48 0 73 27 73 76v398h226v-401c0 -173 -118 -286 -299 -286zM257 724l-121 196h246l58 -196h-183z" />
    <glyph glyph-name="Uhungarumlaut" unicode="&#x170;" horiz-adv-x="698" 
d="M347 -14c-177 0 -295 115 -295 286v401h226v-398c0 -48 25 -76 69 -76c48 0 73 27 73 76v398h226v-401c0 -173 -118 -286 -299 -286zM171 724l58 196h182l-72 -196h-168zM395 724l71 196h204l-124 -196h-151z" />
    <glyph glyph-name="Umacron" unicode="&#x16a;" horiz-adv-x="698" 
d="M347 -14c-177 0 -295 115 -295 286v401h226v-398c0 -48 25 -76 69 -76c48 0 73 27 73 76v398h226v-401c0 -173 -118 -286 -299 -286zM167 737v161h363v-161h-363z" />
    <glyph glyph-name="Uogonek" unicode="&#x172;" horiz-adv-x="698" 
d="M432 -193c-95 0 -154 43 -154 111c0 27 6 48 27 71c-154 16 -253 126 -253 283v401h226v-398c0 -48 25 -76 69 -76c48 0 73 27 73 76v398h226v-401c0 -87 -30 -159 -83 -209l-61 -66c-19 -22 -22 -27 -22 -38c0 -14 9 -22 24 -22h23v-122c-42 -6 -69 -8 -95 -8z" />
    <glyph glyph-name="Uring" unicode="&#x16e;" horiz-adv-x="698" 
d="M347 -14c-177 0 -295 115 -295 286v401h226v-398c0 -48 25 -76 69 -76c48 0 73 27 73 76v398h226v-401c0 -173 -118 -286 -299 -286zM348 673c-88 0 -150 59 -150 144c0 84 62 142 150 142c89 0 151 -58 151 -142c0 -85 -62 -144 -151 -144zM350 780c21 0 35 14 35 37
c0 22 -13 35 -35 35s-36 -14 -36 -35c0 -22 14 -37 36 -37z" />
    <glyph glyph-name="V" unicode="V" horiz-adv-x="660" 
d="M425 673h244l-219 -673h-241l-218 673h244l96 -379z" />
    <glyph glyph-name="W" unicode="W" horiz-adv-x="1003" 
d="M751 673h244l-177 -673h-240l-76 381l-77 -381h-239l-178 673h244l70 -360l65 360h229l65 -360z" />
    <glyph glyph-name="X" unicode="X" horiz-adv-x="699" 
d="M694 0h-255l-90 176l-89 -176h-255l202 345l-191 328h254l82 -162l74 162h255l-189 -328z" />
    <glyph glyph-name="Y" unicode="Y" horiz-adv-x="649" 
d="M660 673l-223 -386v-287h-226v289l-222 384h260l76 -169l76 169h259z" />
    <glyph glyph-name="Yacute" unicode="&#xdd;" horiz-adv-x="649" 
d="M660 673l-223 -386v-287h-226v289l-222 384h260l76 -169l76 169h259zM238 724l59 196h254l-130 -196h-183z" />
    <glyph glyph-name="Ydieresis" unicode="&#x178;" horiz-adv-x="649" 
d="M660 673l-223 -386v-287h-226v289l-222 384h260l76 -169l76 169h259zM194 712c-62 0 -116 51 -116 110c0 62 51 111 116 111c68 0 117 -47 117 -111c0 -61 -52 -110 -117 -110zM455 712c-63 0 -116 51 -116 110c0 62 51 111 116 111c68 0 117 -47 117 -111
c0 -61 -52 -110 -117 -110z" />
    <glyph glyph-name="Z" unicode="Z" horiz-adv-x="569" 
d="M306 203h231v-203h-505v183l221 287h-218v203h498v-183z" />
    <glyph glyph-name="Zacute" unicode="&#x179;" horiz-adv-x="569" 
d="M306 203h231v-203h-505v183l221 287h-218v203h498v-183zM198 724l59 196h254l-130 -196h-183z" />
    <glyph glyph-name="Zcaron" unicode="&#x17d;" horiz-adv-x="569" 
d="M306 203h231v-203h-505v183l221 287h-218v203h498v-183zM350 920h172l-150 -196h-176l-149 196h173l65 -71z" />
    <glyph glyph-name="Zdotaccent" unicode="&#x17b;" horiz-adv-x="569" 
d="M306 203h231v-203h-505v183l221 287h-218v203h498v-183zM284 698c-72 0 -129 55 -129 124c0 70 57 125 129 125c73 0 131 -55 131 -125c0 -69 -58 -124 -131 -124z" />
    <glyph glyph-name="Iacute_J.loclNLD" horiz-adv-x="746" 
d="M343 0v203h53c49 0 68 14 68 50v420h225v-454c0 -147 -81 -219 -245 -219h-101zM486 724l59 196h254l-130 -196h-183zM57 0v673h226v-673h-226zM83 724l59 196h254l-130 -196h-183z" />
    <glyph glyph-name="Idotaccent.loclTRK" horiz-adv-x="340" 
d="M57 0v673h226v-673h-226zM169 698c-72 0 -129 55 -129 124c0 70 57 125 129 125c73 0 131 -55 131 -125c0 -69 -58 -124 -131 -124z" />
    <glyph glyph-name="A.ordn" horiz-adv-x="451" 
d="M284 268l-10 48h-99l-10 -48h-171l127 405h208l128 -405h-173zM251 424l-26 118l-27 -118h53z" />
    <glyph glyph-name="C.ordn" horiz-adv-x="478" 
d="M240 260c-132 0 -226 87 -226 211s95 211 227 211c123 0 218 -76 223 -187h-174c-5 20 -23 32 -47 32c-31 0 -51 -21 -51 -55c0 -35 20 -57 51 -57c24 0 42 12 47 32h174c-6 -113 -103 -187 -224 -187z" />
    <glyph glyph-name="D.ordn" horiz-adv-x="475" 
d="M37 269v404h201c130 0 223 -86 223 -200c0 -116 -97 -204 -223 -204h-201zM207 412h27c31 0 51 22 51 60c0 37 -19 58 -51 58h-27v-118z" />
    <glyph glyph-name="E.ordn" horiz-adv-x="333" 
d="M37 269v404h270v-124h-100v-24h92v-107h-92v-25h103v-124h-273z" />
    <glyph glyph-name="G.ordn" horiz-adv-x="482" 
d="M245 420v82h210v-137c-40 -66 -120 -105 -212 -105c-138 0 -229 87 -229 211c0 123 90 211 229 211c110 0 195 -56 212 -153l-167 -1c-8 12 -22 18 -42 18c-45 0 -73 -30 -73 -76c0 -48 30 -78 79 -78c19 0 39 4 54 11v17h-61z" />
    <glyph glyph-name="H.ordn" horiz-adv-x="454" 
d="M37 269v404h170v-132h40v132h170v-404h-170v129h-40v-129h-170z" />
    <glyph glyph-name="I.ordn" horiz-adv-x="244" 
d="M37 269v404h170v-404h-170z" />
    <glyph glyph-name="J.ordn" horiz-adv-x="270" 
d="M2 269v143h33c21 0 28 6 28 25v236h170v-257c0 -99 -55 -147 -166 -147h-65z" />
    <glyph glyph-name="K.ordn" horiz-adv-x="461" 
d="M456 269h-186l-63 150v-150h-170v404h170v-145l61 145h184l-98 -199z" />
    <glyph glyph-name="M.ordn" horiz-adv-x="567" 
d="M320 673h210v-404h-149v202l-43 -202h-110l-42 205v-205h-149v404h209l38 -164z" />
    <glyph glyph-name="N.ordn" horiz-adv-x="453" 
d="M264 673h152v-404h-165l-63 144v-144h-151v404h164l63 -146v146z" />
    <glyph glyph-name="P.ordn" horiz-adv-x="392" 
d="M37 269v404h172c110 0 176 -58 176 -155c0 -93 -65 -149 -176 -149h-12v-100h-160zM191 487h14c19 0 29 13 29 31c0 17 -10 30 -29 30h-14v-61z" />
    <glyph glyph-name="R.ordn" horiz-adv-x="418" 
d="M418 269h-175l-39 100h-7v-100h-160v404h172c110 0 176 -58 176 -155c0 -43 -14 -79 -40 -104zM191 548v-61h14c19 0 29 13 29 31c0 17 -10 30 -29 30h-14z" />
    <glyph glyph-name="S.ordn" horiz-adv-x="367" 
d="M184 259c-113 0 -174 53 -176 146h144c1 -24 11 -34 33 -34c16 0 25 5 25 17c0 11 -7 15 -24 19l-56 13c-76 18 -115 61 -115 125c0 83 65 137 166 137c98 0 160 -52 166 -142h-142c0 19 -9 30 -25 30c-11 0 -21 -5 -21 -17s10 -16 19 -18l58 -14
c82 -20 119 -60 119 -127c0 -86 -62 -135 -171 -135z" />
    <glyph glyph-name="T.ordn" horiz-adv-x="369" 
d="M94 269v251h-81v153h343v-153h-93v-251h-169z" />
    <glyph glyph-name="U.ordn" horiz-adv-x="448" 
d="M223 260c-112 0 -189 68 -189 172v241h170v-238c0 -12 7 -20 19 -20c14 0 21 7 21 20v238h170v-241c0 -106 -76 -172 -191 -172z" />
    <glyph glyph-name="Z.ordn" horiz-adv-x="364" 
d="M224 412h119v-143h-320v128l114 133h-116v143h320v-128z" />
    <glyph glyph-name="a" unicode="a" horiz-adv-x="555" 
d="M271 521c151 0 245 -81 245 -216v-305h-193v35c-36 -33 -84 -49 -139 -49c-103 0 -169 58 -169 154c0 101 72 158 206 158h87v18c0 36 -18 53 -45 53c-26 0 -39 -15 -42 -46h-187c5 127 96 198 237 198zM263 122c26 0 45 17 45 50v24h-45c-23 0 -38 -15 -38 -38
c0 -22 14 -36 38 -36z" />
    <glyph glyph-name="aacute" unicode="&#xe1;" horiz-adv-x="555" 
d="M271 521c151 0 245 -81 245 -216v-305h-193v35c-36 -33 -84 -49 -139 -49c-103 0 -169 58 -169 154c0 101 72 158 206 158h87v18c0 36 -18 53 -45 53c-26 0 -39 -15 -42 -46h-187c5 127 96 198 237 198zM263 122c26 0 45 17 45 50v24h-45c-23 0 -38 -15 -38 -38
c0 -22 14 -36 38 -36zM182 560l63 192h240l-121 -192h-182z" />
    <glyph glyph-name="abreve" unicode="&#x103;" horiz-adv-x="555" 
d="M271 521c151 0 245 -81 245 -216v-305h-193v35c-36 -33 -84 -49 -139 -49c-103 0 -169 58 -169 154c0 101 72 158 206 158h87v18c0 36 -18 53 -45 53c-26 0 -39 -15 -42 -46h-187c5 127 96 198 237 198zM263 122c26 0 45 17 45 50v24h-45c-23 0 -38 -15 -38 -38
c0 -22 14 -36 38 -36zM275 556c-132 0 -203 69 -203 196h149c0 -39 20 -62 55 -62c34 0 54 23 54 62h149c0 -127 -71 -196 -204 -196z" />
    <glyph glyph-name="acircumflex" unicode="&#xe2;" horiz-adv-x="555" 
d="M271 521c151 0 245 -81 245 -216v-305h-193v35c-36 -33 -84 -49 -139 -49c-103 0 -169 58 -169 154c0 101 72 158 206 158h87v18c0 36 -18 53 -45 53c-26 0 -39 -15 -42 -46h-187c5 127 96 198 237 198zM263 122c26 0 45 17 45 50v24h-45c-23 0 -38 -15 -38 -38
c0 -22 14 -36 38 -36zM505 560h-175l-55 65l-55 -65h-175l142 192h176z" />
    <glyph glyph-name="adieresis" unicode="&#xe4;" horiz-adv-x="555" 
d="M271 521c151 0 245 -81 245 -216v-305h-193v35c-36 -33 -84 -49 -139 -49c-103 0 -169 58 -169 154c0 101 72 158 206 158h87v18c0 36 -18 53 -45 53c-26 0 -39 -15 -42 -46h-187c5 127 96 198 237 198zM263 122c26 0 45 17 45 50v24h-45c-23 0 -38 -15 -38 -38
c0 -22 14 -36 38 -36zM148 540c-61 0 -112 50 -112 108c0 62 49 109 112 109c66 0 113 -45 113 -109c0 -61 -50 -108 -113 -108zM401 540c-61 0 -112 49 -112 108c0 62 49 109 112 109c66 0 113 -45 113 -109c0 -61 -50 -108 -113 -108z" />
    <glyph glyph-name="agrave" unicode="&#xe0;" horiz-adv-x="555" 
d="M271 521c151 0 245 -81 245 -216v-305h-193v35c-36 -33 -84 -49 -139 -49c-103 0 -169 58 -169 154c0 101 72 158 206 158h87v18c0 36 -18 53 -45 53c-26 0 -39 -15 -42 -46h-187c5 127 96 198 237 198zM263 122c26 0 45 17 45 50v24h-45c-23 0 -38 -15 -38 -38
c0 -22 14 -36 38 -36zM183 560l-121 192h240l63 -192h-182z" />
    <glyph glyph-name="amacron" unicode="&#x101;" horiz-adv-x="555" 
d="M271 521c151 0 245 -81 245 -216v-305h-193v35c-36 -33 -84 -49 -139 -49c-103 0 -169 58 -169 154c0 101 72 158 206 158h87v18c0 36 -18 53 -45 53c-26 0 -39 -15 -42 -46h-187c5 127 96 198 237 198zM263 122c26 0 45 17 45 50v24h-45c-23 0 -38 -15 -38 -38
c0 -22 14 -36 38 -36zM103 571v151h343v-151h-343z" />
    <glyph glyph-name="aogonek" unicode="&#x105;" horiz-adv-x="555" 
d="M421 -193c-95 0 -154 43 -154 111c0 36 20 71 56 98v19c-36 -33 -84 -49 -139 -49c-103 0 -169 58 -169 154c0 101 72 158 206 158h87v18c0 36 -18 53 -45 53c-26 0 -39 -15 -42 -46h-187c5 127 96 198 237 198c151 0 245 -81 245 -216v-305l-21 -11
c-19 -9 -26 -16 -26 -30s9 -22 24 -22h23v-122c-38 -5 -69 -8 -95 -8zM263 122c26 0 45 17 45 50v24h-45c-23 0 -38 -15 -38 -38c0 -22 14 -36 38 -36z" />
    <glyph glyph-name="aring" unicode="&#xe5;" horiz-adv-x="555" 
d="M271 521c151 0 245 -81 245 -216v-305h-193v35c-36 -33 -84 -49 -139 -49c-103 0 -169 58 -169 154c0 101 72 158 206 158h87v18c0 36 -18 53 -45 53c-26 0 -39 -15 -42 -46h-187c5 127 96 198 237 198zM263 122c26 0 45 17 45 50v24h-45c-23 0 -38 -15 -38 -38
c0 -22 14 -36 38 -36zM275 531c-89 0 -150 59 -150 144s61 143 150 143c90 0 151 -58 151 -143s-62 -144 -151 -144zM277 639c20 0 35 16 35 36s-15 36 -35 36c-21 0 -36 -15 -36 -36s15 -36 36 -36z" />
    <glyph glyph-name="atilde" unicode="&#xe3;" horiz-adv-x="555" 
d="M271 521c151 0 245 -81 245 -216v-305h-193v35c-36 -33 -84 -49 -139 -49c-103 0 -169 58 -169 154c0 101 72 158 206 158h87v18c0 36 -18 53 -45 53c-26 0 -39 -15 -42 -46h-187c5 127 96 198 237 198zM263 122c26 0 45 17 45 50v24h-45c-23 0 -38 -15 -38 -38
c0 -22 14 -36 38 -36zM346 560c-26 0 -51 6 -82 21c-35 15 -51 19 -67 19c-27 0 -51 -8 -106 -36v153c51 29 79 39 111 39c23 0 48 -6 84 -21c31 -14 49 -19 66 -19c25 0 49 7 107 35v-152c-54 -30 -80 -39 -113 -39z" />
    <glyph glyph-name="ae" unicode="&#xe6;" horiz-adv-x="894" 
d="M604 521c176 0 288 -128 269 -310h-356c13 -45 47 -71 94 -71c34 0 58 14 63 36h196c-28 -120 -125 -190 -263 -190c-84 0 -153 26 -201 73c-40 -51 -101 -73 -191 -73c-125 0 -200 57 -200 152c0 104 72 160 206 160h82v18c0 36 -13 53 -40 53c-26 0 -39 -15 -42 -46
h-187c5 125 93 198 238 198c70 0 125 -18 164 -51c45 33 102 51 168 51zM604 365c-40 0 -70 -21 -84 -57h164c-8 35 -38 57 -80 57zM263 122c26 0 40 17 40 50v24h-40c-23 0 -38 -15 -38 -37c0 -24 14 -37 38 -37z" />
    <glyph glyph-name="b" unicode="b" horiz-adv-x="634" 
d="M380 521c134 0 232 -115 232 -271s-96 -264 -236 -264c-58 0 -103 19 -132 57v-43h-201v673h221v-196c30 30 68 44 116 44zM324 178c43 0 69 29 69 75c0 47 -27 76 -69 76s-69 -29 -69 -76c0 -46 26 -75 69 -75z" />
    <glyph glyph-name="c" unicode="c" horiz-adv-x="594" 
d="M301 -14c-160 0 -282 115 -282 267s122 268 282 268c148 0 259 -97 274 -240h-209c-9 30 -30 46 -61 46c-41 0 -67 -28 -67 -74c0 -45 26 -73 67 -73c31 0 52 17 61 47h209c-15 -143 -126 -241 -274 -241z" />
    <glyph glyph-name="cacute" unicode="&#x107;" horiz-adv-x="594" 
d="M301 -14c-160 0 -282 115 -282 267s122 268 282 268c148 0 259 -97 274 -240h-209c-9 30 -30 46 -61 46c-41 0 -67 -28 -67 -74c0 -45 26 -73 67 -73c31 0 52 17 61 47h209c-15 -143 -126 -241 -274 -241zM214 560l63 192h240l-121 -192h-182z" />
    <glyph glyph-name="ccaron" unicode="&#x10d;" horiz-adv-x="594" 
d="M301 -14c-160 0 -282 115 -282 267s122 268 282 268c148 0 259 -97 274 -240h-209c-9 30 -30 46 -61 46c-41 0 -67 -28 -67 -74c0 -45 26 -73 67 -73c31 0 52 17 61 47h209c-15 -143 -126 -241 -274 -241zM362 752h175l-142 -192h-176l-142 192h175l55 -65z" />
    <glyph glyph-name="ccedilla" unicode="&#xe7;" horiz-adv-x="594" 
d="M260 -195c-31 0 -51 1 -91 5v129h59c28 0 45 15 45 39v10c-146 12 -254 122 -254 265c0 152 122 268 282 268c148 0 259 -97 274 -240h-209c-9 30 -30 46 -61 46c-41 0 -67 -28 -67 -74c0 -45 26 -73 67 -73c31 0 52 17 61 47h209c-11 -104 -73 -184 -162 -220
c11 -19 18 -39 18 -59c0 -96 -56 -143 -171 -143z" />
    <glyph glyph-name="d" unicode="d" horiz-adv-x="634" 
d="M370 673h221v-673h-201v43c-29 -38 -74 -57 -132 -57c-140 0 -236 108 -236 264s98 271 232 271c48 0 86 -14 116 -44v196zM310 178c43 0 69 29 69 75c0 47 -27 76 -69 76s-69 -29 -69 -76c0 -46 26 -75 69 -75z" />
    <glyph glyph-name="eth" unicode="&#xf0;" horiz-adv-x="569" 
d="M416 523l25 -32c80 -104 109 -172 109 -254c0 -153 -105 -251 -270 -251c-158 0 -261 90 -261 227c0 126 90 213 220 213c9 0 17 0 25 -1l-40 50l-150 -37v124l68 18l-72 92h229l32 -41l150 41v-133zM285 154c34 0 59 25 59 60c0 34 -24 58 -59 58c-36 0 -60 -24 -60 -58
c0 -35 25 -60 60 -60z" />
    <glyph glyph-name="dcaron" unicode="&#x10f;" horiz-adv-x="861" 
d="M370 673h221v-673h-201v43c-29 -38 -74 -57 -132 -57c-140 0 -236 108 -236 264s98 271 232 271c48 0 86 -14 116 -44v196zM310 178c43 0 69 29 69 75c0 47 -27 76 -69 76s-69 -29 -69 -76c0 -46 26 -75 69 -75zM638 480v193h218l-63 -193h-155z" />
    <glyph glyph-name="dcroat" unicode="&#x111;" horiz-adv-x="653" 
d="M663 621v-131h-72v-490h-201v43c-29 -38 -74 -57 -132 -57c-146 0 -236 92 -236 242c0 145 87 231 232 231c48 0 86 -14 116 -44v75h-169v131h169v52h221v-52h72zM310 155c42 0 69 29 69 76s-27 77 -69 77s-69 -30 -69 -77s27 -76 69 -76z" />
    <glyph glyph-name="e" unicode="e" horiz-adv-x="592" 
d="M302 521c177 0 288 -128 269 -309h-356c13 -44 47 -71 94 -71c34 0 58 14 63 36h196c-28 -120 -125 -191 -263 -191c-170 0 -286 107 -286 264c0 158 118 271 283 271zM304 366c-39 0 -70 -20 -85 -56h163c-8 35 -38 56 -78 56z" />
    <glyph glyph-name="eacute" unicode="&#xe9;" horiz-adv-x="592" 
d="M302 521c177 0 288 -128 269 -309h-356c13 -44 47 -71 94 -71c34 0 58 14 63 36h196c-28 -120 -125 -191 -263 -191c-170 0 -286 107 -286 264c0 158 118 271 283 271zM304 366c-39 0 -70 -20 -85 -56h163c-8 35 -38 56 -78 56zM209 560l63 192h240l-121 -192h-182z" />
    <glyph glyph-name="ecaron" unicode="&#x11b;" horiz-adv-x="592" 
d="M302 521c177 0 288 -128 269 -309h-356c13 -44 47 -71 94 -71c34 0 58 14 63 36h196c-28 -120 -125 -191 -263 -191c-170 0 -286 107 -286 264c0 158 118 271 283 271zM304 366c-39 0 -70 -20 -85 -56h163c-8 35 -38 56 -78 56zM357 752h175l-142 -192h-176l-142 192h175
l55 -65z" />
    <glyph glyph-name="ecircumflex" unicode="&#xea;" horiz-adv-x="592" 
d="M302 521c177 0 288 -128 269 -309h-356c13 -44 47 -71 94 -71c34 0 58 14 63 36h196c-28 -120 -125 -191 -263 -191c-170 0 -286 107 -286 264c0 158 118 271 283 271zM304 366c-39 0 -70 -20 -85 -56h163c-8 35 -38 56 -78 56zM532 560h-175l-55 65l-55 -65h-175
l142 192h176z" />
    <glyph glyph-name="edieresis" unicode="&#xeb;" horiz-adv-x="592" 
d="M302 521c177 0 288 -128 269 -309h-356c13 -44 47 -71 94 -71c34 0 58 14 63 36h196c-28 -120 -125 -191 -263 -191c-170 0 -286 107 -286 264c0 158 118 271 283 271zM304 366c-39 0 -70 -20 -85 -56h163c-8 35 -38 56 -78 56zM175 540c-61 0 -112 50 -112 108
c0 62 49 109 112 109c66 0 113 -45 113 -109c0 -61 -50 -108 -113 -108zM428 540c-61 0 -112 49 -112 108c0 62 49 109 112 109c66 0 113 -45 113 -109c0 -61 -50 -108 -113 -108z" />
    <glyph glyph-name="edotaccent" unicode="&#x117;" horiz-adv-x="592" 
d="M302 521c177 0 288 -128 269 -309h-356c13 -44 47 -71 94 -71c34 0 58 14 63 36h196c-28 -120 -125 -191 -263 -191c-170 0 -286 107 -286 264c0 158 118 271 283 271zM304 366c-39 0 -70 -20 -85 -56h163c-8 35 -38 56 -78 56zM302 540c-69 0 -121 51 -121 118
c0 66 52 117 121 117s121 -51 121 -117c0 -67 -52 -118 -121 -118z" />
    <glyph glyph-name="egrave" unicode="&#xe8;" horiz-adv-x="592" 
d="M302 521c177 0 288 -128 269 -309h-356c13 -44 47 -71 94 -71c34 0 58 14 63 36h196c-28 -120 -125 -191 -263 -191c-170 0 -286 107 -286 264c0 158 118 271 283 271zM304 366c-39 0 -70 -20 -85 -56h163c-8 35 -38 56 -78 56zM210 560l-121 192h240l63 -192h-182z" />
    <glyph glyph-name="emacron" unicode="&#x113;" horiz-adv-x="592" 
d="M302 521c177 0 288 -128 269 -309h-356c13 -44 47 -71 94 -71c34 0 58 14 63 36h196c-28 -120 -125 -191 -263 -191c-170 0 -286 107 -286 264c0 158 118 271 283 271zM304 366c-39 0 -70 -20 -85 -56h163c-8 35 -38 56 -78 56zM130 571v151h343v-151h-343z" />
    <glyph glyph-name="eogonek" unicode="&#x119;" horiz-adv-x="592" 
d="M376 -193c-95 0 -154 43 -154 111c0 27 6 49 28 72c-140 20 -231 120 -231 260c0 158 118 271 283 271c177 0 288 -128 269 -309h-356c13 -44 47 -71 94 -71c34 0 58 14 63 36h196c-12 -50 -35 -91 -69 -123l-53 -57c-19 -22 -22 -27 -22 -38c0 -14 9 -22 24 -22h23v-122
c-42 -6 -69 -8 -95 -8zM304 366c-39 0 -70 -20 -85 -56h163c-8 35 -38 56 -78 56z" />
    <glyph glyph-name="f" unicode="f" horiz-adv-x="402" 
d="M397 518h-61c-32 0 -43 -9 -43 -36v-3h104v-184h-104v-295h-221v295h-67v184h67c4 135 77 194 242 194h83v-155z" />
    <glyph glyph-name="g" unicode="g" horiz-adv-x="632" 
d="M388 507h201v-431c0 -158 -103 -253 -286 -253c-150 0 -254 64 -263 188h208c3 -23 24 -36 59 -36c41 0 61 17 61 60v56c-31 -29 -71 -44 -120 -44c-130 0 -228 99 -228 236c0 138 99 238 232 238c60 0 106 -20 136 -60v46zM308 206c42 0 69 29 69 76s-27 77 -69 77
s-69 -30 -69 -77s27 -76 69 -76z" />
    <glyph glyph-name="gbreve" unicode="&#x11f;" horiz-adv-x="632" 
d="M388 507h201v-431c0 -158 -103 -253 -286 -253c-150 0 -254 64 -263 188h208c3 -23 24 -36 59 -36c41 0 61 17 61 60v56c-31 -29 -71 -44 -120 -44c-130 0 -228 99 -228 236c0 138 99 238 232 238c60 0 106 -20 136 -60v46zM308 206c42 0 69 29 69 76s-27 77 -69 77
s-69 -30 -69 -77s27 -76 69 -76zM314 556c-132 0 -203 69 -203 196h149c0 -39 20 -62 55 -62c34 0 54 23 54 62h149c0 -127 -71 -196 -204 -196z" />
    <glyph glyph-name="gcommaaccent" unicode="&#x123;" horiz-adv-x="632" 
d="M388 507h201v-431c0 -158 -103 -253 -286 -253c-150 0 -254 64 -263 188h208c3 -23 24 -36 59 -36c41 0 61 17 61 60v56c-31 -29 -71 -44 -120 -44c-130 0 -228 99 -228 236c0 138 99 238 232 238c60 0 106 -20 136 -60v46zM308 206c42 0 69 29 69 76s-27 77 -69 77
s-69 -30 -69 -77s27 -76 69 -76zM200 560l31 192h168v-192h-199z" />
    <glyph glyph-name="h" unicode="h" horiz-adv-x="605" 
d="M380 521c109 0 186 -87 186 -212v-309h-221v275c0 28 -15 46 -40 46s-41 -18 -41 -46v-275h-221v673h221v-195c31 28 71 43 116 43z" />
    <glyph glyph-name="i" unicode="i" horiz-adv-x="307" 
d="M154 540c-69 0 -121 51 -121 118c0 66 52 117 121 117s121 -51 121 -117c0 -67 -52 -118 -121 -118zM43 0v507h221v-507h-221z" />
    <glyph glyph-name="dotlessi" unicode="&#x131;" horiz-adv-x="307" 
d="M43 0v507h221v-507h-221z" />
    <glyph glyph-name="iacute" unicode="&#xed;" horiz-adv-x="307" 
d="M43 0v507h221v-507h-221zM61 560l63 192h240l-121 -192h-182z" />
    <glyph glyph-name="icircumflex" unicode="&#xee;" horiz-adv-x="328" 
d="M53 0v507h221v-507h-221zM394 560h-175l-55 65l-55 -65h-175l142 192h176z" />
    <glyph glyph-name="idieresis" unicode="&#xef;" horiz-adv-x="330" 
d="M54 0v507h221v-507h-221zM38 540c-61 0 -112 50 -112 108c0 62 49 109 112 109c66 0 113 -45 113 -109c0 -61 -50 -108 -113 -108zM291 540c-61 0 -112 49 -112 108c0 62 49 109 112 109c66 0 113 -45 113 -109c0 -61 -50 -108 -113 -108z" />
    <glyph glyph-name="igrave" unicode="&#xec;" horiz-adv-x="307" 
d="M43 0v507h221v-507h-221zM62 560l-121 192h240l63 -192h-182z" />
    <glyph glyph-name="imacron" unicode="&#x12b;" horiz-adv-x="307" 
d="M43 0v507h221v-507h-221zM-1 571v151h310v-151h-310z" />
    <glyph glyph-name="iogonek" unicode="&#x12f;" horiz-adv-x="307" 
d="M159 -193c-95 0 -154 43 -154 111c0 30 13 58 38 82v507h221v-507h-10l-21 -11c-19 -9 -26 -16 -26 -30s9 -22 24 -22h23v-122c-38 -5 -69 -8 -95 -8zM154 540c-69 0 -121 51 -121 118c0 66 52 117 121 117s121 -51 121 -117c0 -67 -52 -118 -121 -118z" />
    <glyph glyph-name="j" unicode="j" horiz-adv-x="306" 
d="M154 540c-69 0 -121 51 -121 118c0 66 52 117 121 117s121 -51 121 -117c0 -67 -52 -118 -121 -118zM-44 -163v173h26c45 0 61 13 61 52v445h220v-457c0 -136 -80 -213 -221 -213h-86z" />
    <glyph glyph-name="uni0237" unicode="&#x237;" horiz-adv-x="306" 
d="M-44 -163v173h26c45 0 61 13 61 52v445h220v-457c0 -136 -80 -213 -221 -213h-86z" />
    <glyph glyph-name="k" unicode="k" horiz-adv-x="600" 
d="M615 0h-240l-111 194v-194h-221v673h221v-352l109 186h231l-147 -244z" />
    <glyph glyph-name="kcommaaccent" unicode="&#x137;" horiz-adv-x="600" 
d="M615 0h-240l-111 194v-194h-221v673h221v-352l109 186h231l-147 -244zM204 -220v179h195l-27 -179h-168z" />
    <glyph glyph-name="l" unicode="l" horiz-adv-x="307" 
d="M43 0v673h221v-673h-221z" />
    <glyph glyph-name="lacute" unicode="&#x13a;" horiz-adv-x="307" 
d="M43 0v673h221v-673h-221zM67 724l59 196h254l-130 -196h-183z" />
    <glyph glyph-name="lcaron" unicode="&#x13e;" horiz-adv-x="537" 
d="M43 0v673h221v-673h-221zM314 480v193h218l-63 -193h-155z" />
    <glyph glyph-name="lcommaaccent" unicode="&#x13c;" horiz-adv-x="307" 
d="M43 0v673h221v-673h-221zM48 -220v179h195l-27 -179h-168z" />
    <glyph glyph-name="ldot" unicode="&#x140;" horiz-adv-x="547" 
d="M43 0v673h221v-673h-221zM428 206c-72 0 -125 51 -125 121s53 122 125 122s125 -52 125 -122s-53 -121 -125 -121z" />
    <glyph glyph-name="lslash" unicode="&#x142;" horiz-adv-x="393" 
d="M13 132v203l73 33v305h221v-217l73 33v-203l-73 -33v-253h-221v165z" />
    <glyph glyph-name="m" unicode="m" horiz-adv-x="900" 
d="M667 521c119 0 194 -82 194 -212v-309h-220v275c0 29 -15 46 -39 46s-39 -17 -39 -46v-275h-221v275c0 29 -15 46 -39 46s-39 -17 -39 -46v-275h-221v507h201v-36c33 32 76 50 126 50c58 0 107 -21 142 -58c40 37 94 58 155 58z" />
    <glyph glyph-name="n" unicode="n" horiz-adv-x="605" 
d="M376 521c114 0 190 -84 190 -212v-309h-221v275c0 28 -15 46 -40 46s-41 -18 -41 -46v-275h-221v507h201v-36c34 32 80 50 132 50z" />
    <glyph glyph-name="nacute" unicode="&#x144;" horiz-adv-x="605" 
d="M376 521c114 0 190 -84 190 -212v-309h-221v275c0 28 -15 46 -40 46s-41 -18 -41 -46v-275h-221v507h201v-36c34 32 80 50 132 50zM201 560l63 192h240l-121 -192h-182z" />
    <glyph glyph-name="ncaron" unicode="&#x148;" horiz-adv-x="605" 
d="M376 521c114 0 190 -84 190 -212v-309h-221v275c0 28 -15 46 -40 46s-41 -18 -41 -46v-275h-221v507h201v-36c34 32 80 50 132 50zM349 752h175l-142 -192h-176l-142 192h175l55 -65z" />
    <glyph glyph-name="ncommaaccent" unicode="&#x146;" horiz-adv-x="605" 
d="M376 521c114 0 190 -84 190 -212v-309h-221v275c0 28 -15 46 -40 46s-41 -18 -41 -46v-275h-221v507h201v-36c34 32 80 50 132 50zM198 -220v179h195l-27 -179h-168z" />
    <glyph glyph-name="ntilde" unicode="&#xf1;" horiz-adv-x="605" 
d="M376 521c114 0 190 -84 190 -212v-309h-221v275c0 28 -15 46 -40 46s-41 -18 -41 -46v-275h-221v507h201v-36c34 32 80 50 132 50zM365 560c-26 0 -51 6 -82 21c-35 15 -51 19 -67 19c-27 0 -51 -8 -106 -36v153c51 29 79 39 111 39c23 0 48 -6 84 -21
c31 -14 49 -19 66 -19c25 0 49 7 107 35v-152c-54 -30 -80 -39 -113 -39z" />
    <glyph glyph-name="o" unicode="o" horiz-adv-x="614" 
d="M307 -14c-164 0 -288 115 -288 267c0 153 124 268 288 268s288 -115 288 -268c0 -152 -124 -267 -288 -267zM307 177c42 0 69 29 69 76s-27 77 -69 77s-69 -30 -69 -77s27 -76 69 -76z" />
    <glyph glyph-name="oacute" unicode="&#xf3;" horiz-adv-x="614" 
d="M307 -14c-164 0 -288 115 -288 267c0 153 124 268 288 268s288 -115 288 -268c0 -152 -124 -267 -288 -267zM307 177c42 0 69 29 69 76s-27 77 -69 77s-69 -30 -69 -77s27 -76 69 -76zM214 560l63 192h240l-121 -192h-182z" />
    <glyph glyph-name="ocircumflex" unicode="&#xf4;" horiz-adv-x="614" 
d="M307 -14c-164 0 -288 115 -288 267c0 153 124 268 288 268s288 -115 288 -268c0 -152 -124 -267 -288 -267zM307 177c42 0 69 29 69 76s-27 77 -69 77s-69 -30 -69 -77s27 -76 69 -76zM537 560h-175l-55 65l-55 -65h-175l142 192h176z" />
    <glyph glyph-name="odieresis" unicode="&#xf6;" horiz-adv-x="614" 
d="M307 -14c-164 0 -288 115 -288 267c0 153 124 268 288 268s288 -115 288 -268c0 -152 -124 -267 -288 -267zM307 177c42 0 69 29 69 76s-27 77 -69 77s-69 -30 -69 -77s27 -76 69 -76zM180 540c-61 0 -112 50 -112 108c0 62 49 109 112 109c66 0 113 -45 113 -109
c0 -61 -50 -108 -113 -108zM433 540c-61 0 -112 49 -112 108c0 62 49 109 112 109c66 0 113 -45 113 -109c0 -61 -50 -108 -113 -108z" />
    <glyph glyph-name="ograve" unicode="&#xf2;" horiz-adv-x="614" 
d="M307 -14c-164 0 -288 115 -288 267c0 153 124 268 288 268s288 -115 288 -268c0 -152 -124 -267 -288 -267zM307 177c42 0 69 29 69 76s-27 77 -69 77s-69 -30 -69 -77s27 -76 69 -76zM215 560l-121 192h240l63 -192h-182z" />
    <glyph glyph-name="ohungarumlaut" unicode="&#x151;" horiz-adv-x="614" 
d="M307 -14c-164 0 -288 115 -288 267c0 153 124 268 288 268s288 -115 288 -268c0 -152 -124 -267 -288 -267zM307 177c42 0 69 29 69 76s-27 77 -69 77s-69 -30 -69 -77s27 -76 69 -76zM124 560l64 192h182l-78 -192h-168zM344 560l77 192h194l-120 -192h-151z" />
    <glyph glyph-name="omacron" unicode="&#x14d;" horiz-adv-x="614" 
d="M307 -14c-164 0 -288 115 -288 267c0 153 124 268 288 268s288 -115 288 -268c0 -152 -124 -267 -288 -267zM307 177c42 0 69 29 69 76s-27 77 -69 77s-69 -30 -69 -77s27 -76 69 -76zM135 571v151h343v-151h-343z" />
    <glyph glyph-name="oslash" unicode="&#xf8;" horiz-adv-x="640" 
d="M641 545l-92 -125c37 -45 59 -103 59 -167c0 -152 -124 -267 -288 -267c-37 0 -71 6 -103 16l-29 -41h-189l93 125c-38 45 -60 103 -60 167c0 153 124 268 288 268c38 0 73 -6 105 -17l29 41h187zM330 365h-10c-61 0 -102 -44 -102 -112c0 -9 1 -18 2 -27zM312 142h8
c62 0 102 44 102 111c0 9 -1 18 -2 26z" />
    <glyph glyph-name="otilde" unicode="&#xf5;" horiz-adv-x="614" 
d="M307 -14c-164 0 -288 115 -288 267c0 153 124 268 288 268s288 -115 288 -268c0 -152 -124 -267 -288 -267zM307 177c42 0 69 29 69 76s-27 77 -69 77s-69 -30 -69 -77s27 -76 69 -76zM378 560c-26 0 -51 6 -82 21c-35 15 -51 19 -67 19c-27 0 -51 -8 -106 -36v153
c51 29 79 39 111 39c23 0 48 -6 84 -21c31 -14 49 -19 66 -19c25 0 49 7 107 35v-152c-54 -30 -80 -39 -113 -39z" />
    <glyph glyph-name="oe" unicode="&#x153;" horiz-adv-x="949" 
d="M659 521c176 0 288 -128 269 -310h-356c13 -45 47 -71 94 -71c34 0 58 14 63 36h196c-28 -120 -125 -190 -263 -190c-79 0 -142 24 -186 67c-42 -43 -103 -67 -179 -67c-158 0 -278 115 -278 267c0 153 120 268 278 268c77 0 138 -24 181 -69c43 44 105 69 181 69z
M659 365c-40 0 -70 -21 -84 -57h164c-8 35 -38 57 -80 57zM307 177c42 0 69 29 69 76s-27 77 -69 77s-69 -30 -69 -77s27 -76 69 -76z" />
    <glyph glyph-name="p" unicode="p" horiz-adv-x="634" 
d="M377 521c138 0 235 -110 235 -267c0 -158 -95 -268 -231 -268c-48 0 -87 14 -117 44v-193h-221v670h201v-46c29 40 74 60 133 60zM324 178c42 0 69 29 69 76c0 46 -26 75 -69 75s-69 -29 -69 -75c0 -47 27 -76 69 -76z" />
    <glyph glyph-name="thorn" unicode="&#xfe;" horiz-adv-x="634" 
d="M377 521c138 0 235 -110 235 -267c0 -158 -95 -268 -231 -268c-48 0 -87 14 -117 44v-193h-221v836h201v-212c29 40 74 60 133 60zM324 178c42 0 69 29 69 76c0 46 -26 75 -69 75s-69 -29 -69 -75c0 -47 27 -76 69 -76z" />
    <glyph glyph-name="q" unicode="q" horiz-adv-x="634" 
d="M257 521c59 0 104 -20 133 -60v46h201v-670h-221v193c-30 -30 -69 -44 -117 -44c-136 0 -231 110 -231 268c0 157 97 267 235 267zM310 178c42 0 69 29 69 76c0 46 -26 75 -69 75s-69 -29 -69 -75c0 -47 27 -76 69 -76z" />
    <glyph glyph-name="r" unicode="r" horiz-adv-x="412" 
d="M365 507h41v-205h-46c-71 0 -96 -24 -96 -95v-207h-221v507h201v-61c28 42 68 61 121 61z" />
    <glyph glyph-name="racute" unicode="&#x155;" horiz-adv-x="412" 
d="M365 507h41v-205h-46c-71 0 -96 -24 -96 -95v-207h-221v507h201v-61c28 42 68 61 121 61zM124 560l63 192h240l-121 -192h-182z" />
    <glyph glyph-name="rcaron" unicode="&#x159;" horiz-adv-x="412" 
d="M365 507h41v-205h-46c-71 0 -96 -24 -96 -95v-207h-221v507h201v-61c28 42 68 61 121 61zM272 752h175l-142 -192h-176l-142 192h175l55 -65z" />
    <glyph glyph-name="rcommaaccent" unicode="&#x157;" horiz-adv-x="412" 
d="M365 507h41v-205h-46c-71 0 -96 -24 -96 -95v-207h-221v507h201v-61c28 42 68 61 121 61zM46 -220v179h195l-27 -179h-168z" />
    <glyph glyph-name="s" unicode="s" horiz-adv-x="478" 
d="M241 -14c-144 0 -228 67 -231 185h186c2 -31 16 -44 49 -44c24 0 36 8 36 24c0 14 -8 20 -31 25l-79 17c-98 21 -149 74 -149 155c0 104 86 173 216 173c128 0 209 -67 217 -180h-182c-1 25 -14 39 -38 39c-18 0 -31 -9 -31 -23c0 -13 7 -19 30 -25l77 -18
c106 -25 154 -74 154 -158c0 -109 -80 -170 -224 -170z" />
    <glyph glyph-name="sacute" unicode="&#x15b;" horiz-adv-x="478" 
d="M241 -14c-144 0 -228 67 -231 185h186c2 -31 16 -44 49 -44c24 0 36 8 36 24c0 14 -8 20 -31 25l-79 17c-98 21 -149 74 -149 155c0 104 86 173 216 173c128 0 209 -67 217 -180h-182c-1 25 -14 39 -38 39c-18 0 -31 -9 -31 -23c0 -13 7 -19 30 -25l77 -18
c106 -25 154 -74 154 -158c0 -109 -80 -170 -224 -170zM146 560l63 192h240l-121 -192h-182z" />
    <glyph glyph-name="scaron" unicode="&#x161;" horiz-adv-x="478" 
d="M241 -14c-144 0 -228 67 -231 185h186c2 -31 16 -44 49 -44c24 0 36 8 36 24c0 14 -8 20 -31 25l-79 17c-98 21 -149 74 -149 155c0 104 86 173 216 173c128 0 209 -67 217 -180h-182c-1 25 -14 39 -38 39c-18 0 -31 -9 -31 -23c0 -13 7 -19 30 -25l77 -18
c106 -25 154 -74 154 -158c0 -109 -80 -170 -224 -170zM294 752h175l-142 -192h-176l-142 192h175l55 -65z" />
    <glyph glyph-name="scedilla" unicode="&#x15f;" horiz-adv-x="478" 
d="M194 -195c-31 0 -51 1 -91 5v129h59c28 0 45 15 45 39v10c-123 10 -194 74 -197 183h186c2 -31 16 -44 49 -44c24 0 36 8 36 24c0 14 -8 20 -31 25l-79 17c-98 21 -149 74 -149 155c0 104 86 173 216 173c128 0 209 -67 217 -180h-182c-1 25 -14 39 -38 39
c-18 0 -31 -9 -31 -23c0 -13 7 -19 30 -25l77 -18c106 -25 154 -74 154 -158c0 -77 -40 -131 -115 -155c10 -17 15 -35 15 -53c0 -96 -56 -143 -171 -143z" />
    <glyph glyph-name="scommaaccent" unicode="&#x219;" horiz-adv-x="478" 
d="M241 -14c-144 0 -228 67 -231 185h186c2 -31 16 -44 49 -44c24 0 36 8 36 24c0 14 -8 20 -31 25l-79 17c-98 21 -149 74 -149 155c0 104 86 173 216 173c128 0 209 -67 217 -180h-182c-1 25 -14 39 -38 39c-18 0 -31 -9 -31 -23c0 -13 7 -19 30 -25l77 -18
c106 -25 154 -74 154 -158c0 -109 -80 -170 -224 -170zM133 -220v179h195l-27 -179h-168z" />
    <glyph glyph-name="germandbls" unicode="&#xdf;" horiz-adv-x="645" 
d="M43 0v431c0 167 100 256 287 256c166 0 258 -60 258 -168c0 -39 -7 -56 -38 -96c-24 -30 -30 -41 -30 -55c0 -20 8 -31 45 -63c55 -47 70 -73 70 -125c0 -113 -92 -180 -248 -180h-69v176h60c25 0 36 9 36 29c0 15 -6 22 -39 46c-46 33 -66 60 -66 87c0 21 4 30 29 64
c21 29 26 40 26 56c0 29 -15 42 -46 42c-38 0 -53 -23 -53 -78v-422h-222z" />
    <glyph glyph-name="t" unicode="t" horiz-adv-x="411" 
d="M344 184h49v-184h-89c-160 0 -236 65 -236 204v119h-69v184h69v103h221v-103h100v-184h-100v-93c0 -33 15 -46 55 -46z" />
    <glyph glyph-name="tcaron" unicode="&#x165;" horiz-adv-x="534" 
d="M344 184h49v-184h-89c-160 0 -236 65 -236 204v119h-69v184h69v103h221v-103h100v-184h-100v-93c0 -33 15 -46 55 -46zM348 569v193h218l-63 -193h-155z" />
    <glyph glyph-name="uni0163" unicode="&#x163;" horiz-adv-x="411" 
d="M344 184h49v-184h-66c9 -17 14 -34 14 -52c0 -96 -56 -143 -171 -143c-33 0 -53 1 -91 5v129h59c28 0 45 15 45 39c0 15 -2 27 -9 43c-72 30 -106 89 -106 183v119h-69v184h69v103h221v-103h100v-184h-100v-93c0 -33 15 -46 55 -46z" />
    <glyph glyph-name="uni021B" unicode="&#x21b;" horiz-adv-x="411" 
d="M344 184h49v-184h-89c-160 0 -236 65 -236 204v119h-69v184h69v103h221v-103h100v-184h-100v-93c0 -33 15 -46 55 -46zM136 -220v179h195l-27 -179h-168z" />
    <glyph glyph-name="u" unicode="u" horiz-adv-x="605" 
d="M341 507h221v-507h-201v36c-34 -32 -80 -50 -132 -50c-114 0 -190 84 -190 212v309h221v-275c0 -28 15 -46 40 -46s41 18 41 46v275z" />
    <glyph glyph-name="uacute" unicode="&#xfa;" horiz-adv-x="605" 
d="M341 507h221v-507h-201v36c-34 -32 -80 -50 -132 -50c-114 0 -190 84 -190 212v309h221v-275c0 -28 15 -46 40 -46s41 18 41 46v275zM209 560l63 192h240l-121 -192h-182z" />
    <glyph glyph-name="ucircumflex" unicode="&#xfb;" horiz-adv-x="605" 
d="M341 507h221v-507h-201v36c-34 -32 -80 -50 -132 -50c-114 0 -190 84 -190 212v309h221v-275c0 -28 15 -46 40 -46s41 18 41 46v275zM532 560h-175l-55 65l-55 -65h-175l142 192h176z" />
    <glyph glyph-name="udieresis" unicode="&#xfc;" horiz-adv-x="605" 
d="M341 507h221v-507h-201v36c-34 -32 -80 -50 -132 -50c-114 0 -190 84 -190 212v309h221v-275c0 -28 15 -46 40 -46s41 18 41 46v275zM175 540c-61 0 -112 50 -112 108c0 62 49 109 112 109c66 0 113 -45 113 -109c0 -61 -50 -108 -113 -108zM428 540
c-61 0 -112 49 -112 108c0 62 49 109 112 109c66 0 113 -45 113 -109c0 -61 -50 -108 -113 -108z" />
    <glyph glyph-name="ugrave" unicode="&#xf9;" horiz-adv-x="605" 
d="M341 507h221v-507h-201v36c-34 -32 -80 -50 -132 -50c-114 0 -190 84 -190 212v309h221v-275c0 -28 15 -46 40 -46s41 18 41 46v275zM210 560l-121 192h240l63 -192h-182z" />
    <glyph glyph-name="uhungarumlaut" unicode="&#x171;" horiz-adv-x="605" 
d="M341 507h221v-507h-201v36c-34 -32 -80 -50 -132 -50c-114 0 -190 84 -190 212v309h221v-275c0 -28 15 -46 40 -46s41 18 41 46v275zM119 560l64 192h182l-78 -192h-168zM339 560l77 192h194l-120 -192h-151z" />
    <glyph glyph-name="umacron" unicode="&#x16b;" horiz-adv-x="605" 
d="M341 507h221v-507h-201v36c-34 -32 -80 -50 -132 -50c-114 0 -190 84 -190 212v309h221v-275c0 -28 15 -46 40 -46s41 18 41 46v275zM130 571v151h343v-151h-343z" />
    <glyph glyph-name="uogonek" unicode="&#x173;" horiz-adv-x="605" 
d="M467 -193c-95 0 -154 43 -154 111c0 34 17 65 48 92v26c-34 -32 -80 -50 -132 -50c-114 0 -190 84 -190 212v309h221v-275c0 -28 15 -46 40 -46s41 18 41 46v275h221v-507l-21 -11c-19 -9 -26 -16 -26 -30s9 -22 24 -22h23v-122c-38 -5 -69 -8 -95 -8z" />
    <glyph glyph-name="uring" unicode="&#x16f;" horiz-adv-x="605" 
d="M341 507h221v-507h-201v36c-34 -32 -80 -50 -132 -50c-114 0 -190 84 -190 212v309h221v-275c0 -28 15 -46 40 -46s41 18 41 46v275zM302 531c-89 0 -150 59 -150 144s61 143 150 143c90 0 151 -58 151 -143s-62 -144 -151 -144zM304 639c20 0 35 16 35 36s-15 36 -35 36
c-21 0 -36 -15 -36 -36s15 -36 36 -36z" />
    <glyph glyph-name="v" unicode="v" horiz-adv-x="577" 
d="M353 507h233l-177 -507h-239l-179 507h233l65 -256z" />
    <glyph glyph-name="w" unicode="w" horiz-adv-x="909" 
d="M675 507h233l-168 -507h-229l-56 244l-57 -244h-229l-168 507h233l61 -239l50 239h219l50 -239z" />
    <glyph glyph-name="x" unicode="x" horiz-adv-x="610" 
d="M621 0h-243l-73 114l-72 -114h-244l184 258l-177 249h244l66 -104l64 104h244l-178 -248z" />
    <glyph glyph-name="y" unicode="y" horiz-adv-x="579" 
d="M354 507h234l-238 -670h-243l63 169l-179 501h234l64 -253z" />
    <glyph glyph-name="yacute" unicode="&#xfd;" horiz-adv-x="579" 
d="M354 507h234l-238 -670h-243l63 169l-179 501h234l64 -253zM197 560l63 192h240l-121 -192h-182z" />
    <glyph glyph-name="ydieresis" unicode="&#xff;" horiz-adv-x="579" 
d="M354 507h234l-238 -670h-243l63 169l-179 501h234l64 -253zM163 540c-61 0 -112 50 -112 108c0 62 49 109 112 109c66 0 113 -45 113 -109c0 -61 -50 -108 -113 -108zM416 540c-61 0 -112 49 -112 108c0 62 49 109 112 109c66 0 113 -45 113 -109
c0 -61 -50 -108 -113 -108z" />
    <glyph glyph-name="z" unicode="z" horiz-adv-x="500" 
d="M291 179h188v-179h-458v164l175 164h-170v179h444v-164z" />
    <glyph glyph-name="zacute" unicode="&#x17a;" horiz-adv-x="500" 
d="M291 179h188v-179h-458v164l175 164h-170v179h444v-164zM157 560l63 192h240l-121 -192h-182z" />
    <glyph glyph-name="zcaron" unicode="&#x17e;" horiz-adv-x="500" 
d="M291 179h188v-179h-458v164l175 164h-170v179h444v-164zM305 752h175l-142 -192h-176l-142 192h175l55 -65z" />
    <glyph glyph-name="zdotaccent" unicode="&#x17c;" horiz-adv-x="500" 
d="M291 179h188v-179h-458v164l175 164h-170v179h444v-164zM250 540c-69 0 -121 51 -121 118c0 66 52 117 121 117s121 -51 121 -117c0 -67 -52 -118 -121 -118z" />
    <glyph glyph-name="iacute_j.loclNLD" horiz-adv-x="613" 
d="M43 0v507h221v-507h-221zM61 560l63 192h240l-121 -192h-182zM263 -163v173h26c45 0 61 13 61 52v445h220v-457c0 -136 -80 -213 -221 -213h-86zM368 560l63 192h240l-121 -192h-182z" />
    <glyph glyph-name="i.loclTRK.loclTRK" horiz-adv-x="307" 
d="M43 0v507h221v-507h-221zM154 540c-69 0 -121 51 -121 118c0 66 52 117 121 117s121 -51 121 -117c0 -67 -52 -118 -121 -118z" />
    <glyph glyph-name="ordfeminine" unicode="&#xaa;" horiz-adv-x="449" 
d="M223 682c125 0 199 -67 199 -178v-235h-158v34c-27 -25 -65 -43 -118 -43c-84 0 -135 45 -135 116c0 77 59 122 171 122h70v18c0 29 -12 41 -34 41s-34 -13 -36 -39h-155c4 106 80 164 196 164zM217 354c21 0 35 14 35 41v20h-35c-19 0 -32 -12 -32 -31
c0 -18 12 -30 32 -30z" />
    <glyph glyph-name="ordmasculine" unicode="&#xba;" horiz-adv-x="487" 
d="M244 260c-138 0 -231 86 -231 211s93 211 231 211c137 0 230 -86 230 -211s-94 -211 -230 -211zM244 415c33 0 53 22 53 56s-20 56 -53 56c-34 0 -54 -22 -54 -56s20 -56 54 -56z" />
    <glyph glyph-name="uni0410" unicode="&#x410;" horiz-adv-x="698" 
d="M471 0l-30 103h-183l-31 -103h-236l238 673h240l238 -673h-236zM397 263l-48 182l-47 -182h95z" />
    <glyph glyph-name="uni0411" unicode="&#x411;" horiz-adv-x="635" 
d="M57 0v673h508v-180h-286v-69h121c134 0 218 -81 218 -210s-87 -214 -218 -214h-343zM279 180h96c25 0 40 14 40 37c0 25 -15 39 -40 39h-96v-76z" />
    <glyph glyph-name="uni0412" unicode="&#x412;" horiz-adv-x="656" 
d="M527 340c71 -29 112 -85 112 -159c0 -112 -91 -181 -236 -181h-346v673h300c157 0 250 -69 250 -187c0 -65 -28 -115 -80 -146zM266 172h115c28 0 48 16 48 46c0 28 -20 44 -49 44h-114v-90zM353 501h-87v-88h88c28 0 47 18 47 44c0 29 -19 44 -48 44z" />
    <glyph glyph-name="uni0413" unicode="&#x413;" horiz-adv-x="499" 
d="M57 673h428v-203h-202v-470h-226v673z" />
    <glyph glyph-name="uni0403" unicode="&#x403;" horiz-adv-x="499" 
d="M57 673h428v-203h-202v-470h-226v673zM196 724l59 196h254l-130 -196h-183z" />
    <glyph glyph-name="uni0490" unicode="&#x490;" horiz-adv-x="498" 
d="M57 0v673h201v124h226v-327h-201v-470h-226z" />
    <glyph glyph-name="uni0414" unicode="&#x414;" horiz-adv-x="755" 
d="M650 203h95v-328h-210v125h-317v-125h-210v328h24c58 0 102 70 102 194v276h516v-470zM337 470v-73c0 -79 -19 -145 -53 -194h146v267h-93z" />
    <glyph glyph-name="uni0415" unicode="&#x415;" horiz-adv-x="534" 
d="M57 0v673h431v-188h-205v-60h195v-174h-195v-63h216v-188h-442z" />
    <glyph glyph-name="uni0400" unicode="&#x400;" horiz-adv-x="534" 
d="M57 0v673h431v-188h-205v-60h195v-174h-195v-63h216v-188h-442zM181 724l-121 196h246l58 -196h-183z" />
    <glyph glyph-name="uni0401" unicode="&#x401;" horiz-adv-x="534" 
d="M57 0v673h431v-188h-205v-60h195v-174h-195v-63h216v-188h-442zM142 712c-62 0 -116 51 -116 110c0 62 51 111 116 111c68 0 117 -47 117 -111c0 -61 -52 -110 -117 -110zM403 712c-63 0 -116 51 -116 110c0 62 51 111 116 111c68 0 117 -47 117 -111
c0 -61 -52 -110 -117 -110z" />
    <glyph glyph-name="uni0416" unicode="&#x416;" horiz-adv-x="1042" 
d="M1058 0h-264l-160 271v-271h-226v271l-160 -271h-264l216 349l-197 324h252l153 -254v254h226v-254l153 254h252l-197 -324z" />
    <glyph glyph-name="uni0417" unicode="&#x417;" horiz-adv-x="558" 
d="M435 348c66 -29 111 -83 111 -160c0 -111 -98 -202 -272 -202c-173 0 -269 91 -272 250h210c0 -37 31 -54 58 -54c29 0 55 20 55 51c0 27 -19 47 -57 47h-56v135h46c40 0 58 22 58 44c0 23 -20 47 -54 47c-30 0 -58 -19 -59 -63h-191c8 158 109 244 259 244
c145 0 244 -81 244 -200c0 -66 -29 -111 -80 -139z" />
    <glyph glyph-name="uni0418" unicode="&#x418;" horiz-adv-x="708" 
d="M427 673h224v-673h-224v316l-146 -316h-224v673h224v-317z" />
    <glyph glyph-name="uni0419" unicode="&#x419;" horiz-adv-x="708" 
d="M427 673h224v-673h-224v316l-146 -316h-224v673h224v-317zM353 717c-146 0 -234 76 -234 203h156c0 -39 30 -62 79 -62c48 0 78 23 78 62h156c0 -127 -88 -203 -235 -203z" />
    <glyph glyph-name="uni040D" unicode="&#x40d;" horiz-adv-x="708" 
d="M427 673h224v-673h-224v316l-146 -316h-224v673h224v-317zM262 724l-121 196h246l58 -196h-183z" />
    <glyph glyph-name="uni041A" unicode="&#x41a;" horiz-adv-x="693" 
d="M709 0h-265l-161 272v-272h-226v673h226v-254l154 254h253l-198 -324z" />
    <glyph glyph-name="uni040C" unicode="&#x40c;" horiz-adv-x="693" 
d="M274 724l59 196h254l-130 -196h-183zM709 0h-265l-161 272v-272h-226v673h226v-254l154 254h253l-198 -324z" />
    <glyph glyph-name="uni041B" unicode="&#x41b;" horiz-adv-x="687" 
d="M-10 -8v211c79 0 111 52 111 180v290h529v-673h-226v470h-90v-93c0 -273 -95 -385 -324 -385z" />
    <glyph glyph-name="uni041C" unicode="&#x41c;" horiz-adv-x="889" 
d="M541 673h291v-673h-210v358l-93 -358h-170l-92 357v-357h-210v673h290l98 -377z" />
    <glyph glyph-name="uni041D" unicode="&#x41d;" horiz-adv-x="707" 
d="M57 0v673h225v-230h143v230h225v-673h-225v240h-143v-240h-225z" />
    <glyph glyph-name="uni041E" unicode="&#x41e;" horiz-adv-x="795" 
d="M398 -14c-221 0 -376 145 -376 351s155 350 376 350c220 0 375 -145 375 -350c0 -206 -155 -351 -375 -351zM398 193c82 0 139 59 139 144c0 84 -57 143 -139 143c-83 0 -140 -59 -140 -143c0 -85 57 -144 140 -144z" />
    <glyph glyph-name="uni041F" unicode="&#x41f;" horiz-adv-x="689" 
d="M57 0v673h575v-673h-226v470h-123v-470h-226z" />
    <glyph glyph-name="uni0420" unicode="&#x420;" horiz-adv-x="602" 
d="M57 0v673h265c168 0 270 -90 270 -240c0 -145 -100 -231 -270 -231h-39v-202h-226zM283 374h36c33 0 56 24 56 59c0 34 -23 58 -56 58h-36v-117z" />
    <glyph glyph-name="uni0421" unicode="&#x421;" horiz-adv-x="781" 
d="M391 -14c-217 0 -369 145 -369 350c0 206 153 351 370 351c206 0 358 -129 367 -312h-234c-15 64 -67 105 -135 105c-79 0 -132 -57 -132 -143c0 -87 53 -144 132 -144c68 0 120 41 135 105h234c-10 -184 -161 -312 -368 -312z" />
    <glyph glyph-name="uni0422" unicode="&#x422;" horiz-adv-x="586" 
d="M173 0v470h-153v203h546v-203h-167v-470h-226z" />
    <glyph glyph-name="uni0423" unicode="&#x423;" horiz-adv-x="696" 
d="M456 673h259l-346 -673h-259l116 211l-242 462h260l109 -245z" />
    <glyph glyph-name="uni040E" unicode="&#x40e;" horiz-adv-x="696" 
d="M456 673h259l-346 -673h-259l116 211l-242 462h260l109 -245zM355 717c-142 0 -230 76 -230 203h156c0 -39 30 -62 75 -62c44 0 74 23 74 62h156c0 -127 -88 -203 -231 -203z" />
    <glyph glyph-name="uni0424" unicode="&#x424;" horiz-adv-x="878" 
d="M856 344c0 -158 -128 -275 -304 -284v-60h-226v60c-175 10 -304 128 -304 284c0 154 127 268 304 278v51h226v-51c178 -8 304 -122 304 -278zM239 339c0 -59 38 -98 98 -101v206c-58 -3 -98 -45 -98 -105zM541 444v-206c60 3 97 41 97 101s-39 102 -97 105z" />
    <glyph glyph-name="uni0425" unicode="&#x425;" horiz-adv-x="699" 
d="M694 0h-255l-90 176l-89 -176h-255l202 345l-191 328h254l82 -162l74 162h255l-189 -328z" />
    <glyph glyph-name="uni0427" unicode="&#x427;" horiz-adv-x="671" 
d="M387 673h227v-673h-227v189c-27 -7 -54 -10 -79 -10c-173 0 -274 100 -274 271v223h226v-202c0 -56 28 -84 83 -84c15 0 29 2 44 6v280z" />
    <glyph glyph-name="uni0426" unicode="&#x426;" horiz-adv-x="742" 
d="M516 -125v125h-459v673h226v-470h128v470h226v-470h95v-328h-216z" />
    <glyph glyph-name="uni0428" unicode="&#x428;" horiz-adv-x="934" 
d="M57 0v673h213v-470h96v470h203v-470h95v470h213v-673h-820z" />
    <glyph glyph-name="uni0429" unicode="&#x429;" horiz-adv-x="982" 
d="M756 -125v125h-699v673h213v-470h96v470h202v-470h96v470h213v-470h95v-328h-216z" />
    <glyph glyph-name="uni040F" unicode="&#x40f;" horiz-adv-x="689" 
d="M632 673v-673h-179v-125h-216v125h-180v673h226v-470h123v470h226z" />
    <glyph glyph-name="uni042C" unicode="&#x42c;" horiz-adv-x="623" 
d="M57 0v673h226v-179h59c161 0 262 -95 262 -247c0 -153 -99 -247 -262 -247h-285zM283 196h45c29 0 47 19 47 50c0 32 -17 51 -47 51h-45v-101z" />
    <glyph glyph-name="uni042A" unicode="&#x42a;" horiz-adv-x="650" 
d="M83 0v470h-122v203h348v-179h60c161 0 262 -95 262 -247c0 -153 -99 -247 -262 -247h-286zM309 196h46c29 0 47 19 47 50c0 32 -17 51 -47 51h-46v-101z" />
    <glyph glyph-name="uni042B" unicode="&#x42b;" horiz-adv-x="938" 
d="M57 0v673h226v-179h59c161 0 262 -95 262 -247c0 -153 -99 -247 -262 -247h-285zM283 196h45c29 0 47 19 47 50c0 32 -17 51 -47 51h-45v-101zM655 0v673h226v-673h-226z" />
    <glyph glyph-name="uni0409" unicode="&#x409;" horiz-adv-x="916" 
d="M-10 -8v205c79 0 111 52 111 180v296h490v-179h44c161 0 262 -95 262 -247c0 -153 -99 -247 -262 -247h-270v470h-51v-93c0 -273 -95 -385 -324 -385zM591 196h30c29 0 47 19 47 50c0 32 -17 51 -47 51h-30v-101z" />
    <glyph glyph-name="uni040A" unicode="&#x40a;" horiz-adv-x="996" 
d="M57 0v673h226v-230h132v230h226v-179h74c161 0 262 -95 262 -247c0 -153 -99 -247 -262 -247h-300v240h-132v-240h-226zM641 196h60c29 0 47 19 47 50c0 32 -17 51 -47 51h-60v-101z" />
    <glyph glyph-name="uni0405" unicode="&#x405;" horiz-adv-x="574" 
d="M291 -15c-170 0 -274 89 -278 239h212c1 -45 20 -65 59 -65c29 0 49 14 49 34s-11 30 -44 41l-74 25c-121 41 -181 113 -181 218c0 125 104 210 256 210s241 -79 252 -225h-207c-2 33 -18 52 -45 52c-22 0 -38 -14 -38 -32c0 -19 12 -30 43 -41l77 -28
c133 -47 184 -103 184 -206c0 -138 -101 -222 -265 -222z" />
    <glyph glyph-name="uni0404" unicode="&#x404;" horiz-adv-x="776" 
d="M392 193c66 0 115 39 128 105h234c-10 -185 -157 -312 -363 -312c-217 0 -369 145 -369 350c0 206 153 351 370 351c205 0 353 -128 362 -312h-234c-14 66 -62 105 -128 105c-53 0 -96 -23 -119 -63h173v-159h-174c23 -41 66 -65 120 -65z" />
    <glyph glyph-name="uni042D" unicode="&#x42d;" horiz-adv-x="776" 
d="M384 193c54 0 97 24 120 65h-174v159h173c-23 40 -66 63 -119 63c-66 0 -114 -39 -128 -105h-234c9 184 157 312 362 312c217 0 370 -145 370 -351c0 -205 -152 -350 -369 -350c-206 0 -353 127 -363 312h234c13 -66 62 -105 128 -105z" />
    <glyph glyph-name="uni0406" unicode="&#x406;" horiz-adv-x="340" 
d="M57 0v673h226v-673h-226z" />
    <glyph glyph-name="uni0407" unicode="&#x407;" horiz-adv-x="340" 
d="M38 712c-62 0 -116 51 -116 110c0 62 51 111 116 111c68 0 117 -47 117 -111c0 -61 -52 -110 -117 -110zM299 712c-63 0 -116 51 -116 110c0 62 51 111 116 111c68 0 117 -47 117 -111c0 -61 -52 -110 -117 -110zM57 0v673h226v-673h-226z" />
    <glyph glyph-name="uni0408" unicode="&#x408;" horiz-adv-x="406" 
d="M3 0v203h53c49 0 68 14 68 50v420h225v-454c0 -147 -81 -219 -245 -219h-101z" />
    <glyph glyph-name="uni040B" unicode="&#x40b;" horiz-adv-x="744" 
d="M442 423c168 0 268 -101 268 -271v-152h-226v141c0 54 -27 84 -77 84c-16 0 -30 -2 -45 -7v-218h-226v480h-116v193h499v-193h-157v-67c27 6 55 10 80 10z" />
    <glyph glyph-name="uni042E" unicode="&#x42e;" horiz-adv-x="1085" 
d="M688 -14c-185 0 -323 101 -364 254h-41v-240h-226v673h226v-230h44c44 147 180 244 361 244c220 0 375 -145 375 -350c0 -206 -155 -351 -375 -351zM688 193c82 0 139 59 139 144c0 84 -57 143 -139 143c-83 0 -140 -59 -140 -143c0 -85 57 -144 140 -144z" />
    <glyph glyph-name="uni042F" unicode="&#x42f;" horiz-adv-x="644" 
d="M318 673h269v-673h-226v202h-4l-98 -202h-259l142 246c-61 39 -94 103 -94 187c0 150 102 240 270 240zM361 491h-40c-33 0 -56 -24 -56 -58c0 -35 23 -59 56 -59h40v117z" />
    <glyph glyph-name="uni0402" unicode="&#x402;" horiz-adv-x="736" 
d="M467 425c155 0 250 -81 250 -213c0 -154 -96 -226 -290 -217v176c45 0 60 9 60 34c0 23 -21 35 -61 35c-21 0 -42 -3 -64 -8v-232h-226v480h-116v193h499v-193h-157v-65c33 7 68 10 105 10z" />
    <glyph glyph-name="uni0462" unicode="&#x462;" horiz-adv-x="715" 
d="M131 0v486h-116v143h116v58h226v-58h203v-143h-203v-30h74c164 0 262 -86 262 -232c0 -145 -93 -224 -262 -224h-300zM357 186h60c31 0 47 15 47 42c0 28 -16 43 -47 43h-60v-85z" />
    <glyph glyph-name="uni0472" unicode="&#x472;" horiz-adv-x="795" 
d="M398 687c220 0 375 -145 375 -350c0 -206 -155 -351 -375 -351c-221 0 -376 145 -376 351s155 350 376 350zM398 486c-61 0 -109 -31 -130 -82c19 8 39 13 62 13c51 0 82 -23 135 -23c23 0 43 3 62 9c-21 52 -68 83 -129 83zM398 187c61 0 109 32 130 85
c-20 -10 -40 -15 -63 -15c-51 0 -83 24 -135 24c-23 0 -43 -3 -63 -10c21 -52 69 -84 131 -84z" />
    <glyph glyph-name="uni0474" unicode="&#x474;" horiz-adv-x="684" 
d="M585 673h100v-203h-34c-32 0 -51 -17 -63 -56l-128 -414h-241l-228 673h244l105 -380l64 232c28 105 80 148 181 148z" />
    <glyph glyph-name="uni0492" unicode="&#x492;" horiz-adv-x="524" 
d="M499 470h-192v-75h141v-203h-141v-192h-226v192h-68v203h68v278h418v-203z" />
    <glyph glyph-name="uni0496" unicode="&#x496;" horiz-adv-x="1071" 
d="M845 -125v125h-51l-160 271v-271h-226v271l-160 -271h-264l216 349l-197 324h252l153 -254v254h226v-254l153 254h252l-197 -324l90 -146h129v-328h-216z" />
    <glyph glyph-name="uni0498" unicode="&#x498;" horiz-adv-x="558" 
d="M435 348c66 -29 111 -83 111 -160c0 -85 -58 -158 -162 -188v-125h-188v118c-124 24 -192 110 -194 243h210c0 -37 31 -54 58 -54c29 0 55 20 55 51c0 27 -19 47 -57 47h-56v135h46c40 0 58 22 58 44c0 23 -20 47 -54 47c-30 0 -58 -19 -59 -63h-191
c8 158 109 244 259 244c145 0 244 -81 244 -200c0 -66 -29 -111 -80 -139z" />
    <glyph glyph-name="uni049A" unicode="&#x49a;" horiz-adv-x="719" 
d="M493 -125v125h-49l-161 272v-272h-226v673h226v-254l154 254h253l-198 -324l91 -146h126v-328h-216z" />
    <glyph glyph-name="uni04A0" unicode="&#x4a0;" horiz-adv-x="710" 
d="M-39 470v203h339v-254l154 254h253l-198 -324l217 -349h-265l-161 272v-272h-226v470h-113z" />
    <glyph glyph-name="uni04A2" unicode="&#x4a2;" horiz-adv-x="755" 
d="M650 203h95v-328h-216v125h-104v240h-143v-240h-225v673h225v-230h143v230h225v-470z" />
    <glyph glyph-name="uni04AA" unicode="&#x4aa;" horiz-adv-x="781" 
d="M488 -125h-188v120c-168 34 -278 166 -278 341c0 206 153 351 370 351c206 0 358 -129 367 -312h-234c-15 64 -67 105 -135 105c-79 0 -132 -57 -132 -143c0 -87 53 -144 132 -144c68 0 120 41 135 105h234c-9 -154 -116 -269 -271 -302v-121z" />
    <glyph glyph-name="uni04AE" unicode="&#x4ae;" horiz-adv-x="649" 
d="M660 673l-223 -386v-287h-226v289l-222 384h260l76 -169l76 169h259z" />
    <glyph glyph-name="uni04B0" unicode="&#x4b0;" horiz-adv-x="673" 
d="M672 673l-212 -366h132v-193h-143v-114h-226v114h-137v193h126l-211 366h260l76 -169l76 169h259z" />
    <glyph glyph-name="uni04B2" unicode="&#x4b2;" horiz-adv-x="704" 
d="M479 -125v125h-40l-90 176l-89 -176h-255l202 345l-191 328h254l82 -162l74 162h255l-189 -328l83 -142h119v-328h-215z" />
    <glyph glyph-name="uni04B6" unicode="&#x4b6;" horiz-adv-x="718" 
d="M613 203h95v-328h-216v125h-105v189c-27 -7 -54 -10 -79 -10c-173 0 -274 100 -274 271v223h226v-202c0 -56 28 -84 83 -84c15 0 29 2 44 6v280h226v-470z" />
    <glyph glyph-name="uni04BA" unicode="&#x4ba;" horiz-adv-x="671" 
d="M284 0h-227v673h227v-189c27 7 54 10 79 10c173 0 274 -100 274 -271v-223h-226v202c0 56 -28 84 -83 84c-15 0 -29 -2 -44 -6v-280z" />
    <glyph glyph-name="uni04C0" unicode="&#x4c0;" horiz-adv-x="340" 
d="M57 0v673h226v-673h-226z" />
    <glyph glyph-name="uni04D8" unicode="&#x4d8;" horiz-adv-x="774" 
d="M380 687c220 0 372 -142 372 -347s-156 -354 -372 -354c-237 0 -380 164 -355 405h496c-16 73 -63 110 -142 110c-57 0 -106 -27 -115 -64h-233c38 157 169 250 349 250zM380 172c66 0 112 31 133 85h-264c12 -51 62 -85 131 -85z" />
    <glyph glyph-name="uni04E2" unicode="&#x4e2;" horiz-adv-x="708" 
d="M427 673h224v-673h-224v316l-146 -316h-224v673h224v-317zM172 737v161h363v-161h-363z" />
    <glyph glyph-name="uni04E6" unicode="&#x4e6;" horiz-adv-x="795" 
d="M267 712c-62 0 -116 51 -116 110c0 62 51 111 116 111c68 0 117 -47 117 -111c0 -61 -52 -110 -117 -110zM528 712c-63 0 -116 51 -116 110c0 62 51 111 116 111c68 0 117 -47 117 -111c0 -61 -52 -110 -117 -110zM398 -14c-221 0 -376 145 -376 351s155 350 376 350
c220 0 375 -145 375 -350c0 -206 -155 -351 -375 -351zM398 193c82 0 139 59 139 144c0 84 -57 143 -139 143c-83 0 -140 -59 -140 -143c0 -85 57 -144 140 -144z" />
    <glyph glyph-name="uni04E8" unicode="&#x4e8;" horiz-adv-x="795" 
d="M398 687c220 0 375 -145 375 -350c0 -206 -155 -351 -375 -351c-221 0 -376 145 -376 351s155 350 376 350zM398 486c-63 0 -108 -27 -129 -76h257c-21 49 -65 76 -128 76zM398 187c62 0 107 27 128 76h-257c21 -49 66 -76 129 -76z" />
    <glyph glyph-name="uni04EE" unicode="&#x4ee;" horiz-adv-x="696" 
d="M456 673h259l-346 -673h-259l116 211l-242 462h260l109 -245zM174 737v161h363v-161h-363z" />
    <glyph glyph-name="uni04F2" unicode="&#x4f2;" horiz-adv-x="696" 
d="M456 673h259l-346 -673h-259l116 211l-242 462h260l109 -245zM178 724l58 196h182l-72 -196h-168zM402 724l71 196h204l-124 -196h-151z" />
    <glyph glyph-name="uni0414.loclBGR" horiz-adv-x="720" 
d="M653 203h57v-328h-210v125h-280v-125h-210v328h58l179 470h241zM368 438l-72 -235h133z" />
    <glyph glyph-name="uni041B.loclBGR" horiz-adv-x="660" 
d="M669 0h-244l-94 379l-96 -379h-244l218 673h241z" />
    <glyph glyph-name="uni0413.ordn" horiz-adv-x="319" 
d="M37 673h273v-153h-103v-251h-170v404z" />
    <glyph glyph-name="uni0415.ordn" horiz-adv-x="333" 
d="M37 269v404h270v-124h-100v-24h92v-107h-92v-25h103v-124h-273z" />
    <glyph glyph-name="uni0419.ordn" horiz-adv-x="453" 
d="M226 697c-97 0 -159 51 -159 132h118c0 -13 11 -32 41 -32c29 0 40 19 40 32h118c0 -81 -62 -132 -158 -132zM262 673h154v-404h-161v132l-63 -132h-155v404h162v-134z" />
    <glyph glyph-name="uni041C.ordn" horiz-adv-x="567" 
d="M320 673h210v-404h-149v202l-43 -202h-110l-42 205v-205h-149v404h209l38 -164z" />
    <glyph glyph-name="uni041E.ordn" horiz-adv-x="487" 
d="M244 260c-138 0 -231 86 -231 211s93 211 231 211c137 0 230 -86 230 -211s-94 -211 -230 -211zM244 415c33 0 53 22 53 56s-20 56 -53 56c-34 0 -54 -22 -54 -56s20 -56 54 -56z" />
    <glyph glyph-name="uni0425.ordn" horiz-adv-x="452" 
d="M449 269h-192l-31 84l-31 -84h-192l116 213l-111 191h191l32 -74l20 74h192l-105 -200z" />
    <glyph glyph-name="uni042F.ordn" horiz-adv-x="418" 
d="M199 673h182v-404h-160v100h-7l-39 -100h-175l70 139c-30 26 -47 63 -47 110c0 97 66 155 176 155zM227 487v61h-24c-19 0 -29 -13 -29 -30c0 -18 10 -31 29 -31h24z" />
    <glyph glyph-name="uni0430" unicode="&#x430;" horiz-adv-x="555" 
d="M271 521c151 0 245 -81 245 -216v-305h-193v35c-36 -33 -84 -49 -139 -49c-103 0 -169 58 -169 154c0 101 72 158 206 158h87v18c0 36 -18 53 -45 53c-26 0 -39 -15 -42 -46h-187c5 127 96 198 237 198zM263 122c26 0 45 17 45 50v24h-45c-23 0 -38 -15 -38 -38
c0 -22 14 -36 38 -36z" />
    <glyph glyph-name="uni0431" unicode="&#x431;" horiz-adv-x="589" 
d="M348 432c127 0 222 -89 222 -209c0 -140 -107 -237 -261 -237c-176 0 -286 115 -286 299v6c0 231 86 339 299 375l207 36v-193l-210 -29c-75 -11 -103 -33 -105 -83c38 22 85 35 134 35zM305 154c34 0 59 25 59 60c0 34 -24 58 -59 58c-36 0 -60 -24 -60 -58
c0 -35 25 -60 60 -60z" />
    <glyph glyph-name="uni0432" unicode="&#x432;" horiz-adv-x="551" 
d="M453 265c60 -22 86 -57 86 -114c0 -93 -71 -151 -184 -151h-308v507h262c127 0 202 -53 202 -141c0 -46 -18 -78 -58 -101zM238 371v-58h53c18 0 31 12 31 29s-13 29 -31 29h-53zM238 142h65c20 0 32 11 32 29s-12 29 -32 29h-65v-58z" />
    <glyph glyph-name="uni0433" unicode="&#x433;" horiz-adv-x="426" 
d="M47 0v507h370v-184h-149v-323h-221z" />
    <glyph glyph-name="uni0453" unicode="&#x453;" horiz-adv-x="426" 
d="M47 0v507h370v-184h-149v-323h-221zM145 560l63 192h240l-121 -192h-182z" />
    <glyph glyph-name="uni0491" unicode="&#x491;" horiz-adv-x="469" 
d="M47 0v507h203v136h210v-320h-192v-323h-221z" />
    <glyph glyph-name="uni0434" unicode="&#x434;" horiz-adv-x="696" 
d="M598 182h88v-307h-211v125h-254v-125h-211v307h26c53 0 82 51 82 145v180h480v-325zM318 335v-18c0 -56 -17 -101 -50 -135h112v153h-62z" />
    <glyph glyph-name="uni0435" unicode="&#x435;" horiz-adv-x="592" 
d="M302 521c177 0 288 -128 269 -309h-356c13 -44 47 -71 94 -71c34 0 58 14 63 36h196c-28 -120 -125 -191 -263 -191c-170 0 -286 107 -286 264c0 158 118 271 283 271zM304 366c-39 0 -70 -20 -85 -56h163c-8 35 -38 56 -78 56z" />
    <glyph glyph-name="uni0450" unicode="&#x450;" horiz-adv-x="592" 
d="M302 521c177 0 288 -128 269 -309h-356c13 -44 47 -71 94 -71c34 0 58 14 63 36h196c-28 -120 -125 -191 -263 -191c-170 0 -286 107 -286 264c0 158 118 271 283 271zM304 366c-39 0 -70 -20 -85 -56h163c-8 35 -38 56 -78 56zM210 560l-121 192h240l63 -192h-182z" />
    <glyph glyph-name="uni0451" unicode="&#x451;" horiz-adv-x="592" 
d="M302 521c177 0 288 -128 269 -309h-356c13 -44 47 -71 94 -71c34 0 58 14 63 36h196c-28 -120 -125 -191 -263 -191c-170 0 -286 107 -286 264c0 158 118 271 283 271zM304 366c-39 0 -70 -20 -85 -56h163c-8 35 -38 56 -78 56zM175 540c-61 0 -112 50 -112 108
c0 62 49 109 112 109c66 0 113 -45 113 -109c0 -61 -50 -108 -113 -108zM428 540c-61 0 -112 49 -112 108c0 62 49 109 112 109c66 0 113 -45 113 -109c0 -61 -50 -108 -113 -108z" />
    <glyph glyph-name="uni0436" unicode="&#x436;" horiz-adv-x="881" 
d="M896 0h-239l-106 197v-197h-221v197l-106 -197h-239l154 269l-143 238h230l104 -178v178h221v-178l104 178h230l-143 -238z" />
    <glyph glyph-name="uni0437" unicode="&#x437;" horiz-adv-x="517" 
d="M432 265c51 -19 81 -58 81 -117c0 -104 -93 -162 -243 -162c-167 0 -258 72 -258 197h190c0 -18 15 -34 55 -34c33 0 41 12 41 26s-8 25 -34 25h-73v107h66c25 0 33 12 33 27c0 18 -13 27 -38 27c-29 0 -45 -13 -45 -32h-185c0 113 93 191 242 191
c127 0 224 -61 224 -154c0 -44 -22 -79 -56 -101z" />
    <glyph glyph-name="uni0438" unicode="&#x438;" horiz-adv-x="624" 
d="M383 507h195v-507h-221v195l-119 -195h-191v507h221v-189z" />
    <glyph glyph-name="uni0439" unicode="&#x439;" horiz-adv-x="624" 
d="M383 507h195v-507h-221v195l-119 -195h-191v507h221v-189zM311 556c-132 0 -203 69 -203 196h149c0 -39 20 -62 55 -62c34 0 54 23 54 62h149c0 -127 -71 -196 -204 -196z" />
    <glyph glyph-name="uni045D" unicode="&#x45d;" horiz-adv-x="624" 
d="M383 507h195v-507h-221v195l-119 -195h-191v507h221v-189zM219 560l-121 192h240l63 -192h-182z" />
    <glyph glyph-name="uni043A" unicode="&#x43a;" horiz-adv-x="604" 
d="M619 0h-240l-111 194v-194h-221v507h221v-186l109 186h231l-143 -244z" />
    <glyph glyph-name="uni045C" unicode="&#x45c;" horiz-adv-x="604" 
d="M619 0h-240l-111 194v-194h-221v507h221v-186l109 186h231l-143 -244zM235 560l63 192h240l-121 -192h-182z" />
    <glyph glyph-name="uni043B" unicode="&#x43b;" horiz-adv-x="623" 
d="M-3 -6v188c69 0 95 37 95 135v190h485v-507h-221v323h-56v-41c0 -209 -83 -288 -303 -288z" />
    <glyph glyph-name="uni043C" unicode="&#x43c;" horiz-adv-x="735" 
d="M431 507h258v-507h-177v259l-76 -259h-136l-76 262v-262h-177v507h258l63 -238z" />
    <glyph glyph-name="uni043D" unicode="&#x43d;" horiz-adv-x="621" 
d="M47 0v507h221v-163h86v163h221v-507h-221v161h-86v-161h-221z" />
    <glyph glyph-name="uni043E" unicode="&#x43e;" horiz-adv-x="614" 
d="M307 -14c-164 0 -288 115 -288 267c0 153 124 268 288 268s288 -115 288 -268c0 -152 -124 -267 -288 -267zM307 177c42 0 69 29 69 76s-27 77 -69 77s-69 -30 -69 -77s27 -76 69 -76z" />
    <glyph glyph-name="uni043F" unicode="&#x43f;" horiz-adv-x="616" 
d="M46 0v507h524v-507h-221v323h-82v-323h-221z" />
    <glyph glyph-name="uni0440" unicode="&#x440;" horiz-adv-x="634" 
d="M377 521c138 0 235 -110 235 -267c0 -158 -95 -268 -231 -268c-48 0 -87 14 -117 44v-193h-221v670h201v-46c29 40 74 60 133 60zM324 178c42 0 69 29 69 76c0 46 -26 75 -69 75s-69 -29 -69 -75c0 -47 27 -76 69 -76z" />
    <glyph glyph-name="uni0441" unicode="&#x441;" horiz-adv-x="594" 
d="M301 -14c-160 0 -282 115 -282 267s122 268 282 268c148 0 259 -97 274 -240h-209c-9 30 -30 46 -61 46c-41 0 -67 -28 -67 -74c0 -45 26 -73 67 -73c31 0 52 17 61 47h209c-15 -143 -126 -241 -274 -241z" />
    <glyph glyph-name="uni0442" unicode="&#x442;" horiz-adv-x="476" 
d="M127 0v326h-127v184h476v-184h-128v-326h-221z" />
    <glyph glyph-name="uni0443" unicode="&#x443;" horiz-adv-x="579" 
d="M354 507h234l-238 -670h-243l63 169l-179 501h234l64 -253z" />
    <glyph glyph-name="uni045E" unicode="&#x45e;" horiz-adv-x="579" 
d="M354 507h234l-238 -670h-243l63 169l-179 501h234l64 -253zM290 556c-132 0 -203 69 -203 196h149c0 -39 20 -62 55 -62c34 0 54 23 54 62h149c0 -127 -71 -196 -204 -196z" />
    <glyph glyph-name="uni0444" unicode="&#x444;" horiz-adv-x="845" 
d="M312 -163v149c-186 3 -293 108 -293 268c0 165 115 263 293 267v152h221v-152c183 -4 293 -97 293 -268c0 -163 -101 -264 -293 -267v-149h-221zM323 164v179c-54 -2 -86 -31 -86 -89s32 -88 86 -90zM522 343v-179c54 2 86 32 86 90s-32 87 -86 89z" />
    <glyph glyph-name="uni0445" unicode="&#x445;" horiz-adv-x="610" 
d="M621 0h-243l-73 114l-72 -114h-244l184 258l-177 249h244l66 -104l64 104h244l-178 -248z" />
    <glyph glyph-name="uni0447" unicode="&#x447;" horiz-adv-x="599" 
d="M332 507h221v-507h-221v131c-20 -4 -38 -6 -54 -6c-164 0 -248 84 -248 245v137h221v-114c0 -45 20 -65 61 -65c6 0 13 1 20 2v177z" />
    <glyph glyph-name="uni0446" unicode="&#x446;" horiz-adv-x="667" 
d="M447 -125v125h-401v507h221v-323h82v323h220v-323h88v-309h-210z" />
    <glyph glyph-name="uni0448" unicode="&#x448;" horiz-adv-x="845" 
d="M46 0v507h210v-323h68v323h197v-323h67v323h211v-507h-753z" />
    <glyph glyph-name="uni0449" unicode="&#x449;" horiz-adv-x="897" 
d="M677 -125v125h-631v507h210v-323h68v323h197v-323h67v323h211v-323h88v-309h-210z" />
    <glyph glyph-name="uni045F" unicode="&#x45f;" horiz-adv-x="616" 
d="M570 507v-507h-156v-125h-211v125h-157v507h221v-323h82v323h221z" />
    <glyph glyph-name="uni044C" unicode="&#x44c;" horiz-adv-x="548" 
d="M46 0v507h221v-100h29c151 0 237 -72 237 -201c0 -130 -88 -206 -237 -206h-250zM260 163h20c23 0 40 17 40 43s-18 43 -40 43h-20v-86z" />
    <glyph glyph-name="uni044A" unicode="&#x44a;" horiz-adv-x="599" 
d="M92 0v323h-109v184h330v-100h34c151 0 237 -66 237 -201c0 -136 -88 -206 -237 -206h-255zM306 162h25c24 0 40 18 40 43s-17 43 -40 43h-25v-86z" />
    <glyph glyph-name="uni044B" unicode="&#x44b;" horiz-adv-x="834" 
d="M46 0v507h221v-100h29c151 0 237 -72 237 -201c0 -130 -88 -206 -237 -206h-250zM260 163h20c23 0 40 17 40 43s-18 43 -40 43h-20v-86zM567 0v507h221v-507h-221z" />
    <glyph glyph-name="uni0459" unicode="&#x459;" horiz-adv-x="863" 
d="M-3 -6v188c69 0 95 37 95 135v190h485v-100h34c151 0 237 -72 237 -201c0 -130 -88 -206 -237 -206h-255v323h-56v-41c0 -209 -83 -288 -303 -288zM570 163h25c23 0 40 17 40 43s-18 43 -40 43h-25v-86z" />
    <glyph glyph-name="uni045A" unicode="&#x45a;" horiz-adv-x="857" 
d="M46 0v507h221v-166h83v166h221v-80h34c151 0 237 -76 237 -211c0 -136 -88 -216 -237 -216h-255v158h-83v-158h-221zM564 172h25c24 0 40 18 40 43s-17 43 -40 43h-25v-86z" />
    <glyph glyph-name="uni0455" unicode="&#x455;" horiz-adv-x="478" 
d="M241 -14c-144 0 -228 67 -231 185h186c2 -31 16 -44 49 -44c24 0 36 8 36 24c0 14 -8 20 -31 25l-79 17c-98 21 -149 74 -149 155c0 104 86 173 216 173c128 0 209 -67 217 -180h-182c-1 25 -14 39 -38 39c-18 0 -31 -9 -31 -23c0 -13 7 -19 30 -25l77 -18
c106 -25 154 -74 154 -158c0 -109 -80 -170 -224 -170z" />
    <glyph glyph-name="uni0454" unicode="&#x454;" horiz-adv-x="594" 
d="M305 162c40 0 67 22 79 65h191c-15 -143 -126 -241 -274 -241c-160 0 -282 115 -282 267s122 268 282 268c148 0 259 -97 274 -240h-191c-12 42 -39 64 -79 64c-36 0 -63 -16 -77 -44h103v-100h-101c15 -25 41 -39 75 -39z" />
    <glyph glyph-name="uni044D" unicode="&#x44d;" horiz-adv-x="594" 
d="M289 162c34 0 60 14 75 39h-101v100h103c-14 28 -41 44 -77 44c-40 0 -67 -22 -79 -64h-191c15 143 126 240 274 240c160 0 282 -116 282 -268s-122 -267 -282 -267c-148 0 -259 98 -274 241h191c12 -43 39 -65 79 -65z" />
    <glyph glyph-name="uni0456" unicode="&#x456;" horiz-adv-x="307" 
d="M154 540c-69 0 -121 51 -121 118c0 66 52 117 121 117s121 -51 121 -117c0 -67 -52 -118 -121 -118zM43 0v507h221v-507h-221z" />
    <glyph glyph-name="uni0457" unicode="&#x457;" horiz-adv-x="330" 
d="M54 0v507h221v-507h-221zM38 540c-61 0 -112 50 -112 108c0 62 49 109 112 109c66 0 113 -45 113 -109c0 -61 -50 -108 -113 -108zM291 540c-61 0 -112 49 -112 108c0 62 49 109 112 109c66 0 113 -45 113 -109c0 -61 -50 -108 -113 -108z" />
    <glyph glyph-name="uni0458" unicode="&#x458;" horiz-adv-x="306" 
d="M154 540c-69 0 -121 51 -121 118c0 66 52 117 121 117s121 -51 121 -117c0 -67 -52 -118 -121 -118zM-44 -163v173h26c45 0 61 13 61 52v445h220v-457c0 -136 -80 -213 -221 -213h-86z" />
    <glyph glyph-name="uni045B" unicode="&#x45b;" horiz-adv-x="637" 
d="M412 426c109 0 186 -87 186 -212v-213h-221v179c0 28 -15 46 -40 46s-41 -18 -41 -46v-179h-221v469h-72v131h72v72h221v-72h169v-131h-169v-87c31 28 71 43 116 43z" />
    <glyph glyph-name="uni044E" unicode="&#x44e;" horiz-adv-x="898" 
d="M591 -14c-129 0 -233 71 -272 175h-52v-161h-221v506h221v-161h52c38 105 143 176 272 176c164 0 288 -115 288 -268c0 -152 -124 -267 -288 -267zM591 177c42 0 69 29 69 76s-27 77 -69 77s-69 -30 -69 -77s27 -76 69 -76z" />
    <glyph glyph-name="uni044F" unicode="&#x44f;" horiz-adv-x="582" 
d="M288 507h248v-507h-217v128h-4l-67 -128h-244l110 172c-41 29 -63 74 -63 132c0 129 86 203 237 203zM323 351h-18c-24 0 -40 -18 -40 -43s17 -43 40 -43h18v86z" />
    <glyph glyph-name="uni0452" unicode="&#x452;" horiz-adv-x="637" 
d="M412 426c109 0 186 -87 186 -212v-180c0 -151 -78 -227 -233 -227h-74v165h14c52 0 72 17 72 64v144c0 28 -15 46 -40 46s-41 -18 -41 -46v-179h-221v469h-72v131h72v72h221v-72h169v-131h-169v-87c31 28 71 43 116 43z" />
    <glyph glyph-name="uni0463" unicode="&#x463;" horiz-adv-x="592" 
d="M95 0v410h-92v131h92v132h221v-132h157v-131h-157v-35h27c149 0 232 -66 232 -184c0 -120 -86 -191 -232 -191h-248zM309 148h15c24 0 40 17 40 42s-17 42 -40 42h-15v-84z" />
    <glyph glyph-name="uni0473" unicode="&#x473;" horiz-adv-x="614" 
d="M307 521c164 0 288 -115 288 -268c0 -152 -124 -267 -288 -267s-288 115 -288 267c0 153 124 268 288 268zM307 353c-45 0 -77 -26 -87 -69c15 9 30 15 48 15c30 0 49 -15 80 -15c17 0 30 4 43 10c-12 37 -43 59 -84 59zM307 154c45 0 76 25 86 67
c-14 -9 -27 -16 -45 -16c-31 0 -48 15 -80 15c-17 0 -31 -1 -44 -9c12 -36 42 -57 83 -57z" />
    <glyph glyph-name="uni0475" unicode="&#x475;" horiz-adv-x="572" 
d="M476 507h91v-181h-28c-26 0 -39 -13 -49 -47l-80 -279h-240l-179 507h233l66 -255l33 132c22 90 64 123 153 123z" />
    <glyph glyph-name="uni0493" unicode="&#x493;" horiz-adv-x="515" 
d="M472 323h-167v-43h167v-177h-167v-103h-221v103h-71v177h71v227h388v-184z" />
    <glyph glyph-name="uni0497" unicode="&#x497;" horiz-adv-x="934" 
d="M713 -125v125h-61v9l-101 188v-197h-221v197l-106 -197h-239l154 269l-143 238h230l104 -178v178h221v-178l104 178h230l-143 -238l48 -85h134v-309h-211z" />
    <glyph glyph-name="uni0499" unicode="&#x499;" horiz-adv-x="517" 
d="M432 265c51 -19 81 -58 81 -117c0 -80 -55 -133 -148 -153v-120h-188v120c-108 23 -165 88 -165 188h190c0 -18 15 -34 55 -34c33 0 41 12 41 26s-8 25 -34 25h-73v107h66c25 0 33 12 33 27c0 18 -13 27 -38 27c-29 0 -45 -13 -45 -32h-185c0 113 93 191 242 191
c127 0 224 -61 224 -154c0 -44 -22 -79 -56 -101z" />
    <glyph glyph-name="uni049B" unicode="&#x49b;" horiz-adv-x="659" 
d="M438 -125v125h-61v1l-110 193v-194h-221v507h221v-186l109 186h231l-143 -244l46 -79h139v-309h-211z" />
    <glyph glyph-name="uni04A1" unicode="&#x4a1;" horiz-adv-x="627" 
d="M642 0h-240l-111 201v-201h-221v323h-87v184h308v-178l109 178h231l-143 -237z" />
    <glyph glyph-name="uni04A3" unicode="&#x4a3;" horiz-adv-x="672" 
d="M451 -125v125h-98v161h-86v-161h-221v507h221v-163h86v163h221v-323h88v-309h-211z" />
    <glyph glyph-name="uni04AB" unicode="&#x4ab;" horiz-adv-x="594" 
d="M401 -125h-188v123c-115 33 -194 132 -194 255c0 152 122 268 282 268c148 0 259 -97 274 -240h-209c-9 30 -30 46 -61 46c-41 0 -67 -28 -67 -74c0 -45 26 -73 67 -73c31 0 52 17 61 47h209c-12 -109 -78 -191 -174 -225v-127z" />
    <glyph glyph-name="uni04AF" unicode="&#x4af;" horiz-adv-x="577" 
d="M586 507l-187 -499v-171h-221v171l-187 499h233l65 -256l64 256h233z" />
    <glyph glyph-name="uni04B1" unicode="&#x4b1;" horiz-adv-x="607" 
d="M601 507l-175 -467h123v-131h-135v-72h-221v72h-135v131h123l-175 467h233l65 -256l64 256h233z" />
    <glyph glyph-name="uni04B3" unicode="&#x4b3;" horiz-adv-x="660" 
d="M490 184h160v-309h-211v125h-61l-73 114l-72 -114h-244l184 258l-177 249h244l66 -104l64 104h244l-177 -248z" />
    <glyph glyph-name="uni04B7" unicode="&#x4b7;" horiz-adv-x="650" 
d="M552 184h88v-309h-210v125h-99v131c-20 -4 -38 -6 -54 -6c-163 0 -247 84 -247 245v137h221v-114c0 -45 19 -65 60 -65c6 0 13 1 20 2v177h221v-323z" />
    <glyph glyph-name="uni04BB" unicode="&#x4bb;" horiz-adv-x="605" 
d="M380 521c109 0 186 -87 186 -212v-309h-221v275c0 28 -15 46 -40 46s-41 -18 -41 -46v-275h-221v673h221v-195c31 28 71 43 116 43z" />
    <glyph glyph-name="uni04CF" unicode="&#x4cf;" horiz-adv-x="313" 
d="M46 0v673h221v-673h-221z" />
    <glyph glyph-name="uni04D9" unicode="&#x4d9;" horiz-adv-x="592" 
d="M290 -14c-177 0 -288 128 -269 309h356c-13 44 -47 71 -94 71c-34 0 -58 -14 -63 -36h-196c28 120 125 191 263 191c170 0 286 -107 286 -264c0 -158 -118 -271 -283 -271zM288 141c39 0 70 20 85 56h-163c8 -35 38 -56 78 -56z" />
    <glyph glyph-name="uni04E3" unicode="&#x4e3;" horiz-adv-x="624" 
d="M383 507h195v-507h-221v195l-119 -195h-191v507h221v-189zM139 571v151h343v-151h-343z" />
    <glyph glyph-name="uni04E7" unicode="&#x4e7;" horiz-adv-x="614" 
d="M180 540c-61 0 -112 50 -112 108c0 62 49 109 112 109c66 0 113 -45 113 -109c0 -61 -50 -108 -113 -108zM433 540c-61 0 -112 49 -112 108c0 62 49 109 112 109c66 0 113 -45 113 -109c0 -61 -50 -108 -113 -108zM307 -14c-164 0 -288 115 -288 267
c0 153 124 268 288 268s288 -115 288 -268c0 -152 -124 -267 -288 -267zM307 177c42 0 69 29 69 76s-27 77 -69 77s-69 -30 -69 -77s27 -76 69 -76z" />
    <glyph glyph-name="uni04E9" unicode="&#x4e9;" horiz-adv-x="614" 
d="M307 521c164 0 288 -115 288 -268c0 -152 -124 -267 -288 -267s-288 115 -288 267c0 153 124 268 288 268zM307 353c-42 0 -73 -23 -85 -62h170c-12 39 -43 62 -85 62zM307 154c41 0 71 21 84 58h-168c13 -37 43 -58 84 -58z" />
    <glyph glyph-name="uni04EF" unicode="&#x4ef;" horiz-adv-x="579" 
d="M118 571v151h343v-151h-343zM354 507h234l-238 -670h-243l63 169l-179 501h234l64 -253z" />
    <glyph glyph-name="uni04F3" unicode="&#x4f3;" horiz-adv-x="579" 
d="M107 560l64 192h182l-78 -192h-168zM327 560l77 192h194l-120 -192h-151zM354 507h234l-238 -670h-243l63 169l-179 501h234l64 -253z" />
    <glyph glyph-name="uni0432.loclBGR" horiz-adv-x="618" 
d="M505 361c60 -31 94 -85 94 -156c0 -131 -109 -219 -272 -219c-177 0 -288 101 -288 261v186c0 163 95 254 272 254c156 0 253 -72 253 -191c0 -55 -21 -101 -59 -135zM313 513c-36 0 -62 -21 -62 -64v-44h39c51 0 72 22 72 61c0 29 -21 47 -49 47zM325 163
c38 0 60 19 60 50c0 35 -22 53 -63 53h-71v-29c0 -50 27 -74 74 -74z" />
    <glyph glyph-name="uni0433.loclBGR" horiz-adv-x="478" 
d="M237 -14c-144 0 -224 61 -224 170c0 83 47 131 154 158l77 20c24 6 30 11 30 23c0 14 -13 23 -31 23c-24 0 -37 -14 -38 -39h-182c8 113 89 180 217 180c130 0 216 -69 216 -173c0 -79 -49 -130 -149 -153l-79 -19c-24 -6 -31 -12 -31 -25c0 -16 13 -24 36 -24
c33 0 47 13 49 44h186c-3 -118 -87 -185 -231 -185z" />
    <glyph glyph-name="uni0453.loclBGR" horiz-adv-x="478" 
d="M237 -14c-144 0 -224 61 -224 170c0 83 47 131 154 158l77 20c24 6 30 11 30 23c0 14 -13 23 -31 23c-24 0 -37 -14 -38 -39h-182c8 113 89 180 217 180c130 0 216 -69 216 -173c0 -79 -49 -130 -149 -153l-79 -19c-24 -6 -31 -12 -31 -25c0 -16 13 -24 36 -24
c33 0 47 13 49 44h186c-3 -118 -87 -185 -231 -185zM146 560l63 192h240l-121 -192h-182z" />
    <glyph glyph-name="uni0491.loclBGR" horiz-adv-x="478" 
d="M237 -14c-144 0 -224 61 -224 170c0 83 47 131 154 158l77 20c24 6 30 11 30 23c0 14 -13 23 -31 23c-24 0 -37 -14 -38 -39h-182c5 80 47 136 117 163v129h201v-129c71 -26 115 -82 115 -156c0 -79 -49 -130 -149 -153l-79 -19c-24 -6 -31 -12 -31 -25
c0 -16 13 -24 36 -24c33 0 47 13 49 44h186c-3 -118 -87 -185 -231 -185z" />
    <glyph glyph-name="uni0434.loclBGR" horiz-adv-x="632" 
d="M388 507h201v-431c0 -158 -103 -253 -286 -253c-150 0 -254 64 -263 188h208c3 -23 24 -36 59 -36c41 0 61 17 61 60v56c-31 -29 -71 -44 -120 -44c-130 0 -228 99 -228 236c0 138 99 238 232 238c60 0 106 -20 136 -60v46zM308 206c42 0 69 29 69 76s-27 77 -69 77
s-69 -30 -69 -77s27 -76 69 -76z" />
    <glyph glyph-name="uni0436.loclBGR" horiz-adv-x="881" 
d="M896 0h-239l-106 197v-197h-221v197l-106 -197h-239l154 269l-143 238h230l104 -178v344h221v-344l104 178h230l-143 -238z" />
    <glyph glyph-name="uni0437.loclBGR" horiz-adv-x="514" 
d="M408 178c65 -31 102 -85 102 -156c0 -117 -103 -199 -251 -199c-153 0 -244 88 -252 246h198c0 -37 18 -59 47 -59c27 0 47 20 47 49c0 28 -19 47 -49 47h-59v143h58c31 0 49 18 49 47c0 28 -18 46 -45 46c-31 0 -51 -23 -52 -59h-194c8 149 105 239 257 239
c142 0 237 -79 237 -196c0 -68 -32 -119 -93 -148z" />
    <glyph glyph-name="uni0438.loclBGR" horiz-adv-x="605" 
d="M341 507h221v-507h-201v36c-34 -32 -80 -50 -132 -50c-114 0 -190 84 -190 212v309h221v-275c0 -28 15 -46 40 -46s41 18 41 46v275z" />
    <glyph glyph-name="uni0439.loclBGR" horiz-adv-x="605" 
d="M341 507h221v-507h-201v36c-34 -32 -80 -50 -132 -50c-114 0 -190 84 -190 212v309h221v-275c0 -28 15 -46 40 -46s41 18 41 46v275zM302 556c-132 0 -203 69 -203 196h149c0 -39 20 -62 55 -62c34 0 54 23 54 62h149c0 -127 -71 -196 -204 -196z" />
    <glyph glyph-name="uni045D.loclBGR" horiz-adv-x="605" 
d="M209 560l-121 192h240l63 -192h-182zM341 507h221v-507h-201v36c-34 -32 -80 -50 -132 -50c-114 0 -190 84 -190 212v309h221v-275c0 -28 15 -46 40 -46s41 18 41 46v275z" />
    <glyph glyph-name="uni043A.loclBGR" horiz-adv-x="600" 
d="M615 0h-240l-111 194v-194h-221v673h221v-352l109 186h231l-147 -244z" />
    <glyph glyph-name="uni045C.loclBGR" horiz-adv-x="600" 
d="M297 560l63 192h240l-121 -192h-182zM615 0h-240l-111 194v-194h-221v673h221v-352l109 186h231l-147 -244z" />
    <glyph glyph-name="uni043B.loclBGR" horiz-adv-x="577" 
d="M353 0l-64 256l-65 -256h-233l179 507h239l177 -507h-233z" />
    <glyph glyph-name="uni043F.loclBGR" horiz-adv-x="605" 
d="M376 521c114 0 190 -84 190 -212v-309h-221v275c0 28 -15 46 -40 46s-41 -18 -41 -46v-275h-221v507h201v-36c34 32 80 50 132 50z" />
    <glyph glyph-name="uni0442.loclBGR" horiz-adv-x="900" 
d="M667 521c119 0 194 -82 194 -212v-309h-220v275c0 29 -15 46 -39 46s-39 -17 -39 -46v-275h-221v275c0 29 -15 46 -39 46s-39 -17 -39 -46v-275h-221v507h201v-36c33 32 76 50 126 50c58 0 107 -21 142 -58c40 37 94 58 155 58z" />
    <glyph glyph-name="uni0447.loclBGR" horiz-adv-x="598" 
d="M331 507h221v-507h-221v121c-20 -4 -38 -6 -54 -6c-163 0 -247 84 -247 245v147h221v-124c0 -45 19 -65 60 -65c6 0 13 1 20 2v187z" />
    <glyph glyph-name="uni0446.loclBGR" horiz-adv-x="640" 
d="M600 184h30v-309h-210v148c-11 6 -21 13 -30 22c-37 -38 -89 -59 -151 -59c-117 0 -200 88 -200 212v309h221v-275c0 -28 15 -46 40 -46s41 18 41 46v275h221v-281c0 -28 13 -42 38 -42z" />
    <glyph glyph-name="uni0448.loclBGR" horiz-adv-x="903" 
d="M233 -14c-119 0 -194 82 -194 212v309h220v-275c0 -29 15 -46 39 -46s39 17 39 46v275h221v-275c0 -29 15 -46 39 -46s39 17 39 46v275h221v-507h-201v36c-33 -32 -76 -50 -126 -50c-58 0 -107 21 -142 58c-40 -37 -94 -58 -155 -58z" />
    <glyph glyph-name="uni0449.loclBGR" horiz-adv-x="935" 
d="M895 184h30v-309h-210v148c-11 6 -21 13 -30 22c-37 -38 -89 -59 -151 -59c-60 0 -110 21 -145 59c-41 -38 -95 -59 -156 -59c-119 0 -194 82 -194 212v309h220v-275c0 -29 15 -46 39 -46s39 17 39 46v275h221v-275c0 -29 15 -46 39 -46s39 17 39 46v275h221v-281
c0 -28 13 -42 38 -42z" />
    <glyph glyph-name="uni044C.loclBGR" horiz-adv-x="545" 
d="M260 407h18c156 0 252 -79 252 -208s-95 -213 -240 -213c-152 0 -251 94 -251 240v281h221v-100zM286 165c23 0 37 15 37 39c0 27 -17 42 -48 42h-25v-37c0 -28 13 -44 36 -44z" />
    <glyph glyph-name="uni044A.loclBGR" horiz-adv-x="598" 
d="M343 -14c-152 0 -251 94 -251 240v97h-109v184h330v-100h18c156 0 252 -79 252 -208s-95 -213 -240 -213zM339 165c23 0 37 15 37 39c0 27 -17 42 -48 42h-25v-37c0 -28 13 -44 36 -44z" />
    <glyph glyph-name="uni044B.loclBGR" horiz-adv-x="847" 
d="M260 407h18c156 0 252 -79 252 -208s-95 -213 -240 -213c-152 0 -251 94 -251 240v281h221v-100zM286 165c23 0 37 15 37 39c0 27 -17 42 -48 42h-25v-37c0 -28 13 -44 36 -44zM580 0v507h221v-507h-221z" />
    <glyph glyph-name="uni044E.loclBGR" horiz-adv-x="898" 
d="M591 -14c-129 0 -233 71 -272 175h-52v-161h-221v673h221v-328h52c38 105 143 176 272 176c164 0 288 -115 288 -268c0 -152 -124 -267 -288 -267zM591 177c42 0 69 29 69 76s-27 77 -69 77s-69 -30 -69 -77s27 -76 69 -76z" />
    <glyph glyph-name="uni0431.loclSRB" horiz-adv-x="569" 
d="M302 495l121 -74c87 -54 127 -118 127 -207c0 -134 -111 -228 -270 -228c-158 0 -261 90 -261 226c0 101 58 178 147 204l-19 12c-74 45 -100 79 -100 130c0 70 56 115 144 115h302v-164h-191c-4 0 -7 -2 -7 -6c0 -3 2 -5 7 -8zM285 154c34 0 59 25 59 60
c0 34 -24 58 -59 58c-36 0 -60 -24 -60 -58c0 -35 25 -60 60 -60z" />
    <glyph glyph-name="uni0438.loclSRB" horiz-adv-x="613" 
d="M346 507h221v-507h-221v161l-79 -63v-98h-221v507h221v-166l79 63v103z" />
    <glyph glyph-name="uni04D4" unicode="&#x4d4;" horiz-adv-x="883" 
d="M637 188h211v-188h-386l-15 85h-198l-33 -85h-231l276 673h576v-188h-248l10 -60h228v-174h-200zM423 246l-35 247l-83 -247h118z" />
    <glyph glyph-name="uni04D5" unicode="&#x4d5;" horiz-adv-x="894" 
d="M604 521c176 0 288 -128 269 -310h-356c13 -45 47 -71 94 -71c34 0 58 14 63 36h196c-28 -120 -125 -190 -263 -190c-84 0 -153 26 -201 73c-40 -51 -101 -73 -191 -73c-125 0 -200 57 -200 152c0 104 72 160 206 160h82v18c0 36 -13 53 -40 53c-26 0 -39 -15 -42 -46
h-187c5 125 93 198 238 198c70 0 125 -18 164 -51c45 33 102 51 168 51zM604 365c-40 0 -70 -21 -84 -57h164c-8 35 -38 57 -80 57zM263 122c26 0 40 17 40 50v24h-40c-23 0 -38 -15 -38 -37c0 -24 14 -37 38 -37z" />
    <glyph glyph-name="Alpha" unicode="&#x391;" horiz-adv-x="698" 
d="M471 0l-30 103h-183l-31 -103h-236l238 673h240l238 -673h-236zM397 263l-48 182l-47 -182h95z" />
    <glyph glyph-name="Beta" unicode="&#x392;" horiz-adv-x="656" 
d="M527 340c71 -29 112 -85 112 -159c0 -112 -91 -181 -236 -181h-346v673h300c157 0 250 -69 250 -187c0 -65 -28 -115 -80 -146zM266 172h115c28 0 48 16 48 46c0 28 -20 44 -49 44h-114v-90zM353 501h-87v-88h88c28 0 47 18 47 44c0 29 -19 44 -48 44z" />
    <glyph glyph-name="Gamma" unicode="&#x393;" horiz-adv-x="499" 
d="M57 673h428v-203h-202v-470h-226v673z" />
    <glyph glyph-name="uni0394" unicode="&#x394;" horiz-adv-x="694" 
d="M467 673l182 -490v-183h-604v183l182 490h240zM429 183l-82 275l-80 -275h162z" />
    <glyph glyph-name="Epsilon" unicode="&#x395;" horiz-adv-x="534" 
d="M57 0v673h431v-188h-205v-60h195v-174h-195v-63h216v-188h-442z" />
    <glyph glyph-name="Zeta" unicode="&#x396;" horiz-adv-x="569" 
d="M306 203h231v-203h-505v183l221 287h-218v203h498v-183z" />
    <glyph glyph-name="Eta" unicode="&#x397;" horiz-adv-x="707" 
d="M57 0v673h225v-230h143v230h225v-673h-225v240h-143v-240h-225z" />
    <glyph glyph-name="Theta" unicode="&#x398;" horiz-adv-x="795" 
d="M398 -14c-221 0 -376 145 -376 351s155 350 376 350c220 0 375 -145 375 -350c0 -206 -155 -351 -375 -351zM398 181c89 0 150 64 150 156c0 91 -61 155 -150 155s-151 -63 -151 -155s61 -156 151 -156zM308 253v161h180v-161h-180z" />
    <glyph glyph-name="Iota" unicode="&#x399;" horiz-adv-x="340" 
d="M57 0v673h226v-673h-226z" />
    <glyph glyph-name="Kappa" unicode="&#x39a;" horiz-adv-x="693" 
d="M709 0h-265l-161 272v-272h-226v673h226v-254l154 254h253l-198 -324z" />
    <glyph glyph-name="Lambda" unicode="&#x39b;" horiz-adv-x="679" 
d="M688 0h-244l-105 381l-105 -381h-243l228 673h241z" />
    <glyph glyph-name="Mu" unicode="&#x39c;" horiz-adv-x="889" 
d="M541 673h291v-673h-210v358l-93 -358h-170l-92 357v-357h-210v673h290l98 -377z" />
    <glyph glyph-name="Nu" unicode="&#x39d;" horiz-adv-x="708" 
d="M437 673h214v-673h-231l-149 308v-308h-214v673h231l149 -309v309z" />
    <glyph glyph-name="Xi" unicode="&#x39e;" horiz-adv-x="595" 
d="M35 482v191h525v-191h-525zM68 248v180h460v-180h-460zM35 0v191h525v-191h-525z" />
    <glyph glyph-name="Omicron" unicode="&#x39f;" horiz-adv-x="795" 
d="M398 -14c-221 0 -376 145 -376 351s155 350 376 350c220 0 375 -145 375 -350c0 -206 -155 -351 -375 -351zM398 193c82 0 139 59 139 144c0 84 -57 143 -139 143c-83 0 -140 -59 -140 -143c0 -85 57 -144 140 -144z" />
    <glyph glyph-name="Pi" unicode="&#x3a0;" horiz-adv-x="687" 
d="M57 0v673h573v-673h-225v470h-123v-470h-225z" />
    <glyph glyph-name="Rho" unicode="&#x3a1;" horiz-adv-x="602" 
d="M57 0v673h265c168 0 270 -90 270 -240c0 -145 -100 -231 -270 -231h-39v-202h-226zM283 374h36c33 0 56 24 56 59c0 34 -23 58 -56 58h-36v-117z" />
    <glyph glyph-name="Sigma" unicode="&#x3a3;" horiz-adv-x="544" 
d="M296 203h220v-203h-481v188l98 154l-98 143v188h470v-203h-202l90 -125z" />
    <glyph glyph-name="Tau" unicode="&#x3a4;" horiz-adv-x="586" 
d="M173 0v470h-153v203h546v-203h-167v-470h-226z" />
    <glyph glyph-name="Upsilon" unicode="&#x3a5;" horiz-adv-x="649" 
d="M660 673l-223 -386v-287h-226v289l-222 384h260l76 -169l76 169h259z" />
    <glyph glyph-name="Phi" unicode="&#x3a6;" horiz-adv-x="866" 
d="M844 337c0 -148 -93 -295 -298 -322v-85h-226v85c-205 27 -298 174 -298 322s93 294 298 321v85h226v-85c205 -27 298 -174 298 -321zM238 338c0 -63 26 -113 93 -131v259c-68 -16 -93 -64 -93 -128zM535 466v-259c68 17 93 67 93 131s-25 112 -93 128z" />
    <glyph glyph-name="Chi" unicode="&#x3a7;" horiz-adv-x="699" 
d="M694 0h-255l-90 176l-89 -176h-255l202 345l-191 328h254l82 -162l74 162h255l-189 -328z" />
    <glyph glyph-name="Psi" unicode="&#x3a8;" horiz-adv-x="871" 
d="M323 0v136c-182 0 -297 103 -297 268v269h225v-263c0 -52 19 -70 72 -70v359h225v-359c53 0 72 18 72 70v263h225v-269c0 -165 -114 -268 -297 -268v-136h-225z" />
    <glyph glyph-name="uni03A9" unicode="&#x3a9;" horiz-adv-x="814" 
d="M782 369c0 -73 -27 -139 -79 -191h69v-178h-338v178c72 32 112 90 112 160c0 84 -56 142 -139 142c-84 0 -141 -58 -141 -143c0 -72 40 -129 113 -159v-178h-337v178h63c-47 53 -73 121 -73 193c0 182 159 316 374 316c216 0 376 -135 376 -318z" />
    <glyph glyph-name="Alphatonos" unicode="&#x386;" horiz-adv-x="748" 
d="M7 480v193h218l-63 -193h-155zM521 0l-30 103h-183l-31 -103h-236l238 673h240l238 -673h-236zM447 263l-48 182l-47 -182h95z" />
    <glyph glyph-name="Epsilontonos" unicode="&#x388;" horiz-adv-x="734" 
d="M10 480v193h218l-63 -193h-155zM257 0v673h431v-188h-205v-60h195v-174h-195v-63h216v-188h-442z" />
    <glyph glyph-name="Etatonos" unicode="&#x389;" horiz-adv-x="897" 
d="M10 480v193h218l-63 -193h-155zM247 0v673h225v-230h143v230h225v-673h-225v240h-143v-240h-225z" />
    <glyph glyph-name="Iotatonos" unicode="&#x38a;" horiz-adv-x="530" 
d="M10 480v193h218l-63 -193h-155zM247 0v673h226v-673h-226z" />
    <glyph glyph-name="Omicrontonos" unicode="&#x38c;" horiz-adv-x="925" 
d="M0 480v193h218l-63 -193h-155zM528 -14c-221 0 -376 145 -376 351s155 350 376 350c220 0 375 -145 375 -350c0 -206 -155 -351 -375 -351zM528 193c82 0 139 59 139 144c0 84 -57 143 -139 143c-83 0 -140 -59 -140 -143c0 -85 57 -144 140 -144z" />
    <glyph glyph-name="Upsilontonos" unicode="&#x38e;" horiz-adv-x="900" 
d="M10 480v193h218l-63 -193h-155zM911 673l-223 -386v-287h-226v289l-222 384h260l76 -169l76 169h259z" />
    <glyph glyph-name="Omegatonos" unicode="&#x38f;" horiz-adv-x="945" 
d="M913 369c0 -73 -27 -139 -79 -191h69v-178h-338v178c72 32 112 90 112 160c0 84 -56 142 -139 142c-84 0 -141 -58 -141 -143c0 -72 40 -129 113 -159v-178h-337v178h63c-47 53 -73 121 -73 193c0 182 159 316 374 316c216 0 376 -135 376 -318zM10 480v193h218l-63 -193
h-155z" />
    <glyph glyph-name="Iotadieresis" unicode="&#x3aa;" horiz-adv-x="340" 
d="M39 712c-62 0 -116 51 -116 110c0 62 51 111 116 111c68 0 117 -47 117 -111c0 -61 -52 -110 -117 -110zM300 712c-63 0 -116 51 -116 110c0 62 51 111 116 111c68 0 117 -47 117 -111c0 -61 -52 -110 -117 -110zM57 0v673h226v-673h-226z" />
    <glyph glyph-name="Upsilondieresis" unicode="&#x3ab;" horiz-adv-x="649" 
d="M194 712c-62 0 -116 51 -116 110c0 62 51 111 116 111c68 0 117 -47 117 -111c0 -61 -52 -110 -117 -110zM455 712c-63 0 -116 51 -116 110c0 62 51 111 116 111c68 0 117 -47 117 -111c0 -61 -52 -110 -117 -110zM660 673l-223 -386v-287h-226v289l-222 384h260l76 -169
l76 169h259z" />
    <glyph glyph-name="Eta.ordn" horiz-adv-x="454" 
d="M37 269v404h170v-132h40v132h170v-404h-170v129h-40v-129h-170z" />
    <glyph glyph-name="Nu.ordn" horiz-adv-x="453" 
d="M264 673h152v-404h-165l-63 144v-144h-151v404h164l63 -146v146z" />
    <glyph glyph-name="Omicron.ordn" horiz-adv-x="487" 
d="M244 260c-138 0 -231 86 -231 211s93 211 231 211c137 0 230 -86 230 -211s-94 -211 -230 -211zM244 415c33 0 53 22 53 56s-20 56 -53 56c-34 0 -54 -22 -54 -56s20 -56 54 -56z" />
    <glyph glyph-name="Sigma.ordn" horiz-adv-x="329" 
d="M208 412h103v-143h-289v130l44 76l-44 68v130h282v-143h-90l38 -53z" />
    <glyph glyph-name="alpha" unicode="&#x3b1;" horiz-adv-x="646" 
d="M623 184h19v-184h-97c-57 0 -97 14 -123 45c-35 -36 -86 -59 -148 -59c-157 0 -252 100 -252 266c0 163 93 269 236 269c55 0 99 -21 128 -61v47h201v-283c0 -29 10 -40 36 -40zM308 178c41 0 67 30 67 76s-26 75 -67 75s-67 -29 -67 -75s26 -76 67 -76z" />
    <glyph glyph-name="beta" unicode="&#x3b2;" horiz-adv-x="656" 
d="M551 367c52 -35 86 -89 86 -155c0 -131 -104 -225 -249 -225c-47 0 -88 10 -124 28v-178h-221v582c0 167 110 268 290 268c167 0 272 -78 272 -203c0 -48 -20 -87 -54 -117zM357 178c39 0 62 19 62 51c0 34 -21 50 -63 50h-44v119h24c33 0 53 18 53 48s-24 51 -59 51
c-38 0 -66 -25 -66 -60v-231c29 -17 63 -28 93 -28z" />
    <glyph glyph-name="gamma" unicode="&#x3b3;" horiz-adv-x="601" 
d="M362 507h224c0 -134 -7 -203 -77 -325l-109 -190v-155h-221v156l-188 514h233l75 -272l21 40c36 71 42 109 42 232z" />
    <glyph glyph-name="delta" unicode="&#x3b4;" horiz-adv-x="577" 
d="M345 499l71 -52c83 -60 142 -127 142 -219c0 -140 -105 -242 -275 -242c-161 0 -264 91 -264 226c0 107 65 182 156 206l-122 96v159h466v-174h-174zM289 161c34 0 59 25 59 60c0 34 -24 58 -59 58c-36 0 -60 -24 -60 -58c0 -35 25 -60 60 -60z" />
    <glyph glyph-name="epsilon" unicode="&#x3b5;" horiz-adv-x="517" 
d="M85 265c-34 22 -56 57 -56 101c0 93 97 154 224 154c149 0 242 -78 242 -191h-185c0 19 -16 32 -45 32c-25 0 -38 -9 -38 -27c0 -15 8 -27 33 -27h66v-107h-73c-26 0 -34 -11 -34 -25s8 -26 41 -26c40 0 55 16 55 34h190c0 -125 -91 -197 -258 -197
c-150 0 -243 58 -243 162c0 59 30 98 81 117z" />
    <glyph glyph-name="zeta" unicode="&#x3b6;" horiz-adv-x="496" 
d="M496 504l-182 -177c-45 -44 -57 -64 -57 -98c0 -45 45 -71 148 -85l71 -10v-297h-212v143l-30 5c-135 25 -215 101 -215 205c0 84 26 140 95 208l93 91h-150v184h439v-169z" />
    <glyph glyph-name="eta" unicode="&#x3b7;" horiz-adv-x="624" 
d="M384 520c122 0 201 -83 201 -211v-472h-221v438c0 28 -16 46 -42 46s-42 -18 -42 -46v-275h-221v285c0 27 -11 38 -37 38h-18v184h102c57 0 96 -15 121 -49c37 41 90 62 157 62z" />
    <glyph glyph-name="theta" unicode="&#x3b8;" horiz-adv-x="674" 
d="M337 687c188 0 302 -130 302 -345c0 -219 -116 -356 -302 -356s-302 137 -302 356c0 215 114 345 302 345zM337 510c-52 0 -80 -25 -92 -85h184c-12 60 -40 85 -92 85zM337 163c54 0 84 32 95 106h-190c11 -74 41 -106 95 -106z" />
    <glyph glyph-name="iota" unicode="&#x3b9;" horiz-adv-x="323" 
d="M319 0h-93c-125 0 -183 60 -183 191v316h221v-285c0 -27 11 -38 37 -38h18v-184z" />
    <glyph glyph-name="kappa" unicode="&#x3ba;" horiz-adv-x="600" 
d="M615 0h-240l-111 201v-201h-221v507h221v-178l109 178h231l-147 -237z" />
    <glyph glyph-name="lambda" unicode="&#x3bb;" horiz-adv-x="576" 
d="M547 184h29v-184h-91c-92 0 -138 32 -173 124l-19 48l-60 -172h-233l178 433l-12 26c-11 23 -25 30 -64 30h-34v184h108c105 0 165 -35 209 -153l111 -298c12 -32 23 -38 51 -38z" />
    <glyph glyph-name="uni03BC" unicode="&#x3bc;" horiz-adv-x="628" 
d="M605 184h19v-184h-80c-50 0 -91 14 -120 39c-24 -29 -61 -47 -105 -47c-25 0 -47 6 -65 16v-171h-211v670h221v-276c0 -28 16 -45 42 -45s42 17 42 45v276h221v-285c0 -27 11 -38 36 -38z" />
    <glyph glyph-name="nu" unicode="&#x3bd;" horiz-adv-x="601" 
d="M362 507h224c0 -118 -21 -189 -85 -319l-92 -188h-239l-179 507h233l72 -281l24 50c32 65 42 120 42 231z" />
    <glyph glyph-name="xi" unicode="&#x3be;" horiz-adv-x="567" 
d="M254 218c0 -26 18 -34 104 -45l167 -22v-314h-212v143l-103 14c-128 18 -206 78 -206 194c0 67 35 127 98 162c-46 34 -69 79 -69 136c0 120 101 201 257 201c167 0 267 -92 267 -239h-199c-4 31 -23 46 -53 46c-32 0 -47 -18 -47 -37c0 -25 19 -37 62 -37h89v-167h-101
c-36 0 -54 -8 -54 -35z" />
    <glyph glyph-name="omicron" unicode="&#x3bf;" horiz-adv-x="614" 
d="M307 -14c-164 0 -288 115 -288 267c0 153 124 268 288 268s288 -115 288 -268c0 -152 -124 -267 -288 -267zM307 177c42 0 69 29 69 76s-27 77 -69 77s-69 -30 -69 -77s27 -76 69 -76z" />
    <glyph glyph-name="pi" unicode="&#x3c0;" horiz-adv-x="669" 
d="M74 0v323h-74v184h655v-184h-65v-97c0 -28 13 -42 38 -42h17v-184h-83c-129 0 -193 64 -193 191v132h-74v-323h-221z" />
    <glyph glyph-name="rho" unicode="&#x3c1;" horiz-adv-x="637" 
d="M323 520c172 0 292 -110 292 -268c0 -150 -107 -265 -246 -265c-42 0 -79 10 -109 30v-180h-221v378c0 190 107 305 284 305zM327 178c42 0 69 29 69 76c0 46 -26 75 -69 75s-69 -29 -69 -75c0 -47 27 -76 69 -76z" />
    <glyph glyph-name="uni03C2" unicode="&#x3c2;" horiz-adv-x="583" 
d="M238 252c0 -60 51 -76 139 -88l140 -19v-308h-212v142l-20 3c-192 33 -266 136 -266 263c0 157 114 276 276 276c149 0 258 -100 269 -250h-209c-5 39 -24 56 -55 56c-40 0 -62 -29 -62 -75z" />
    <glyph glyph-name="sigma" unicode="&#x3c3;" horiz-adv-x="665" 
d="M653 507v-184h-84c13 -29 21 -61 21 -95c0 -138 -124 -241 -283 -241c-164 0 -288 110 -288 270c0 153 114 250 293 250h341zM306 177c42 0 69 29 69 76s-27 77 -69 77s-69 -30 -69 -77s27 -76 69 -76z" />
    <glyph glyph-name="tau" unicode="&#x3c4;" horiz-adv-x="486" 
d="M468 323h-124v-93c0 -33 15 -46 55 -46h54v-184h-94c-160 0 -236 65 -236 204v119h-119v184h464v-184z" />
    <glyph glyph-name="upsilon" unicode="&#x3c5;" horiz-adv-x="641" 
d="M329 -13c-175 0 -290 110 -290 272v248h221v-251c0 -45 24 -70 64 -70c45 0 68 25 68 73c0 68 -10 170 -21 248h214c18 -77 32 -161 32 -229c0 -190 -103 -291 -288 -291z" />
    <glyph glyph-name="phi" unicode="&#x3c6;" horiz-adv-x="845" 
d="M312 -163v149c-186 3 -293 108 -293 268c0 165 115 263 293 267v152h221v-152c183 -4 293 -97 293 -268c0 -163 -101 -264 -293 -267v-149h-221zM323 164v179c-54 -2 -86 -31 -86 -89s32 -88 86 -90zM522 343v-179c54 2 86 32 86 90s-32 87 -86 89z" />
    <glyph glyph-name="chi" unicode="&#x3c7;" horiz-adv-x="604" 
d="M421 176l67 -113c19 -31 39 -42 77 -42h34v-184h-104c-82 0 -118 20 -160 89l-39 64l-86 -153h-218l191 331l-71 120c-15 26 -34 35 -72 35h-34v184h94c89 0 127 -20 170 -90l38 -63l86 153h215z" />
    <glyph glyph-name="psi" unicode="&#x3c8;" horiz-adv-x="875" 
d="M329 -163v151c-181 0 -290 100 -290 265v254h221v-235c0 -59 22 -86 69 -86v467h221v-467c50 0 75 21 75 63c0 59 -8 165 -19 258h214c19 -79 31 -162 31 -229c0 -180 -116 -291 -301 -290v-151h-221z" />
    <glyph glyph-name="omega" unicode="&#x3c9;" horiz-adv-x="836" 
d="M517 508h215c48 -45 80 -141 80 -238c0 -169 -92 -283 -230 -283c-74 0 -126 20 -164 74c-38 -54 -90 -74 -164 -74c-138 0 -230 114 -230 283c0 100 33 199 80 242h215c-41 -64 -69 -162 -69 -261c0 -42 12 -65 35 -65c22 0 33 14 33 43v193h200v-193
c0 -29 11 -43 33 -43c23 0 35 23 35 65c0 103 -27 196 -69 257z" />
    <glyph glyph-name="iotatonos" unicode="&#x3af;" horiz-adv-x="323" 
d="M319 0h-93c-125 0 -183 60 -183 191v316h221v-285c0 -27 11 -38 37 -38h18v-184zM63 560l40 192h240l-98 -192h-182z" />
    <glyph glyph-name="iotadieresis" unicode="&#x3ca;" horiz-adv-x="323" 
d="M319 0h-93c-125 0 -183 60 -183 191v316h221v-285c0 -27 11 -38 37 -38h18v-184zM27 540c-61 0 -112 50 -112 108c0 62 49 109 112 109c66 0 113 -45 113 -109c0 -61 -50 -108 -113 -108zM280 540c-61 0 -112 49 -112 108c0 62 49 109 112 109c66 0 113 -45 113 -109
c0 -61 -50 -108 -113 -108z" />
    <glyph glyph-name="iotadieresistonos" unicode="&#x390;" horiz-adv-x="323" 
d="M319 0h-93c-125 0 -183 60 -183 191v316h221v-285c0 -27 11 -38 37 -38h18v-184zM-58 546c-60 0 -111 49 -111 105c0 60 49 106 111 106c64 0 111 -44 111 -106c0 -58 -50 -105 -111 -105zM422 546c-60 0 -111 48 -111 105c0 59 49 106 111 106c64 0 111 -44 111 -106
c0 -58 -49 -105 -111 -105zM63 560l40 192h220l-98 -192h-162z" />
    <glyph glyph-name="upsilontonos" unicode="&#x3cd;" horiz-adv-x="641" 
d="M329 -13c-175 0 -290 110 -290 272v248h221v-251c0 -45 24 -70 64 -70c45 0 68 25 68 73c0 68 -10 170 -21 248h214c18 -77 32 -161 32 -229c0 -190 -103 -291 -288 -291zM221 560l40 192h240l-98 -192h-182z" />
    <glyph glyph-name="upsilondieresis" unicode="&#x3cb;" horiz-adv-x="641" 
d="M329 -13c-175 0 -290 110 -290 272v248h221v-251c0 -45 24 -70 64 -70c45 0 68 25 68 73c0 68 -10 170 -21 248h214c18 -77 32 -161 32 -229c0 -190 -103 -291 -288 -291zM185 540c-61 0 -112 50 -112 108c0 62 49 109 112 109c66 0 113 -45 113 -109
c0 -61 -50 -108 -113 -108zM438 540c-61 0 -112 49 -112 108c0 62 49 109 112 109c66 0 113 -45 113 -109c0 -61 -50 -108 -113 -108z" />
    <glyph glyph-name="upsilondieresistonos" unicode="&#x3b0;" horiz-adv-x="641" 
d="M329 -13c-175 0 -290 110 -290 272v248h221v-251c0 -45 24 -70 64 -70c45 0 68 25 68 73c0 68 -10 170 -21 248h214c18 -77 32 -161 32 -229c0 -190 -103 -291 -288 -291zM100 546c-60 0 -111 49 -111 105c0 60 49 106 111 106c64 0 111 -44 111 -106
c0 -58 -50 -105 -111 -105zM580 546c-60 0 -111 48 -111 105c0 59 49 106 111 106c64 0 111 -44 111 -106c0 -58 -49 -105 -111 -105zM221 560l40 192h220l-98 -192h-162z" />
    <glyph glyph-name="omicrontonos" unicode="&#x3cc;" horiz-adv-x="614" 
d="M212 560l40 192h240l-98 -192h-182zM307 -14c-164 0 -288 115 -288 267c0 153 124 268 288 268s288 -115 288 -268c0 -152 -124 -267 -288 -267zM307 177c42 0 69 29 69 76s-27 77 -69 77s-69 -30 -69 -77s27 -76 69 -76z" />
    <glyph glyph-name="omegatonos" unicode="&#x3ce;" horiz-adv-x="836" 
d="M517 508h215c48 -45 80 -141 80 -238c0 -169 -92 -283 -230 -283c-74 0 -126 20 -164 74c-38 -54 -90 -74 -164 -74c-138 0 -230 114 -230 283c0 100 33 199 80 242h215c-41 -64 -69 -162 -69 -261c0 -42 12 -65 35 -65c22 0 33 14 33 43v193h200v-193
c0 -29 11 -43 33 -43c23 0 35 23 35 65c0 103 -27 196 -69 257zM327 560l40 192h240l-98 -192h-182z" />
    <glyph glyph-name="alphatonos" unicode="&#x3ac;" horiz-adv-x="646" 
d="M623 184h19v-184h-97c-57 0 -97 14 -123 45c-35 -36 -86 -59 -148 -59c-157 0 -252 100 -252 266c0 163 93 269 236 269c55 0 99 -21 128 -61v47h201v-283c0 -29 10 -40 36 -40zM308 178c41 0 67 30 67 76s-26 75 -67 75s-67 -29 -67 -75s26 -76 67 -76zM235 560l40 192
h240l-98 -192h-182z" />
    <glyph glyph-name="epsilontonos" unicode="&#x3ad;" horiz-adv-x="517" 
d="M85 265c-34 22 -56 57 -56 101c0 93 97 154 224 154c149 0 242 -78 242 -191h-185c0 19 -16 32 -45 32c-25 0 -38 -9 -38 -27c0 -15 8 -27 33 -27h66v-107h-73c-26 0 -34 -11 -34 -25s8 -26 41 -26c40 0 55 16 55 34h190c0 -125 -91 -197 -258 -197
c-150 0 -243 58 -243 162c0 59 30 98 81 117zM177 560l40 192h240l-98 -192h-182z" />
    <glyph glyph-name="etatonos" unicode="&#x3ae;" horiz-adv-x="624" 
d="M384 520c122 0 201 -83 201 -211v-472h-221v438c0 28 -16 46 -42 46s-42 -18 -42 -46v-275h-221v285c0 27 -11 38 -37 38h-18v184h102c57 0 96 -15 121 -49c37 41 90 62 157 62zM221 560l40 192h240l-98 -192h-182z" />
    <glyph glyph-name="zero" unicode="0" horiz-adv-x="775" 
d="M388 -14c-215 0 -366 145 -366 351s151 350 366 350c214 0 365 -145 365 -350c0 -206 -151 -351 -365 -351zM388 189c81 0 139 62 139 148c0 85 -59 147 -139 147c-81 0 -140 -62 -140 -147c0 -86 59 -148 140 -148z" />
    <glyph glyph-name="one" unicode="1" horiz-adv-x="442" 
d="M201 673h177v-673h-220v460l-104 -32l-50 185z" />
    <glyph glyph-name="two" unicode="2" horiz-adv-x="574" 
d="M308 188h238v-188h-519v77c0 97 60 181 184 263c94 62 108 72 108 100c0 27 -13 41 -37 41c-27 0 -38 -17 -38 -61h-218c0 169 99 267 269 267c156 0 249 -83 249 -223c0 -109 -57 -160 -174 -236z" />
    <glyph glyph-name="three" unicode="3" horiz-adv-x="575" 
d="M443 341c65 -31 103 -85 103 -155c0 -118 -107 -200 -262 -200c-161 0 -256 89 -264 250h207c0 -34 19 -54 49 -54c28 0 48 18 48 44c0 25 -17 40 -47 40h-65v149h61c32 0 51 15 51 41c0 25 -19 42 -48 42c-31 0 -52 -21 -53 -55h-203c8 152 110 244 269 244
c148 0 247 -80 247 -198c0 -68 -33 -119 -93 -148z" />
    <glyph glyph-name="four" unicode="4" horiz-adv-x="617" 
d="M603 276v-180h-67v-96h-220v96h-294v168l274 409h240v-397h67zM340 445l-107 -169h107v169z" />
    <glyph glyph-name="five" unicode="5" horiz-adv-x="600" 
d="M359 447c128 0 217 -92 217 -224c0 -144 -106 -237 -271 -237c-160 0 -255 87 -261 239h211c4 -27 22 -44 48 -44c30 0 52 24 52 56s-23 56 -52 56c-18 0 -34 -9 -43 -25h-201v405h483v-188h-275v-56c27 12 58 18 92 18z" />
    <glyph glyph-name="six" unicode="6" horiz-adv-x="565" 
d="M499 673l-125 -195c103 -25 177 -118 177 -231c0 -145 -119 -261 -270 -261c-150 0 -267 117 -267 267c0 61 18 108 79 200l147 220h259zM282 186c33 0 58 25 58 59s-25 59 -58 59s-57 -25 -57 -59s24 -59 57 -59z" />
    <glyph glyph-name="seven" unicode="7" horiz-adv-x="556" 
d="M26 673h498v-183l-235 -490h-239l242 475h-266v198z" />
    <glyph glyph-name="eight" unicode="8" horiz-adv-x="606" 
d="M487 351c60 -33 90 -87 90 -160c0 -126 -102 -205 -274 -205s-274 79 -274 205c0 73 30 127 90 160c-51 32 -79 81 -79 142c0 117 101 194 263 194s263 -77 263 -194c0 -61 -28 -110 -79 -142zM303 526c-29 0 -51 -22 -51 -50c0 -31 21 -52 51 -52s51 21 51 52
c0 28 -22 50 -51 50zM303 147c32 0 55 22 55 54c0 33 -23 56 -55 56s-55 -23 -55 -56c0 -32 23 -54 55 -54z" />
    <glyph glyph-name="nine" unicode="9" horiz-adv-x="565" 
d="M66 0l125 195c-103 25 -177 118 -177 231c0 145 119 261 270 261c150 0 267 -117 267 -267c0 -61 -18 -108 -79 -200l-147 -220h-259zM283 487c-33 0 -58 -25 -58 -59s25 -59 58 -59s57 25 57 59s-24 59 -57 59z" />
    <glyph glyph-name="zero.tf" horiz-adv-x="580" 
d="M290 -14c-160 0 -267 101 -267 251v199c0 150 107 251 267 251s267 -101 267 -251v-199c0 -150 -107 -251 -267 -251zM290 183c32 0 46 19 46 60v187c0 41 -14 60 -46 60s-46 -19 -46 -60v-187c0 -41 14 -60 46 -60z" />
    <glyph glyph-name="one.tf" horiz-adv-x="580" 
d="M445 203h101v-203h-455v203h134v257l-134 -42l-50 185l227 70h177v-470z" />
    <glyph glyph-name="two.tf" horiz-adv-x="580" 
d="M307 188h238v-188h-519v77c0 97 60 181 184 263c94 62 108 72 108 100c0 27 -13 41 -37 41c-27 0 -38 -17 -38 -61h-218c0 169 99 267 269 267c156 0 249 -83 249 -223c0 -109 -57 -160 -174 -236z" />
    <glyph glyph-name="three.tf" horiz-adv-x="580" 
d="M451 341c65 -31 103 -85 103 -155c0 -118 -107 -200 -262 -200c-161 0 -256 89 -264 250h207c0 -34 19 -54 49 -54c28 0 48 18 48 44c0 25 -17 40 -47 40h-65v149h61c32 0 51 15 51 41c0 25 -19 42 -48 42c-31 0 -52 -21 -53 -55h-203c8 152 110 244 269 244
c148 0 247 -80 247 -198c0 -68 -33 -119 -93 -148z" />
    <glyph glyph-name="four.tf" horiz-adv-x="580" 
d="M572 276v-180h-67v-96h-220v96h-280v168l260 409h240v-397h67zM309 447l-105 -171h105v171z" />
    <glyph glyph-name="five.tf" horiz-adv-x="580" 
d="M344 447c128 0 217 -92 217 -224c0 -144 -106 -237 -271 -237c-160 0 -255 87 -261 239h211c4 -27 22 -44 48 -44c30 0 52 24 52 56s-23 56 -52 56c-18 0 -34 -9 -43 -25h-201v405h483v-188h-275v-56c27 12 58 18 92 18z" />
    <glyph glyph-name="six.tf" horiz-adv-x="580" 
d="M505 673l-125 -195c103 -25 177 -118 177 -231c0 -145 -119 -261 -270 -261c-150 0 -267 117 -267 267c0 61 18 108 79 200l147 220h259zM288 186c33 0 58 25 58 59s-25 59 -58 59s-57 -25 -57 -59s24 -59 57 -59z" />
    <glyph glyph-name="seven.tf" horiz-adv-x="580" 
d="M33 673h508v-183l-235 -490h-239l242 475h-276v198z" />
    <glyph glyph-name="eight.tf" horiz-adv-x="580" 
d="M474 351c60 -33 90 -87 90 -160c0 -126 -102 -205 -274 -205s-274 79 -274 205c0 73 30 127 90 160c-51 32 -79 81 -79 142c0 117 101 194 263 194s263 -77 263 -194c0 -61 -28 -110 -79 -142zM290 526c-29 0 -51 -22 -51 -50c0 -31 21 -52 51 -52s51 21 51 52
c0 28 -22 50 -51 50zM290 147c32 0 55 22 55 54c0 33 -23 56 -55 56s-55 -23 -55 -56c0 -32 23 -54 55 -54z" />
    <glyph glyph-name="nine.tf" horiz-adv-x="580" 
d="M75 0l125 195c-103 25 -177 118 -177 231c0 145 119 261 270 261c150 0 267 -117 267 -267c0 -61 -18 -108 -79 -200l-147 -220h-259zM292 487c-33 0 -58 -25 -58 -59s25 -59 58 -59s57 25 57 59s-24 59 -57 59z" />
    <glyph glyph-name="zero.zero" horiz-adv-x="775" 
d="M388 687c214 0 365 -145 365 -350c0 -206 -151 -351 -365 -351c-215 0 -366 145 -366 351s151 350 366 350zM388 499c-89 0 -154 -68 -154 -162c0 -24 4 -46 12 -65l211 211c-20 10 -44 16 -69 16zM388 174c89 0 153 68 153 163c0 23 -4 45 -11 65l-212 -212
c21 -10 44 -16 70 -16z" />
    <glyph glyph-name="fraction" unicode="&#x2044;" horiz-adv-x="276" 
d="M-138 0l389 673h171l-391 -673h-169z" />
    <glyph glyph-name="onehalf" unicode="&#xbd;" horiz-adv-x="803" 
d="M99 0l389 673h171l-391 -673h-169zM130 673h117v-359h-141v241l-69 -20l-27 103zM660 104h123v-104h-313v41c0 55 29 94 99 132c66 35 76 43 76 59c0 14 -7 23 -20 23c-15 0 -23 -12 -23 -34h-132c0 88 63 145 160 145c91 0 152 -48 152 -120c0 -54 -28 -90 -99 -129z
" />
    <glyph glyph-name="uni2153" unicode="&#x2153;" horiz-adv-x="816" 
d="M99 0l389 673h171l-391 -673h-169zM130 673h117v-359h-141v241l-69 -20l-27 103zM741 181c36 -15 55 -42 55 -78c0 -65 -61 -110 -149 -110c-99 0 -153 46 -157 133h124c0 -18 11 -29 27 -29s27 10 27 23c0 15 -9 22 -26 22h-35v78h33c18 0 28 9 28 23
c0 13 -11 22 -27 22s-28 -12 -29 -29h-122c4 83 62 130 159 130c85 0 142 -44 142 -110c0 -35 -17 -60 -50 -75z" />
    <glyph glyph-name="uni2154" unicode="&#x2154;" horiz-adv-x="918" 
d="M199 0l389 673h171l-391 -673h-169zM208 418h123v-104h-313v41c0 55 29 94 99 132c66 35 76 43 76 59c0 14 -7 23 -20 23c-15 0 -23 -12 -23 -34h-132c0 88 63 145 160 145c91 0 152 -48 152 -120c0 -54 -28 -90 -99 -129zM843 181c36 -15 55 -42 55 -78
c0 -65 -61 -110 -149 -110c-99 0 -153 46 -157 133h124c0 -18 11 -29 27 -29s27 10 27 23c0 15 -9 22 -26 22h-35v78h33c18 0 28 9 28 23c0 13 -11 22 -27 22s-28 -12 -29 -29h-122c4 83 62 130 159 130c85 0 142 -44 142 -110c0 -35 -17 -60 -50 -75z" />
    <glyph glyph-name="onequarter" unicode="&#xbc;" horiz-adv-x="772" 
d="M99 0l389 673h171l-391 -673h-169zM130 673h117v-359h-141v241l-69 -20l-27 103zM761 155v-104h-39v-51h-131v51h-171v99l159 209h143v-204h39zM607 234l-56 -79h56v79z" />
    <glyph glyph-name="threequarters" unicode="&#xbe;" horiz-adv-x="829" 
d="M155 0l389 673h171l-391 -673h-169zM265 495c36 -15 55 -42 55 -78c0 -65 -61 -110 -149 -110c-99 0 -153 46 -157 133h124c0 -18 11 -29 27 -29s27 10 27 23c0 15 -9 22 -26 22h-35v78h33c18 0 28 9 28 23c0 13 -11 22 -27 22s-28 -12 -29 -29h-122c4 83 62 130 159 130
c85 0 142 -44 142 -110c0 -35 -17 -60 -50 -75zM818 155v-104h-39v-51h-131v51h-171v99l159 209h143v-204h39zM664 234l-56 -79h56v79z" />
    <glyph glyph-name="uni00B9" unicode="&#xb9;" horiz-adv-x="299" 
d="M130 773h117v-359h-141v241l-69 -20l-27 103z" />
    <glyph glyph-name="uni00B2" unicode="&#xb2;" horiz-adv-x="351" 
d="M208 518h123v-104h-313v41c0 55 29 94 99 132c66 35 76 43 76 59c0 14 -7 23 -20 23c-15 0 -23 -12 -23 -34h-132c0 88 63 145 160 145c91 0 152 -48 152 -120c0 -54 -28 -90 -99 -129z" />
    <glyph glyph-name="uni00B3" unicode="&#xb3;" horiz-adv-x="340" 
d="M265 595c36 -15 55 -42 55 -78c0 -65 -61 -110 -149 -110c-99 0 -153 46 -157 133h124c0 -18 11 -29 27 -29s27 10 27 23c0 15 -9 22 -26 22h-35v78h33c18 0 28 9 28 23c0 13 -11 22 -27 22s-28 -12 -29 -29h-122c4 83 62 130 159 130c85 0 142 -44 142 -110
c0 -35 -17 -60 -50 -75z" />
    <glyph glyph-name="uni2074" unicode="&#x2074;" horiz-adv-x="366" 
d="M356 569v-104h-39v-51h-131v51h-171v99l159 209h143v-204h39zM202 648l-56 -79h56v79z" />
    <glyph glyph-name="asterisk" unicode="*" horiz-adv-x="458" 
d="M425 559l-89 -46l89 -47l-58 -100l-84 53l5 -100h-117l4 100l-84 -53l-58 100l89 47l-89 46l58 101l84 -54l-4 100h117l-5 -99l84 53z" />
    <glyph glyph-name="backslash" unicode="\" horiz-adv-x="559" 
d="M537 -30h-214l-301 733h214z" />
    <glyph glyph-name="periodcentered" unicode="&#xb7;" horiz-adv-x="312" 
d="M156 206c-72 0 -125 51 -125 121s53 122 125 122s125 -52 125 -122s-53 -121 -125 -121z" />
    <glyph glyph-name="bullet" unicode="&#x2022;" horiz-adv-x="491" 
d="M246 134c-117 0 -209 89 -209 201c0 113 92 202 209 202s208 -88 208 -202c0 -113 -91 -201 -208 -201z" />
    <glyph glyph-name="colon" unicode=":" horiz-adv-x="332" 
d="M166 271c-72 0 -125 51 -125 121s53 122 125 122s125 -52 125 -122s-53 -121 -125 -121zM166 -14c-72 0 -125 51 -125 121s53 122 125 122s125 -52 125 -122s-53 -121 -125 -121z" />
    <glyph glyph-name="comma" unicode="," horiz-adv-x="312" 
d="M49 -153v338h225l-65 -338h-160z" />
    <glyph glyph-name="ellipsis" unicode="&#x2026;" horiz-adv-x="969" 
d="M485 -14c-72 0 -125 51 -125 121s53 122 125 122s125 -52 125 -122s-53 -121 -125 -121zM181 -14c-72 0 -125 51 -125 121s53 122 125 122s125 -52 125 -122s-53 -121 -125 -121zM788 -14c-72 0 -125 51 -125 121s53 122 125 122s125 -52 125 -122s-53 -121 -125 -121z
" />
    <glyph glyph-name="exclam" unicode="!" horiz-adv-x="382" 
d="M103 253l-43 420h262l-41 -420h-178zM191 -14c-69 0 -119 48 -119 114c0 67 50 115 119 115s119 -48 119 -115c0 -66 -50 -114 -119 -114z" />
    <glyph glyph-name="exclamdown" unicode="&#xa1;" horiz-adv-x="376" 
d="M90 257h178l41 -420h-262zM178 524c69 0 119 -48 119 -114c0 -67 -50 -115 -119 -115s-119 48 -119 115c0 66 50 114 119 114z" />
    <glyph glyph-name="numbersign" unicode="#" horiz-adv-x="687" 
d="M676 370h-103l-11 -80h94v-165h-115l-17 -125h-182l16 125h-82l-17 -125h-182l17 125h-83v165h105l10 80h-95v165h118l18 138h181l-18 -138h84l18 138h181l-18 -138h81v-165zM287 283h103l13 94h-104z" />
    <glyph glyph-name="period" unicode="." horiz-adv-x="312" 
d="M156 -14c-72 0 -125 51 -125 121s53 122 125 122s125 -52 125 -122s-53 -121 -125 -121z" />
    <glyph glyph-name="question" unicode="?" horiz-adv-x="438" 
d="M42 673h165c128 0 211 -71 211 -181c0 -72 -43 -129 -147 -188v-51h-184v129c104 60 111 65 111 81c0 15 -11 24 -30 24h-126v186zM180 215c69 0 119 -48 119 -115c0 -66 -50 -114 -119 -114s-119 48 -119 114c0 67 50 115 119 115z" />
    <glyph glyph-name="questiondown" unicode="&#xbf;" horiz-adv-x="423" 
d="M396 -163h-165c-128 0 -211 71 -211 181c0 72 43 129 147 188v51h184v-129c-104 -60 -111 -65 -111 -81c0 -15 11 -24 30 -24h126v-186zM258 295c-69 0 -119 48 -119 115c0 66 50 114 119 114s119 -48 119 -114c0 -67 -50 -115 -119 -115z" />
    <glyph glyph-name="quotedbl" unicode="&#x22;" horiz-adv-x="529" 
d="M61 353l-28 320h198v-320h-170zM298 353v320h198l-28 -320h-170z" />
    <glyph glyph-name="quotesingle" unicode="'" horiz-adv-x="287" 
d="M61 353l-28 320h221l-28 -320h-165z" />
    <glyph glyph-name="semicolon" unicode=";" horiz-adv-x="332" 
d="M166 271c-72 0 -125 51 -125 121s53 122 125 122s125 -52 125 -122s-53 -121 -125 -121zM59 -153v338h225l-65 -338h-160z" />
    <glyph glyph-name="slash" unicode="/" horiz-adv-x="559" 
d="M22 -30l301 733h214l-301 -733h-214z" />
    <glyph glyph-name="underscore" unicode="_" horiz-adv-x="494" 
d="M20 -219v170h454v-170h-454z" />
    <glyph glyph-name="exclamdown.case" horiz-adv-x="382" 
d="M103 421h178l41 -420h-262zM191 688c69 0 119 -48 119 -114c0 -67 -50 -115 -119 -115s-119 48 -119 115c0 66 50 114 119 114z" />
    <glyph glyph-name="questiondown.case" horiz-adv-x="438" 
d="M396 0h-165c-128 0 -211 71 -211 181c0 72 43 129 147 188v51h184v-129c-104 -60 -111 -65 -111 -81c0 -15 11 -24 30 -24h126v-186zM258 458c-69 0 -119 48 -119 115c0 66 50 114 119 114s119 -48 119 -114c0 -67 -50 -115 -119 -115z" />
    <glyph glyph-name="braceleft" unicode="{" horiz-adv-x="420" 
d="M380 600h-65c-25 0 -39 -16 -39 -45c0 -24 13 -88 13 -130c0 -50 -25 -78 -83 -90c59 -11 83 -38 83 -87c0 -42 -13 -107 -13 -131c0 -29 14 -44 39 -44h65v-163h-107c-117 0 -177 52 -177 153c0 53 17 105 17 140c0 34 -15 49 -47 49h-46v168h46c32 0 47 15 47 50
s-17 86 -17 139c0 101 60 153 177 153h107v-162z" />
    <glyph glyph-name="braceright" unicode="}" horiz-adv-x="420" 
d="M105 600h-65v162h107c117 0 177 -52 177 -153c0 -53 -17 -104 -17 -139s15 -50 47 -50h46v-168h-46c-32 0 -47 -15 -47 -49c0 -35 17 -87 17 -140c0 -101 -60 -153 -177 -153h-107v163h65c25 0 39 15 39 44c0 24 -13 89 -13 131c0 49 24 76 83 87c-58 12 -83 40 -83 90
c0 42 13 106 13 130c0 29 -14 45 -39 45z" />
    <glyph glyph-name="bracketleft" unicode="[" horiz-adv-x="398" 
d="M72 -90v852h286v-156h-106v-539h106v-157h-286z" />
    <glyph glyph-name="bracketright" unicode="]" horiz-adv-x="398" 
d="M326 -90h-286v157h106v539h-106v156h286v-852z" />
    <glyph glyph-name="parenleft" unicode="(" horiz-adv-x="402" 
d="M422 -90h-200c-106 113 -157 256 -157 426c0 169 51 312 157 426h200c-118 -126 -174 -263 -174 -426s56 -300 174 -426z" />
    <glyph glyph-name="parenright" unicode=")" horiz-adv-x="402" 
d="M180 -90h-200c118 126 174 263 174 426s-56 300 -174 426h200c106 -114 157 -257 157 -426c0 -170 -51 -313 -157 -426z" />
    <glyph glyph-name="emdash" unicode="&#x2014;" horiz-adv-x="1000" 
d="M50 229v183h900v-183h-900z" />
    <glyph glyph-name="endash" unicode="&#x2013;" horiz-adv-x="500" 
d="M23 229v183h454v-183h-454z" />
    <glyph glyph-name="hyphen" unicode="-" horiz-adv-x="334" 
d="M30 229v183h274v-183h-274z" />
    <glyph glyph-name="uni00AD" unicode="&#xad;" horiz-adv-x="334" 
d="M30 229v183h274v-183h-274z" />
    <glyph glyph-name="emdash.down" horiz-adv-x="1000" 
d="M50 189v183h900v-183h-900z" />
    <glyph glyph-name="endash.down" horiz-adv-x="500" 
d="M23 189v183h454v-183h-454z" />
    <glyph glyph-name="hyphen.down" horiz-adv-x="334" 
d="M30 189v183h274v-183h-274z" />
    <glyph glyph-name="guillemotleft" unicode="&#xab;" horiz-adv-x="663" 
d="M343 80h-212l-99 240l99 237h212l-93 -237zM638 80h-212l-99 240l99 237h212l-93 -237z" />
    <glyph glyph-name="guillemotright" unicode="&#xbb;" horiz-adv-x="663" 
d="M25 80l93 240l-93 237h212l99 -237l-99 -240h-212zM320 80l93 240l-93 237h212l99 -237l-99 -240h-212z" />
    <glyph glyph-name="guilsinglleft" unicode="&#x2039;" horiz-adv-x="368" 
d="M343 80h-212l-99 240l99 237h212l-93 -237z" />
    <glyph glyph-name="guilsinglright" unicode="&#x203a;" horiz-adv-x="368" 
d="M25 80l93 240l-93 237h212l99 -237l-99 -240h-212z" />
    <glyph glyph-name="quotedblbase" unicode="&#x201e;" horiz-adv-x="563" 
d="M43 -137v320h221l-47 -320h-174zM284 -137l47 320h210l-70 -320h-187z" />
    <glyph glyph-name="quotedblleft" unicode="&#x201c;" horiz-adv-x="563" 
d="M520 673v-320h-221l47 320h174zM279 673l-47 -320h-210l70 320h187z" />
    <glyph glyph-name="quotedblright" unicode="&#x201d;" horiz-adv-x="563" 
d="M43 353v320h221l-47 -320h-174zM284 353l47 320h210l-70 -320h-187z" />
    <glyph glyph-name="quoteleft" unicode="&#x2018;" horiz-adv-x="306" 
d="M22 353l70 320h171v-320h-241z" />
    <glyph glyph-name="quoteright" unicode="&#x2019;" horiz-adv-x="306" 
d="M43 352v320h241l-70 -320h-171z" />
    <glyph glyph-name="quotesinglbase" unicode="&#x201a;" horiz-adv-x="306" 
d="M43 -137v320h241l-70 -320h-171z" />
    <glyph glyph-name="uni00A0" unicode="&#xa0;" horiz-adv-x="270" 
 />
    <glyph glyph-name="cent" unicode="&#xa2;" horiz-adv-x="598" 
d="M211 -102v171c-113 35 -190 133 -190 254s77 219 190 254v170h183v-169c101 -31 171 -115 183 -227h-209c-9 30 -30 46 -61 46c-41 0 -67 -28 -67 -74c0 -45 26 -73 67 -73c31 0 52 17 61 47h209c-12 -112 -82 -196 -183 -228v-171h-183z" />
    <glyph glyph-name="currency" unicode="&#xa4;" horiz-adv-x="664" 
d="M663 117l-131 -130l-109 115c-30 -10 -62 -16 -96 -16s-65 5 -95 15l-101 -114l-130 131l89 99c-18 33 -28 72 -28 113c0 38 10 74 27 106l-88 93l130 131l99 -103c30 11 62 17 95 17c37 0 71 -6 103 -18l104 104l130 -131l-96 -94c16 -32 25 -67 25 -105
c0 -39 -10 -76 -27 -109zM329 270c35 0 56 23 56 60c0 36 -22 59 -58 59s-56 -21 -56 -59c0 -39 21 -60 58 -60z" />
    <glyph glyph-name="dollar" unicode="$" horiz-adv-x="543" 
d="M522 210c0 -97 -61 -164 -165 -186v-126h-183v131c-95 27 -151 96 -154 196h199c4 -40 20 -56 54 -56c26 0 41 10 41 28s-14 29 -60 47l-46 18c-119 48 -172 107 -172 191s51 146 138 171v123h183v-120c89 -24 141 -89 149 -188h-194c-4 29 -19 45 -42 45
c-18 0 -30 -10 -30 -26c0 -15 8 -21 52 -40l53 -22c131 -54 177 -102 177 -186z" />
    <glyph glyph-name="Euro" unicode="&#x20ac;" horiz-adv-x="810" 
d="M426 173c77 0 133 45 151 122h211c-10 -182 -158 -309 -359 -309c-174 0 -305 91 -352 231h-77v103h58v26h-60v103h77c45 145 179 238 355 238c201 0 348 -127 358 -309h-211c-16 77 -71 122 -149 122c-50 0 -90 -18 -116 -51h188l-29 -103h-194v-10c0 -5 0 -11 1 -16
h185l-29 -103h-117c26 -28 63 -44 109 -44z" />
    <glyph glyph-name="florin" unicode="&#x192;" horiz-adv-x="481" 
d="M476 475h-57c-37 0 -57 -16 -61 -51l-2 -16h74v-175h-95l-16 -140c-18 -153 -95 -226 -241 -226h-93v197h45c43 0 65 16 71 52l14 117h-66v175h87l4 38c18 154 95 227 242 227h94v-198z" />
    <glyph glyph-name="uni20B4" unicode="&#x20b4;" horiz-adv-x="608" 
d="M588 356h-89c-12 -9 -27 -17 -43 -26h131v-100h-315c-4 -9 -6 -20 -6 -33c0 -26 22 -48 48 -48c36 0 56 19 60 55h212c-4 -134 -110 -219 -275 -219c-162 0 -265 82 -265 212c0 12 1 23 2 33h-28v100h114c14 8 30 17 49 26h-163v100h334c4 8 5 17 5 27
c0 23 -18 41 -41 41c-27 0 -43 -15 -47 -42h-207c11 130 104 205 252 205c152 0 253 -80 253 -200c0 -11 -1 -21 -2 -31h21v-100z" />
    <glyph glyph-name="uni20BA" unicode="&#x20ba;" horiz-adv-x="605" 
d="M394 312h186v-51c0 -166 -113 -261 -309 -261h-184v236l-67 -26v138l67 26v34l-67 -26v138l67 26v127h220v-52l140 55v-138l-140 -55v-34l140 54v-138l-140 -54v-118c57 5 87 36 87 89v30z" />
    <glyph glyph-name="uni20BD" unicode="&#x20bd;" horiz-adv-x="644" 
d="M103 0l1 70h-73v160h73l-1 41h-73v159h73v243h298c143 0 233 -78 233 -202c0 -123 -91 -200 -233 -200h-78l1 -41h235v-160h-235l-1 -70h-220zM322 427h48c27 0 42 15 42 42c0 26 -15 41 -42 41h-48v-83z" />
    <glyph glyph-name="sterling" unicode="&#xa3;" horiz-adv-x="623" 
d="M347 237v-1c0 -27 -9 -49 -26 -66h269v-170h-568v149c95 18 131 39 131 77v11h-121v160h62c-8 24 -13 50 -13 80c0 128 101 210 258 210c170 0 259 -82 259 -238h-188c-2 34 -21 53 -53 53c-37 0 -58 -23 -58 -65c0 -14 2 -27 6 -40h184v-160h-142z" />
    <glyph glyph-name="uni20B8" unicode="&#x20b8;" horiz-adv-x="621" 
d="M20 475v198h581v-198h-581zM201 0v256h-181v178h581v-178h-180v-256h-220z" />
    <glyph glyph-name="uni20AE" unicode="&#x20ae;" horiz-adv-x="621" 
d="M601 475h-180v-62l130 27v-138l-130 -27v-36l130 27v-138l-130 -27v-101h-220v68l-131 -27v138l131 27v36l-131 -28v138l131 28v95h-181v198h581v-198z" />
    <glyph glyph-name="yen" unicode="&#xa5;" horiz-adv-x="649" 
d="M660 673l-173 -300h107v-135h-156v-36h156v-135h-156v-67h-226v67h-156v135h156v36h-156v135h106l-173 300h260l76 -169l76 169h259z" />
    <glyph glyph-name="uni2126" unicode="&#x2126;" horiz-adv-x="814" 
d="M782 369c0 -73 -27 -139 -79 -191h69v-178h-338v178c72 32 112 90 112 160c0 84 -56 142 -139 142c-84 0 -141 -58 -141 -143c0 -72 40 -129 113 -159v-178h-337v178h63c-47 53 -73 121 -73 193c0 182 159 316 374 316c216 0 376 -135 376 -318z" />
    <glyph glyph-name="approxequal" unicode="&#x2248;" horiz-adv-x="580" 
d="M402 332c-42 0 -61 6 -129 39c-55 26 -73 32 -101 32c-32 0 -60 -9 -134 -43v177c61 38 93 50 139 50c41 0 61 -6 129 -39c54 -26 73 -32 101 -32c32 0 60 9 134 43v-177c-62 -38 -94 -50 -139 -50zM402 74c-42 0 -61 6 -129 39c-55 26 -73 32 -101 32
c-32 0 -60 -9 -134 -43v177c61 38 93 50 139 50c41 0 61 -6 129 -39c54 -26 73 -32 101 -32c32 0 60 9 134 43v-177c-62 -38 -94 -50 -139 -50z" />
    <glyph glyph-name="asciitilde" unicode="~" horiz-adv-x="580" 
d="M406 191c-43 0 -63 6 -133 39c-56 26 -75 32 -104 32c-33 0 -62 -9 -138 -43v177c63 38 96 50 143 50c43 0 63 -6 133 -39c56 -26 75 -32 104 -32c33 0 62 9 138 43v-177c-63 -38 -96 -50 -143 -50z" />
    <glyph glyph-name="uni2219" unicode="&#x2219;" horiz-adv-x="302" 
d="M151 206c-72 0 -125 51 -125 121s53 122 125 122s125 -52 125 -122s-53 -121 -125 -121z" />
    <glyph glyph-name="divide" unicode="&#xf7;" horiz-adv-x="580" 
d="M290 443c-66 0 -120 50 -120 113c0 64 54 112 120 112s121 -48 121 -112c0 -63 -55 -113 -121 -113zM31 245v183h518v-183h-518zM290 5c-66 0 -120 49 -120 112c0 64 54 113 120 113s121 -49 121 -113c0 -63 -55 -112 -121 -112z" />
    <glyph glyph-name="equal" unicode="=" horiz-adv-x="580" 
d="M39 361v173h502v-173h-502zM39 124v174h502v-174h-502z" />
    <glyph glyph-name="greater" unicode="&#x3e;" horiz-adv-x="580" 
d="M35 646l510 -231v-157l-510 -231v201l255 109l-255 108v201z" />
    <glyph glyph-name="greaterequal" unicode="&#x2265;" horiz-adv-x="580" 
d="M45 687l490 -181v-140l-490 -181v189l197 62l-197 62v189zM45 0v175h490v-175h-490z" />
    <glyph glyph-name="uni2206" unicode="&#x2206;" horiz-adv-x="694" 
d="M467 673l182 -490v-183h-604v183l182 490h240zM429 183l-82 275l-80 -275h162z" />
    <glyph glyph-name="infinity" unicode="&#x221e;" horiz-adv-x="1011" 
d="M739 589c156 0 250 -97 250 -258s-93 -257 -249 -257c-109 0 -178 58 -234 125c-55 -67 -125 -125 -234 -125c-156 0 -250 96 -250 257s94 258 250 258c107 0 178 -56 234 -122c56 66 126 122 233 122zM299 269c40 0 72 27 104 66c-31 36 -64 62 -106 62
c-41 0 -64 -23 -64 -62c0 -42 24 -66 66 -66zM714 269c42 0 65 24 65 65c0 40 -23 63 -64 63c-42 0 -75 -26 -106 -63c32 -38 65 -65 105 -65z" />
    <glyph glyph-name="integral" unicode="&#x222b;" horiz-adv-x="392" 
d="M-10 -121v194h52c51 0 74 19 74 62c0 74 -65 320 -65 436c0 135 86 209 243 209h108v-194h-52c-51 0 -73 -18 -74 -61c0 -77 65 -322 65 -438c0 -134 -87 -208 -243 -208h-108z" />
    <glyph glyph-name="less" unicode="&#x3c;" horiz-adv-x="580" 
d="M545 646v-201l-255 -108l255 -109v-201l-510 231v157z" />
    <glyph glyph-name="lessequal" unicode="&#x2264;" horiz-adv-x="580" 
d="M535 687v-189l-197 -62l197 -62v-189l-490 181v140zM535 0h-490v175h490v-175z" />
    <glyph glyph-name="logicalnot" unicode="&#xac;" horiz-adv-x="580" 
d="M311 105v136h-286v180h488v-316h-202z" />
    <glyph glyph-name="uni00B5" unicode="&#xb5;" horiz-adv-x="628" 
d="M605 184h19v-184h-80c-50 0 -91 14 -120 39c-24 -29 -61 -47 -105 -47c-25 0 -47 6 -65 16v-171h-211v670h221v-276c0 -28 16 -45 42 -45s42 17 42 45v276h221v-285c0 -27 11 -38 36 -38z" />
    <glyph glyph-name="minus" unicode="&#x2212;" horiz-adv-x="580" 
d="M31 237v184h518v-184h-518z" />
    <glyph glyph-name="multiply" unicode="&#xd7;" horiz-adv-x="580" 
d="M156 74l-127 128l133 133l-133 133l127 127l135 -133l133 133l127 -127l-134 -133l134 -134l-127 -127l-135 133z" />
    <glyph glyph-name="notequal" unicode="&#x2260;" horiz-adv-x="580" 
d="M39 361v173h247l46 100h166l-45 -100h88v-173h-167l-28 -63h195v-174h-274l-38 -85h-167l38 85h-61v174h140l29 63h-169z" />
    <glyph glyph-name="partialdiff" unicode="&#x2202;" horiz-adv-x="655" 
d="M337 687c184 0 283 -115 283 -327c0 -231 -125 -374 -325 -374c-160 0 -258 81 -258 213c0 139 87 217 242 217c37 0 81 -7 119 -19c-5 76 -27 108 -70 108c-37 0 -55 -15 -59 -51h-196c2 148 99 233 264 233zM304 174c38 0 64 21 79 64c-28 9 -54 14 -76 14
c-29 0 -47 -15 -47 -38c0 -26 15 -40 44 -40z" />
    <glyph glyph-name="percent" unicode="%" horiz-adv-x="912" 
d="M215 320c-113 0 -195 77 -195 184s81 183 195 183c113 0 195 -77 195 -183s-83 -184 -195 -184zM161 0l411 673h181l-413 -673h-179zM217 465c24 0 39 16 39 42c0 24 -16 41 -39 41c-25 0 -41 -15 -41 -41c0 -27 15 -42 41 -42zM697 -13c-113 0 -195 77 -195 184
s81 183 195 183c113 0 195 -77 195 -183s-83 -184 -195 -184zM699 132c24 0 39 16 39 42c0 24 -16 41 -39 41c-25 0 -41 -15 -41 -41c0 -27 15 -42 41 -42z" />
    <glyph glyph-name="perthousand" unicode="&#x2030;" horiz-adv-x="1315" 
d="M1100 -13c-113 0 -195 77 -195 184s81 183 195 183c113 0 195 -77 195 -183s-83 -184 -195 -184zM1102 132c24 0 39 16 39 42c0 24 -16 41 -39 41c-25 0 -41 -15 -41 -41c0 -27 15 -42 41 -42zM215 320c-113 0 -195 77 -195 184s81 183 195 183c113 0 195 -77 195 -183
s-83 -184 -195 -184zM161 0l411 673h181l-413 -673h-179zM217 465c24 0 39 16 39 42c0 24 -16 41 -39 41c-25 0 -41 -15 -41 -41c0 -27 15 -42 41 -42zM697 -13c-113 0 -195 77 -195 184s81 183 195 183c113 0 195 -77 195 -183s-83 -184 -195 -184zM699 132
c24 0 39 16 39 42c0 24 -16 41 -39 41c-25 0 -41 -15 -41 -41c0 -27 15 -42 41 -42z" />
    <glyph glyph-name="plus" unicode="+" horiz-adv-x="580" 
d="M194 70v173h-168v170h168v172h193v-172h167v-170h-167v-173h-193z" />
    <glyph glyph-name="plusminus" unicode="&#xb1;" horiz-adv-x="580" 
d="M194 198v153h-168v170h168v152h193v-152h167v-170h-167v-153h-193zM37 0v165h508v-165h-508z" />
    <glyph glyph-name="product" unicode="&#x220f;" horiz-adv-x="707" 
d="M57 -130v803h593v-803h-225v600h-143v-600h-225z" />
    <glyph glyph-name="radical" unicode="&#x221a;" horiz-adv-x="733" 
d="M557 750h186l-366 -883h-216v273h-161v171h306v-201z" />
    <glyph glyph-name="summation" unicode="&#x2211;" horiz-adv-x="541" 
d="M298 68h218v-198h-491v144l163 262l-163 253v144h479v-198h-203l96 -136v-124z" />
    <glyph glyph-name="lozenge" unicode="&#x25ca;" horiz-adv-x="555" 
d="M322 673l227 -337l-227 -336h-89l-227 336l227 337h89zM284 217l71 119l-76 116l-76 -116z" />
    <glyph glyph-name="uniF8FF" unicode="&#xf8ff;" horiz-adv-x="1212" 
d="M684 -77l11 3l-12 -2c56 13 97 40 123 65c1 0 2 1 3 2v1c5 5 34 37 34 43c-16 -11 -23 -30 -38 -42c7 8 7 8 7 10h-2v1c-2 -1 -3 -2 -4 -2c-59 -51 -109 -77 -190 -77c-36 0 -52 5 -102 27c10 -3 28 -11 42 -14c5 -1 8 -2 11 -1c-16 5 -30 11 -42 16c17 -3 36 -4 45 -2
c-33 1 -66 11 -89 34c8 -5 14 -9 22 -10c-14 9 -29 21 -41 33c30 -25 67 -35 105 -35c33 0 67 8 98 20c-34 -2 -62 3 -113 18l23 -14c0 -3 -35 7 -49 15l-8 5c-1 0 -1 1 -1 1c4 2 22 7 29 8c0 0 1 -1 2 -1h15c13 0 17 5 24 9l3 1c1 0 2 0 2 -1c7 -6 23 -17 46 -17
c14 2 17 8 15 12c0 2 2 5 3 5c5 0 12 5 12 9c30 7 56 22 71 46c-6 -4 -9 -6 -13 -6c-2 0 -3 0 -3 2s5 7 21 17c35 21 37 46 52 82c-11 2 -20 2 -28 2c-43 1 -97 -21 -123 -26c0 -2 -5 -3 -7 -3c-1 0 -2 0 -3 -1h-10v1c0 1 1 6 7 7l28 10h3c0 1 1 2 2 2l4 1c1 0 3 1 4 2l3 2
l7 2h2c4 1 7 3 11 5c1 0 3 1 5 1c1 1 20 2 20 2h1c3 0 5 0 8 1c1 1 2 1 3 0h1c1 1 1 1 2 1c1 1 2 1 3 1c0 -1 1 -1 1 -1c1 1 1 1 2 1h7c1 0 2 0 3 2h5c3 0 5 1 8 2c5 2 10 4 14 7c1 0 5 2 2 3c-3 0 -6 1 -10 1c-3 0 -6 1 -9 0c-3 0 -5 0 -7 -1c-2 0 -3 -1 -5 -1h-3
c-7 1 -10 5 -18 10c0 0 -6 3 -7 3l-4 -1c-1 0 -2 0 -3 -1l-11 -3l-14 -2h-2c-4 0 -6 2 -10 2c-2 0 -11 -5 -14 -5s-5 -2 -8 -2s-15 -4 -17 -4c-1 1 -2 1 -2 2c3 8 58 28 67 27c4 -1 -13 -7 -11 -9h2c4 0 16 4 26 5c7 0 13 0 18 -1h6c7 0 11 1 14 7c0 1 -2 1 -3 1
c-2 1 -3 0 -4 0c-1 -1 -1 -1 -3 -1l-5 -1c-4 0 -6 0 -8 1c-1 1 -10 2 -18 2c0 0 -1 0 -1 1s0 1 20 1l13 3l10 1c1 1 8 1 9 0c5 -1 14 0 14 2c0 1 -2 2 -8 4c-1 1 -7 1 -21 1c-1 0 -1 -1 -2 -1h-2c-13 0 -30 -2 -26 -3c-1 0 -1 0 -1 1c0 2 18 6 21 5c-1 1 -8 2 -13 2
c-51 0 -103 -12 -148 -35l-1 -1l-6 6c-21 24 -25 28 -39 42c-21 21 -52 41 -66 43c49 46 118 75 181 75c51 0 95 -12 133 -36c-26 15 -63 24 -99 24c-24 0 -46 -3 -61 -9c15 3 30 4 50 4c58 0 111 -18 145 -49c-24 14 -29 16 -55 23c80 -26 116 -107 116 -181
c0 -58 -14 -105 -53 -153c-34 -40 -69 -68 -136 -84l4 2c-10 -2 -10 -2 -12 -2zM103 -9l-19 3c1 10 4 19 8 24c4 0 7 1 10 4s6 7 8 11c14 6 19 10 23 17l12 23l1 1l16 1l14 5c0 1 2 3 4 5c3 5 3 6 2 8l-7 20l-2 29c0 1 -1 2 -2 2c-16 -4 -23 -4 -33 -3c-25 3 -43 20 -43 46
c0 35 44 54 46 64c0 2 -2 4 -4 5c-13 3 -16 0 -23 3c-13 4 -23 16 -25 30c0 7 1 11 4 15l26 -13c21 -5 33 -9 39 -15c3 -5 5 -11 5 -17c0 -26 -50 -41 -50 -71c0 -19 11 -30 31 -30c13 0 22 4 43 16c30 22 36 27 44 29c11 4 23 2 34 6c8 1 11 3 30 20c10 9 21 12 35 13
c21 2 46 29 77 38l31 17c9 3 14 4 19 4c6 0 11 -1 15 -3c34 -12 89 -68 114 -108c3 -6 5 -13 6 -20c3 -27 9 -52 19 -76l10 -11l33 -36c1 0 1 0 1 -1l-2 -2c-11 -2 -23 4 -35 18c-7 15 -13 21 -22 24c0 0 -1 0 -1 -1c1 -3 5 -6 6 -9c8 -15 9 -17 10 -21c1 -6 7 -12 18 -18
l10 -5c1 -1 2 -3 1 -4l-2 -1c-18 0 -31 5 -43 17c-2 4 -6 6 -10 6c-9 -9 -16 -13 -24 -14c-3 1 -3 1 -13 1c-19 0 -31 -10 -43 -10c-6 0 -10 2 -11 6v20l5 7c0 2 0 2 -2 2c-4 2 -6 3 -7 3c0 4 3 7 15 19c2 8 5 14 10 20l-2 2c-10 -3 -17 -4 -24 -3c-6 -4 -16 -6 -23 -4
c-1 1 -1 1 -1 4c8 12 11 27 9 41c-1 2 -1 2 -3 2c-1 0 -1 0 -3 -2c-3 -18 -6 -28 -11 -36c-3 -3 8 1 -20 -7c-2 -1 -4 -3 -4 -5l5 -12l16 -28c0 -6 0 -7 -5 -24c1 -1 2 -1 3 0c5 4 8 9 12 19c0 7 0 7 -2 10l-16 31l5 3l11 -3c3 -10 7 -19 14 -28c2 -3 2 -3 2 -10
c0 -5 0 -6 -2 -8c-4 -7 -7 -13 -12 -20c-4 -4 -10 -4 -16 -4h-5c-14 -8 -29 -13 -45 -17c-2 -1 -5 -1 -7 -1c-5 0 -10 1 -13 4c-5 4 -8 11 -11 16c-2 3 -5 3 -8 3c-2 0 -5 0 -8 1l-12 21c0 1 1 3 2 5c5 1 11 2 17 2h4c4 0 8 -1 11 -4c7 -10 10 -21 21 -26h3c7 0 15 2 21 5
c4 3 9 6 9 12c-1 11 -8 19 -16 25c-11 5 -20 12 -27 20c-3 5 -4 10 -6 15c-1 1 -4 2 -5 1c-3 -3 0 -5 0 -9c1 -2 0 -5 -1 -8c-2 -2 -5 -2 -8 -2c-17 0 -31 1 -48 0c-7 0 -16 -2 -23 -2c-6 0 -11 1 -15 4c-2 1 -3 3 -4 4c-2 4 -2 9 -2 13c0 9 2 19 4 28c0 1 -3 2 -4 2
c-1 1 -4 0 -5 -1c-3 -14 -4 -28 -7 -41c-5 -11 -13 -20 -25 -26c-11 -6 -22 -8 -35 -9c-23 0 -45 -5 -58 -25c-1 -2 -3 -6 -3 -9c1 0 2 -1 3 0c15 16 35 24 59 23c33 0 43 4 58 23l9 13c1 1 1 1 6 -4l-7 -16c-5 -11 -8 -15 -13 -18c-5 -1 -3 0 -20 -10c-5 -2 -9 -3 -15 -3
c-5 0 -6 0 -8 1c-14 2 -12 2 -17 2c-6 0 -11 -1 -16 -3c-5 -3 -9 -8 -14 -11c-26 -12 -16 -8 -20 -8c-15 3 -14 3 -17 0l-15 -19c-4 -2 -6 -2 -9 -2zM662 428v245h83c52 0 78 -21 78 -63c0 -17 -8 -36 -21 -50c30 -14 42 -31 42 -62c0 -39 -33 -70 -74 -70h-108zM497 426
c-41 0 -73 35 -73 80c0 44 32 80 73 80c17 0 36 -8 48 -20v121h50v-260h-49v20c-14 -14 -31 -21 -49 -21zM64 428v245h94c41 0 73 -32 73 -73c0 -33 -24 -63 -56 -70l72 -102h-61l-52 80v59h12c19 0 34 14 34 32c0 17 -14 31 -33 31h-31v-202h-52zM321 422
c-44 0 -81 37 -81 82s37 82 81 82c48 0 79 -33 79 -82v-10h-109c0 -1 1 -1 1 -2c0 -17 15 -31 33 -31c13 0 26 8 31 19l39 -19c-14 -24 -42 -39 -74 -39zM941 105v200h-86v40h215v-40h-87v-200h-42zM1029 105v181h41v-120l54 81c13 20 20 43 20 59c0 17 -7 30 -21 39
c27 0 54 -25 57 -54c1 -19 -7 -43 -22 -65l-76 -114c-4 -5 -8 -7 -13 -7h-40zM939 420c-47 0 -77 24 -77 63v95h48v-88c0 -18 11 -28 29 -28s27 10 27 28v88h49v-95c0 -38 -30 -63 -76 -63zM1124 427v258h50v-258h-50zM1042 427v258h49v-258h-49zM714 470h47
c19 1 30 13 31 32c0 18 -14 32 -31 32h-31v44h17c16 0 25 10 25 27c0 14 -11 26 -25 26h-33v-161zM511 465c20 0 35 18 35 40c0 21 -16 38 -35 38c-20 0 -37 -17 -37 -38c0 -22 16 -40 37 -40zM292 522h60c0 16 -14 29 -31 29c-16 0 -29 -13 -29 -29zM760 87c4 2 7 1 9 0
c9 10 17 13 24 24c6 10 8 13 15 40l-1 -1c0 -1 -3 -13 -10 -13c-2 0 -6 1 -6 3c-5 -16 -21 -25 -27 -38c1 -1 2 -2 2 -3c0 -3 -6 -8 -6 -12zM582 111c0 0 1 -1 2 0c2 0 2 1 3 3l1 1v2c1 2 1 5 1 7c0 7 -3 14 -10 21l-3 3l-2 4c-1 2 -3 4 -6 6s-6 1 -8 -3l-1 -3v-1l-2 -4
l-2 -4l-3 -3c0 -2 -1 -4 -1 -6c0 -1 0 -2 1 -3v-1s3 0 3 1l2 3l3 2c1 2 3 3 5 4c2 0 4 -1 6 -4c0 0 3 -3 4 -3l2 -4c2 -1 3 -4 3 -7l1 -7v-2c0 -1 0 -1 1 -2zM396 34c-4 4 -4 11 -8 16c-1 4 -7 4 -6 7l2 2c7 0 13 0 20 1c7 0 5 -8 8 -13c1 -3 4 -5 2 -8c-5 -3 -11 -6 -18 -5
zM74 -7l-14 4c-1 1 0 3 0 4c5 5 4 11 5 18c1 3 4 6 7 8c4 -1 7 -5 9 -8v-2c-3 -7 -4 -16 -7 -24zM480 198c1 -1 2 0 3 0v1c1 4 2 9 2 14c0 6 -1 12 -3 17c-2 3 -5 7 -9 9c-2 1 -4 1 -6 -1c-2 -3 0 -6 1 -8l2 -2v-1l2 -4c4 -8 5 -16 8 -25zM86 28c-1 1 -3 3 -3 5s-1 5 1 7
c5 3 10 6 14 11c2 0 4 1 5 0c2 -2 4 -4 5 -7c-4 -6 -8 -13 -14 -16c-3 -1 -5 -1 -8 0zM680 193c0 0 -3 1 -2 4c4 3 8 4 12 6c7 3 14 4 26 5l-2 -1c-27 -13 -28 -15 -34 -14zM547 60h7c3 0 6 0 9 1c3 2 3 6 3 9v3c0 2 -1 2 -2 3h-2l-16 -13c0 -1 1 -2 1 -3z" />
    <glyph glyph-name="bar" unicode="|" horiz-adv-x="350" 
d="M85 -121v901h180v-901h-180z" />
    <glyph glyph-name="brokenbar" unicode="&#xa6;" horiz-adv-x="350" 
d="M85 460v320h180v-320h-180zM85 -121v320h180v-320h-180z" />
    <glyph glyph-name="at" unicode="@" horiz-adv-x="975" 
d="M514 688c256 0 439 -158 439 -379c0 -174 -114 -281 -298 -281h-102v38c-21 -33 -55 -49 -101 -49c-109 0 -183 86 -183 211s74 209 183 209c46 0 80 -16 101 -48v39h152v-243c58 6 94 53 94 128c0 134 -114 225 -283 225c-196 0 -326 -124 -326 -311
c0 -184 125 -302 317 -302h116v-148h-112c-303 0 -489 183 -489 442c0 275 209 469 492 469zM489 167c34 0 55 23 55 60s-21 60 -55 60s-54 -23 -54 -60s21 -60 54 -60z" />
    <glyph glyph-name="ampersand" unicode="&#x26;" horiz-adv-x="697" 
d="M574 159l-9 -14l131 -145h-227l-25 28c-50 -27 -107 -42 -173 -42c-151 0 -250 77 -250 196c0 70 35 130 119 181c-38 45 -58 89 -58 142c0 107 88 182 215 182c124 0 214 -74 214 -176c0 -65 -29 -113 -111 -171l-6 -5l43 -48l43 77h216zM294 540c-20 0 -35 -12 -35 -34
c0 -14 8 -30 25 -49l8 -9h1c23 18 33 40 33 57c0 22 -12 35 -32 35zM220 196c0 -33 24 -56 61 -56c19 0 38 6 56 17l-85 94c-24 -18 -32 -36 -32 -55z" />
    <glyph glyph-name="paragraph" unicode="&#xb6;" horiz-adv-x="675" 
d="M336 203h-55c-155 0 -264 97 -264 236s107 234 264 234h55v-470zM259 -163v199h62c56 0 77 14 77 49v588h221v-613c0 -146 -86 -223 -248 -223h-112z" />
    <glyph glyph-name="copyright" unicode="&#xa9;" horiz-adv-x="770" 
d="M391 -14c-204 0 -369 156 -369 349s168 352 371 352c202 0 370 -160 370 -351c0 -193 -167 -350 -372 -350zM389 107c139 0 241 96 241 227c0 133 -103 232 -241 232c-134 0 -234 -99 -234 -232c0 -132 98 -227 234 -227zM395 163c-104 0 -183 74 -183 173
c0 98 79 173 183 173c97 0 169 -64 177 -158h-135c-5 21 -19 33 -39 33c-27 0 -44 -18 -44 -48c0 -29 17 -47 44 -47c20 0 34 11 39 33h135c-8 -94 -81 -159 -177 -159z" />
    <glyph glyph-name="registered" unicode="&#xae;" horiz-adv-x="487" 
d="M244 687c129 0 226 -97 226 -226s-97 -226 -226 -226c-128 0 -227 99 -227 226s99 226 227 226zM245 305c89 0 149 63 149 156s-60 156 -149 156s-152 -64 -152 -156s63 -156 152 -156zM349 490c0 -28 -13 -50 -37 -62l39 -75h-82l-27 62h-12v-62h-80v215h104
c56 0 95 -32 95 -78zM230 505v-39h18c10 0 18 8 18 19c0 12 -8 20 -18 20h-18z" />
    <glyph glyph-name="section" unicode="&#xa7;" horiz-adv-x="618" 
d="M608 245c0 -70 -33 -118 -103 -151c9 -20 13 -42 13 -66c0 -107 -83 -171 -222 -171h-158v157h157c14 0 22 6 22 17c0 9 -7 16 -23 23l-134 61c-111 50 -150 94 -150 170c0 70 33 118 103 151c-9 20 -13 42 -13 66c0 107 83 171 222 171h158v-157h-157
c-14 0 -22 -6 -22 -17c0 -9 7 -16 23 -23l134 -61c111 -50 150 -94 150 -170zM237 264l153 -68c8 -3 15 -7 23 -11c6 11 10 23 10 34c0 20 -13 35 -42 47l-153 68c-8 3 -15 7 -23 11c-6 -11 -10 -23 -10 -34c0 -20 13 -35 42 -47z" />
    <glyph glyph-name="trademark" unicode="&#x2122;" horiz-adv-x="660" 
d="M14 574v99h223v-99h-57v-165h-109v165h-57zM475 673h145v-264h-104v134l-45 -134h-64l-45 134v-134h-104v264h145l36 -115z" />
    <glyph glyph-name="degree" unicode="&#xb0;" horiz-adv-x="436" 
d="M218 292c-116 0 -203 84 -203 198c0 113 86 197 203 197c118 0 203 -83 203 -197s-86 -198 -203 -198zM218 442c27 0 45 18 45 47c0 30 -16 47 -45 47c-27 0 -45 -18 -45 -47c0 -27 19 -47 45 -47z" />
    <glyph glyph-name="estimated" unicode="&#x212e;" horiz-adv-x="858" 
d="M444 -14c-214 0 -384 155 -384 352c0 193 166 349 370 349c203 0 368 -156 368 -349v-14h-574c-9 0 -13 -3 -13 -12v-193c0 -9 1 -12 8 -17c65 -51 144 -78 227 -78c99 0 189 38 253 106h50c-73 -92 -183 -144 -305 -144zM224 361h412c7 0 12 5 12 12v185
c0 11 -1 13 -8 19c-59 48 -128 72 -210 72c-74 0 -147 -24 -211 -70c-7 -5 -8 -8 -8 -20v-186c0 -7 5 -12 13 -12z" />
    <glyph glyph-name="uni2113" unicode="&#x2113;" horiz-adv-x="528" 
d="M315 189c12 -5 25 -7 40 -7h102v-182h-135c-91 0 -158 27 -199 79c-31 -16 -65 -34 -102 -52v190l54 27v195c0 160 81 248 230 248c131 0 207 -76 207 -207c0 -117 -40 -190 -197 -291zM270 451v-96c49 37 61 66 61 106c0 27 -9 41 -29 41c-23 0 -32 -17 -32 -51z" />
    <glyph glyph-name="uni2116" unicode="&#x2116;" horiz-adv-x="1113" 
d="M891 292c-116 0 -203 84 -203 198c0 113 86 197 203 197c118 0 203 -83 203 -197s-86 -198 -203 -198zM437 364v309h214v-673h-231l-149 308v-308h-214v673h231zM891 536c-27 0 -45 -18 -45 -47c0 -27 19 -47 45 -47c27 0 45 18 45 47c0 30 -16 47 -45 47zM733 123v136
h319v-136h-319z" />
    <glyph glyph-name="asciicircum" unicode="^" horiz-adv-x="557" 
d="M541 265h-204l-58 143l-58 -143h-205l173 408h179z" />
    <glyph glyph-name="dagger" unicode="&#x2020;" horiz-adv-x="537" 
d="M163 117v230h-136v190h136v136h211v-136h136v-190h-136v-230h-211z" />
    <glyph glyph-name="daggerdbl" unicode="&#x2021;" horiz-adv-x="537" 
d="M163 0v113h-136v175h141v102h-141v175h136v108h211v-108h136v-175h-141v-102h141v-175h-136v-113h-211z" />
    <glyph glyph-name="minute" unicode="&#x2032;" horiz-adv-x="306" 
d="M10 323l54 350h242l-123 -350h-173z" />
    <glyph glyph-name="second" unicode="&#x2033;" horiz-adv-x="579" 
d="M10 323l54 350h232l-107 -350h-179zM257 323l107 350h215l-123 -350h-199z" />
    <glyph glyph-name="uni0308" unicode="&#x308;" 
d="M-128 540c-61 0 -112 50 -112 108c0 62 49 109 112 109c66 0 113 -45 113 -109c0 -61 -50 -108 -113 -108zM125 540c-61 0 -112 49 -112 108c0 62 49 109 112 109c66 0 113 -45 113 -109c0 -61 -50 -108 -113 -108z" />
    <glyph glyph-name="uni0307" unicode="&#x307;" 
d="M-1 540c-69 0 -121 51 -121 118c0 66 52 117 121 117s121 -51 121 -117c0 -67 -52 -118 -121 -118z" />
    <glyph glyph-name="gravecomb" unicode="&#x300;" 
d="M-92 560l-121 192h240l63 -192h-182z" />
    <glyph glyph-name="acutecomb" unicode="&#x301;" 
d="M-94 560l63 192h240l-121 -192h-182z" />
    <glyph glyph-name="uni030B" unicode="&#x30b;" 
d="M-184 560l64 192h182l-78 -192h-168zM36 560l77 192h194l-120 -192h-151z" />
    <glyph glyph-name="uni0302" unicode="&#x302;" 
d="M229 560h-175l-55 65l-55 -65h-175l142 192h176z" />
    <glyph glyph-name="uni030C" unicode="&#x30c;" 
d="M55 752h175l-142 -192h-176l-142 192h175l55 -65z" />
    <glyph glyph-name="uni0306" unicode="&#x306;" 
d="M-2 556c-132 0 -203 69 -203 196h149c0 -39 20 -62 55 -62c34 0 54 23 54 62h149c0 -127 -71 -196 -204 -196z" />
    <glyph glyph-name="uni030A" unicode="&#x30a;" 
d="M-2 531c-89 0 -150 59 -150 144s61 143 150 143c90 0 151 -58 151 -143s-62 -144 -151 -144zM0 639c20 0 35 16 35 36s-15 36 -35 36c-21 0 -36 -15 -36 -36s15 -36 36 -36z" />
    <glyph glyph-name="tildecomb" unicode="&#x303;" 
d="M71 560c-26 0 -51 6 -82 21c-35 15 -51 19 -67 19c-27 0 -51 -8 -106 -36v153c51 29 79 39 111 39c23 0 48 -6 84 -21c31 -14 49 -19 66 -19c25 0 49 7 107 35v-152c-54 -30 -80 -39 -113 -39z" />
    <glyph glyph-name="uni0304" unicode="&#x304;" 
d="M-172 571v151h343v-151h-343z" />
    <glyph glyph-name="uni0312" unicode="&#x312;" 
d="M-115 560l31 192h168v-192h-199z" />
    <glyph glyph-name="uni0326" unicode="&#x326;" 
d="M-107 -220v179h195l-27 -179h-168z" />
    <glyph glyph-name="uni0327" unicode="&#x327;" 
d="M-46 -195c-31 0 -51 1 -91 5v129h59c28 0 45 15 45 39c0 19 -3 32 -15 56l97 31c48 -32 76 -75 76 -117c0 -96 -56 -143 -171 -143z" />
    <glyph glyph-name="uni0328" unicode="&#x328;" 
d="M-96 -193c-95 0 -154 43 -154 111c0 65 67 125 168 151l81 -69l-21 -11c-19 -9 -26 -16 -26 -30s9 -22 24 -22h23v-122c-38 -5 -69 -8 -95 -8z" />
    <glyph glyph-name="uni0308.case" 
d="M-132 712c-62 0 -116 51 -116 110c0 62 51 111 116 111c68 0 117 -47 117 -111c0 -61 -52 -110 -117 -110zM129 712c-63 0 -116 51 -116 110c0 62 51 111 116 111c68 0 117 -47 117 -111c0 -61 -52 -110 -117 -110z" />
    <glyph glyph-name="uni0307.case" 
d="M-2 698c-72 0 -129 55 -129 124c0 70 57 125 129 125c73 0 131 -55 131 -125c0 -69 -58 -124 -131 -124z" />
    <glyph glyph-name="gravecomb.case" 
d="M-93 724l-121 196h246l58 -196h-183z" />
    <glyph glyph-name="acutecomb.case" 
d="M-89 724l59 196h254l-130 -196h-183z" />
    <glyph glyph-name="uni030B.case" 
d="M-179 724l58 196h182l-72 -196h-168zM45 724l71 196h204l-124 -196h-151z" />
    <glyph glyph-name="uni0302.case" 
d="M238 724h-173l-65 71l-65 -71h-172l150 196h176z" />
    <glyph glyph-name="uni030C.case" 
d="M64 920h172l-150 -196h-176l-149 196h173l65 -71z" />
    <glyph glyph-name="uni0306.case" 
d="M-2 717c-142 0 -230 76 -230 203h156c0 -39 30 -62 75 -62c44 0 74 23 74 62h156c0 -127 -88 -203 -231 -203z" />
    <glyph glyph-name="uni030A.case" 
d="M-3 673c-88 0 -150 59 -150 144c0 84 62 142 150 142c89 0 151 -58 151 -142c0 -85 -62 -144 -151 -144zM-1 780c21 0 35 14 35 37c0 22 -13 35 -35 35s-36 -14 -36 -35c0 -22 14 -37 36 -37z" />
    <glyph glyph-name="tildecomb.case" 
d="M90 709c-32 0 -61 6 -104 23c-39 15 -57 19 -79 19c-41 0 -72 -9 -116 -35v153c46 31 76 42 117 42c32 0 61 -6 104 -23c39 -15 57 -19 79 -19c41 0 72 9 116 35v-153c-46 -31 -76 -42 -117 -42z" />
    <glyph glyph-name="uni0304.case" 
d="M-183 737v161h363v-161h-363z" />
    <glyph glyph-name="uni0327.cr" 
d="M-93 12h188v-137h-188v137z" />
    <glyph glyph-name="uni0304.i" 
d="M-156 571v151h310v-151h-310z" />
    <glyph glyph-name="uni0328.long" 
d="M-138 -193c-95 0 -154 43 -154 111c0 60 31 90 194 185l97 -34l-67 -72c-19 -22 -22 -27 -22 -38c0 -14 9 -22 24 -22h23v-122c-42 -6 -69 -8 -95 -8z" />
    <glyph glyph-name="uni030C.slovak" 
d="M-83 480v193h218l-63 -193h-155z" />
    <glyph glyph-name="acute" unicode="&#xb4;" horiz-adv-x="363" 
d="M30 560l63 192h240l-121 -192h-182z" />
    <glyph glyph-name="breve" unicode="&#x2d8;" horiz-adv-x="467" 
d="M233 556c-132 0 -203 69 -203 196h149c0 -39 20 -62 55 -62c34 0 54 23 54 62h149c0 -127 -71 -196 -204 -196z" />
    <glyph glyph-name="caron" unicode="&#x2c7;" horiz-adv-x="520" 
d="M315 752h175l-142 -192h-176l-142 192h175l55 -65z" />
    <glyph glyph-name="cedilla" unicode="&#xb8;" horiz-adv-x="322" 
d="M121 -195c-31 0 -51 1 -91 5v129h59c28 0 45 15 45 39c0 19 -3 32 -15 56l97 31c48 -32 76 -75 76 -117c0 -96 -56 -143 -171 -143z" />
    <glyph glyph-name="circumflex" unicode="&#x2c6;" horiz-adv-x="520" 
d="M490 560h-175l-55 65l-55 -65h-175l142 192h176z" />
    <glyph glyph-name="dieresis" unicode="&#xa8;" horiz-adv-x="538" 
d="M142 540c-61 0 -112 50 -112 108c0 62 49 109 112 109c66 0 113 -45 113 -109c0 -61 -50 -108 -113 -108zM395 540c-61 0 -112 49 -112 108c0 62 49 109 112 109c66 0 113 -45 113 -109c0 -61 -50 -108 -113 -108z" />
    <glyph glyph-name="dotaccent" unicode="&#x2d9;" horiz-adv-x="302" 
d="M151 540c-69 0 -121 51 -121 118c0 66 52 117 121 117s121 -51 121 -117c0 -67 -52 -118 -121 -118z" />
    <glyph glyph-name="grave" unicode="`" horiz-adv-x="363" 
d="M151 560l-121 192h240l63 -192h-182z" />
    <glyph glyph-name="hungarumlaut" unicode="&#x2dd;" horiz-adv-x="551" 
d="M30 560l64 192h182l-78 -192h-168zM250 560l77 192h194l-120 -192h-151z" />
    <glyph glyph-name="macron" unicode="&#xaf;" horiz-adv-x="403" 
d="M30 571v151h343v-151h-343z" />
    <glyph glyph-name="ogonek" unicode="&#x2db;" horiz-adv-x="309" 
d="M184 -193c-95 0 -154 43 -154 111c0 65 67 125 168 151l81 -69l-21 -11c-19 -9 -26 -16 -26 -30s9 -22 24 -22h23v-122c-38 -5 -69 -8 -95 -8z" />
    <glyph glyph-name="ring" unicode="&#x2da;" horiz-adv-x="361" 
d="M180 531c-89 0 -150 59 -150 144s61 143 150 143c90 0 151 -58 151 -143s-62 -144 -151 -144zM182 639c20 0 35 16 35 36s-15 36 -35 36c-21 0 -36 -15 -36 -36s15 -36 36 -36z" />
    <glyph glyph-name="tilde" unicode="&#x2dc;" horiz-adv-x="428" 
d="M285 560c-26 0 -51 6 -82 21c-35 15 -51 19 -67 19c-27 0 -51 -8 -106 -36v153c51 29 79 39 111 39c23 0 48 -6 84 -21c31 -14 49 -19 66 -19c25 0 49 7 107 35v-152c-54 -30 -80 -39 -113 -39z" />
    <glyph glyph-name="tonos" unicode="&#x384;" horiz-adv-x="340" 
d="M30 560l40 192h240l-98 -192h-182z" />
    <glyph glyph-name="dieresistonos" unicode="&#x385;" horiz-adv-x="762" 
d="M141 546c-60 0 -111 49 -111 105c0 60 49 106 111 106c64 0 111 -44 111 -106c0 -58 -50 -105 -111 -105zM621 546c-60 0 -111 48 -111 105c0 59 49 106 111 106c64 0 111 -44 111 -106c0 -58 -49 -105 -111 -105zM262 560l40 192h220l-98 -192h-162z" />
    <glyph glyph-name="brevecombcy" 
d="M-2 556c-132 0 -203 69 -203 196h149c0 -39 20 -62 55 -62c34 0 54 23 54 62h149c0 -127 -71 -196 -204 -196z" />
    <glyph glyph-name="brevecombcy.case" 
d="M-2 717c-146 0 -234 76 -234 203h156c0 -39 30 -62 79 -62c48 0 78 23 78 62h156c0 -127 -88 -203 -235 -203z" />
    </font>
</defs>
</svg>
