<?xml version="1.0" standalone="no"?>
<!DOCTYPE svg PUBLIC "-//W3C//DTD SVG 1.1//EN" "http://www.w3.org/Graphics/SVG/1.1/DTD/svg11.dtd" >
<svg xmlns="http://www.w3.org/2000/svg" xmlns:xlink="http://www.w3.org/1999/xlink" version="1.1">
<metadata>
 By Katja
Exclusively designed for Red Bull TV. Copyright (C) 2015 by Red Bull Media House GmbH. All rights reserved.
</metadata>
<defs>
<font id="Font" horiz-adv-x="0" >
  <font-face 
    font-family="Font"
    font-weight="300"
    font-stretch="normal"
    units-per-em="1000"
    panose-1="2 11 3 4 4 0 0 0 0 0"
    ascent="800"
    descent="-200"
    x-height="483"
    cap-height="673"
    bbox="-176 -215 1202 941"
    underline-thickness="45"
    underline-position="-110"
    stemh="45"
    stemv="50"
    unicode-range="U+0020-FB02"
  />
<missing-glyph horiz-adv-x="712" 
d="M102 673h509v-673h-509v673zM568 40v594h-426z" />
    <glyph glyph-name="fi" unicode="fi" horiz-adv-x="506" 
d="M296 628h-55c-64 0 -96 -33 -96 -97v-48h128v-46h-128v-437h-50v437h-70v46h70v50c0 92 50 140 144 140h57v-45zM393 607c-24 0 -41 17 -41 40s17 40 41 40c23 0 40 -17 40 -40s-17 -40 -40 -40zM367 0v483h50v-483h-50z" />
    <glyph glyph-name="fl" unicode="fl" horiz-adv-x="506" 
d="M296 628h-55c-64 0 -96 -33 -96 -97v-48h128v-46h-128v-437h-50v437h-70v46h70v50c0 92 50 140 144 140h57v-45zM367 0v673h50v-673h-50z" />
    <glyph glyph-name=".notdef" horiz-adv-x="712" 
d="M102 673h509v-673h-509v673zM568 40v594h-426z" />
    <glyph glyph-name=".null" 
 />
    <glyph glyph-name="CR" horiz-adv-x="272" 
 />
    <glyph glyph-name="space" unicode=" " horiz-adv-x="272" 
 />
    <glyph glyph-name="A" unicode="A" horiz-adv-x="661" 
d="M564 0l-71 187h-323l-72 -187h-55l261 673h55l260 -673h-55zM332 614l-145 -381h289z" />
    <glyph glyph-name="Aacute" unicode="&#xc1;" horiz-adv-x="661" 
d="M564 0l-71 187h-323l-72 -187h-55l261 673h55l260 -673h-55zM332 614l-145 -381h289zM302 734l94 162h59l-101 -162h-52z" />
    <glyph glyph-name="Abreve" unicode="&#x102;" horiz-adv-x="661" 
d="M564 0l-71 187h-323l-72 -187h-55l261 673h55l260 -673h-55zM332 614l-145 -381h289zM331 737c-99 0 -158 68 -158 150h46c0 -60 38 -108 112 -108s111 48 111 108h46c0 -82 -59 -150 -157 -150z" />
    <glyph glyph-name="Acircumflex" unicode="&#xc2;" horiz-adv-x="661" 
d="M564 0l-71 187h-323l-72 -187h-55l261 673h55l260 -673h-55zM332 614l-145 -381h289zM463 734h-52l-80 117l-81 -117h-52l110 162h45z" />
    <glyph glyph-name="Adieresis" unicode="&#xc4;" horiz-adv-x="661" 
d="M564 0l-71 187h-323l-72 -187h-55l261 673h55l260 -673h-55zM332 614l-145 -381h289zM421 762c-24 0 -43 19 -43 42c0 24 18 43 43 43s43 -19 43 -43c0 -23 -18 -42 -43 -42zM239 762c-25 0 -43 19 -43 42c0 24 18 42 43 42s43 -18 43 -42c0 -23 -18 -42 -43 -42z" />
    <glyph glyph-name="Agrave" unicode="&#xc0;" horiz-adv-x="661" 
d="M564 0l-71 187h-323l-72 -187h-55l261 673h55l260 -673h-55zM332 614l-145 -381h289zM307 734l-100 162h60l93 -162h-53z" />
    <glyph glyph-name="Amacron" unicode="&#x100;" horiz-adv-x="661" 
d="M564 0l-71 187h-323l-72 -187h-55l261 673h55l260 -673h-55zM332 614l-145 -381h289zM198 775v43h264v-43h-264z" />
    <glyph glyph-name="Aogonek" unicode="&#x104;" horiz-adv-x="661" 
d="M563 -188c-68 0 -105 27 -105 74c0 39 22 73 103 121l-68 180h-323l-72 -187h-55l261 673h55l260 -673h-1l-54 -36c-44 -30 -57 -48 -57 -71c0 -28 19 -40 63 -40h48v-40c-20 0 -44 -1 -55 -1zM332 614l-145 -381h289z" />
    <glyph glyph-name="Aring" unicode="&#xc5;" horiz-adv-x="661" 
d="M564 0l-71 187h-323l-72 -187h-55l261 673h55l260 -673h-55zM332 614l-145 -381h289zM331 737c-58 0 -103 44 -103 102c0 57 45 102 103 102s104 -45 104 -102c0 -58 -46 -102 -104 -102zM332 776c34 0 61 28 61 63s-27 62 -61 62c-36 0 -62 -27 -62 -62
c0 -36 26 -63 62 -63z" />
    <glyph glyph-name="Atilde" unicode="&#xc3;" horiz-adv-x="661" 
d="M564 0l-71 187h-323l-72 -187h-55l261 673h55l260 -673h-55zM332 614l-145 -381h289zM397 746c-21 0 -39 5 -70 22c-33 18 -46 22 -61 22c-21 0 -43 -10 -73 -33v48c26 22 48 32 73 33c20 0 37 -6 70 -23c35 -17 46 -21 60 -21c21 0 43 10 73 33v-48
c-26 -23 -48 -33 -72 -33z" />
    <glyph glyph-name="AE" unicode="&#xc6;" horiz-adv-x="821" 
d="M534 47h244v-47h-286l-33 186h-289l-95 -186h-55l343 673h403v-47h-333l43 -247h281v-48h-272zM385 617l-192 -385h258z" />
    <glyph glyph-name="B" unicode="B" horiz-adv-x="606" 
d="M432 362c79 -25 123 -85 123 -173c0 -116 -84 -189 -219 -189h-234v673h231c118 0 191 -61 191 -162c0 -71 -33 -123 -92 -149zM154 47h178c106 0 169 54 169 145c0 89 -65 143 -171 143h-176v-288zM330 627h-176v-245h174c90 0 142 46 142 124s-49 121 -140 121z" />
    <glyph glyph-name="C" unicode="C" horiz-adv-x="784" 
d="M401 -10c-194 0 -344 150 -344 347c0 195 149 346 344 346c165 0 293 -101 326 -258h-56c-32 128 -137 209 -269 209c-164 0 -291 -128 -291 -296c0 -170 127 -299 291 -299c132 0 236 81 269 210h56c-34 -158 -161 -259 -326 -259z" />
    <glyph glyph-name="Cacute" unicode="&#x106;" horiz-adv-x="784" 
d="M401 -10c-194 0 -344 150 -344 347c0 195 149 346 344 346c165 0 293 -101 326 -258h-56c-32 128 -137 209 -269 209c-164 0 -291 -128 -291 -296c0 -170 127 -299 291 -299c132 0 236 81 269 210h56c-34 -158 -161 -259 -326 -259zM373 734l94 162h59l-101 -162h-52z
" />
    <glyph glyph-name="Ccaron" unicode="&#x10c;" horiz-adv-x="784" 
d="M401 -10c-194 0 -344 150 -344 347c0 195 149 346 344 346c165 0 293 -101 326 -258h-56c-32 128 -137 209 -269 209c-164 0 -291 -128 -291 -296c0 -170 127 -299 291 -299c132 0 236 81 269 210h56c-34 -158 -161 -259 -326 -259zM483 896h52l-110 -162h-45l-110 162
h52l81 -117z" />
    <glyph glyph-name="Ccedilla" unicode="&#xc7;" horiz-adv-x="784" 
d="M401 -10c-194 0 -344 150 -344 347c0 195 149 346 344 346c165 0 293 -101 326 -258h-56c-32 128 -137 209 -269 209c-164 0 -291 -128 -291 -296c0 -170 127 -299 291 -299c132 0 236 81 269 210h56c-31 -143 -138 -239 -280 -256c22 -21 34 -47 34 -76
c0 -64 -48 -107 -119 -107c-34 0 -48 0 -67 1v39h61c49 0 78 27 78 72c0 25 -10 46 -32 68h-1z" />
    <glyph glyph-name="D" unicode="D" horiz-adv-x="713" 
d="M102 0v673h188c222 0 367 -132 367 -335c0 -204 -146 -338 -367 -338h-188zM154 47h136c187 0 312 117 312 291s-124 288 -312 288h-136v-579z" />
    <glyph glyph-name="Eth" unicode="&#xd0;" horiz-adv-x="736" 
d="M124 673h188c223 0 367 -132 367 -335c0 -204 -146 -338 -367 -338h-188v332h-100v47h100v294zM176 47h136c187 0 312 117 312 291s-124 288 -312 288h-136v-247h149v-47h-149v-285z" />
    <glyph glyph-name="Dcaron" unicode="&#x10e;" horiz-adv-x="713" 
d="M102 0v673h188c222 0 367 -132 367 -335c0 -204 -146 -338 -367 -338h-188zM154 47h136c187 0 312 117 312 291s-124 288 -312 288h-136v-579zM374 896h52l-110 -162h-45l-110 162h52l81 -117z" />
    <glyph glyph-name="Dcroat" unicode="&#x110;" horiz-adv-x="736" 
d="M124 673h188c223 0 367 -132 367 -335c0 -204 -146 -338 -367 -338h-188v332h-100v47h100v294zM176 47h136c187 0 312 117 312 291s-124 288 -312 288h-136v-247h149v-47h-149v-285z" />
    <glyph glyph-name="E" unicode="E" horiz-adv-x="536" 
d="M102 0v673h381v-47h-329v-248h319v-47h-319v-284h340v-47h-392z" />
    <glyph glyph-name="Eacute" unicode="&#xc9;" horiz-adv-x="536" 
d="M102 0v673h381v-47h-329v-248h319v-47h-319v-284h340v-47h-392zM278 734l94 162h59l-101 -162h-52z" />
    <glyph glyph-name="Ecaron" unicode="&#x11a;" horiz-adv-x="536" 
d="M102 0v673h381v-47h-329v-248h319v-47h-319v-284h340v-47h-392zM388 896h52l-110 -162h-45l-110 162h52l81 -117z" />
    <glyph glyph-name="Ecircumflex" unicode="&#xca;" horiz-adv-x="536" 
d="M102 0v673h381v-47h-329v-248h319v-47h-319v-284h340v-47h-392zM439 734h-52l-80 117l-81 -117h-52l110 162h45z" />
    <glyph glyph-name="Edieresis" unicode="&#xcb;" horiz-adv-x="536" 
d="M102 0v673h381v-47h-329v-248h319v-47h-319v-284h340v-47h-392zM397 762c-24 0 -43 19 -43 42c0 24 18 43 43 43s43 -19 43 -43c0 -23 -18 -42 -43 -42zM215 762c-25 0 -43 19 -43 42c0 24 18 42 43 42s43 -18 43 -42c0 -23 -18 -42 -43 -42z" />
    <glyph glyph-name="Edotaccent" unicode="&#x116;" horiz-adv-x="536" 
d="M102 0v673h381v-47h-329v-248h319v-47h-319v-284h340v-47h-392zM307 761c-25 0 -44 19 -44 43c0 25 19 44 44 44s44 -19 44 -44c0 -24 -19 -43 -44 -43z" />
    <glyph glyph-name="Egrave" unicode="&#xc8;" horiz-adv-x="536" 
d="M102 0v673h381v-47h-329v-248h319v-47h-319v-284h340v-47h-392zM283 734l-100 162h60l93 -162h-53z" />
    <glyph glyph-name="Emacron" unicode="&#x112;" horiz-adv-x="536" 
d="M102 0v673h381v-47h-329v-248h319v-47h-319v-284h340v-47h-392zM174 775v43h264v-43h-264z" />
    <glyph glyph-name="Eogonek" unicode="&#x118;" horiz-adv-x="536" 
d="M102 0v673h381v-47h-329v-248h319v-47h-319v-284h340v-47h-1l-54 -36c-44 -30 -57 -48 -57 -71c0 -28 19 -40 63 -40h48v-40c-20 0 -44 -1 -55 -1c-68 0 -105 27 -105 74c0 37 20 69 92 114h-323z" />
    <glyph glyph-name="F" unicode="F" horiz-adv-x="508" 
d="M102 0v673h375v-47h-323v-264h314v-47h-314v-315h-52z" />
    <glyph glyph-name="G" unicode="G" horiz-adv-x="788" 
d="M411 330h299v-171c-60 -109 -172 -169 -301 -169c-203 0 -352 149 -352 348c0 198 148 345 346 345c148 0 264 -82 303 -217h-57c-37 106 -128 168 -246 168c-168 0 -292 -125 -292 -295c0 -172 126 -300 299 -300c103 0 196 46 248 133v110h-247v48z" />
    <glyph glyph-name="Gbreve" unicode="&#x11e;" horiz-adv-x="788" 
d="M411 330h299v-171c-60 -109 -172 -169 -301 -169c-203 0 -352 149 -352 348c0 198 148 345 346 345c148 0 264 -82 303 -217h-57c-37 106 -128 168 -246 168c-168 0 -292 -125 -292 -295c0 -172 126 -300 299 -300c103 0 196 46 248 133v110h-247v48zM399 737
c-99 0 -158 68 -158 150h46c0 -60 38 -108 112 -108s111 48 111 108h46c0 -82 -59 -150 -157 -150z" />
    <glyph glyph-name="Gcommaaccent" unicode="&#x122;" horiz-adv-x="788" 
d="M411 330h299v-171c-60 -109 -172 -169 -301 -169c-203 0 -352 149 -352 348c0 198 148 345 346 345c148 0 264 -82 303 -217h-57c-37 106 -128 168 -246 168c-168 0 -292 -125 -292 -295c0 -172 126 -300 299 -300c103 0 196 46 248 133v110h-247v48zM354 -215l18 164h51
l-22 -164h-47z" />
    <glyph glyph-name="H" unicode="H" horiz-adv-x="685" 
d="M102 0v673h52v-285h378v285h52v-673h-52v340h-378v-340h-52z" />
    <glyph glyph-name="I" unicode="I" horiz-adv-x="255" 
d="M102 0v673h52v-673h-52z" />
    <glyph glyph-name="Iacute" unicode="&#xcd;" horiz-adv-x="255" 
d="M102 0v673h52v-673h-52zM99 734l94 162h59l-101 -162h-52z" />
    <glyph glyph-name="Icircumflex" unicode="&#xce;" horiz-adv-x="255" 
d="M102 0v673h52v-673h-52zM260 734h-52l-80 117l-81 -117h-52l110 162h45z" />
    <glyph glyph-name="Idieresis" unicode="&#xcf;" horiz-adv-x="255" 
d="M102 0v673h52v-673h-52zM218 762c-24 0 -43 19 -43 42c0 24 18 43 43 43s43 -19 43 -43c0 -23 -18 -42 -43 -42zM36 762c-25 0 -43 19 -43 42c0 24 18 42 43 42s43 -18 43 -42c0 -23 -18 -42 -43 -42z" />
    <glyph glyph-name="Idotaccent" unicode="&#x130;" horiz-adv-x="255" 
d="M102 0v673h52v-673h-52zM128 761c-25 0 -44 19 -44 43c0 25 19 44 44 44s44 -19 44 -44c0 -24 -19 -43 -44 -43z" />
    <glyph glyph-name="Igrave" unicode="&#xcc;" horiz-adv-x="255" 
d="M102 0v673h52v-673h-52zM104 734l-100 162h60l93 -162h-53z" />
    <glyph glyph-name="Imacron" unicode="&#x12a;" horiz-adv-x="255" 
d="M102 0v673h52v-673h-52zM-5 775v43h264v-43h-264z" />
    <glyph glyph-name="Iogonek" unicode="&#x12e;" horiz-adv-x="255" 
d="M99 -188c-68 0 -105 27 -105 74c0 39 24 74 108 123v664h52v-673l-54 -36c-44 -30 -57 -48 -57 -71c0 -28 19 -40 63 -40h48v-40c-20 0 -44 -1 -55 -1z" />
    <glyph glyph-name="J" unicode="J" horiz-adv-x="348" 
d="M17 0v48h70c72 0 107 33 107 101v524h52v-526c0 -96 -54 -147 -154 -147h-75z" />
    <glyph glyph-name="K" unicode="K" horiz-adv-x="561" 
d="M541 0h-67l-320 345v-345h-52v673h52v-301l303 301h67l-316 -313z" />
    <glyph glyph-name="Kcommaaccent" unicode="&#x136;" horiz-adv-x="561" 
d="M541 0h-67l-320 345v-345h-52v673h52v-301l303 301h67l-316 -313zM262 -215l18 164h51l-22 -164h-47z" />
    <glyph glyph-name="L" unicode="L" horiz-adv-x="473" 
d="M102 0v673h52v-626h293v-47h-345z" />
    <glyph glyph-name="Lacute" unicode="&#x139;" horiz-adv-x="473" 
d="M102 0v673h52v-626h293v-47h-345zM99 734l94 162h59l-101 -162h-52z" />
    <glyph glyph-name="Lcaron" unicode="&#x13d;" horiz-adv-x="473" 
d="M102 0v673h52v-626h293v-47h-345zM280 480l18 193h58l-35 -193h-41z" />
    <glyph glyph-name="Lcommaaccent" unicode="&#x13b;" horiz-adv-x="473" 
d="M102 0v673h52v-626h293v-47h-345zM246 -215l18 164h51l-22 -164h-47z" />
    <glyph glyph-name="Ldot" unicode="&#x13f;" horiz-adv-x="480" 
d="M102 0v673h52v-626h293v-47h-345zM354 363c-24 0 -44 19 -44 43s20 44 44 44c25 0 44 -20 44 -44s-19 -43 -44 -43z" />
    <glyph glyph-name="Lslash" unicode="&#x141;" horiz-adv-x="477" 
d="M106 0v283l-82 -37v50l82 37v340h52v-321l205 94v-50l-205 -93v-256h293v-47h-345z" />
    <glyph glyph-name="M" unicode="M" horiz-adv-x="837" 
d="M660 673h76v-673h-52v596l-240 -596h-50l-240 596v-596h-52v673h75l242 -605z" />
    <glyph glyph-name="N" unicode="N" horiz-adv-x="686" 
d="M532 673h52v-673h-56l-374 595v-595h-52v673h62l368 -583v583z" />
    <glyph glyph-name="Nacute" unicode="&#x143;" horiz-adv-x="686" 
d="M532 673h52v-673h-56l-374 595v-595h-52v673h62l368 -583v583zM314 734l94 162h59l-101 -162h-52z" />
    <glyph glyph-name="Ncaron" unicode="&#x147;" horiz-adv-x="686" 
d="M532 673h52v-673h-56l-374 595v-595h-52v673h62l368 -583v583zM424 896h52l-110 -162h-45l-110 162h52l81 -117z" />
    <glyph glyph-name="Ncommaaccent" unicode="&#x145;" horiz-adv-x="686" 
d="M532 673h52v-673h-56l-374 595v-595h-52v673h62l368 -583v583zM298 -215l18 164h51l-22 -164h-47z" />
    <glyph glyph-name="Ntilde" unicode="&#xd1;" horiz-adv-x="686" 
d="M532 673h52v-673h-56l-374 595v-595h-52v673h62l368 -583v583zM409 746c-21 0 -39 5 -70 22c-33 18 -46 22 -61 22c-21 0 -43 -10 -73 -33v48c26 22 48 32 73 33c20 0 37 -6 70 -23c35 -17 46 -21 60 -21c21 0 43 10 73 33v-48c-26 -23 -48 -33 -72 -33z" />
    <glyph glyph-name="O" unicode="O" horiz-adv-x="802" 
d="M401 -10c-194 0 -344 151 -344 347s149 346 344 346c194 0 344 -150 344 -346s-150 -347 -344 -347zM401 39c165 0 290 129 290 299c0 168 -125 296 -290 296s-290 -127 -290 -296c0 -171 125 -299 290 -299z" />
    <glyph glyph-name="Oacute" unicode="&#xd3;" horiz-adv-x="802" 
d="M401 -10c-194 0 -344 151 -344 347s149 346 344 346c194 0 344 -150 344 -346s-150 -347 -344 -347zM401 39c165 0 290 129 290 299c0 168 -125 296 -290 296s-290 -127 -290 -296c0 -171 125 -299 290 -299zM372 734l94 162h59l-101 -162h-52z" />
    <glyph glyph-name="Ocircumflex" unicode="&#xd4;" horiz-adv-x="802" 
d="M401 -10c-194 0 -344 151 -344 347s149 346 344 346c194 0 344 -150 344 -346s-150 -347 -344 -347zM401 39c165 0 290 129 290 299c0 168 -125 296 -290 296s-290 -127 -290 -296c0 -171 125 -299 290 -299zM533 734h-52l-80 117l-81 -117h-52l110 162h45z" />
    <glyph glyph-name="Odieresis" unicode="&#xd6;" horiz-adv-x="802" 
d="M401 -10c-194 0 -344 151 -344 347s149 346 344 346c194 0 344 -150 344 -346s-150 -347 -344 -347zM401 39c165 0 290 129 290 299c0 168 -125 296 -290 296s-290 -127 -290 -296c0 -171 125 -299 290 -299zM491 762c-24 0 -43 19 -43 42c0 24 18 43 43 43
s43 -19 43 -43c0 -23 -18 -42 -43 -42zM309 762c-25 0 -43 19 -43 42c0 24 18 42 43 42s43 -18 43 -42c0 -23 -18 -42 -43 -42z" />
    <glyph glyph-name="Ograve" unicode="&#xd2;" horiz-adv-x="802" 
d="M401 -10c-194 0 -344 151 -344 347s149 346 344 346c194 0 344 -150 344 -346s-150 -347 -344 -347zM401 39c165 0 290 129 290 299c0 168 -125 296 -290 296s-290 -127 -290 -296c0 -171 125 -299 290 -299zM377 734l-100 162h60l93 -162h-53z" />
    <glyph glyph-name="Ohungarumlaut" unicode="&#x150;" horiz-adv-x="802" 
d="M401 -10c-194 0 -344 151 -344 347s149 346 344 346c194 0 344 -150 344 -346s-150 -347 -344 -347zM401 39c165 0 290 129 290 299c0 168 -125 296 -290 296s-290 -127 -290 -296c0 -171 125 -299 290 -299zM300 734l102 162h52l-103 -162h-51zM443 734l103 162h55
l-109 -162h-49z" />
    <glyph glyph-name="Omacron" unicode="&#x14c;" horiz-adv-x="802" 
d="M401 -10c-194 0 -344 151 -344 347s149 346 344 346c194 0 344 -150 344 -346s-150 -347 -344 -347zM401 39c165 0 290 129 290 299c0 168 -125 296 -290 296s-290 -127 -290 -296c0 -171 125 -299 290 -299zM268 775v43h264v-43h-264z" />
    <glyph glyph-name="Oslash" unicode="&#xd8;" horiz-adv-x="817" 
d="M772 700l-112 -125c57 -61 91 -145 91 -238c0 -196 -150 -347 -344 -347c-82 0 -156 27 -215 73l-81 -90h-66l111 124c-58 61 -93 145 -93 240c0 196 149 346 344 346c83 0 158 -27 216 -74l83 91h66zM407 634c-165 0 -290 -127 -290 -296c0 -80 28 -151 74 -204l400 436
c-50 40 -113 64 -184 64zM407 39c165 0 290 129 290 299c0 78 -27 148 -72 200l-399 -437c49 -39 111 -62 181 -62z" />
    <glyph glyph-name="Otilde" unicode="&#xd5;" horiz-adv-x="802" 
d="M401 -10c-194 0 -344 151 -344 347s149 346 344 346c194 0 344 -150 344 -346s-150 -347 -344 -347zM401 39c165 0 290 129 290 299c0 168 -125 296 -290 296s-290 -127 -290 -296c0 -171 125 -299 290 -299zM467 746c-21 0 -39 5 -70 22c-33 18 -46 22 -61 22
c-21 0 -43 -10 -73 -33v48c26 22 48 32 73 33c20 0 37 -6 70 -23c35 -17 46 -21 60 -21c21 0 43 10 73 33v-48c-26 -23 -48 -33 -72 -33z" />
    <glyph glyph-name="OE" unicode="&#x152;" horiz-adv-x="1124" 
d="M743 47h338v-47h-390v161c-50 -104 -162 -171 -290 -171c-194 0 -344 151 -344 347c0 195 150 346 344 346c128 0 240 -67 290 -171v161h379v-47h-327v-248h317v-47h-317v-284zM402 39c164 0 289 130 289 299c0 167 -125 296 -289 296c-166 0 -291 -128 -291 -296
c0 -170 125 -299 291 -299z" />
    <glyph glyph-name="P" unicode="P" horiz-adv-x="544" 
d="M102 0v673h199c123 0 202 -73 202 -188c0 -116 -78 -191 -202 -191h-147v-294h-52zM153 342h144c94 0 151 52 151 142c0 89 -56 142 -151 142h-144v-284z" />
    <glyph glyph-name="Thorn" unicode="&#xde;" horiz-adv-x="577" 
d="M102 0v673h52v-139h178c124 0 203 -73 203 -189c0 -117 -78 -191 -203 -191h-178v-154h-52zM154 201h176c94 0 151 54 151 143s-57 143 -151 143h-176v-286z" />
    <glyph glyph-name="Q" unicode="Q" horiz-adv-x="802" 
d="M463 1l307 -87v-46l-463 134c-151 44 -250 176 -250 334c0 195 151 347 345 347c193 0 345 -152 345 -346c0 -172 -120 -308 -284 -336zM111 338c0 -170 126 -299 291 -299c164 0 290 130 290 299c0 167 -126 296 -290 296c-165 0 -291 -128 -291 -296z" />
    <glyph glyph-name="R" unicode="R" horiz-adv-x="585" 
d="M102 0v673h199c123 0 202 -73 202 -188c0 -104 -63 -176 -165 -189l205 -296h-61l-204 294h-124v-294h-52zM153 342h144c94 0 151 52 151 142c0 89 -56 142 -151 142h-144v-284z" />
    <glyph glyph-name="Racute" unicode="&#x154;" horiz-adv-x="585" 
d="M102 0v673h199c123 0 202 -73 202 -188c0 -104 -63 -176 -165 -189l205 -296h-61l-204 294h-124v-294h-52zM153 342h144c94 0 151 52 151 142c0 89 -56 142 -151 142h-144v-284zM236 734l94 162h59l-101 -162h-52z" />
    <glyph glyph-name="Rcaron" unicode="&#x158;" horiz-adv-x="585" 
d="M102 0v673h199c123 0 202 -73 202 -188c0 -104 -63 -176 -165 -189l205 -296h-61l-204 294h-124v-294h-52zM153 342h144c94 0 151 52 151 142c0 89 -56 142 -151 142h-144v-284zM346 896h52l-110 -162h-45l-110 162h52l81 -117z" />
    <glyph glyph-name="Rcommaaccent" unicode="&#x156;" horiz-adv-x="585" 
d="M102 0v673h199c123 0 202 -73 202 -188c0 -104 -63 -176 -165 -189l205 -296h-61l-204 294h-124v-294h-52zM153 342h144c94 0 151 52 151 142c0 89 -56 142 -151 142h-144v-284zM247 -215l18 164h51l-22 -164h-47z" />
    <glyph glyph-name="S" unicode="S" horiz-adv-x="544" 
d="M274 -10c-133 0 -215 79 -222 212h52c6 -102 71 -166 169 -166s161 52 161 135c0 60 -30 94 -107 125l-102 41c-100 40 -142 95 -142 181c0 97 79 165 193 165c121 0 192 -66 200 -185h-53c-5 91 -56 139 -147 139c-83 0 -141 -48 -141 -118c0 -65 32 -105 111 -137
l102 -41c97 -39 138 -89 138 -170c0 -110 -84 -181 -212 -181z" />
    <glyph glyph-name="Sacute" unicode="&#x15a;" horiz-adv-x="544" 
d="M274 -10c-133 0 -215 79 -222 212h52c6 -102 71 -166 169 -166s161 52 161 135c0 60 -30 94 -107 125l-102 41c-100 40 -142 95 -142 181c0 97 79 165 193 165c121 0 192 -66 200 -185h-53c-5 91 -56 139 -147 139c-83 0 -141 -48 -141 -118c0 -65 32 -105 111 -137
l102 -41c97 -39 138 -89 138 -170c0 -110 -84 -181 -212 -181zM243 734l94 162h59l-101 -162h-52z" />
    <glyph glyph-name="Scaron" unicode="&#x160;" horiz-adv-x="544" 
d="M274 -10c-133 0 -215 79 -222 212h52c6 -102 71 -166 169 -166s161 52 161 135c0 60 -30 94 -107 125l-102 41c-100 40 -142 95 -142 181c0 97 79 165 193 165c121 0 192 -66 200 -185h-53c-5 91 -56 139 -147 139c-83 0 -141 -48 -141 -118c0 -65 32 -105 111 -137
l102 -41c97 -39 138 -89 138 -170c0 -110 -84 -181 -212 -181zM353 896h52l-110 -162h-45l-110 162h52l81 -117z" />
    <glyph glyph-name="Scedilla" unicode="&#x15e;" horiz-adv-x="544" 
d="M232 -190c-34 0 -48 0 -67 1v39h61c49 0 78 27 78 72c0 25 -10 46 -32 68c-132 1 -213 79 -220 212h52c6 -102 71 -166 169 -166s161 52 161 135c0 60 -30 94 -107 125l-102 41c-100 40 -142 95 -142 181c0 97 79 165 193 165c121 0 192 -66 200 -185h-53
c-5 91 -56 139 -147 139c-83 0 -141 -48 -141 -118c0 -65 32 -105 111 -137l102 -41c97 -39 138 -89 138 -170c0 -97 -66 -164 -169 -178c22 -21 34 -47 34 -76c0 -64 -48 -107 -119 -107z" />
    <glyph glyph-name="Scommaaccent" unicode="&#x218;" horiz-adv-x="544" 
d="M274 -10c-133 0 -215 79 -222 212h52c6 -102 71 -166 169 -166s161 52 161 135c0 60 -30 94 -107 125l-102 41c-100 40 -142 95 -142 181c0 97 79 165 193 165c121 0 192 -66 200 -185h-53c-5 91 -56 139 -147 139c-83 0 -141 -48 -141 -118c0 -65 32 -105 111 -137
l102 -41c97 -39 138 -89 138 -170c0 -110 -84 -181 -212 -181zM227 -215l18 164h51l-22 -164h-47z" />
    <glyph glyph-name="T" unicode="T" horiz-adv-x="547" 
d="M245 0v626h-207v47h470v-47h-211v-626h-52z" />
    <glyph glyph-name="Tcaron" unicode="&#x164;" horiz-adv-x="547" 
d="M245 0v626h-207v47h470v-47h-211v-626h-52zM355 896h52l-110 -162h-45l-110 162h52l81 -117z" />
    <glyph glyph-name="uni0162" unicode="&#x162;" horiz-adv-x="547" 
d="M245 0v626h-207v47h470v-47h-211v-616c36 -22 56 -55 56 -93c0 -64 -48 -107 -119 -107c-34 0 -48 0 -67 1v39h61c49 0 78 27 78 72c0 29 -13 52 -42 78h-19z" />
    <glyph glyph-name="uni021A" unicode="&#x21a;" horiz-adv-x="547" 
d="M245 0v626h-207v47h470v-47h-211v-626h-52zM229 -215l18 164h51l-22 -164h-47z" />
    <glyph glyph-name="U" unicode="U" horiz-adv-x="670" 
d="M335 -10c-149 0 -243 103 -243 269v414h52v-416c0 -135 74 -219 191 -219c119 0 191 83 191 219v416h52v-414c0 -166 -93 -269 -243 -269z" />
    <glyph glyph-name="Uacute" unicode="&#xda;" horiz-adv-x="670" 
d="M335 -10c-149 0 -243 103 -243 269v414h52v-416c0 -135 74 -219 191 -219c119 0 191 83 191 219v416h52v-414c0 -166 -93 -269 -243 -269zM307 734l94 162h59l-101 -162h-52z" />
    <glyph glyph-name="Ucircumflex" unicode="&#xdb;" horiz-adv-x="670" 
d="M335 -10c-149 0 -243 103 -243 269v414h52v-416c0 -135 74 -219 191 -219c119 0 191 83 191 219v416h52v-414c0 -166 -93 -269 -243 -269zM468 734h-52l-80 117l-81 -117h-52l110 162h45z" />
    <glyph glyph-name="Udieresis" unicode="&#xdc;" horiz-adv-x="670" 
d="M335 -10c-149 0 -243 103 -243 269v414h52v-416c0 -135 74 -219 191 -219c119 0 191 83 191 219v416h52v-414c0 -166 -93 -269 -243 -269zM426 762c-24 0 -43 19 -43 42c0 24 18 43 43 43s43 -19 43 -43c0 -23 -18 -42 -43 -42zM244 762c-25 0 -43 19 -43 42
c0 24 18 42 43 42s43 -18 43 -42c0 -23 -18 -42 -43 -42z" />
    <glyph glyph-name="Ugrave" unicode="&#xd9;" horiz-adv-x="670" 
d="M335 -10c-149 0 -243 103 -243 269v414h52v-416c0 -135 74 -219 191 -219c119 0 191 83 191 219v416h52v-414c0 -166 -93 -269 -243 -269zM312 734l-100 162h60l93 -162h-53z" />
    <glyph glyph-name="Uhungarumlaut" unicode="&#x170;" horiz-adv-x="670" 
d="M335 -10c-149 0 -243 103 -243 269v414h52v-416c0 -135 74 -219 191 -219c119 0 191 83 191 219v416h52v-414c0 -166 -93 -269 -243 -269zM235 734l102 162h52l-103 -162h-51zM378 734l103 162h55l-109 -162h-49z" />
    <glyph glyph-name="Umacron" unicode="&#x16a;" horiz-adv-x="670" 
d="M335 -10c-149 0 -243 103 -243 269v414h52v-416c0 -135 74 -219 191 -219c119 0 191 83 191 219v416h52v-414c0 -166 -93 -269 -243 -269zM203 775v43h264v-43h-264z" />
    <glyph glyph-name="Uogonek" unicode="&#x172;" horiz-adv-x="670" 
d="M436 -188c-65 0 -110 34 -110 85c0 33 12 58 52 96c-14 -2 -28 -3 -43 -3c-149 0 -243 103 -243 269v414h52v-416c0 -135 74 -219 191 -219c119 0 191 83 191 219v416h52v-414c0 -103 -35 -181 -98 -226l-66 -63c-30 -28 -39 -43 -39 -66c0 -32 27 -53 69 -53h48v-38
c-15 0 -38 -1 -56 -1z" />
    <glyph glyph-name="Uring" unicode="&#x16e;" horiz-adv-x="670" 
d="M335 -10c-149 0 -243 103 -243 269v414h52v-416c0 -135 74 -219 191 -219c119 0 191 83 191 219v416h52v-414c0 -166 -93 -269 -243 -269zM336 693c-58 0 -103 44 -103 102c0 57 45 102 103 102s104 -45 104 -102c0 -58 -46 -102 -104 -102zM337 732c34 0 61 28 61 63
s-27 62 -61 62c-36 0 -62 -27 -62 -62c0 -36 26 -63 62 -63z" />
    <glyph glyph-name="V" unicode="V" horiz-adv-x="633" 
d="M535 673h55l-246 -673h-55l-246 673h56l218 -609z" />
    <glyph glyph-name="W" unicode="W" horiz-adv-x="976" 
d="M856 673h56l-201 -673h-58l-165 592l-166 -592h-59l-200 673h56l174 -606l165 606h58l166 -604z" />
    <glyph glyph-name="X" unicode="X" horiz-adv-x="606" 
d="M564 0h-60l-201 308l-201 -308h-60l230 347l-215 326h60l186 -285l185 285h60l-214 -325z" />
    <glyph glyph-name="Y" unicode="Y" horiz-adv-x="599" 
d="M550 673l-225 -383v-290h-52v292l-225 381h58l193 -334l193 334h58z" />
    <glyph glyph-name="Yacute" unicode="&#xdd;" horiz-adv-x="599" 
d="M550 673l-225 -383v-290h-52v292l-225 381h58l193 -334l193 334h58zM271 734l94 162h59l-101 -162h-52z" />
    <glyph glyph-name="Ydieresis" unicode="&#x178;" horiz-adv-x="599" 
d="M550 673l-225 -383v-290h-52v292l-225 381h58l193 -334l193 334h58zM390 762c-24 0 -43 19 -43 42c0 24 18 43 43 43s43 -19 43 -43c0 -23 -18 -42 -43 -42zM208 762c-25 0 -43 19 -43 42c0 24 18 42 43 42s43 -18 43 -42c0 -23 -18 -42 -43 -42z" />
    <glyph glyph-name="Z" unicode="Z" horiz-adv-x="564" 
d="M113 47h400v-47h-458v47l395 579h-371v47h430v-48z" />
    <glyph glyph-name="Zacute" unicode="&#x179;" horiz-adv-x="564" 
d="M113 47h400v-47h-458v47l395 579h-371v47h430v-48zM253 734l94 162h59l-101 -162h-52z" />
    <glyph glyph-name="Zcaron" unicode="&#x17d;" horiz-adv-x="564" 
d="M113 47h400v-47h-458v47l395 579h-371v47h430v-48zM363 896h52l-110 -162h-45l-110 162h52l81 -117z" />
    <glyph glyph-name="Zdotaccent" unicode="&#x17b;" horiz-adv-x="564" 
d="M113 47h400v-47h-458v47l395 579h-371v47h430v-48zM282 761c-25 0 -44 19 -44 43c0 25 19 44 44 44s44 -19 44 -44c0 -24 -19 -43 -44 -43z" />
    <glyph glyph-name="Iacute_J.loclNLD" horiz-adv-x="603" 
d="M272 0v48h70c72 0 107 33 107 101v524h52v-526c0 -96 -54 -147 -154 -147h-75zM445 734l94 162h59l-101 -162h-52zM102 0v673h52v-673h-52zM99 734l94 162h59l-101 -162h-52z" />
    <glyph glyph-name="Idotaccent.loclTRK" horiz-adv-x="255" 
d="M102 0v673h52v-673h-52zM128 761c-25 0 -44 19 -44 43c0 25 19 44 44 44s44 -19 44 -44c0 -24 -19 -43 -44 -43z" />
    <glyph glyph-name="A.ordn" horiz-adv-x="414" 
d="M337 269l-39 104h-180l-39 -104h-51l153 404h53l153 -404h-50zM208 626l-75 -212h150z" />
    <glyph glyph-name="C.ordn" horiz-adv-x="483" 
d="M246 263c-119 0 -209 90 -209 209s90 209 209 209c103 0 182 -65 199 -160h-49c-18 70 -77 116 -150 116c-91 0 -161 -71 -161 -164c0 -95 70 -166 161 -166c73 0 132 45 150 116h49c-18 -97 -97 -160 -199 -160z" />
    <glyph glyph-name="D.ordn" horiz-adv-x="447" 
d="M66 269v404h123c133 0 220 -80 220 -201c0 -122 -88 -203 -220 -203h-123zM113 311h76c103 0 171 65 171 161s-68 159 -171 159h-76v-320z" />
    <glyph glyph-name="E.ordn" horiz-adv-x="334" 
d="M66 269v404h233v-42h-186v-131h180v-40h-180v-149h193v-42h-240z" />
    <glyph glyph-name="G.ordn" horiz-adv-x="485" 
d="M252 475h182v-111c-36 -65 -104 -101 -183 -101c-124 0 -214 89 -214 210c0 119 89 206 211 206c91 0 163 -50 185 -132h-51c-21 57 -72 88 -134 88c-94 0 -162 -68 -162 -162c0 -96 69 -166 165 -166c58 0 107 25 136 68v58h-135v42z" />
    <glyph glyph-name="H.ordn" horiz-adv-x="432" 
d="M66 269v404h47v-167h205v167h47v-404h-47v195h-205v-195h-47z" />
    <glyph glyph-name="I.ordn" horiz-adv-x="180" 
d="M66 269v404h47v-404h-47z" />
    <glyph glyph-name="J.ordn" horiz-adv-x="226" 
d="M11 269v42h43c40 0 59 20 59 57v305h46v-308c0 -62 -34 -97 -101 -96h-47z" />
    <glyph glyph-name="K.ordn" horiz-adv-x="363" 
d="M350 269h-59l-177 204v-204h-47v404h47v-178l167 178h58l-177 -189z" />
    <glyph glyph-name="M.ordn" horiz-adv-x="525" 
d="M394 673h65v-404h-46v331l-130 -331h-41l-130 333v-333h-46v404h64l132 -342z" />
    <glyph glyph-name="N.ordn" horiz-adv-x="432" 
d="M318 673h48v-404h-51l-202 330v-330h-47v404h53l199 -325v325z" />
    <glyph glyph-name="P.ordn" horiz-adv-x="346" 
d="M66 269v404h125c79 0 128 -46 128 -118s-49 -118 -128 -118h-78v-168h-47zM113 479h76c51 0 81 27 81 76c0 48 -30 76 -81 76h-76v-152z" />
    <glyph glyph-name="R.ordn" horiz-adv-x="372" 
d="M344 269h-56l-111 168h-64v-168h-47v404h125c79 0 128 -46 128 -118c0 -60 -34 -102 -91 -114zM113 631v-152h76c51 0 81 27 81 76c0 48 -30 76 -81 76h-76z" />
    <glyph glyph-name="S.ordn" horiz-adv-x="341" 
d="M172 263c-83 0 -134 47 -138 129h46c3 -56 37 -89 91 -89c53 0 86 26 86 71c0 32 -16 49 -60 67l-57 23c-62 24 -89 59 -89 111c0 63 50 104 122 104c74 0 119 -41 123 -114h-46c-2 49 -29 75 -77 75c-45 0 -75 -25 -75 -64c0 -34 18 -55 61 -72l58 -23
c63 -24 87 -57 87 -106c0 -68 -52 -112 -132 -112z" />
    <glyph glyph-name="T.ordn" horiz-adv-x="339" 
d="M145 269v362h-120v42h289v-42h-122v-362h-47z" />
    <glyph glyph-name="U.ordn" horiz-adv-x="421" 
d="M210 263c-92 0 -151 62 -151 161v249h47v-249c0 -73 40 -117 104 -117s104 43 104 117v249h47v-249c0 -100 -58 -161 -151 -161z" />
    <glyph glyph-name="Z.ordn" horiz-adv-x="348" 
d="M89 311h226v-42h-279v40l221 322h-209v42h265v-41z" />
    <glyph glyph-name="a" unicode="a" horiz-adv-x="521" 
d="M259 493c112 0 180 -67 180 -181v-312h-48v72c-35 -52 -96 -82 -172 -82c-102 0 -166 53 -166 140c0 85 62 135 168 135h168v48c0 85 -47 133 -131 133c-76 0 -123 -39 -131 -102h-51c9 92 80 149 183 149zM222 34c96 0 167 61 167 147v41h-162c-81 0 -122 -31 -122 -91
s43 -97 117 -97z" />
    <glyph glyph-name="aacute" unicode="&#xe1;" horiz-adv-x="521" 
d="M259 493c112 0 180 -67 180 -181v-312h-48v72c-35 -52 -96 -82 -172 -82c-102 0 -166 53 -166 140c0 85 62 135 168 135h168v48c0 85 -47 133 -131 133c-76 0 -123 -39 -131 -102h-51c9 92 80 149 183 149zM222 34c96 0 167 61 167 147v41h-162c-81 0 -122 -31 -122 -91
s43 -97 117 -97zM229 560l94 165h58l-100 -165h-52z" />
    <glyph glyph-name="abreve" unicode="&#x103;" horiz-adv-x="521" 
d="M259 493c112 0 180 -67 180 -181v-312h-48v72c-35 -52 -96 -82 -172 -82c-102 0 -166 53 -166 140c0 85 62 135 168 135h168v48c0 85 -47 133 -131 133c-76 0 -123 -39 -131 -102h-51c9 92 80 149 183 149zM222 34c96 0 167 61 167 147v41h-162c-81 0 -122 -31 -122 -91
s43 -97 117 -97zM258 563c-82 0 -131 58 -131 152h45c0 -73 28 -110 86 -110c56 0 85 37 85 110h46c0 -94 -50 -152 -131 -152z" />
    <glyph glyph-name="acircumflex" unicode="&#xe2;" horiz-adv-x="521" 
d="M259 493c112 0 180 -67 180 -181v-312h-48v72c-35 -52 -96 -82 -172 -82c-102 0 -166 53 -166 140c0 85 62 135 168 135h168v48c0 85 -47 133 -131 133c-76 0 -123 -39 -131 -102h-51c9 92 80 149 183 149zM222 34c96 0 167 61 167 147v41h-162c-81 0 -122 -31 -122 -91
s43 -97 117 -97zM388 560h-51l-80 122l-79 -122h-51l109 165h44z" />
    <glyph glyph-name="adieresis" unicode="&#xe4;" horiz-adv-x="521" 
d="M259 493c112 0 180 -67 180 -181v-312h-48v72c-35 -52 -96 -82 -172 -82c-102 0 -166 53 -166 140c0 85 62 135 168 135h168v48c0 85 -47 133 -131 133c-76 0 -123 -39 -131 -102h-51c9 92 80 149 183 149zM222 34c96 0 167 61 167 147v41h-162c-81 0 -122 -31 -122 -91
s43 -97 117 -97zM172 607c-23 0 -40 17 -40 39s17 39 40 39s40 -17 40 -39s-17 -39 -40 -39zM344 607c-23 0 -40 17 -40 39s17 39 40 39s40 -17 40 -39s-17 -39 -40 -39z" />
    <glyph glyph-name="agrave" unicode="&#xe0;" horiz-adv-x="521" 
d="M259 493c112 0 180 -67 180 -181v-312h-48v72c-35 -52 -96 -82 -172 -82c-102 0 -166 53 -166 140c0 85 62 135 168 135h168v48c0 85 -47 133 -131 133c-76 0 -123 -39 -131 -102h-51c9 92 80 149 183 149zM222 34c96 0 167 61 167 147v41h-162c-81 0 -122 -31 -122 -91
s43 -97 117 -97zM237 560l-100 166h59l94 -166h-53z" />
    <glyph glyph-name="amacron" unicode="&#x101;" horiz-adv-x="521" 
d="M259 493c112 0 180 -67 180 -181v-312h-48v72c-35 -52 -96 -82 -172 -82c-102 0 -166 53 -166 140c0 85 62 135 168 135h168v48c0 85 -47 133 -131 133c-76 0 -123 -39 -131 -102h-51c9 92 80 149 183 149zM222 34c96 0 167 61 167 147v41h-162c-81 0 -122 -31 -122 -91
s43 -97 117 -97zM136 601v43h244v-43h-244z" />
    <glyph glyph-name="aogonek" unicode="&#x105;" horiz-adv-x="521" 
d="M384 -188c-68 0 -105 27 -105 74c0 40 24 75 112 126v60c-35 -52 -96 -82 -172 -82c-102 0 -166 53 -166 140c0 85 62 135 168 135h168v48c0 85 -47 133 -131 133c-76 0 -123 -39 -131 -102h-51c9 92 80 149 183 149c112 0 180 -67 180 -181v-312l-54 -36
c-44 -30 -57 -48 -57 -71c0 -28 19 -40 63 -40h48v-40c-20 0 -44 -1 -55 -1zM222 34c96 0 167 61 167 147v41h-162c-81 0 -122 -31 -122 -91s43 -97 117 -97z" />
    <glyph glyph-name="aring" unicode="&#xe5;" horiz-adv-x="521" 
d="M259 493c112 0 180 -67 180 -181v-312h-48v72c-35 -52 -96 -82 -172 -82c-102 0 -166 53 -166 140c0 85 62 135 168 135h168v48c0 85 -47 133 -131 133c-76 0 -123 -39 -131 -102h-51c9 92 80 149 183 149zM222 34c96 0 167 61 167 147v41h-162c-81 0 -122 -31 -122 -91
s43 -97 117 -97zM258 545c-58 0 -103 45 -103 102c0 58 45 102 103 102s104 -44 104 -102c0 -57 -46 -102 -104 -102zM259 585c34 0 61 27 61 62c0 36 -27 63 -61 63c-36 0 -62 -27 -62 -63c0 -35 26 -62 62 -62z" />
    <glyph glyph-name="atilde" unicode="&#xe3;" horiz-adv-x="521" 
d="M259 493c112 0 180 -67 180 -181v-312h-48v72c-35 -52 -96 -82 -172 -82c-102 0 -166 53 -166 140c0 85 62 135 168 135h168v48c0 85 -47 133 -131 133c-76 0 -123 -39 -131 -102h-51c9 92 80 149 183 149zM222 34c96 0 167 61 167 147v41h-162c-81 0 -122 -31 -122 -91
s43 -97 117 -97zM314 578c-18 0 -34 5 -60 21c-30 18 -43 23 -56 23c-19 -1 -38 -12 -66 -35v47c30 24 46 32 69 32c17 0 33 -5 60 -21c28 -17 42 -23 56 -23c19 1 38 12 66 35v-47c-29 -24 -46 -32 -69 -32z" />
    <glyph glyph-name="ae" unicode="&#xe6;" horiz-adv-x="912" 
d="M627 493c145 0 243 -112 233 -266h-421c7 -113 85 -190 195 -190c77 0 129 31 160 96h56c-38 -92 -115 -143 -217 -143c-97 0 -175 49 -215 127c-27 -79 -101 -127 -201 -127s-164 54 -164 137c0 90 63 143 169 143h163v40c0 86 -47 136 -129 136
c-75 0 -120 -36 -129 -102h-51c9 93 77 149 180 149c88 0 147 -41 168 -114c41 70 115 114 203 114zM626 446c-100 0 -174 -71 -186 -175h368c-4 104 -77 175 -182 175zM223 34c94 0 162 60 162 145v47h-158c-79 0 -122 -33 -122 -94s44 -98 118 -98z" />
    <glyph glyph-name="b" unicode="b" horiz-adv-x="627" 
d="M334 493c135 0 239 -108 239 -252c0 -143 -104 -251 -240 -251c-88 0 -163 44 -197 109v-99h-48v673h50v-287c35 64 109 107 196 107zM329 37c110 0 192 86 192 205s-81 204 -193 204c-114 0 -190 -82 -190 -205s76 -204 191 -204z" />
    <glyph glyph-name="c" unicode="c" horiz-adv-x="585" 
d="M302 -10c-142 0 -251 109 -251 251c0 143 109 252 251 252c116 0 208 -70 232 -176h-52c-22 79 -93 129 -180 129c-114 0 -199 -87 -199 -205c0 -117 85 -204 199 -204c88 0 157 50 180 129h52c-24 -106 -116 -176 -232 -176z" />
    <glyph glyph-name="cacute" unicode="&#x107;" horiz-adv-x="585" 
d="M302 -10c-142 0 -251 109 -251 251c0 143 109 252 251 252c116 0 208 -70 232 -176h-52c-22 79 -93 129 -180 129c-114 0 -199 -87 -199 -205c0 -117 85 -204 199 -204c88 0 157 50 180 129h52c-24 -106 -116 -176 -232 -176zM275 560l94 165h58l-100 -165h-52z" />
    <glyph glyph-name="ccaron" unicode="&#x10d;" horiz-adv-x="585" 
d="M302 -10c-142 0 -251 109 -251 251c0 143 109 252 251 252c116 0 208 -70 232 -176h-52c-22 79 -93 129 -180 129c-114 0 -199 -87 -199 -205c0 -117 85 -204 199 -204c88 0 157 50 180 129h52c-24 -106 -116 -176 -232 -176zM384 725h51l-108 -165h-45l-108 165h51
l79 -121z" />
    <glyph glyph-name="ccedilla" unicode="&#xe7;" horiz-adv-x="585" 
d="M302 -10c-142 0 -251 109 -251 251c0 143 109 252 251 252c116 0 208 -70 232 -176h-52c-22 79 -93 129 -180 129c-114 0 -199 -87 -199 -205c0 -117 85 -204 199 -204c88 0 157 50 180 129h52c-21 -92 -92 -156 -186 -172c23 -21 35 -47 35 -77
c0 -64 -48 -107 -119 -107c-34 0 -48 0 -67 1v39h61c49 0 78 27 78 72c0 25 -10 46 -32 68h-2z" />
    <glyph glyph-name="d" unicode="d" horiz-adv-x="627" 
d="M488 673h51v-673h-49v97c-35 -64 -109 -107 -196 -107c-136 0 -240 108 -240 251c0 144 103 252 239 252c86 0 159 -43 195 -106v286zM298 37c115 0 191 81 191 204s-76 205 -190 205c-112 0 -193 -85 -193 -204s81 -205 192 -205z" />
    <glyph glyph-name="eth" unicode="&#xf0;" horiz-adv-x="575" 
d="M325 574l106 -136c68 -89 93 -144 93 -211c0 -139 -98 -237 -237 -237c-137 0 -236 97 -236 232c0 133 98 234 227 234c33 0 65 -7 93 -20l-93 120l-159 -59v45l132 50l-62 81h59l50 -64l163 61v-46zM286 37c107 0 185 80 185 187c0 106 -79 186 -185 185
c-107 -1 -183 -78 -183 -186s77 -186 183 -186z" />
    <glyph glyph-name="dcaron" unicode="&#x10f;" horiz-adv-x="719" 
d="M488 673h51v-673h-49v97c-35 -64 -109 -107 -196 -107c-136 0 -240 108 -240 251c0 144 103 252 239 252c86 0 159 -43 195 -106v286zM298 37c115 0 191 81 191 204s-76 205 -190 205c-112 0 -193 -85 -193 -204s81 -205 192 -205zM624 480l18 193h58l-35 -193h-41z" />
    <glyph glyph-name="dcroat" unicode="&#x111;" horiz-adv-x="630" 
d="M625 607v-44h-85v-563h-48v97c-35 -67 -111 -107 -198 -107c-136 0 -240 109 -240 247c0 139 103 249 239 249c84 0 161 -42 197 -108v185h-211v44h211v66h50v-66h85zM299 37c103 0 191 67 191 200c0 135 -88 202 -191 202c-113 0 -193 -87 -193 -202
c0 -113 81 -200 193 -200z" />
    <glyph glyph-name="e" unicode="e" horiz-adv-x="576" 
d="M290 493c145 0 243 -111 234 -264h-421c6 -114 85 -192 194 -192c76 0 129 32 160 96h56c-36 -91 -114 -143 -216 -143c-141 0 -246 107 -246 252c0 143 103 251 239 251zM289 446c-97 0 -171 -71 -184 -171h367c-6 102 -80 171 -183 171z" />
    <glyph glyph-name="eacute" unicode="&#xe9;" horiz-adv-x="576" 
d="M290 493c145 0 243 -111 234 -264h-421c6 -114 85 -192 194 -192c76 0 129 32 160 96h56c-36 -91 -114 -143 -216 -143c-141 0 -246 107 -246 252c0 143 103 251 239 251zM289 446c-97 0 -171 -71 -184 -171h367c-6 102 -80 171 -183 171zM262 560l94 165h58l-100 -165
h-52z" />
    <glyph glyph-name="ecaron" unicode="&#x11b;" horiz-adv-x="576" 
d="M290 493c145 0 243 -111 234 -264h-421c6 -114 85 -192 194 -192c76 0 129 32 160 96h56c-36 -91 -114 -143 -216 -143c-141 0 -246 107 -246 252c0 143 103 251 239 251zM289 446c-97 0 -171 -71 -184 -171h367c-6 102 -80 171 -183 171zM371 725h51l-108 -165h-45
l-108 165h51l79 -121z" />
    <glyph glyph-name="ecircumflex" unicode="&#xea;" horiz-adv-x="576" 
d="M290 493c145 0 243 -111 234 -264h-421c6 -114 85 -192 194 -192c76 0 129 32 160 96h56c-36 -91 -114 -143 -216 -143c-141 0 -246 107 -246 252c0 143 103 251 239 251zM289 446c-97 0 -171 -71 -184 -171h367c-6 102 -80 171 -183 171zM421 560h-51l-80 122l-79 -122
h-51l109 165h44z" />
    <glyph glyph-name="edieresis" unicode="&#xeb;" horiz-adv-x="576" 
d="M290 493c145 0 243 -111 234 -264h-421c6 -114 85 -192 194 -192c76 0 129 32 160 96h56c-36 -91 -114 -143 -216 -143c-141 0 -246 107 -246 252c0 143 103 251 239 251zM289 446c-97 0 -171 -71 -184 -171h367c-6 102 -80 171 -183 171zM205 607c-23 0 -40 17 -40 39
s17 39 40 39s40 -17 40 -39s-17 -39 -40 -39zM377 607c-23 0 -40 17 -40 39s17 39 40 39s40 -17 40 -39s-17 -39 -40 -39z" />
    <glyph glyph-name="edotaccent" unicode="&#x117;" horiz-adv-x="576" 
d="M290 493c145 0 243 -111 234 -264h-421c6 -114 85 -192 194 -192c76 0 129 32 160 96h56c-36 -91 -114 -143 -216 -143c-141 0 -246 107 -246 252c0 143 103 251 239 251zM289 446c-97 0 -171 -71 -184 -171h367c-6 102 -80 171 -183 171zM291 607c-23 0 -41 17 -41 40
s18 40 41 40s41 -17 41 -40s-18 -40 -41 -40z" />
    <glyph glyph-name="egrave" unicode="&#xe8;" horiz-adv-x="576" 
d="M290 493c145 0 243 -111 234 -264h-421c6 -114 85 -192 194 -192c76 0 129 32 160 96h56c-36 -91 -114 -143 -216 -143c-141 0 -246 107 -246 252c0 143 103 251 239 251zM289 446c-97 0 -171 -71 -184 -171h367c-6 102 -80 171 -183 171zM270 560l-100 166h59l94 -166
h-53z" />
    <glyph glyph-name="emacron" unicode="&#x113;" horiz-adv-x="576" 
d="M290 493c145 0 243 -111 234 -264h-421c6 -114 85 -192 194 -192c76 0 129 32 160 96h56c-36 -91 -114 -143 -216 -143c-141 0 -246 107 -246 252c0 143 103 251 239 251zM289 446c-97 0 -171 -71 -184 -171h367c-6 102 -80 171 -183 171zM169 601v43h244v-43h-244z" />
    <glyph glyph-name="eogonek" unicode="&#x119;" horiz-adv-x="576" 
d="M393 -188c-65 0 -110 34 -110 85c0 33 12 58 52 96c-13 -2 -25 -3 -38 -3c-141 0 -246 107 -246 252c0 143 103 251 239 251c145 0 243 -111 234 -264h-421c6 -114 85 -192 194 -192c76 0 129 32 160 96h56c-17 -43 -44 -78 -78 -102l-64 -61c-30 -28 -39 -43 -39 -66
c0 -32 27 -53 69 -53h48v-38c-15 0 -38 -1 -56 -1zM289 446c-97 0 -171 -71 -184 -171h367c-6 102 -80 171 -183 171z" />
    <glyph glyph-name="f" unicode="f" horiz-adv-x="279" 
d="M296 628h-55c-64 0 -96 -33 -96 -97v-48h128v-46h-128v-437h-50v437h-70v46h70v50c0 92 50 140 144 140h57v-45z" />
    <glyph glyph-name="g" unicode="g" horiz-adv-x="627" 
d="M490 483h49v-433c0 -142 -98 -223 -243 -223c-124 0 -207 58 -224 152h51c19 -68 80 -106 173 -106c117 0 192 61 192 177v62c-35 -62 -109 -105 -195 -105c-133 0 -239 108 -239 244s106 242 239 242c88 0 163 -43 197 -107v97zM299 55c112 0 189 79 189 196
c0 116 -77 195 -189 195c-111 0 -194 -84 -194 -195c0 -112 83 -196 194 -196z" />
    <glyph glyph-name="gbreve" unicode="&#x11f;" horiz-adv-x="627" 
d="M490 483h49v-433c0 -142 -98 -223 -243 -223c-124 0 -207 58 -224 152h51c19 -68 80 -106 173 -106c117 0 192 61 192 177v62c-35 -62 -109 -105 -195 -105c-133 0 -239 108 -239 244s106 242 239 242c88 0 163 -43 197 -107v97zM299 55c112 0 189 79 189 196
c0 116 -77 195 -189 195c-111 0 -194 -84 -194 -195c0 -112 83 -196 194 -196zM306 563c-82 0 -131 58 -131 152h45c0 -73 28 -110 86 -110c56 0 85 37 85 110h46c0 -94 -50 -152 -131 -152z" />
    <glyph glyph-name="gcommaaccent" unicode="&#x123;" horiz-adv-x="627" 
d="M490 483h49v-433c0 -142 -98 -223 -243 -223c-124 0 -207 58 -224 152h51c19 -68 80 -106 173 -106c117 0 192 61 192 177v62c-35 -62 -109 -105 -195 -105c-133 0 -239 108 -239 244s106 242 239 242c88 0 163 -43 197 -107v97zM299 55c112 0 189 79 189 196
c0 116 -77 195 -189 195c-111 0 -194 -84 -194 -195c0 -112 83 -196 194 -196zM278 560l21 165h48l-18 -165h-51z" />
    <glyph glyph-name="h" unicode="h" horiz-adv-x="548" 
d="M291 493c106 0 175 -73 175 -188v-305h-50v302c0 87 -53 144 -134 144c-83 0 -144 -60 -144 -144v-302h-50v673h50v-255c32 48 86 75 153 75z" />
    <glyph glyph-name="i" unicode="i" horiz-adv-x="227" 
d="M114 607c-24 0 -41 17 -41 40s17 40 41 40c23 0 40 -17 40 -40s-17 -40 -40 -40zM88 0v483h50v-483h-50z" />
    <glyph glyph-name="dotlessi" unicode="&#x131;" horiz-adv-x="227" 
d="M88 0v483h50v-483h-50z" />
    <glyph glyph-name="iacute" unicode="&#xed;" horiz-adv-x="227" 
d="M88 0v483h50v-483h-50zM85 560l94 165h58l-100 -165h-52z" />
    <glyph glyph-name="icircumflex" unicode="&#xee;" horiz-adv-x="227" 
d="M88 0v483h50v-483h-50zM244 560h-51l-80 122l-79 -122h-51l109 165h44z" />
    <glyph glyph-name="idieresis" unicode="&#xef;" horiz-adv-x="227" 
d="M88 0v483h50v-483h-50zM28 607c-23 0 -40 17 -40 39s17 39 40 39s40 -17 40 -39s-17 -39 -40 -39zM200 607c-23 0 -40 17 -40 39s17 39 40 39s40 -17 40 -39s-17 -39 -40 -39z" />
    <glyph glyph-name="igrave" unicode="&#xec;" horiz-adv-x="227" 
d="M88 0v483h50v-483h-50zM93 560l-100 166h59l94 -166h-53z" />
    <glyph glyph-name="imacron" unicode="&#x12b;" horiz-adv-x="227" 
d="M88 0v483h50v-483h-50zM11 601v43h205v-43h-205z" />
    <glyph glyph-name="iogonek" unicode="&#x12f;" horiz-adv-x="227" 
d="M84 -188c-68 0 -105 27 -105 74c0 40 24 74 109 124v473h50v-482l1 -1l-54 -36c-44 -30 -57 -48 -57 -71c0 -28 19 -40 63 -40h48v-40c-20 0 -44 -1 -55 -1zM114 607c-23 0 -41 17 -41 40s18 40 41 40s41 -17 41 -40s-18 -40 -41 -40z" />
    <glyph glyph-name="j" unicode="j" horiz-adv-x="227" 
d="M115 607c-24 0 -41 17 -41 40s17 40 41 40c23 0 40 -17 40 -40s-17 -40 -40 -40zM-42 -163v46h36c65 0 94 29 94 95v505h51v-508c0 -91 -47 -138 -136 -138h-45z" />
    <glyph glyph-name="uni0237" unicode="&#x237;" horiz-adv-x="227" 
d="M-42 -163v46h36c65 0 94 29 94 95v505h51v-508c0 -91 -47 -138 -136 -138h-45z" />
    <glyph glyph-name="k" unicode="k" horiz-adv-x="446" 
d="M449 0h-66l-245 235v-235h-50v673h50v-428l223 238h64l-226 -241z" />
    <glyph glyph-name="kcommaaccent" unicode="&#x137;" horiz-adv-x="446" 
d="M449 0h-66l-245 235v-235h-50v673h50v-428l223 238h64l-226 -241zM191 -215l18 164h51l-22 -164h-47z" />
    <glyph glyph-name="l" unicode="l" horiz-adv-x="227" 
d="M88 0v673h50v-673h-50z" />
    <glyph glyph-name="lacute" unicode="&#x13a;" horiz-adv-x="227" 
d="M88 0v673h50v-673h-50zM85 734l94 162h59l-101 -162h-52z" />
    <glyph glyph-name="lcaron" unicode="&#x13e;" horiz-adv-x="323" 
d="M88 0v673h50v-673h-50zM228 480l18 193h58l-35 -193h-41z" />
    <glyph glyph-name="lcommaaccent" unicode="&#x13c;" horiz-adv-x="227" 
d="M88 0v673h50v-673h-50zM69 -215l18 164h51l-22 -164h-47z" />
    <glyph glyph-name="ldot" unicode="&#x140;" horiz-adv-x="263" 
d="M88 0v673h50v-673h-50zM247 285c-24 0 -44 19 -44 43s20 44 44 44c25 0 44 -20 44 -44s-19 -43 -44 -43z" />
    <glyph glyph-name="lslash" unicode="&#x142;" horiz-adv-x="268" 
d="M108 0v343l-84 -38v49l84 38v281h50v-261l85 40v-50l-85 -40v-362h-50z" />
    <glyph glyph-name="m" unicode="m" horiz-adv-x="856" 
d="M599 493c109 0 175 -70 175 -188v-305h-51v302c0 88 -49 144 -127 144s-140 -59 -140 -136v-310h-50v302c0 88 -50 144 -129 144c-81 0 -139 -60 -139 -144v-302h-50v483h48v-64c32 47 84 74 149 74c72 0 125 -33 151 -93c31 57 91 93 163 93z" />
    <glyph glyph-name="n" unicode="n" horiz-adv-x="548" 
d="M290 493c108 0 177 -73 177 -188v-305h-51v302c0 87 -53 144 -134 144c-83 0 -144 -60 -144 -144v-302h-50v483h48v-71c30 51 85 81 154 81z" />
    <glyph glyph-name="nacute" unicode="&#x144;" horiz-adv-x="548" 
d="M290 493c108 0 177 -73 177 -188v-305h-51v302c0 87 -53 144 -134 144c-83 0 -144 -60 -144 -144v-302h-50v483h48v-71c30 51 85 81 154 81zM251 560l94 165h58l-100 -165h-52z" />
    <glyph glyph-name="ncaron" unicode="&#x148;" horiz-adv-x="548" 
d="M290 493c108 0 177 -73 177 -188v-305h-51v302c0 87 -53 144 -134 144c-83 0 -144 -60 -144 -144v-302h-50v483h48v-71c30 51 85 81 154 81zM360 725h51l-108 -165h-45l-108 165h51l79 -121z" />
    <glyph glyph-name="ncommaaccent" unicode="&#x146;" horiz-adv-x="548" 
d="M290 493c108 0 177 -73 177 -188v-305h-51v302c0 87 -53 144 -134 144c-83 0 -144 -60 -144 -144v-302h-50v483h48v-71c30 51 85 81 154 81zM233 -215l18 164h51l-22 -164h-47z" />
    <glyph glyph-name="ntilde" unicode="&#xf1;" horiz-adv-x="548" 
d="M290 493c108 0 177 -73 177 -188v-305h-51v302c0 87 -53 144 -134 144c-83 0 -144 -60 -144 -144v-302h-50v483h48v-71c30 51 85 81 154 81zM336 578c-18 0 -34 5 -60 21c-30 18 -43 23 -56 23c-19 -1 -38 -12 -66 -35v47c30 24 46 32 69 32c17 0 33 -5 60 -21
c28 -17 42 -23 56 -23c19 1 38 12 66 35v-47c-29 -24 -46 -32 -69 -32z" />
    <glyph glyph-name="o" unicode="o" horiz-adv-x="602" 
d="M300 -10c-139 0 -249 110 -249 252s109 251 250 251c140 0 250 -110 250 -251c0 -142 -111 -252 -251 -252zM300 37c113 0 198 89 198 205s-85 204 -198 204c-112 0 -197 -88 -197 -204c0 -117 85 -205 197 -205z" />
    <glyph glyph-name="oacute" unicode="&#xf3;" horiz-adv-x="602" 
d="M300 -10c-139 0 -249 110 -249 252s109 251 250 251c140 0 250 -110 250 -251c0 -142 -111 -252 -251 -252zM300 37c113 0 198 89 198 205s-85 204 -198 204c-112 0 -197 -88 -197 -204c0 -117 85 -205 197 -205zM273 560l94 165h58l-100 -165h-52z" />
    <glyph glyph-name="ocircumflex" unicode="&#xf4;" horiz-adv-x="602" 
d="M300 -10c-139 0 -249 110 -249 252s109 251 250 251c140 0 250 -110 250 -251c0 -142 -111 -252 -251 -252zM300 37c113 0 198 89 198 205s-85 204 -198 204c-112 0 -197 -88 -197 -204c0 -117 85 -205 197 -205zM432 560h-51l-80 122l-79 -122h-51l109 165h44z" />
    <glyph glyph-name="odieresis" unicode="&#xf6;" horiz-adv-x="602" 
d="M300 -10c-139 0 -249 110 -249 252s109 251 250 251c140 0 250 -110 250 -251c0 -142 -111 -252 -251 -252zM300 37c113 0 198 89 198 205s-85 204 -198 204c-112 0 -197 -88 -197 -204c0 -117 85 -205 197 -205zM216 607c-23 0 -40 17 -40 39s17 39 40 39s40 -17 40 -39
s-17 -39 -40 -39zM388 607c-23 0 -40 17 -40 39s17 39 40 39s40 -17 40 -39s-17 -39 -40 -39z" />
    <glyph glyph-name="ograve" unicode="&#xf2;" horiz-adv-x="602" 
d="M300 -10c-139 0 -249 110 -249 252s109 251 250 251c140 0 250 -110 250 -251c0 -142 -111 -252 -251 -252zM300 37c113 0 198 89 198 205s-85 204 -198 204c-112 0 -197 -88 -197 -204c0 -117 85 -205 197 -205zM281 560l-100 166h59l94 -166h-53z" />
    <glyph glyph-name="ohungarumlaut" unicode="&#x151;" horiz-adv-x="602" 
d="M300 -10c-139 0 -249 110 -249 252s109 251 250 251c140 0 250 -110 250 -251c0 -142 -111 -252 -251 -252zM300 37c113 0 198 89 198 205s-85 204 -198 204c-112 0 -197 -88 -197 -204c0 -117 85 -205 197 -205zM203 560l103 165h53l-105 -165h-51zM345 560l104 165h54
l-109 -165h-49z" />
    <glyph glyph-name="omacron" unicode="&#x14d;" horiz-adv-x="602" 
d="M300 -10c-139 0 -249 110 -249 252s109 251 250 251c140 0 250 -110 250 -251c0 -142 -111 -252 -251 -252zM300 37c113 0 198 89 198 205s-85 204 -198 204c-112 0 -197 -88 -197 -204c0 -117 85 -205 197 -205zM180 601v43h244v-43h-244z" />
    <glyph glyph-name="oslash" unicode="&#xf8;" horiz-adv-x="628" 
d="M582 536l-95 -113c47 -45 76 -109 75 -181c-1 -142 -111 -252 -251 -252c-56 0 -107 18 -149 48l-57 -68h-59l82 99c-41 44 -66 105 -66 173c2 142 110 251 250 251c52 0 101 -15 141 -42l71 85h58zM114 242c0 -53 17 -100 47 -136l260 307c-31 21 -68 33 -109 33
c-113 0 -196 -88 -198 -204zM311 37c113 0 198 89 198 205c0 57 -21 107 -55 143l-261 -309c33 -25 74 -39 118 -39z" />
    <glyph glyph-name="otilde" unicode="&#xf5;" horiz-adv-x="602" 
d="M300 -10c-139 0 -249 110 -249 252s109 251 250 251c140 0 250 -110 250 -251c0 -142 -111 -252 -251 -252zM300 37c113 0 198 89 198 205s-85 204 -198 204c-112 0 -197 -88 -197 -204c0 -117 85 -205 197 -205zM358 578c-18 0 -34 5 -60 21c-30 18 -43 23 -56 23
c-19 -1 -38 -12 -66 -35v47c30 24 46 32 69 32c17 0 33 -5 60 -21c28 -17 42 -23 56 -23c19 1 38 12 66 35v-47c-29 -24 -46 -32 -69 -32z" />
    <glyph glyph-name="oe" unicode="&#x153;" horiz-adv-x="1016" 
d="M731 492c146 0 243 -110 233 -263h-420c6 -114 84 -193 194 -193c76 0 130 33 160 96h55c-35 -90 -114 -143 -215 -143c-102 0 -183 55 -221 140c-38 -83 -118 -139 -218 -139c-138 0 -248 112 -248 251c0 141 110 252 249 252c99 0 180 -56 218 -139
c36 84 115 138 213 138zM300 37c114 0 192 88 192 204c0 117 -78 205 -191 205s-198 -89 -198 -205c0 -115 85 -204 197 -204zM730 446c-100 0 -172 -69 -184 -172h366c-7 104 -79 172 -182 172z" />
    <glyph glyph-name="p" unicode="p" horiz-adv-x="628" 
d="M333 493c136 0 240 -109 240 -252s-103 -251 -239 -251c-87 0 -161 43 -196 107v-260h-50v646h48v-99c34 65 109 109 197 109zM328 37c111 0 193 86 193 204s-82 205 -193 205c-114 0 -190 -81 -190 -204s76 -205 190 -205z" />
    <glyph glyph-name="thorn" unicode="&#xfe;" horiz-adv-x="628" 
d="M333 493c136 0 240 -109 240 -252s-104 -251 -239 -251c-87 0 -161 43 -196 107v-260h-50v836h48v-289c34 65 109 109 197 109zM328 37c112 0 193 86 193 204s-82 205 -193 205c-114 0 -190 -82 -190 -204c0 -123 76 -205 190 -205z" />
    <glyph glyph-name="q" unicode="q" horiz-adv-x="628" 
d="M295 493c88 0 163 -44 197 -109v99h48v-646h-50v260c-35 -64 -109 -107 -196 -107c-136 0 -239 108 -239 251s104 252 240 252zM300 37c114 0 190 82 190 205s-76 204 -190 204c-111 0 -193 -87 -193 -205s82 -204 193 -204z" />
    <glyph glyph-name="r" unicode="r" horiz-adv-x="339" 
d="M293 483h34v-47h-35c-90 0 -154 -63 -154 -155v-281h-50v483h48v-79c32 51 86 79 157 79z" />
    <glyph glyph-name="racute" unicode="&#x155;" horiz-adv-x="339" 
d="M293 483h34v-47h-35c-90 0 -154 -63 -154 -155v-281h-50v483h48v-79c32 51 86 79 157 79zM126 560l94 165h58l-100 -165h-52z" />
    <glyph glyph-name="rcaron" unicode="&#x159;" horiz-adv-x="339" 
d="M293 483h34v-47h-35c-90 0 -154 -63 -154 -155v-281h-50v483h48v-79c32 51 86 79 157 79zM235 725h51l-108 -165h-45l-108 165h51l79 -121z" />
    <glyph glyph-name="rcommaaccent" unicode="&#x157;" horiz-adv-x="339" 
d="M293 483h34v-47h-35c-90 0 -154 -63 -154 -155v-281h-50v483h48v-79c32 51 86 79 157 79zM68 -215l18 164h51l-22 -164h-47z" />
    <glyph glyph-name="s" unicode="s" horiz-adv-x="435" 
d="M224 -10c-103 0 -172 59 -180 155h50c6 -68 56 -108 131 -108c71 0 117 34 117 88c0 41 -18 61 -74 80l-86 30c-83 28 -119 68 -119 131c0 76 64 127 159 127c93 0 154 -50 161 -135h-51c-7 58 -45 88 -111 88c-65 0 -105 -30 -105 -79c0 -43 19 -64 81 -85l86 -30
c76 -25 111 -66 111 -126c0 -81 -68 -136 -170 -136z" />
    <glyph glyph-name="sacute" unicode="&#x15b;" horiz-adv-x="435" 
d="M224 -10c-103 0 -172 59 -180 155h50c6 -68 56 -108 131 -108c71 0 117 34 117 88c0 41 -18 61 -74 80l-86 30c-83 28 -119 68 -119 131c0 76 64 127 159 127c93 0 154 -50 161 -135h-51c-7 58 -45 88 -111 88c-65 0 -105 -30 -105 -79c0 -43 19 -64 81 -85l86 -30
c76 -25 111 -66 111 -126c0 -81 -68 -136 -170 -136zM195 560l94 165h58l-100 -165h-52z" />
    <glyph glyph-name="scaron" unicode="&#x161;" horiz-adv-x="435" 
d="M224 -10c-103 0 -172 59 -180 155h50c6 -68 56 -108 131 -108c71 0 117 34 117 88c0 41 -18 61 -74 80l-86 30c-83 28 -119 68 -119 131c0 76 64 127 159 127c93 0 154 -50 161 -135h-51c-7 58 -45 88 -111 88c-65 0 -105 -30 -105 -79c0 -43 19 -64 81 -85l86 -30
c76 -25 111 -66 111 -126c0 -81 -68 -136 -170 -136zM304 725h51l-108 -165h-45l-108 165h51l79 -121z" />
    <glyph glyph-name="scedilla" unicode="&#x15f;" horiz-adv-x="435" 
d="M224 -10c-103 0 -172 59 -180 155h50c6 -68 56 -108 131 -108c71 0 117 34 117 88c0 41 -18 61 -74 80l-86 30c-83 28 -119 68 -119 131c0 76 64 127 159 127c93 0 154 -50 161 -135h-51c-7 58 -45 88 -111 88c-65 0 -105 -30 -105 -79c0 -43 19 -64 81 -85l86 -30
c76 -25 111 -66 111 -126c0 -69 -49 -119 -126 -132c23 -21 35 -47 35 -77c0 -64 -48 -107 -119 -107c-34 0 -48 0 -67 1v39h61c49 0 78 27 78 72c0 25 -10 46 -32 68z" />
    <glyph glyph-name="scommaaccent" unicode="&#x219;" horiz-adv-x="435" 
d="M224 -10c-103 0 -172 59 -180 155h50c6 -68 56 -108 131 -108c71 0 117 34 117 88c0 41 -18 61 -74 80l-86 30c-83 28 -119 68 -119 131c0 76 64 127 159 127c93 0 154 -50 161 -135h-51c-7 58 -45 88 -111 88c-65 0 -105 -30 -105 -79c0 -43 19 -64 81 -85l86 -30
c76 -25 111 -66 111 -126c0 -81 -68 -136 -170 -136zM179 -215l18 164h51l-22 -164h-47z" />
    <glyph glyph-name="germandbls" unicode="&#xdf;" horiz-adv-x="526" 
d="M88 0v493c0 122 67 190 184 190c93 0 162 -54 162 -132c0 -40 -13 -72 -49 -120c-37 -48 -44 -62 -44 -83c0 -22 12 -37 63 -84c69 -59 87 -87 87 -132c0 -79 -63 -132 -158 -132h-72v46h69c67 0 108 32 108 86c0 29 -9 42 -74 100c-55 49 -74 78 -74 112
c0 30 11 53 50 106c30 41 41 65 41 95c0 58 -44 91 -113 91c-84 0 -130 -49 -130 -143v-493h-50z" />
    <glyph glyph-name="t" unicode="t" horiz-adv-x="348" 
d="M255 46h71v-46h-76c-97 0 -143 44 -143 133v304h-84v46h84v136h50v-136h154v-46h-154v-299c0 -64 30 -92 98 -92z" />
    <glyph glyph-name="tcaron" unicode="&#x165;" horiz-adv-x="350" 
d="M255 46h71v-46h-76c-97 0 -143 44 -143 133v304h-84v46h84v136h50v-136h154v-46h-154v-299c0 -64 30 -92 98 -92zM275 569l18 193h58l-35 -193h-41z" />
    <glyph glyph-name="uni0163" unicode="&#x163;" horiz-adv-x="348" 
d="M255 46h71v-46h-76h-3c28 -21 43 -51 43 -83c0 -64 -48 -107 -118 -107c-46 0 -54 0 -68 1v39h62c48 0 77 27 77 72c0 31 -13 57 -42 82c-64 14 -94 56 -94 129v304h-84v46h84v136h50v-136h154v-46h-154v-299c0 -64 30 -92 98 -92z" />
    <glyph glyph-name="uni021B" unicode="&#x21b;" horiz-adv-x="348" 
d="M255 46h71v-46h-76c-97 0 -143 44 -143 133v304h-84v46h84v136h50v-136h154v-46h-154v-299c0 -64 30 -92 98 -92zM168 -215l18 164h51l-22 -164h-47z" />
    <glyph glyph-name="u" unicode="u" horiz-adv-x="548" 
d="M409 483h51v-483h-49v70c-30 -51 -84 -80 -154 -80c-107 0 -176 73 -176 188v305h50v-302c0 -87 53 -144 135 -144c83 0 143 60 143 144v302z" />
    <glyph glyph-name="uacute" unicode="&#xfa;" horiz-adv-x="548" 
d="M409 483h51v-483h-49v70c-30 -51 -84 -80 -154 -80c-107 0 -176 73 -176 188v305h50v-302c0 -87 53 -144 135 -144c83 0 143 60 143 144v302zM242 560l94 165h58l-100 -165h-52z" />
    <glyph glyph-name="ucircumflex" unicode="&#xfb;" horiz-adv-x="548" 
d="M409 483h51v-483h-49v70c-30 -51 -84 -80 -154 -80c-107 0 -176 73 -176 188v305h50v-302c0 -87 53 -144 135 -144c83 0 143 60 143 144v302zM401 560h-51l-80 122l-79 -122h-51l109 165h44z" />
    <glyph glyph-name="udieresis" unicode="&#xfc;" horiz-adv-x="548" 
d="M409 483h51v-483h-49v70c-30 -51 -84 -80 -154 -80c-107 0 -176 73 -176 188v305h50v-302c0 -87 53 -144 135 -144c83 0 143 60 143 144v302zM185 607c-23 0 -40 17 -40 39s17 39 40 39s40 -17 40 -39s-17 -39 -40 -39zM357 607c-23 0 -40 17 -40 39s17 39 40 39
s40 -17 40 -39s-17 -39 -40 -39z" />
    <glyph glyph-name="ugrave" unicode="&#xf9;" horiz-adv-x="548" 
d="M409 483h51v-483h-49v70c-30 -51 -84 -80 -154 -80c-107 0 -176 73 -176 188v305h50v-302c0 -87 53 -144 135 -144c83 0 143 60 143 144v302zM250 560l-100 166h59l94 -166h-53z" />
    <glyph glyph-name="uhungarumlaut" unicode="&#x171;" horiz-adv-x="548" 
d="M409 483h51v-483h-49v70c-30 -51 -84 -80 -154 -80c-107 0 -176 73 -176 188v305h50v-302c0 -87 53 -144 135 -144c83 0 143 60 143 144v302zM172 560l103 165h53l-105 -165h-51zM314 560l104 165h54l-109 -165h-49z" />
    <glyph glyph-name="umacron" unicode="&#x16b;" horiz-adv-x="548" 
d="M409 483h51v-483h-49v70c-30 -51 -84 -80 -154 -80c-107 0 -176 73 -176 188v305h50v-302c0 -87 53 -144 135 -144c83 0 143 60 143 144v302zM149 601v43h244v-43h-244z" />
    <glyph glyph-name="uogonek" unicode="&#x173;" horiz-adv-x="548" 
d="M405 -188c-68 0 -105 27 -105 74c0 40 24 75 111 125v59c-30 -51 -84 -80 -154 -80c-107 0 -176 73 -176 188v305h50v-302c0 -87 53 -144 135 -144c83 0 143 60 143 144v302h51v-483l-54 -36c-44 -30 -57 -48 -57 -71c0 -28 19 -40 63 -40h48v-40c-20 0 -44 -1 -55 -1z
" />
    <glyph glyph-name="uring" unicode="&#x16f;" horiz-adv-x="548" 
d="M409 483h51v-483h-49v70c-30 -51 -84 -80 -154 -80c-107 0 -176 73 -176 188v305h50v-302c0 -87 53 -144 135 -144c83 0 143 60 143 144v302zM271 545c-58 0 -103 45 -103 102c0 58 45 102 103 102s104 -44 104 -102c0 -57 -46 -102 -104 -102zM272 585c34 0 61 27 61 62
c0 36 -27 63 -61 63c-36 0 -62 -27 -62 -63c0 -35 26 -62 62 -62z" />
    <glyph glyph-name="v" unicode="v" horiz-adv-x="480" 
d="M400 483h54l-186 -483h-55l-186 483h54l160 -425z" />
    <glyph glyph-name="w" unicode="w" horiz-adv-x="807" 
d="M716 483h55l-163 -483h-55l-149 419l-149 -419h-55l-163 483h54l138 -419l147 419h56l146 -421z" />
    <glyph glyph-name="x" unicode="x" horiz-adv-x="490" 
d="M466 0h-59l-163 215l-161 -215h-59l189 252l-174 231h59l146 -195l148 195h59l-176 -232z" />
    <glyph glyph-name="y" unicode="y" horiz-adv-x="481" 
d="M400 483h54l-248 -646h-56l63 163l-186 483h54l160 -425z" />
    <glyph glyph-name="yacute" unicode="&#xfd;" horiz-adv-x="481" 
d="M400 483h54l-248 -646h-56l63 163l-186 483h54l160 -425zM212 560l94 165h58l-100 -165h-52z" />
    <glyph glyph-name="ydieresis" unicode="&#xff;" horiz-adv-x="481" 
d="M400 483h54l-248 -646h-56l63 163l-186 483h54l160 -425zM155 607c-23 0 -40 17 -40 39s17 39 40 39s40 -17 40 -39s-17 -39 -40 -39zM327 607c-23 0 -40 17 -40 39s17 39 40 39s40 -17 40 -39s-17 -39 -40 -39z" />
    <glyph glyph-name="z" unicode="z" horiz-adv-x="451" 
d="M94 45h316v-45h-373v45l309 393h-292v45h349v-46z" />
    <glyph glyph-name="zacute" unicode="&#x17a;" horiz-adv-x="451" 
d="M94 45h316v-45h-373v45l309 393h-292v45h349v-46zM197 560l94 165h58l-100 -165h-52z" />
    <glyph glyph-name="zcaron" unicode="&#x17e;" horiz-adv-x="451" 
d="M94 45h316v-45h-373v45l309 393h-292v45h349v-46zM306 725h51l-108 -165h-45l-108 165h51l79 -121z" />
    <glyph glyph-name="zdotaccent" unicode="&#x17c;" horiz-adv-x="451" 
d="M94 45h316v-45h-373v45l309 393h-292v45h349v-46zM226 607c-23 0 -41 17 -41 40s18 40 41 40s41 -17 41 -40s-18 -40 -41 -40z" />
    <glyph glyph-name="iacute_j.loclNLD" horiz-adv-x="454" 
d="M88 0v483h50v-483h-50zM85 560l94 165h58l-100 -165h-52zM185 -163v46h36c65 0 94 29 94 95v505h51v-508c0 -91 -47 -138 -136 -138h-45zM312 560l94 165h58l-100 -165h-52z" />
    <glyph glyph-name="i.loclTRK.loclTRK" horiz-adv-x="227" 
d="M88 0v483h50v-483h-50zM114 607c-23 0 -41 17 -41 40s18 40 41 40s41 -17 41 -40s-18 -40 -41 -40z" />
    <glyph glyph-name="ordfeminine" unicode="&#xaa;" horiz-adv-x="412" 
d="M206 679c91 0 149 -57 149 -148v-262h-46v56c-28 -39 -75 -62 -135 -62c-83 0 -137 44 -137 114s55 113 141 113h130v41c0 68 -38 105 -104 105c-58 0 -95 -28 -102 -79h-47c8 75 66 122 151 122zM177 305c77 0 131 48 131 117v28h-124c-64 0 -98 -24 -98 -71
c0 -48 34 -74 91 -74z" />
    <glyph glyph-name="ordmasculine" unicode="&#xba;" horiz-adv-x="491" 
d="M245 263c-119 0 -209 89 -209 208s89 208 209 208c119 0 210 -89 210 -208c0 -118 -91 -208 -210 -208zM245 306c92 0 160 71 160 166c0 93 -68 164 -160 164s-161 -70 -161 -164c0 -95 69 -166 161 -166z" />
    <glyph glyph-name="uni0410" unicode="&#x410;" horiz-adv-x="661" 
d="M564 0l-71 187h-323l-72 -187h-55l261 673h55l260 -673h-55zM332 614l-145 -381h289z" />
    <glyph glyph-name="uni0411" unicode="&#x411;" horiz-adv-x="596" 
d="M102 0v673h396v-47h-344v-222h190c121 0 201 -79 201 -202c0 -121 -81 -202 -201 -202h-242zM154 47h187c93 0 151 58 151 155c0 98 -56 154 -151 154h-187v-309z" />
    <glyph glyph-name="uni0412" unicode="&#x412;" horiz-adv-x="606" 
d="M432 362c79 -25 123 -85 123 -173c0 -116 -84 -189 -219 -189h-234v673h231c118 0 191 -61 191 -162c0 -71 -33 -123 -92 -149zM154 47h178c106 0 169 54 169 145c0 89 -65 143 -171 143h-176v-288zM330 627h-176v-245h174c90 0 142 46 142 124s-49 121 -140 121z" />
    <glyph glyph-name="uni0413" unicode="&#x413;" horiz-adv-x="473" 
d="M102 673h345v-47h-293v-626h-52v673z" />
    <glyph glyph-name="uni0403" unicode="&#x403;" horiz-adv-x="473" 
d="M102 673h345v-47h-293v-626h-52v673zM218 734l94 162h59l-101 -162h-52z" />
    <glyph glyph-name="uni0490" unicode="&#x490;" horiz-adv-x="473" 
d="M102 0v673h290v124h52v-171h-290v-626h-52z" />
    <glyph glyph-name="uni0414" unicode="&#x414;" horiz-adv-x="655" 
d="M542 47h81v-172h-50v125h-493v-125h-50v172h6c84 0 138 118 138 359v267h368v-626zM226 626v-220c0 -187 -32 -305 -91 -359h355v579h-264z" />
    <glyph glyph-name="uni0415" unicode="&#x415;" horiz-adv-x="536" 
d="M102 0v673h381v-47h-329v-248h319v-47h-319v-284h340v-47h-392z" />
    <glyph glyph-name="uni0400" unicode="&#x400;" horiz-adv-x="536" 
d="M102 0v673h381v-47h-329v-248h319v-47h-319v-284h340v-47h-392zM283 734l-100 162h60l93 -162h-53z" />
    <glyph glyph-name="uni0401" unicode="&#x401;" horiz-adv-x="536" 
d="M102 0v673h381v-47h-329v-248h319v-47h-319v-284h340v-47h-392zM397 762c-24 0 -43 19 -43 42c0 24 18 43 43 43s43 -19 43 -43c0 -23 -18 -42 -43 -42zM215 762c-25 0 -43 19 -43 42c0 24 18 42 43 42s43 -18 43 -42c0 -23 -18 -42 -43 -42z" />
    <glyph glyph-name="uni0416" unicode="&#x416;" horiz-adv-x="812" 
d="M792 0h-66l-294 349v-349h-52v349l-294 -349h-66l304 359l-288 314h68l276 -305v305h52v-305l277 305h67l-289 -313z" />
    <glyph glyph-name="uni0417" unicode="&#x417;" horiz-adv-x="540" 
d="M372 360c80 -29 123 -96 123 -178c0 -110 -82 -192 -215 -192c-134 0 -213 79 -220 212h52c6 -104 68 -166 168 -166s163 60 163 147c0 80 -59 152 -172 152h-61v6h-1v41h61c98 0 141 61 141 125c0 75 -55 130 -142 130c-89 0 -143 -48 -149 -139h-52
c7 119 82 185 202 185s193 -77 193 -174c0 -64 -31 -120 -91 -149z" />
    <glyph glyph-name="uni0418" unicode="&#x418;" horiz-adv-x="686" 
d="M526 673h58v-673h-52v597l-378 -597h-52v673h52v-585z" />
    <glyph glyph-name="uni0419" unicode="&#x419;" horiz-adv-x="686" 
d="M526 673h58v-673h-52v597l-378 -597h-52v673h52v-585zM342 737c-100 0 -165 61 -165 150h46c0 -63 43 -108 119 -108c75 0 118 45 118 108h46c0 -89 -64 -150 -164 -150z" />
    <glyph glyph-name="uni040D" unicode="&#x40d;" horiz-adv-x="686" 
d="M526 673h58v-673h-52v597l-378 -597h-52v673h52v-585zM318 734l-100 162h60l93 -162h-53z" />
    <glyph glyph-name="uni041A" unicode="&#x41a;" horiz-adv-x="561" 
d="M541 0h-67l-320 345v-345h-52v673h52v-301l303 301h67l-316 -313z" />
    <glyph glyph-name="uni040C" unicode="&#x40c;" horiz-adv-x="561" 
d="M253 734l94 162h59l-101 -162h-52zM541 0h-67l-320 345v-345h-52v673h52v-301l303 301h67l-316 -313z" />
    <glyph glyph-name="uni041B" unicode="&#x41b;" horiz-adv-x="614" 
d="M-4 -3v50c120 0 144 136 144 357v269h372v-672h-52v625h-268v-222c0 -249 -43 -407 -196 -407z" />
    <glyph glyph-name="uni041C" unicode="&#x41c;" horiz-adv-x="837" 
d="M660 673h76v-673h-52v596l-240 -596h-50l-240 596v-596h-52v673h75l242 -605z" />
    <glyph glyph-name="uni041D" unicode="&#x41d;" horiz-adv-x="685" 
d="M102 0v673h52v-285h378v285h52v-673h-52v340h-378v-340h-52z" />
    <glyph glyph-name="uni041E" unicode="&#x41e;" horiz-adv-x="802" 
d="M401 -10c-194 0 -344 151 -344 347s149 346 344 346c194 0 344 -150 344 -346s-150 -347 -344 -347zM401 39c165 0 290 129 290 299c0 168 -125 296 -290 296s-290 -127 -290 -296c0 -171 125 -299 290 -299z" />
    <glyph glyph-name="uni041F" unicode="&#x41f;" horiz-adv-x="658" 
d="M102 0v673h455v-673h-52v626h-350v-626h-53z" />
    <glyph glyph-name="uni0420" unicode="&#x420;" horiz-adv-x="544" 
d="M102 0v673h199c123 0 202 -73 202 -188c0 -116 -78 -191 -202 -191h-147v-294h-52zM153 342h144c94 0 151 52 151 142c0 89 -56 142 -151 142h-144v-284z" />
    <glyph glyph-name="uni0421" unicode="&#x421;" horiz-adv-x="784" 
d="M401 -10c-194 0 -344 150 -344 347c0 195 149 346 344 346c165 0 293 -101 326 -258h-56c-32 128 -137 209 -269 209c-164 0 -291 -128 -291 -296c0 -170 127 -299 291 -299c132 0 236 81 269 210h56c-34 -158 -161 -259 -326 -259z" />
    <glyph glyph-name="uni0422" unicode="&#x422;" horiz-adv-x="547" 
d="M245 0v626h-207v47h470v-47h-211v-626h-52z" />
    <glyph glyph-name="uni0423" unicode="&#x423;" horiz-adv-x="601" 
d="M513 673h56l-318 -673h-56l98 207l-257 466h59l226 -411z" />
    <glyph glyph-name="uni040E" unicode="&#x40e;" horiz-adv-x="601" 
d="M513 673h56l-318 -673h-56l98 207l-257 466h59l226 -411zM306 737c-99 0 -158 68 -158 150h46c0 -60 38 -108 112 -108s111 48 111 108h46c0 -82 -59 -150 -157 -150z" />
    <glyph glyph-name="uni0424" unicode="&#x424;" horiz-adv-x="789" 
d="M732 346c0 -163 -116 -265 -312 -269v-77h-52v77c-195 3 -311 106 -311 269c0 161 118 264 311 268v59h52v-59c196 -4 312 -105 312 -268zM111 346c0 -138 91 -217 257 -220v439c-165 -3 -257 -84 -257 -219zM420 565v-439c165 4 257 83 257 220c0 136 -92 215 -257 219z
" />
    <glyph glyph-name="uni0425" unicode="&#x425;" horiz-adv-x="606" 
d="M564 0h-60l-201 308l-201 -308h-60l230 347l-215 326h60l186 -285l185 285h60l-214 -325z" />
    <glyph glyph-name="uni0427" unicode="&#x427;" horiz-adv-x="598" 
d="M444 673h52v-673h-52v293c-48 -19 -101 -29 -154 -29c-149 0 -229 85 -229 244v165h52v-163c0 -130 61 -196 181 -196c55 0 107 10 150 30v329z" />
    <glyph glyph-name="uni0426" unicode="&#x426;" horiz-adv-x="662" 
d="M581 -125v125h-479v673h52v-626h343v626h52v-626h82v-172h-50z" />
    <glyph glyph-name="uni0428" unicode="&#x428;" horiz-adv-x="895" 
d="M102 0v673h53v-626h267v626h53v-626h267v626h52v-673h-692z" />
    <glyph glyph-name="uni0429" unicode="&#x429;" horiz-adv-x="907" 
d="M825 -125v125h-723v673h53v-626h267v626h53v-626h267v626h52v-626h82v-172h-51z" />
    <glyph glyph-name="uni040F" unicode="&#x40f;" horiz-adv-x="660" 
d="M558 673v-673h-203v-125h-50v125h-203v673h52v-626h352v626h52z" />
    <glyph glyph-name="uni042C" unicode="&#x42c;" horiz-adv-x="571" 
d="M102 0v673h52v-274h161c125 0 205 -78 205 -199s-80 -200 -205 -200h-213zM153 47h158c96 0 155 58 155 152c0 95 -59 153 -155 153h-158v-305z" />
    <glyph glyph-name="uni042A" unicode="&#x42a;" horiz-adv-x="612" 
d="M143 0v626h-154v47h206v-274h160c126 0 206 -78 206 -199s-81 -200 -206 -200h-212zM194 47h157c96 0 156 58 156 152c0 95 -59 153 -156 153h-157v-305z" />
    <glyph glyph-name="uni042B" unicode="&#x42b;" horiz-adv-x="779" 
d="M102 0v673h52v-274h161c125 0 205 -78 205 -199s-80 -200 -205 -200h-213zM153 47h158c96 0 155 58 155 152c0 95 -59 153 -155 153h-158v-305zM626 0v673h52v-673h-52z" />
    <glyph glyph-name="uni0409" unicode="&#x409;" horiz-adv-x="901" 
d="M-4 -3v50c113 0 154 105 154 363v263h339v-280h162c122 0 199 -77 199 -196c0 -120 -78 -197 -199 -197h-214v626h-235v-216c0 -286 -60 -413 -206 -413zM489 47h160c91 0 148 57 148 149c0 93 -56 149 -148 149h-160v-298z" />
    <glyph glyph-name="uni040A" unicode="&#x40a;" horiz-adv-x="992" 
d="M102 0v673h52v-275h359v275h53v-275h171c125 0 204 -78 204 -198c0 -122 -79 -200 -204 -200h-224v350h-359v-350h-52zM565 47h168c96 0 154 57 154 152c0 94 -58 151 -154 151h-168v-303z" />
    <glyph glyph-name="uni0405" unicode="&#x405;" horiz-adv-x="544" 
d="M274 -10c-133 0 -215 79 -222 212h52c6 -102 71 -166 169 -166s161 52 161 135c0 60 -30 94 -107 125l-102 41c-100 40 -142 95 -142 181c0 97 79 165 193 165c121 0 192 -66 200 -185h-53c-5 91 -56 139 -147 139c-83 0 -141 -48 -141 -118c0 -65 32 -105 111 -137
l102 -41c97 -39 138 -89 138 -170c0 -110 -84 -181 -212 -181z" />
    <glyph glyph-name="uni0404" unicode="&#x404;" horiz-adv-x="784" 
d="M401 39c134 0 237 81 270 210h56c-34 -159 -161 -259 -327 -259c-195 0 -343 150 -343 347s148 346 343 346c166 0 294 -100 327 -258h-56c-32 128 -137 209 -270 209c-153 0 -274 -112 -288 -264h400v-48h-402c8 -162 131 -283 290 -283z" />
    <glyph glyph-name="uni042D" unicode="&#x42d;" horiz-adv-x="784" 
d="M383 39c159 0 282 121 290 283h-402v48h400c-14 152 -135 264 -288 264c-133 0 -238 -81 -270 -209h-56c33 158 161 258 327 258c195 0 343 -149 343 -346s-148 -347 -343 -347c-166 0 -293 100 -327 259h56c33 -129 136 -210 270 -210z" />
    <glyph glyph-name="uni0406" unicode="&#x406;" horiz-adv-x="255" 
d="M102 0v673h52v-673h-52z" />
    <glyph glyph-name="uni0407" unicode="&#x407;" horiz-adv-x="255" 
d="M209 762c-24 0 -43 19 -43 42c0 24 18 43 43 43s43 -19 43 -43c0 -23 -18 -42 -43 -42zM27 762c-25 0 -43 19 -43 42c0 24 18 42 43 42s43 -18 43 -42c0 -23 -18 -42 -43 -42zM102 0v673h52v-673h-52z" />
    <glyph glyph-name="uni0408" unicode="&#x408;" horiz-adv-x="348" 
d="M17 0v48h70c72 0 107 33 107 101v524h52v-526c0 -96 -54 -147 -154 -147h-75z" />
    <glyph glyph-name="uni040B" unicode="&#x40b;" horiz-adv-x="685" 
d="M396 405c146 0 228 -87 228 -240v-165h-52v163c0 126 -61 193 -177 193c-56 0 -107 -11 -155 -32v-324h-51v626h-151v47h413v-47h-211v-250c50 19 102 29 156 29z" />
    <glyph glyph-name="uni042E" unicode="&#x42e;" horiz-adv-x="1049" 
d="M648 -10c-187 0 -332 140 -343 325h-151v-315h-52v673h52v-310h151c12 183 156 320 343 320c194 0 344 -150 344 -346s-150 -347 -344 -347zM648 39c165 0 290 129 290 299c0 168 -125 296 -290 296s-290 -127 -290 -296c0 -171 125 -299 290 -299z" />
    <glyph glyph-name="uni042F" unicode="&#x42f;" horiz-adv-x="585" 
d="M277 673h207v-673h-52v277h-132l-196 -277h-62l198 279c-113 14 -175 91 -175 197c0 117 79 197 212 197zM432 323v303h-153c-104 0 -160 -60 -160 -151s56 -152 160 -152h153z" />
    <glyph glyph-name="uni0402" unicode="&#x402;" horiz-adv-x="676" 
d="M401 405c139 0 224 -79 224 -207c0 -130 -90 -205 -244 -205v48c123 0 190 55 190 157c0 100 -62 158 -172 158c-56 0 -112 -12 -159 -33v-323h-51v626h-151v47h413v-47h-211v-252c52 21 106 31 161 31z" />
    <glyph glyph-name="uni0462" unicode="&#x462;" horiz-adv-x="656" 
d="M164 0v507h-147v47h147v119h52v-119h254v-47h-254v-108h177c126 0 206 -78 206 -199s-81 -200 -206 -200h-229zM215 47h175c96 0 155 58 155 152c0 95 -59 153 -155 153h-175v-305z" />
    <glyph glyph-name="uni0472" unicode="&#x472;" horiz-adv-x="802" 
d="M401 683c194 0 344 -150 344 -346s-150 -347 -344 -347s-344 151 -344 347s149 346 344 346zM401 634c-156 0 -277 -114 -289 -270c55 24 102 34 151 34c105 0 172 -51 276 -51c46 0 93 9 149 33c-18 147 -136 254 -287 254zM401 39c162 0 286 125 290 291
c-54 -24 -101 -34 -152 -34c-108 0 -176 52 -276 52c-48 0 -93 -10 -151 -35c11 -158 132 -274 289 -274z" />
    <glyph glyph-name="uni0474" unicode="&#x474;" horiz-adv-x="648" 
d="M618 673h43v-47h-33c-37 0 -59 -20 -80 -74l-202 -552h-56l-247 673h56l220 -611l184 514c27 70 60 97 115 97z" />
    <glyph glyph-name="uni0492" unicode="&#x492;" horiz-adv-x="504" 
d="M473 626h-297v-256h251v-47h-251v-323h-52v323h-100v47h100v303h349v-47z" />
    <glyph glyph-name="uni0496" unicode="&#x496;" horiz-adv-x="862" 
d="M781 -125v125h-55l-294 349v-349h-52v349l-294 -349h-66l304 359l-288 314h68l276 -305v305h52v-305l277 305h67l-289 -313l265 -313h79v-172h-50z" />
    <glyph glyph-name="uni0498" unicode="&#x498;" horiz-adv-x="540" 
d="M372 360c80 -29 123 -96 123 -178c0 -102 -71 -180 -187 -190v-117h-51v116c-120 9 -191 86 -197 211h52c6 -104 68 -166 168 -166s163 60 163 147c0 80 -59 152 -172 152h-61v6h-1v41h61c98 0 141 61 141 125c0 75 -55 130 -142 130c-89 0 -143 -48 -149 -139h-52
c7 119 82 185 202 185s193 -77 193 -174c0 -64 -31 -120 -91 -149z" />
    <glyph glyph-name="uni049A" unicode="&#x49a;" horiz-adv-x="608" 
d="M527 -125v125h-53l-320 345v-345h-52v673h52v-301l303 301h67l-316 -313l289 -313h80v-172h-50z" />
    <glyph glyph-name="uni04A0" unicode="&#x4a0;" horiz-adv-x="590" 
d="M-11 626v47h195v-301l303 301h67l-316 -313l333 -360h-67l-320 345v-345h-52v626h-143z" />
    <glyph glyph-name="uni04A2" unicode="&#x4a2;" horiz-adv-x="697" 
d="M584 47h82v-172h-50v125h-84v340h-378v-340h-52v673h52v-286h378v286h52v-626z" />
    <glyph glyph-name="uni04AA" unicode="&#x4aa;" horiz-adv-x="784" 
d="M427 -125h-51v116c-182 12 -319 157 -319 346c0 195 149 346 344 346c165 0 293 -101 326 -258h-56c-32 128 -137 209 -269 209c-164 0 -291 -128 -291 -296c0 -170 127 -299 291 -299c132 0 236 81 269 210h56c-32 -150 -148 -248 -300 -258v-116z" />
    <glyph glyph-name="uni04AE" unicode="&#x4ae;" horiz-adv-x="599" 
d="M550 673l-225 -383v-290h-52v292l-225 381h58l193 -334l193 334h58z" />
    <glyph glyph-name="uni04B0" unicode="&#x4b0;" horiz-adv-x="623" 
d="M562 673l-216 -367h185v-47h-194v-259h-52v259h-191v47h182l-216 367h58l193 -334l193 334h58z" />
    <glyph glyph-name="uni04B2" unicode="&#x4b2;" horiz-adv-x="643" 
d="M562 -125v125h-58l-201 308l-201 -308h-60l230 347l-215 326h60l186 -285l185 285h60l-214 -325l199 -301h79v-172h-50z" />
    <glyph glyph-name="uni04B6" unicode="&#x4b6;" horiz-adv-x="609" 
d="M496 47h82v-172h-50v125h-84v293c-48 -19 -101 -29 -154 -29c-149 0 -229 85 -229 244v165h52v-163c0 -130 61 -196 181 -196c55 0 107 10 150 30v329h52v-626z" />
    <glyph glyph-name="uni04BA" unicode="&#x4ba;" horiz-adv-x="598" 
d="M154 0h-52v673h52v-293c48 19 101 29 154 29c149 0 229 -85 229 -244v-165h-52v163c0 130 -61 196 -181 196c-55 0 -107 -10 -150 -30v-329z" />
    <glyph glyph-name="uni04C0" unicode="&#x4c0;" horiz-adv-x="255" 
d="M102 0v673h52v-673h-52z" />
    <glyph glyph-name="uni04D8" unicode="&#x4d8;" horiz-adv-x="777" 
d="M384 683c196 0 336 -145 336 -348c0 -198 -142 -345 -334 -345c-200 0 -342 155 -328 360h609c-7 170 -120 284 -283 284c-112 0 -202 -53 -247 -146h-54c48 122 161 195 301 195zM387 39c151 0 265 110 279 264h-557c8 -152 124 -264 278 -264z" />
    <glyph glyph-name="uni04E2" unicode="&#x4e2;" horiz-adv-x="686" 
d="M526 673h58v-673h-52v597l-378 -597h-52v673h52v-585zM209 775v43h264v-43h-264z" />
    <glyph glyph-name="uni04E6" unicode="&#x4e6;" horiz-adv-x="802" 
d="M483 762c-24 0 -43 19 -43 42c0 24 18 43 43 43s43 -19 43 -43c0 -23 -18 -42 -43 -42zM301 762c-25 0 -43 19 -43 42c0 24 18 42 43 42s43 -18 43 -42c0 -23 -18 -42 -43 -42zM401 -10c-194 0 -344 151 -344 347s149 346 344 346c194 0 344 -150 344 -346
s-150 -347 -344 -347zM401 39c165 0 290 129 290 299c0 168 -125 296 -290 296s-290 -127 -290 -296c0 -171 125 -299 290 -299z" />
    <glyph glyph-name="uni04E8" unicode="&#x4e8;" horiz-adv-x="802" 
d="M401 683c194 0 344 -150 344 -346s-150 -347 -344 -347s-344 151 -344 347s149 346 344 346zM401 634c-155 0 -274 -112 -289 -265h578c-15 152 -134 265 -289 265zM401 39c159 0 282 120 290 282h-580c8 -162 131 -282 290 -282z" />
    <glyph glyph-name="uni04EE" unicode="&#x4ee;" horiz-adv-x="601" 
d="M513 673h56l-318 -673h-56l98 207l-257 466h59l226 -411zM173 775v43h264v-43h-264z" />
    <glyph glyph-name="uni04F2" unicode="&#x4f2;" horiz-adv-x="601" 
d="M513 673h56l-318 -673h-56l98 207l-257 466h59l226 -411zM205 734l102 162h52l-103 -162h-51zM348 734l103 162h55l-109 -162h-49z" />
    <glyph glyph-name="uni0414.loclBGR" horiz-adv-x="702" 
d="M600 47h70v-172h-50v125h-539v-125h-50v172h71l215 626h56zM346 605l-189 -558h388z" />
    <glyph glyph-name="uni041B.loclBGR" horiz-adv-x="633" 
d="M590 0h-55l-217 607l-219 -607h-56l247 673h56z" />
    <glyph glyph-name="uni0413.ordn" horiz-adv-x="298" 
d="M66 673h214v-42h-167v-362h-47v404z" />
    <glyph glyph-name="uni0415.ordn" horiz-adv-x="334" 
d="M66 269v404h233v-42h-186v-131h180v-40h-180v-149h193v-42h-240z" />
    <glyph glyph-name="uni0419.ordn" horiz-adv-x="432" 
d="M216 709c-64 0 -105 39 -105 95h38c0 -36 24 -60 67 -60s67 24 67 60h38c0 -56 -41 -95 -105 -95zM316 673h50v-404h-47v334l-205 -334h-48v404h47v-329z" />
    <glyph glyph-name="uni041C.ordn" horiz-adv-x="525" 
d="M394 673h65v-404h-46v331l-130 -331h-41l-130 333v-333h-46v404h64l132 -342z" />
    <glyph glyph-name="uni041E.ordn" horiz-adv-x="491" 
d="M245 263c-119 0 -209 89 -209 208s89 208 209 208c119 0 210 -89 210 -208c0 -118 -91 -208 -210 -208zM245 306c92 0 160 71 160 166c0 93 -68 164 -160 164s-161 -70 -161 -164c0 -95 69 -166 161 -166z" />
    <glyph glyph-name="uni0425.ordn" horiz-adv-x="383" 
d="M356 269h-53l-111 174l-111 -174h-54l136 209l-127 195h54l101 -160l102 160h54l-126 -195z" />
    <glyph glyph-name="uni042F.ordn" horiz-adv-x="372" 
d="M176 673h130v-404h-47v159l-70 1l-107 -160h-55l112 164c-61 12 -95 57 -95 118c0 72 49 122 132 122zM259 469v162h-81c-56 0 -86 -32 -86 -81c0 -50 30 -81 86 -81h81z" />
    <glyph glyph-name="uni0430" unicode="&#x430;" horiz-adv-x="521" 
d="M259 493c112 0 180 -67 180 -181v-312h-48v72c-35 -52 -96 -82 -172 -82c-102 0 -166 53 -166 140c0 85 62 135 168 135h168v48c0 85 -47 133 -131 133c-76 0 -123 -39 -131 -102h-51c9 92 80 149 183 149zM222 34c96 0 167 61 167 147v41h-162c-81 0 -122 -31 -122 -91
s43 -97 117 -97z" />
    <glyph glyph-name="uni0431" unicode="&#x431;" horiz-adv-x="587" 
d="M312 457c125 0 224 -97 224 -229c0 -136 -105 -238 -237 -238c-135 0 -238 105 -238 258v66c0 187 66 263 233 315l207 66v-48l-199 -64c-132 -43 -187 -99 -193 -232c42 65 121 106 203 106zM302 38c103 0 182 86 182 192c0 104 -77 180 -178 180
c-103 0 -192 -80 -192 -185s88 -187 188 -187z" />
    <glyph glyph-name="uni0432" unicode="&#x432;" horiz-adv-x="539" 
d="M387 256c60 -18 93 -60 93 -117c0 -83 -66 -139 -165 -139h-219v483h207c89 0 145 -46 145 -120c0 -47 -22 -85 -61 -107zM146 437v-162h155c61 0 96 31 96 85c0 50 -33 77 -96 77h-155zM146 46h168c72 0 116 36 116 94c0 57 -43 89 -116 89h-168v-183z" />
    <glyph glyph-name="uni0433" unicode="&#x433;" horiz-adv-x="385" 
d="M96 0v483h285v-46h-235v-437h-50z" />
    <glyph glyph-name="uni0453" unicode="&#x453;" horiz-adv-x="385" 
d="M96 0v483h285v-46h-235v-437h-50zM222 560l94 165h58l-100 -165h-52z" />
    <glyph glyph-name="uni0491" unicode="&#x491;" horiz-adv-x="411" 
d="M96 0v483h263v123h49v-169h-262v-437h-50z" />
    <glyph glyph-name="uni0434" unicode="&#x434;" horiz-adv-x="565" 
d="M449 45h78v-170h-48v125h-409v-125h-48v170h12c72 0 101 73 101 245v193h314v-438zM185 437v-148c0 -124 -17 -204 -59 -244h273v392h-214z" />
    <glyph glyph-name="uni0435" unicode="&#x435;" horiz-adv-x="576" 
d="M290 493c145 0 243 -111 234 -264h-421c6 -114 85 -192 194 -192c76 0 129 32 160 96h56c-36 -91 -114 -143 -216 -143c-141 0 -246 107 -246 252c0 143 103 251 239 251zM289 446c-97 0 -171 -71 -184 -171h367c-6 102 -80 171 -183 171z" />
    <glyph glyph-name="uni0450" unicode="&#x450;" horiz-adv-x="576" 
d="M290 493c145 0 243 -111 234 -264h-421c6 -114 85 -192 194 -192c76 0 129 32 160 96h56c-36 -91 -114 -143 -216 -143c-141 0 -246 107 -246 252c0 143 103 251 239 251zM289 446c-97 0 -171 -71 -184 -171h367c-6 102 -80 171 -183 171zM270 560l-100 166h59l94 -166
h-53z" />
    <glyph glyph-name="uni0451" unicode="&#x451;" horiz-adv-x="576" 
d="M290 493c145 0 243 -111 234 -264h-421c6 -114 85 -192 194 -192c76 0 129 32 160 96h56c-36 -91 -114 -143 -216 -143c-141 0 -246 107 -246 252c0 143 103 251 239 251zM289 446c-97 0 -171 -71 -184 -171h367c-6 102 -80 171 -183 171zM205 607c-23 0 -40 17 -40 39
s17 39 40 39s40 -17 40 -39s-17 -39 -40 -39zM377 607c-23 0 -40 17 -40 39s17 39 40 39s40 -17 40 -39s-17 -39 -40 -39z" />
    <glyph glyph-name="uni0436" unicode="&#x436;" horiz-adv-x="632" 
d="M636 0h-64l-231 244v-244h-50v244l-231 -244h-64l241 253l-227 230h64l217 -225v225h50v-225l218 225h64l-227 -230z" />
    <glyph glyph-name="uni0437" unicode="&#x437;" horiz-adv-x="491" 
d="M348 256c60 -19 91 -64 91 -120c0 -100 -96 -146 -191 -146c-93 0 -184 44 -198 141h51c17 -68 82 -94 146 -94c69 0 140 31 140 102c0 61 -52 91 -126 91h-88v45h89c68 0 99 41 99 85c0 58 -56 87 -115 87c-57 0 -115 -26 -129 -79h-49c10 85 96 125 179 125
c85 0 167 -42 167 -129c0 -45 -24 -85 -66 -108z" />
    <glyph glyph-name="uni0438" unicode="&#x438;" horiz-adv-x="585" 
d="M441 492h48v-492h-50v414l-295 -423h-48v492h50v-415z" />
    <glyph glyph-name="uni0439" unicode="&#x439;" horiz-adv-x="585" 
d="M441 492h48v-492h-50v414l-295 -423h-48v492h50v-415zM292 563c-90 0 -142 61 -142 152h46c0 -69 31 -110 96 -110c66 0 97 41 97 110h46c0 -91 -53 -152 -143 -152z" />
    <glyph glyph-name="uni045D" unicode="&#x45d;" horiz-adv-x="585" 
d="M441 492h48v-492h-50v414l-295 -423h-48v492h50v-415zM272 560l-100 166h59l94 -166h-53z" />
    <glyph glyph-name="uni043A" unicode="&#x43a;" horiz-adv-x="446" 
d="M449 0h-67l-236 228v-228h-50v483h50v-234l216 234h65l-226 -241z" />
    <glyph glyph-name="uni045C" unicode="&#x45c;" horiz-adv-x="446" 
d="M449 0h-67l-236 228v-228h-50v483h50v-234l216 234h65l-226 -241zM212 560l94 165h58l-100 -165h-52z" />
    <glyph glyph-name="uni043B" unicode="&#x43b;" horiz-adv-x="543" 
d="M15 -1v46c80 0 115 64 115 271v167h317v-483h-50v438h-217v-126c0 -231 -54 -313 -165 -313z" />
    <glyph glyph-name="uni043C" unicode="&#x43c;" horiz-adv-x="712" 
d="M551 483h66v-483h-49v408l-191 -408h-41l-191 406v-406h-49v483h65l196 -419z" />
    <glyph glyph-name="uni043D" unicode="&#x43d;" horiz-adv-x="570" 
d="M96 0v483h50v-199h279v199h50v-483h-50v237h-279v-237h-50z" />
    <glyph glyph-name="uni043E" unicode="&#x43e;" horiz-adv-x="602" 
d="M300 -10c-139 0 -249 110 -249 252s109 251 250 251c140 0 250 -110 250 -251c0 -142 -111 -252 -251 -252zM300 37c113 0 198 89 198 205s-85 204 -198 204c-112 0 -197 -88 -197 -204c0 -117 85 -205 197 -205z" />
    <glyph glyph-name="uni043F" unicode="&#x43f;" horiz-adv-x="560" 
d="M95 0v483h369v-483h-50v437h-269v-437h-50z" />
    <glyph glyph-name="uni0440" unicode="&#x440;" horiz-adv-x="628" 
d="M333 493c136 0 240 -109 240 -252s-103 -251 -239 -251c-87 0 -161 43 -196 107v-260h-50v646h48v-99c34 65 109 109 197 109zM328 37c111 0 193 86 193 204s-82 205 -193 205c-114 0 -190 -81 -190 -204s76 -205 190 -205z" />
    <glyph glyph-name="uni0441" unicode="&#x441;" horiz-adv-x="585" 
d="M302 -10c-142 0 -251 109 -251 251c0 143 109 252 251 252c116 0 208 -70 232 -176h-52c-22 79 -93 129 -180 129c-114 0 -199 -87 -199 -205c0 -117 85 -204 199 -204c88 0 157 50 180 129h52c-24 -106 -116 -176 -232 -176z" />
    <glyph glyph-name="uni0442" unicode="&#x442;" horiz-adv-x="447" 
d="M199 0v438h-181v45h411v-45h-180v-438h-50z" />
    <glyph glyph-name="uni0443" unicode="&#x443;" horiz-adv-x="481" 
d="M400 483h54l-248 -646h-56l63 163l-186 483h54l160 -425z" />
    <glyph glyph-name="uni045E" unicode="&#x45e;" horiz-adv-x="481" 
d="M400 483h54l-248 -646h-56l63 163l-186 483h54l160 -425zM240 563c-90 0 -142 61 -142 152h46c0 -69 31 -110 96 -110c66 0 97 41 97 110h46c0 -91 -53 -152 -143 -152z" />
    <glyph glyph-name="uni0444" unicode="&#x444;" horiz-adv-x="684" 
d="M317 -163v154c-156 1 -266 105 -266 251c0 145 111 249 266 250v181h50v-181c155 -1 266 -105 266 -250c0 -146 -110 -250 -266 -251v-154h-50zM317 36v411c-131 -5 -214 -84 -214 -205c0 -123 83 -203 214 -206zM367 447v-411c130 3 214 83 214 206
c0 121 -83 200 -214 205z" />
    <glyph glyph-name="uni0445" unicode="&#x445;" horiz-adv-x="490" 
d="M466 0h-59l-163 215l-161 -215h-59l189 252l-174 231h59l146 -195l148 195h59l-176 -232z" />
    <glyph glyph-name="uni0447" unicode="&#x447;" horiz-adv-x="511" 
d="M365 483h50v-483h-50v192c-33 -14 -72 -22 -111 -22c-117 0 -192 75 -192 209v104h52v-102c0 -108 54 -164 143 -164c40 0 78 9 108 24v242z" />
    <glyph glyph-name="uni0446" unicode="&#x446;" horiz-adv-x="580" 
d="M493 -125v125h-398v483h50v-437h269v437h50v-437h78v-171h-49z" />
    <glyph glyph-name="uni0448" unicode="&#x448;" horiz-adv-x="739" 
d="M95 0v483h50v-438h199v438h50v-438h199v438h50v-483h-548z" />
    <glyph glyph-name="uni0449" unicode="&#x449;" horiz-adv-x="759" 
d="M672 -125v125h-577v483h50v-438h199v438h50v-438h199v438h50v-438h78v-170h-49z" />
    <glyph glyph-name="uni045F" unicode="&#x45f;" horiz-adv-x="560" 
d="M464 483v-483h-159v-125h-49v125h-161v483h50v-437h269v437h50z" />
    <glyph glyph-name="uni044C" unicode="&#x44c;" horiz-adv-x="483" 
d="M95 0v483h50v-170h120c108 0 177 -61 177 -156s-69 -157 -177 -157h-170zM146 46h116c81 0 128 40 128 110s-47 111 -128 111h-116v-221z" />
    <glyph glyph-name="uni044A" unicode="&#x44a;" horiz-adv-x="506" 
d="M116 0v437h-124v46h175v-170h121c108 0 177 -61 177 -156s-69 -157 -177 -157h-172zM167 46h117c82 0 129 40 129 110s-48 111 -129 111h-117v-221z" />
    <glyph glyph-name="uni044B" unicode="&#x44b;" horiz-adv-x="674" 
d="M95 0v483h50v-170h120c108 0 177 -61 177 -156s-69 -157 -177 -157h-170zM146 46h116c81 0 128 40 128 110s-47 111 -128 111h-116v-221zM528 0v483h50v-483h-50z" />
    <glyph glyph-name="uni0459" unicode="&#x459;" horiz-adv-x="786" 
d="M15 -1v46c80 0 119 64 119 263v175h313v-172h121c108 0 177 -61 177 -154c0 -95 -69 -157 -177 -157h-171v438h-212v-134c0 -223 -59 -305 -170 -305zM447 46h117c82 0 129 40 129 110c0 68 -48 109 -129 109h-117v-219z" />
    <glyph glyph-name="uni045A" unicode="&#x45a;" horiz-adv-x="805" 
d="M95 0v483h50v-189h269v189h51v-189h124c109 0 175 -54 175 -145c0 -92 -67 -149 -175 -149h-175v249h-269v-249h-50zM465 46h121c81 0 125 36 125 102s-44 101 -125 101h-121v-203z" />
    <glyph glyph-name="uni0455" unicode="&#x455;" horiz-adv-x="435" 
d="M224 -10c-103 0 -172 59 -180 155h50c6 -68 56 -108 131 -108c71 0 117 34 117 88c0 41 -18 61 -74 80l-86 30c-83 28 -119 68 -119 131c0 76 64 127 159 127c93 0 154 -50 161 -135h-51c-7 58 -45 88 -111 88c-65 0 -105 -30 -105 -79c0 -43 19 -64 81 -85l86 -30
c76 -25 111 -66 111 -126c0 -81 -68 -136 -170 -136z" />
    <glyph glyph-name="uni0454" unicode="&#x454;" horiz-adv-x="585" 
d="M303 37c87 0 156 50 179 129h52c-24 -106 -116 -176 -231 -176c-142 0 -252 109 -252 251c0 143 110 252 252 252c115 0 207 -70 231 -176h-52c-22 79 -93 129 -179 129c-103 0 -184 -72 -198 -173h261v-46h-263c7 -110 91 -190 200 -190z" />
    <glyph glyph-name="uni044D" unicode="&#x44d;" horiz-adv-x="585" 
d="M282 37c109 0 193 80 200 190h-263v46h261c-14 101 -95 173 -198 173c-86 0 -157 -50 -179 -129h-52c24 106 116 176 231 176c142 0 252 -109 252 -252c0 -142 -110 -251 -252 -251c-115 0 -207 70 -231 176h52c23 -79 92 -129 179 -129z" />
    <glyph glyph-name="uni0456" unicode="&#x456;" horiz-adv-x="227" 
d="M114 607c-24 0 -41 17 -41 40s17 40 41 40c23 0 40 -17 40 -40s-17 -40 -40 -40zM88 0v483h50v-483h-50z" />
    <glyph glyph-name="uni0457" unicode="&#x457;" horiz-adv-x="227" 
d="M88 0v483h50v-483h-50zM28 607c-23 0 -40 17 -40 39s17 39 40 39s40 -17 40 -39s-17 -39 -40 -39zM200 607c-23 0 -40 17 -40 39s17 39 40 39s40 -17 40 -39s-17 -39 -40 -39z" />
    <glyph glyph-name="uni0458" unicode="&#x458;" horiz-adv-x="227" 
d="M115 607c-24 0 -41 17 -41 40s17 40 41 40c23 0 40 -17 40 -40s-17 -40 -40 -40zM-42 -163v46h36c65 0 94 29 94 95v505h51v-508c0 -91 -47 -138 -136 -138h-45z" />
    <glyph glyph-name="uni045B" unicode="&#x45b;" horiz-adv-x="556" 
d="M299 467c109 0 175 -77 175 -188v-279h-50v275c0 86 -51 144 -134 144c-84 0 -144 -60 -144 -144v-275h-50v543h-90v44h90v86h50v-86h224v-44h-224v-152c32 48 85 76 153 76z" />
    <glyph glyph-name="uni044E" unicode="&#x44e;" horiz-adv-x="834" 
d="M531 -10c-134 0 -241 102 -249 236h-137v-226h-50v485h50v-213h139c14 127 117 221 248 221c140 0 250 -110 250 -251c0 -142 -111 -252 -251 -252zM531 37c113 0 198 89 198 205s-85 204 -198 204c-112 0 -197 -88 -197 -204c0 -117 85 -205 197 -205z" />
    <glyph glyph-name="uni044F" unicode="&#x44f;" horiz-adv-x="516" 
d="M258 483h163v-483h-51v167h-118l-135 -167h-60l142 174c-77 20 -119 79 -119 150c0 89 64 159 178 159zM370 212v225h-109c-84 0 -128 -49 -128 -113c0 -62 44 -112 128 -112h109z" />
    <glyph glyph-name="uni0452" unicode="&#x452;" horiz-adv-x="555" 
d="M299 462c109 0 175 -77 175 -187v-302c0 -92 -47 -139 -137 -139h-44v46h36c65 0 95 31 95 98v293c0 85 -51 144 -134 144c-84 0 -144 -60 -144 -144v-271h-50v543h-90v44h90v86h50v-86h224v-44h-224v-156c32 47 85 75 153 75z" />
    <glyph glyph-name="uni0463" unicode="&#x463;" horiz-adv-x="511" 
d="M116 0v448h-110v44h110v181h51v-181h178v-43h-178v-136h122c112 0 178 -65 178 -156c0 -92 -66 -157 -178 -157h-173zM166 46h119c82 0 128 40 128 110s-47 111 -128 111h-119v-221z" />
    <glyph glyph-name="uni0473" unicode="&#x473;" horiz-adv-x="602" 
d="M301 493c139 0 250 -111 250 -251s-111 -252 -251 -252c-139 0 -249 112 -249 252s110 251 250 251zM300 446c-104 0 -184 -77 -196 -179c35 14 66 20 97 20c76 0 125 -37 199 -37c31 0 61 6 96 19c-12 102 -92 177 -196 177zM300 37c108 0 191 82 198 190
c-36 -14 -67 -20 -98 -20c-78 0 -126 37 -199 37c-31 0 -62 -6 -97 -20c8 -107 90 -187 196 -187z" />
    <glyph glyph-name="uni0475" unicode="&#x475;" horiz-adv-x="511" 
d="M468 483h34v-46h-26c-30 0 -46 -12 -58 -45l-150 -392h-55l-186 483h54l160 -427l133 355c20 52 46 72 94 72z" />
    <glyph glyph-name="uni0493" unicode="&#x493;" horiz-adv-x="465" 
d="M410 436h-251v-173h251v-47h-251v-216h-50v216h-85v47h85v220h301v-47z" />
    <glyph glyph-name="uni0497" unicode="&#x497;" horiz-adv-x="711" 
d="M625 -125v125h-53l-231 244v-244h-50v244l-231 -244h-64l241 253l-227 230h64l217 -225v225h50v-225l218 225h64l-227 -230l197 -208h80v-170h-48z" />
    <glyph glyph-name="uni0499" unicode="&#x499;" horiz-adv-x="491" 
d="M348 256c60 -19 91 -64 91 -120c0 -92 -81 -138 -167 -145v-116h-51v116c-83 8 -159 52 -171 140h51c17 -68 82 -94 146 -94c69 0 140 31 140 102c0 61 -52 91 -126 91h-88v45h89c68 0 99 41 99 85c0 58 -56 87 -115 87c-57 0 -115 -26 -129 -79h-49
c10 85 96 125 179 125c85 0 167 -42 167 -129c0 -45 -24 -85 -66 -108z" />
    <glyph glyph-name="uni049B" unicode="&#x49b;" horiz-adv-x="516" 
d="M429 -125v125h-48l-236 228v-228h-50v483h50v-234l216 234h65l-226 -241l202 -197h75v-170h-48z" />
    <glyph glyph-name="uni04A1" unicode="&#x4a1;" horiz-adv-x="456" 
d="M459 0h-66l-238 247v-247h-50v437h-113v46h163v-216l219 216h66l-229 -224z" />
    <glyph glyph-name="uni04A3" unicode="&#x4a3;" horiz-adv-x="590" 
d="M503 -125v125h-79v237h-279v-237h-50v483h50v-199h279v199h50v-437h77v-171h-48z" />
    <glyph glyph-name="uni04AB" unicode="&#x4ab;" horiz-adv-x="585" 
d="M329 -125h-51v117c-130 11 -227 115 -227 249c0 143 109 252 251 252c116 0 208 -70 232 -176h-52c-22 79 -93 129 -180 129c-114 0 -199 -87 -199 -205c0 -117 85 -204 199 -204c88 0 157 50 180 129h52c-22 -98 -102 -165 -205 -175v-116z" />
    <glyph glyph-name="uni04AF" unicode="&#x4af;" horiz-adv-x="480" 
d="M454 483l-188 -483h-1v-180h-50v183l-188 480h55l159 -421l158 421h55z" />
    <glyph glyph-name="uni04B1" unicode="&#x4b1;" horiz-adv-x="510" 
d="M469 483l-188 -483h160v-46h-161v-134h-50v134h-159v46h159v3l-188 480h55l159 -421l158 421h55z" />
    <glyph glyph-name="uni04B3" unicode="&#x4b3;" horiz-adv-x="549" 
d="M433 45h78v-170h-48v125h-56l-163 215l-161 -215h-59l189 252l-174 231h59l146 -195l148 195h59l-176 -231z" />
    <glyph glyph-name="uni04B7" unicode="&#x4b7;" horiz-adv-x="556" 
d="M440 46h79v-171h-49v125h-80v192c-35 -13 -80 -22 -123 -22c-126 0 -205 68 -205 208v105h50v-103c0 -115 61 -163 158 -163c40 0 86 9 120 24v242h50v-437z" />
    <glyph glyph-name="uni04BB" unicode="&#x4bb;" horiz-adv-x="548" 
d="M291 493c106 0 175 -73 175 -188v-305h-50v302c0 87 -53 144 -134 144c-83 0 -144 -60 -144 -144v-302h-50v673h50v-255c32 48 86 75 153 75z" />
    <glyph glyph-name="uni04CF" unicode="&#x4cf;" horiz-adv-x="241" 
d="M95 0v673h50v-673h-50z" />
    <glyph glyph-name="uni04D9" unicode="&#x4d9;" horiz-adv-x="576" 
d="M286 -10c-145 0 -243 111 -234 264h421c-6 114 -85 192 -194 192c-76 0 -129 -32 -160 -96h-56c36 91 114 143 216 143c141 0 246 -107 246 -252c0 -143 -103 -251 -239 -251zM287 37c97 0 171 71 184 171h-367c6 -102 80 -171 183 -171z" />
    <glyph glyph-name="uni04E3" unicode="&#x4e3;" horiz-adv-x="585" 
d="M441 492h48v-492h-50v414l-295 -423h-48v492h50v-415zM171 601v43h244v-43h-244z" />
    <glyph glyph-name="uni04E7" unicode="&#x4e7;" horiz-adv-x="602" 
d="M216 607c-23 0 -40 17 -40 39s17 39 40 39s40 -17 40 -39s-17 -39 -40 -39zM388 607c-23 0 -40 17 -40 39s17 39 40 39s40 -17 40 -39s-17 -39 -40 -39zM300 -10c-139 0 -249 110 -249 252s109 251 250 251c140 0 250 -110 250 -251c0 -142 -111 -252 -251 -252zM300 37
c113 0 198 89 198 205s-85 204 -198 204c-112 0 -197 -88 -197 -204c0 -117 85 -205 197 -205z" />
    <glyph glyph-name="uni04E9" unicode="&#x4e9;" horiz-adv-x="602" 
d="M301 493c139 0 250 -111 250 -251s-111 -252 -251 -252c-139 0 -249 112 -249 252s110 251 250 251zM300 446c-102 0 -181 -73 -195 -173h391c-14 100 -93 173 -196 173zM300 37c108 0 191 81 198 190h-395c7 -109 90 -190 197 -190z" />
    <glyph glyph-name="uni04EF" unicode="&#x4ef;" horiz-adv-x="481" 
d="M118 601v43h244v-43h-244zM400 483h54l-248 -646h-56l63 163l-186 483h54l160 -425z" />
    <glyph glyph-name="uni04F3" unicode="&#x4f3;" horiz-adv-x="481" 
d="M141 560l103 165h53l-105 -165h-51zM283 560l104 165h54l-109 -165h-49zM400 483h54l-248 -646h-56l63 163l-186 483h54l160 -425z" />
    <glyph glyph-name="uni0432.loclBGR" horiz-adv-x="553" 
d="M366 366c84 -24 136 -88 136 -178c0 -116 -91 -198 -218 -198c-125 0 -203 82 -203 214v274c0 127 72 205 189 205c107 0 182 -68 182 -166c0 -69 -32 -123 -86 -151zM267 636c-86 0 -136 -57 -136 -157v-96h126c89 0 142 49 142 131c0 75 -51 122 -132 122zM282 37
c101 0 167 60 167 151c0 90 -71 149 -180 149h-138v-132c0 -107 56 -168 151 -168z" />
    <glyph glyph-name="uni0433.loclBGR" horiz-adv-x="436" 
d="M211 -10c-104 0 -170 51 -170 130c0 61 38 105 112 132l88 30c56 20 77 43 77 83c0 51 -38 81 -102 81c-65 0 -107 -32 -112 -88h-52c7 84 69 135 163 135s155 -51 155 -128c0 -62 -35 -102 -113 -130l-88 -31c-51 -18 -76 -45 -76 -84c0 -53 42 -83 118 -83
s125 40 131 108h50c-7 -96 -76 -155 -181 -155z" />
    <glyph glyph-name="uni0453.loclBGR" horiz-adv-x="436" 
d="M211 -10c-104 0 -170 51 -170 130c0 61 38 105 112 132l88 30c56 20 77 43 77 83c0 51 -38 81 -102 81c-65 0 -107 -32 -112 -88h-52c7 84 69 135 163 135s155 -51 155 -128c0 -62 -35 -102 -113 -130l-88 -31c-51 -18 -76 -45 -76 -84c0 -53 42 -83 118 -83
s125 40 131 108h50c-7 -96 -76 -155 -181 -155zM183 560l94 165h58l-100 -165h-52z" />
    <glyph glyph-name="uni0491.loclBGR" horiz-adv-x="436" 
d="M211 -10c-104 0 -170 51 -170 130c0 61 38 105 112 132l88 30c56 20 77 43 77 83c0 51 -38 81 -102 81c-65 0 -107 -32 -112 -88h-52c6 76 58 125 137 133v113h50v-113c80 -8 131 -56 131 -126c0 -62 -35 -102 -113 -130l-88 -31c-51 -18 -76 -45 -76 -84
c0 -53 42 -83 118 -83s125 40 131 108h50c-7 -96 -76 -155 -181 -155z" />
    <glyph glyph-name="uni0434.loclBGR" horiz-adv-x="627" 
d="M490 483h49v-433c0 -142 -98 -223 -243 -223c-124 0 -207 58 -224 152h51c19 -68 80 -106 173 -106c117 0 192 61 192 177v62c-35 -62 -109 -105 -195 -105c-133 0 -239 108 -239 244s106 242 239 242c88 0 163 -43 197 -107v97zM299 55c112 0 189 79 189 196
c0 116 -77 195 -189 195c-111 0 -194 -84 -194 -195c0 -112 83 -196 194 -196z" />
    <glyph glyph-name="uni0436.loclBGR" horiz-adv-x="632" 
d="M636 0h-64l-231 244v-244h-50v244l-231 -244h-64l238 253l-224 230h64l217 -225v415h50v-415l218 225h64l-225 -230z" />
    <glyph glyph-name="uni0437.loclBGR" horiz-adv-x="470" 
d="M297 180c77 -24 122 -84 121 -169c0 -111 -80 -184 -198 -184c-111 0 -181 60 -190 167h50c6 -75 58 -120 139 -120c88 0 147 55 147 140c0 86 -64 141 -162 141h-58v37h1v9h57c82 0 140 52 140 124c0 75 -49 120 -127 120c-75 0 -121 -41 -128 -112h-50
c8 99 77 160 180 160c106 0 177 -66 177 -164c0 -68 -38 -123 -99 -149z" />
    <glyph glyph-name="uni0438.loclBGR" horiz-adv-x="548" 
d="M409 483h51v-483h-49v70c-30 -51 -84 -80 -154 -80c-107 0 -176 73 -176 188v305h50v-302c0 -87 53 -144 135 -144c83 0 143 60 143 144v302z" />
    <glyph glyph-name="uni0439.loclBGR" horiz-adv-x="548" 
d="M409 483h51v-483h-49v70c-30 -51 -84 -80 -154 -80c-107 0 -176 73 -176 188v305h50v-302c0 -87 53 -144 135 -144c83 0 143 60 143 144v302zM270 563c-90 0 -142 61 -142 152h46c0 -69 31 -110 96 -110c66 0 97 41 97 110h46c0 -91 -53 -152 -143 -152z" />
    <glyph glyph-name="uni045D.loclBGR" horiz-adv-x="548" 
d="M248 560l-100 166h59l94 -166h-53zM409 483h51v-483h-49v70c-30 -51 -84 -80 -154 -80c-107 0 -176 73 -176 188v305h50v-302c0 -87 53 -144 135 -144c83 0 143 60 143 144v302z" />
    <glyph glyph-name="uni043A.loclBGR" horiz-adv-x="446" 
d="M449 0h-66l-245 235v-235h-50v673h50v-428l223 238h64l-226 -241z" />
    <glyph glyph-name="uni045C.loclBGR" horiz-adv-x="446" 
d="M233 560l94 165h58l-100 -165h-52zM449 0h-66l-245 235v-235h-50v673h50v-428l223 238h64l-226 -241z" />
    <glyph glyph-name="uni043B.loclBGR" horiz-adv-x="480" 
d="M400 0l-159 425l-160 -425h-54l186 483h55l186 -483h-54z" />
    <glyph glyph-name="uni043F.loclBGR" horiz-adv-x="548" 
d="M290 493c108 0 177 -73 177 -188v-305h-51v302c0 87 -53 144 -134 144c-83 0 -144 -60 -144 -144v-302h-50v483h48v-71c30 51 85 81 154 81z" />
    <glyph glyph-name="uni0442.loclBGR" horiz-adv-x="856" 
d="M599 493c109 0 175 -70 175 -188v-305h-51v302c0 88 -49 144 -127 144s-140 -59 -140 -136v-310h-50v302c0 88 -50 144 -129 144c-81 0 -139 -60 -139 -144v-302h-50v483h48v-64c32 47 84 74 149 74c72 0 125 -33 151 -93c31 57 91 93 163 93z" />
    <glyph glyph-name="uni0447.loclBGR" horiz-adv-x="535" 
d="M389 483h50v-483h-50v165c-36 -14 -81 -23 -122 -23c-131 0 -205 75 -205 209v132h50v-130c0 -107 54 -164 157 -164c43 0 87 9 120 24v270z" />
    <glyph glyph-name="uni0446.loclBGR" horiz-adv-x="581" 
d="M518 46h25v-171h-48v125c-42 4 -69 25 -80 63c-33 -46 -88 -73 -157 -73c-107 0 -177 73 -177 188v305h50v-302c0 -87 53 -144 134 -144c83 0 144 60 144 144v302h50v-364c0 -51 18 -73 59 -73z" />
    <glyph glyph-name="uni0448.loclBGR" horiz-adv-x="858" 
d="M257 -10c-109 0 -175 70 -175 188v305h51v-302c0 -88 49 -144 127 -144s140 59 140 136v310h50v-302c0 -88 50 -144 129 -144c81 0 139 60 139 144v302h50v-483h-48v64c-32 -47 -84 -74 -149 -74c-72 0 -125 33 -151 93c-31 -57 -91 -93 -163 -93z" />
    <glyph glyph-name="uni0449.loclBGR" horiz-adv-x="889" 
d="M825 46h26v-171h-49v125c-41 4 -68 24 -79 62c-32 -46 -83 -72 -146 -72c-75 0 -130 34 -157 94c-31 -58 -93 -94 -168 -94c-105 0 -171 72 -171 188v305h50v-302c0 -88 50 -144 128 -144s140 59 140 136v310h50v-302c0 -88 50 -144 129 -144c81 0 138 60 138 144v302h51
v-364c0 -52 18 -73 58 -73z" />
    <glyph glyph-name="uni044C.loclBGR" horiz-adv-x="484" 
d="M131 313h130c111 0 182 -61 182 -157c0 -99 -71 -166 -180 -166c-117 0 -182 76 -182 192v301h50v-170zM262 37c82 0 129 45 129 118c0 71 -49 113 -132 113h-128v-87c0 -88 43 -144 131 -144z" />
    <glyph glyph-name="uni044A.loclBGR" horiz-adv-x="520" 
d="M299 -10c-117 0 -182 76 -182 192v255h-125v46h175v-170h130c111 0 182 -61 182 -157c0 -99 -71 -166 -180 -166zM299 37c81 0 128 45 128 118c0 71 -48 113 -132 113h-127v-87c0 -88 42 -144 131 -144z" />
    <glyph glyph-name="uni044B.loclBGR" horiz-adv-x="675" 
d="M131 313h130c111 0 182 -61 182 -157c0 -99 -71 -166 -180 -166c-117 0 -182 76 -182 192v301h50v-170zM262 37c82 0 129 45 129 118c0 71 -49 113 -132 113h-128v-87c0 -88 43 -144 131 -144zM529 0v483h50v-483h-50z" />
    <glyph glyph-name="uni044E.loclBGR" horiz-adv-x="833" 
d="M530 -10c-137 0 -246 107 -249 246h-136v-236h-50v673h50v-391h139c18 122 119 211 247 211c140 0 250 -110 250 -251c0 -142 -111 -252 -251 -252zM530 37c113 0 198 89 198 205s-85 204 -198 204c-112 0 -197 -88 -197 -204c0 -117 85 -205 197 -205z" />
    <glyph glyph-name="uni0431.loclSRB" horiz-adv-x="575" 
d="M209 538l146 -78c135 -71 169 -156 169 -236c0 -134 -98 -234 -236 -234c-137 0 -237 97 -237 232c0 139 108 231 222 232l-91 46c-57 28 -82 54 -82 95c0 44 38 78 100 78h280v-45h-273c-30 0 -53 -9 -53 -36c0 -23 16 -33 55 -54zM287 37c105 0 184 81 184 188
c0 105 -78 184 -183 184c-104 0 -185 -76 -185 -186c0 -106 76 -186 184 -186z" />
    <glyph glyph-name="uni0438.loclSRB" horiz-adv-x="569" 
d="M424 483h50v-483h-50v353l-279 -289v-64h-50v483h50v-354l279 288v66z" />
    <glyph glyph-name="uni04D4" unicode="&#x4d4;" horiz-adv-x="821" 
d="M534 47h244v-47h-286l-33 186h-289l-95 -186h-55l343 673h403v-47h-333l43 -247h281v-48h-272zM385 617l-192 -385h258z" />
    <glyph glyph-name="uni04D5" unicode="&#x4d5;" horiz-adv-x="912" 
d="M627 493c145 0 243 -112 233 -266h-421c7 -113 85 -190 195 -190c77 0 129 31 160 96h56c-38 -92 -115 -143 -217 -143c-97 0 -175 49 -215 127c-27 -79 -101 -127 -201 -127s-164 54 -164 137c0 90 63 143 169 143h163v40c0 86 -47 136 -129 136
c-75 0 -120 -36 -129 -102h-51c9 93 77 149 180 149c88 0 147 -41 168 -114c41 70 115 114 203 114zM626 446c-100 0 -174 -71 -186 -175h368c-4 104 -77 175 -182 175zM223 34c94 0 162 60 162 145v47h-158c-79 0 -122 -33 -122 -94s44 -98 118 -98z" />
    <glyph glyph-name="Alpha" unicode="&#x391;" horiz-adv-x="661" 
d="M564 0l-71 187h-323l-72 -187h-55l261 673h55l260 -673h-55zM332 614l-145 -381h289z" />
    <glyph glyph-name="Beta" unicode="&#x392;" horiz-adv-x="606" 
d="M432 362c79 -25 123 -85 123 -173c0 -116 -84 -189 -219 -189h-234v673h231c118 0 191 -61 191 -162c0 -71 -33 -123 -92 -149zM154 47h178c106 0 169 54 169 145c0 89 -65 143 -171 143h-176v-288zM330 627h-176v-245h174c90 0 142 46 142 124s-49 121 -140 121z" />
    <glyph glyph-name="Gamma" unicode="&#x393;" horiz-adv-x="473" 
d="M102 673h345v-47h-293v-626h-52v673z" />
    <glyph glyph-name="uni0394" unicode="&#x394;" horiz-adv-x="662" 
d="M360 673l243 -626v-47h-544v47l245 626h56zM332 615l-216 -568h433z" />
    <glyph glyph-name="Epsilon" unicode="&#x395;" horiz-adv-x="536" 
d="M102 0v673h381v-47h-329v-248h319v-47h-319v-284h340v-47h-392z" />
    <glyph glyph-name="Zeta" unicode="&#x396;" horiz-adv-x="564" 
d="M113 47h400v-47h-458v47l395 579h-371v47h430v-48z" />
    <glyph glyph-name="Eta" unicode="&#x397;" horiz-adv-x="685" 
d="M102 0v673h52v-285h378v285h52v-673h-52v340h-378v-340h-52z" />
    <glyph glyph-name="Theta" unicode="&#x398;" horiz-adv-x="802" 
d="M401 -10c-194 0 -344 151 -344 347s149 346 344 346c194 0 344 -150 344 -346s-150 -347 -344 -347zM401 39c165 0 290 129 290 299c0 168 -125 296 -290 296s-290 -127 -290 -296c0 -171 125 -299 290 -299zM212 316v47h378v-47h-378z" />
    <glyph glyph-name="Iota" unicode="&#x399;" horiz-adv-x="255" 
d="M102 0v673h52v-673h-52z" />
    <glyph glyph-name="Kappa" unicode="&#x39a;" horiz-adv-x="561" 
d="M541 0h-67l-320 345v-345h-52v673h52v-301l303 301h67l-316 -313z" />
    <glyph glyph-name="Lambda" unicode="&#x39b;" horiz-adv-x="645" 
d="M602 0h-55l-224 606l-224 -606h-56l252 673h56z" />
    <glyph glyph-name="Mu" unicode="&#x39c;" horiz-adv-x="837" 
d="M660 673h76v-673h-52v596l-240 -596h-50l-240 596v-596h-52v673h75l242 -605z" />
    <glyph glyph-name="Nu" unicode="&#x39d;" horiz-adv-x="686" 
d="M532 673h52v-673h-56l-374 595v-595h-52v673h62l368 -583v583z" />
    <glyph glyph-name="Xi" unicode="&#x39e;" horiz-adv-x="567" 
d="M43 626v47h481v-47h-481zM78 331v47h410v-47h-410zM43 0v47h481v-47h-481z" />
    <glyph glyph-name="Omicron" unicode="&#x39f;" horiz-adv-x="802" 
d="M401 -10c-194 0 -344 151 -344 347s149 346 344 346c194 0 344 -150 344 -346s-150 -347 -344 -347zM401 39c165 0 290 129 290 299c0 168 -125 296 -290 296s-290 -127 -290 -296c0 -171 125 -299 290 -299z" />
    <glyph glyph-name="Pi" unicode="&#x3a0;" horiz-adv-x="658" 
d="M102 0v673h455v-673h-52v626h-351v-626h-52z" />
    <glyph glyph-name="Rho" unicode="&#x3a1;" horiz-adv-x="544" 
d="M102 0v673h199c123 0 202 -73 202 -188c0 -116 -78 -191 -202 -191h-147v-294h-52zM153 342h144c94 0 151 52 151 142c0 89 -56 142 -151 142h-144v-284z" />
    <glyph glyph-name="Sigma" unicode="&#x3a3;" horiz-adv-x="528" 
d="M107 47h386v-47h-444v48l196 290l-196 287v48h432v-47h-374l197 -289z" />
    <glyph glyph-name="Tau" unicode="&#x3a4;" horiz-adv-x="547" 
d="M245 0v626h-207v47h470v-47h-211v-626h-52z" />
    <glyph glyph-name="Upsilon" unicode="&#x3a5;" horiz-adv-x="599" 
d="M550 673l-225 -383v-290h-52v292l-225 381h58l193 -334l193 334h58z" />
    <glyph glyph-name="Phi" unicode="&#x3a6;" horiz-adv-x="788" 
d="M731 337c0 -151 -102 -302 -311 -313v-94h-52v94c-209 11 -311 162 -311 313s101 301 311 312v94h52v-94c209 -11 311 -162 311 -312zM110 337c0 -127 84 -253 258 -264v527c-174 -11 -258 -137 -258 -263zM420 600v-527c174 11 257 138 257 264s-83 252 -257 263z" />
    <glyph glyph-name="Chi" unicode="&#x3a7;" horiz-adv-x="606" 
d="M564 0h-60l-201 308l-201 -308h-60l230 347l-215 326h60l186 -285l185 285h60l-214 -325z" />
    <glyph glyph-name="Psi" unicode="&#x3a8;" horiz-adv-x="693" 
d="M321 0v158c-175 0 -274 94 -274 260v255h52v-254c0 -140 76 -213 222 -213v488h52v-488c144 0 222 74 222 213v254h52v-255c0 -166 -99 -260 -274 -260v-158h-52z" />
    <glyph glyph-name="uni03A9" unicode="&#x3a9;" horiz-adv-x="818" 
d="M752 350c0 -124 -61 -223 -185 -303h176v-47h-268v47c146 66 223 167 223 299c0 167 -123 288 -289 288c-167 0 -289 -120 -289 -287c0 -132 77 -234 223 -300v-47h-268v47h174c-123 78 -183 179 -183 303c0 191 147 333 342 333c196 0 344 -143 344 -333z" />
    <glyph glyph-name="Alphatonos" unicode="&#x386;" horiz-adv-x="711" 
d="M72 480l18 193h58l-35 -193h-41zM614 0l-71 187h-323l-72 -187h-55l261 673h55l260 -673h-55zM382 614l-145 -381h289z" />
    <glyph glyph-name="Epsilontonos" unicode="&#x388;" horiz-adv-x="736" 
d="M72 480l18 193h58l-35 -193h-41zM302 0v673h381v-47h-329v-248h319v-47h-319v-284h340v-47h-392z" />
    <glyph glyph-name="Etatonos" unicode="&#x389;" horiz-adv-x="875" 
d="M72 480l18 193h58l-35 -193h-41zM292 0v673h52v-285h378v285h52v-673h-52v340h-378v-340h-52z" />
    <glyph glyph-name="Iotatonos" unicode="&#x38a;" horiz-adv-x="445" 
d="M72 480l18 193h58l-35 -193h-41zM292 0v673h52v-673h-52z" />
    <glyph glyph-name="Omicrontonos" unicode="&#x38c;" horiz-adv-x="932" 
d="M72 480l18 193h58l-35 -193h-41zM531 -10c-194 0 -344 151 -344 347s149 346 344 346c194 0 344 -150 344 -346s-150 -347 -344 -347zM531 39c165 0 290 129 290 299c0 168 -125 296 -290 296s-290 -127 -290 -296c0 -171 125 -299 290 -299z" />
    <glyph glyph-name="Upsilontonos" unicode="&#x38e;" horiz-adv-x="776" 
d="M72 480l18 193h58l-35 -193h-41zM727 673l-225 -383v-290h-52v292l-225 381h58l193 -334l193 334h58z" />
    <glyph glyph-name="Omegatonos" unicode="&#x38f;" horiz-adv-x="949" 
d="M883 350c0 -124 -61 -223 -185 -303h176v-47h-268v47c146 66 223 167 223 299c0 167 -123 288 -289 288c-167 0 -289 -120 -289 -287c0 -132 77 -234 223 -300v-47h-268v47h174c-123 78 -183 179 -183 303c0 191 147 333 342 333c196 0 344 -143 344 -333zM72 480l18 193
h58l-35 -193h-41z" />
    <glyph glyph-name="Iotadieresis" unicode="&#x3aa;" horiz-adv-x="255" 
d="M218 762c-24 0 -43 19 -43 42c0 24 18 43 43 43s43 -19 43 -43c0 -23 -18 -42 -43 -42zM36 762c-25 0 -43 19 -43 42c0 24 18 42 43 42s43 -18 43 -42c0 -23 -18 -42 -43 -42zM102 0v673h52v-673h-52z" />
    <glyph glyph-name="Upsilondieresis" unicode="&#x3ab;" horiz-adv-x="599" 
d="M390 762c-24 0 -43 19 -43 42c0 24 18 43 43 43s43 -19 43 -43c0 -23 -18 -42 -43 -42zM208 762c-25 0 -43 19 -43 42c0 24 18 42 43 42s43 -18 43 -42c0 -23 -18 -42 -43 -42zM550 673l-225 -383v-290h-52v292l-225 381h58l193 -334l193 334h58z" />
    <glyph glyph-name="Eta.ordn" horiz-adv-x="432" 
d="M66 269v404h47v-167h205v167h47v-404h-47v195h-205v-195h-47z" />
    <glyph glyph-name="Nu.ordn" horiz-adv-x="432" 
d="M318 673h48v-404h-51l-202 330v-330h-47v404h53l199 -325v325z" />
    <glyph glyph-name="Omicron.ordn" horiz-adv-x="491" 
d="M245 263c-119 0 -209 89 -209 208s89 208 209 208c119 0 210 -89 210 -208c0 -118 -91 -208 -210 -208zM245 306c92 0 160 71 160 166c0 93 -68 164 -160 164s-161 -70 -161 -164c0 -95 69 -166 161 -166z" />
    <glyph glyph-name="Sigma.ordn" horiz-adv-x="326" 
d="M86 311h217v-42h-270v42l108 161l-108 159v42h263v-42h-210l109 -159z" />
    <glyph glyph-name="alpha" unicode="&#x3b1;" horiz-adv-x="629" 
d="M580 47h30v-47h-41c-59 0 -91 32 -95 94c-34 -63 -105 -104 -185 -104c-130 0 -235 108 -235 251c0 142 105 252 233 252c82 0 153 -44 187 -109v99h48v-369c0 -45 19 -67 58 -67zM291 37c105 0 180 82 180 205s-75 204 -180 204c-103 0 -185 -87 -185 -205
s82 -204 185 -204z" />
    <glyph glyph-name="beta" unicode="&#x3b2;" horiz-adv-x="565" 
d="M387 362c80 -27 127 -90 127 -175c0 -116 -84 -197 -215 -197c-60 0 -117 17 -161 50v-203h-50l1 637c0 128 77 209 199 209c114 0 194 -73 194 -175c0 -67 -35 -119 -95 -146zM298 37c101 0 164 62 164 149c0 92 -71 151 -182 151h-40v45h38c96 0 151 49 151 125
s-58 129 -142 129c-92 0 -150 -62 -150 -160l1 -381c45 -38 101 -58 160 -58z" />
    <glyph glyph-name="gamma" unicode="&#x3b3;" horiz-adv-x="487" 
d="M394 483h51c-4 -91 -25 -164 -79 -277l-101 -212v-157h-50v160l-188 486h54l161 -427l82 171c50 105 68 170 70 256z" />
    <glyph glyph-name="delta" unicode="&#x3b4;" horiz-adv-x="575" 
d="M167 628l227 -178c85 -67 130 -131 130 -223c0 -139 -98 -237 -236 -237c-137 0 -237 97 -237 232c0 140 108 232 228 232c13 0 26 -1 39 -3l-224 176v46h390v-45h-317zM287 37c105 0 184 81 184 188c0 105 -77 183 -183 183c-104 0 -185 -75 -185 -185
c0 -106 76 -186 184 -186z" />
    <glyph glyph-name="epsilon" unicode="&#x3b5;" horiz-adv-x="491" 
d="M143 256c-42 23 -66 63 -66 108c0 87 82 129 167 129c83 0 169 -40 179 -125h-49c-14 53 -72 79 -129 79c-59 0 -115 -29 -115 -87c0 -44 31 -85 99 -85h89v-45h-88c-74 0 -126 -30 -126 -91c0 -71 71 -102 140 -102c64 0 129 26 146 94h51c-14 -97 -105 -141 -198 -141
c-95 0 -191 46 -191 146c0 56 31 101 91 120z" />
    <glyph glyph-name="zeta" unicode="&#x3b6;" horiz-adv-x="418" 
d="M408 625l-160 -172c-100 -107 -146 -172 -146 -253c0 -83 62 -139 172 -159l120 -22v-182h-50v143l-73 15c-143 25 -220 97 -220 205c0 88 52 163 163 284l131 142h-260v47h323v-48z" />
    <glyph glyph-name="eta" unicode="&#x3b7;" horiz-adv-x="568" 
d="M304 493c114 0 183 -73 183 -188v-468h-51v465c0 87 -52 144 -134 144c-83 0 -144 -60 -144 -144v-302h-50v370c0 46 -19 67 -59 67h-29v46h41c49 0 79 -22 91 -65c33 48 88 75 152 75z" />
    <glyph glyph-name="theta" unicode="&#x3b8;" horiz-adv-x="597" 
d="M298 683c147 0 225 -120 225 -346s-79 -347 -225 -347c-145 0 -224 121 -224 347s78 346 224 346zM298 636c-103 0 -164 -94 -171 -266h342c-7 172 -68 266 -171 266zM298 37c108 0 169 102 172 287h-344c3 -185 64 -287 172 -287z" />
    <glyph glyph-name="iota" unicode="&#x3b9;" horiz-adv-x="246" 
d="M226 0h-40c-63 0 -98 37 -98 106v377h50v-370c0 -46 19 -67 59 -67h29v-46z" />
    <glyph glyph-name="kappa" unicode="&#x3ba;" horiz-adv-x="440" 
d="M444 0h-66l-240 252v-252h-50v483h50v-213l224 213h65l-232 -223z" />
    <glyph glyph-name="lambda" unicode="&#x3bb;" horiz-adv-x="501" 
d="M466 46h17v-46h-28c-42 0 -68 20 -87 69l-118 312l-156 -381h-54l184 448l-43 113c-19 50 -43 67 -83 67h-15v45h23c58 0 94 -23 120 -91l188 -495c12 -31 26 -41 52 -41z" />
    <glyph glyph-name="uni03BC" unicode="&#x3bc;" horiz-adv-x="575" 
d="M525 46h30v-46h-39c-49 0 -81 23 -92 65c-31 -47 -83 -75 -147 -75c-63 0 -110 23 -140 62v-215h-49v646h50v-300c0 -89 54 -145 139 -145c80 0 139 61 139 144v301h51v-370c0 -46 19 -67 58 -67z" />
    <glyph glyph-name="nu" unicode="&#x3bd;" horiz-adv-x="487" 
d="M394 483h51c-4 -92 -25 -165 -79 -277l-98 -206h-55l-186 483h54l161 -428l82 172c50 106 68 170 70 256z" />
    <glyph glyph-name="xi" unicode="&#x3be;" horiz-adv-x="473" 
d="M103 193c0 -88 69 -135 198 -153l116 -16v-187h-51v147l-73 10c-157 21 -242 84 -242 198c0 76 49 136 126 168c-62 27 -99 82 -99 151c0 99 80 172 187 172c93 0 164 -53 184 -137h-52c-19 57 -68 91 -132 91c-77 0 -135 -54 -135 -126c0 -78 63 -133 151 -133h94v-46
h-102c-101 0 -170 -58 -170 -139z" />
    <glyph glyph-name="omicron" unicode="&#x3bf;" horiz-adv-x="602" 
d="M300 -10c-139 0 -249 110 -249 252s109 251 250 251c140 0 250 -110 250 -251c0 -142 -111 -252 -251 -252zM300 37c113 0 198 89 198 205s-85 204 -198 204c-112 0 -197 -88 -197 -204c0 -117 85 -205 197 -205z" />
    <glyph glyph-name="pi" unicode="&#x3c0;" horiz-adv-x="592" 
d="M104 0v437h-91v46h549v-46h-93v-324c0 -45 19 -67 59 -67h29v-46h-39c-64 0 -99 37 -99 106v331h-264v-437h-51z" />
    <glyph glyph-name="rho" unicode="&#x3c1;" horiz-adv-x="626" 
d="M323 493c141 0 248 -107 248 -251c0 -142 -105 -252 -242 -252c-86 0 -160 41 -198 103v-256h-50v400c0 151 101 256 242 256zM324 37c111 0 195 87 195 205c0 117 -84 204 -195 204s-192 -83 -192 -204c0 -122 82 -205 192 -205z" />
    <glyph glyph-name="uni03C2" unicode="&#x3c2;" horiz-adv-x="564" 
d="M288 446c-110 0 -185 -84 -185 -198c0 -143 105 -191 228 -210l115 -18v-183h-51v144l-71 11c-148 23 -273 86 -273 253c0 142 99 248 236 248c118 0 203 -73 226 -186h-52c-22 89 -87 139 -173 139z" />
    <glyph glyph-name="sigma" unicode="&#x3c3;" horiz-adv-x="625" 
d="M618 483v-46h-177c67 -39 110 -111 110 -195c0 -143 -109 -252 -251 -252c-141 0 -249 108 -249 249c0 142 105 244 266 244h301zM499 241c0 111 -85 195 -194 195c-118 0 -202 -84 -202 -196c0 -116 84 -203 197 -203s199 88 199 204z" />
    <glyph glyph-name="tau" unicode="&#x3c4;" horiz-adv-x="442" 
d="M421 437h-200v-299c0 -64 30 -92 98 -92h71v-46h-76c-97 0 -143 44 -143 133v304h-174v46h424v-46z" />
    <glyph glyph-name="upsilon" unicode="&#x3c5;" horiz-adv-x="544" 
d="M278 -10c-123 0 -197 70 -197 213v280h50v-282c0 -113 63 -164 152 -164c97 0 153 67 153 190c0 86 -26 185 -56 256h52c31 -73 55 -164 55 -253c0 -153 -77 -240 -209 -240z" />
    <glyph glyph-name="phi" unicode="&#x3c6;" horiz-adv-x="684" 
d="M317 -163v154c-156 1 -266 105 -266 251c0 145 111 249 266 250v181h50v-181c155 -1 266 -105 266 -250c0 -146 -110 -250 -266 -251v-154h-50zM317 36v411c-131 -5 -214 -84 -214 -205c0 -123 83 -203 214 -206zM367 447v-411c130 3 214 83 214 206
c0 121 -83 200 -214 205z" />
    <glyph glyph-name="chi" unicode="&#x3c7;" horiz-adv-x="476" 
d="M454 -117h19v-46h-30c-44 0 -69 15 -90 56l-118 221l-169 -277h-54l197 325l-119 242c-12 25 -25 33 -54 33h-22v46h33c44 0 68 -15 86 -54l107 -221l165 275h54l-193 -321l129 -245c15 -27 27 -34 59 -34z" />
    <glyph glyph-name="psi" unicode="&#x3c8;" horiz-adv-x="707" 
d="M337 -163v153c-156 0 -256 98 -256 249v244h50v-242c0 -124 81 -204 206 -204v598h50v-598c133 0 212 77 212 205c0 81 -26 174 -56 241h52c31 -69 56 -154 56 -239c0 -158 -100 -254 -264 -254v-153h-50z" />
    <glyph glyph-name="omega" unicode="&#x3c9;" horiz-adv-x="761" 
d="M556 483h57c58 -61 92 -154 92 -257c0 -145 -67 -236 -174 -236c-72 0 -126 37 -151 102c-24 -65 -79 -102 -151 -102c-107 0 -173 91 -173 236c0 101 34 196 92 257h58c-61 -63 -98 -161 -98 -259c0 -113 49 -187 123 -187c76 0 124 59 124 153v195h51v-195
c0 -94 47 -153 123 -153c75 0 124 74 124 187c0 100 -37 198 -97 259z" />
    <glyph glyph-name="iotatonos" unicode="&#x3af;" horiz-adv-x="246" 
d="M226 0h-40c-63 0 -98 37 -98 106v377h50v-370c0 -46 19 -67 59 -67h29v-46zM91 560l48 165h53l-55 -165h-46z" />
    <glyph glyph-name="iotadieresis" unicode="&#x3ca;" horiz-adv-x="246" 
d="M226 0h-40c-63 0 -98 37 -98 106v377h50v-370c0 -46 19 -67 59 -67h29v-46zM28 607c-23 0 -40 17 -40 39s17 39 40 39s40 -17 40 -39s-17 -39 -40 -39zM200 607c-23 0 -40 17 -40 39s17 39 40 39s40 -17 40 -39s-17 -39 -40 -39z" />
    <glyph glyph-name="iotadieresistonos" unicode="&#x390;" horiz-adv-x="246" 
d="M226 0h-40c-63 0 -98 37 -98 106v377h50v-370c0 -46 19 -67 59 -67h29v-46zM90 560l48 165h53l-55 -165h-46zM21 603c-21 0 -39 18 -39 39c0 22 18 39 39 39c23 0 40 -16 40 -39c0 -21 -17 -39 -40 -39zM251 603c-21 0 -39 18 -39 39c0 22 18 39 39 39
c23 0 40 -16 40 -39c0 -21 -17 -39 -40 -39z" />
    <glyph glyph-name="upsilontonos" unicode="&#x3cd;" horiz-adv-x="544" 
d="M278 -10c-123 0 -197 70 -197 213v280h50v-282c0 -113 63 -164 152 -164c97 0 153 67 153 190c0 86 -26 185 -56 256h52c31 -73 55 -164 55 -253c0 -153 -77 -240 -209 -240zM234 560l48 165h53l-55 -165h-46z" />
    <glyph glyph-name="upsilondieresis" unicode="&#x3cb;" horiz-adv-x="544" 
d="M278 -10c-123 0 -197 70 -197 213v280h50v-282c0 -113 63 -164 152 -164c97 0 153 67 153 190c0 86 -26 185 -56 256h52c31 -73 55 -164 55 -253c0 -153 -77 -240 -209 -240zM171 607c-23 0 -40 17 -40 39s17 39 40 39s40 -17 40 -39s-17 -39 -40 -39zM343 607
c-23 0 -40 17 -40 39s17 39 40 39s40 -17 40 -39s-17 -39 -40 -39z" />
    <glyph glyph-name="upsilondieresistonos" unicode="&#x3b0;" horiz-adv-x="544" 
d="M278 -10c-123 0 -197 70 -197 213v280h50v-282c0 -113 63 -164 152 -164c97 0 153 67 153 190c0 86 -26 185 -56 256h52c31 -73 55 -164 55 -253c0 -153 -77 -240 -209 -240zM233 560l48 165h53l-55 -165h-46zM164 603c-21 0 -39 18 -39 39c0 22 18 39 39 39
c23 0 40 -16 40 -39c0 -21 -17 -39 -40 -39zM394 603c-21 0 -39 18 -39 39c0 22 18 39 39 39c23 0 40 -16 40 -39c0 -21 -17 -39 -40 -39z" />
    <glyph glyph-name="omicrontonos" unicode="&#x3cc;" horiz-adv-x="602" 
d="M277 560l48 165h53l-55 -165h-46zM300 -10c-139 0 -249 110 -249 252s109 251 250 251c140 0 250 -110 250 -251c0 -142 -111 -252 -251 -252zM300 37c113 0 198 89 198 205s-85 204 -198 204c-112 0 -197 -88 -197 -204c0 -117 85 -205 197 -205z" />
    <glyph glyph-name="omegatonos" unicode="&#x3ce;" horiz-adv-x="761" 
d="M556 483h57c58 -61 92 -154 92 -257c0 -145 -67 -236 -174 -236c-72 0 -126 37 -151 102c-24 -65 -79 -102 -151 -102c-107 0 -173 91 -173 236c0 101 34 196 92 257h58c-61 -63 -98 -161 -98 -259c0 -113 49 -187 123 -187c76 0 124 59 124 153v195h51v-195
c0 -94 47 -153 123 -153c75 0 124 74 124 187c0 100 -37 198 -97 259zM358 560l48 165h53l-55 -165h-46z" />
    <glyph glyph-name="alphatonos" unicode="&#x3ac;" horiz-adv-x="629" 
d="M580 47h30v-47h-41c-59 0 -91 32 -95 94c-34 -63 -105 -104 -185 -104c-130 0 -235 108 -235 251c0 142 105 252 233 252c82 0 153 -44 187 -109v99h48v-369c0 -45 19 -67 58 -67zM291 37c105 0 180 82 180 205s-75 204 -180 204c-103 0 -185 -87 -185 -205
s82 -204 185 -204zM295 560l48 165h53l-55 -165h-46z" />
    <glyph glyph-name="epsilontonos" unicode="&#x3ad;" horiz-adv-x="491" 
d="M143 256c-42 23 -66 63 -66 108c0 87 82 129 167 129c83 0 169 -40 179 -125h-49c-14 53 -72 79 -129 79c-59 0 -115 -29 -115 -87c0 -44 31 -85 99 -85h89v-45h-88c-74 0 -126 -30 -126 -91c0 -71 71 -102 140 -102c64 0 129 26 146 94h51c-14 -97 -105 -141 -198 -141
c-95 0 -191 46 -191 146c0 56 31 101 91 120zM229 560l48 165h53l-55 -165h-46z" />
    <glyph glyph-name="etatonos" unicode="&#x3ae;" horiz-adv-x="568" 
d="M304 493c114 0 183 -73 183 -188v-468h-51v465c0 87 -52 144 -134 144c-83 0 -144 -60 -144 -144v-302h-50v370c0 46 -19 67 -59 67h-29v46h41c49 0 79 -22 91 -65c33 48 88 75 152 75zM279 560l48 165h53l-55 -165h-46z" />
    <glyph glyph-name="zero" unicode="0" horiz-adv-x="784" 
d="M392 -10c-193 0 -335 147 -335 347s142 346 335 346c192 0 335 -147 335 -346s-143 -347 -335 -347zM392 39c162 0 280 126 280 299c0 171 -118 296 -280 296c-163 0 -281 -124 -281 -296c0 -174 118 -299 281 -299z" />
    <glyph glyph-name="one" unicode="1" horiz-adv-x="339" 
d="M185 673h44v-673h-52v618l-138 -45l-14 47z" />
    <glyph glyph-name="two" unicode="2" horiz-adv-x="524" 
d="M114 47h363v-47h-416v33c0 118 78 199 179 258c126 73 171 116 171 198c0 90 -60 145 -139 145c-90 0 -148 -65 -148 -168h-53c0 133 78 217 200 217c113 0 193 -77 193 -193c0 -104 -61 -160 -186 -233c-104 -62 -158 -121 -164 -210z" />
    <glyph glyph-name="three" unicode="3" horiz-adv-x="544" 
d="M365 357c75 -26 117 -85 117 -169c0 -116 -90 -198 -219 -198c-127 0 -207 79 -211 212h53c4 -102 63 -163 157 -163c99 0 166 61 166 149s-63 143 -167 143h-61v40h1v7h60c87 0 141 48 141 130c0 78 -53 126 -138 126c-87 0 -145 -52 -148 -133h-53
c3 108 86 182 202 182c114 0 191 -69 191 -172c0 -73 -34 -128 -91 -154z" />
    <glyph glyph-name="four" unicode="4" horiz-adv-x="533" 
d="M503 177v-47h-101v-130h-52v130h-324v47l312 496h64v-496h101zM350 606l-268 -429h268v429z" />
    <glyph glyph-name="five" unicode="5" horiz-adv-x="565" 
d="M301 427c123 0 210 -89 210 -215c0 -130 -90 -222 -219 -222c-118 0 -203 80 -212 200h53c8 -90 72 -152 159 -152c96 0 166 73 166 174c0 98 -67 167 -163 167c-59 0 -114 -27 -149 -73h-50v367h376v-47h-326v-260c41 40 94 61 155 61z" />
    <glyph glyph-name="six" unicode="6" horiz-adv-x="547" 
d="M276 420c121 0 215 -94 215 -215c0 -122 -95 -215 -218 -215c-124 0 -218 92 -218 215c0 59 18 104 83 200l179 268h61l-182 -268c25 10 51 15 80 15zM274 37c94 0 165 72 165 167c0 96 -70 169 -165 169s-166 -73 -166 -169s70 -167 166 -167z" />
    <glyph glyph-name="seven" unicode="7" horiz-adv-x="478" 
d="M33 673h409v-48l-287 -625h-56l291 626h-357v47z" />
    <glyph glyph-name="eight" unicode="8" horiz-adv-x="547" 
d="M366 356c73 -29 119 -93 119 -175c0 -112 -88 -191 -212 -191c-123 0 -212 79 -212 188c0 83 48 148 123 178c-63 27 -104 83 -104 153c0 101 83 174 196 174c112 0 192 -72 192 -173c0 -71 -39 -127 -102 -154zM132 508c0 -74 61 -129 143 -129s141 55 141 130
s-57 127 -140 127c-85 0 -144 -52 -144 -128zM273 37c95 0 160 59 160 145c0 87 -64 148 -157 148c-95 0 -163 -63 -163 -150c0 -84 67 -143 160 -143z" />
    <glyph glyph-name="nine" unicode="9" horiz-adv-x="547" 
d="M271 253c-121 0 -215 94 -215 215c0 122 95 215 218 215c124 0 218 -92 218 -215c0 -59 -18 -104 -83 -200l-179 -268h-61l182 268c-25 -10 -51 -15 -80 -15zM273 636c-94 0 -165 -72 -165 -167c0 -96 70 -169 165 -169s166 73 166 169s-70 167 -166 167z" />
    <glyph glyph-name="zero.tf" horiz-adv-x="580" 
d="M290 -10c-135 0 -217 89 -217 237v219c0 148 82 237 217 237c136 0 217 -89 217 -237v-219c0 -148 -81 -237 -217 -237zM290 38c105 0 165 69 165 188v221c0 119 -60 188 -165 188c-103 0 -165 -70 -165 -188v-221c0 -118 62 -188 165 -188z" />
    <glyph glyph-name="one.tf" horiz-adv-x="580" 
d="M351 47h163v-47h-398v47h183v571l-188 -62l-14 47l210 70h44v-626z" />
    <glyph glyph-name="two.tf" horiz-adv-x="580" 
d="M146 47h363v-47h-416v33c0 118 78 199 179 258c126 73 171 116 171 198c0 90 -60 145 -139 145c-90 0 -148 -65 -148 -168h-53c0 133 78 217 200 217c113 0 193 -77 193 -193c0 -104 -61 -160 -186 -233c-104 -62 -158 -121 -164 -210z" />
    <glyph glyph-name="three.tf" horiz-adv-x="580" 
d="M390 357c75 -26 117 -85 117 -169c0 -116 -90 -198 -219 -198c-127 0 -207 79 -211 212h53c4 -102 63 -163 157 -163c99 0 166 61 166 149s-63 143 -167 143h-61v40h1v7h60c87 0 141 48 141 130c0 78 -53 126 -138 126c-87 0 -145 -52 -148 -133h-53
c3 108 86 182 202 182c114 0 191 -69 191 -172c0 -73 -34 -128 -91 -154z" />
    <glyph glyph-name="four.tf" horiz-adv-x="580" 
d="M525 177v-47h-101v-130h-52v130h-325v47l312 496h65v-496h101zM372 607l-269 -430h269v430z" />
    <glyph glyph-name="five.tf" horiz-adv-x="580" 
d="M313 427c123 0 210 -89 210 -215c0 -130 -90 -222 -219 -222c-118 0 -203 80 -212 200h53c8 -90 72 -152 159 -152c96 0 166 73 166 174c0 98 -67 167 -163 167c-59 0 -114 -27 -149 -73h-50v367h376v-47h-326v-260c41 40 94 61 155 61z" />
    <glyph glyph-name="six.tf" horiz-adv-x="580" 
d="M292 420c121 0 215 -94 215 -215c0 -122 -95 -215 -218 -215c-124 0 -218 92 -218 215c0 59 18 104 83 200l179 268h61l-182 -268c25 10 51 15 80 15zM290 37c94 0 165 72 165 167c0 96 -70 169 -165 169s-166 -73 -166 -169s70 -167 166 -167z" />
    <glyph glyph-name="seven.tf" horiz-adv-x="580" 
d="M75 673h419v-48l-287 -625h-56l291 626h-367v47z" />
    <glyph glyph-name="eight.tf" horiz-adv-x="580" 
d="M382 356c73 -29 119 -93 119 -175c0 -112 -88 -191 -212 -191c-123 0 -212 79 -212 188c0 83 48 148 123 178c-63 27 -104 83 -104 153c0 101 83 174 196 174c112 0 192 -72 192 -173c0 -71 -39 -127 -102 -154zM148 508c0 -74 61 -129 143 -129s141 55 141 130
s-57 127 -140 127c-85 0 -144 -52 -144 -128zM289 37c95 0 160 59 160 145c0 87 -64 148 -157 148c-95 0 -163 -63 -163 -150c0 -84 67 -143 160 -143z" />
    <glyph glyph-name="nine.tf" horiz-adv-x="580" 
d="M288 253c-121 0 -215 94 -215 215c0 122 95 215 218 215c124 0 218 -92 218 -215c0 -59 -18 -104 -83 -200l-179 -268h-61l182 268c-25 -10 -51 -15 -80 -15zM290 636c-94 0 -165 -72 -165 -167c0 -96 70 -169 165 -169s166 73 166 169s-70 167 -166 167z" />
    <glyph glyph-name="zero.zero" horiz-adv-x="784" 
d="M392 683c192 0 335 -147 335 -346s-143 -347 -335 -347c-193 0 -335 147 -335 347s142 346 335 346zM392 634c-163 0 -281 -124 -281 -296c0 -75 22 -140 59 -191l413 413c-49 47 -115 74 -191 74zM392 39c162 0 280 126 280 299c0 73 -21 137 -59 187l-412 -412
c49 -47 115 -74 191 -74z" />
    <glyph glyph-name="fraction" unicode="&#x2044;" horiz-adv-x="218" 
d="M-107 0l391 673h51l-391 -673h-51z" />
    <glyph glyph-name="onehalf" unicode="&#xbd;" horiz-adv-x="747" 
d="M125 0l391 673h51l-391 -673h-51zM125 673h40v-359h-45v315l-85 -27l-11 39zM514 38h200v-38h-247v18c0 54 33 96 107 140c74 42 93 63 93 101c0 42 -28 68 -74 68s-76 -31 -76 -80h-45c1 70 50 120 121 120c70 0 118 -44 119 -107c0 -50 -27 -83 -112 -133
c-57 -33 -80 -57 -86 -89z" />
    <glyph glyph-name="uni2153" unicode="&#x2153;" horiz-adv-x="753" 
d="M125 0l391 673h51l-391 -673h-51zM125 673h40v-359h-45v315l-85 -27l-11 39zM653 191c35 -15 56 -46 56 -87c0 -62 -51 -108 -120 -108c-73 0 -122 43 -124 116h44c2 -48 33 -76 79 -76s76 27 76 66c0 44 -29 69 -79 68h-33v38h33c42 0 65 22 65 61c0 36 -26 58 -66 58
c-39 0 -67 -23 -69 -60h-44c2 59 49 100 113 100c67 0 112 -40 112 -97c0 -35 -16 -63 -43 -79z" />
    <glyph glyph-name="uni2154" unicode="&#x2154;" horiz-adv-x="842" 
d="M223 0l391 673h51l-391 -673h-51zM89 352h200v-38h-247v18c0 54 33 96 107 140c74 42 93 63 93 101c0 42 -28 68 -74 68s-76 -31 -76 -80h-45c1 70 50 120 121 120c70 0 118 -44 119 -107c0 -50 -27 -83 -112 -133c-57 -33 -80 -57 -86 -89zM743 191
c35 -15 56 -46 56 -87c0 -62 -51 -108 -120 -108c-73 0 -122 43 -124 116h44c2 -48 33 -76 79 -76s76 27 76 66c0 44 -29 69 -79 68h-33v38h33c42 0 65 22 65 61c0 36 -26 58 -66 58c-39 0 -67 -23 -69 -60h-44c2 59 49 100 113 100c67 0 112 -40 112 -97
c0 -35 -16 -63 -43 -79z" />
    <glyph glyph-name="onequarter" unicode="&#xbc;" horiz-adv-x="711" 
d="M124 0l391 673h51l-391 -673h-51zM125 673h40v-359h-45v315l-85 -27l-11 39zM691 108v-38h-50v-70h-43v70h-189v34l179 257h53v-253h50zM598 307l-139 -199h139v199z" />
    <glyph glyph-name="threequarters" unicode="&#xbe;" horiz-adv-x="789" 
d="M210 0l391 673h51l-391 -673h-51zM224 505c35 -15 56 -46 56 -87c0 -62 -51 -108 -120 -108c-73 0 -122 43 -124 116h44c2 -48 33 -76 79 -76s76 27 76 66c0 44 -29 69 -79 68h-33v38h33c42 0 65 22 65 61c0 36 -26 58 -66 58c-39 0 -67 -23 -69 -60h-44
c2 59 49 100 113 100c67 0 112 -40 112 -97c0 -35 -16 -63 -43 -79zM768 108v-38h-50v-70h-43v70h-189v34l179 257h53v-253h50zM675 307l-139 -199h139v199z" />
    <glyph glyph-name="uni00B9" unicode="&#xb9;" horiz-adv-x="246" 
d="M124 773h40v-359h-45v315l-85 -27l-11 39z" />
    <glyph glyph-name="uni00B2" unicode="&#xb2;" horiz-adv-x="323" 
d="M89 452h200v-38h-247v18c0 54 33 96 107 140c74 42 93 63 93 101c0 42 -28 68 -74 68s-76 -31 -76 -80h-45c1 70 50 120 121 120c70 0 118 -44 119 -107c0 -50 -27 -83 -112 -133c-57 -33 -80 -57 -86 -89z" />
    <glyph glyph-name="uni00B3" unicode="&#xb3;" horiz-adv-x="324" 
d="M224 605c35 -15 56 -46 56 -87c0 -62 -51 -108 -120 -108c-73 0 -122 43 -124 116h44c2 -48 33 -76 79 -76s76 27 76 66c0 44 -29 69 -79 68h-33v38h33c42 0 65 22 65 61c0 36 -26 58 -66 58c-39 0 -67 -23 -69 -60h-44c2 59 49 100 113 100c67 0 112 -40 112 -97
c0 -35 -16 -63 -43 -79z" />
    <glyph glyph-name="uni2074" unicode="&#x2074;" horiz-adv-x="321" 
d="M300 522v-38h-50v-70h-43v70h-189v34l179 257h53v-253h50zM207 721l-139 -199h139v199z" />
    <glyph glyph-name="asterisk" unicode="*" horiz-adv-x="372" 
d="M330 586l-105 -59l105 -59l-20 -37l-105 63l2 -122h-42l2 122l-104 -63l-21 37l106 59l-106 59l21 36l104 -62l-2 121h42l-2 -122l105 63z" />
    <glyph glyph-name="backslash" unicode="\" horiz-adv-x="487" 
d="M420 -30h-51l-301 733h51z" />
    <glyph glyph-name="periodcentered" unicode="&#xb7;" horiz-adv-x="261" 
d="M130 308c-24 0 -44 19 -44 43s20 44 44 44c25 0 44 -20 44 -44s-19 -43 -44 -43z" />
    <glyph glyph-name="bullet" unicode="&#x2022;" horiz-adv-x="340" 
d="M171 209c-60 0 -118 45 -118 116s58 116 118 116s117 -45 117 -116s-57 -116 -117 -116z" />
    <glyph glyph-name="colon" unicode=":" horiz-adv-x="281" 
d="M140 349c-24 0 -44 19 -44 43s20 44 44 44c25 0 44 -20 44 -44s-19 -43 -44 -43zM140 -10c-24 0 -44 19 -44 43s20 44 44 44c25 0 44 -20 44 -44s-19 -43 -44 -43z" />
    <glyph glyph-name="comma" unicode="," horiz-adv-x="257" 
d="M89 -163l18 240h57l-29 -240h-46z" />
    <glyph glyph-name="ellipsis" unicode="&#x2026;" horiz-adv-x="760" 
d="M380 -10c-24 0 -44 19 -44 43s20 44 44 44c25 0 44 -20 44 -44s-19 -43 -44 -43zM133 -10c-24 0 -44 19 -44 43s20 44 44 44c25 0 44 -20 44 -44s-19 -43 -44 -43zM626 -10c-24 0 -44 19 -44 43s20 44 44 44c25 0 44 -20 44 -44s-19 -43 -44 -43z" />
    <glyph glyph-name="exclam" unicode="!" horiz-adv-x="255" 
d="M105 194l-7 479h60l-7 -479h-46zM127 -10c-23 0 -43 19 -43 43s20 43 43 43c25 0 44 -19 44 -43s-19 -43 -44 -43z" />
    <glyph glyph-name="exclamdown" unicode="&#xa1;" horiz-adv-x="271" 
d="M105 316h46l7 -479h-60zM127 520c25 0 44 -19 44 -43s-19 -43 -44 -43c-23 0 -43 19 -43 43s20 43 43 43z" />
    <glyph glyph-name="numbersign" unicode="#" horiz-adv-x="568" 
d="M549 424h-99l-25 -183h98v-45h-104l-27 -196h-49l27 196h-208l-27 -196h-49l26 196h-91v45h97l25 183h-96v46h102l26 191h50l-25 -191h207l25 191h50l-26 -191h93v-46zM376 241l26 183h-209l-25 -183h208z" />
    <glyph glyph-name="period" unicode="." horiz-adv-x="261" 
d="M130 -10c-24 0 -44 19 -44 43s20 44 44 44c25 0 44 -20 44 -44s-19 -43 -44 -43z" />
    <glyph glyph-name="question" unicode="?" horiz-adv-x="384" 
d="M55 673h111c108 0 172 -55 172 -148c0 -74 -30 -117 -166 -230v-101h-49v124c141 119 162 146 162 204c0 68 -44 103 -127 103h-103v48zM150 76c25 0 44 -19 44 -43s-19 -43 -44 -43c-23 0 -43 19 -43 43s20 43 43 43z" />
    <glyph glyph-name="questiondown" unicode="&#xbf;" horiz-adv-x="369" 
d="M329 -163h-111c-108 0 -172 55 -172 148c0 74 30 117 166 230v101h49v-124c-141 -119 -162 -146 -162 -204c0 -68 44 -103 127 -103h103v-48zM234 434c-25 0 -44 19 -44 43s19 43 44 43c23 0 43 -19 43 -43s-20 -43 -43 -43z" />
    <glyph glyph-name="quotedbl" unicode="&#x22;" horiz-adv-x="383" 
d="M92 425l-4 248h52v-248h-48zM242 425v248h52l-4 -248h-48z" />
    <glyph glyph-name="quotesingle" unicode="'" horiz-adv-x="232" 
d="M92 425l-4 248h55l-4 -248h-47z" />
    <glyph glyph-name="semicolon" unicode=";" horiz-adv-x="281" 
d="M140 349c-24 0 -44 19 -44 43s20 44 44 44c25 0 44 -20 44 -44s-19 -43 -44 -43zM99 -163l18 240h57l-29 -240h-46z" />
    <glyph glyph-name="slash" unicode="/" horiz-adv-x="487" 
d="M67 -30l301 733h51l-301 -733h-51z" />
    <glyph glyph-name="underscore" unicode="_" horiz-adv-x="486" 
d="M40 -126v47h406v-47h-406z" />
    <glyph glyph-name="exclamdown.case" horiz-adv-x="255" 
d="M105 479h46l7 -479h-60zM127 683c25 0 44 -19 44 -43s-19 -43 -44 -43c-23 0 -43 19 -43 43s20 43 43 43z" />
    <glyph glyph-name="questiondown.case" horiz-adv-x="384" 
d="M329 0h-111c-108 0 -172 55 -172 148c0 74 30 117 166 230v101h49v-124c-141 -119 -162 -146 -162 -204c0 -68 44 -103 127 -103h103v-48zM234 597c-25 0 -44 19 -44 43s19 43 44 43c23 0 43 -19 43 -43s-20 -43 -43 -43z" />
    <glyph glyph-name="braceleft" unicode="{" horiz-adv-x="394" 
d="M335 723h-47c-64 0 -94 -29 -94 -92c0 -62 29 -152 29 -209c0 -48 -18 -72 -59 -83c41 -10 59 -36 59 -84c0 -56 -29 -145 -29 -208s30 -92 94 -92h47v-46h-54c-91 0 -137 43 -137 131c0 69 29 159 29 210c0 45 -22 66 -68 66h-52v45h52c45 0 68 22 68 66
c0 49 -29 144 -29 212c0 87 45 129 137 129h54v-45z" />
    <glyph glyph-name="braceright" unicode="}" horiz-adv-x="394" 
d="M106 723h-47v45h54c92 0 137 -42 137 -129c0 -68 -29 -163 -29 -212c0 -44 23 -66 68 -66h52v-45h-52c-46 0 -68 -21 -68 -66c0 -51 29 -141 29 -210c0 -88 -46 -131 -137 -131h-54v46h47c64 0 94 29 94 92s-29 152 -29 208c0 48 18 74 59 84c-41 11 -59 35 -59 83
c0 57 29 147 29 209c0 63 -30 92 -94 92z" />
    <glyph glyph-name="bracketleft" unicode="[" horiz-adv-x="336" 
d="M98 -91v859h180v-45h-129v-768h129v-46h-180z" />
    <glyph glyph-name="bracketright" unicode="]" horiz-adv-x="336" 
d="M238 -91h-180v46h129v768h-129v45h180v-859z" />
    <glyph glyph-name="parenleft" unicode="(" horiz-adv-x="342" 
d="M313 -77h-64c-102 102 -163 256 -163 416c0 159 61 314 163 415h64c-106 -92 -177 -258 -177 -415c0 -158 71 -324 177 -416z" />
    <glyph glyph-name="parenright" unicode=")" horiz-adv-x="342" 
d="M93 -77h-64c106 92 177 258 177 416c0 157 -71 323 -177 415h64c102 -101 163 -256 163 -415c0 -160 -61 -314 -163 -416z" />
    <glyph glyph-name="emdash" unicode="&#x2014;" horiz-adv-x="998" 
d="M49 291v47h900v-47h-900z" />
    <glyph glyph-name="endash" unicode="&#x2013;" horiz-adv-x="498" 
d="M46 292v46h406v-46h-406z" />
    <glyph glyph-name="hyphen" unicode="-" horiz-adv-x="326" 
d="M50 292v46h226v-46h-226z" />
    <glyph glyph-name="uni00AD" unicode="&#xad;" horiz-adv-x="326" 
d="M50 292v46h226v-46h-226z" />
    <glyph glyph-name="emdash.down" horiz-adv-x="998" 
d="M49 251v47h900v-47h-900z" />
    <glyph glyph-name="endash.down" horiz-adv-x="498" 
d="M46 252v46h406v-46h-406z" />
    <glyph glyph-name="hyphen.down" horiz-adv-x="326" 
d="M50 252v46h226v-46h-226z" />
    <glyph glyph-name="guillemotleft" unicode="&#xab;" horiz-adv-x="396" 
d="M201 121h-59l-115 196l113 193h61l-114 -193zM365 121h-59l-115 196l113 193h61l-114 -193z" />
    <glyph glyph-name="guillemotright" unicode="&#xbb;" horiz-adv-x="396" 
d="M31 121l114 196l-114 193h61l113 -193l-115 -196h-59zM195 121l114 196l-114 193h61l113 -193l-115 -196h-59z" />
    <glyph glyph-name="guilsinglleft" unicode="&#x2039;" horiz-adv-x="232" 
d="M201 121h-59l-115 196l113 193h61l-114 -193z" />
    <glyph glyph-name="guilsinglright" unicode="&#x203a;" horiz-adv-x="232" 
d="M31 121l114 196l-114 193h61l113 -193l-115 -196h-59z" />
    <glyph glyph-name="quotedblbase" unicode="&#x201e;" horiz-adv-x="406" 
d="M90 -173l18 249h55l-25 -249h-48zM238 -173l23 249h54l-28 -249h-49z" />
    <glyph glyph-name="quotedblleft" unicode="&#x201c;" horiz-adv-x="406" 
d="M316 673l-18 -249h-55l25 249h48zM168 673l-23 -249h-54l28 249h49z" />
    <glyph glyph-name="quotedblright" unicode="&#x201d;" horiz-adv-x="406" 
d="M90 424l18 249h55l-25 -249h-48zM238 424l23 249h54l-28 -249h-49z" />
    <glyph glyph-name="quoteleft" unicode="&#x2018;" horiz-adv-x="256" 
d="M91 425l28 248h47l-18 -248h-57z" />
    <glyph glyph-name="quoteright" unicode="&#x2019;" horiz-adv-x="256" 
d="M90 424l18 249h57l-28 -249h-47z" />
    <glyph glyph-name="quotesinglbase" unicode="&#x201a;" horiz-adv-x="256" 
d="M90 -173l18 249h57l-28 -249h-47z" />
    <glyph glyph-name="uni00A0" unicode="&#xa0;" horiz-adv-x="272" 
 />
    <glyph glyph-name="cent" unicode="&#xa2;" horiz-adv-x="585" 
d="M272 -92v171c-127 14 -221 117 -221 249c0 133 94 236 221 250v173h51v-172c106 -8 188 -76 211 -175h-52c-22 79 -93 129 -180 129c-114 0 -199 -87 -199 -205c0 -117 85 -204 199 -204c88 0 157 50 180 129h52c-23 -100 -105 -168 -211 -176v-169h-51z" />
    <glyph glyph-name="currency" unicode="&#xa4;" horiz-adv-x="653" 
d="M546 330c0 -54 -18 -103 -49 -142l133 -134l-32 -32l-132 133c-39 -32 -90 -52 -145 -52c-53 0 -101 18 -139 49l-125 -130l-33 32l125 130c-32 39 -51 90 -51 146c0 55 19 106 50 145l-124 129l32 33l124 -130c39 32 88 51 142 51c55 0 105 -20 144 -52l131 131l33 -33
l-132 -131c30 -39 48 -89 48 -143zM321 150c98 0 173 78 173 180c0 103 -74 180 -172 180c-99 0 -172 -77 -172 -180s72 -180 171 -180z" />
    <glyph glyph-name="dollar" unicode="$" horiz-adv-x="522" 
d="M471 182c0 -91 -73 -152 -186 -159v-115h-51v115c-113 9 -185 77 -191 186h52c6 -88 69 -141 166 -141c98 0 158 41 158 114c0 60 -24 85 -107 114l-98 33c-101 36 -144 80 -144 154c0 83 66 141 164 149v119h51v-119c102 -9 163 -65 169 -161h-53
c-6 78 -55 118 -144 118c-84 0 -135 -41 -135 -106c0 -52 30 -81 112 -110l101 -35c101 -36 136 -77 136 -156z" />
    <glyph glyph-name="Euro" unicode="&#x20ac;" horiz-adv-x="837" 
d="M451 39c135 0 240 85 273 218h56c-35 -163 -163 -267 -330 -267c-157 0 -285 98 -328 240h-113v46h102c-3 20 -5 40 -5 61c0 17 1 34 3 50h-98v46h108c40 146 169 250 331 250c167 0 296 -104 330 -266h-56c-33 132 -138 217 -273 217c-131 0 -238 -82 -275 -201h374
l-12 -46h-372c-3 -16 -4 -32 -4 -49c0 -21 2 -42 6 -62h340l-12 -46h-316c41 -114 144 -191 271 -191z" />
    <glyph glyph-name="florin" unicode="&#x192;" horiz-adv-x="453" 
d="M375 673h51v-46h-44c-68 0 -101 -30 -109 -101l-17 -133h111v-46h-116l-42 -335c-12 -97 -62 -145 -153 -145h-51v47h43c69 0 101 29 110 100l41 333h-79v46h85l17 135c12 97 63 145 153 145z" />
    <glyph glyph-name="uni20B4" unicode="&#x20b4;" horiz-adv-x="562" 
d="M525 240h-375c-14 -19 -20 -42 -20 -69c0 -83 63 -135 161 -135c96 0 163 58 169 143h52c-7 -116 -92 -189 -221 -189s-212 70 -212 180c0 27 4 50 14 70h-56v45h91c21 19 51 36 89 52l103 42c14 6 27 12 39 19h-321v45h372c14 21 21 46 21 76c0 70 -58 118 -140 118
c-87 0 -142 -48 -147 -127h-52c5 107 82 173 199 173c112 0 190 -67 190 -164c0 -29 -5 -54 -15 -76h58v-45h-91c-22 -21 -53 -39 -93 -56l-102 -43l-31 -14h318v-45z" />
    <glyph glyph-name="uni20BA" unicode="&#x20ba;" horiz-adv-x="512" 
d="M425 285h50v-50c0 -154 -101 -235 -291 -235h-46v269l-101 -38v49l101 38v113l-101 -39v50l101 38v193h52v-178l197 73v-49l-197 -74v-112l197 74v-49l-197 -74v-237c153 1 235 68 235 192v46z" />
    <glyph glyph-name="uni20BD" unicode="&#x20bd;" horiz-adv-x="561" 
d="M115 0v157h-84v46h84v111h-84v46h84v313h210c118 0 195 -70 195 -177c0 -109 -79 -182 -195 -182h-157v-111h266v-46h-266v-157h-53zM167 360h152c91 0 147 51 147 135c0 82 -56 132 -147 132h-152v-267z" />
    <glyph glyph-name="sterling" unicode="&#xa3;" horiz-adv-x="495" 
d="M239 215c0 -67 -35 -130 -91 -169h310v-46h-401v37c87 45 131 103 131 176c0 28 -6 54 -15 79h-106v45h87c-26 56 -58 112 -58 179c0 102 73 167 186 167c115 0 185 -72 185 -190h-51c0 88 -51 143 -133 143c-83 0 -133 -47 -133 -125c0 -60 34 -114 60 -174h178v-45
h-161c7 -24 12 -50 12 -77z" />
    <glyph glyph-name="uni20B8" unicode="&#x20b8;" horiz-adv-x="612" 
d="M38 626v47h535v-47h-535zM280 0v467h-242v47h535v-47h-241v-467h-52z" />
    <glyph glyph-name="uni20AE" unicode="&#x20ae;" horiz-adv-x="612" 
d="M573 626h-241v-229l189 66v-49l-189 -67v-112l189 67v-49l-189 -67v-186h-52v171l-187 -67v49l187 67v112l-187 -66v49l187 66v245h-242v47h535v-47z" />
    <glyph glyph-name="yen" unicode="&#xa5;" horiz-adv-x="599" 
d="M550 673l-200 -341h177v-45h-202v-112h202v-46h-202v-129h-52v129h-201v46h201v112h-201v45h177l-201 341h58l193 -334l193 334h58z" />
    <glyph glyph-name="uni2126" unicode="&#x2126;" horiz-adv-x="818" 
d="M752 350c0 -124 -61 -223 -185 -303h176v-47h-268v47c146 66 223 167 223 299c0 167 -123 288 -289 288c-167 0 -289 -120 -289 -287c0 -132 77 -234 223 -300v-47h-268v47h174c-123 78 -183 179 -183 303c0 191 147 333 342 333c196 0 344 -143 344 -333z" />
    <glyph glyph-name="approxequal" unicode="&#x2248;" horiz-adv-x="580" 
d="M397 385c-32 0 -59 8 -115 35c-55 26 -78 33 -105 33c-31 0 -58 -12 -106 -46v52c46 34 72 45 111 45c32 0 58 -8 115 -35c56 -26 79 -33 106 -33c29 0 57 12 104 46v-52c-44 -34 -72 -45 -110 -45zM397 180c-32 0 -59 8 -115 35c-55 26 -78 33 -105 33
c-31 0 -58 -12 -106 -46v52c46 34 72 45 111 45c32 0 58 -8 115 -35c56 -26 79 -33 106 -33c29 0 57 12 104 46v-52c-44 -34 -72 -45 -110 -45z" />
    <glyph glyph-name="asciitilde" unicode="~" horiz-adv-x="580" 
d="M402 285c-33 0 -61 8 -120 35c-57 26 -81 33 -109 33c-32 0 -60 -12 -110 -46v52c47 34 75 45 115 45c33 0 61 -8 120 -35c58 -26 82 -33 110 -33c31 0 60 12 109 46v-52c-46 -34 -75 -45 -115 -45z" />
    <glyph glyph-name="uni2219" unicode="&#x2219;" horiz-adv-x="260" 
d="M130 308c-24 0 -44 19 -44 43s20 44 44 44c25 0 44 -20 44 -44s-19 -43 -44 -43z" />
    <glyph glyph-name="divide" unicode="&#xf7;" horiz-adv-x="580" 
d="M290 470c-24 0 -43 18 -43 42s19 42 43 42s43 -18 43 -42s-19 -42 -43 -42zM62 313v47h455v-47h-455zM290 119c-24 0 -43 18 -43 42s19 42 43 42s43 -18 43 -42s-19 -42 -43 -42z" />
    <glyph glyph-name="equal" unicode="=" horiz-adv-x="580" 
d="M71 424v47h438v-47h-438zM71 219v47h438v-47h-438z" />
    <glyph glyph-name="greater" unicode="&#x3e;" horiz-adv-x="580" 
d="M68 533l445 -170v-46l-445 -171v52l380 142l-380 141v52z" />
    <glyph glyph-name="greaterequal" unicode="&#x2265;" horiz-adv-x="580" 
d="M71 609l443 -165v-45l-443 -165v52l376 136l-376 136v51zM71 70v47h434v-47h-434z" />
    <glyph glyph-name="uni2206" unicode="&#x2206;" horiz-adv-x="662" 
d="M360 673l243 -626v-47h-544v47l245 626h56zM332 615l-216 -568h433z" />
    <glyph glyph-name="infinity" unicode="&#x221e;" horiz-adv-x="789" 
d="M585 492c99 0 168 -71 168 -171c0 -98 -68 -169 -166 -169c-95 0 -147 62 -192 129c-45 -67 -97 -129 -193 -129c-98 0 -167 70 -167 169c0 100 69 171 168 171c94 0 146 -61 192 -128c45 67 96 128 190 128zM205 199c77 0 120 59 162 124c-42 64 -85 121 -161 121
c-70 0 -120 -49 -120 -122c0 -74 49 -123 119 -123zM585 199c69 0 118 50 118 123s-49 122 -119 122c-76 0 -119 -57 -162 -121c44 -65 87 -124 163 -124z" />
    <glyph glyph-name="integral" unicode="&#x222b;" horiz-adv-x="298" 
d="M8 -126v47h48c71 0 111 40 111 114c0 138 -87 454 -87 595c0 100 55 155 154 155h57v-47h-48c-75 0 -111 -37 -111 -116c2 -131 88 -450 88 -592c0 -97 -59 -156 -155 -156h-57z" />
    <glyph glyph-name="less" unicode="&#x3c;" horiz-adv-x="580" 
d="M512 533v-52l-380 -141l380 -142v-52l-445 171v46z" />
    <glyph glyph-name="lessequal" unicode="&#x2264;" horiz-adv-x="580" 
d="M509 609v-51l-376 -136l376 -136v-52l-443 165v45zM509 70h-434v47h434v-47z" />
    <glyph glyph-name="logicalnot" unicode="&#xac;" horiz-adv-x="580" 
d="M421 135v198h-365v47h416v-245h-51z" />
    <glyph glyph-name="uni00B5" unicode="&#xb5;" horiz-adv-x="575" 
d="M525 46h30v-46h-39c-49 0 -81 23 -92 65c-31 -47 -83 -75 -147 -75c-63 0 -110 23 -140 62v-215h-49v646h50v-300c0 -89 54 -145 139 -145c80 0 139 61 139 144v301h51v-370c0 -46 19 -67 58 -67z" />
    <glyph glyph-name="minus" unicode="&#x2212;" horiz-adv-x="580" 
d="M63 318v47h454v-47h-454z" />
    <glyph glyph-name="multiply" unicode="&#xd7;" horiz-adv-x="580" 
d="M130 145l-34 33l160 161l-160 159l33 34l160 -159l160 159l34 -34l-160 -159l160 -160l-33 -34l-160 160z" />
    <glyph glyph-name="notequal" unicode="&#x2260;" horiz-adv-x="580" 
d="M71 424v47h252l68 116h54l-69 -116h133v-47h-160l-93 -158h253v-47h-281l-66 -113h-53l66 113h-104v47h131l93 158h-224z" />
    <glyph glyph-name="partialdiff" unicode="&#x2202;" horiz-adv-x="547" 
d="M270 683c149 0 228 -107 228 -306c0 -240 -100 -389 -262 -389c-120 0 -199 77 -199 196c0 142 89 224 244 224c56 0 116 -8 164 -23c-1 167 -60 251 -177 251c-73 0 -127 -43 -138 -110h-50c11 94 88 157 190 157zM238 35c121 0 197 114 206 305c-44 14 -104 23 -160 23
c-125 0 -195 -63 -195 -177c0 -94 57 -151 149 -151z" />
    <glyph glyph-name="percent" unicode="%" horiz-adv-x="841" 
d="M210 351c-92 0 -165 74 -165 166c0 93 73 165 165 165c93 0 167 -72 167 -165c0 -92 -74 -166 -167 -166zM197 0l393 673h54l-393 -673h-54zM210 397c69 0 120 51 120 121c0 68 -51 120 -120 120c-68 0 -118 -51 -118 -120c0 -70 51 -121 118 -121zM630 -10
c-92 0 -165 72 -165 166c0 92 72 165 165 165c94 0 167 -73 167 -165c0 -93 -74 -166 -167 -166zM631 35c67 0 119 52 119 121s-52 120 -120 120s-118 -50 -118 -120c0 -69 50 -121 119 -121z" />
    <glyph glyph-name="perthousand" unicode="&#x2030;" horiz-adv-x="1247" 
d="M1035 -10c-92 0 -165 72 -165 166c0 92 72 165 165 165c94 0 167 -73 167 -165c0 -93 -74 -166 -167 -166zM1037 35c67 0 119 52 119 121s-52 120 -120 120s-118 -50 -118 -120s50 -121 119 -121zM210 351c-92 0 -165 74 -165 166c0 93 73 165 165 165
c93 0 167 -72 167 -165c0 -92 -74 -166 -167 -166zM197 0l393 673h54l-393 -673h-54zM210 397c69 0 120 51 120 121c0 68 -51 120 -120 120c-68 0 -118 -51 -118 -120c0 -70 51 -121 118 -121zM630 -10c-92 0 -165 72 -165 166c0 92 72 165 165 165c94 0 167 -73 167 -165
c0 -93 -74 -166 -167 -166zM631 35c67 0 119 52 119 121s-52 120 -120 120s-118 -50 -118 -120c0 -69 50 -121 119 -121z" />
    <glyph glyph-name="plus" unicode="+" horiz-adv-x="580" 
d="M266 124v208h-204v47h204v208h50v-208h202v-47h-202v-208h-50z" />
    <glyph glyph-name="plusminus" unicode="&#xb1;" horiz-adv-x="580" 
d="M266 209v186h-198v46h198v186h50v-186h196v-46h-196v-186h-50zM72 80v47h436v-47h-436z" />
    <glyph glyph-name="product" unicode="&#x220f;" horiz-adv-x="685" 
d="M102 -122v795h481v-795h-52v748h-377v-748h-52z" />
    <glyph glyph-name="radical" unicode="&#x221a;" horiz-adv-x="718" 
d="M664 750h57l-506 -883h-43v357h-143v48h194v-299z" />
    <glyph glyph-name="summation" unicode="&#x2211;" horiz-adv-x="503" 
d="M109 -75h362v-47h-426v36l244 371l-244 352v36h414v-47h-347l227 -323v-34z" />
    <glyph glyph-name="lozenge" unicode="&#x25ca;" horiz-adv-x="497" 
d="M264 673l215 -342l-215 -331h-32l-214 331l214 342h32zM248 63l170 268l-170 279l-170 -279z" />
    <glyph glyph-name="uniF8FF" unicode="&#xf8ff;" horiz-adv-x="1210" 
d="M683 -77l11 3l-12 -2c56 13 97 40 123 65c1 0 2 1 3 2v1c5 5 34 37 34 43c-16 -11 -23 -30 -38 -42c7 8 7 8 7 10h-2v1c-2 -1 -3 -2 -4 -2c-59 -51 -109 -77 -190 -77c-36 0 -52 5 -102 27c10 -3 28 -11 42 -14c5 -1 8 -2 11 -1c-16 5 -30 11 -42 16c17 -3 36 -4 45 -2
c-33 1 -66 11 -89 34c8 -5 14 -9 22 -10c-14 9 -29 21 -41 33c30 -25 67 -35 105 -35c33 0 67 8 98 20c-34 -2 -62 3 -113 18l23 -14c0 -3 -35 7 -49 15l-8 5c-1 0 -1 1 -1 1c4 2 22 7 29 8c0 0 1 -1 2 -1h15c13 0 17 5 24 9l3 1c1 0 2 0 2 -1c7 -6 23 -17 46 -17
c14 2 17 8 15 12c0 2 2 5 3 5c5 0 12 5 12 9c30 7 56 22 71 46c-6 -4 -9 -6 -13 -6c-2 0 -3 0 -3 2s5 7 21 17c35 21 37 46 52 82c-11 2 -20 2 -28 2c-43 1 -97 -21 -123 -26c0 -2 -5 -3 -7 -3c-1 0 -2 0 -3 -1h-10v1c0 1 1 6 7 7l28 10h3c0 1 1 2 2 2l4 1c1 0 3 1 4 2l3 2
l7 2h2c4 1 7 3 11 5c1 0 3 1 5 1c1 1 20 2 20 2h1c3 0 5 0 8 1c1 1 2 1 3 0h1c1 1 1 1 2 1c1 1 2 1 3 1c0 -1 1 -1 1 -1c1 1 1 1 2 1h7c1 0 2 0 3 2h5c3 0 5 1 8 2c5 2 10 4 14 7c1 0 5 2 2 3c-3 0 -6 1 -10 1c-3 0 -6 1 -9 0c-3 0 -5 0 -7 -1c-2 0 -3 -1 -5 -1h-3
c-7 1 -10 5 -18 10c0 0 -6 3 -7 3l-4 -1c-1 0 -2 0 -3 -1l-11 -3l-14 -2h-2c-4 0 -6 2 -10 2c-2 0 -11 -5 -14 -5s-5 -2 -8 -2s-15 -4 -17 -4c-1 1 -2 1 -2 2c3 8 58 28 67 27c4 -1 -13 -7 -11 -9h2c4 0 16 4 26 5c7 0 13 0 18 -1h6c7 0 11 1 14 7c0 1 -2 1 -3 1
c-2 1 -3 0 -4 0c-1 -1 -1 -1 -3 -1l-5 -1c-4 0 -6 0 -8 1c-1 1 -10 2 -18 2c0 0 -1 0 -1 1s0 1 20 1l13 3l10 1c1 1 8 1 9 0c5 -1 14 0 14 2c0 1 -2 2 -8 4c-1 1 -7 1 -21 1c-1 0 -1 -1 -2 -1h-2c-13 0 -30 -2 -26 -3c-1 0 -1 0 -1 1c0 2 18 6 21 5c-1 1 -8 2 -13 2
c-51 0 -103 -12 -148 -35l-1 -1l-6 6c-21 24 -25 28 -39 42c-21 21 -52 41 -66 43c49 46 118 75 181 75c51 0 95 -12 133 -36c-26 15 -63 24 -99 24c-24 0 -46 -3 -61 -9c15 3 30 4 50 4c58 0 111 -18 145 -49c-24 14 -29 16 -55 23c80 -26 116 -107 116 -181
c0 -58 -14 -105 -53 -153c-34 -40 -69 -68 -136 -84l4 2c-10 -2 -10 -2 -12 -2zM102 -9l-19 3c1 10 4 19 8 24c4 0 7 1 10 4s6 7 8 11c14 6 19 10 23 17l12 23l1 1l16 1l14 5c0 1 2 3 4 5c3 5 3 6 2 8l-7 20l-2 29c0 1 -1 2 -2 2c-16 -4 -23 -4 -33 -3c-25 3 -43 20 -43 46
c0 35 44 54 46 64c0 2 -2 4 -4 5c-13 3 -16 0 -23 3c-13 4 -23 16 -25 30c0 7 1 11 4 15l26 -13c21 -5 33 -9 39 -15c3 -5 5 -11 5 -17c0 -26 -50 -41 -50 -71c0 -19 11 -30 31 -30c13 0 22 4 43 16c30 22 36 27 44 29c11 4 23 2 34 6c8 1 11 3 30 20c10 9 21 12 35 13
c21 2 46 29 77 38l31 17c9 3 14 4 19 4c6 0 11 -1 15 -3c34 -12 89 -68 114 -108c3 -6 5 -13 6 -20c3 -27 9 -52 19 -76l10 -11l33 -36c1 0 1 0 1 -1l-2 -2c-11 -2 -23 4 -35 18c-7 15 -13 21 -22 24c0 0 -1 0 -1 -1c1 -3 5 -6 6 -9c8 -15 9 -17 10 -21c1 -6 7 -12 18 -18
l10 -5c1 -1 2 -3 1 -4l-2 -1c-18 0 -31 5 -43 17c-2 4 -6 6 -10 6c-9 -9 -16 -13 -24 -14c-3 1 -3 1 -13 1c-19 0 -31 -10 -43 -10c-6 0 -10 2 -11 6v20l5 7c0 2 0 2 -2 2c-4 2 -6 3 -7 3c0 4 3 7 15 19c2 8 5 14 10 20l-2 2c-10 -3 -17 -4 -24 -3c-6 -4 -16 -6 -23 -4
c-1 1 -1 1 -1 4c8 12 11 27 9 41c-1 2 -1 2 -3 2c-1 0 -1 0 -3 -2c-3 -18 -6 -28 -11 -36c-3 -3 8 1 -20 -7c-2 -1 -4 -3 -4 -5l5 -12l16 -28c0 -6 0 -7 -5 -24c1 -1 2 -1 3 0c5 4 8 9 12 19c0 7 0 7 -2 10l-16 31l5 3l11 -3c3 -10 7 -19 14 -28c2 -3 2 -3 2 -10
c0 -5 0 -6 -2 -8c-4 -7 -7 -13 -12 -20c-4 -4 -10 -4 -16 -4h-5c-14 -8 -29 -13 -45 -17c-2 -1 -5 -1 -7 -1c-5 0 -10 1 -13 4c-5 4 -8 11 -11 16c-2 3 -5 3 -8 3c-2 0 -5 0 -8 1l-12 21c0 1 1 3 2 5c5 1 11 2 17 2h4c4 0 8 -1 11 -4c7 -10 10 -21 21 -26h3c7 0 15 2 21 5
c4 3 9 6 9 12c-1 11 -8 19 -16 25c-11 5 -20 12 -27 20c-3 5 -4 10 -6 15c-1 1 -4 2 -5 1c-3 -3 0 -5 0 -9c1 -2 0 -5 -1 -8c-2 -2 -5 -2 -8 -2c-17 0 -31 1 -48 0c-7 0 -16 -2 -23 -2c-6 0 -11 1 -15 4c-2 1 -3 3 -4 4c-2 4 -2 9 -2 13c0 9 2 19 4 28c0 1 -3 2 -4 2
c-1 1 -4 0 -5 -1c-3 -14 -4 -28 -7 -41c-5 -11 -13 -20 -25 -26c-11 -6 -22 -8 -35 -9c-23 0 -45 -5 -58 -25c-1 -2 -3 -6 -3 -9c1 0 2 -1 3 0c15 16 35 24 59 23c33 0 43 4 58 23l9 13c1 1 1 1 6 -4l-7 -16c-5 -11 -8 -15 -13 -18c-5 -1 -3 0 -20 -10c-5 -2 -9 -3 -15 -3
c-5 0 -6 0 -8 1c-14 2 -12 2 -17 2c-6 0 -11 -1 -16 -3c-5 -3 -9 -8 -14 -11c-26 -12 -16 -8 -20 -8c-15 3 -14 3 -17 0l-15 -19c-4 -2 -6 -2 -9 -2zM661 428v245h83c52 0 78 -21 78 -63c0 -17 -8 -36 -21 -50c30 -14 42 -31 42 -62c0 -39 -33 -70 -74 -70h-108zM496 426
c-41 0 -73 35 -73 80c0 44 32 80 73 80c17 0 36 -8 48 -20v121h50v-260h-49v20c-14 -14 -31 -21 -49 -21zM63 428v245h94c41 0 73 -32 73 -73c0 -33 -24 -63 -56 -70l72 -102h-61l-52 80v59h12c19 0 34 14 34 32c0 17 -14 31 -33 31h-31v-202h-52zM320 422
c-44 0 -81 37 -81 82s37 82 81 82c48 0 79 -33 79 -82v-10h-109c0 -1 1 -1 1 -2c0 -17 15 -31 33 -31c13 0 26 8 31 19l39 -19c-14 -24 -42 -39 -74 -39zM940 105v200h-86v40h215v-40h-87v-200h-42zM1028 105v181h41v-120l54 81c13 20 20 43 20 59c0 17 -7 30 -21 39
c27 0 54 -25 57 -54c1 -19 -7 -43 -22 -65l-76 -114c-4 -5 -8 -7 -13 -7h-40zM938 420c-47 0 -77 24 -77 63v95h48v-88c0 -18 11 -28 29 -28s27 10 27 28v88h49v-95c0 -38 -30 -63 -76 -63zM1123 427v258h50v-258h-50zM1041 427v258h49v-258h-49zM713 470h47
c19 1 30 13 31 32c0 18 -14 32 -31 32h-31v44h17c16 0 25 10 25 27c0 14 -11 26 -25 26h-33v-161zM510 465c20 0 35 18 35 40c0 21 -16 38 -35 38c-20 0 -37 -17 -37 -38c0 -22 16 -40 37 -40zM291 522h60c0 16 -14 29 -31 29c-16 0 -29 -13 -29 -29zM759 87c4 2 7 1 9 0
c9 10 17 13 24 24c6 10 8 13 15 40l-1 -1c0 -1 -3 -13 -10 -13c-2 0 -6 1 -6 3c-5 -16 -21 -25 -27 -38c1 -1 2 -2 2 -3c0 -3 -6 -8 -6 -12zM581 111c0 0 1 -1 2 0c2 0 2 1 3 3l1 1v2c1 2 1 5 1 7c0 7 -3 14 -10 21l-3 3l-2 4c-1 2 -3 4 -6 6s-6 1 -8 -3l-1 -3v-1l-2 -4
l-2 -4l-3 -3c0 -2 -1 -4 -1 -6c0 -1 0 -2 1 -3v-1s3 0 3 1l2 3l3 2c1 2 3 3 5 4c2 0 4 -1 6 -4c0 0 3 -3 4 -3l2 -4c2 -1 3 -4 3 -7l1 -7v-2c0 -1 0 -1 1 -2zM395 34c-4 4 -4 11 -8 16c-1 4 -7 4 -6 7l2 2c7 0 13 0 20 1c7 0 5 -8 8 -13c1 -3 4 -5 2 -8c-5 -3 -11 -6 -18 -5
zM73 -7l-14 4c-1 1 0 3 0 4c5 5 4 11 5 18c1 3 4 6 7 8c4 -1 7 -5 9 -8v-2c-3 -7 -4 -16 -7 -24zM479 198c1 -1 2 0 3 0v1c1 4 2 9 2 14c0 6 -1 12 -3 17c-2 3 -5 7 -9 9c-2 1 -4 1 -6 -1c-2 -3 0 -6 1 -8l2 -2v-1l2 -4c4 -8 5 -16 8 -25zM85 28c-1 1 -3 3 -3 5s-1 5 1 7
c5 3 10 6 14 11c2 0 4 1 5 0c2 -2 4 -4 5 -7c-4 -6 -8 -13 -14 -16c-3 -1 -5 -1 -8 0zM679 193c0 0 -3 1 -2 4c4 3 8 4 12 6c7 3 14 4 26 5l-2 -1c-27 -13 -28 -15 -34 -14zM546 60h7c3 0 6 0 9 1c3 2 3 6 3 9v3c0 2 -1 2 -2 3h-2l-16 -13c0 -1 1 -2 1 -3z" />
    <glyph glyph-name="bar" unicode="|" horiz-adv-x="348" 
d="M149 -121v901h49v-901h-49z" />
    <glyph glyph-name="brokenbar" unicode="&#xa6;" horiz-adv-x="348" 
d="M149 460v320h49v-320h-49zM149 -121v320h49v-320h-49z" />
    <glyph glyph-name="at" unicode="@" horiz-adv-x="919" 
d="M475 652c220 0 387 -149 387 -347c0 -152 -99 -248 -242 -248h-21v72c-28 -49 -86 -82 -153 -82c-109 0 -192 88 -192 202s82 201 193 201c66 0 122 -31 151 -79v71h46v-340c104 9 169 83 169 202c0 175 -143 303 -337 303c-212 0 -369 -153 -369 -361s157 -351 384 -351
h96v-44l-97 -1c-256 -1 -433 163 -433 394c0 234 181 408 418 408zM452 93c86 0 144 63 144 156s-57 155 -144 155s-148 -64 -148 -155c0 -92 61 -156 148 -156z" />
    <glyph glyph-name="ampersand" unicode="&#x26;" horiz-adv-x="607" 
d="M580 0h-65l-90 104c-57 -79 -115 -114 -190 -114c-112 0 -187 67 -187 166c0 75 43 137 152 210c-62 72 -84 117 -84 172c0 88 59 145 146 145c83 0 143 -56 143 -134c0 -64 -40 -121 -132 -189l-2 -2l149 -172s1 1 1 2l100 176h57l-115 -202l-9 -16zM263 637
c-58 0 -95 -39 -95 -99c0 -45 18 -81 73 -146l3 2c75 55 109 104 109 155s-38 88 -90 88zM236 37c60 0 107 32 156 105l-163 189c-100 -77 -127 -116 -127 -173c0 -73 53 -121 134 -121z" />
    <glyph glyph-name="paragraph" unicode="&#xb6;" horiz-adv-x="528" 
d="M329 257h-60c-137 0 -234 87 -234 210c0 122 95 206 234 206h60v-416zM212 -163v47h67c73 0 107 36 107 111v678h51v-681c0 -101 -53 -155 -150 -155h-75z" />
    <glyph glyph-name="copyright" unicode="&#xa9;" horiz-adv-x="769" 
d="M395 -10c-191 0 -343 152 -343 346c0 195 151 347 343 347c194 0 346 -153 346 -347c0 -193 -152 -346 -346 -346zM396 29c170 0 302 135 302 309c0 172 -132 306 -302 306s-301 -133 -301 -306c0 -175 131 -309 301 -309zM392 134c-111 0 -196 86 -196 197
s86 197 196 197c91 0 163 -58 181 -145h-46c-18 66 -66 102 -136 102c-87 0 -148 -63 -148 -154c0 -92 60 -154 148 -154c70 0 118 36 136 101h46c-18 -87 -90 -144 -181 -144z" />
    <glyph glyph-name="registered" unicode="&#xae;" horiz-adv-x="482" 
d="M241 683c113 0 200 -86 200 -199c0 -111 -88 -200 -200 -199c-110 -1 -199 89 -199 199c0 111 88 199 199 199zM241 320c93 0 163 70 163 164c0 95 -69 164 -163 164s-164 -70 -164 -164s70 -164 164 -164zM325 525c0 -31 -19 -55 -50 -63l62 -84h-44l-60 81h-28v-81h-38
v212h84c44 0 74 -27 74 -65zM203 491h45c23 0 38 13 38 33c0 21 -15 33 -38 33h-45v-66z" />
    <glyph glyph-name="section" unicode="&#xa7;" horiz-adv-x="503" 
d="M460 214c0 -52 -31 -94 -92 -125c14 -22 20 -44 20 -69c0 -74 -60 -125 -147 -125h-112v47h112c57 0 93 31 93 77c0 40 -21 68 -79 110l-101 70c-81 57 -111 99 -111 155c0 54 33 95 92 125c-14 22 -20 44 -20 69c0 74 60 125 147 125h112v-47h-111
c-57 0 -94 -30 -94 -77c0 -39 21 -68 80 -109l100 -71c81 -57 111 -98 111 -155zM342 122c42 24 64 56 64 90c0 40 -22 70 -85 115l-107 75c-21 15 -39 30 -53 45c-42 -25 -64 -57 -64 -91c0 -40 23 -70 85 -114l107 -76c21 -15 39 -30 53 -44z" />
    <glyph glyph-name="trademark" unicode="&#x2122;" horiz-adv-x="623" 
d="M21 635v38h218v-38h-88v-226h-41v226h-89zM501 673h57v-264h-41v210l-89 -210h-32l-92 211v-211h-41v264h60l89 -212z" />
    <glyph glyph-name="degree" unicode="&#xb0;" horiz-adv-x="417" 
d="M208 337c-99 0 -175 75 -175 173s76 173 175 173s176 -74 176 -173c0 -98 -77 -173 -176 -173zM209 381c74 0 129 55 129 129s-55 129 -129 129s-129 -55 -129 -129c0 -73 56 -129 129 -129z" />
    <glyph glyph-name="estimated" unicode="&#x212e;" horiz-adv-x="856" 
d="M443 -10c-213 0 -384 155 -384 348c0 190 167 345 370 345c202 0 368 -155 368 -345v-10h-574c-9 0 -13 -3 -13 -12v-202c0 -9 1 -12 8 -17c65 -51 144 -78 227 -78c104 0 197 40 265 115h38c-73 -92 -183 -144 -305 -144zM223 356h412c7 0 12 5 12 12v195
c0 11 -1 14 -8 19c-60 48 -130 72 -210 72c-81 0 -155 -24 -211 -70c-7 -5 -8 -8 -8 -20v-196c0 -7 5 -12 13 -12z" />
    <glyph glyph-name="uni2113" unicode="&#x2113;" horiz-adv-x="371" 
d="M142 192v-27c0 -83 33 -119 110 -119h72v-46h-78c-96 0 -147 50 -152 147c-24 -21 -49 -43 -77 -65v61c28 23 53 45 77 67v304c0 110 45 169 129 169c75 0 117 -49 117 -138c0 -106 -66 -224 -198 -353zM224 636c-54 0 -82 -40 -82 -119v-260c100 103 150 198 150 282
c0 65 -22 97 -68 97z" />
    <glyph glyph-name="uni2116" unicode="&#x2116;" horiz-adv-x="1099" 
d="M872 337c-99 0 -175 75 -175 173s76 173 175 173s176 -74 176 -173c0 -98 -77 -173 -176 -173zM532 90v583h52v-673h-56l-374 595v-595h-52v673h62zM873 639c-74 0 -129 -55 -129 -129c0 -73 56 -129 129 -129c74 0 129 55 129 129s-55 129 -129 129zM738 179v43h273v-43
h-273z" />
    <glyph glyph-name="asciicircum" unicode="^" horiz-adv-x="468" 
d="M421 292h-53l-135 316l-133 -316h-54l162 381h48z" />
    <glyph glyph-name="dagger" unicode="&#x2020;" horiz-adv-x="446" 
d="M193 208v266h-151v46h151v153h49v-153h161v-46h-161v-266h-49z" />
    <glyph glyph-name="daggerdbl" unicode="&#x2021;" horiz-adv-x="466" 
d="M193 131v151h-151v45h151v151h-151v45h151v150h49v-150h161v-45h-161v-151h161v-45h-161v-151h-49z" />
    <glyph glyph-name="minute" unicode="&#x2032;" horiz-adv-x="256" 
d="M84 374l42 299h58l-52 -299h-48z" />
    <glyph glyph-name="second" unicode="&#x2033;" horiz-adv-x="409" 
d="M84 374l42 299h58l-51 -299h-49zM236 374l44 299h58l-53 -299h-49z" />
    <glyph glyph-name="uni0308" unicode="&#x308;" 
d="M-89 607c-23 0 -40 17 -40 39s17 39 40 39s40 -17 40 -39s-17 -39 -40 -39zM83 607c-23 0 -40 17 -40 39s17 39 40 39s40 -17 40 -39s-17 -39 -40 -39z" />
    <glyph glyph-name="uni0307" unicode="&#x307;" 
d="M-2 607c-23 0 -41 17 -41 40s18 40 41 40s41 -17 41 -40s-18 -40 -41 -40z" />
    <glyph glyph-name="gravecomb" unicode="&#x300;" 
d="M-24 560l-100 166h59l94 -166h-53z" />
    <glyph glyph-name="acutecomb" unicode="&#x301;" 
d="M-31 560l94 165h58l-100 -165h-52z" />
    <glyph glyph-name="uni030B" unicode="&#x30b;" 
d="M-101 560l103 165h53l-105 -165h-51zM41 560l104 165h54l-109 -165h-49z" />
    <glyph glyph-name="uni0302" unicode="&#x302;" 
d="M128 560h-51l-80 122l-79 -122h-51l109 165h44z" />
    <glyph glyph-name="uni030C" unicode="&#x30c;" 
d="M78 725h51l-108 -165h-45l-108 165h51l79 -121z" />
    <glyph glyph-name="uni0306" unicode="&#x306;" 
d="M-2 563c-82 0 -131 58 -131 152h45c0 -73 28 -110 86 -110c56 0 85 37 85 110h46c0 -94 -50 -152 -131 -152z" />
    <glyph glyph-name="uni030A" unicode="&#x30a;" 
d="M-2 545c-58 0 -103 45 -103 102c0 58 45 102 103 102s104 -44 104 -102c0 -57 -46 -102 -104 -102zM-1 585c34 0 61 27 61 62c0 36 -27 63 -61 63c-36 0 -62 -27 -62 -63c0 -35 26 -62 62 -62z" />
    <glyph glyph-name="tildecomb" unicode="&#x303;" 
d="M54 578c-18 0 -34 5 -60 21c-30 18 -43 23 -56 23c-19 -1 -38 -12 -66 -35v47c30 24 46 32 69 32c17 0 33 -5 60 -21c28 -17 42 -23 56 -23c19 1 38 12 66 35v-47c-29 -24 -46 -32 -69 -32z" />
    <glyph glyph-name="uni0304" unicode="&#x304;" 
d="M-125 601v43h244v-43h-244z" />
    <glyph glyph-name="uni0312" unicode="&#x312;" 
d="M-30 560l21 165h48l-18 -165h-51z" />
    <glyph glyph-name="uni0326" unicode="&#x326;" 
d="M-47 -215l18 164h51l-22 -164h-47z" />
    <glyph glyph-name="uni0327" unicode="&#x327;" 
d="M-42 -190c-34 0 -48 0 -67 1v39h61c49 0 78 27 78 72c0 30 -14 54 -46 82l21 15c46 -22 72 -59 72 -102c0 -64 -48 -107 -119 -107z" />
    <glyph glyph-name="uni0328" unicode="&#x328;" 
d="M-57 -188c-68 0 -105 27 -105 74c0 44 30 82 142 143l18 -29l-54 -36c-44 -30 -57 -48 -57 -71c0 -28 19 -40 63 -40h48v-40c-20 0 -44 -1 -55 -1z" />
    <glyph glyph-name="uni0308.case" 
d="M89 762c-24 0 -43 19 -43 42c0 24 18 43 43 43s43 -19 43 -43c0 -23 -18 -42 -43 -42zM-93 762c-25 0 -43 19 -43 42c0 24 18 42 43 42s43 -18 43 -42c0 -23 -18 -42 -43 -42z" />
    <glyph glyph-name="uni0307.case" 
d="M-1 761c-25 0 -44 19 -44 43c0 25 19 44 44 44s44 -19 44 -44c0 -24 -19 -43 -44 -43z" />
    <glyph glyph-name="gravecomb.case" 
d="M-26 734l-100 162h60l93 -162h-53z" />
    <glyph glyph-name="acutecomb.case" 
d="M-31 734l94 162h59l-101 -162h-52z" />
    <glyph glyph-name="uni030B.case" 
d="M-104 734l102 162h52l-103 -162h-51zM39 734l103 162h55l-109 -162h-49z" />
    <glyph glyph-name="uni0302.case" 
d="M130 734h-52l-80 117l-81 -117h-52l110 162h45z" />
    <glyph glyph-name="uni030C.case" 
d="M78 896h52l-110 -162h-45l-110 162h52l81 -117z" />
    <glyph glyph-name="uni0306.case" 
d="M-2 737c-99 0 -158 68 -158 150h46c0 -60 38 -108 112 -108s111 48 111 108h46c0 -82 -59 -150 -157 -150z" />
    <glyph glyph-name="uni030A.case" 
d="M-2 693c-58 0 -103 44 -103 102c0 57 45 102 103 102s104 -45 104 -102c0 -58 -46 -102 -104 -102zM-1 732c34 0 61 28 61 63s-27 62 -61 62c-36 0 -62 -27 -62 -62c0 -36 26 -63 62 -63z" />
    <glyph glyph-name="tildecomb.case" 
d="M64 746c-21 0 -39 5 -70 22c-33 18 -46 22 -61 22c-21 0 -43 -10 -73 -33v48c26 22 48 32 73 33c20 0 37 -6 70 -23c35 -17 46 -21 60 -21c21 0 43 10 73 33v-48c-26 -23 -48 -33 -72 -33z" />
    <glyph glyph-name="uni0304.case" 
d="M-135 775v43h264v-43h-264z" />
    <glyph glyph-name="uni0327.cr" 
d="M-28 12h51v-137h-51v137z" />
    <glyph glyph-name="uni0304.i" 
d="M-105 601v43h205v-43h-205z" />
    <glyph glyph-name="uni0328.long" 
d="M-66 -188c-65 0 -110 34 -110 85s30 85 152 177l21 -23l-85 -81c-30 -28 -39 -43 -39 -66c0 -32 27 -53 69 -53h48v-38c-15 0 -38 -1 -56 -1z" />
    <glyph glyph-name="uni030C.slovak" 
d="M-23 480l18 193h58l-35 -193h-41z" />
    <glyph glyph-name="acute" unicode="&#xb4;" horiz-adv-x="210" 
d="M29 560l94 165h58l-100 -165h-52z" />
    <glyph glyph-name="breve" unicode="&#x2d8;" horiz-adv-x="319" 
d="M160 563c-82 0 -131 58 -131 152h45c0 -73 28 -110 86 -110c56 0 85 37 85 110h46c0 -94 -50 -152 -131 -152z" />
    <glyph glyph-name="caron" unicode="&#x2c7;" horiz-adv-x="318" 
d="M239 725h51l-108 -165h-45l-108 165h51l79 -121z" />
    <glyph glyph-name="cedilla" unicode="&#xb8;" horiz-adv-x="243" 
d="M96 -190c-34 0 -48 0 -67 1v39h61c49 0 78 27 78 72c0 30 -14 54 -46 82l21 15c46 -22 72 -59 72 -102c0 -64 -48 -107 -119 -107z" />
    <glyph glyph-name="circumflex" unicode="&#x2c6;" horiz-adv-x="318" 
d="M289 560h-51l-80 122l-79 -122h-51l109 165h44z" />
    <glyph glyph-name="dieresis" unicode="&#xa8;" horiz-adv-x="309" 
d="M68 607c-23 0 -40 17 -40 39s17 39 40 39s40 -17 40 -39s-17 -39 -40 -39zM240 607c-23 0 -40 17 -40 39s17 39 40 39s40 -17 40 -39s-17 -39 -40 -39z" />
    <glyph glyph-name="dotaccent" unicode="&#x2d9;" horiz-adv-x="139" 
d="M70 607c-23 0 -41 17 -41 40s18 40 41 40s41 -17 41 -40s-18 -40 -41 -40z" />
    <glyph glyph-name="grave" unicode="`" horiz-adv-x="210" 
d="M129 560l-100 166h59l94 -166h-53z" />
    <glyph glyph-name="hungarumlaut" unicode="&#x2dd;" horiz-adv-x="359" 
d="M29 560l103 165h53l-105 -165h-51zM171 560l104 165h54l-109 -165h-49z" />
    <glyph glyph-name="macron" unicode="&#xaf;" horiz-adv-x="302" 
d="M29 601v43h244v-43h-244z" />
    <glyph glyph-name="ogonek" unicode="&#x2db;" horiz-adv-x="218" 
d="M134 -188c-68 0 -105 27 -105 74c0 44 30 82 142 143l18 -29l-54 -36c-44 -30 -57 -48 -57 -71c0 -28 19 -40 63 -40h48v-40c-20 0 -44 -1 -55 -1z" />
    <glyph glyph-name="ring" unicode="&#x2da;" horiz-adv-x="265" 
d="M132 545c-58 0 -103 45 -103 102c0 58 45 102 103 102s104 -44 104 -102c0 -57 -46 -102 -104 -102zM133 585c34 0 61 27 61 62c0 36 -27 63 -61 63c-36 0 -62 -27 -62 -63c0 -35 26 -62 62 -62z" />
    <glyph glyph-name="tilde" unicode="&#x2dc;" horiz-adv-x="308" 
d="M210 578c-18 0 -34 5 -60 21c-30 18 -43 23 -56 23c-19 -1 -38 -12 -66 -35v47c30 24 46 32 69 32c17 0 33 -5 60 -21c28 -17 42 -23 56 -23c19 1 38 12 66 35v-47c-29 -24 -46 -32 -69 -32z" />
    <glyph glyph-name="tonos" unicode="&#x384;" horiz-adv-x="158" 
d="M29 560l48 165h53l-55 -165h-46z" />
    <glyph glyph-name="dieresistonos" unicode="&#x385;" horiz-adv-x="367" 
d="M137 560l48 165h53l-55 -165h-46zM68 603c-21 0 -39 18 -39 39c0 22 18 39 39 39c23 0 40 -16 40 -39c0 -21 -17 -39 -40 -39zM298 603c-21 0 -39 18 -39 39c0 22 18 39 39 39c23 0 40 -16 40 -39c0 -21 -17 -39 -40 -39z" />
    <glyph glyph-name="brevecombcy" 
d="M-3 563c-90 0 -142 61 -142 152h46c0 -69 31 -110 96 -110c66 0 97 41 97 110h46c0 -91 -53 -152 -143 -152z" />
    <glyph glyph-name="brevecombcy.case" 
d="M-2 737c-100 0 -165 61 -165 150h46c0 -63 43 -108 119 -108c75 0 118 45 118 108h46c0 -89 -64 -150 -164 -150z" />
    </font>
</defs>
</svg>
