<?xml version="1.0" standalone="no"?>
<!DOCTYPE svg PUBLIC "-//W3C//DTD SVG 1.1//EN" "http://www.w3.org/Graphics/SVG/1.1/DTD/svg11.dtd" >
<svg xmlns="http://www.w3.org/2000/svg" xmlns:xlink="http://www.w3.org/1999/xlink" version="1.1">
<metadata>
 By Katja
Exclusively designed for Red Bull TV. Copyright (C) 2015 by Red Bull Media House GmbH. All rights reserved.
</metadata>
<defs>
<font id="Font" horiz-adv-x="0" >
  <font-face 
    font-family="Font"
    font-weight="500"
    font-stretch="normal"
    units-per-em="1000"
    panose-1="2 11 6 4 4 0 0 0 0 0"
    ascent="800"
    descent="-200"
    x-height="490"
    cap-height="673"
    bbox="-213 -217 1234 963"
    underline-thickness="80"
    underline-position="-110"
    unicode-range="U+0020-FB02"
  />
<missing-glyph horiz-adv-x="718" 
d="M630 673v-673h-542v673h542zM556 606h-398l398 -542v542z" />
    <glyph glyph-name="uniFB01" unicode="fi" horiz-adv-x="573" 
d="M273 585q-80 0 -80 -76v-19h120v-89h-120v-401h-103v401h-69v89h69v22q0 161 174 161h65v-88h-56zM446 591q-28 0 -46.5 18.5t-18.5 46.5t18.5 45.5t46.5 17.5q29 0 47.5 -17.5t18.5 -45.5t-18.5 -46.5t-47.5 -18.5zM394 490h103v-490h-103v490z" />
    <glyph glyph-name="uniFB02" unicode="fl" horiz-adv-x="573" 
d="M273 585q-80 0 -80 -76v-19h120v-89h-120v-401h-103v401h-69v89h69v22q0 161 174 161h65v-88h-56zM394 673h103v-673h-103v673z" />
    <glyph glyph-name=".notdef" horiz-adv-x="718" 
d="M630 673v-673h-542v673h542zM556 606h-398l398 -542v542z" />
    <glyph glyph-name="glyph1" 
 />
    <glyph glyph-name="glyph2" horiz-adv-x="273" 
 />
    <glyph glyph-name="space" unicode=" " horiz-adv-x="273" 
 />
    <glyph glyph-name="A" unicode="A" horiz-adv-x="672" 
d="M478 159h-282l-58 -159h-111l254 673h112l253 -673h-111zM226 244h223l-112 321z" />
    <glyph glyph-name="Aacute" unicode="&#xc1;" horiz-adv-x="672" 
d="M478 159h-282l-58 -159h-111l254 673h112l253 -673h-111zM226 244h223l-112 321zM375 905h123l-115 -173h-96z" />
    <glyph glyph-name="Abreve" unicode="&#x102;" horiz-adv-x="672" 
d="M478 159h-282l-58 -159h-111l254 673h112l253 -673h-111zM226 244h223l-112 321zM336 733q-39 0 -73 12.5t-58.5 35t-38.5 52.5t-14 65h82q0 -37 29.5 -63.5t72.5 -26.5t72 26.5t29 63.5h83q0 -35 -14 -65t-38.5 -52.5t-58.5 -35t-73 -12.5z" />
    <glyph glyph-name="Acircumflex" unicode="&#xc2;" horiz-adv-x="672" 
d="M478 159h-282l-58 -159h-111l254 673h112l253 -673h-111zM226 244h223l-112 321zM409 732l-73 97l-72 -97h-92l121 173h87l122 -173h-93z" />
    <glyph glyph-name="Adieresis" unicode="&#xc4;" horiz-adv-x="672" 
d="M478 159h-282l-58 -159h-111l254 673h112l253 -673h-111zM226 244h223l-112 321zM443 746q-27 0 -46.5 19t-19.5 45t19 45t47 19q29 0 48 -18.5t19 -45.5t-19.5 -45.5t-47.5 -18.5zM230 746q-27 0 -46 19t-19 45t18.5 44.5t46.5 18.5q29 0 48 -18t19 -45t-19 -45.5
t-48 -18.5z" />
    <glyph glyph-name="Agrave" unicode="&#xc0;" horiz-adv-x="672" 
d="M478 159h-282l-58 -159h-111l254 673h112l253 -673h-111zM226 244h223l-112 321zM179 905h121l88 -173h-96z" />
    <glyph glyph-name="Amacron" unicode="&#x100;" horiz-adv-x="672" 
d="M478 159h-282l-58 -159h-111l254 673h112l253 -673h-111zM226 244h223l-112 321zM189 844h295v-81h-295v81z" />
    <glyph glyph-name="Aogonek" unicode="&#x104;" horiz-adv-x="672" 
d="M478 159h-282l-58 -159h-111l254 673h112l253 -673h-111zM226 244h223l-112 321zM577 -190q-57 0 -90 23.5t-33 63.5q0 39 35.5 76.5t117.5 72.5l38 -46l-43 -27q-31 -18 -41.5 -29.5t-10.5 -28.5q0 -34 55 -34h40v-67q-20 -2 -38 -3t-30 -1z" />
    <glyph glyph-name="Aring" unicode="&#xc5;" horiz-adv-x="672" 
d="M478 159h-282l-58 -159h-111l254 673h112l253 -673h-111zM226 244h223l-112 321zM336 733q-26 0 -47.5 8.5t-37 24t-24.5 36.5t-9 46t9 46t24.5 36.5t37 24t47.5 8.5q25 0 46.5 -8.5t37.5 -24t25 -36.5t9 -46t-9 -46t-25 -36.5t-37.5 -24t-46.5 -8.5zM337 797
q20 0 34.5 14.5t14.5 36.5t-14.5 36t-34.5 14q-23 0 -36.5 -14t-13.5 -36q0 -23 14 -37t36 -14z" />
    <glyph glyph-name="Atilde" unicode="&#xc3;" horiz-adv-x="672" 
d="M478 159h-282l-58 -159h-111l254 673h112l253 -673h-111zM226 244h223l-112 321zM411 731q-20 0 -38 5t-43 19q-26 14 -39.5 18.5t-27.5 4.5q-20 0 -41.5 -8t-47.5 -25v83q24 19 45 27t44 9q19 0 36.5 -5t45.5 -19t41 -18t25 -4q20 0 41 7.5t48 24.5v-83
q-25 -19 -45.5 -27t-43.5 -9z" />
    <glyph glyph-name="AE" unicode="&#xc6;" horiz-adv-x="844" 
d="M800 93v-93h-316l-27 152h-265l-73 -152h-109l322 673h456v-92h-303l31 -186h264v-90h-248l36 -212h232zM233 239h209l-56 342z" />
    <glyph glyph-name="B" unicode="B" horiz-adv-x="625" 
d="M479 357q51 -22 77 -64.5t26 -105.5q0 -87 -60 -137t-164 -50h-270v673h253q99 0 154.5 -45t55.5 -125q0 -102 -72 -146zM349 90q62 0 95 28.5t33 82.5q0 51 -35 79t-98 28h-154v-218h159zM190 583v-187h146q54 0 82.5 24.5t28.5 69.5q0 93 -108 93h-149z" />
    <glyph glyph-name="C" unicode="C" horiz-adv-x="778" 
d="M398 -12q-76 0 -140.5 26.5t-111.5 73t-73.5 110.5t-26.5 139q0 74 26.5 138t74 110.5t112 73t139.5 26.5q66 0 122.5 -19t100.5 -53.5t73 -83t38 -107.5h-112q-20 76 -79.5 120.5t-142.5 44.5q-52 0 -96.5 -19t-77 -52.5t-51 -79.5t-18.5 -99q0 -54 18.5 -99.5t51 -79.5
t77 -53t96.5 -19q83 0 142.5 44.5t79.5 120.5h112q-9 -59 -38 -107.5t-73 -83t-100.5 -53.5t-122.5 -19z" />
    <glyph glyph-name="Cacute" unicode="&#x106;" horiz-adv-x="778" 
d="M398 -12q-76 0 -140.5 26.5t-111.5 73t-73.5 110.5t-26.5 139q0 74 26.5 138t74 110.5t112 73t139.5 26.5q66 0 122.5 -19t100.5 -53.5t73 -83t38 -107.5h-112q-20 76 -79.5 120.5t-142.5 44.5q-52 0 -96.5 -19t-77 -52.5t-51 -79.5t-18.5 -99q0 -54 18.5 -99.5t51 -79.5
t77 -53t96.5 -19q83 0 142.5 44.5t79.5 120.5h112q-9 -59 -38 -107.5t-73 -83t-100.5 -53.5t-122.5 -19zM437 905h123l-115 -173h-96z" />
    <glyph glyph-name="Ccaron" unicode="&#x10c;" horiz-adv-x="778" 
d="M398 -12q-76 0 -140.5 26.5t-111.5 73t-73.5 110.5t-26.5 139q0 74 26.5 138t74 110.5t112 73t139.5 26.5q66 0 122.5 -19t100.5 -53.5t73 -83t38 -107.5h-112q-20 76 -79.5 120.5t-142.5 44.5q-52 0 -96.5 -19t-77 -52.5t-51 -79.5t-18.5 -99q0 -54 18.5 -99.5t51 -79.5
t77 -53t96.5 -19q83 0 142.5 44.5t79.5 120.5h112q-9 -59 -38 -107.5t-73 -83t-100.5 -53.5t-122.5 -19zM564 905l-122 -173h-86l-122 173h92l73 -97l72 97h93z" />
    <glyph glyph-name="Ccedilla" unicode="&#xc7;" horiz-adv-x="778" 
d="M398 -12q-76 0 -140.5 26.5t-111.5 73t-73.5 110.5t-26.5 139q0 74 26.5 138t74 110.5t112 73t139.5 26.5q66 0 122.5 -19t100.5 -53.5t73 -83t38 -107.5h-112q-20 76 -79.5 120.5t-142.5 44.5q-52 0 -96.5 -19t-77 -52.5t-51 -79.5t-18.5 -99q0 -54 18.5 -99.5t51 -79.5
t77 -53t96.5 -19q83 0 142.5 44.5t79.5 120.5h112q-9 -59 -38 -107.5t-73 -83t-100.5 -53.5t-122.5 -19zM357 -192h-30.5t-19 0.5t-13 1t-11.5 1.5v69h60q65 0 65 59q0 20 -8 37t-26 37l48 21q35 -20 52.5 -48t17.5 -60q0 -55 -35.5 -86.5t-99.5 -31.5z" />
    <glyph glyph-name="D" unicode="D" horiz-adv-x="724" 
d="M88 673h222q83 0 151 -24t116 -68t74.5 -106t26.5 -137t-26.5 -137t-75 -107t-116.5 -69.5t-150 -24.5h-222v673zM310 95q58 0 106 17.5t82 49.5t52.5 76.5t18.5 99.5q0 54 -18.5 98.5t-52 76t-81.5 48.5t-107 17h-117v-483h117z" />
    <glyph glyph-name="Eth" unicode="&#xd0;" horiz-adv-x="745" 
d="M330 673q83 0 151 -24t116 -68t74.5 -106t26.5 -137t-26.5 -137t-75 -107t-116.5 -69.5t-150 -24.5h-222v306h-90v88h90v279h222zM330 95q58 0 106 17.5t82 49.5t52.5 76.5t18.5 99.5q0 54 -18.5 98.5t-52 76t-81.5 48.5t-107 17h-117v-184h132v-88h-132v-211h117z" />
    <glyph glyph-name="Dcaron" unicode="&#x10e;" horiz-adv-x="724" 
d="M88 673h222q83 0 151 -24t116 -68t74.5 -106t26.5 -137t-26.5 -137t-75 -107t-116.5 -69.5t-150 -24.5h-222v673zM310 95q58 0 106 17.5t82 49.5t52.5 76.5t18.5 99.5q0 54 -18.5 98.5t-52 76t-81.5 48.5t-107 17h-117v-483h117zM464 905l-122 -173h-86l-122 173h92
l73 -97l72 97h93z" />
    <glyph glyph-name="Dcroat" unicode="&#x110;" horiz-adv-x="745" 
d="M330 673q83 0 151 -24t116 -68t74.5 -106t26.5 -137t-26.5 -137t-75 -107t-116.5 -69.5t-150 -24.5h-222v306h-90v88h90v279h222zM330 95q58 0 106 17.5t82 49.5t52.5 76.5t18.5 99.5q0 54 -18.5 98.5t-52 76t-81.5 48.5t-107 17h-117v-184h132v-88h-132v-211h117z" />
    <glyph glyph-name="E" unicode="E" horiz-adv-x="540" 
d="M88 673h396v-93h-291v-186h281v-90h-281v-211h302v-93h-407v673z" />
    <glyph glyph-name="Eacute" unicode="&#xc9;" horiz-adv-x="540" 
d="M88 673h396v-93h-291v-186h281v-90h-281v-211h302v-93h-407v673zM334 905h123l-115 -173h-96z" />
    <glyph glyph-name="Ecaron" unicode="&#x11a;" horiz-adv-x="540" 
d="M88 673h396v-93h-291v-186h281v-90h-281v-211h302v-93h-407v673zM461 905l-122 -173h-86l-122 173h92l73 -97l72 97h93z" />
    <glyph glyph-name="Ecircumflex" unicode="&#xca;" horiz-adv-x="540" 
d="M88 673h396v-93h-291v-186h281v-90h-281v-211h302v-93h-407v673zM368 732l-73 97l-72 -97h-92l121 173h87l122 -173h-93z" />
    <glyph glyph-name="Edieresis" unicode="&#xcb;" horiz-adv-x="540" 
d="M88 673h396v-93h-291v-186h281v-90h-281v-211h302v-93h-407v673zM402 746q-27 0 -46.5 19t-19.5 45t19 45t47 19q29 0 48 -18.5t19 -45.5t-19.5 -45.5t-47.5 -18.5zM189 746q-27 0 -46 19t-19 45t18.5 44.5t46.5 18.5q29 0 48 -18t19 -45t-19 -45.5t-48 -18.5z" />
    <glyph glyph-name="Edotaccent" unicode="&#x116;" horiz-adv-x="540" 
d="M88 673h396v-93h-291v-186h281v-90h-281v-211h302v-93h-407v673zM296 741q-29 0 -50 20t-21 49t21 48.5t50 19.5q30 0 50.5 -19.5t20.5 -48.5t-20.5 -49t-50.5 -20z" />
    <glyph glyph-name="Egrave" unicode="&#xc8;" horiz-adv-x="540" 
d="M88 673h396v-93h-291v-186h281v-90h-281v-211h302v-93h-407v673zM138 905h121l88 -173h-96z" />
    <glyph glyph-name="Emacron" unicode="&#x112;" horiz-adv-x="540" 
d="M88 673h396v-93h-291v-186h281v-90h-281v-211h302v-93h-407v673zM148 844h295v-81h-295v81z" />
    <glyph glyph-name="Eogonek" unicode="&#x118;" horiz-adv-x="540" 
d="M88 673h396v-93h-291v-186h281v-90h-281v-211h302v-93h-407v673zM426 -190q-57 0 -90 23.5t-33 63.5q0 39 35.5 76.5t117.5 72.5l38 -46l-43 -27q-31 -18 -41.5 -29.5t-10.5 -28.5q0 -34 55 -34h40v-67q-20 -2 -38 -3t-30 -1z" />
    <glyph glyph-name="F" unicode="F" horiz-adv-x="513" 
d="M88 673h392v-95h-287v-202h278v-93h-278v-283h-105v673z" />
    <glyph glyph-name="G" unicode="G" horiz-adv-x="785" 
d="M718 344v-191q-49 -81 -128.5 -122.5t-179.5 -41.5q-80 0 -146.5 26t-114.5 72.5t-75 111t-27 140.5q0 75 26.5 138.5t73.5 109t112 71.5t142 26q58 0 108.5 -15t90.5 -43t68.5 -68t42.5 -90h-115q-25 58 -76 89t-120 31q-54 0 -99 -18.5t-77.5 -51.5t-51 -79t-18.5 -101
q0 -56 19 -102.5t53 -80.5t81.5 -52.5t104.5 -18.5q61 0 113.5 22t88.5 70v79h-207v89h311z" />
    <glyph glyph-name="Gbreve" unicode="&#x11e;" horiz-adv-x="785" 
d="M718 344v-191q-49 -81 -128.5 -122.5t-179.5 -41.5q-80 0 -146.5 26t-114.5 72.5t-75 111t-27 140.5q0 75 26.5 138.5t73.5 109t112 71.5t142 26q58 0 108.5 -15t90.5 -43t68.5 -68t42.5 -90h-115q-25 58 -76 89t-120 31q-54 0 -99 -18.5t-77.5 -51.5t-51 -79t-18.5 -101
q0 -56 19 -102.5t53 -80.5t81.5 -52.5t104.5 -18.5q61 0 113.5 22t88.5 70v79h-207v89h311zM396 733q-39 0 -73 12.5t-58.5 35t-38.5 52.5t-14 65h82q0 -37 29.5 -63.5t72.5 -26.5t72 26.5t29 63.5h83q0 -35 -14 -65t-38.5 -52.5t-58.5 -35t-73 -12.5z" />
    <glyph glyph-name="uni0122" unicode="&#x122;" horiz-adv-x="785" 
d="M718 344v-191q-49 -81 -128.5 -122.5t-179.5 -41.5q-80 0 -146.5 26t-114.5 72.5t-75 111t-27 140.5q0 75 26.5 138.5t73.5 109t112 71.5t142 26q58 0 108.5 -15t90.5 -43t68.5 -68t42.5 -90h-115q-25 58 -76 89t-120 31q-54 0 -99 -18.5t-77.5 -51.5t-51 -79t-18.5 -101
q0 -56 19 -102.5t53 -80.5t81.5 -52.5t104.5 -18.5q61 0 113.5 22t88.5 70v79h-207v89h311zM345 -48h96l-22 -169h-86z" />
    <glyph glyph-name="H" unicode="H" horiz-adv-x="691" 
d="M88 673h105v-268h306v268h105v-673h-105v310h-306v-310h-105v673z" />
    <glyph glyph-name="I" unicode="I" horiz-adv-x="280" 
d="M88 673h105v-673h-105v673z" />
    <glyph glyph-name="Iacute" unicode="&#xcd;" horiz-adv-x="280" 
d="M88 673h105v-673h-105v673zM178 905h123l-115 -173h-96z" />
    <glyph glyph-name="Icircumflex" unicode="&#xce;" horiz-adv-x="280" 
d="M88 673h105v-673h-105v673zM212 732l-73 97l-72 -97h-92l121 173h87l122 -173h-93z" />
    <glyph glyph-name="Idieresis" unicode="&#xcf;" horiz-adv-x="280" 
d="M88 673h105v-673h-105v673zM246 746q-27 0 -46.5 19t-19.5 45t19 45t47 19q29 0 48 -18.5t19 -45.5t-19.5 -45.5t-47.5 -18.5zM33 746q-27 0 -46 19t-19 45t18.5 44.5t46.5 18.5q29 0 48 -18t19 -45t-19 -45.5t-48 -18.5z" />
    <glyph glyph-name="Idotaccent" unicode="&#x130;" horiz-adv-x="280" 
d="M88 673h105v-673h-105v673zM140 741q-29 0 -50 20t-21 49t21 48.5t50 19.5q30 0 50.5 -19.5t20.5 -48.5t-20.5 -49t-50.5 -20z" />
    <glyph glyph-name="Igrave" unicode="&#xcc;" horiz-adv-x="280" 
d="M88 673h105v-673h-105v673zM-18 905h121l88 -173h-96z" />
    <glyph glyph-name="Imacron" unicode="&#x12a;" horiz-adv-x="280" 
d="M88 673h105v-673h-105v673zM-8 844h295v-81h-295v81z" />
    <glyph glyph-name="Iogonek" unicode="&#x12e;" horiz-adv-x="280" 
d="M88 673h105v-673h-105v673zM124 -190q-57 0 -90 23.5t-33 63.5q0 39 35.5 76.5t117.5 72.5l38 -46l-43 -27q-31 -18 -41.5 -29.5t-10.5 -28.5q0 -34 55 -34h40v-67q-20 -2 -38 -3t-30 -1z" />
    <glyph glyph-name="J" unicode="J" horiz-adv-x="366" 
d="M14 95h65q95 0 95 86v492h105v-503q0 -84 -46.5 -127t-136.5 -43h-82v95z" />
    <glyph glyph-name="K" unicode="K" horiz-adv-x="594" 
d="M463 0l-270 326v-326h-105v673h105v-291l257 291h124l-278 -316l296 -357h-129z" />
    <glyph glyph-name="uni0136" unicode="&#x136;" horiz-adv-x="594" 
d="M463 0l-270 326v-326h-105v673h105v-291l257 291h124l-278 -316l296 -357h-129zM271 -48h96l-22 -169h-86z" />
    <glyph glyph-name="L" unicode="L" horiz-adv-x="480" 
d="M88 673h105v-578h265v-95h-370v673z" />
    <glyph glyph-name="Lacute" unicode="&#x139;" horiz-adv-x="480" 
d="M88 673h105v-578h265v-95h-370v673zM180 905h123l-115 -173h-96z" />
    <glyph glyph-name="Lcaron" unicode="&#x13d;" horiz-adv-x="480" 
d="M88 673h105v-578h265v-95h-370v673zM314 673h111l-45 -193h-78z" />
    <glyph glyph-name="uni013B" unicode="&#x13b;" horiz-adv-x="480" 
d="M88 673h105v-578h265v-95h-370v673zM236 -48h96l-22 -169h-86z" />
    <glyph glyph-name="Ldot" unicode="&#x13f;" horiz-adv-x="508" 
d="M88 673h105v-578h265v-95h-370v673zM389 340q-29 0 -49.5 20t-20.5 49q0 30 20.5 50t49.5 20q31 0 51 -20t20 -50q0 -29 -20 -49t-51 -20z" />
    <glyph glyph-name="Lslash" unicode="&#x141;" horiz-adv-x="488" 
d="M96 257l-78 -34v98l78 34v318h105v-277l193 88v-98l-193 -87v-204h265v-95h-370v257z" />
    <glyph glyph-name="M" unicode="M" horiz-adv-x="853" 
d="M765 673v-673h-102v516l-191 -516h-91l-191 516v-516h-101l-1 673h144l195 -538l193 538h145z" />
    <glyph glyph-name="N" unicode="N" horiz-adv-x="692" 
d="M605 673v-673h-112l-302 507v-507h-103v673h116l297 -498v498h104z" />
    <glyph glyph-name="Nacute" unicode="&#x143;" horiz-adv-x="692" 
d="M605 673v-673h-112l-302 507v-507h-103v673h116l297 -498v498h104zM385 905h123l-115 -173h-96z" />
    <glyph glyph-name="Ncaron" unicode="&#x147;" horiz-adv-x="692" 
d="M605 673v-673h-112l-302 507v-507h-103v673h116l297 -498v498h104zM512 905l-122 -173h-86l-122 173h92l73 -97l72 97h93z" />
    <glyph glyph-name="uni0145" unicode="&#x145;" horiz-adv-x="692" 
d="M605 673v-673h-112l-302 507v-507h-103v673h116l297 -498v498h104zM295 -48h96l-22 -169h-86z" />
    <glyph glyph-name="Ntilde" unicode="&#xd1;" horiz-adv-x="692" 
d="M605 673v-673h-112l-302 507v-507h-103v673h116l297 -498v498h104zM421 731q-20 0 -38 5t-43 19q-26 14 -39.5 18.5t-27.5 4.5q-20 0 -41.5 -8t-47.5 -25v83q24 19 45 27t44 9q19 0 36.5 -5t45.5 -19t41 -18t25 -4q20 0 41 7.5t48 24.5v-83q-25 -19 -45.5 -27t-43.5 -9z
" />
    <glyph glyph-name="O" unicode="O" horiz-adv-x="797" 
d="M399 -12q-75 0 -140 26.5t-112 73.5t-74 110.5t-27 138.5t26.5 138.5t74 110t112 73t140.5 26.5t140.5 -26.5t111.5 -73t73.5 -110.5t26.5 -138q0 -75 -26.5 -138.5t-74 -110.5t-112 -73.5t-139.5 -26.5zM399 86q52 0 97 19t77 52.5t50.5 80t18.5 100.5t-18.5 99.5
t-51 78.5t-77 52t-96.5 19q-53 0 -97.5 -19t-77 -52t-51 -78.5t-18.5 -99.5t18.5 -100.5t51 -80t77 -52.5t97.5 -19z" />
    <glyph glyph-name="Oacute" unicode="&#xd3;" horiz-adv-x="797" 
d="M399 -12q-75 0 -140 26.5t-112 73.5t-74 110.5t-27 138.5t26.5 138.5t74 110t112 73t140.5 26.5t140.5 -26.5t111.5 -73t73.5 -110.5t26.5 -138q0 -75 -26.5 -138.5t-74 -110.5t-112 -73.5t-139.5 -26.5zM399 86q52 0 97 19t77 52.5t50.5 80t18.5 100.5t-18.5 99.5
t-51 78.5t-77 52t-96.5 19q-53 0 -97.5 -19t-77 -52t-51 -78.5t-18.5 -99.5t18.5 -100.5t51 -80t77 -52.5t97.5 -19zM437 905h123l-115 -173h-96z" />
    <glyph glyph-name="Ocircumflex" unicode="&#xd4;" horiz-adv-x="797" 
d="M399 -12q-75 0 -140 26.5t-112 73.5t-74 110.5t-27 138.5t26.5 138.5t74 110t112 73t140.5 26.5t140.5 -26.5t111.5 -73t73.5 -110.5t26.5 -138q0 -75 -26.5 -138.5t-74 -110.5t-112 -73.5t-139.5 -26.5zM399 86q52 0 97 19t77 52.5t50.5 80t18.5 100.5t-18.5 99.5
t-51 78.5t-77 52t-96.5 19q-53 0 -97.5 -19t-77 -52t-51 -78.5t-18.5 -99.5t18.5 -100.5t51 -80t77 -52.5t97.5 -19zM471 732l-73 97l-72 -97h-92l121 173h87l122 -173h-93z" />
    <glyph glyph-name="Odieresis" unicode="&#xd6;" horiz-adv-x="797" 
d="M399 -12q-75 0 -140 26.5t-112 73.5t-74 110.5t-27 138.5t26.5 138.5t74 110t112 73t140.5 26.5t140.5 -26.5t111.5 -73t73.5 -110.5t26.5 -138q0 -75 -26.5 -138.5t-74 -110.5t-112 -73.5t-139.5 -26.5zM399 86q52 0 97 19t77 52.5t50.5 80t18.5 100.5t-18.5 99.5
t-51 78.5t-77 52t-96.5 19q-53 0 -97.5 -19t-77 -52t-51 -78.5t-18.5 -99.5t18.5 -100.5t51 -80t77 -52.5t97.5 -19zM505 746q-27 0 -46.5 19t-19.5 45t19 45t47 19q29 0 48 -18.5t19 -45.5t-19.5 -45.5t-47.5 -18.5zM292 746q-27 0 -46 19t-19 45t18.5 44.5t46.5 18.5
q29 0 48 -18t19 -45t-19 -45.5t-48 -18.5z" />
    <glyph glyph-name="Ograve" unicode="&#xd2;" horiz-adv-x="797" 
d="M399 -12q-75 0 -140 26.5t-112 73.5t-74 110.5t-27 138.5t26.5 138.5t74 110t112 73t140.5 26.5t140.5 -26.5t111.5 -73t73.5 -110.5t26.5 -138q0 -75 -26.5 -138.5t-74 -110.5t-112 -73.5t-139.5 -26.5zM399 86q52 0 97 19t77 52.5t50.5 80t18.5 100.5t-18.5 99.5
t-51 78.5t-77 52t-96.5 19q-53 0 -97.5 -19t-77 -52t-51 -78.5t-18.5 -99.5t18.5 -100.5t51 -80t77 -52.5t97.5 -19zM241 905h121l88 -173h-96z" />
    <glyph glyph-name="Ohungarumlaut" unicode="&#x150;" horiz-adv-x="797" 
d="M399 -12q-75 0 -140 26.5t-112 73.5t-74 110.5t-27 138.5t26.5 138.5t74 110t112 73t140.5 26.5t140.5 -26.5t111.5 -73t73.5 -110.5t26.5 -138q0 -75 -26.5 -138.5t-74 -110.5t-112 -73.5t-139.5 -26.5zM399 86q52 0 97 19t77 52.5t50.5 80t18.5 100.5t-18.5 99.5
t-51 78.5t-77 52t-96.5 19q-53 0 -97.5 -19t-77 -52t-51 -78.5t-18.5 -99.5t18.5 -100.5t51 -80t77 -52.5t97.5 -19zM378 905h96l-110 -173h-91zM550 905h105l-129 -173h-85z" />
    <glyph glyph-name="Omacron" unicode="&#x14c;" horiz-adv-x="797" 
d="M399 -12q-75 0 -140 26.5t-112 73.5t-74 110.5t-27 138.5t26.5 138.5t74 110t112 73t140.5 26.5t140.5 -26.5t111.5 -73t73.5 -110.5t26.5 -138q0 -75 -26.5 -138.5t-74 -110.5t-112 -73.5t-139.5 -26.5zM399 86q52 0 97 19t77 52.5t50.5 80t18.5 100.5t-18.5 99.5
t-51 78.5t-77 52t-96.5 19q-53 0 -97.5 -19t-77 -52t-51 -78.5t-18.5 -99.5t18.5 -100.5t51 -80t77 -52.5t97.5 -19zM251 844h295v-81h-295v81z" />
    <glyph glyph-name="Oslash" unicode="&#xd8;" horiz-adv-x="818" 
d="M674 569q41 -46 63.5 -104.5t22.5 -127.5q0 -75 -27 -138.5t-74 -110t-112 -73t-140 -26.5q-54 0 -102.5 13.5t-90.5 39.5l-62 -72h-122l112 132q-42 46 -65 105.5t-23 129.5q0 75 26.5 138.5t74 110t112 72.5t140.5 26q55 0 104.5 -14.5t91.5 -40.5l63 74h122zM407 587
q-52 0 -96.5 -19t-77 -52t-51 -78.5t-18.5 -99.5q0 -45 13 -84.5t36 -71.5l325 369q-28 17 -61 26.5t-70 9.5zM407 86q52 0 97 19t77.5 52.5t51 80t18.5 100.5q0 89 -48 152l-324 -369q56 -35 128 -35z" />
    <glyph glyph-name="Otilde" unicode="&#xd5;" horiz-adv-x="797" 
d="M399 -12q-75 0 -140 26.5t-112 73.5t-74 110.5t-27 138.5t26.5 138.5t74 110t112 73t140.5 26.5t140.5 -26.5t111.5 -73t73.5 -110.5t26.5 -138q0 -75 -26.5 -138.5t-74 -110.5t-112 -73.5t-139.5 -26.5zM399 86q52 0 97 19t77 52.5t50.5 80t18.5 100.5t-18.5 99.5
t-51 78.5t-77 52t-96.5 19q-53 0 -97.5 -19t-77 -52t-51 -78.5t-18.5 -99.5t18.5 -100.5t51 -80t77 -52.5t97.5 -19zM473 731q-20 0 -38 5t-43 19q-26 14 -39.5 18.5t-27.5 4.5q-20 0 -41.5 -8t-47.5 -25v83q24 19 45 27t44 9q19 0 36.5 -5t45.5 -19t41 -18t25 -4
q20 0 41 7.5t48 24.5v-83q-25 -19 -45.5 -27t-43.5 -9z" />
    <glyph glyph-name="OE" unicode="&#x152;" horiz-adv-x="1089" 
d="M1044 93v-93h-401v100q-41 -51 -105.5 -81t-141.5 -30q-75 0 -139 26.5t-111 73t-73.5 110.5t-26.5 138t27 137.5t74 110t111 73t139 26.5q77 0 141 -29.5t105 -80.5v99h390v-93h-288v-186h278v-90h-278v-211h299zM399 86q52 0 96.5 19t77 53t51 79.5t18.5 99.5
q0 53 -18.5 99t-51 79.5t-77 52.5t-96.5 19q-53 0 -97.5 -19t-77 -52.5t-51 -79t-18.5 -99.5t18.5 -99.5t51.5 -79.5t77.5 -53t96.5 -19z" />
    <glyph glyph-name="P" unicode="P" horiz-adv-x="562" 
d="M88 673h219q104 0 163.5 -54.5t59.5 -149.5q0 -47 -15.5 -85.5t-44.5 -65.5t-70.5 -41.5t-92.5 -14.5h-114v-262h-105v673zM303 352q56 0 87.5 31t31.5 85t-31 83.5t-88 29.5h-111v-229h111z" />
    <glyph glyph-name="Thorn" unicode="&#xde;" horiz-adv-x="596" 
d="M88 673h106v-120h142q106 0 167 -56t61 -153q0 -48 -16 -87t-46 -66.5t-72 -42.5t-94 -15h-142v-133h-106v673zM333 229q57 0 88.5 30t31.5 84t-31.5 84.5t-88.5 30.5h-139v-229h139z" />
    <glyph glyph-name="Q" unicode="Q" horiz-adv-x="797" 
d="M778 -43v-92l-468 134q-61 17 -110 49t-83 75.5t-52.5 97t-18.5 113.5q0 74 27.5 138t75 111.5t112 74.5t139.5 27t140 -27t112.5 -73.5t75 -109.5t27.5 -136q0 -56 -16.5 -105.5t-46.5 -89.5t-72 -70t-94 -47zM155 338q0 -54 18.5 -100t51.5 -80t77.5 -53t97.5 -19
q52 0 97 19.5t78 53t51.5 79.5t18.5 100q0 53 -18.5 98.5t-51.5 79t-78 52.5t-97 19q-53 0 -97.5 -19t-77.5 -52.5t-51.5 -79t-18.5 -98.5z" />
    <glyph glyph-name="R" unicode="R" horiz-adv-x="603" 
d="M88 673h219q104 0 163.5 -54.5t59.5 -149.5q0 -72 -35.5 -122.5t-99.5 -71.5l179 -275h-123l-167 262h-91v-262h-105v673zM303 352q56 0 87.5 31t31.5 85t-31 83.5t-88 29.5h-111v-229h111z" />
    <glyph glyph-name="Racute" unicode="&#x154;" horiz-adv-x="603" 
d="M88 673h219q104 0 163.5 -54.5t59.5 -149.5q0 -72 -35.5 -122.5t-99.5 -71.5l179 -275h-123l-167 262h-91v-262h-105v673zM303 352q56 0 87.5 31t31.5 85t-31 83.5t-88 29.5h-111v-229h111zM318 905h123l-115 -173h-96z" />
    <glyph glyph-name="Rcaron" unicode="&#x158;" horiz-adv-x="603" 
d="M88 673h219q104 0 163.5 -54.5t59.5 -149.5q0 -72 -35.5 -122.5t-99.5 -71.5l179 -275h-123l-167 262h-91v-262h-105v673zM303 352q56 0 87.5 31t31.5 85t-31 83.5t-88 29.5h-111v-229h111zM445 905l-122 -173h-86l-122 173h92l73 -97l72 97h93z" />
    <glyph glyph-name="uni0156" unicode="&#x156;" horiz-adv-x="603" 
d="M88 673h219q104 0 163.5 -54.5t59.5 -149.5q0 -72 -35.5 -122.5t-99.5 -71.5l179 -275h-123l-167 262h-91v-262h-105v673zM303 352q56 0 87.5 31t31.5 85t-31 83.5t-88 29.5h-111v-229h111zM249 -48h96l-22 -169h-86z" />
    <glyph glyph-name="S" unicode="S" horiz-adv-x="548" 
d="M277 -12q-107 0 -170.5 57.5t-68.5 157.5h104q3 -58 39 -92t94 -34t91.5 27t33.5 73q0 37 -20 59.5t-73 42.5l-89 34q-81 31 -117.5 77t-36.5 115q0 40 15.5 73t44 56.5t68 36.5t87.5 13q97 0 154 -50t64 -141h-104q-3 49 -32.5 76t-81.5 27q-51 0 -81 -23.5t-30 -63.5
q0 -39 21.5 -64t72.5 -45l93 -35q81 -31 116 -73.5t35 -109.5q0 -45 -16 -80.5t-46 -61t-72.5 -39t-94.5 -13.5z" />
    <glyph glyph-name="Sacute" unicode="&#x15a;" horiz-adv-x="548" 
d="M277 -12q-107 0 -170.5 57.5t-68.5 157.5h104q3 -58 39 -92t94 -34t91.5 27t33.5 73q0 37 -20 59.5t-73 42.5l-89 34q-81 31 -117.5 77t-36.5 115q0 40 15.5 73t44 56.5t68 36.5t87.5 13q97 0 154 -50t64 -141h-104q-3 49 -32.5 76t-81.5 27q-51 0 -81 -23.5t-30 -63.5
q0 -39 21.5 -64t72.5 -45l93 -35q81 -31 116 -73.5t35 -109.5q0 -45 -16 -80.5t-46 -61t-72.5 -39t-94.5 -13.5zM312 905h123l-115 -173h-96z" />
    <glyph glyph-name="Scaron" unicode="&#x160;" horiz-adv-x="548" 
d="M277 -12q-107 0 -170.5 57.5t-68.5 157.5h104q3 -58 39 -92t94 -34t91.5 27t33.5 73q0 37 -20 59.5t-73 42.5l-89 34q-81 31 -117.5 77t-36.5 115q0 40 15.5 73t44 56.5t68 36.5t87.5 13q97 0 154 -50t64 -141h-104q-3 49 -32.5 76t-81.5 27q-51 0 -81 -23.5t-30 -63.5
q0 -39 21.5 -64t72.5 -45l93 -35q81 -31 116 -73.5t35 -109.5q0 -45 -16 -80.5t-46 -61t-72.5 -39t-94.5 -13.5zM439 905l-122 -173h-86l-122 173h92l73 -97l72 97h93z" />
    <glyph glyph-name="Scedilla" unicode="&#x15e;" horiz-adv-x="548" 
d="M277 -12q-107 0 -170.5 57.5t-68.5 157.5h104q3 -58 39 -92t94 -34t91.5 27t33.5 73q0 37 -20 59.5t-73 42.5l-89 34q-81 31 -117.5 77t-36.5 115q0 40 15.5 73t44 56.5t68 36.5t87.5 13q97 0 154 -50t64 -141h-104q-3 49 -32.5 76t-81.5 27q-51 0 -81 -23.5t-30 -63.5
q0 -39 21.5 -64t72.5 -45l93 -35q81 -31 116 -73.5t35 -109.5q0 -45 -16 -80.5t-46 -61t-72.5 -39t-94.5 -13.5zM232 -192h-30.5t-19 0.5t-13 1t-11.5 1.5v69h60q65 0 65 59q0 20 -8 37t-26 37l48 21q35 -20 52.5 -48t17.5 -60q0 -55 -35.5 -86.5t-99.5 -31.5z" />
    <glyph glyph-name="uni0218" unicode="&#x218;" horiz-adv-x="548" 
d="M277 -12q-107 0 -170.5 57.5t-68.5 157.5h104q3 -58 39 -92t94 -34t91.5 27t33.5 73q0 37 -20 59.5t-73 42.5l-89 34q-81 31 -117.5 77t-36.5 115q0 40 15.5 73t44 56.5t68 36.5t87.5 13q97 0 154 -50t64 -141h-104q-3 49 -32.5 76t-81.5 27q-51 0 -81 -23.5t-30 -63.5
q0 -39 21.5 -64t72.5 -45l93 -35q81 -31 116 -73.5t35 -109.5q0 -45 -16 -80.5t-46 -61t-72.5 -39t-94.5 -13.5zM222 -48h96l-22 -169h-86z" />
    <glyph glyph-name="T" unicode="T" horiz-adv-x="559" 
d="M222 578h-190v95h494v-95h-199v-578h-105v578z" />
    <glyph glyph-name="Tcaron" unicode="&#x164;" horiz-adv-x="559" 
d="M222 578h-190v95h494v-95h-199v-578h-105v578zM445 905l-122 -173h-86l-122 173h92l73 -97l72 97h93z" />
    <glyph glyph-name="uni0162" unicode="&#x162;" horiz-adv-x="559" 
d="M222 578h-190v95h494v-95h-199v-578h-105v578zM238 -192h-30.5t-19 0.5t-13 1t-11.5 1.5v69h60q65 0 65 59q0 20 -8 37t-26 37l48 21q35 -20 52.5 -48t17.5 -60q0 -55 -35.5 -86.5t-99.5 -31.5z" />
    <glyph glyph-name="uni021A" unicode="&#x21a;" horiz-adv-x="559" 
d="M222 578h-190v95h494v-95h-199v-578h-105v578zM228 -48h96l-22 -169h-86z" />
    <glyph glyph-name="U" unicode="U" horiz-adv-x="679" 
d="M339 -12q-59 0 -107 19.5t-82 55t-52 86.5t-18 114v410h105v-412q0 -81 41 -128.5t113 -47.5q73 0 114 46.5t41 129.5v412h105v-410q0 -63 -18 -114t-52 -86.5t-82 -55t-108 -19.5z" />
    <glyph glyph-name="Uacute" unicode="&#xda;" horiz-adv-x="679" 
d="M339 -12q-59 0 -107 19.5t-82 55t-52 86.5t-18 114v410h105v-412q0 -81 41 -128.5t113 -47.5q73 0 114 46.5t41 129.5v412h105v-410q0 -63 -18 -114t-52 -86.5t-82 -55t-108 -19.5zM379 905h123l-115 -173h-96z" />
    <glyph glyph-name="Ucircumflex" unicode="&#xdb;" horiz-adv-x="679" 
d="M339 -12q-59 0 -107 19.5t-82 55t-52 86.5t-18 114v410h105v-412q0 -81 41 -128.5t113 -47.5q73 0 114 46.5t41 129.5v412h105v-410q0 -63 -18 -114t-52 -86.5t-82 -55t-108 -19.5zM413 732l-73 97l-72 -97h-92l121 173h87l122 -173h-93z" />
    <glyph glyph-name="Udieresis" unicode="&#xdc;" horiz-adv-x="679" 
d="M339 -12q-59 0 -107 19.5t-82 55t-52 86.5t-18 114v410h105v-412q0 -81 41 -128.5t113 -47.5q73 0 114 46.5t41 129.5v412h105v-410q0 -63 -18 -114t-52 -86.5t-82 -55t-108 -19.5zM447 746q-27 0 -46.5 19t-19.5 45t19 45t47 19q29 0 48 -18.5t19 -45.5t-19.5 -45.5
t-47.5 -18.5zM234 746q-27 0 -46 19t-19 45t18.5 44.5t46.5 18.5q29 0 48 -18t19 -45t-19 -45.5t-48 -18.5z" />
    <glyph glyph-name="Ugrave" unicode="&#xd9;" horiz-adv-x="679" 
d="M339 -12q-59 0 -107 19.5t-82 55t-52 86.5t-18 114v410h105v-412q0 -81 41 -128.5t113 -47.5q73 0 114 46.5t41 129.5v412h105v-410q0 -63 -18 -114t-52 -86.5t-82 -55t-108 -19.5zM183 905h121l88 -173h-96z" />
    <glyph glyph-name="Uhungarumlaut" unicode="&#x170;" horiz-adv-x="679" 
d="M339 -12q-59 0 -107 19.5t-82 55t-52 86.5t-18 114v410h105v-412q0 -81 41 -128.5t113 -47.5q73 0 114 46.5t41 129.5v412h105v-410q0 -63 -18 -114t-52 -86.5t-82 -55t-108 -19.5zM320 905h96l-110 -173h-91zM492 905h105l-129 -173h-85z" />
    <glyph glyph-name="Umacron" unicode="&#x16a;" horiz-adv-x="679" 
d="M339 -12q-59 0 -107 19.5t-82 55t-52 86.5t-18 114v410h105v-412q0 -81 41 -128.5t113 -47.5q73 0 114 46.5t41 129.5v412h105v-410q0 -63 -18 -114t-52 -86.5t-82 -55t-108 -19.5zM193 844h295v-81h-295v81z" />
    <glyph glyph-name="Uogonek" unicode="&#x172;" horiz-adv-x="679" 
d="M339 -12q-59 0 -107 19.5t-82 55t-52 86.5t-18 114v410h105v-412q0 -81 41 -128.5t113 -47.5q73 0 114 46.5t41 129.5v412h105v-410q0 -63 -18 -114t-52 -86.5t-82 -55t-108 -19.5zM416 -190q-57 0 -90 23t-33 64q0 21 8 40t27.5 39.5t52 44t80.5 53.5l42 -33l-81 -73
q-11 -10 -17 -16.5t-10 -12.5t-5 -11.5t-1 -12.5q0 -37 54 -37h41v-64q-23 -4 -68 -4z" />
    <glyph glyph-name="Uring" unicode="&#x16e;" horiz-adv-x="679" 
d="M339 -12q-59 0 -107 19.5t-82 55t-52 86.5t-18 114v410h105v-412q0 -81 41 -128.5t113 -47.5q73 0 114 46.5t41 129.5v412h105v-410q0 -63 -18 -114t-52 -86.5t-82 -55t-108 -19.5zM341 688q-26 0 -47.5 8.5t-37 24t-24.5 36.5t-9 46t9 46t24.5 36.5t37 24t47.5 8.5
q25 0 46.5 -8.5t37.5 -24t25 -36.5t9 -46t-9 -46t-25 -36.5t-37.5 -24t-46.5 -8.5zM342 752q20 0 34.5 14.5t14.5 36.5t-14.5 36t-34.5 14q-23 0 -36.5 -14t-13.5 -36q0 -23 14 -37t36 -14z" />
    <glyph glyph-name="V" unicode="V" horiz-adv-x="641" 
d="M615 673l-238 -673h-113l-237 673h114l180 -539l180 539h114z" />
    <glyph glyph-name="W" unicode="W" horiz-adv-x="989" 
d="M941 673l-194 -673h-117l-135 527l-135 -527h-117l-194 673h114l143 -534l131 534h116l131 -534l143 534h114z" />
    <glyph glyph-name="X" unicode="X" horiz-adv-x="632" 
d="M483 0l-167 269l-166 -269h-121l220 347l-206 326h120l153 -248l151 248h121l-205 -326l220 -347h-120z" />
    <glyph glyph-name="Y" unicode="Y" horiz-adv-x="613" 
d="M359 287v-287h-105v290l-224 383h121l157 -287l156 287h120z" />
    <glyph glyph-name="Yacute" unicode="&#xdd;" horiz-adv-x="613" 
d="M359 287v-287h-105v290l-224 383h121l157 -287l156 287h120zM346 905h123l-115 -173h-96z" />
    <glyph glyph-name="Ydieresis" unicode="&#x178;" horiz-adv-x="613" 
d="M359 287v-287h-105v290l-224 383h121l157 -287l156 287h120zM414 746q-27 0 -46.5 19t-19.5 45t19 45t47 19q29 0 48 -18.5t19 -45.5t-19.5 -45.5t-47.5 -18.5zM201 746q-27 0 -46 19t-19 45t18.5 44.5t46.5 18.5q29 0 48 -18t19 -45t-19 -45.5t-48 -18.5z" />
    <glyph glyph-name="Z" unicode="Z" horiz-adv-x="571" 
d="M527 95v-95h-480v89l350 489h-333v95h459v-90l-353 -488h357z" />
    <glyph glyph-name="Zacute" unicode="&#x179;" horiz-adv-x="571" 
d="M527 95v-95h-480v89l350 489h-333v95h459v-90l-353 -488h357zM324 905h123l-115 -173h-96z" />
    <glyph glyph-name="Zcaron" unicode="&#x17d;" horiz-adv-x="571" 
d="M527 95v-95h-480v89l350 489h-333v95h459v-90l-353 -488h357zM451 905l-122 -173h-86l-122 173h92l73 -97l72 97h93z" />
    <glyph glyph-name="Zdotaccent" unicode="&#x17b;" horiz-adv-x="571" 
d="M527 95v-95h-480v89l350 489h-333v95h459v-90l-353 -488h357zM286 741q-29 0 -50 20t-21 49t21 48.5t50 19.5q30 0 50.5 -19.5t20.5 -48.5t-20.5 -49t-50.5 -20z" />
    <glyph glyph-name="Iacute_J.locl" horiz-adv-x="646" 
d="M294 95h65q95 0 95 86v492h105v-503q0 -84 -46.5 -127t-136.5 -43h-82v95zM542 905h123l-115 -173h-96zM88 673h105v-673h-105v673zM178 905h123l-115 -173h-96z" />
    <glyph glyph-name="Idotaccent.aalt" horiz-adv-x="280" 
d="M88 673h105v-673h-105v673zM140 741q-29 0 -50 20t-21 49t21 48.5t50 19.5q30 0 50.5 -19.5t20.5 -48.5t-20.5 -49t-50.5 -20z" />
    <glyph glyph-name="A.aalt" horiz-adv-x="427" 
d="M290 353h-154l-28 -84h-91l146 404h100l147 -404h-92zM159 422h109l-54 173z" />
    <glyph glyph-name="C.aalt" horiz-adv-x="483" 
d="M246 262q-47 0 -86 16t-68 44t-45 66.5t-16 83.5t16 83.5t45 66t68 43t86 15.5q42 0 78 -12.5t63.5 -35t44.5 -53.5t22 -68h-91q-10 41 -42 65t-75 24q-27 0 -49.5 -9.5t-39.5 -26.5t-26.5 -40.5t-9.5 -51.5t9.5 -51.5t26.5 -41t39.5 -27t49.5 -9.5q43 0 75 24t42 66h91
q-5 -38 -23 -69.5t-45 -54t-63 -35t-77 -12.5z" />
    <glyph glyph-name="D.aalt" horiz-adv-x="457" 
d="M57 673h149q49 0 89.5 -14.5t70 -41t45.5 -63.5t16 -82t-16.5 -82t-45.5 -64t-69.5 -42t-89.5 -15h-149v404zM205 347q60 0 95.5 34t35.5 91t-35.5 90t-95.5 33h-60v-248h60z" />
    <glyph glyph-name="E.aalt" horiz-adv-x="338" 
d="M57 673h245v-76h-157v-84h151v-72h-151v-96h163v-76h-251v404z" />
    <glyph glyph-name="G.aalt" horiz-adv-x="485" 
d="M442 491v-127q-28 -48 -79 -75t-114 -27q-48 0 -88 16t-69.5 44t-45.5 66.5t-16 84.5q0 45 16 83t44.5 65.5t68.5 43t87 15.5q77 0 130 -38.5t65 -103.5h-92q-11 31 -38.5 46t-62.5 15q-57 0 -92 -35t-35 -92t36 -93.5t93 -36.5q32 0 59.5 11.5t44.5 31.5v34h-104v72h192
z" />
    <glyph glyph-name="H.aalt" horiz-adv-x="440" 
d="M57 673h88v-154h150v154h88v-404h-88v172h-150v-172h-88v404z" />
    <glyph glyph-name="I.aalt" horiz-adv-x="202" 
d="M57 673h88v-404h-88v404z" />
    <glyph glyph-name="J.aalt" horiz-adv-x="241" 
d="M9 347h43q45 0 45 44v282h87v-292q0 -112 -122 -112h-53v78z" />
    <glyph glyph-name="K.aalt" horiz-adv-x="391" 
d="M285 269l-140 190v-190h-88v404h88v-171l130 171h102l-148 -192l158 -212h-102z" />
    <glyph glyph-name="M.aalt" horiz-adv-x="540" 
d="M483 673v-404h-86v266l-94 -266h-67l-93 268v-268h-86v404h115l98 -285l97 285h116z" />
    <glyph glyph-name="N.aalt" horiz-adv-x="440" 
d="M383 673v-404h-92l-147 258v-258h-87v404h92l147 -260v260h87z" />
    <glyph glyph-name="P.aalt" horiz-adv-x="362" 
d="M57 673h140q68 0 106 -35t38 -95t-38 -94.5t-106 -34.5h-52v-145h-88v404zM195 489q27 0 42.5 14t15.5 40t-15.5 40t-42.5 14h-50v-108h50z" />
    <glyph glyph-name="R.aalt" horiz-adv-x="388" 
d="M268 269l-84 145h-39v-145h-88v404h140q68 0 106 -35t38 -95q0 -40 -18 -69.5t-50 -44.5l96 -160h-101zM145 489h50q27 0 42.5 14t15.5 40t-15.5 40t-42.5 14h-50v-108z" />
    <glyph glyph-name="S.aalt" horiz-adv-x="346" 
d="M174 262q-69 0 -108.5 35t-41.5 100h85q3 -65 65 -65q26 0 42 12t16 35q0 17 -9.5 26.5t-35.5 18.5l-52 19q-50 18 -73.5 48.5t-23.5 71.5q0 54 37.5 85.5t99.5 31.5q61 0 96.5 -32t40.5 -92h-85q-2 26 -14 40t-38 14q-23 0 -37 -11t-14 -32q0 -32 44 -48l53 -19
q54 -19 76 -48.5t22 -68.5q0 -57 -38.5 -89t-106.5 -32z" />
    <glyph glyph-name="T.aalt" horiz-adv-x="348" 
d="M127 594h-107v79h307v-79h-113v-325h-87v325z" />
    <glyph glyph-name="U.aalt" horiz-adv-x="431" 
d="M216 262q-75 0 -119.5 45t-44.5 121v245h88v-245q0 -39 20 -62t55 -23t55.5 22.5t20.5 62.5v245h88v-245q0 -77 -44 -121.5t-119 -44.5z" />
    <glyph glyph-name="Z.aalt" horiz-adv-x="352" 
d="M322 346v-77h-291v71l184 255h-177v78h282v-71l-188 -256h190z" />
    <glyph glyph-name="a" unicode="a" horiz-adv-x="535" 
d="M264 502q94 0 148 -50.5t54 -141.5v-310h-95v55q-27 -32 -68 -49t-92 -17q-78 0 -123.5 38.5t-45.5 106.5q0 69 47.5 107.5t132.5 38.5h143v32q0 50 -28 76.5t-78 26.5q-84 0 -95 -70h-98q5 72 58.5 114.5t139.5 42.5zM231 67q29 0 53.5 9t42.5 24.5t28 37.5t10 49v18
h-124q-96 0 -96 -68q0 -70 86 -70z" />
    <glyph glyph-name="aacute" unicode="&#xe1;" horiz-adv-x="535" 
d="M264 502q94 0 148 -50.5t54 -141.5v-310h-95v55q-27 -32 -68 -49t-92 -17q-78 0 -123.5 38.5t-45.5 106.5q0 69 47.5 107.5t132.5 38.5h143v32q0 50 -28 76.5t-78 26.5q-84 0 -95 -70h-98q5 72 58.5 114.5t139.5 42.5zM231 67q29 0 53.5 9t42.5 24.5t28 37.5t10 49v18
h-124q-96 0 -96 -68q0 -70 86 -70zM302 734h117l-112 -174h-96z" />
    <glyph glyph-name="abreve" unicode="&#x103;" horiz-adv-x="535" 
d="M264 502q94 0 148 -50.5t54 -141.5v-310h-95v55q-27 -32 -68 -49t-92 -17q-78 0 -123.5 38.5t-45.5 106.5q0 69 47.5 107.5t132.5 38.5h143v32q0 50 -28 76.5t-78 26.5q-84 0 -95 -70h-98q5 72 58.5 114.5t139.5 42.5zM231 67q29 0 53.5 9t42.5 24.5t28 37.5t10 49v18
h-124q-96 0 -96 -68q0 -70 86 -70zM264 561q-71 0 -111.5 44t-40.5 121h81q0 -91 71 -91t71 91h82q0 -77 -41 -121t-112 -44z" />
    <glyph glyph-name="acircumflex" unicode="&#xe2;" horiz-adv-x="535" 
d="M264 502q94 0 148 -50.5t54 -141.5v-310h-95v55q-27 -32 -68 -49t-92 -17q-78 0 -123.5 38.5t-45.5 106.5q0 69 47.5 107.5t132.5 38.5h143v32q0 50 -28 76.5t-78 26.5q-84 0 -95 -70h-98q5 72 58.5 114.5t139.5 42.5zM231 67q29 0 53.5 9t42.5 24.5t28 37.5t10 49v18
h-124q-96 0 -96 -68q0 -70 86 -70zM332 560l-68 97l-68 -97h-93l118 174h85l119 -174h-93z" />
    <glyph glyph-name="adieresis" unicode="&#xe4;" horiz-adv-x="535" 
d="M264 502q94 0 148 -50.5t54 -141.5v-310h-95v55q-27 -32 -68 -49t-92 -17q-78 0 -123.5 38.5t-45.5 106.5q0 69 47.5 107.5t132.5 38.5h143v32q0 50 -28 76.5t-78 26.5q-84 0 -95 -70h-98q5 72 58.5 114.5t139.5 42.5zM231 67q29 0 53.5 9t42.5 24.5t28 37.5t10 49v18
h-124q-96 0 -96 -68q0 -70 86 -70zM164 591q-26 0 -44 18t-18 43q0 26 18 43.5t44 17.5q28 0 46 -17.5t18 -43.5t-18.5 -43.5t-45.5 -17.5zM362 591q-26 0 -44 18t-18 43q0 26 18 43.5t44 17.5q28 0 46 -17.5t18 -43.5t-18.5 -43.5t-45.5 -17.5z" />
    <glyph glyph-name="agrave" unicode="&#xe0;" horiz-adv-x="535" 
d="M264 502q94 0 148 -50.5t54 -141.5v-310h-95v55q-27 -32 -68 -49t-92 -17q-78 0 -123.5 38.5t-45.5 106.5q0 69 47.5 107.5t132.5 38.5h143v32q0 50 -28 76.5t-78 26.5q-84 0 -95 -70h-98q5 72 58.5 114.5t139.5 42.5zM231 67q29 0 53.5 9t42.5 24.5t28 37.5t10 49v18
h-124q-96 0 -96 -68q0 -70 86 -70zM108 734h119l89 -174h-96z" />
    <glyph glyph-name="amacron" unicode="&#x101;" horiz-adv-x="535" 
d="M264 502q94 0 148 -50.5t54 -141.5v-310h-95v55q-27 -32 -68 -49t-92 -17q-78 0 -123.5 38.5t-45.5 106.5q0 69 47.5 107.5t132.5 38.5h143v32q0 50 -28 76.5t-78 26.5q-84 0 -95 -70h-98q5 72 58.5 114.5t139.5 42.5zM231 67q29 0 53.5 9t42.5 24.5t28 37.5t10 49v18
h-124q-96 0 -96 -68q0 -70 86 -70zM126 668h275v-79h-275v79z" />
    <glyph glyph-name="aogonek" unicode="&#x105;" horiz-adv-x="535" 
d="M264 502q94 0 148 -50.5t54 -141.5v-310h-95v55q-27 -32 -68 -49t-92 -17q-78 0 -123.5 38.5t-45.5 106.5q0 69 47.5 107.5t132.5 38.5h143v32q0 50 -28 76.5t-78 26.5q-84 0 -95 -70h-98q5 72 58.5 114.5t139.5 42.5zM231 67q29 0 53.5 9t42.5 24.5t28 37.5t10 49v18
h-124q-96 0 -96 -68q0 -70 86 -70zM396 -190q-57 0 -90 23.5t-33 63.5q0 39 35.5 76.5t117.5 72.5l38 -46l-43 -27q-31 -18 -41.5 -29.5t-10.5 -28.5q0 -34 55 -34h40v-67q-20 -2 -38 -3t-30 -1z" />
    <glyph glyph-name="aring" unicode="&#xe5;" horiz-adv-x="535" 
d="M264 502q94 0 148 -50.5t54 -141.5v-310h-95v55q-27 -32 -68 -49t-92 -17q-78 0 -123.5 38.5t-45.5 106.5q0 69 47.5 107.5t132.5 38.5h143v32q0 50 -28 76.5t-78 26.5q-84 0 -95 -70h-98q5 72 58.5 114.5t139.5 42.5zM231 67q29 0 53.5 9t42.5 24.5t28 37.5t10 49v18
h-124q-96 0 -96 -68q0 -70 86 -70zM264 541q-25 0 -46.5 8.5t-37.5 24t-25 36.5t-9 46t9 46t25 36.5t37.5 24t46.5 8.5t47 -8.5t38 -24t25 -36.5t9 -46t-9 -46t-25 -36.5t-38 -24t-47 -8.5zM266 605q20 0 34.5 15t14.5 36t-14.5 35.5t-34.5 14.5q-22 0 -36 -14t-14 -36
t14 -36.5t36 -14.5z" />
    <glyph glyph-name="atilde" unicode="&#xe3;" horiz-adv-x="535" 
d="M264 502q94 0 148 -50.5t54 -141.5v-310h-95v55q-27 -32 -68 -49t-92 -17q-78 0 -123.5 38.5t-45.5 106.5q0 69 47.5 107.5t132.5 38.5h143v32q0 50 -28 76.5t-78 26.5q-84 0 -95 -70h-98q5 72 58.5 114.5t139.5 42.5zM231 67q29 0 53.5 9t42.5 24.5t28 37.5t10 49v18
h-124q-96 0 -96 -68q0 -70 86 -70zM322 565q-15 0 -30 5t-35 18q-25 15 -37 19.5t-24 4.5q-15 -1 -33 -10t-46 -26v83q31 20 49 28t38 8q15 0 29.5 -5t37.5 -18q23 -15 35 -19.5t25 -4.5q15 1 33 9.5t46 26.5v-83q-30 -20 -49 -28t-39 -8z" />
    <glyph glyph-name="ae" unicode="&#xe6;" horiz-adv-x="907" 
d="M619 502q58 0 105 -21.5t79.5 -60.5t48.5 -92t11 -116h-393q10 -63 51 -99t105 -36q47 0 76.5 15.5t47.5 49.5h104q-28 -75 -87 -114t-143 -39q-68 0 -121.5 27.5t-86.5 75.5q-26 -50 -75.5 -76.5t-120.5 -26.5q-82 0 -130 38t-48 104q0 72 48.5 112t133.5 40h135v24
q0 51 -26.5 79.5t-74.5 28.5q-83 0 -94 -70h-98q5 73 57.5 115t137.5 42q60 0 103 -22t66 -64q33 41 81.5 63.5t107.5 22.5zM619 413q-57 0 -96 -33.5t-51 -90.5h289q-5 57 -43.5 90.5t-98.5 33.5zM234 67q55 0 90 32t35 83v27h-119q-95 0 -95 -68q0 -74 89 -74z" />
    <glyph glyph-name="b" unicode="b" horiz-adv-x="630" 
d="M347 502q51 0 94.5 -19.5t75 -54t49.5 -81.5t18 -103t-18 -102.5t-49.5 -81t-75 -53.5t-95.5 -19q-57 0 -102.5 22.5t-72.5 61.5v-72h-96v673h103v-250q28 37 71.5 58t97.5 21zM327 82q69 0 111 45t42 119q0 36 -11 66t-31.5 51.5t-49 33.5t-62.5 12q-69 0 -110 -45
t-41 -119t41.5 -118.5t110.5 -44.5z" />
    <glyph glyph-name="c" unicode="c" horiz-adv-x="585" 
d="M302 -12q-56 0 -103.5 19.5t-82 54t-54.5 81.5t-20 102t20 102t54.5 81.5t82 54t103.5 19.5q46 0 87 -13.5t72.5 -37.5t52.5 -58t28 -76h-102q-13 42 -50 66.5t-88 24.5q-34 0 -62.5 -12t-49 -34t-32 -51.5t-11.5 -65.5t11.5 -65.5t32 -51.5t49 -34t62.5 -12
q51 0 87.5 24.5t50.5 66.5h102q-7 -42 -28 -76t-52.5 -58t-72.5 -37.5t-87 -13.5z" />
    <glyph glyph-name="cacute" unicode="&#x107;" horiz-adv-x="585" 
d="M302 -12q-56 0 -103.5 19.5t-82 54t-54.5 81.5t-20 102t20 102t54.5 81.5t82 54t103.5 19.5q46 0 87 -13.5t72.5 -37.5t52.5 -58t28 -76h-102q-13 42 -50 66.5t-88 24.5q-34 0 -62.5 -12t-49 -34t-32 -51.5t-11.5 -65.5t11.5 -65.5t32 -51.5t49 -34t62.5 -12
q51 0 87.5 24.5t50.5 66.5h102q-7 -42 -28 -76t-52.5 -58t-72.5 -37.5t-87 -13.5zM344 734h117l-112 -174h-96z" />
    <glyph glyph-name="ccaron" unicode="&#x10d;" horiz-adv-x="585" 
d="M302 -12q-56 0 -103.5 19.5t-82 54t-54.5 81.5t-20 102t20 102t54.5 81.5t82 54t103.5 19.5q46 0 87 -13.5t72.5 -37.5t52.5 -58t28 -76h-102q-13 42 -50 66.5t-88 24.5q-34 0 -62.5 -12t-49 -34t-32 -51.5t-11.5 -65.5t11.5 -65.5t32 -51.5t49 -34t62.5 -12
q51 0 87.5 24.5t50.5 66.5h102q-7 -42 -28 -76t-52.5 -58t-72.5 -37.5t-87 -13.5zM467 734l-118 -174h-85l-119 174h93l68 -97l68 97h93z" />
    <glyph glyph-name="ccedilla" unicode="&#xe7;" horiz-adv-x="585" 
d="M302 -12q-56 0 -103.5 19.5t-82 54t-54.5 81.5t-20 102t20 102t54.5 81.5t82 54t103.5 19.5q46 0 87 -13.5t72.5 -37.5t52.5 -58t28 -76h-102q-13 42 -50 66.5t-88 24.5q-34 0 -62.5 -12t-49 -34t-32 -51.5t-11.5 -65.5t11.5 -65.5t32 -51.5t49 -34t62.5 -12
q51 0 87.5 24.5t50.5 66.5h102q-7 -42 -28 -76t-52.5 -58t-72.5 -37.5t-87 -13.5zM264 -192h-30.5t-19 0.5t-13 1t-11.5 1.5v69h60q65 0 65 59q0 20 -8 37t-26 37l48 21q35 -20 52.5 -48t17.5 -60q0 -55 -35.5 -86.5t-99.5 -31.5z" />
    <glyph glyph-name="d" unicode="d" horiz-adv-x="630" 
d="M554 673v-673h-95v73q-26 -39 -72 -62t-104 -23q-52 0 -95.5 19t-75 53.5t-49.5 81t-18 102.5t18 103t49.5 81.5t75 54t94.5 19.5q54 0 97.5 -21t71.5 -58v250h103zM303 82q69 0 110.5 44.5t41.5 118.5t-41.5 119t-109.5 45q-35 0 -63 -12t-48.5 -33.5t-31.5 -51.5
t-11 -66q0 -74 42 -119t111 -45z" />
    <glyph glyph-name="eth" unicode="&#xf0;" horiz-adv-x="576" 
d="M435 455q54 -70 77 -122.5t23 -107.5q0 -52 -18 -95.5t-50.5 -74.5t-78 -48.5t-100.5 -17.5q-54 0 -99.5 17t-77.5 47t-50 72.5t-18 93.5q0 49 17 91t47 72.5t71.5 47.5t89.5 17q17 0 32 -2t30 -6l-67 87l-159 -51v80l110 36l-63 82h116l40 -52l159 52v-83l-108 -34z
M288 78q31 0 57.5 10.5t45.5 29.5t30 45.5t11 57.5q0 30 -10.5 55.5t-30 44t-46 29t-57.5 10.5t-57.5 -10.5t-45.5 -29t-29.5 -44.5t-10.5 -56q0 -31 11 -57t30 -45t45 -29.5t57 -10.5z" />
    <glyph glyph-name="dcaron" unicode="&#x10f;" horiz-adv-x="791" 
d="M554 673v-673h-95v73q-26 -39 -72 -62t-104 -23q-52 0 -95.5 19t-75 53.5t-49.5 81t-18 102.5t18 103t49.5 81.5t75 54t94.5 19.5q54 0 97.5 -21t71.5 -58v250h103zM303 82q69 0 110.5 44.5t41.5 118.5t-41.5 119t-109.5 45q-35 0 -63 -12t-48.5 -33.5t-31.5 -51.5
t-11 -66q0 -74 42 -119t111 -45zM653 673h111l-45 -193h-78z" />
    <glyph glyph-name="dcroat" unicode="&#x111;" horiz-adv-x="638" 
d="M639 536h-81v-536h-96v68q-26 -38 -71.5 -58.5t-105.5 -20.5q-52 0 -95.5 18.5t-75.5 50.5t-50 76.5t-18 97.5q0 52 18 97t49.5 77.5t75 51t94.5 18.5q55 0 99.5 -21t72.5 -58v139h-182v80h182v57h103v-57h81v-80zM304 78q70 0 112 42.5t42 113.5q0 72 -42 114t-112 42
q-33 0 -61.5 -11.5t-48.5 -32.5t-31.5 -49.5t-11.5 -62.5t11.5 -62.5t31.5 -49.5t48.5 -32.5t61.5 -11.5z" />
    <glyph glyph-name="e" unicode="e" horiz-adv-x="583" 
d="M296 502q57 0 104.5 -21.5t80 -60t48.5 -91t11 -114.5h-392q8 -63 49.5 -100.5t105.5 -37.5q45 0 74.5 16t47.5 49h105q-26 -73 -85.5 -113t-143.5 -40q-56 0 -103 19t-81.5 53t-54 81t-19.5 102t19.5 102.5t53 82t80 54t100.5 19.5zM295 413q-54 0 -92.5 -32.5
t-51.5 -86.5h285q-6 54 -44 86.5t-97 32.5z" />
    <glyph glyph-name="eacute" unicode="&#xe9;" horiz-adv-x="583" 
d="M296 502q57 0 104.5 -21.5t80 -60t48.5 -91t11 -114.5h-392q8 -63 49.5 -100.5t105.5 -37.5q45 0 74.5 16t47.5 49h105q-26 -73 -85.5 -113t-143.5 -40q-56 0 -103 19t-81.5 53t-54 81t-19.5 102t19.5 102.5t53 82t80 54t100.5 19.5zM295 413q-54 0 -92.5 -32.5
t-51.5 -86.5h285q-6 54 -44 86.5t-97 32.5zM333 734h117l-112 -174h-96z" />
    <glyph glyph-name="ecaron" unicode="&#x11b;" horiz-adv-x="583" 
d="M296 502q57 0 104.5 -21.5t80 -60t48.5 -91t11 -114.5h-392q8 -63 49.5 -100.5t105.5 -37.5q45 0 74.5 16t47.5 49h105q-26 -73 -85.5 -113t-143.5 -40q-56 0 -103 19t-81.5 53t-54 81t-19.5 102t19.5 102.5t53 82t80 54t100.5 19.5zM295 413q-54 0 -92.5 -32.5
t-51.5 -86.5h285q-6 54 -44 86.5t-97 32.5zM456 734l-118 -174h-85l-119 174h93l68 -97l68 97h93z" />
    <glyph glyph-name="ecircumflex" unicode="&#xea;" horiz-adv-x="583" 
d="M296 502q57 0 104.5 -21.5t80 -60t48.5 -91t11 -114.5h-392q8 -63 49.5 -100.5t105.5 -37.5q45 0 74.5 16t47.5 49h105q-26 -73 -85.5 -113t-143.5 -40q-56 0 -103 19t-81.5 53t-54 81t-19.5 102t19.5 102.5t53 82t80 54t100.5 19.5zM295 413q-54 0 -92.5 -32.5
t-51.5 -86.5h285q-6 54 -44 86.5t-97 32.5zM363 560l-68 97l-68 -97h-93l118 174h85l119 -174h-93z" />
    <glyph glyph-name="edieresis" unicode="&#xeb;" horiz-adv-x="583" 
d="M296 502q57 0 104.5 -21.5t80 -60t48.5 -91t11 -114.5h-392q8 -63 49.5 -100.5t105.5 -37.5q45 0 74.5 16t47.5 49h105q-26 -73 -85.5 -113t-143.5 -40q-56 0 -103 19t-81.5 53t-54 81t-19.5 102t19.5 102.5t53 82t80 54t100.5 19.5zM295 413q-54 0 -92.5 -32.5
t-51.5 -86.5h285q-6 54 -44 86.5t-97 32.5zM195 591q-26 0 -44 18t-18 43q0 26 18 43.5t44 17.5q28 0 46 -17.5t18 -43.5t-18.5 -43.5t-45.5 -17.5zM393 591q-26 0 -44 18t-18 43q0 26 18 43.5t44 17.5q28 0 46 -17.5t18 -43.5t-18.5 -43.5t-45.5 -17.5z" />
    <glyph glyph-name="edotaccent" unicode="&#x117;" horiz-adv-x="583" 
d="M296 502q57 0 104.5 -21.5t80 -60t48.5 -91t11 -114.5h-392q8 -63 49.5 -100.5t105.5 -37.5q45 0 74.5 16t47.5 49h105q-26 -73 -85.5 -113t-143.5 -40q-56 0 -103 19t-81.5 53t-54 81t-19.5 102t19.5 102.5t53 82t80 54t100.5 19.5zM295 413q-54 0 -92.5 -32.5
t-51.5 -86.5h285q-6 54 -44 86.5t-97 32.5zM295 591q-29 0 -47.5 18.5t-18.5 46.5t18.5 45.5t47.5 17.5q28 0 46.5 -17.5t18.5 -45.5t-18.5 -46.5t-46.5 -18.5z" />
    <glyph glyph-name="egrave" unicode="&#xe8;" horiz-adv-x="583" 
d="M296 502q57 0 104.5 -21.5t80 -60t48.5 -91t11 -114.5h-392q8 -63 49.5 -100.5t105.5 -37.5q45 0 74.5 16t47.5 49h105q-26 -73 -85.5 -113t-143.5 -40q-56 0 -103 19t-81.5 53t-54 81t-19.5 102t19.5 102.5t53 82t80 54t100.5 19.5zM295 413q-54 0 -92.5 -32.5
t-51.5 -86.5h285q-6 54 -44 86.5t-97 32.5zM139 734h119l89 -174h-96z" />
    <glyph glyph-name="emacron" unicode="&#x113;" horiz-adv-x="583" 
d="M296 502q57 0 104.5 -21.5t80 -60t48.5 -91t11 -114.5h-392q8 -63 49.5 -100.5t105.5 -37.5q45 0 74.5 16t47.5 49h105q-26 -73 -85.5 -113t-143.5 -40q-56 0 -103 19t-81.5 53t-54 81t-19.5 102t19.5 102.5t53 82t80 54t100.5 19.5zM295 413q-54 0 -92.5 -32.5
t-51.5 -86.5h285q-6 54 -44 86.5t-97 32.5zM157 668h275v-79h-275v79z" />
    <glyph glyph-name="eogonek" unicode="&#x119;" horiz-adv-x="583" 
d="M296 502q57 0 104.5 -21.5t80 -60t48.5 -91t11 -114.5h-392q8 -63 49.5 -100.5t105.5 -37.5q45 0 74.5 16t47.5 49h105q-26 -73 -85.5 -113t-143.5 -40q-56 0 -103 19t-81.5 53t-54 81t-19.5 102t19.5 102.5t53 82t80 54t100.5 19.5zM295 413q-54 0 -92.5 -32.5
t-51.5 -86.5h285q-6 54 -44 86.5t-97 32.5zM370 -190q-57 0 -90 23t-33 64q0 21 8 40t27.5 39.5t52 44t80.5 53.5l42 -33l-81 -73q-11 -10 -17 -16.5t-10 -12.5t-5 -11.5t-1 -12.5q0 -37 54 -37h41v-64q-23 -4 -68 -4z" />
    <glyph glyph-name="f" unicode="f" horiz-adv-x="319" 
d="M273 585q-80 0 -80 -76v-19h120v-89h-120v-401h-103v401h-69v89h69v22q0 161 174 161h65v-88h-56z" />
    <glyph glyph-name="g" unicode="g" horiz-adv-x="629" 
d="M554 491v-433q0 -56 -18 -99.5t-51.5 -73t-80.5 -44.5t-105 -15q-103 0 -164.5 42.5t-75.5 114.5h103q13 -34 47.5 -53.5t91.5 -19.5q69 0 109.5 35t40.5 107v42q-27 -37 -71 -58.5t-98 -21.5q-50 0 -93 19t-75 52t-50.5 77.5t-18.5 96.5t18 96.5t50.5 77t76 51
t94.5 18.5q57 0 102.5 -23t71.5 -62v74h96zM303 102q33 0 60.5 11.5t47.5 32t31 49.5t11 64q0 34 -11 62.5t-30.5 49t-47.5 31.5t-61 11q-34 0 -62.5 -11.5t-49 -31.5t-32 -48.5t-11.5 -61.5q0 -34 11.5 -63t32.5 -50t49.5 -33t61.5 -12z" />
    <glyph glyph-name="gbreve" unicode="&#x11f;" horiz-adv-x="629" 
d="M554 491v-433q0 -56 -18 -99.5t-51.5 -73t-80.5 -44.5t-105 -15q-103 0 -164.5 42.5t-75.5 114.5h103q13 -34 47.5 -53.5t91.5 -19.5q69 0 109.5 35t40.5 107v42q-27 -37 -71 -58.5t-98 -21.5q-50 0 -93 19t-75 52t-50.5 77.5t-18.5 96.5t18 96.5t50.5 77t76 51
t94.5 18.5q57 0 102.5 -23t71.5 -62v74h96zM303 102q33 0 60.5 11.5t47.5 32t31 49.5t11 64q0 34 -11 62.5t-30.5 49t-47.5 31.5t-61 11q-34 0 -62.5 -11.5t-49 -31.5t-32 -48.5t-11.5 -61.5q0 -34 11.5 -63t32.5 -50t49.5 -33t61.5 -12zM307 561q-71 0 -111.5 44t-40.5 121
h81q0 -91 71 -91t71 91h82q0 -77 -41 -121t-112 -44z" />
    <glyph glyph-name="uni0123" unicode="&#x123;" horiz-adv-x="629" 
d="M554 491v-433q0 -56 -18 -99.5t-51.5 -73t-80.5 -44.5t-105 -15q-103 0 -164.5 42.5t-75.5 114.5h103q13 -34 47.5 -53.5t91.5 -19.5q69 0 109.5 35t40.5 107v42q-27 -37 -71 -58.5t-98 -21.5q-50 0 -93 19t-75 52t-50.5 77.5t-18.5 96.5t18 96.5t50.5 77t76 51
t94.5 18.5q57 0 102.5 -23t71.5 -62v74h96zM303 102q33 0 60.5 11.5t47.5 32t31 49.5t11 64q0 34 -11 62.5t-30.5 49t-47.5 31.5t-61 11q-34 0 -62.5 -11.5t-49 -31.5t-32 -48.5t-11.5 -61.5q0 -34 11.5 -63t32.5 -50t49.5 -33t61.5 -12zM276 734h87l-13 -174h-98z" />
    <glyph glyph-name="h" unicode="h" horiz-adv-x="568" 
d="M319 502q40 0 73.5 -14t56.5 -39.5t36 -61.5t13 -80v-307h-103v293q0 52 -28.5 83t-76.5 31q-49 0 -80.5 -31.5t-31.5 -82.5v-293h-103v673h103v-229q25 28 60.5 43t80.5 15z" />
    <glyph glyph-name="i" unicode="i" horiz-adv-x="254" 
d="M127 591q-28 0 -46.5 18.5t-18.5 46.5t18.5 45.5t46.5 17.5q29 0 47.5 -17.5t18.5 -45.5t-18.5 -46.5t-47.5 -18.5zM75 490h103v-490h-103v490z" />
    <glyph glyph-name="dotlessi" unicode="&#x131;" horiz-adv-x="254" 
d="M75 490h103v-490h-103v490z" />
    <glyph glyph-name="iacute" unicode="&#xed;" horiz-adv-x="254" 
d="M75 490h103v-490h-103v490zM165 734h117l-112 -174h-96z" />
    <glyph glyph-name="icircumflex" unicode="&#xee;" horiz-adv-x="254" 
d="M75 490h103v-490h-103v490zM195 560l-68 97l-68 -97h-93l118 174h85l119 -174h-93z" />
    <glyph glyph-name="idieresis" unicode="&#xef;" horiz-adv-x="254" 
d="M75 490h103v-490h-103v490zM27 591q-26 0 -44 18t-18 43q0 26 18 43.5t44 17.5q28 0 46 -17.5t18 -43.5t-18.5 -43.5t-45.5 -17.5zM225 591q-26 0 -44 18t-18 43q0 26 18 43.5t44 17.5q28 0 46 -17.5t18 -43.5t-18.5 -43.5t-45.5 -17.5z" />
    <glyph glyph-name="igrave" unicode="&#xec;" horiz-adv-x="254" 
d="M75 490h103v-490h-103v490zM-29 734h119l89 -174h-96z" />
    <glyph glyph-name="imacron" unicode="&#x12b;" horiz-adv-x="254" 
d="M75 490h103v-490h-103v490zM8 668h237v-79h-237v79z" />
    <glyph glyph-name="iogonek" unicode="&#x12f;" horiz-adv-x="254" 
d="M75 490h103v-490h-103v490zM127 591q-29 0 -47.5 18.5t-18.5 46.5t18.5 45.5t47.5 17.5q28 0 46.5 -17.5t18.5 -45.5t-18.5 -46.5t-46.5 -18.5zM108 -190q-57 0 -90 23.5t-33 63.5q0 39 35.5 76.5t117.5 72.5l38 -46l-43 -27q-31 -18 -41.5 -29.5t-10.5 -28.5
q0 -34 55 -34h40v-67q-20 -2 -38 -3t-30 -1z" />
    <glyph glyph-name="j" unicode="j" horiz-adv-x="254" 
d="M128 591q-28 0 -46.5 18.5t-18.5 46.5t18.5 45.5t46.5 17.5q29 0 47.5 -17.5t18.5 -45.5t-18.5 -46.5t-47.5 -18.5zM-41 -75h33q45 0 64.5 19t19.5 63v483h103v-492q0 -79 -41.5 -120t-120.5 -41h-58v88z" />
    <glyph glyph-name="uni0237" unicode="&#x237;" horiz-adv-x="254" 
d="M-41 -75h33q45 0 64.5 19t19.5 63v483h103v-492q0 -79 -41.5 -120t-120.5 -41h-58v88z" />
    <glyph glyph-name="k" unicode="k" horiz-adv-x="491" 
d="M376 0l-198 222v-222h-103v673h103v-400l182 217h119l-198 -240l220 -250h-125z" />
    <glyph glyph-name="uni0137" unicode="&#x137;" horiz-adv-x="491" 
d="M376 0l-198 222v-222h-103v673h103v-400l182 217h119l-198 -240l220 -250h-125zM207 -48h96l-22 -169h-86z" />
    <glyph glyph-name="l" unicode="l" horiz-adv-x="254" 
d="M75 673h103v-673h-103v673z" />
    <glyph glyph-name="lacute" unicode="&#x13a;" horiz-adv-x="254" 
d="M75 673h103v-673h-103v673zM165 905h123l-115 -173h-96z" />
    <glyph glyph-name="lcaron" unicode="&#x13e;" horiz-adv-x="419" 
d="M75 673h103v-673h-103v673zM281 673h111l-45 -193h-78z" />
    <glyph glyph-name="uni013C" unicode="&#x13c;" horiz-adv-x="254" 
d="M75 673h103v-673h-103v673zM75 -48h96l-22 -169h-86z" />
    <glyph glyph-name="ldot" unicode="&#x140;" horiz-adv-x="346" 
d="M75 673h103v-673h-103v673zM304 260q-29 0 -49.5 20t-20.5 49q0 30 20.5 50t49.5 20q31 0 51 -20t20 -50q0 -29 -20 -49t-51 -20z" />
    <glyph glyph-name="lslash" unicode="&#x142;" horiz-adv-x="301" 
d="M18 348l80 37v288h103v-248l83 38v-97l-83 -38v-328h-103v288l-80 -37v97z" />
    <glyph glyph-name="m" unicode="m" horiz-adv-x="872" 
d="M615 502q89 0 138 -51t49 -144v-307h-103v293q0 53 -27 83.5t-73 30.5q-47 0 -78 -30.5t-31 -77.5v-299h-103v293q0 53 -27 83.5t-74 30.5q-48 0 -78 -31.5t-30 -82.5v-293h-103v490h96v-48q51 60 142 60q48 0 85 -20t60 -57q26 36 67 56.5t90 20.5z" />
    <glyph glyph-name="n" unicode="n" horiz-adv-x="569" 
d="M318 502q83 0 132 -53t49 -142v-307h-104v293q0 52 -28.5 83t-76.5 31q-49 0 -80.5 -31.5t-31.5 -82.5v-293h-103v490h96v-49q26 29 63 45t84 16z" />
    <glyph glyph-name="nacute" unicode="&#x144;" horiz-adv-x="569" 
d="M318 502q83 0 132 -53t49 -142v-307h-104v293q0 52 -28.5 83t-76.5 31q-49 0 -80.5 -31.5t-31.5 -82.5v-293h-103v490h96v-49q26 29 63 45t84 16zM327 734h117l-112 -174h-96z" />
    <glyph glyph-name="ncaron" unicode="&#x148;" horiz-adv-x="569" 
d="M318 502q83 0 132 -53t49 -142v-307h-104v293q0 52 -28.5 83t-76.5 31q-49 0 -80.5 -31.5t-31.5 -82.5v-293h-103v490h96v-49q26 29 63 45t84 16zM450 734l-118 -174h-85l-119 174h93l68 -97l68 97h93z" />
    <glyph glyph-name="uni0146" unicode="&#x146;" horiz-adv-x="569" 
d="M318 502q83 0 132 -53t49 -142v-307h-104v293q0 52 -28.5 83t-76.5 31q-49 0 -80.5 -31.5t-31.5 -82.5v-293h-103v490h96v-49q26 29 63 45t84 16zM235 -48h96l-22 -169h-86z" />
    <glyph glyph-name="ntilde" unicode="&#xf1;" horiz-adv-x="569" 
d="M318 502q83 0 132 -53t49 -142v-307h-104v293q0 52 -28.5 83t-76.5 31q-49 0 -80.5 -31.5t-31.5 -82.5v-293h-103v490h96v-49q26 29 63 45t84 16zM347 565q-15 0 -30 5t-35 18q-25 15 -37 19.5t-24 4.5q-15 -1 -33 -10t-46 -26v83q31 20 49 28t38 8q15 0 29.5 -5
t37.5 -18q23 -15 35 -19.5t25 -4.5q15 1 33 9.5t46 26.5v-83q-30 -20 -49 -28t-39 -8z" />
    <glyph glyph-name="o" unicode="o" horiz-adv-x="606" 
d="M303 -12q-55 0 -102.5 20t-83 54.5t-55.5 82t-20 101.5t20 100.5t55 81t82.5 54.5t103.5 20q55 0 102.5 -20t82.5 -54.5t55 -81t20 -100.5t-20 -101.5t-55 -82t-82.5 -54.5t-102.5 -20zM303 82q34 0 62.5 12.5t49.5 34t32.5 51.5t11.5 66q0 35 -11.5 65t-32.5 51.5
t-49.5 34t-62.5 12.5t-62.5 -12.5t-49.5 -34t-32.5 -51.5t-11.5 -65q0 -36 11.5 -66t32.5 -51.5t49.5 -34t62.5 -12.5z" />
    <glyph glyph-name="oacute" unicode="&#xf3;" horiz-adv-x="606" 
d="M303 -12q-55 0 -102.5 20t-83 54.5t-55.5 82t-20 101.5t20 100.5t55 81t82.5 54.5t103.5 20q55 0 102.5 -20t82.5 -54.5t55 -81t20 -100.5t-20 -101.5t-55 -82t-82.5 -54.5t-102.5 -20zM303 82q34 0 62.5 12.5t49.5 34t32.5 51.5t11.5 66q0 35 -11.5 65t-32.5 51.5
t-49.5 34t-62.5 12.5t-62.5 -12.5t-49.5 -34t-32.5 -51.5t-11.5 -65q0 -36 11.5 -66t32.5 -51.5t49.5 -34t62.5 -12.5zM343 734h117l-112 -174h-96z" />
    <glyph glyph-name="ocircumflex" unicode="&#xf4;" horiz-adv-x="606" 
d="M303 -12q-55 0 -102.5 20t-83 54.5t-55.5 82t-20 101.5t20 100.5t55 81t82.5 54.5t103.5 20q55 0 102.5 -20t82.5 -54.5t55 -81t20 -100.5t-20 -101.5t-55 -82t-82.5 -54.5t-102.5 -20zM303 82q34 0 62.5 12.5t49.5 34t32.5 51.5t11.5 66q0 35 -11.5 65t-32.5 51.5
t-49.5 34t-62.5 12.5t-62.5 -12.5t-49.5 -34t-32.5 -51.5t-11.5 -65q0 -36 11.5 -66t32.5 -51.5t49.5 -34t62.5 -12.5zM373 560l-68 97l-68 -97h-93l118 174h85l119 -174h-93z" />
    <glyph glyph-name="odieresis" unicode="&#xf6;" horiz-adv-x="606" 
d="M303 -12q-55 0 -102.5 20t-83 54.5t-55.5 82t-20 101.5t20 100.5t55 81t82.5 54.5t103.5 20q55 0 102.5 -20t82.5 -54.5t55 -81t20 -100.5t-20 -101.5t-55 -82t-82.5 -54.5t-102.5 -20zM303 82q34 0 62.5 12.5t49.5 34t32.5 51.5t11.5 66q0 35 -11.5 65t-32.5 51.5
t-49.5 34t-62.5 12.5t-62.5 -12.5t-49.5 -34t-32.5 -51.5t-11.5 -65q0 -36 11.5 -66t32.5 -51.5t49.5 -34t62.5 -12.5zM205 591q-26 0 -44 18t-18 43q0 26 18 43.5t44 17.5q28 0 46 -17.5t18 -43.5t-18.5 -43.5t-45.5 -17.5zM403 591q-26 0 -44 18t-18 43q0 26 18 43.5
t44 17.5q28 0 46 -17.5t18 -43.5t-18.5 -43.5t-45.5 -17.5z" />
    <glyph glyph-name="ograve" unicode="&#xf2;" horiz-adv-x="606" 
d="M303 -12q-55 0 -102.5 20t-83 54.5t-55.5 82t-20 101.5t20 100.5t55 81t82.5 54.5t103.5 20q55 0 102.5 -20t82.5 -54.5t55 -81t20 -100.5t-20 -101.5t-55 -82t-82.5 -54.5t-102.5 -20zM303 82q34 0 62.5 12.5t49.5 34t32.5 51.5t11.5 66q0 35 -11.5 65t-32.5 51.5
t-49.5 34t-62.5 12.5t-62.5 -12.5t-49.5 -34t-32.5 -51.5t-11.5 -65q0 -36 11.5 -66t32.5 -51.5t49.5 -34t62.5 -12.5zM149 734h119l89 -174h-96z" />
    <glyph glyph-name="ohungarumlaut" unicode="&#x151;" horiz-adv-x="606" 
d="M303 -12q-55 0 -102.5 20t-83 54.5t-55.5 82t-20 101.5t20 100.5t55 81t82.5 54.5t103.5 20q55 0 102.5 -20t82.5 -54.5t55 -81t20 -100.5t-20 -101.5t-55 -82t-82.5 -54.5t-102.5 -20zM303 82q34 0 62.5 12.5t49.5 34t32.5 51.5t11.5 66q0 35 -11.5 65t-32.5 51.5
t-49.5 34t-62.5 12.5t-62.5 -12.5t-49.5 -34t-32.5 -51.5t-11.5 -65q0 -36 11.5 -66t32.5 -51.5t49.5 -34t62.5 -12.5zM284 734h96l-114 -174h-90zM455 734h101l-130 -174h-84z" />
    <glyph glyph-name="omacron" unicode="&#x14d;" horiz-adv-x="606" 
d="M303 -12q-55 0 -102.5 20t-83 54.5t-55.5 82t-20 101.5t20 100.5t55 81t82.5 54.5t103.5 20q55 0 102.5 -20t82.5 -54.5t55 -81t20 -100.5t-20 -101.5t-55 -82t-82.5 -54.5t-102.5 -20zM303 82q34 0 62.5 12.5t49.5 34t32.5 51.5t11.5 66q0 35 -11.5 65t-32.5 51.5
t-49.5 34t-62.5 12.5t-62.5 -12.5t-49.5 -34t-32.5 -51.5t-11.5 -65q0 -36 11.5 -66t32.5 -51.5t49.5 -34t62.5 -12.5zM167 668h275v-79h-275v79z" />
    <glyph glyph-name="oslash" unicode="&#xf8;" horiz-adv-x="637" 
d="M510 419q32 -34 50 -78t17 -95q-1 -54 -21.5 -101t-55 -81.5t-82 -54.5t-102.5 -20q-37 0 -71 9t-63 26l-46 -57h-106l88 109q-30 34 -46.5 77t-15.5 93q1 54 21 100.5t54.5 81t82 54.5t102.5 20q35 0 68 -8.5t62 -24.5l56 70h106zM156 246q-1 -54 25 -96l207 248
q-35 16 -71 16q-35 0 -64 -12.5t-50.5 -35t-33.5 -53.5t-13 -67zM317 76q35 0 64.5 13t51 35.5t33.5 53.5t12 68q0 29 -7.5 54t-21.5 45l-209 -250q36 -19 77 -19z" />
    <glyph glyph-name="otilde" unicode="&#xf5;" horiz-adv-x="606" 
d="M303 -12q-55 0 -102.5 20t-83 54.5t-55.5 82t-20 101.5t20 100.5t55 81t82.5 54.5t103.5 20q55 0 102.5 -20t82.5 -54.5t55 -81t20 -100.5t-20 -101.5t-55 -82t-82.5 -54.5t-102.5 -20zM303 82q34 0 62.5 12.5t49.5 34t32.5 51.5t11.5 66q0 35 -11.5 65t-32.5 51.5
t-49.5 34t-62.5 12.5t-62.5 -12.5t-49.5 -34t-32.5 -51.5t-11.5 -65q0 -36 11.5 -66t32.5 -51.5t49.5 -34t62.5 -12.5zM363 565q-15 0 -30 5t-35 18q-25 15 -37 19.5t-24 4.5q-15 -1 -33 -10t-46 -26v83q31 20 49 28t38 8q15 0 29.5 -5t37.5 -18q23 -15 35 -19.5t25 -4.5
q15 1 33 9.5t46 26.5v-83q-30 -20 -49 -28t-39 -8z" />
    <glyph glyph-name="oe" unicode="&#x153;" horiz-adv-x="997" 
d="M711 501q59 0 106 -21t79.5 -59t47.5 -90.5t10 -115.5h-394q8 -65 50 -102.5t108 -37.5q89 0 122 65h104q-25 -72 -85 -111.5t-142 -39.5q-70 0 -123.5 28t-85.5 79q-32 -50 -85.5 -78.5t-122.5 -28.5q-54 0 -100.5 20t-81.5 54.5t-55 81t-20 100.5t20 101t54.5 81.5
t82 54.5t101.5 20q69 0 122.5 -29t85.5 -80q31 51 83 79.5t119 28.5zM710 416q-58 0 -96.5 -32.5t-50.5 -89.5h290q-8 57 -45 89.5t-98 32.5zM305 82q34 0 62 12t48 33.5t31.5 51.5t11.5 66t-11 66t-31 52t-48 34t-62 12q-35 0 -64 -12.5t-50 -34t-32.5 -51.5t-11.5 -66
q0 -35 12 -65t33 -52t49.5 -34t62.5 -12z" />
    <glyph glyph-name="p" unicode="p" horiz-adv-x="631" 
d="M345 502q52 0 96 -19t76 -53.5t50 -81.5t18 -103t-18 -103t-49.5 -81.5t-75 -53.5t-94.5 -19q-54 0 -98 21t-72 57v-229h-103v653h96v-72q26 39 71.5 61.5t102.5 22.5zM326 82q34 0 62.5 12t49 33.5t32 51.5t11.5 66t-11.5 66t-32 52t-49 34t-62.5 12q-68 0 -109 -44.5
t-41 -118.5q0 -75 41 -119.5t109 -44.5z" />
    <glyph glyph-name="thorn" unicode="&#xfe;" horiz-adv-x="631" 
d="M345 502q52 0 96 -19t76 -53.5t50 -81.5t18 -103t-18 -103t-49.5 -81t-75 -53.5t-94.5 -19.5q-54 0 -98 21t-72 57v-229h-103v836h96v-255q26 39 71.5 61.5t102.5 22.5zM326 82q34 0 62.5 12t48.5 33.5t31.5 51.5t11.5 66t-11.5 66t-31.5 52t-48.5 34t-62.5 12t-62 -12
t-47.5 -33.5t-30.5 -51.5t-11 -66q0 -75 41 -119.5t110 -44.5z" />
    <glyph glyph-name="q" unicode="q" horiz-adv-x="631" 
d="M286 502q57 0 102.5 -22.5t71.5 -61.5v72h96v-653h-103v229q-28 -36 -72 -57t-98 -21q-51 0 -94.5 19t-75 53.5t-49.5 81.5t-18 103t18 103t50 81.5t76 53.5t96 19zM305 82q68 0 109 44.5t41 119.5q0 74 -41 118.5t-109 44.5q-34 0 -62.5 -12t-49 -34t-32 -52t-11.5 -66
t11.5 -66t32 -51.5t49 -33.5t62.5 -12z" />
    <glyph glyph-name="r" unicode="r" horiz-adv-x="364" 
d="M352 490v-96h-38q-63 0 -99.5 -36t-36.5 -100v-258h-103v490h96v-65q47 65 145 65h36z" />
    <glyph glyph-name="racute" unicode="&#x155;" horiz-adv-x="364" 
d="M352 490v-96h-38q-63 0 -99.5 -36t-36.5 -100v-258h-103v490h96v-65q47 65 145 65h36zM214 734h117l-112 -174h-96z" />
    <glyph glyph-name="rcaron" unicode="&#x159;" horiz-adv-x="364" 
d="M352 490v-96h-38q-63 0 -99.5 -36t-36.5 -100v-258h-103v490h96v-65q47 65 145 65h36zM337 734l-118 -174h-85l-119 174h93l68 -97l68 97h93z" />
    <glyph glyph-name="uni0157" unicode="&#x157;" horiz-adv-x="364" 
d="M352 490v-96h-38q-63 0 -99.5 -36t-36.5 -100v-258h-103v490h96v-65q47 65 145 65h36zM74 -48h96l-22 -169h-86z" />
    <glyph glyph-name="s" unicode="s" horiz-adv-x="450" 
d="M232 -11q-87 0 -140.5 43t-58.5 118h101q4 -35 30 -54.5t68 -19.5q39 0 62 15.5t23 43.5q0 23 -12 34t-46 22l-84 24q-61 17 -93 53.5t-32 89.5q0 66 48.5 105t128.5 39q77 0 125.5 -39t54.5 -106h-100q-4 27 -25.5 42.5t-55.5 15.5t-54.5 -14.5t-20.5 -39.5
q0 -22 13 -34.5t43 -21.5l85 -25q126 -36 126 -142q0 -69 -50 -109t-136 -40z" />
    <glyph glyph-name="sacute" unicode="&#x15b;" horiz-adv-x="450" 
d="M232 -11q-87 0 -140.5 43t-58.5 118h101q4 -35 30 -54.5t68 -19.5q39 0 62 15.5t23 43.5q0 23 -12 34t-46 22l-84 24q-61 17 -93 53.5t-32 89.5q0 66 48.5 105t128.5 39q77 0 125.5 -39t54.5 -106h-100q-4 27 -25.5 42.5t-55.5 15.5t-54.5 -14.5t-20.5 -39.5
q0 -22 13 -34.5t43 -21.5l85 -25q126 -36 126 -142q0 -69 -50 -109t-136 -40zM268 734h117l-112 -174h-96z" />
    <glyph glyph-name="scaron" unicode="&#x161;" horiz-adv-x="450" 
d="M232 -11q-87 0 -140.5 43t-58.5 118h101q4 -35 30 -54.5t68 -19.5q39 0 62 15.5t23 43.5q0 23 -12 34t-46 22l-84 24q-61 17 -93 53.5t-32 89.5q0 66 48.5 105t128.5 39q77 0 125.5 -39t54.5 -106h-100q-4 27 -25.5 42.5t-55.5 15.5t-54.5 -14.5t-20.5 -39.5
q0 -22 13 -34.5t43 -21.5l85 -25q126 -36 126 -142q0 -69 -50 -109t-136 -40zM391 734l-118 -174h-85l-119 174h93l68 -97l68 97h93z" />
    <glyph glyph-name="scedilla" unicode="&#x15f;" horiz-adv-x="450" 
d="M232 -11q-87 0 -140.5 43t-58.5 118h101q4 -35 30 -54.5t68 -19.5q39 0 62 15.5t23 43.5q0 23 -12 34t-46 22l-84 24q-61 17 -93 53.5t-32 89.5q0 66 48.5 105t128.5 39q77 0 125.5 -39t54.5 -106h-100q-4 27 -25.5 42.5t-55.5 15.5t-54.5 -14.5t-20.5 -39.5
q0 -22 13 -34.5t43 -21.5l85 -25q126 -36 126 -142q0 -69 -50 -109t-136 -40zM188 -192h-30.5t-19 0.5t-13 1t-11.5 1.5v69h60q65 0 65 59q0 20 -8 37t-26 37l48 21q35 -20 52.5 -48t17.5 -60q0 -55 -35.5 -86.5t-99.5 -31.5z" />
    <glyph glyph-name="uni0219" unicode="&#x219;" horiz-adv-x="450" 
d="M232 -11q-87 0 -140.5 43t-58.5 118h101q4 -35 30 -54.5t68 -19.5q39 0 62 15.5t23 43.5q0 23 -12 34t-46 22l-84 24q-61 17 -93 53.5t-32 89.5q0 66 48.5 105t128.5 39q77 0 125.5 -39t54.5 -106h-100q-4 27 -25.5 42.5t-55.5 15.5t-54.5 -14.5t-20.5 -39.5
q0 -22 13 -34.5t43 -21.5l85 -25q126 -36 126 -142q0 -69 -50 -109t-136 -40zM178 -48h96l-22 -169h-86z" />
    <glyph glyph-name="germandbls" unicode="&#xdf;" horiz-adv-x="559" 
d="M76 474q0 103 54.5 156.5t160.5 53.5q86 0 136.5 -38t50.5 -105q0 -34 -8.5 -59.5t-30.5 -54.5q-14 -19 -22 -30t-12 -18.5t-5 -13t-1 -11.5q0 -7 2 -13.5t8.5 -14.5t18 -19.5t29.5 -27.5q23 -21 38 -37.5t23.5 -31.5t12 -30t3.5 -33q0 -68 -50 -107.5t-136 -39.5h-71v89
h66q82 0 82 59q0 9 -2 16t-8.5 15.5t-20 21.5t-35.5 34q-36 32 -51 56.5t-15 50.5q0 24 9.5 45t32.5 52q20 25 28 43t8 38q0 72 -86 72q-55 0 -80.5 -29t-25.5 -92v-471h-103v474z" />
    <glyph glyph-name="t" unicode="t" horiz-adv-x="370" 
d="M347 90v-90h-79q-88 0 -130 38t-42 117v245h-80v90h80v126h103v-126h137v-90h-137v-232q0 -42 20 -60t65 -18h63z" />
    <glyph glyph-name="tcaron" unicode="&#x165;" horiz-adv-x="396" 
d="M347 90v-90h-79q-88 0 -130 38t-42 117v245h-80v90h80v126h103v-126h137v-90h-137v-232q0 -42 20 -60t65 -18h63zM313 762h111l-45 -193h-78z" />
    <glyph glyph-name="uni0163" unicode="&#x163;" horiz-adv-x="370" 
d="M347 90v-90h-68q31 -33 31 -74q0 -55 -35.5 -86.5t-99.5 -31.5h-29.5t-19.5 0.5t-13.5 1t-11.5 1.5v69h61q65 0 65 59q0 18 -6.5 33.5t-20.5 34.5q-104 25 -104 148v245h-80v90h80v126h103v-126h137v-90h-137v-232q0 -42 20 -60t65 -18h63z" />
    <glyph glyph-name="uni021B" unicode="&#x21b;" horiz-adv-x="370" 
d="M347 90v-90h-79q-88 0 -130 38t-42 117v245h-80v90h80v126h103v-126h137v-90h-137v-232q0 -42 20 -60t65 -18h63zM171 -48h96l-22 -169h-86z" />
    <glyph glyph-name="u" unicode="u" horiz-adv-x="569" 
d="M494 490v-490h-96v49q-26 -29 -63 -45t-84 -16q-41 0 -74.5 14t-57 39.5t-36.5 62t-13 80.5v306h103v-293q0 -51 29 -82.5t77 -31.5q49 0 80 31.5t31 82.5v293h104z" />
    <glyph glyph-name="uacute" unicode="&#xfa;" horiz-adv-x="569" 
d="M494 490v-490h-96v49q-26 -29 -63 -45t-84 -16q-41 0 -74.5 14t-57 39.5t-36.5 62t-13 80.5v306h103v-293q0 -51 29 -82.5t77 -31.5q49 0 80 31.5t31 82.5v293h104zM321 734h117l-112 -174h-96z" />
    <glyph glyph-name="ucircumflex" unicode="&#xfb;" horiz-adv-x="569" 
d="M494 490v-490h-96v49q-26 -29 -63 -45t-84 -16q-41 0 -74.5 14t-57 39.5t-36.5 62t-13 80.5v306h103v-293q0 -51 29 -82.5t77 -31.5q49 0 80 31.5t31 82.5v293h104zM351 560l-68 97l-68 -97h-93l118 174h85l119 -174h-93z" />
    <glyph glyph-name="udieresis" unicode="&#xfc;" horiz-adv-x="569" 
d="M494 490v-490h-96v49q-26 -29 -63 -45t-84 -16q-41 0 -74.5 14t-57 39.5t-36.5 62t-13 80.5v306h103v-293q0 -51 29 -82.5t77 -31.5q49 0 80 31.5t31 82.5v293h104zM183 591q-26 0 -44 18t-18 43q0 26 18 43.5t44 17.5q28 0 46 -17.5t18 -43.5t-18.5 -43.5t-45.5 -17.5z
M381 591q-26 0 -44 18t-18 43q0 26 18 43.5t44 17.5q28 0 46 -17.5t18 -43.5t-18.5 -43.5t-45.5 -17.5z" />
    <glyph glyph-name="ugrave" unicode="&#xf9;" horiz-adv-x="569" 
d="M494 490v-490h-96v49q-26 -29 -63 -45t-84 -16q-41 0 -74.5 14t-57 39.5t-36.5 62t-13 80.5v306h103v-293q0 -51 29 -82.5t77 -31.5q49 0 80 31.5t31 82.5v293h104zM127 734h119l89 -174h-96z" />
    <glyph glyph-name="uhungarumlaut" unicode="&#x171;" horiz-adv-x="569" 
d="M494 490v-490h-96v49q-26 -29 -63 -45t-84 -16q-41 0 -74.5 14t-57 39.5t-36.5 62t-13 80.5v306h103v-293q0 -51 29 -82.5t77 -31.5q49 0 80 31.5t31 82.5v293h104zM262 734h96l-114 -174h-90zM433 734h101l-130 -174h-84z" />
    <glyph glyph-name="umacron" unicode="&#x16b;" horiz-adv-x="569" 
d="M494 490v-490h-96v49q-26 -29 -63 -45t-84 -16q-41 0 -74.5 14t-57 39.5t-36.5 62t-13 80.5v306h103v-293q0 -51 29 -82.5t77 -31.5q49 0 80 31.5t31 82.5v293h104zM145 668h275v-79h-275v79z" />
    <glyph glyph-name="uogonek" unicode="&#x173;" horiz-adv-x="569" 
d="M494 490v-490h-96v49q-26 -29 -63 -45t-84 -16q-41 0 -74.5 14t-57 39.5t-36.5 62t-13 80.5v306h103v-293q0 -51 29 -82.5t77 -31.5q49 0 80 31.5t31 82.5v293h104zM424 -190q-57 0 -90 23.5t-33 63.5q0 39 35.5 76.5t117.5 72.5l38 -46l-43 -27q-31 -18 -41.5 -29.5
t-10.5 -28.5q0 -34 55 -34h40v-67q-20 -2 -38 -3t-30 -1z" />
    <glyph glyph-name="uring" unicode="&#x16f;" horiz-adv-x="569" 
d="M494 490v-490h-96v49q-26 -29 -63 -45t-84 -16q-41 0 -74.5 14t-57 39.5t-36.5 62t-13 80.5v306h103v-293q0 -51 29 -82.5t77 -31.5q49 0 80 31.5t31 82.5v293h104zM283 541q-25 0 -46.5 8.5t-37.5 24t-25 36.5t-9 46t9 46t25 36.5t37.5 24t46.5 8.5t47 -8.5t38 -24
t25 -36.5t9 -46t-9 -46t-25 -36.5t-38 -24t-47 -8.5zM285 605q20 0 34.5 15t14.5 36t-14.5 35.5t-34.5 14.5q-22 0 -36 -14t-14 -36t14 -36.5t36 -14.5z" />
    <glyph glyph-name="v" unicode="v" horiz-adv-x="512" 
d="M496 490l-183 -490h-112l-184 490h110l131 -374l128 374h110z" />
    <glyph glyph-name="w" unicode="w" horiz-adv-x="841" 
d="M815 490l-165 -490h-111l-118 374l-118 -374h-111l-165 490h110l114 -370l114 370h111l114 -371l114 371h111z" />
    <glyph glyph-name="x" unicode="x" horiz-adv-x="526" 
d="M395 0l-133 184l-132 -184h-118l186 255l-173 236h118l119 -167l120 167h118l-173 -237l186 -254h-118z" />
    <glyph glyph-name="y" unicode="y" horiz-adv-x="514" 
d="M497 490l-245 -653h-114l63 165l-184 488h110l131 -376l129 376h110z" />
    <glyph glyph-name="yacute" unicode="&#xfd;" horiz-adv-x="514" 
d="M497 490l-245 -653h-114l63 165l-184 488h110l131 -376l129 376h110zM295 734h117l-112 -174h-96z" />
    <glyph glyph-name="ydieresis" unicode="&#xff;" horiz-adv-x="514" 
d="M497 490l-245 -653h-114l63 165l-184 488h110l131 -376l129 376h110zM157 591q-26 0 -44 18t-18 43q0 26 18 43.5t44 17.5q28 0 46 -17.5t18 -43.5t-18.5 -43.5t-45.5 -17.5zM355 591q-26 0 -44 18t-18 43q0 26 18 43.5t44 17.5q28 0 46 -17.5t18 -43.5t-18.5 -43.5
t-45.5 -17.5z" />
    <glyph glyph-name="z" unicode="z" horiz-adv-x="469" 
d="M432 87v-87h-399v82l273 321h-260v87h379v-82l-275 -321h282z" />
    <glyph glyph-name="zacute" unicode="&#x17a;" horiz-adv-x="469" 
d="M432 87v-87h-399v82l273 321h-260v87h379v-82l-275 -321h282zM272 734h117l-112 -174h-96z" />
    <glyph glyph-name="zcaron" unicode="&#x17e;" horiz-adv-x="469" 
d="M432 87v-87h-399v82l273 321h-260v87h379v-82l-275 -321h282zM395 734l-118 -174h-85l-119 174h93l68 -97l68 97h93z" />
    <glyph glyph-name="zdotaccent" unicode="&#x17c;" horiz-adv-x="469" 
d="M432 87v-87h-399v82l273 321h-260v87h379v-82l-275 -321h282zM234 591q-29 0 -47.5 18.5t-18.5 46.5t18.5 45.5t47.5 17.5q28 0 46.5 -17.5t18.5 -45.5t-18.5 -46.5t-46.5 -18.5z" />
    <glyph glyph-name="iacute_j.locl" horiz-adv-x="508" 
d="M75 490h103v-490h-103v490zM165 734h117l-112 -174h-96zM213 -75h33q45 0 64.5 19t19.5 63v483h103v-492q0 -79 -41.5 -120t-120.5 -41h-58v88zM420 734h117l-112 -174h-96z" />
    <glyph glyph-name="glyph230" horiz-adv-x="254" 
d="M75 490h103v-490h-103v490zM127 591q-29 0 -47.5 18.5t-18.5 46.5t18.5 45.5t47.5 17.5q28 0 46.5 -17.5t18.5 -45.5t-18.5 -46.5t-46.5 -18.5z" />
    <glyph glyph-name="ordfeminine" unicode="&#xaa;" horiz-adv-x="427" 
d="M212 680q78 0 122 -41.5t44 -115.5v-254h-83v45q-21 -25 -53 -38.5t-74 -13.5q-64 0 -101.5 31.5t-37.5 85.5q0 57 39.5 88t109.5 31h112v27q0 79 -82 79q-67 0 -75 -54h-85q5 60 48.5 95t115.5 35zM186 331q46 0 75 25t29 68v9h-97q-73 0 -73 -50q0 -26 17 -39t49 -13z
" />
    <glyph glyph-name="ordmasculine" unicode="&#xba;" horiz-adv-x="492" 
d="M246 262q-47 0 -86.5 15.5t-68.5 43.5t-45 66.5t-16 83.5t16 83.5t45 66.5t68.5 43.5t86.5 15.5t86.5 -15.5t68.5 -43.5t45.5 -66.5t16.5 -83.5t-16.5 -83.5t-45.5 -66.5t-68.5 -43.5t-86.5 -15.5zM245 343q27 0 50 9.5t39.5 27t26 41t9.5 51.5q0 55 -35 91t-90 36
q-27 0 -50 -9.5t-39.5 -26.5t-26 -40t-9.5 -51t9.5 -51.5t26 -41t39.5 -27t50 -9.5z" />
    <glyph glyph-name="uni0410" unicode="&#x410;" horiz-adv-x="672" 
d="M478 159h-282l-58 -159h-111l254 673h112l253 -673h-111zM226 244h223l-112 321z" />
    <glyph glyph-name="uni0411" unicode="&#x411;" horiz-adv-x="610" 
d="M88 673h429v-91h-325v-160h164q48 0 87 -14.5t66.5 -42t42.5 -67t15 -88.5q0 -48 -15.5 -86.5t-43.5 -66t-67 -42.5t-85 -15h-268v673zM348 91q55 0 85 30.5t30 89.5q0 61 -29.5 91t-85.5 30h-156v-241h156z" />
    <glyph glyph-name="uni0412" unicode="&#x412;" horiz-adv-x="625" 
d="M479 357q51 -22 77 -64.5t26 -105.5q0 -87 -60 -137t-164 -50h-270v673h253q99 0 154.5 -45t55.5 -125q0 -102 -72 -146zM349 90q62 0 95 28.5t33 82.5q0 51 -35 79t-98 28h-154v-218h159zM190 583v-187h146q54 0 82.5 24.5t28.5 69.5q0 93 -108 93h-149z" />
    <glyph glyph-name="uni0413" unicode="&#x413;" horiz-adv-x="480" 
d="M458 673v-95h-265v-578h-105v673h370z" />
    <glyph glyph-name="uni0403" unicode="&#x403;" horiz-adv-x="480" 
d="M458 673v-95h-265v-578h-105v673h370zM296 905h123l-115 -173h-96z" />
    <glyph glyph-name="uni0490" unicode="&#x490;" horiz-adv-x="476" 
d="M88 673h262v124h105v-219h-262v-578h-105v673z" />
    <glyph glyph-name="uni0414" unicode="&#x414;" horiz-adv-x="685" 
d="M662 95v-220h-99v125h-446v-125h-98v220h14q59 0 94 78t35 230v270h413v-578h87zM263 403q0 -112 -20 -188t-60 -120h288v483h-208v-175z" />
    <glyph glyph-name="uni0415" unicode="&#x415;" horiz-adv-x="540" 
d="M88 673h396v-93h-291v-186h281v-90h-281v-211h302v-93h-407v673z" />
    <glyph glyph-name="uni0400" unicode="&#x400;" horiz-adv-x="540" 
d="M88 673h396v-93h-291v-186h281v-90h-281v-211h302v-93h-407v673zM138 905h121l88 -173h-96z" />
    <glyph glyph-name="uni0401" unicode="&#x401;" horiz-adv-x="540" 
d="M88 673h396v-93h-291v-186h281v-90h-281v-211h302v-93h-407v673zM402 746q-27 0 -46.5 19t-19.5 45t19 45t47 19q29 0 48 -18.5t19 -45.5t-19.5 -45.5t-47.5 -18.5zM189 746q-27 0 -46 19t-19 45t18.5 44.5t46.5 18.5q29 0 48 -18t19 -45t-19 -45.5t-48 -18.5z" />
    <glyph glyph-name="uni0416" unicode="&#x416;" horiz-adv-x="870" 
d="M740 0l-252 329v-329h-105v333l-254 -333h-127l276 355l-259 318h125l239 -297v297h105v-293l238 293h125l-261 -317l277 -356h-127z" />
    <glyph glyph-name="uni0417" unicode="&#x417;" horiz-adv-x="550" 
d="M399 357q56 -25 83.5 -69.5t27.5 -103.5q0 -39 -15 -74t-44.5 -62t-73 -43t-99.5 -16q-109 0 -169.5 57.5t-65.5 158.5h102q4 -57 39.5 -90t93.5 -33q60 0 94 32t34 78q0 19 -7 40t-23.5 37.5t-43 27.5t-65.5 11h-67v18h-1v70h66q33 0 55 8.5t35.5 22.5t19 31t5.5 34
q0 20 -7.5 39t-22.5 33.5t-37 23t-50 8.5q-50 0 -80.5 -28t-34.5 -79h-100q6 93 64.5 144t153.5 51q52 0 92 -15.5t67 -41t41 -58.5t14 -69q0 -47 -20.5 -83.5t-60.5 -59.5z" />
    <glyph glyph-name="uni0418" unicode="&#x418;" horiz-adv-x="692" 
d="M605 673v-673h-106v512l-307 -512h-104v673h105v-504l303 504h109z" />
    <glyph glyph-name="uni0419" unicode="&#x419;" horiz-adv-x="692" 
d="M605 673v-673h-106v512l-307 -512h-104v673h105v-504l303 504h109zM346 733q-86 0 -138.5 42.5t-52.5 122.5h82q0 -41 29.5 -65.5t79.5 -24.5q49 0 78 24.5t29 65.5h83q0 -80 -52.5 -122.5t-137.5 -42.5z" />
    <glyph glyph-name="uni040D" unicode="&#x40d;" horiz-adv-x="692" 
d="M605 673v-673h-106v512l-307 -512h-104v673h105v-504l303 504h109zM188 905h121l88 -173h-96z" />
    <glyph glyph-name="uni041A" unicode="&#x41a;" horiz-adv-x="594" 
d="M463 0l-270 326v-326h-105v673h105v-291l257 291h124l-278 -316l296 -357h-129z" />
    <glyph glyph-name="uni040C" unicode="&#x40c;" horiz-adv-x="594" 
d="M344 905h123l-115 -173h-96zM463 0l-270 326v-326h-105v673h105v-291l257 291h124l-278 -316l296 -357h-129z" />
    <glyph glyph-name="uni041B" unicode="&#x41b;" horiz-adv-x="628" 
d="M-9 95q42 0 67.5 20t39.5 58.5t18.5 95t4.5 128.5v276h419v-672h-105v577h-211v-183q0 -96 -11 -170.5t-38 -125.5t-72 -77.5t-112 -26.5v100z" />
    <glyph glyph-name="uni041C" unicode="&#x41c;" horiz-adv-x="853" 
d="M765 673v-673h-102v516l-191 -516h-91l-191 516v-516h-101l-1 673h144l195 -538l193 538h145z" />
    <glyph glyph-name="uni041D" unicode="&#x41d;" horiz-adv-x="691" 
d="M88 673h105v-268h306v268h105v-673h-105v310h-306v-310h-105v673z" />
    <glyph glyph-name="uni041E" unicode="&#x41e;" horiz-adv-x="797" 
d="M399 -12q-75 0 -140 26.5t-112 73.5t-74 110.5t-27 138.5t26.5 138.5t74 110t112 73t140.5 26.5t140.5 -26.5t111.5 -73t73.5 -110.5t26.5 -138q0 -75 -26.5 -138.5t-74 -110.5t-112 -73.5t-139.5 -26.5zM399 86q52 0 97 19t77 52.5t50.5 80t18.5 100.5t-18.5 99.5
t-51 78.5t-77 52t-96.5 19q-53 0 -97.5 -19t-77 -52t-51 -78.5t-18.5 -99.5t18.5 -100.5t51 -80t77 -52.5t97.5 -19z" />
    <glyph glyph-name="uni041F" unicode="&#x41f;" horiz-adv-x="667" 
d="M88 673h492v-673h-106v578h-279v-578h-107v673z" />
    <glyph glyph-name="uni0420" unicode="&#x420;" horiz-adv-x="562" 
d="M88 673h219q104 0 163.5 -54.5t59.5 -149.5q0 -47 -15.5 -85.5t-44.5 -65.5t-70.5 -41.5t-92.5 -14.5h-114v-262h-105v673zM303 352q56 0 87.5 31t31.5 85t-31 83.5t-88 29.5h-111v-229h111z" />
    <glyph glyph-name="uni0421" unicode="&#x421;" horiz-adv-x="778" 
d="M398 -12q-76 0 -140.5 26.5t-111.5 73t-73.5 110.5t-26.5 139q0 74 26.5 138t74 110.5t112 73t139.5 26.5q66 0 122.5 -19t100.5 -53.5t73 -83t38 -107.5h-112q-20 76 -79.5 120.5t-142.5 44.5q-52 0 -96.5 -19t-77 -52.5t-51 -79.5t-18.5 -99q0 -54 18.5 -99.5t51 -79.5
t77 -53t96.5 -19q83 0 142.5 44.5t79.5 120.5h112q-9 -59 -38 -107.5t-73 -83t-100.5 -53.5t-122.5 -19z" />
    <glyph glyph-name="uni0422" unicode="&#x422;" horiz-adv-x="559" 
d="M222 578h-190v95h494v-95h-199v-578h-105v578z" />
    <glyph glyph-name="uni0423" unicode="&#x423;" horiz-adv-x="617" 
d="M601 673l-318 -673h-115l102 208l-250 465h121l185 -356l160 356h115z" />
    <glyph glyph-name="uni040E" unicode="&#x40e;" horiz-adv-x="617" 
d="M601 673l-318 -673h-115l102 208l-250 465h121l185 -356l160 356h115zM318 733q-39 0 -73 12.5t-58.5 35t-38.5 52.5t-14 65h82q0 -37 29.5 -63.5t72.5 -26.5t72 26.5t29 63.5h83q0 -35 -14 -65t-38.5 -52.5t-58.5 -35t-73 -12.5z" />
    <glyph glyph-name="uni0424" unicode="&#x424;" horiz-adv-x="817" 
d="M770 350q0 -62 -21.5 -113t-61.5 -87t-97.5 -56.5t-128.5 -21.5v-72h-105v72q-71 1 -128 21.5t-97.5 57t-62 87t-21.5 112.5q0 61 22 111t62 86t97 56t128 21v49h105v-49q71 -2 128.5 -21.5t97.5 -55.5t61.5 -86t21.5 -111zM153 347q0 -85 52.5 -133t150.5 -50v368
q-97 -2 -150 -50.5t-53 -134.5zM461 164q98 2 150.5 50t52.5 133q0 86 -53 134.5t-150 50.5v-368z" />
    <glyph glyph-name="uni0425" unicode="&#x425;" horiz-adv-x="632" 
d="M483 0l-167 269l-166 -269h-121l220 347l-206 326h120l153 -248l151 248h121l-205 -326l220 -347h-120z" />
    <glyph glyph-name="uni0427" unicode="&#x427;" horiz-adv-x="618" 
d="M530 673v-673h-105v259q-29 -10 -61.5 -15t-64.5 -5q-247 0 -247 251v183h105v-176q0 -83 38 -122t119 -39q58 0 111 22v315h105z" />
    <glyph glyph-name="uni0426" unicode="&#x426;" horiz-adv-x="685" 
d="M563 0h-475v673h105v-578h277v578h105v-578h87v-220h-99v125z" />
    <glyph glyph-name="uni0428" unicode="&#x428;" horiz-adv-x="920" 
d="M88 673h107v-578h212v578h107v-578h213v578h106v-673h-745v673z" />
    <glyph glyph-name="uni0429" unicode="&#x429;" horiz-adv-x="942" 
d="M817 0h-729v673h107v-578h212v578h107v-578h213v578h106v-578h86v-220h-102v125z" />
    <glyph glyph-name="uni040F" unicode="&#x40f;" horiz-adv-x="670" 
d="M583 0h-198v-125h-99v125h-198v673h105v-578h285v578h105v-673z" />
    <glyph glyph-name="uni042C" unicode="&#x42c;" horiz-adv-x="591" 
d="M88 673h105v-249h134q50 0 91 -15t70 -42.5t45 -67t16 -87.5t-16 -87.5t-45 -67t-70 -42.5t-91 -15h-239v673zM320 94q56 0 88.5 31.5t32.5 85.5q0 56 -32.5 87.5t-88.5 31.5h-128v-236h128z" />
    <glyph glyph-name="uni042A" unicode="&#x42a;" horiz-adv-x="628" 
d="M126 578h-145v95h250v-249h133q50 0 91 -15t70 -42.5t45 -67t16 -87.5t-15.5 -87.5t-44.5 -67t-70 -42.5t-92 -15h-238v578zM357 94q56 0 88.5 31.5t32.5 85.5q0 56 -32.5 87.5t-88.5 31.5h-127v-236h127z" />
    <glyph glyph-name="uni042B" unicode="&#x42b;" horiz-adv-x="819" 
d="M88 673h105v-249h134q50 0 91 -15t70 -42.5t45 -67t16 -87.5t-16 -87.5t-45 -67t-70 -42.5t-91 -15h-239v673zM320 94q56 0 88.5 31.5t32.5 85.5q0 56 -32.5 87.5t-88.5 31.5h-128v-236h128zM626 673h105v-673h-105v673z" />
    <glyph glyph-name="uni0409" unicode="&#x409;" horiz-adv-x="902" 
d="M-9 94q42 0 68.5 20t42.5 58.5t22 95t6 128.5v277h385v-249h126q102 0 160 -56.5t58 -154.5q0 -49 -15.5 -88.5t-44 -67t-68.5 -42.5t-90 -15h-231v578h-178v-183q0 -96 -12.5 -170.5t-40.5 -125.5t-74.5 -77.5t-113.5 -26.5v99zM635 94q55 0 86 31.5t31 86.5
q0 56 -30.5 87t-86.5 31h-119v-236h119z" />
    <glyph glyph-name="uni040A" unicode="&#x40a;" horiz-adv-x="1004" 
d="M88 673h105v-260h289v260h106v-251h157q50 0 90.5 -15t68.5 -42.5t43 -66.5t15 -87q0 -99 -57 -155t-160 -56h-263v318h-289v-318h-105v673zM737 94q57 0 87 30t30 86t-30.5 87t-86.5 31h-149v-234h149z" />
    <glyph glyph-name="uni0405" unicode="&#x405;" horiz-adv-x="548" 
d="M277 -12q-107 0 -170.5 57.5t-68.5 157.5h104q3 -58 39 -92t94 -34t91.5 27t33.5 73q0 37 -20 59.5t-73 42.5l-89 34q-81 31 -117.5 77t-36.5 115q0 40 15.5 73t44 56.5t68 36.5t87.5 13q97 0 154 -50t64 -141h-104q-3 49 -32.5 76t-81.5 27q-51 0 -81 -23.5t-30 -63.5
q0 -39 21.5 -64t72.5 -45l93 -35q81 -31 116 -73.5t35 -109.5q0 -45 -16 -80.5t-46 -61t-72.5 -39t-94.5 -13.5z" />
    <glyph glyph-name="uni0404" unicode="&#x404;" horiz-adv-x="777" 
d="M398 86q85 0 143.5 44t78.5 121h112q-9 -60 -38 -108t-72.5 -82.5t-101 -53t-123.5 -18.5q-77 0 -141 26t-110.5 72t-72.5 109.5t-26 139.5t26 140t72.5 110t111 72t140.5 26q66 0 123.5 -18.5t101 -53t72.5 -83t38 -107.5h-112q-19 77 -78.5 121t-144.5 44
q-45 0 -85 -14.5t-71 -40.5t-52 -62t-29 -80h331v-92h-333q6 -47 26.5 -86t52 -67t72.5 -43.5t89 -15.5z" />
    <glyph glyph-name="uni042D" unicode="&#x42d;" horiz-adv-x="777" 
d="M379 86q48 0 89 15.5t72.5 43.5t52 67t26.5 86h-333v92h331q-8 44 -29 80t-52 62t-71 40.5t-85 14.5q-85 0 -144.5 -44t-78.5 -121h-112q9 59 38 107.5t72.5 83t101 53t123.5 18.5q76 0 140.5 -26t111 -72t72.5 -110t26 -140t-26 -139.5t-72.5 -109.5t-111 -72
t-140.5 -26q-66 0 -123.5 18.5t-101 53t-72.5 82.5t-38 108h112q20 -77 78.5 -121t143.5 -44z" />
    <glyph glyph-name="uni0406" unicode="&#x406;" horiz-adv-x="280" 
d="M88 673h105v-673h-105v673z" />
    <glyph glyph-name="uni0407" unicode="&#x407;" horiz-adv-x="280" 
d="M240 746q-27 0 -46.5 19t-19.5 45t19 45t47 19q29 0 48 -18.5t19 -45.5t-19.5 -45.5t-47.5 -18.5zM27 746q-27 0 -46 19t-19 45t18.5 44.5t46.5 18.5q29 0 48 -18t19 -45t-19 -45.5t-48 -18.5zM88 673h105v-673h-105v673z" />
    <glyph glyph-name="uni0408" unicode="&#x408;" horiz-adv-x="366" 
d="M14 95h65q95 0 95 86v492h105v-503q0 -84 -46.5 -127t-136.5 -43h-82v95z" />
    <glyph glyph-name="uni040B" unicode="&#x40b;" horiz-adv-x="698" 
d="M400 414q118 0 182 -63.5t64 -179.5v-171h-105v166q0 153 -147 153q-56 0 -120 -24v-295h-105v578h-136v95h429v-95h-188v-185q31 10 62.5 15.5t63.5 5.5z" />
    <glyph glyph-name="uni042E" unicode="&#x42e;" horiz-adv-x="1059" 
d="M661 -12q-70 0 -130.5 22.5t-107 63t-76 96.5t-37.5 122h-117v-292h-105v673h105v-286h118q9 65 38.5 119.5t75.5 94.5t106.5 62t129.5 22q76 0 140.5 -26.5t111.5 -73t73.5 -110.5t26.5 -138q0 -75 -26.5 -138.5t-74 -110.5t-112 -73.5t-139.5 -26.5zM661 86q52 0 97 19
t77 52.5t50.5 80t18.5 100.5t-18.5 99.5t-51 78.5t-77 52t-96.5 19q-53 0 -97.5 -19t-77 -52t-51 -78.5t-18.5 -99.5t18.5 -100.5t51 -80t77 -52.5t97.5 -19z" />
    <glyph glyph-name="uni042F" unicode="&#x42f;" horiz-adv-x="603" 
d="M515 673v-673h-105v255h-80l-177 -255h-124l183 260q-81 16 -123.5 69.5t-42.5 134.5q0 98 60 153.5t166 55.5h243zM411 582h-136q-58 0 -90 -30.5t-32 -87.5t32 -88.5t90 -31.5h136v238z" />
    <glyph glyph-name="uni0402" unicode="&#x402;" horiz-adv-x="694" 
d="M413 414q55 0 99.5 -14.5t75.5 -42t47.5 -66t16.5 -86.5q0 -106 -70 -159.5t-203 -51.5v92q85 0 125 28.5t40 88.5q0 57 -36 87t-105 30q-62 0 -129 -26v-294h-105v578h-136v95h429v-95h-188v-187q69 23 139 23z" />
    <glyph glyph-name="uni0462" unicode="&#x462;" horiz-adv-x="667" 
d="M142 496h-129v88h129v91h104v-91h246v-88h-246v-78h153q51 0 92 -15t70 -42t44.5 -66t15.5 -87t-15.5 -86.5t-44.5 -65.5t-70 -41.5t-92 -14.5h-257v496zM393 92q56 0 88.5 31t32.5 85q0 55 -32.5 86.5t-88.5 31.5h-147v-234h147z" />
    <glyph glyph-name="uni0472" unicode="&#x472;" horiz-adv-x="798" 
d="M400 684q75 0 140 -26.5t112 -73t74 -110t27 -137.5q0 -75 -27 -138.5t-74 -110t-112 -73t-140 -26.5t-140 26.5t-112 73t-74 110t-27 138.5t26.5 138.5t74 110t112 72.5t140.5 26zM399 587q-47 0 -87.5 -15t-72 -42.5t-52.5 -65.5t-28 -83q64 29 125 29q33 0 60.5 -6.5
t54.5 -15t55 -15t61 -6.5q30 0 59 6t64 20q-9 43 -30 78.5t-52.5 61t-71.5 40t-85 14.5zM399 86q48 0 89.5 16t73.5 44.5t52.5 68.5t26.5 87q-34 -15 -64 -22.5t-62 -7.5q-34 0 -62.5 6.5t-55.5 15t-54.5 15t-58.5 6.5q-29 0 -59 -6.5t-65 -20.5q8 -45 29 -82t52 -63.5
t71 -41.5t87 -15z" />
    <glyph glyph-name="uni0474" unicode="&#x474;" horiz-adv-x="670" 
d="M669 673v-95h-34q-27 0 -44 -15.5t-30 -52.5l-180 -510h-113l-241 673h114l185 -545l146 432q20 62 52 87.5t83 25.5h62z" />
    <glyph glyph-name="uni0492" unicode="&#x492;" horiz-adv-x="512" 
d="M213 578v-204h218v-95h-218v-279h-105v279h-90v95h90v299h370v-95h-265z" />
    <glyph glyph-name="uni0496" unicode="&#x496;" horiz-adv-x="913" 
d="M790 0h-50l-252 329v-329h-105v333l-254 -333h-127l276 355l-259 318h125l239 -297v297h105v-293l238 293h125l-261 -317l203 -261h97v-220h-100v125z" />
    <glyph glyph-name="uni0498" unicode="&#x498;" horiz-adv-x="550" 
d="M399 357q56 -25 83.5 -69.5t27.5 -103.5q0 -39 -15 -74t-44.5 -62t-73 -43t-99.5 -16q-109 0 -169.5 57.5t-65.5 158.5h102q4 -57 39.5 -90t93.5 -33q60 0 94 32t34 78q0 19 -7 40t-23.5 37.5t-43 27.5t-65.5 11h-67v18h-1v70h66q33 0 55 8.5t35.5 22.5t19 31t5.5 34
q0 20 -7.5 39t-22.5 33.5t-37 23t-50 8.5q-50 0 -80.5 -28t-34.5 -79h-100q6 93 64.5 144t153.5 51q52 0 92 -15.5t67 -41t41 -58.5t14 -69q0 -47 -20.5 -83.5t-60.5 -59.5zM334 12v-137h-97v137h97z" />
    <glyph glyph-name="uni049A" unicode="&#x49a;" horiz-adv-x="632" 
d="M510 0h-47l-270 326v-326h-105v673h105v-291l257 291h124l-278 -316l217 -262h96v-220h-99v125z" />
    <glyph glyph-name="uni04A0" unicode="&#x4a0;" horiz-adv-x="621" 
d="M-19 673h239v-291l257 291h124l-278 -316l296 -357h-129l-270 326v-326h-105v578h-134v95z" />
    <glyph glyph-name="uni04A2" unicode="&#x4a2;" horiz-adv-x="714" 
d="M691 95v-220h-99v125h-92v309h-307v-309h-105v673h105v-269h307v269h105v-578h86z" />
    <glyph glyph-name="uni04AA" unicode="&#x4aa;" horiz-adv-x="778" 
d="M448 12v-137h-97v137h97zM398 -12q-76 0 -140.5 26.5t-111.5 73t-73.5 110.5t-26.5 139q0 74 26.5 138t74 110.5t112 73t139.5 26.5q66 0 122.5 -19t100.5 -53.5t73 -83t38 -107.5h-112q-20 76 -79.5 120.5t-142.5 44.5q-52 0 -96.5 -19t-77 -52.5t-51 -79.5t-18.5 -99
q0 -54 18.5 -99.5t51 -79.5t77 -53t96.5 -19q83 0 142.5 44.5t79.5 120.5h112q-9 -59 -38 -107.5t-73 -83t-100.5 -53.5t-122.5 -19z" />
    <glyph glyph-name="uni04AE" unicode="&#x4ae;" horiz-adv-x="613" 
d="M359 287v-287h-105v290l-224 383h121l157 -287l156 287h120z" />
    <glyph glyph-name="uni04B0" unicode="&#x4b0;" horiz-adv-x="637" 
d="M382 306h165v-93h-176v-213h-105v213h-178v93h168l-214 367h121l157 -287l156 287h120z" />
    <glyph glyph-name="uni04B2" unicode="&#x4b2;" horiz-adv-x="658" 
d="M535 0h-52l-167 269l-166 -269h-121l220 347l-206 326h120l153 -248l151 248h121l-205 -326l160 -252h91v-220h-99v125z" />
    <glyph glyph-name="uni04B6" unicode="&#x4b6;" horiz-adv-x="640" 
d="M617 95v-220h-99v125h-93v259q-29 -10 -61.5 -15t-64.5 -5q-247 0 -247 251v183h105v-176q0 -83 38 -122t119 -39q58 0 111 22v315h105v-578h87z" />
    <glyph glyph-name="uni04BA" unicode="&#x4ba;" horiz-adv-x="618" 
d="M88 0v673h105v-259q29 10 61.5 15t64.5 5q247 0 247 -251v-183h-105v176q0 83 -38 122t-119 39q-58 0 -111 -22v-315h-105z" />
    <glyph glyph-name="uni04C0" unicode="&#x4c0;" horiz-adv-x="280" 
d="M88 673h105v-673h-105v673z" />
    <glyph glyph-name="uni04D8" unicode="&#x4d8;" horiz-adv-x="782" 
d="M389 684q76 0 140 -25.5t110 -71.5t72 -110t26 -140q0 -75 -26 -139t-72.5 -110.5t-110 -72.5t-138.5 -26q-81 0 -147 29t-111.5 80t-68 121.5t-15.5 153.5h578q-6 49 -25 88.5t-50 67.5t-72 43t-91 15q-68 0 -119.5 -26.5t-77.5 -77.5h-115q35 94 117.5 147.5
t195.5 53.5zM390 86q46 0 85 14.5t69.5 40.5t51 62t28.5 80h-467q4 -43 23.5 -79t50 -62.5t71 -41t88.5 -14.5z" />
    <glyph glyph-name="uni04E2" unicode="&#x4e2;" horiz-adv-x="692" 
d="M605 673v-673h-106v512l-307 -512h-104v673h105v-504l303 504h109zM198 844h295v-81h-295v81z" />
    <glyph glyph-name="uni04E6" unicode="&#x4e6;" horiz-adv-x="797" 
d="M501 746q-27 0 -46.5 19t-19.5 45t19 45t47 19q29 0 48 -18.5t19 -45.5t-19.5 -45.5t-47.5 -18.5zM288 746q-27 0 -46 19t-19 45t18.5 44.5t46.5 18.5q29 0 48 -18t19 -45t-19 -45.5t-48 -18.5zM399 -12q-75 0 -140 26.5t-112 73.5t-74 110.5t-27 138.5t26.5 138.5
t74 110t112 73t140.5 26.5t140.5 -26.5t111.5 -73t73.5 -110.5t26.5 -138q0 -75 -26.5 -138.5t-74 -110.5t-112 -73.5t-139.5 -26.5zM399 86q52 0 97 19t77 52.5t50.5 80t18.5 100.5t-18.5 99.5t-51 78.5t-77 52t-96.5 19q-53 0 -97.5 -19t-77 -52t-51 -78.5t-18.5 -99.5
t18.5 -100.5t51 -80t77 -52.5t97.5 -19z" />
    <glyph glyph-name="uni04E8" unicode="&#x4e8;" horiz-adv-x="798" 
d="M400 684q75 0 140 -26.5t112 -73t74 -110t27 -137.5q0 -75 -27 -138.5t-74 -110t-112 -73t-140 -26.5t-140 26.5t-112 73t-74 110t-27 138.5t26.5 138.5t74 110t112 72.5t140.5 26zM399 587q-45 0 -84.5 -14t-70 -39t-52 -60t-30.5 -78h475q-9 43 -30.5 78t-52.5 60
t-70.5 39t-84.5 14zM399 86q48 0 90 16t74 45t52.5 69.5t25.5 88.5h-483q5 -48 25.5 -88.5t52 -69.5t73.5 -45t90 -16z" />
    <glyph glyph-name="uni04EE" unicode="&#x4ee;" horiz-adv-x="617" 
d="M601 673l-318 -673h-115l102 208l-250 465h121l185 -356l160 356h115zM171 844h295v-81h-295v81z" />
    <glyph glyph-name="uni04F2" unicode="&#x4f2;" horiz-adv-x="617" 
d="M601 673l-318 -673h-115l102 208l-250 465h121l185 -356l160 356h115zM298 905h96l-110 -173h-91zM470 905h105l-129 -173h-85z" />
    <glyph glyph-name="uni0414.aalt" horiz-adv-x="729" 
d="M706 95v-220h-99v125h-486v-125h-98v220h67l218 578h115l218 -578h65zM202 95h329l-164 453z" />
    <glyph glyph-name="uni041B.aalt" horiz-adv-x="641" 
d="M501 0l-177 537l-183 -537h-114l240 673h112l236 -673h-114z" />
    <glyph glyph-name="uni0413.aalt" horiz-adv-x="306" 
d="M291 673v-79h-146v-325h-88v404h234z" />
    <glyph glyph-name="uni0415.aalt" horiz-adv-x="338" 
d="M57 673h245v-76h-157v-84h151v-72h-151v-96h163v-76h-251v404z" />
    <glyph glyph-name="uni0419.aalt" horiz-adv-x="440" 
d="M220 705q-57 0 -90 28.5t-33 79.5h66q0 -23 14.5 -36.5t42.5 -13.5q27 0 41.5 13.5t14.5 36.5h66q0 -51 -32.5 -79.5t-89.5 -28.5zM383 673v-404h-87v268l-151 -268h-88v404h87v-265l150 265h89z" />
    <glyph glyph-name="uni041C.aalt" horiz-adv-x="540" 
d="M483 673v-404h-86v266l-94 -266h-67l-93 268v-268h-86v404h115l98 -285l97 285h116z" />
    <glyph glyph-name="uni041E.aalt" horiz-adv-x="492" 
d="M246 262q-47 0 -86.5 15.5t-68.5 43.5t-45 66.5t-16 83.5t16 83.5t45 66.5t68.5 43.5t86.5 15.5t86.5 -15.5t68.5 -43.5t45.5 -66.5t16.5 -83.5t-16.5 -83.5t-45.5 -66.5t-68.5 -43.5t-86.5 -15.5zM245 343q27 0 50 9.5t39.5 27t26 41t9.5 51.5q0 55 -35 91t-90 36
q-27 0 -50 -9.5t-39.5 -26.5t-26 -40t-9.5 -51t9.5 -51.5t26 -41t39.5 -27t50 -9.5z" />
    <glyph glyph-name="uni0425.aalt" horiz-adv-x="406" 
d="M287 269l-84 147l-84 -147h-100l128 208l-121 196h99l79 -134l75 134h100l-119 -197l127 -207h-100z" />
    <glyph glyph-name="uni042F.aalt" horiz-adv-x="387" 
d="M331 673v-404h-88v140h-42l-81 -140h-101l94 153q-35 15 -54.5 45.5t-19.5 73.5q0 60 38 96t107 36h147zM243 597h-56q-29 0 -44 -15.5t-15 -42.5q0 -26 15 -41.5t44 -15.5h56v115z" />
    <glyph glyph-name="uni0430" unicode="&#x430;" horiz-adv-x="535" 
d="M264 502q94 0 148 -50.5t54 -141.5v-310h-95v55q-27 -32 -68 -49t-92 -17q-78 0 -123.5 38.5t-45.5 106.5q0 69 47.5 107.5t132.5 38.5h143v32q0 50 -28 76.5t-78 26.5q-84 0 -95 -70h-98q5 72 58.5 114.5t139.5 42.5zM231 67q29 0 53.5 9t42.5 24.5t28 37.5t10 49v18
h-124q-96 0 -96 -68q0 -70 86 -70z" />
    <glyph glyph-name="uni0431" unicode="&#x431;" horiz-adv-x="591" 
d="M323 450q48 0 89 -17t71.5 -47t48 -71.5t17.5 -89.5q0 -51 -19 -94.5t-52 -75t-78 -49t-97 -17.5q-56 0 -102 19.5t-79.5 55t-52 85.5t-18.5 110v39q0 85 15 144.5t47.5 100.5t84.5 67.5t126 44.5l185 46v-96l-175 -42q-45 -11 -78.5 -25.5t-56 -35.5t-35 -50.5
t-15.5 -70.5q33 32 78 50.5t96 18.5zM305 78q31 0 57 12t45 32t29.5 46.5t10.5 56.5q0 29 -10.5 54t-29.5 43t-44.5 28.5t-55.5 10.5t-57.5 -10.5t-48 -29t-32.5 -44.5t-12 -56t11.5 -56t32 -45.5t47.5 -30.5t57 -11z" />
    <glyph glyph-name="uni0432" unicode="&#x432;" horiz-adv-x="542" 
d="M414 261q83 -34 83 -117q0 -65 -47 -104.5t-124 -39.5h-244v490h219q75 0 119.5 -34t44.5 -94q0 -65 -51 -101zM180 293h118q71 0 71 59q0 57 -71 57h-118v-116zM317 82q41 0 62 18t21 51q0 65 -83 65h-137v-134h137z" />
    <glyph glyph-name="uni0433" unicode="&#x433;" horiz-adv-x="404" 
d="M82 490h319v-91h-216v-399h-103v490z" />
    <glyph glyph-name="uni0453" unicode="&#x453;" horiz-adv-x="404" 
d="M82 490h319v-91h-216v-399h-103v490zM292 734h117l-112 -174h-96z" />
    <glyph glyph-name="uni0491" unicode="&#x491;" horiz-adv-x="434" 
d="M82 490h250v127h98v-218h-245v-399h-103v490z" />
    <glyph glyph-name="uni0434" unicode="&#x434;" horiz-adv-x="606" 
d="M575 88v-213h-97v125h-362v-125h-98v213h19q53 0 72 50t19 163v190h365v-403h82zM231 296q0 -75 -10.5 -126.5t-38.5 -81.5h208v315h-159v-107z" />
    <glyph glyph-name="uni0435" unicode="&#x435;" horiz-adv-x="583" 
d="M296 502q57 0 104.5 -21.5t80 -60t48.5 -91t11 -114.5h-392q8 -63 49.5 -100.5t105.5 -37.5q45 0 74.5 16t47.5 49h105q-26 -73 -85.5 -113t-143.5 -40q-56 0 -103 19t-81.5 53t-54 81t-19.5 102t19.5 102.5t53 82t80 54t100.5 19.5zM295 413q-54 0 -92.5 -32.5
t-51.5 -86.5h285q-6 54 -44 86.5t-97 32.5z" />
    <glyph glyph-name="uni0450" unicode="&#x450;" horiz-adv-x="583" 
d="M296 502q57 0 104.5 -21.5t80 -60t48.5 -91t11 -114.5h-392q8 -63 49.5 -100.5t105.5 -37.5q45 0 74.5 16t47.5 49h105q-26 -73 -85.5 -113t-143.5 -40q-56 0 -103 19t-81.5 53t-54 81t-19.5 102t19.5 102.5t53 82t80 54t100.5 19.5zM295 413q-54 0 -92.5 -32.5
t-51.5 -86.5h285q-6 54 -44 86.5t-97 32.5zM139 734h119l89 -174h-96z" />
    <glyph glyph-name="uni0451" unicode="&#x451;" horiz-adv-x="583" 
d="M296 502q57 0 104.5 -21.5t80 -60t48.5 -91t11 -114.5h-392q8 -63 49.5 -100.5t105.5 -37.5q45 0 74.5 16t47.5 49h105q-26 -73 -85.5 -113t-143.5 -40q-56 0 -103 19t-81.5 53t-54 81t-19.5 102t19.5 102.5t53 82t80 54t100.5 19.5zM295 413q-54 0 -92.5 -32.5
t-51.5 -86.5h285q-6 54 -44 86.5t-97 32.5zM195 591q-26 0 -44 18t-18 43q0 26 18 43.5t44 17.5q28 0 46 -17.5t18 -43.5t-18.5 -43.5t-45.5 -17.5zM393 591q-26 0 -44 18t-18 43q0 26 18 43.5t44 17.5q28 0 46 -17.5t18 -43.5t-18.5 -43.5t-45.5 -17.5z" />
    <glyph glyph-name="uni0436" unicode="&#x436;" horiz-adv-x="705" 
d="M596 0l-192 232v-232h-103v231l-192 -231h-118l213 256l-198 234h116l179 -213v213h103v-215l181 215h116l-199 -233l213 -257h-119z" />
    <glyph glyph-name="uni0437" unicode="&#x437;" horiz-adv-x="491" 
d="M372 260q38 -15 60 -44.5t22 -74.5q0 -39 -17 -67.5t-45.5 -47t-65 -28t-75.5 -9.5q-41 0 -78 9.5t-65.5 30t-46.5 51t-20 72.5h98q3 -22 14 -37t26 -24t33 -12.5t36 -3.5q20 0 39 4.5t33.5 13.5t23 23t8.5 33q0 29 -24 48t-78 19h-78v77h73q47 0 65 18.5t18 42.5
q0 32 -25 47t-58 15q-35 0 -62.5 -15t-34.5 -47h-97q2 37 19.5 65t44.5 46.5t61.5 27.5t71.5 9q34 0 66.5 -8.5t57.5 -26t40 -43t15 -59.5t-15.5 -61t-39.5 -44z" />
    <glyph glyph-name="uni0438" unicode="&#x438;" horiz-adv-x="599" 
d="M518 496v-496h-104v342l-238 -348h-94v497h103v-342l237 347h96z" />
    <glyph glyph-name="uni0439" unicode="&#x439;" horiz-adv-x="599" 
d="M518 496v-496h-104v342l-238 -348h-94v497h103v-342l237 347h96zM299 561q-76 0 -118.5 43.5t-42.5 121.5h81q0 -91 80 -91q79 0 79 91h82q0 -78 -42.5 -121.5t-118.5 -43.5z" />
    <glyph glyph-name="uni045D" unicode="&#x45d;" horiz-adv-x="599" 
d="M518 496v-496h-104v342l-238 -348h-94v497h103v-342l237 347h96zM143 734h119l89 -174h-96z" />
    <glyph glyph-name="uni043A" unicode="&#x43a;" horiz-adv-x="492" 
d="M375 0l-190 218v-218h-103v490h103v-218l178 218h120l-199 -241l217 -249h-126z" />
    <glyph glyph-name="uni045C" unicode="&#x45c;" horiz-adv-x="492" 
d="M375 0l-190 218v-218h-103v490h103v-218l178 218h120l-199 -241l217 -249h-126zM307 734h117l-112 -174h-96z" />
    <glyph glyph-name="uni043B" unicode="&#x43b;" horiz-adv-x="552" 
d="M8 88q32 0 52 13t31.5 41t15.5 71t4 102v175h359v-490h-103v403h-155v-101q0 -78 -10 -135.5t-34 -95t-63 -56t-97 -18.5v91z" />
    <glyph glyph-name="uni043C" unicode="&#x43c;" horiz-adv-x="722" 
d="M640 490v-490h-92v348l-150 -348h-75l-149 348v-348h-92v490h125l155 -365l152 365h126z" />
    <glyph glyph-name="uni043D" unicode="&#x43d;" horiz-adv-x="589" 
d="M82 490h103v-187h219v187h103v-490h-103v213h-219v-213h-103v490z" />
    <glyph glyph-name="uni043E" unicode="&#x43e;" horiz-adv-x="606" 
d="M303 -12q-55 0 -102.5 20t-83 54.5t-55.5 82t-20 101.5t20 100.5t55 81t82.5 54.5t103.5 20q55 0 102.5 -20t82.5 -54.5t55 -81t20 -100.5t-20 -101.5t-55 -82t-82.5 -54.5t-102.5 -20zM303 82q34 0 62.5 12.5t49.5 34t32.5 51.5t11.5 66q0 35 -11.5 65t-32.5 51.5
t-49.5 34t-62.5 12.5t-62.5 -12.5t-49.5 -34t-32.5 -51.5t-11.5 -65q0 -36 11.5 -66t32.5 -51.5t49.5 -34t62.5 -12.5z" />
    <glyph glyph-name="uni043F" unicode="&#x43f;" horiz-adv-x="579" 
d="M82 490h415v-490h-103v401h-209v-401h-103v490z" />
    <glyph glyph-name="uni0440" unicode="&#x440;" horiz-adv-x="631" 
d="M345 502q52 0 96 -19t76 -53.5t50 -81.5t18 -103t-18 -103t-49.5 -81.5t-75 -53.5t-94.5 -19q-54 0 -98 21t-72 57v-229h-103v653h96v-72q26 39 71.5 61.5t102.5 22.5zM326 82q34 0 62.5 12t49 33.5t32 51.5t11.5 66t-11.5 66t-32 52t-49 34t-62.5 12q-68 0 -109 -44.5
t-41 -118.5q0 -75 41 -119.5t109 -44.5z" />
    <glyph glyph-name="uni0441" unicode="&#x441;" horiz-adv-x="585" 
d="M302 -12q-56 0 -103.5 19.5t-82 54t-54.5 81.5t-20 102t20 102t54.5 81.5t82 54t103.5 19.5q46 0 87 -13.5t72.5 -37.5t52.5 -58t28 -76h-102q-13 42 -50 66.5t-88 24.5q-34 0 -62.5 -12t-49 -34t-32 -51.5t-11.5 -65.5t11.5 -65.5t32 -51.5t49 -34t62.5 -12
q51 0 87.5 24.5t50.5 66.5h102q-7 -42 -28 -76t-52.5 -58t-72.5 -37.5t-87 -13.5z" />
    <glyph glyph-name="uni0442" unicode="&#x442;" horiz-adv-x="453" 
d="M174 402h-164v90h432v-90h-164v-402h-104v402z" />
    <glyph glyph-name="uni0443" unicode="&#x443;" horiz-adv-x="514" 
d="M497 490l-245 -653h-114l63 165l-184 488h110l131 -376l129 376h110z" />
    <glyph glyph-name="uni045E" unicode="&#x45e;" horiz-adv-x="514" 
d="M497 490l-245 -653h-114l63 165l-184 488h110l131 -376l129 376h110zM257 561q-76 0 -118.5 43.5t-42.5 121.5h81q0 -91 80 -91q79 0 79 91h82q0 -78 -42.5 -121.5t-118.5 -43.5z" />
    <glyph glyph-name="uni0444" unicode="&#x444;" horiz-adv-x="732" 
d="M314 -8q-61 0 -111 18.5t-86 52t-55.5 80t-19.5 103.5q0 56 20 102.5t56 79.5t86 52t110 19v174h103v-174q61 0 111.5 -18.5t86.5 -52t55.5 -80t19.5 -102.5q0 -57 -19.5 -104t-55.5 -80t-86.5 -51.5t-111.5 -18.5v-155h-103v155zM314 411q-80 -3 -124 -46.5t-44 -118.5
q0 -76 44.5 -120t123.5 -46v331zM418 80q78 2 123 46t45 120q0 75 -44.5 118.5t-123.5 46.5v-331z" />
    <glyph glyph-name="uni0445" unicode="&#x445;" horiz-adv-x="526" 
d="M395 0l-133 184l-132 -184h-118l186 255l-173 236h118l119 -167l120 167h118l-173 -237l186 -254h-118z" />
    <glyph glyph-name="uni0447" unicode="&#x447;" horiz-adv-x="542" 
d="M460 490v-490h-103v172q-23 -8 -47 -12t-47 -4q-100 0 -155.5 56.5t-55.5 163.5v114h106v-105q0 -67 30.5 -100t86.5 -33q43 0 82 15v223h103z" />
    <glyph glyph-name="uni0446" unicode="&#x446;" horiz-adv-x="610" 
d="M481 0h-399v490h103v-400h209v400h103v-400h82v-215h-98v125z" />
    <glyph glyph-name="uni0448" unicode="&#x448;" horiz-adv-x="774" 
d="M82 491h103v-403h151v403h103v-403h151v403h103v-491h-611v491z" />
    <glyph glyph-name="uni0449" unicode="&#x449;" horiz-adv-x="806" 
d="M677 0h-595v491h103v-403h151v403h103v-403h151v403h103v-403h82v-213h-98v125z" />
    <glyph glyph-name="uni045F" unicode="&#x45f;" horiz-adv-x="579" 
d="M497 0h-159v-125h-98v125h-158v490h103v-400h209v400h103v-490z" />
    <glyph glyph-name="uni044C" unicode="&#x44c;" horiz-adv-x="504" 
d="M82 490h103v-144h88q91 0 144 -46.5t53 -125.5q0 -81 -53 -127.5t-144 -46.5h-191v490zM265 86q102 0 102 87q0 43 -26.5 65.5t-75.5 22.5h-81v-175h81z" />
    <glyph glyph-name="uni044A" unicode="&#x44a;" horiz-adv-x="534" 
d="M108 401h-120v89h223v-144h92q91 0 144 -45.5t53 -126.5t-53 -127.5t-144 -46.5h-195v401zM295 86q102 0 102 87q0 42 -26 64.5t-76 22.5h-85v-174h85z" />
    <glyph glyph-name="uni044B" unicode="&#x44b;" horiz-adv-x="726" 
d="M82 490h103v-144h88q91 0 144 -46.5t53 -125.5q0 -81 -53 -127.5t-144 -46.5h-191v490zM265 86q102 0 102 87q0 43 -26.5 65.5t-75.5 22.5h-81v-175h81zM541 490h103v-490h-103v490z" />
    <glyph glyph-name="uni0459" unicode="&#x459;" horiz-adv-x="809" 
d="M8 88q64 0 88 52t24 159v191h366v-148h92q91 0 144 -45.5t53 -122.5q0 -81 -53 -127.5t-144 -46.5h-195v403h-162v-118q0 -143 -48.5 -215.5t-164.5 -72.5v91zM570 86q102 0 102 87q0 40 -26 62t-76 22h-85v-171h85z" />
    <glyph glyph-name="uni045A" unicode="&#x45a;" horiz-adv-x="823" 
d="M82 490h103v-177h212v177h103v-162h98q90 0 140.5 -43.5t50.5 -119.5q0 -77 -51.5 -121t-139.5 -44h-201v223h-212v-223h-103v490zM590 87q96 0 96 77q0 38 -24.5 57.5t-71.5 19.5h-91v-154h91z" />
    <glyph glyph-name="uni0455" unicode="&#x455;" horiz-adv-x="450" 
d="M232 -11q-87 0 -140.5 43t-58.5 118h101q4 -35 30 -54.5t68 -19.5q39 0 62 15.5t23 43.5q0 23 -12 34t-46 22l-84 24q-61 17 -93 53.5t-32 89.5q0 66 48.5 105t128.5 39q77 0 125.5 -39t54.5 -106h-100q-4 27 -25.5 42.5t-55.5 15.5t-54.5 -14.5t-20.5 -39.5
q0 -22 13 -34.5t43 -21.5l85 -25q126 -36 126 -142q0 -69 -50 -109t-136 -40z" />
    <glyph glyph-name="uni0454" unicode="&#x454;" horiz-adv-x="585" 
d="M304 79q51 0 88 25t51 69h100q-8 -41 -29 -75t-52.5 -58t-71.5 -37.5t-86 -13.5q-56 0 -103.5 19.5t-83 54t-55.5 81t-20 101.5t20 102t55.5 81.5t83 54t103.5 19.5q46 0 86 -13.5t71.5 -37.5t52.5 -58t29 -76h-100q-13 43 -50.5 68.5t-88.5 25.5q-58 0 -99.5 -33
t-55.5 -87h205v-82h-208q11 -58 53.5 -94t104.5 -36z" />
    <glyph glyph-name="uni044D" unicode="&#x44d;" horiz-adv-x="585" 
d="M281 79q62 0 104.5 36t53.5 94h-208v82h205q-14 54 -55.5 87t-99.5 33q-51 0 -88.5 -25.5t-50.5 -68.5h-100q8 42 29 76t52.5 58t71.5 37.5t86 13.5q55 0 103 -19.5t83.5 -54t55.5 -81.5t20 -102t-20 -101.5t-55.5 -81t-83.5 -54t-103 -19.5q-46 0 -86 13.5t-71.5 37.5
t-52.5 58t-29 75h100q14 -44 51 -69t88 -25z" />
    <glyph glyph-name="uni0456" unicode="&#x456;" horiz-adv-x="254" 
d="M127 591q-28 0 -46.5 18.5t-18.5 46.5t18.5 45.5t46.5 17.5q29 0 47.5 -17.5t18.5 -45.5t-18.5 -46.5t-47.5 -18.5zM75 490h103v-490h-103v490z" />
    <glyph glyph-name="uni0457" unicode="&#x457;" horiz-adv-x="254" 
d="M75 490h103v-490h-103v490zM27 591q-26 0 -44 18t-18 43q0 26 18 43.5t44 17.5q28 0 46 -17.5t18 -43.5t-18.5 -43.5t-45.5 -17.5zM225 591q-26 0 -44 18t-18 43q0 26 18 43.5t44 17.5q28 0 46 -17.5t18 -43.5t-18.5 -43.5t-45.5 -17.5z" />
    <glyph glyph-name="uni0458" unicode="&#x458;" horiz-adv-x="254" 
d="M128 591q-28 0 -46.5 18.5t-18.5 46.5t18.5 45.5t46.5 17.5q29 0 47.5 -17.5t18.5 -45.5t-18.5 -46.5t-47.5 -18.5zM-41 -75h33q45 0 64.5 19t19.5 63v483h103v-492q0 -79 -41.5 -120t-120.5 -41h-58v88z" />
    <glyph glyph-name="uni045B" unicode="&#x45b;" horiz-adv-x="580" 
d="M331 462q40 0 73.5 -14t56.5 -39.5t36 -62t13 -80.5v-266h-103v253q0 52 -28.5 83t-76.5 31q-49 0 -80.5 -31.5t-31.5 -82.5v-253h-103v517h-81v83h81v73h103v-73h206v-83h-206v-114q51 59 141 59z" />
    <glyph glyph-name="uni044E" unicode="&#x44e;" horiz-adv-x="842" 
d="M539 -12q-51 0 -95 17t-78.5 46.5t-57 70.5t-28.5 89h-95v-211h-103v491h103v-188h99q9 43 32 79.5t56.5 63t76 41.5t90.5 15q55 0 102.5 -20t82.5 -54.5t55 -81t20 -100.5t-20 -101.5t-55 -82t-82.5 -54.5t-102.5 -20zM539 82q34 0 62.5 12.5t49.5 34t32.5 51.5t11.5 66
q0 35 -11.5 65t-32.5 51.5t-49.5 34t-62.5 12.5t-62.5 -12.5t-49.5 -34t-32.5 -51.5t-11.5 -65q0 -36 11.5 -66t32.5 -51.5t49.5 -34t62.5 -12.5z" />
    <glyph glyph-name="uni044F" unicode="&#x44f;" horiz-adv-x="535" 
d="M453 490v-490h-103v150h-85l-108 -150h-119l128 169q-45 20 -69 57t-24 90q0 83 52 128.5t143 45.5h185zM351 406h-77q-47 0 -72 -22t-25 -67q0 -42 25.5 -64t71.5 -22h77v175z" />
    <glyph glyph-name="uni0452" unicode="&#x452;" horiz-adv-x="579" 
d="M331 453q40 0 73.5 -14t56.5 -39.5t36 -61.5t13 -80v-266q0 -167 -167 -167h-53v89h29q46 0 66.5 20.5t20.5 66.5v244q0 52 -28 82.5t-76 30.5q-49 0 -80.5 -31.5t-31.5 -81.5v-245h-103v517h-81v83h81v73h103v-73h206v-83h-206v-122q25 28 60.5 43t80.5 15z" />
    <glyph glyph-name="uni0463" unicode="&#x463;" horiz-adv-x="544" 
d="M106 438h-100v83h100v152h104v-152h179v-83h-179v-96h100q90 0 143 -46t53 -124q0 -39 -14 -71t-39.5 -54.5t-61.5 -34.5t-81 -12h-204v438zM302 85q101 0 101 86t-101 86h-93v-172h93z" />
    <glyph glyph-name="uni0473" unicode="&#x473;" horiz-adv-x="606" 
d="M303 502q55 0 102.5 -20t82.5 -54.5t55 -81t20 -100.5t-20 -101t-55 -81.5t-82.5 -54.5t-102.5 -20t-102.5 20t-83 54.5t-55.5 81.5t-20 101t20 100.5t55 81t82.5 54.5t103.5 20zM303 412q-59 0 -100.5 -34t-54.5 -90q35 14 72 14q23 0 42.5 -4.5t38.5 -10.5t38.5 -10.5
t42.5 -4.5q34 0 76 15q-13 56 -54.5 90.5t-100.5 34.5zM303 78q61 0 103.5 37.5t52.5 97.5q-21 -10 -40 -14t-37 -4q-24 0 -44 5t-38.5 10.5t-38 10.5t-41.5 5q-34 0 -73 -14q11 -60 53 -97t103 -37z" />
    <glyph glyph-name="uni0475" unicode="&#x475;" horiz-adv-x="531" 
d="M523 490v-91h-30q-20 0 -31 -8t-18 -28l-131 -363h-112l-184 490h110l130 -381l103 293q17 49 42 68.5t70 19.5h51z" />
    <glyph glyph-name="uni0493" unicode="&#x493;" horiz-adv-x="476" 
d="M201 398v-130h225v-90h-225v-178h-103v178h-80v90h80v222h328v-92h-225z" />
    <glyph glyph-name="uni0497" unicode="&#x497;" horiz-adv-x="766" 
d="M638 0h-42l-192 232v-232h-103v231l-192 -231h-118l213 256l-198 234h116l179 -213v213h103v-215l181 215h116l-199 -233l140 -169h94v-213h-98v125z" />
    <glyph glyph-name="uni0499" unicode="&#x499;" horiz-adv-x="491" 
d="M372 260q38 -15 60 -44.5t22 -74.5q0 -39 -17 -67.5t-45.5 -47t-65 -28t-75.5 -9.5q-41 0 -78 9.5t-65.5 30t-46.5 51t-20 72.5h98q3 -22 14 -37t26 -24t33 -12.5t36 -3.5q20 0 39 4.5t33.5 13.5t23 23t8.5 33q0 29 -24 48t-78 19h-78v77h73q47 0 65 18.5t18 42.5
q0 32 -25 47t-58 15q-35 0 -62.5 -15t-34.5 -47h-97q2 37 19.5 65t44.5 46.5t61.5 27.5t71.5 9q34 0 66.5 -8.5t57.5 -26t40 -43t15 -59.5t-15.5 -61t-39.5 -44zM301 12v-137h-97v137h97z" />
    <glyph glyph-name="uni049B" unicode="&#x49b;" horiz-adv-x="551" 
d="M423 0h-48l-190 218v-218h-103v490h103v-218l178 218h120l-199 -241l140 -161h96v-213h-97v125z" />
    <glyph glyph-name="uni04A1" unicode="&#x4a1;" horiz-adv-x="504" 
d="M391 0l-195 228v-228h-104v401h-104v89h208v-209l184 209h121l-203 -231l216 -259h-123z" />
    <glyph glyph-name="uni04A3" unicode="&#x4a3;" horiz-adv-x="620" 
d="M491 0h-87v212h-219v-212h-103v490h103v-186h219v186h103v-400h82v-215h-98v125z" />
    <glyph glyph-name="uni04AB" unicode="&#x4ab;" horiz-adv-x="585" 
d="M355 12v-137h-97v137h97zM302 -12q-56 0 -103.5 19.5t-82 54t-54.5 81.5t-20 102t20 102t54.5 81.5t82 54t103.5 19.5q46 0 87 -13.5t72.5 -37.5t52.5 -58t28 -76h-102q-13 42 -50 66.5t-88 24.5q-34 0 -62.5 -12t-49 -34t-32 -51.5t-11.5 -65.5t11.5 -65.5t32 -51.5
t49 -34t62.5 -12q51 0 87.5 24.5t50.5 66.5h102q-7 -42 -28 -76t-52.5 -58t-72.5 -37.5t-87 -13.5z" />
    <glyph glyph-name="uni04AF" unicode="&#x4af;" horiz-adv-x="512" 
d="M308 3v-180h-103v180l-188 487h111l129 -368l128 368h111z" />
    <glyph glyph-name="uni04B1" unicode="&#x4b1;" horiz-adv-x="542" 
d="M323 3h152v-87h-153v-93h-103v93h-151v87h151v2l-187 486h111l129 -369l128 369h111z" />
    <glyph glyph-name="uni04B3" unicode="&#x4b3;" horiz-adv-x="576" 
d="M546 88v-213h-98v125h-53l-133 184l-132 -184h-118l186 255l-173 236h118l119 -167l120 167h118l-173 -237l123 -166h96z" />
    <glyph glyph-name="uni04B7" unicode="&#x4b7;" horiz-adv-x="590" 
d="M559 90v-215h-98v125h-89v172q-25 -8 -51.5 -12t-49.5 -4q-107 0 -163 55.5t-56 163.5v115h103v-107q0 -132 128 -132q22 0 45 4t44 12v223h103v-400h84z" />
    <glyph glyph-name="uni04BB" unicode="&#x4bb;" horiz-adv-x="568" 
d="M319 502q40 0 73.5 -14t56.5 -39.5t36 -61.5t13 -80v-307h-103v293q0 52 -28.5 83t-76.5 31q-49 0 -80.5 -31.5t-31.5 -82.5v-293h-103v673h103v-229q25 28 60.5 43t80.5 15z" />
    <glyph glyph-name="uni04CF" unicode="&#x4cf;" horiz-adv-x="267" 
d="M82 673h103v-673h-103v673z" />
    <glyph glyph-name="uni04D9" unicode="&#x4d9;" horiz-adv-x="583" 
d="M287 -12q-57 0 -104.5 21.5t-80 60t-48.5 91t-11 114.5h392q-8 63 -49.5 100.5t-105.5 37.5q-45 0 -74.5 -16t-47.5 -49h-105q26 73 85.5 113t143.5 40q55 0 102.5 -19t82 -53t54 -81t19.5 -102t-19.5 -102.5t-53 -82t-80 -54t-100.5 -19.5zM288 77q54 0 92.5 32.5
t51.5 86.5h-285q6 -54 44 -86.5t97 -32.5z" />
    <glyph glyph-name="uni04E3" unicode="&#x4e3;" horiz-adv-x="599" 
d="M518 496v-496h-104v342l-238 -348h-94v497h103v-342l237 347h96zM161 668h275v-79h-275v79z" />
    <glyph glyph-name="uni04E7" unicode="&#x4e7;" horiz-adv-x="606" 
d="M204 591q-26 0 -44 18t-18 43q0 26 18 43.5t44 17.5q28 0 46 -17.5t18 -43.5t-18.5 -43.5t-45.5 -17.5zM402 591q-26 0 -44 18t-18 43q0 26 18 43.5t44 17.5q28 0 46 -17.5t18 -43.5t-18.5 -43.5t-45.5 -17.5zM303 -12q-55 0 -102.5 20t-83 54.5t-55.5 82t-20 101.5
t20 100.5t55 81t82.5 54.5t103.5 20q55 0 102.5 -20t82.5 -54.5t55 -81t20 -100.5t-20 -101.5t-55 -82t-82.5 -54.5t-102.5 -20zM303 82q34 0 62.5 12.5t49.5 34t32.5 51.5t11.5 66q0 35 -11.5 65t-32.5 51.5t-49.5 34t-62.5 12.5t-62.5 -12.5t-49.5 -34t-32.5 -51.5
t-11.5 -65q0 -36 11.5 -66t32.5 -51.5t49.5 -34t62.5 -12.5z" />
    <glyph glyph-name="uni04E9" unicode="&#x4e9;" horiz-adv-x="606" 
d="M303 502q55 0 102.5 -20t82.5 -54.5t55 -81t20 -100.5t-20 -101t-55 -81.5t-82.5 -54.5t-102.5 -20t-102.5 20t-83 54.5t-55.5 81.5t-20 101t20 100.5t55 81t82.5 54.5t103.5 20zM303 412q-58 0 -99 -33.5t-55 -87.5h308q-14 54 -55 87.5t-99 33.5zM303 78
q60 0 102.5 36.5t53.5 95.5h-312q11 -59 53.5 -95.5t102.5 -36.5z" />
    <glyph glyph-name="uni04EF" unicode="&#x4ef;" horiz-adv-x="514" 
d="M117 668h275v-79h-275v79zM497 490l-245 -653h-114l63 165l-184 488h110l131 -376l129 376h110z" />
    <glyph glyph-name="uni04F3" unicode="&#x4f3;" horiz-adv-x="514" 
d="M234 734h96l-114 -174h-90zM405 734h101l-130 -174h-84zM497 490l-245 -653h-114l63 165l-184 488h110l131 -376l129 376h110z" />
    <glyph glyph-name="uni0432.aalt" horiz-adv-x="576" 
d="M422 366q54 -21 83.5 -65.5t29.5 -107.5q0 -45 -17 -82.5t-48 -64.5t-74 -42t-95 -15q-54 0 -96.5 16t-72.5 45.5t-46 71.5t-16 95v247q0 104 57 162t159 58q46 0 83.5 -12.5t64.5 -35t41.5 -55t14.5 -71.5q0 -48 -18 -84.5t-50 -59.5zM281 593q-53 0 -81 -32.5
t-28 -92.5v-72h93q59 0 90 26t31 75q0 45 -28 70.5t-77 25.5zM299 80q60 0 95.5 31t35.5 85q0 53 -38.5 83t-105.5 30h-114v-93q0 -66 33 -101t94 -35z" />
    <glyph glyph-name="uni0433.aalt" horiz-adv-x="450" 
d="M218 -11q-87 0 -136.5 39t-49.5 107q0 101 126 143l88 28q29 9 41 21.5t12 33.5q0 25 -20 39.5t-53 14.5q-34 0 -56 -16t-26 -42h-99q5 67 54 106t126 39q39 0 71 -10.5t55.5 -29t36 -45t12.5 -58.5q0 -103 -122 -142l-86 -28q-32 -10 -45 -23t-13 -33q0 -28 21.5 -42.5
t62.5 -14.5q43 0 69 19.5t29 54.5h101q-5 -75 -58 -118t-141 -43z" />
    <glyph glyph-name="uni0453.aalt" horiz-adv-x="450" 
d="M218 -11q-87 0 -136.5 39t-49.5 107q0 101 126 143l88 28q29 9 41 21.5t12 33.5q0 25 -20 39.5t-53 14.5q-34 0 -56 -16t-26 -42h-99q5 67 54 106t126 39q39 0 71 -10.5t55.5 -29t36 -45t12.5 -58.5q0 -103 -122 -142l-86 -28q-32 -10 -45 -23t-13 -33q0 -28 21.5 -42.5
t62.5 -14.5q43 0 69 19.5t29 54.5h101q-5 -75 -58 -118t-141 -43zM262 734h117l-112 -174h-96z" />
    <glyph glyph-name="uni0491.aalt" horiz-adv-x="450" 
d="M218 -11q-87 0 -136.5 39t-49.5 107q0 101 126 143l88 28q29 9 41 21.5t12 33.5q0 25 -20 39.5t-53 14.5q-34 0 -56 -16t-26 -42h-99q4 54 37.5 90.5t88.5 48.5v117h100v-115q59 -11 94 -48t35 -91q0 -103 -122 -142l-86 -28q-32 -10 -45 -23t-13 -33q0 -28 21.5 -42.5
t62.5 -14.5q43 0 69 19.5t29 54.5h101q-5 -75 -58 -118t-141 -43z" />
    <glyph glyph-name="uni0434.aalt" horiz-adv-x="629" 
d="M554 491v-433q0 -56 -18 -99.5t-51.5 -73t-80.5 -44.5t-105 -15q-103 0 -164.5 42.5t-75.5 114.5h103q13 -34 47.5 -53.5t91.5 -19.5q69 0 109.5 35t40.5 107v42q-27 -37 -71 -58.5t-98 -21.5q-50 0 -93 19t-75 52t-50.5 77.5t-18.5 96.5t18 96.5t50.5 77t76 51
t94.5 18.5q57 0 102.5 -23t71.5 -62v74h96zM303 102q33 0 60.5 11.5t47.5 32t31 49.5t11 64q0 34 -11 62.5t-30.5 49t-47.5 31.5t-61 11q-34 0 -62.5 -11.5t-49 -31.5t-32 -48.5t-11.5 -61.5q0 -34 11.5 -63t32.5 -50t49.5 -33t61.5 -12z" />
    <glyph glyph-name="uni0436.aalt" horiz-adv-x="705" 
d="M596 0l-192 232v-232h-103v231l-192 -231h-118l210 257l-195 233h116l179 -213v396h103v-398l181 215h116l-197 -233l211 -257h-119z" />
    <glyph glyph-name="uni0437.aalt" horiz-adv-x="488" 
d="M345 180q51 -21 78.5 -62t27.5 -100q0 -44 -16 -79t-44.5 -60.5t-68.5 -39t-88 -13.5q-93 0 -148 49t-62 137h100q3 -45 32 -69.5t77 -24.5q53 0 84 30t31 82q0 48 -34.5 76.5t-92.5 28.5h-59v85h58q51 0 81 26t30 70q0 45 -26 70t-74 25q-45 0 -71 -23.5t-30 -69.5h-100
q6 85 61 134.5t145 49.5q44 0 80.5 -12.5t62.5 -35.5t40 -55t14 -71q0 -51 -23 -88.5t-65 -59.5z" />
    <glyph glyph-name="uni0438.locl" horiz-adv-x="569" 
d="M494 490v-490h-96v49q-26 -29 -63 -45t-84 -16q-41 0 -74.5 14t-57 39.5t-36.5 62t-13 80.5v306h103v-293q0 -51 29 -82.5t77 -31.5q49 0 80 31.5t31 82.5v293h104z" />
    <glyph glyph-name="uni0439.aalt" horiz-adv-x="569" 
d="M494 490v-490h-96v49q-26 -29 -63 -45t-84 -16q-41 0 -74.5 14t-57 39.5t-36.5 62t-13 80.5v306h103v-293q0 -51 29 -82.5t77 -31.5q49 0 80 31.5t31 82.5v293h104zM283 561q-76 0 -118.5 43.5t-42.5 121.5h81q0 -91 80 -91q79 0 79 91h82q0 -78 -42.5 -121.5
t-118.5 -43.5z" />
    <glyph glyph-name="uni045D.aalt" horiz-adv-x="569" 
d="M121 734h119l89 -174h-96zM494 490v-490h-96v49q-26 -29 -63 -45t-84 -16q-41 0 -74.5 14t-57 39.5t-36.5 62t-13 80.5v306h103v-293q0 -51 29 -82.5t77 -31.5q49 0 80 31.5t31 82.5v293h104z" />
    <glyph glyph-name="uni043A.aalt" horiz-adv-x="491" 
d="M376 0l-198 222v-222h-103v673h103v-400l182 217h119l-198 -240l220 -250h-125z" />
    <glyph glyph-name="uni045C.aalt" horiz-adv-x="491" 
d="M338 734h117l-112 -174h-96zM376 0l-198 222v-222h-103v673h103v-400l182 217h119l-198 -240l220 -250h-125z" />
    <glyph glyph-name="uni043B.aalt" horiz-adv-x="512" 
d="M258 374l-131 -374h-110l184 490h112l183 -490h-110z" />
    <glyph glyph-name="uni043F.aalt" horiz-adv-x="569" 
d="M318 502q83 0 132 -53t49 -142v-307h-104v293q0 52 -28.5 83t-76.5 31q-49 0 -80.5 -31.5t-31.5 -82.5v-293h-103v490h96v-49q26 29 63 45t84 16z" />
    <glyph glyph-name="uni0442.aalt" horiz-adv-x="872" 
d="M615 502q89 0 138 -51t49 -144v-307h-103v293q0 53 -27 83.5t-73 30.5q-47 0 -78 -30.5t-31 -77.5v-299h-103v293q0 53 -27 83.5t-74 30.5q-48 0 -78 -31.5t-30 -82.5v-293h-103v490h96v-48q51 60 142 60q48 0 85 -20t60 -57q26 36 67 56.5t90 20.5z" />
    <glyph glyph-name="uni0447.aalt" horiz-adv-x="556" 
d="M474 490v-490h-103v162q-26 -8 -52.5 -12t-49.5 -4q-106 0 -161.5 56.5t-55.5 163.5v124h103v-116q0 -133 127 -133q23 0 45.5 4t43.5 12v233h103z" />
    <glyph glyph-name="uni0446.aalt" horiz-adv-x="604" 
d="M573 90v-215h-97v129q-43 9 -66 44q-54 -60 -156 -60q-41 0 -75 14t-58 40t-37.5 62t-13.5 80v306h103v-293q0 -52 28.5 -83t76.5 -31q49 0 80 31.5t31 82.5v293h104v-338q0 -62 52 -62h28z" />
    <glyph glyph-name="uni0448.aalt" horiz-adv-x="878" 
d="M257 -12q-89 0 -138 51t-49 144v307h103v-293q0 -53 27 -83.5t73 -30.5q47 0 78 30.5t31 77.5v299h103v-293q0 -53 27 -83.5t74 -30.5q48 0 78 31.5t30 82.5v293h103v-490h-96v48q-51 -60 -142 -60q-48 0 -85 20t-60 57q-26 -36 -67 -56.5t-90 -20.5z" />
    <glyph glyph-name="uni0449.aalt" horiz-adv-x="908" 
d="M877 90v-215h-98v129q-43 10 -65 44q-24 -29 -59.5 -44.5t-80.5 -15.5q-53 0 -93.5 20.5t-63.5 58.5q-27 -37 -70.5 -58t-98.5 -21q-82 0 -130 53t-48 143v306h103v-293q0 -52 26.5 -83t73.5 -31t77.5 30.5t30.5 77.5v299h104v-293q0 -53 27 -83.5t74 -30.5q48 0 78 31.5
t30 82.5v293h103v-338q0 -33 12.5 -47.5t39.5 -14.5h28z" />
    <glyph glyph-name="uni044C.aalt" horiz-adv-x="505" 
d="M264 347q47 0 85.5 -12.5t65.5 -35.5t42 -55t15 -72q0 -41 -14 -75t-39.5 -58t-61.5 -37.5t-81 -13.5q-48 0 -86.5 15t-65 42.5t-40.5 66t-14 86.5v292h103v-143h91zM276 80q47 0 70 24.5t23 66.5q0 43 -28.5 66.5t-80.5 23.5h-88v-68q0 -54 25 -83.5t79 -29.5z" />
    <glyph glyph-name="uni044A.aalt" horiz-adv-x="544" 
d="M315 -12q-49 0 -87 15t-64.5 42.5t-40.5 66t-14 86.5v203h-121v89h224v-143h91q47 0 85 -12.5t65 -35.5t42 -55t15 -72q0 -41 -13.5 -75t-39 -58t-61.5 -37.5t-81 -13.5zM314 80q47 0 70 24.5t23 66.5q0 43 -28.5 66.5t-79.5 23.5h-89v-68q0 -54 25.5 -83.5t78.5 -29.5z
" />
    <glyph glyph-name="uni044B.aalt" horiz-adv-x="724" 
d="M264 347q47 0 85.5 -12.5t65.5 -35.5t42 -55t15 -72q0 -41 -14 -75t-39.5 -58t-61.5 -37.5t-81 -13.5q-48 0 -86.5 15t-65 42.5t-40.5 66t-14 86.5v292h103v-143h91zM276 80q47 0 70 24.5t23 66.5q0 43 -28.5 66.5t-80.5 23.5h-88v-68q0 -54 25 -83.5t79 -29.5zM539 490
h103v-490h-103v490z" />
    <glyph glyph-name="uni044E.aalt" horiz-adv-x="841" 
d="M538 -12q-51 0 -95.5 17t-78.5 47t-56.5 71t-28.5 89h-94v-212h-103v673h103v-371h98q9 43 32 80t56.5 63.5t76 41.5t90.5 15q55 0 102.5 -20t82.5 -54.5t55 -81t20 -100.5t-20 -101.5t-55 -82t-82.5 -54.5t-102.5 -20zM538 82q34 0 62.5 12.5t49.5 34t32.5 51.5t11.5 66
q0 35 -11.5 65t-32.5 51.5t-49.5 34t-62.5 12.5t-62.5 -12.5t-49.5 -34t-32.5 -51.5t-11.5 -65q0 -36 11.5 -66t32.5 -51.5t49.5 -34t62.5 -12.5z" />
    <glyph glyph-name="uni0431.aalt" horiz-adv-x="576" 
d="M381 446q79 -44 116 -99t37 -125q0 -51 -18 -94t-50.5 -74t-77.5 -48t-99 -17t-99.5 17t-78 47t-51 72.5t-18.5 93.5q0 45 14 82t38 65.5t55.5 47t65.5 26.5l-38 21q-42 22 -63.5 48.5t-21.5 63.5q0 42 34 71t91 29h267v-87h-233q-19 0 -33 -4t-14 -21q0 -14 9.5 -21
t32.5 -20zM289 78q30 0 55.5 11t45 30.5t30.5 46t11 56.5t-11 55.5t-30 44t-45 29t-56 10.5t-56.5 -10.5t-46 -29.5t-31 -44.5t-11.5 -56.5q0 -30 10.5 -56t29.5 -45t45.5 -30t59.5 -11z" />
    <glyph glyph-name="uni0438.locl" horiz-adv-x="586" 
d="M504 490v-490h-103v284l-216 -208v-76h-103v490h103v-287l216 208v79h103z" />
    <glyph glyph-name="uni04D4" unicode="&#x4d4;" horiz-adv-x="844" 
d="M800 93v-93h-316l-27 152h-265l-73 -152h-109l322 673h456v-92h-303l31 -186h264v-90h-248l36 -212h232zM233 239h209l-56 342z" />
    <glyph glyph-name="uni04D5" unicode="&#x4d5;" horiz-adv-x="907" 
d="M619 502q58 0 105 -21.5t79.5 -60.5t48.5 -92t11 -116h-393q10 -63 51 -99t105 -36q47 0 76.5 15.5t47.5 49.5h104q-28 -75 -87 -114t-143 -39q-68 0 -121.5 27.5t-86.5 75.5q-26 -50 -75.5 -76.5t-120.5 -26.5q-82 0 -130 38t-48 104q0 72 48.5 112t133.5 40h135v24
q0 51 -26.5 79.5t-74.5 28.5q-83 0 -94 -70h-98q5 73 57.5 115t137.5 42q60 0 103 -22t66 -64q33 41 81.5 63.5t107.5 22.5zM619 413q-57 0 -96 -33.5t-51 -90.5h289q-5 57 -43.5 90.5t-98.5 33.5zM234 67q55 0 90 32t35 83v27h-119q-95 0 -95 -68q0 -74 89 -74z" />
    <glyph glyph-name="Alpha" unicode="&#x391;" horiz-adv-x="672" 
d="M478 159h-282l-58 -159h-111l254 673h112l253 -673h-111zM226 244h223l-112 321z" />
    <glyph glyph-name="Beta" unicode="&#x392;" horiz-adv-x="625" 
d="M479 357q51 -22 77 -64.5t26 -105.5q0 -87 -60 -137t-164 -50h-270v673h253q99 0 154.5 -45t55.5 -125q0 -102 -72 -146zM349 90q62 0 95 28.5t33 82.5q0 51 -35 79t-98 28h-154v-218h159zM190 583v-187h146q54 0 82.5 24.5t28.5 69.5q0 93 -108 93h-149z" />
    <glyph glyph-name="Gamma" unicode="&#x393;" horiz-adv-x="480" 
d="M458 673v-95h-265v-578h-105v673h370z" />
    <glyph glyph-name="uni0394" unicode="&#x394;" horiz-adv-x="669" 
d="M614 89v-89h-559l1 89l224 584h112zM167 92h339l-170 473z" />
    <glyph glyph-name="Epsilon" unicode="&#x395;" horiz-adv-x="540" 
d="M88 673h396v-93h-291v-186h281v-90h-281v-211h302v-93h-407v673z" />
    <glyph glyph-name="Zeta" unicode="&#x396;" horiz-adv-x="571" 
d="M527 95v-95h-480v89l350 489h-333v95h459v-90l-353 -488h357z" />
    <glyph glyph-name="Eta" unicode="&#x397;" horiz-adv-x="691" 
d="M88 673h105v-268h306v268h105v-673h-105v310h-306v-310h-105v673z" />
    <glyph glyph-name="Theta" unicode="&#x398;" horiz-adv-x="798" 
d="M399 -11q-75 0 -140 26.5t-112 73t-74 110t-27 138.5t26.5 138.5t74 110t112 72.5t140.5 26q75 0 140 -26.5t112 -73t74 -110t27 -137.5q0 -75 -27 -138.5t-74 -110t-112 -73t-140 -26.5zM399 84q53 0 98 19t77.5 53t51 80.5t18.5 101.5q0 54 -18.5 99.5t-51.5 79.5
t-78 53t-97 19q-53 0 -97.5 -19t-77.5 -52.5t-51.5 -79.5t-18.5 -100q0 -55 18.5 -101.5t51 -80.5t77.5 -53t98 -19zM230 385h338v-91h-338v91z" />
    <glyph glyph-name="Iota" unicode="&#x399;" horiz-adv-x="280" 
d="M88 673h105v-673h-105v673z" />
    <glyph glyph-name="Kappa" unicode="&#x39a;" horiz-adv-x="594" 
d="M463 0l-270 326v-326h-105v673h105v-291l257 291h124l-278 -316l296 -357h-129z" />
    <glyph glyph-name="Lambda" unicode="&#x39b;" horiz-adv-x="652" 
d="M512 0l-185 538l-186 -538h-114l244 673h112l243 -673h-114z" />
    <glyph glyph-name="Mu" unicode="&#x39c;" horiz-adv-x="853" 
d="M765 673v-673h-102v516l-191 -516h-91l-191 516v-516h-101l-1 673h144l195 -538l193 538h145z" />
    <glyph glyph-name="Nu" unicode="&#x39d;" horiz-adv-x="692" 
d="M605 673v-673h-112l-302 507v-507h-103v673h116l297 -498v498h104z" />
    <glyph glyph-name="Xi" unicode="&#x39e;" horiz-adv-x="593" 
d="M45 673h503v-95h-503v95zM84 395h424v-92h-424v92zM45 95h503v-95h-503v95z" />
    <glyph glyph-name="Omicron" unicode="&#x39f;" horiz-adv-x="797" 
d="M399 -12q-75 0 -140 26.5t-112 73.5t-74 110.5t-27 138.5t26.5 138.5t74 110t112 73t140.5 26.5t140.5 -26.5t111.5 -73t73.5 -110.5t26.5 -138q0 -75 -26.5 -138.5t-74 -110.5t-112 -73.5t-139.5 -26.5zM399 86q52 0 97 19t77 52.5t50.5 80t18.5 100.5t-18.5 99.5
t-51 78.5t-77 52t-96.5 19q-53 0 -97.5 -19t-77 -52t-51 -78.5t-18.5 -99.5t18.5 -100.5t51 -80t77 -52.5t97.5 -19z" />
    <glyph glyph-name="Pi" unicode="&#x3a0;" horiz-adv-x="667" 
d="M88 673h492v-673h-105v578h-283v-578h-104v673z" />
    <glyph glyph-name="Rho" unicode="&#x3a1;" horiz-adv-x="562" 
d="M88 673h219q104 0 163.5 -54.5t59.5 -149.5q0 -47 -15.5 -85.5t-44.5 -65.5t-70.5 -41.5t-92.5 -14.5h-114v-262h-105v673zM303 352q56 0 87.5 31t31.5 85t-31 83.5t-88 29.5h-111v-229h111z" />
    <glyph glyph-name="Sigma" unicode="&#x3a3;" horiz-adv-x="529" 
d="M493 95v-95h-447v90l166 250l-166 243v90h435v-95h-312l164 -239l-166 -244h326z" />
    <glyph glyph-name="Tau" unicode="&#x3a4;" horiz-adv-x="559" 
d="M222 578h-190v95h494v-95h-199v-578h-105v578z" />
    <glyph glyph-name="Upsilon" unicode="&#x3a5;" horiz-adv-x="613" 
d="M359 287v-287h-105v290l-224 383h121l157 -287l156 287h120z" />
    <glyph glyph-name="Phi" unicode="&#x3a6;" horiz-adv-x="813" 
d="M767 337q0 -61 -20.5 -116.5t-59.5 -99.5t-96.5 -72.5t-131.5 -34.5v-84h-105v84q-74 6 -131 34.5t-96 72.5t-59.5 99.5t-20.5 116.5t20 116.5t59 99t96.5 72t131.5 34.5v84h105v-84q74 -6 131.5 -34.5t96.5 -72t59.5 -99.5t20.5 -116zM459 113q49 6 86.5 26t62.5 50.5
t37.5 68.5t12.5 79t-12.5 79t-37.5 68t-62.5 50t-86.5 26v-447zM156 337q0 -41 12.5 -79t37.5 -68t62 -50.5t86 -26.5v447q-49 -6 -86 -26t-62 -50t-37.5 -68t-12.5 -79z" />
    <glyph glyph-name="Chi" unicode="&#x3a7;" horiz-adv-x="632" 
d="M483 0l-167 269l-166 -269h-121l220 347l-206 326h120l153 -248l151 248h121l-205 -326l220 -347h-120z" />
    <glyph glyph-name="Psi" unicode="&#x3a8;" horiz-adv-x="742" 
d="M319 151q-134 0 -207 69t-73 194v259h105v-257q0 -168 175 -168v448h104v-448q174 0 174 168v257h105v-259q0 -125 -72.5 -194t-206.5 -69v-151h-104v151z" />
    <glyph glyph-name="uni03A9" unicode="&#x3a9;" horiz-adv-x="819" 
d="M759 356q0 -160 -143 -265h136v-91h-290v91q92 42 140 105t48 148q0 53 -18 97.5t-50.5 77t-76.5 50.5t-96 18t-96 -18t-76.5 -50.5t-50.5 -77t-18 -97.5q0 -86 48 -148.5t140 -104.5v-91h-289v91h131q-139 104 -139 265q0 71 26.5 131t73.5 104t111 69t138 25
q75 0 139 -25t111.5 -69t74 -104.5t26.5 -130.5z" />
    <glyph glyph-name="Alphatonos" unicode="&#x386;" horiz-adv-x="722" 
d="M65 673h111l-45 -193h-78zM528 159h-282l-58 -159h-111l254 673h112l253 -673h-111zM276 244h223l-112 321z" />
    <glyph glyph-name="Epsilontonos" unicode="&#x388;" horiz-adv-x="740" 
d="M65 673h111l-45 -193h-78zM288 673h396v-93h-291v-186h281v-90h-281v-211h302v-93h-407v673z" />
    <glyph glyph-name="Etatonos" unicode="&#x389;" horiz-adv-x="881" 
d="M65 673h111l-45 -193h-78zM278 673h105v-268h306v268h105v-673h-105v310h-306v-310h-105v673z" />
    <glyph glyph-name="Iotatonos" unicode="&#x38a;" horiz-adv-x="470" 
d="M65 673h111l-45 -193h-78zM278 673h105v-673h-105v673z" />
    <glyph glyph-name="Omicrontonos" unicode="&#x38c;" horiz-adv-x="927" 
d="M63 673h111l-45 -193h-78zM529 -12q-75 0 -140 26.5t-112 73.5t-74 110.5t-27 138.5t26.5 138.5t74 110t112 73t140.5 26.5t140.5 -26.5t111.5 -73t73.5 -110.5t26.5 -138q0 -75 -26.5 -138.5t-74 -110.5t-112 -73.5t-139.5 -26.5zM529 86q52 0 97 19t77 52.5t50.5 80
t18.5 100.5t-18.5 99.5t-51 78.5t-77 52t-96.5 19q-53 0 -97.5 -19t-77 -52t-51 -78.5t-18.5 -99.5t18.5 -100.5t51 -80t77 -52.5t97.5 -19z" />
    <glyph glyph-name="Upsilontonos" unicode="&#x38e;" horiz-adv-x="813" 
d="M65 673h111l-45 -193h-78zM559 287v-287h-105v290l-224 383h121l157 -287l156 287h120z" />
    <glyph glyph-name="Omegatonos" unicode="&#x38f;" horiz-adv-x="950" 
d="M890 356q0 -160 -143 -265h136v-91h-290v91q92 42 140 105t48 148q0 53 -18 97.5t-50.5 77t-76.5 50.5t-96 18t-96 -18t-76.5 -50.5t-50.5 -77t-18 -97.5q0 -86 48 -148.5t140 -104.5v-91h-289v91h131q-139 104 -139 265q0 71 26.5 131t73.5 104t111 69t138 25
q75 0 139 -25t111.5 -69t74 -104.5t26.5 -130.5zM65 673h111l-45 -193h-78z" />
    <glyph glyph-name="Iotadieresis" unicode="&#x3aa;" horiz-adv-x="280" 
d="M246 746q-27 0 -46.5 19t-19.5 45t19 45t47 19q29 0 48 -18.5t19 -45.5t-19.5 -45.5t-47.5 -18.5zM33 746q-27 0 -46 19t-19 45t18.5 44.5t46.5 18.5q29 0 48 -18t19 -45t-19 -45.5t-48 -18.5zM88 673h105v-673h-105v673z" />
    <glyph glyph-name="Upsilondieresis" unicode="&#x3ab;" horiz-adv-x="613" 
d="M413 746q-27 0 -46.5 19t-19.5 45t19 45t47 19q29 0 48 -18.5t19 -45.5t-19.5 -45.5t-47.5 -18.5zM200 746q-27 0 -46 19t-19 45t18.5 44.5t46.5 18.5q29 0 48 -18t19 -45t-19 -45.5t-48 -18.5zM359 287v-287h-105v290l-224 383h121l157 -287l156 287h120z" />
    <glyph glyph-name="Eta.aalt" horiz-adv-x="440" 
d="M57 673h88v-154h150v154h88v-404h-88v172h-150v-172h-88v404z" />
    <glyph glyph-name="Nu.aalt" horiz-adv-x="440" 
d="M383 673v-404h-92l-147 258v-258h-87v404h92l147 -260v260h87z" />
    <glyph glyph-name="Omicron.aalt" horiz-adv-x="492" 
d="M246 262q-47 0 -86.5 15.5t-68.5 43.5t-45 66.5t-16 83.5t16 83.5t45 66.5t68.5 43.5t86.5 15.5t86.5 -15.5t68.5 -43.5t45.5 -66.5t16.5 -83.5t-16.5 -83.5t-45.5 -66.5t-68.5 -43.5t-86.5 -15.5zM245 343q27 0 50 9.5t39.5 27t26 41t9.5 51.5q0 55 -35 91t-90 36
q-27 0 -50 -9.5t-39.5 -26.5t-26 -40t-9.5 -51t9.5 -51.5t26 -41t39.5 -27t50 -9.5z" />
    <glyph glyph-name="Sigma.aalt" horiz-adv-x="331" 
d="M307 347v-78h-277v73l86 131l-86 127v73h270v-78h-168l84 -121l-86 -127h177z" />
    <glyph glyph-name="alpha" unicode="&#x3b1;" horiz-adv-x="636" 
d="M619 92v-92h-58q-84 0 -106 66q-28 -36 -71.5 -57t-97.5 -21q-52 0 -96 19t-76.5 53t-50.5 81t-18 104q0 55 18 102.5t49.5 81.5t74 53.5t92.5 19.5q54 0 97.5 -22t69.5 -61v71h96v-339q0 -59 51 -59h26zM297 82q31 0 57.5 12t46 33.5t30 51.5t10.5 67t-10.5 67t-30 51.5
t-46 33t-57.5 11.5q-32 0 -58.5 -12t-46.5 -34t-31 -52t-11 -66t11 -66t31 -51.5t46.5 -33.5t58.5 -12z" />
    <glyph glyph-name="beta" unicode="&#x3b2;" horiz-adv-x="593" 
d="M444 362q50 -24 78.5 -67.5t28.5 -100.5q0 -45 -16.5 -82.5t-46 -65t-70.5 -42.5t-90 -15q-87 0 -150 46v-198h-103l1 614q0 110 60.5 172t164.5 62q48 0 88 -13.5t68.5 -38.5t44.5 -59t16 -74q0 -44 -19.5 -79t-54.5 -59zM320 82q57 0 91.5 32t34.5 83q0 52 -39.5 84.5
t-106.5 32.5h-36v78h29q57 0 89 27.5t32 72.5q0 44 -32 71.5t-83 27.5q-56 0 -88.5 -35t-32.5 -97v-326q63 -51 142 -51z" />
    <glyph glyph-name="gamma" unicode="&#x3b3;" horiz-adv-x="525" 
d="M488 490q0 -36 -4 -68.5t-13.5 -67.5t-25 -74t-38.5 -87l-99 -201v-155h-103v156l-188 497h110l134 -379l58 125q19 40 31.5 72.5t20 61.5t10.5 57.5t3 62.5h104z" />
    <glyph glyph-name="delta" unicode="&#x3b4;" horiz-adv-x="578" 
d="M416 436q59 -47 89 -97.5t30 -114.5q0 -52 -18 -95t-50.5 -74.5t-77.5 -49t-100 -17.5q-54 0 -99.5 17t-78 48t-51 73t-18.5 93q0 53 19 95t50 71t70 45t78 18l-174 142v83h411v-88h-265zM290 79q30 0 55.5 11t45 30.5t30.5 46t11 56.5t-11 55.5t-30 44t-45 29t-56 10.5
t-56.5 -10.5t-46 -29t-31 -44.5t-11.5 -57q0 -29 10.5 -55t29 -45.5t45.5 -30.5t60 -11z" />
    <glyph glyph-name="epsilon" unicode="&#x3b5;" horiz-adv-x="491" 
d="M119 260q-24 17 -39.5 44t-15.5 61t15 59.5t40 43t57 26t67 8.5q37 0 71.5 -9t61.5 -27.5t44.5 -46.5t19.5 -65h-97q-7 32 -34.5 47t-62.5 15q-33 0 -58 -15t-25 -47q0 -24 18 -42.5t65 -18.5h73v-77h-78q-54 0 -78 -19t-24 -48q0 -19 8.5 -33t23 -23t33.5 -13.5t39 -4.5
q18 0 36 3.5t33 12.5t26 24t14 37h98q-2 -42 -20 -72.5t-46.5 -51t-66 -30t-77.5 -9.5q-39 0 -75.5 9.5t-65 28t-45.5 47t-17 67.5q0 45 22 74.5t60 44.5z" />
    <glyph glyph-name="zeta" unicode="&#x3b6;" horiz-adv-x="440" 
d="M280 438q-37 -39 -62.5 -70.5t-41 -58.5t-22.5 -52t-7 -50q0 -52 43 -86t121 -45l107 -16v-223h-102v147l-34 5q-115 17 -177.5 72t-62.5 140q0 31 8.5 61.5t27.5 64.5t49 73t74 87l86 94h-209v92h343v-88z" />
    <glyph glyph-name="eta" unicode="&#x3b7;" horiz-adv-x="588" 
d="M322 502q94 0 145 -53t51 -142v-470h-103v456q0 52 -29 83t-77 31q-49 0 -80.5 -31.5t-31.5 -82.5v-293h-104v342q0 59 -52 59h-25v89h60q73 0 98 -51q27 30 65 46.5t83 16.5z" />
    <glyph glyph-name="theta" unicode="&#x3b8;" horiz-adv-x="623" 
d="M311 685q119 0 183.5 -89t64.5 -257q0 -169 -65 -260t-183 -91t-182.5 91t-64.5 260q0 168 64 257t183 89zM311 594q-63 0 -99.5 -52t-43.5 -153h287q-8 101 -44.5 153t-99.5 52zM311 79q66 0 103 57t42 169h-289q5 -112 41.5 -169t102.5 -57z" />
    <glyph glyph-name="iota" unicode="&#x3b9;" horiz-adv-x="272" 
d="M199 0q-124 0 -124 132v358h103v-343q0 -57 52 -57h26v-90h-57z" />
    <glyph glyph-name="kappa" unicode="&#x3ba;" horiz-adv-x="491" 
d="M375 0l-197 238v-238h-103v490h103v-204l182 204h122l-201 -228l220 -262h-126z" />
    <glyph glyph-name="lambda" unicode="&#x3bb;" horiz-adv-x="531" 
d="M512 90v-90h-47q-43 0 -70 21t-45 70l-84 222l-125 -313h-110l182 447l-30 77q-13 32 -32.5 45.5t-49.5 13.5h-19v90h44q56 0 92 -24t59 -87l162 -432q9 -23 20.5 -31.5t31.5 -8.5h21z" />
    <glyph glyph-name="uni03BC" unicode="&#x3bc;" horiz-adv-x="594" 
d="M577 90v-90h-52q-72 0 -101 50q-23 -28 -57 -43.5t-77 -15.5q-37 0 -66 10.5t-50 28.5v-193h-99v653h103v-291q0 -54 29 -84t80 -30q48 0 78.5 31.5t30.5 81.5v292h103v-343q0 -57 52 -57h26z" />
    <glyph glyph-name="nu" unicode="&#x3bd;" horiz-adv-x="525" 
d="M488 490q0 -35 -4.5 -68t-14 -68t-25.5 -74t-39 -86l-92 -194h-112l-184 490h110l134 -382l58 128q19 41 31.5 73.5t20 61.5t10.5 57.5t3 61.5h104z" />
    <glyph glyph-name="xi" unicode="&#x3be;" horiz-adv-x="502" 
d="M148 197q0 -54 41 -80t126 -37l128 -18v-225h-102v146l-61 8q-118 17 -180 65t-62 136q0 55 30 97t84 68q-42 23 -64.5 60t-22.5 85q0 39 16 72.5t44 57.5t66 38t83 14q88 0 144 -45.5t67 -123.5h-100q-12 38 -39 58t-68 20q-46 0 -76.5 -27.5t-30.5 -68.5
q0 -47 33.5 -76t91.5 -29h92v-90h-99q-69 0 -105 -27.5t-36 -77.5z" />
    <glyph glyph-name="omicron" unicode="&#x3bf;" horiz-adv-x="606" 
d="M303 -12q-55 0 -102.5 20t-83 54.5t-55.5 82t-20 101.5t20 100.5t55 81t82.5 54.5t103.5 20q55 0 102.5 -20t82.5 -54.5t55 -81t20 -100.5t-20 -101.5t-55 -82t-82.5 -54.5t-102.5 -20zM303 82q34 0 62.5 12.5t49.5 34t32.5 51.5t11.5 66q0 35 -11.5 65t-32.5 51.5
t-49.5 34t-62.5 12.5t-62.5 -12.5t-49.5 -34t-32.5 -51.5t-11.5 -65q0 -36 11.5 -66t32.5 -51.5t49.5 -34t62.5 -12.5z" />
    <glyph glyph-name="pi" unicode="&#x3c0;" horiz-adv-x="633" 
d="M105 401h-91v89h592v-89h-90v-252q0 -59 52 -59h26v-90h-53q-63 0 -95.5 33.5t-32.5 98.5v269h-205v-401h-103v401z" />
    <glyph glyph-name="rho" unicode="&#x3c1;" horiz-adv-x="636" 
d="M329 502q57 0 105 -19.5t83 -53.5t54.5 -81.5t19.5 -102.5q0 -54 -18.5 -101t-51.5 -81.5t-78 -54t-97 -19.5q-53 0 -97.5 18t-75.5 50v-220h-103v394q0 61 19.5 111t54 85.5t82 55t103.5 19.5zM331 82q33 0 61.5 12.5t49.5 34t33 51.5t12 66q0 35 -11.5 65t-32.5 51.5
t-49.5 34t-62.5 12.5q-33 0 -62 -12t-50 -33.5t-33.5 -51.5t-12.5 -66q0 -37 12.5 -67t34 -51.5t50 -33.5t61.5 -12z" />
    <glyph glyph-name="sigma1" unicode="&#x3c2;" horiz-adv-x="566" 
d="M147 248q0 -47 18 -78t47 -50.5t66.5 -29.5t75.5 -15l115 -16v-222h-102v143l-37 5q-58 9 -110 26t-91.5 47t-63 75t-23.5 109q0 54 18.5 101.5t51.5 82.5t79 55.5t100 20.5q47 0 86.5 -14t69.5 -40t49.5 -62t26.5 -79h-102q-13 52 -47.5 76.5t-81.5 24.5
q-33 0 -60 -12.5t-46 -34.5t-29 -51t-10 -62z" />
    <glyph glyph-name="sigma" unicode="&#x3c3;" horiz-adv-x="638" 
d="M628 401h-134q33 -30 51.5 -71.5t18.5 -89.5q0 -54 -20 -99.5t-55 -79.5t-83 -53t-104 -19t-103.5 19.5t-82 53.5t-54.5 80.5t-20 101.5q0 54 19.5 99t55.5 78t87 51t115 18h309v-89zM303 82q34 0 63 12t50 34t33 51.5t12 65.5q0 33 -12 61.5t-33 49t-49.5 32.5t-62.5 12
t-62.5 -12t-49.5 -33t-33 -49.5t-12 -61.5q0 -35 12 -65t33 -51.5t49.5 -33.5t61.5 -12z" />
    <glyph glyph-name="tau" unicode="&#x3c4;" horiz-adv-x="455" 
d="M255 401v-233q0 -42 20 -60t65 -18h64v-90h-80q-88 0 -130 38t-42 117v246h-153v89h433v-89h-177z" />
    <glyph glyph-name="upsilon" unicode="&#x3c5;" horiz-adv-x="573" 
d="M290 -11q-220 0 -220 233v268h103v-272q0 -72 33 -103.5t89 -31.5q60 0 93.5 36.5t33.5 111.5q0 32 -4.5 67t-12 69t-16.5 65.5t-18 57.5h102q20 -52 36.5 -117.5t16.5 -134.5q0 -121 -62.5 -185t-173.5 -64z" />
    <glyph glyph-name="phi" unicode="&#x3c6;" horiz-adv-x="732" 
d="M314 -8q-61 0 -111 18.5t-86 52t-55.5 80t-19.5 103.5q0 56 20 102.5t56 79.5t86 52t110 19v174h103v-174q61 0 111.5 -18.5t86.5 -52t55.5 -80t19.5 -102.5q0 -57 -19.5 -104t-55.5 -80t-86.5 -51.5t-111.5 -18.5v-155h-103v155zM314 411q-80 -3 -124 -46.5t-44 -118.5
q0 -76 44.5 -120t123.5 -46v331zM418 80q78 2 123 46t45 120q0 75 -44.5 118.5t-123.5 46.5v-331z" />
    <glyph glyph-name="chi" unicode="&#x3c7;" horiz-adv-x="518" 
d="M514 -73v-90h-52q-44 0 -68.5 14.5t-44.5 51.5l-92 169l-143 -235h-107l197 328l-106 203q-9 19 -22.5 26t-36.5 7h-26v89h54q44 0 68.5 -14.5t43.5 -50.5l85 -169l140 234h106l-194 -324l111 -203q12 -21 25.5 -28.5t39.5 -7.5h22z" />
    <glyph glyph-name="psi" unicode="&#x3c8;" horiz-adv-x="764" 
d="M337 -11q-62 0 -111.5 17t-84 49.5t-53 78.5t-18.5 104v252h103v-245q0 -77 43 -120t121 -43v559h103v-559q84 0 128.5 41.5t44.5 118.5q0 30 -4.5 63t-12 65.5t-16.5 63t-18 56.5h102q20 -51 36.5 -112t16.5 -127q0 -125 -73 -193.5t-204 -68.5v-152h-103v152z" />
    <glyph glyph-name="omega" unicode="&#x3c9;" horiz-adv-x="784" 
d="M650 491q42 -44 64 -108.5t22 -142.5q0 -118 -50.5 -184.5t-141.5 -66.5q-108 0 -152 84q-46 -84 -152 -84q-91 0 -142 67t-51 184q0 76 23 141.5t65 109.5h113q-45 -50 -70.5 -117t-25.5 -139t25.5 -112t72.5 -40q42 0 67 32t25 86v195h100v-199q0 -51 25 -82.5
t67 -31.5q46 0 71.5 40t25.5 112q0 75 -24.5 141.5t-69.5 114.5h113z" />
    <glyph glyph-name="iotatonos" unicode="&#x3af;" horiz-adv-x="272" 
d="M199 0q-124 0 -124 132v358h103v-343q0 -57 52 -57h26v-90h-57zM141 734h110l-79 -174h-88z" />
    <glyph glyph-name="iotadieresis" unicode="&#x3ca;" horiz-adv-x="272" 
d="M199 0q-124 0 -124 132v358h103v-343q0 -57 52 -57h26v-90h-57zM27 591q-26 0 -44 18t-18 43q0 26 18 43.5t44 17.5q28 0 46 -17.5t18 -43.5t-18.5 -43.5t-45.5 -17.5zM225 591q-26 0 -44 18t-18 43q0 26 18 43.5t44 17.5q28 0 46 -17.5t18 -43.5t-18.5 -43.5
t-45.5 -17.5z" />
    <glyph glyph-name="iotadieresistonos" unicode="&#x390;" horiz-adv-x="272" 
d="M199 0q-124 0 -124 132v358h103v-343q0 -57 52 -57h26v-90h-57zM140 734h107l-79 -174h-85zM4 586q-25 0 -43 17.5t-18 41.5q0 26 17.5 43t43.5 17q27 0 44.5 -17t17.5 -43q0 -25 -18 -42t-44 -17zM311 586q-25 0 -43 17t-18 42q0 26 17.5 43t43.5 17q27 0 44.5 -17
t17.5 -43q0 -25 -17.5 -42t-44.5 -17z" />
    <glyph glyph-name="upsilontonos" unicode="&#x3cd;" horiz-adv-x="573" 
d="M290 -11q-220 0 -220 233v268h103v-272q0 -72 33 -103.5t89 -31.5q60 0 93.5 36.5t33.5 111.5q0 32 -4.5 67t-12 69t-16.5 65.5t-18 57.5h102q20 -52 36.5 -117.5t16.5 -134.5q0 -121 -62.5 -185t-173.5 -64zM287 734h110l-79 -174h-88z" />
    <glyph glyph-name="upsilondieresis" unicode="&#x3cb;" horiz-adv-x="573" 
d="M290 -11q-220 0 -220 233v268h103v-272q0 -72 33 -103.5t89 -31.5q60 0 93.5 36.5t33.5 111.5q0 32 -4.5 67t-12 69t-16.5 65.5t-18 57.5h102q20 -52 36.5 -117.5t16.5 -134.5q0 -121 -62.5 -185t-173.5 -64zM173 591q-26 0 -44 18t-18 43q0 26 18 43.5t44 17.5
q28 0 46 -17.5t18 -43.5t-18.5 -43.5t-45.5 -17.5zM371 591q-26 0 -44 18t-18 43q0 26 18 43.5t44 17.5q28 0 46 -17.5t18 -43.5t-18.5 -43.5t-45.5 -17.5z" />
    <glyph glyph-name="upsilondieresistonos" unicode="&#x3b0;" horiz-adv-x="573" 
d="M290 -11q-220 0 -220 233v268h103v-272q0 -72 33 -103.5t89 -31.5q60 0 93.5 36.5t33.5 111.5q0 32 -4.5 67t-12 69t-16.5 65.5t-18 57.5h102q20 -52 36.5 -117.5t16.5 -134.5q0 -121 -62.5 -185t-173.5 -64zM285 734h107l-79 -174h-85zM149 586q-25 0 -43 17.5t-18 41.5
q0 26 17.5 43t43.5 17q27 0 44.5 -17t17.5 -43q0 -25 -18 -42t-44 -17zM456 586q-25 0 -43 17t-18 42q0 26 17.5 43t43.5 17q27 0 44.5 -17t17.5 -43q0 -25 -17.5 -42t-44.5 -17z" />
    <glyph glyph-name="omicrontonos" unicode="&#x3cc;" horiz-adv-x="606" 
d="M314 734h110l-79 -174h-88zM303 -12q-55 0 -102.5 20t-83 54.5t-55.5 82t-20 101.5t20 100.5t55 81t82.5 54.5t103.5 20q55 0 102.5 -20t82.5 -54.5t55 -81t20 -100.5t-20 -101.5t-55 -82t-82.5 -54.5t-102.5 -20zM303 82q34 0 62.5 12.5t49.5 34t32.5 51.5t11.5 66
q0 35 -11.5 65t-32.5 51.5t-49.5 34t-62.5 12.5t-62.5 -12.5t-49.5 -34t-32.5 -51.5t-11.5 -65q0 -36 11.5 -66t32.5 -51.5t49.5 -34t62.5 -12.5z" />
    <glyph glyph-name="omegatonos" unicode="&#x3ce;" horiz-adv-x="784" 
d="M650 491q42 -44 64 -108.5t22 -142.5q0 -118 -50.5 -184.5t-141.5 -66.5q-108 0 -152 84q-46 -84 -152 -84q-91 0 -142 67t-51 184q0 76 23 141.5t65 109.5h113q-45 -50 -70.5 -117t-25.5 -139t25.5 -112t72.5 -40q42 0 67 32t25 86v195h100v-199q0 -51 25 -82.5
t67 -31.5q46 0 71.5 40t25.5 112q0 75 -24.5 141.5t-69.5 114.5h113zM406 734h110l-79 -174h-88z" />
    <glyph glyph-name="alphatonos" unicode="&#x3ac;" horiz-adv-x="636" 
d="M619 92v-92h-58q-84 0 -106 66q-28 -36 -71.5 -57t-97.5 -21q-52 0 -96 19t-76.5 53t-50.5 81t-18 104q0 55 18 102.5t49.5 81.5t74 53.5t92.5 19.5q54 0 97.5 -22t69.5 -61v71h96v-339q0 -59 51 -59h26zM297 82q31 0 57.5 12t46 33.5t30 51.5t10.5 67t-10.5 67t-30 51.5
t-46 33t-57.5 11.5q-32 0 -58.5 -12t-46.5 -34t-31 -52t-11 -66t11 -66t31 -51.5t46.5 -33.5t58.5 -12zM334 734h110l-79 -174h-88z" />
    <glyph glyph-name="epsilontonos" unicode="&#x3ad;" horiz-adv-x="491" 
d="M119 260q-24 17 -39.5 44t-15.5 61t15 59.5t40 43t57 26t67 8.5q37 0 71.5 -9t61.5 -27.5t44.5 -46.5t19.5 -65h-97q-7 32 -34.5 47t-62.5 15q-33 0 -58 -15t-25 -47q0 -24 18 -42.5t65 -18.5h73v-77h-78q-54 0 -78 -19t-24 -48q0 -19 8.5 -33t23 -23t33.5 -13.5t39 -4.5
q18 0 36 3.5t33 12.5t26 24t14 37h98q-2 -42 -20 -72.5t-46.5 -51t-66 -30t-77.5 -9.5q-39 0 -75.5 9.5t-65 28t-45.5 47t-17 67.5q0 45 22 74.5t60 44.5zM263 734h110l-79 -174h-88z" />
    <glyph glyph-name="etatonos" unicode="&#x3ae;" horiz-adv-x="588" 
d="M322 502q94 0 145 -53t51 -142v-470h-103v456q0 52 -29 83t-77 31q-49 0 -80.5 -31.5t-31.5 -82.5v-293h-104v342q0 59 -52 59h-25v89h60q73 0 98 -51q27 30 65 46.5t83 16.5zM321 734h110l-79 -174h-88z" />
    <glyph glyph-name="zero" unicode="0" horiz-adv-x="781" 
d="M390 -12q-74 0 -136.5 26.5t-109 73.5t-72.5 110.5t-26 138.5t26 138.5t72 110t109 73t137 26.5t137.5 -26.5t109.5 -73t72 -110t26 -138.5t-26 -138.5t-72.5 -110.5t-109.5 -73.5t-137 -26.5zM391 85q51 0 94.5 19t75 52.5t49.5 80t18 101.5q0 54 -18 100t-50 79t-75 52
t-94 19t-94.5 -19t-75 -52t-49.5 -79t-18 -100q0 -55 18 -101.5t49.5 -80t75 -52.5t94.5 -19z" />
    <glyph glyph-name="one" unicode="1" horiz-adv-x="367" 
d="M273 673v-673h-104v569l-124 -39l-24 90l165 53h87z" />
    <glyph glyph-name="two" unicode="2" horiz-adv-x="543" 
d="M502 93v-93h-454v47q0 49 17 89t43 71.5t58.5 56.5t64.5 45q42 26 71.5 45t48 37t26.5 37t8 46q0 58 -31.5 85.5t-76.5 27.5q-52 0 -84 -34t-32 -91h-105q0 51 16 92t45 70.5t70 45t92 15.5q48 0 87 -14t67 -40.5t43.5 -64t15.5 -85.5q0 -44 -13.5 -76t-37.5 -58.5
t-57.5 -50t-74.5 -48.5q-63 -39 -101 -73t-52 -82h346z" />
    <glyph glyph-name="three" unicode="3" horiz-adv-x="553" 
d="M400 353q50 -22 76.5 -63t26.5 -98q0 -45 -17.5 -82t-48.5 -64t-73.5 -42t-92.5 -15q-103 0 -163.5 57.5t-64.5 160.5h103q2 -56 35 -89.5t87 -33.5q57 0 92.5 31t35.5 82q0 52 -34 80.5t-95 28.5h-68v88h66q54 0 82.5 25.5t28.5 73.5q0 46 -28.5 71.5t-79.5 25.5
t-82.5 -28t-33.5 -74h-102q2 43 19 79.5t46.5 62t69.5 40t88 14.5q47 0 85.5 -13t65.5 -37t42 -58t15 -75q0 -51 -21 -88.5t-60 -59.5z" />
    <glyph glyph-name="four" unicode="4" horiz-adv-x="570" 
d="M539 119h-92v-119h-104v119h-314v86l301 468h117v-462h92v-92zM137 211h210v335z" />
    <glyph glyph-name="five" unicode="5" horiz-adv-x="575" 
d="M320 440q46 0 84.5 -16.5t67 -46.5t44.5 -70.5t16 -88.5q0 -51 -17 -93t-48 -72.5t-74.5 -47t-95.5 -16.5q-48 0 -88 14.5t-70 41.5t-48 64.5t-21 83.5h103q2 -24 12.5 -44t27 -35t38 -23.5t45.5 -8.5q28 0 52.5 10.5t41.5 29t27 44t10 55.5q0 28 -9.5 52t-26.5 41
t-41 27t-52 10q-35 0 -65.5 -15.5t-50.5 -43.5h-95v381h402v-93h-304v-183q57 43 135 43z" />
    <glyph glyph-name="six" unicode="6" horiz-adv-x="563" 
d="M294 443q47 0 87.5 -17.5t70.5 -48t47 -71.5t17 -88q0 -49 -18 -91t-50 -73t-75 -48.5t-93 -17.5t-93 17.5t-74.5 48t-49 72.5t-17.5 92q0 22 4 43.5t13.5 45t25.5 51t39 62.5l170 253h122l-155 -232q8 1 14.5 1.5t14.5 0.5zM282 83q28 0 52 10.5t41.5 28.5t27.5 42.5
t10 53.5t-10 53.5t-27 42t-41.5 27.5t-52.5 10q-29 0 -53 -10t-41.5 -28t-27.5 -42.5t-10 -53.5t10 -53.5t27.5 -42.5t41.5 -28t53 -10z" />
    <glyph glyph-name="seven" unicode="7" horiz-adv-x="504" 
d="M468 673v-90l-272 -583h-113l277 579h-329v94h437z" />
    <glyph glyph-name="eight" unicode="8" horiz-adv-x="559" 
d="M403 354q51 -23 78.5 -66.5t27.5 -103.5q0 -44 -16.5 -80t-46.5 -62t-72.5 -40t-93.5 -14t-93.5 14t-72.5 39.5t-46.5 61.5t-16.5 79q0 60 28 104t79 67q-43 23 -67 61t-24 89q0 39 16 72.5t44.5 58t67.5 38t86 13.5t86 -13.5t67 -37.5t43.5 -57.5t15.5 -72.5
q0 -51 -23.5 -89t-66.5 -61zM281 596q-50 0 -80.5 -27t-30.5 -71q0 -46 31 -75t80 -29q48 0 78.5 29t30.5 75q0 44 -30 71t-79 27zM279 77q57 0 91 30t34 81q0 54 -33.5 86t-89.5 32q-57 0 -92 -33t-35 -87q0 -50 34 -79.5t91 -29.5z" />
    <glyph glyph-name="nine" unicode="9" horiz-adv-x="563" 
d="M269 230q-47 0 -87.5 17.5t-70.5 48t-47 71.5t-17 88q0 49 18 91t50 73t75 48.5t93 17.5t93 -17.5t74.5 -48t49 -73t17.5 -91.5q0 -23 -4 -44t-13.5 -44.5t-25.5 -51t-39 -62.5l-170 -253h-122l155 232q-8 -1 -14.5 -1.5t-14.5 -0.5zM281 590q-28 0 -52 -10.5
t-41.5 -28.5t-27.5 -42.5t-10 -53.5t10 -53.5t27 -42t41 -27.5t53 -10q28 0 52.5 10t42 28t27.5 42.5t10 53.5t-10 53.5t-27.5 42.5t-41.5 28t-53 10z" />
    <glyph glyph-name="zero.tnum" horiz-adv-x="580" 
d="M290 -12q-54 0 -98 17.5t-75 50.5t-48 79.5t-17 104.5v193q0 58 17 104.5t48 79.5t75 50.5t98 17.5q55 0 98.5 -17.5t74.5 -50.5t47.5 -79.5t16.5 -104.5v-193q0 -58 -16.5 -104.5t-47.5 -79.5t-74.5 -50.5t-98.5 -17.5zM290 83q63 0 98 41t35 115v195q0 74 -35 115
t-98 41t-98.5 -41.5t-35.5 -114.5v-195q0 -73 35.5 -114.5t98.5 -41.5z" />
    <glyph glyph-name="one.aalt" horiz-adv-x="580" 
d="M524 95v-95h-422v95h170v473l-162 -51l-24 90l203 66h87v-578h148z" />
    <glyph glyph-name="two.aalt" horiz-adv-x="580" 
d="M521 93v-93h-454v47q0 49 17 89t43 71.5t58.5 56.5t64.5 45q42 26 71.5 45t48 37t26.5 37t8 46q0 58 -31.5 85.5t-76.5 27.5q-52 0 -84 -34t-32 -91h-105q0 51 16 92t45 70.5t70 45t92 15.5q48 0 87 -14t67 -40.5t43.5 -64t15.5 -85.5q0 -44 -13.5 -76t-37.5 -58.5
t-57.5 -50t-74.5 -48.5q-63 -39 -101 -73t-52 -82h346z" />
    <glyph glyph-name="three.aalt" horiz-adv-x="580" 
d="M419 353q50 -22 76.5 -63t26.5 -98q0 -45 -17.5 -82t-48.5 -64t-73.5 -42t-92.5 -15q-103 0 -163.5 57.5t-64.5 160.5h103q2 -56 35 -89.5t87 -33.5q57 0 92.5 31t35.5 82q0 52 -34 80.5t-95 28.5h-68v88h66q54 0 82.5 25.5t28.5 73.5q0 46 -28.5 71.5t-79.5 25.5
t-82.5 -28t-33.5 -74h-102q2 43 19 79.5t46.5 62t69.5 40t88 14.5q47 0 85.5 -13t65.5 -37t42 -58t15 -75q0 -51 -21 -88.5t-60 -59.5z" />
    <glyph glyph-name="four.aalt" horiz-adv-x="580" 
d="M544 119h-90v-119h-104v119h-313v86l298 468h119v-462h90v-92zM143 211h211v337z" />
    <glyph glyph-name="five.aalt" horiz-adv-x="580" 
d="M323 440q46 0 84.5 -16.5t67 -46.5t44.5 -70.5t16 -88.5q0 -51 -17 -93t-48 -72.5t-74.5 -47t-95.5 -16.5q-48 0 -88 14.5t-70 41.5t-48 64.5t-21 83.5h103q2 -24 12.5 -44t27 -35t38 -23.5t45.5 -8.5q28 0 52.5 10.5t41.5 29t27 44t10 55.5q0 28 -9.5 52t-26.5 41
t-41 27t-52 10q-35 0 -65.5 -15.5t-50.5 -43.5h-95v381h402v-93h-304v-183q57 43 135 43z" />
    <glyph glyph-name="six.aalt" horiz-adv-x="580" 
d="M304 443q47 0 87.5 -17.5t70.5 -48t47 -71.5t17 -88q0 -49 -18 -91t-50 -73t-75 -48.5t-93 -17.5t-93 17.5t-74.5 48t-49 72.5t-17.5 92q0 22 4 43.5t13.5 45t25.5 51t39 62.5l170 253h122l-155 -232q8 1 14.5 1.5t14.5 0.5zM292 83q28 0 52 10.5t41.5 28.5t27.5 42.5
t10 53.5t-10 53.5t-27 42t-41.5 27.5t-52.5 10q-29 0 -53 -10t-41.5 -28t-27.5 -42.5t-10 -53.5t10 -53.5t27.5 -42.5t41.5 -28t53 -10z" />
    <glyph glyph-name="seven.aalt" horiz-adv-x="580" 
d="M506 673v-90l-272 -583h-113l277 579h-339v94h447z" />
    <glyph glyph-name="eight.aalt" horiz-adv-x="580" 
d="M413 354q51 -23 78.5 -66.5t27.5 -103.5q0 -44 -16.5 -80t-46.5 -62t-72.5 -40t-93.5 -14t-93.5 14t-72.5 39.5t-46.5 61.5t-16.5 79q0 60 28 104t79 67q-43 23 -67 61t-24 89q0 39 16 72.5t44.5 58t67.5 38t86 13.5t86 -13.5t67 -37.5t43.5 -57.5t15.5 -72.5
q0 -51 -23.5 -89t-66.5 -61zM291 596q-50 0 -80.5 -27t-30.5 -71q0 -46 31 -75t80 -29q48 0 78.5 29t30.5 75q0 44 -30 71t-79 27zM289 77q57 0 91 30t34 81q0 54 -33.5 86t-89.5 32q-57 0 -92 -33t-35 -87q0 -50 34 -79.5t91 -29.5z" />
    <glyph glyph-name="nine.aalt" horiz-adv-x="580" 
d="M276 230q-47 0 -87.5 17.5t-70.5 48t-47 71.5t-17 88q0 49 18 91t50 73t75 48.5t93 17.5t93 -17.5t74.5 -48t49 -73t17.5 -91.5q0 -23 -4 -44t-13.5 -44.5t-25.5 -51t-39 -62.5l-170 -253h-122l155 232q-8 -1 -14.5 -1.5t-14.5 -0.5zM288 590q-28 0 -52 -10.5
t-41.5 -28.5t-27.5 -42.5t-10 -53.5t10 -53.5t27 -42t41 -27.5t53 -10q28 0 52.5 10t42 28t27.5 42.5t10 53.5t-10 53.5t-27.5 42.5t-41.5 28t-53 10z" />
    <glyph glyph-name="zero.zero" horiz-adv-x="781" 
d="M390 684q74 0 137.5 -26t109.5 -72.5t72 -110t26 -138.5t-26 -138.5t-72.5 -110t-109.5 -73t-137 -26.5t-136.5 26.5t-109 73t-72.5 110t-26 138.5t26 138.5t72 110t109 72.5t137 26zM391 590q-51 0 -95 -19t-76 -52.5t-50 -80t-18 -100.5q0 -40 9.5 -75.5t26.5 -65.5
l346 346q-29 23 -65 35t-78 12zM391 83q52 0 95.5 19t75.5 53t50 81t18 102q0 39 -9.5 74t-26.5 65l-347 -347q30 -23 66 -35t78 -12z" />
    <glyph glyph-name="fraction" unicode="&#x2044;" horiz-adv-x="233" 
d="M269 673h94l-391 -673h-94z" />
    <glyph glyph-name="onehalf" unicode="&#xbd;" horiz-adv-x="738" 
d="M484 673h94l-391 -673h-94zM198 674v-359h-77v286l-80 -24l-17 64l106 33h68zM710 65v-64h-276v25q0 38 25.5 70.5t84.5 67.5q25 15 41.5 26.5t26 21t13 18.5t3.5 20q0 25 -15 39.5t-41 14.5q-24 0 -39.5 -17t-15.5 -44h-76q0 27 10 50.5t27.5 40.5t41.5 26.5t53 9.5
q30 0 54.5 -8.5t42 -24t27.5 -37t10 -46.5q0 -18 -5.5 -34t-18.5 -32t-34.5 -33t-54.5 -38q-28 -17 -44.5 -29t-25.5 -23h186z" />
    <glyph glyph-name="onethird" unicode="&#x2153;" horiz-adv-x="753" 
d="M484 673h94l-391 -673h-94zM198 674v-359h-77v286l-80 -24l-17 64l106 33h68zM668 191q50 -27 50 -80q0 -24 -10 -45t-27.5 -36.5t-41 -24.5t-51.5 -9q-63 0 -100.5 32t-39.5 89h74q2 -24 20 -39.5t44 -15.5q24 0 39.5 13.5t15.5 34.5q0 50 -58 50h-35v58h34q47 0 47 43
q0 21 -13.5 33t-36.5 12q-21 0 -36.5 -13t-17.5 -33h-73q2 48 38 79t91 31q56 0 91 -29.5t35 -76.5q0 -48 -39 -73z" />
    <glyph glyph-name="twothirds" unicode="&#x2154;" horiz-adv-x="871" 
d="M603 673h94l-391 -673h-94zM310 379v-64h-276v25q0 38 25.5 70.5t84.5 67.5q25 15 41.5 26.5t26 21t13 18.5t3.5 20q0 25 -15 39.5t-41 14.5q-24 0 -39.5 -17t-15.5 -44h-76q0 27 10 50.5t27.5 40.5t41.5 26.5t53 9.5q30 0 54.5 -8.5t42 -24t27.5 -37t10 -46.5
q0 -18 -5.5 -34t-18.5 -32t-34.5 -33t-54.5 -38q-28 -17 -44.5 -29t-25.5 -23h186zM786 191q50 -27 50 -80q0 -24 -10 -45t-27.5 -36.5t-41 -24.5t-51.5 -9q-63 0 -100.5 32t-39.5 89h74q2 -24 20 -39.5t44 -15.5q24 0 39.5 13.5t15.5 34.5q0 50 -58 50h-35v58h34
q47 0 47 43q0 21 -13.5 33t-36.5 12q-21 0 -36.5 -13t-17.5 -33h-73q2 48 38 79t91 31q56 0 91 -29.5t35 -76.5q0 -48 -39 -73z" />
    <glyph glyph-name="onequarter" unicode="&#xbc;" horiz-adv-x="714" 
d="M484 673h94l-391 -673h-94zM198 674v-359h-77v286l-80 -24l-17 64l106 33h68zM692 64h-44v-63h-76v63h-183v52l169 247h90v-235h44v-64zM475 128h100v147z" />
    <glyph glyph-name="threequarters" unicode="&#xbe;" horiz-adv-x="778" 
d="M560 673h94l-391 -673h-94zM251 505q50 -27 50 -80q0 -24 -10 -45t-27.5 -36.5t-41 -24.5t-51.5 -9q-63 0 -100.5 32t-39.5 89h74q2 -24 20 -39.5t44 -15.5q24 0 39.5 13.5t15.5 34.5q0 50 -58 50h-35v58h34q47 0 47 43q0 21 -13.5 33t-36.5 12q-21 0 -36.5 -13
t-17.5 -33h-73q2 48 38 79t91 31q56 0 91 -29.5t35 -76.5q0 -48 -39 -73zM756 64h-44v-63h-76v63h-183v52l169 247h90v-235h44v-64zM539 128h100v147z" />
    <glyph glyph-name="uni00B9" unicode="&#xb9;" horiz-adv-x="269" 
d="M196 773v-359h-77v286l-80 -24l-17 64l106 33h68z" />
    <glyph glyph-name="uni00B2" unicode="&#xb2;" horiz-adv-x="338" 
d="M309 478v-64h-276v25q0 38 25.5 70.5t84.5 67.5q25 15 41.5 26.5t26 21t13 18.5t3.5 20q0 25 -15 39.5t-41 14.5q-24 0 -39.5 -17t-15.5 -44h-76q0 27 10 50.5t27.5 40.5t41.5 26.5t53 9.5q30 0 54.5 -8.5t42 -24t27.5 -37t10 -46.5q0 -18 -5.5 -34t-18.5 -32t-34.5 -33
t-54.5 -38q-28 -17 -44.5 -29t-25.5 -23h186z" />
    <glyph glyph-name="uni00B3" unicode="&#xb3;" horiz-adv-x="336" 
d="M250 604q50 -27 50 -80q0 -24 -10 -45t-27.5 -36.5t-41 -24.5t-51.5 -9q-63 0 -100.5 32t-39.5 89h74q2 -24 20 -39.5t44 -15.5q24 0 39.5 13.5t15.5 34.5q0 50 -58 50h-35v58h34q47 0 47 43q0 21 -13.5 33t-36.5 12q-21 0 -36.5 -13t-17.5 -33h-73q2 48 38 79t91 31
q56 0 91 -29.5t35 -76.5q0 -48 -39 -73z" />
    <glyph glyph-name="uni2074" unicode="&#x2074;" horiz-adv-x="345" 
d="M323 477h-44v-63h-76v63h-183v52l169 247h90v-235h44v-64zM106 541h100v147z" />
    <glyph glyph-name="asterisk" unicode="*" horiz-adv-x="407" 
d="M267 521l104 -57l-34 -61l-101 63l3 -120h-70l3 120l-102 -63l-35 61l105 57l-105 56l35 61l102 -63l-3 119h70l-3 -118l101 62l34 -61z" />
    <glyph glyph-name="backslash" unicode="\" horiz-adv-x="506" 
d="M353 -30l-301 733h101l301 -733h-101z" />
    <glyph glyph-name="periodcentered" unicode="&#xb7;" horiz-adv-x="273" 
d="M136 276q-29 0 -49.5 20t-20.5 49q0 30 20.5 50t49.5 20q31 0 51 -20t20 -50q0 -29 -20 -49t-51 -20z" />
    <glyph glyph-name="bullet" unicode="&#x2022;" horiz-adv-x="383" 
d="M192 186q-29 0 -55.5 10.5t-46.5 29.5t-32 45t-12 57t12 57.5t32 45.5t46.5 29.5t55.5 10.5t55 -10.5t46 -29t32 -45t12 -58.5t-12 -58t-32 -44.5t-46 -29t-55 -10.5z" />
    <glyph glyph-name="colon" unicode=":" horiz-adv-x="293" 
d="M146 324q-29 0 -49.5 20t-20.5 49q0 30 20.5 50t49.5 20q31 0 51 -20t20 -50q0 -29 -20 -49t-51 -20zM146 -12q-29 0 -49.5 20t-20.5 49q0 30 20.5 50t49.5 20q31 0 51 -20t20 -50q0 -29 -20 -49t-51 -20z" />
    <glyph glyph-name="comma" unicode="," horiz-adv-x="266" 
d="M86 112h111l-41 -273h-82z" />
    <glyph glyph-name="ellipsis" unicode="&#x2026;" horiz-adv-x="822" 
d="M410 -12q-29 0 -49.5 20t-20.5 49q0 30 20.5 50t49.5 20q31 0 51 -20t20 -50q0 -29 -20 -49t-51 -20zM145 -12q-29 0 -49.5 20t-20.5 49q0 30 20.5 50t49.5 20q31 0 51 -20t20 -50q0 -29 -20 -49t-51 -20zM674 -12q-29 0 -49.5 20t-20.5 49q0 30 20.5 50t49.5 20
q31 0 51 -20t20 -50q0 -29 -20 -49t-51 -20z" />
    <glyph glyph-name="exclam" unicode="!" horiz-adv-x="297" 
d="M89 673h119l-15 -458h-88zM147 -12q-29 0 -48.5 19t-19.5 48t19.5 48t48.5 19q30 0 50 -19t20 -48t-20 -48t-50 -19z" />
    <glyph glyph-name="exclamdown" unicode="&#xa1;" horiz-adv-x="304" 
d="M191 295l15 -458h-119l16 458h88zM145 522q30 0 50 -19t20 -48t-20 -48t-50 -19q-29 0 -48.5 19t-19.5 48t19.5 48t48.5 19z" />
    <glyph glyph-name="numbersign" unicode="#" horiz-adv-x="602" 
d="M489 406l-20 -148h94v-87h-106l-23 -171h-96l23 171h-164l-22 -171h-96l23 171h-85v87h97l19 148h-93v86h105l23 173h96l-23 -173h164l23 173h96l-23 -173h85v-86h-97zM375 257l21 150h-169l-21 -150h169z" />
    <glyph glyph-name="period" unicode="." horiz-adv-x="273" 
d="M136 -12q-29 0 -49.5 20t-20.5 49q0 30 20.5 50t49.5 20q31 0 51 -20t20 -50q0 -29 -20 -49t-51 -20z" />
    <glyph glyph-name="question" unicode="?" horiz-adv-x="401" 
d="M183 673q86 0 133 -41.5t47 -116.5q0 -26 -6.5 -48.5t-24 -47t-48.5 -53.5t-80 -68v-83h-91v127q48 38 76.5 63t44 42t20.5 30t5 28q0 40 -23 58t-71 18h-113v92h131zM160 122q30 0 50 -19t20 -48t-20 -48t-50 -19q-29 0 -48.5 19t-19.5 48t19.5 48t48.5 19z" />
    <glyph glyph-name="questiondown" unicode="&#xbf;" horiz-adv-x="386" 
d="M218 -163q-86 0 -133 41.5t-47 116.5q0 26 6.5 48.5t24 47t48.5 53.5t80 68v83h91v-127q-48 -38 -76.5 -63t-44 -42t-20.5 -30t-5 -28q0 -40 23 -58t71 -18h113v-92h-131zM241 388q-30 0 -50 19t-20 48t20 48t50 19q29 0 48.5 -19t19.5 -48t-19.5 -48t-48.5 -19z" />
    <glyph glyph-name="quotedbl" unicode="&#x22;" horiz-adv-x="425" 
d="M68 673h99v-270h-87zM257 673h99l-12 -270h-87v270z" />
    <glyph glyph-name="quotesingle" unicode="'" horiz-adv-x="246" 
d="M68 673h109l-12 -270h-85z" />
    <glyph glyph-name="semicolon" unicode=";" horiz-adv-x="293" 
d="M146 324q-29 0 -49.5 20t-20.5 49q0 30 20.5 50t49.5 20q31 0 51 -20t20 -50q0 -29 -20 -49t-51 -20zM96 112h111l-41 -273h-82z" />
    <glyph glyph-name="slash" unicode="/" horiz-adv-x="506" 
d="M353 703h101l-301 -733h-101z" />
    <glyph glyph-name="underscore" unicode="_" horiz-adv-x="486" 
d="M32 -69h421v-90h-421v90z" />
    <glyph glyph-name="exclamdown.aalt" horiz-adv-x="297" 
d="M193 458l15 -458h-119l16 458h88zM147 685q30 0 50 -19t20 -48t-20 -48t-50 -19q-29 0 -48.5 19t-19.5 48t19.5 48t48.5 19z" />
    <glyph glyph-name="questiondown.aalt" horiz-adv-x="401" 
d="M218 0q-86 0 -133 41.5t-47 116.5q0 26 6.5 48.5t24 47t48.5 53.5t80 68v83h91v-127q-48 -38 -76.5 -63t-44 -42t-20.5 -30t-5 -28q0 -40 23 -58t71 -18h113v-92h-131zM241 551q-30 0 -50 19t-20 48t20 48t50 19q29 0 48.5 -19t19.5 -48t-19.5 -48t-48.5 -19z" />
    <glyph glyph-name="braceleft" unicode="{" horiz-adv-x="407" 
d="M302 680q-77 0 -77 -73q0 -18 4 -42t8.5 -49t8.5 -49.5t4 -43.5q0 -70 -70 -85q37 -8 53.5 -28t16.5 -57q0 -20 -4 -44t-8.5 -49t-8.5 -48.5t-4 -42.5q0 -74 77 -74h51v-86h-72q-151 0 -151 138q0 24 4 50t8.5 51t8.5 47.5t4 39.5q0 32 -14.5 46t-46.5 14h-47v85h47
q61 0 61 60q0 17 -4 40t-8.5 48.5t-8.5 51.5t-4 50q0 136 151 136h72v-86h-51z" />
    <glyph glyph-name="braceright" unicode="}" horiz-adv-x="407" 
d="M54 680v86h72q151 0 151 -136q0 -24 -4 -50t-8.5 -51.5t-8.5 -48.5t-4 -40q0 -60 61 -60h47v-85h-47q-32 0 -46.5 -14t-14.5 -46q0 -17 4 -39.5t8.5 -47.5t8.5 -51t4 -50q0 -138 -151 -138h-72v86h51q77 0 77 74q0 19 -4 42.5t-8.5 48.5t-8.5 49t-4 44q0 37 16.5 57
t53.5 28q-70 15 -70 85q0 19 4 43.5t8.5 49.5t8.5 49t4 42q0 73 -77 73h-51z" />
    <glyph glyph-name="bracketleft" unicode="[" horiz-adv-x="352" 
d="M85 766h216v-85h-119v-687h119v-85h-216v857z" />
    <glyph glyph-name="bracketright" unicode="]" horiz-adv-x="352" 
d="M51 -91v85h119v687h-119v85h216v-857h-216z" />
    <glyph glyph-name="parenleft" unicode="(" horiz-adv-x="358" 
d="M242 -81q-78 84 -118.5 190.5t-40.5 228.5q0 121 40.5 228t118.5 190h113q-85 -79 -130.5 -188t-45.5 -230t45.5 -230.5t130.5 -188.5h-113z" />
    <glyph glyph-name="parenright" unicode=")" horiz-adv-x="358" 
d="M3 -81q85 79 130.5 188.5t45.5 230.5t-45.5 230t-130.5 188h113q78 -83 118.5 -190t40.5 -228q0 -122 -40.5 -228.5t-118.5 -190.5h-113z" />
    <glyph glyph-name="emdash" unicode="&#x2014;" horiz-adv-x="995" 
d="M48 356h900v-91h-900v91z" />
    <glyph glyph-name="endash" unicode="&#x2013;" horiz-adv-x="495" 
d="M37 357h421v-92h-421v92z" />
    <glyph glyph-name="hyphen" unicode="-" horiz-adv-x="326" 
d="M42 357h241v-92h-241v92z" />
    <glyph glyph-name="uni00AD" unicode="&#xad;" horiz-adv-x="326" 
d="M42 357h241v-92h-241v92z" />
    <glyph glyph-name="emdash.aalt" horiz-adv-x="995" 
d="M48 317h900v-91h-900v91z" />
    <glyph glyph-name="endash.aalt" horiz-adv-x="495" 
d="M37 318h421v-92h-421v92z" />
    <glyph glyph-name="glyph549" horiz-adv-x="326" 
d="M42 318h241v-92h-241v92z" />
    <glyph glyph-name="guillemotleft" unicode="&#xab;" horiz-adv-x="475" 
d="M137 104l-111 209l109 208h110l-108 -208l108 -209h-108zM342 104l-111 209l109 208h110l-108 -208l108 -209h-108z" />
    <glyph glyph-name="guillemotright" unicode="&#xbb;" horiz-adv-x="475" 
d="M133 313l-108 208h110l109 -208l-111 -209h-108zM338 313l-108 208h110l109 -208l-111 -209h-108z" />
    <glyph glyph-name="guilsinglleft" unicode="&#x2039;" horiz-adv-x="270" 
d="M137 104l-111 209l109 208h110l-108 -208l108 -209h-108z" />
    <glyph glyph-name="guilsinglright" unicode="&#x203a;" horiz-adv-x="270" 
d="M133 313l-108 208h110l109 -208l-111 -209h-108z" />
    <glyph glyph-name="quotedblbase" unicode="&#x201e;" horiz-adv-x="451" 
d="M85 109h109l-32 -271h-89zM279 109h104l-41 -271h-93z" />
    <glyph glyph-name="quotedblleft" unicode="&#x201c;" horiz-adv-x="451" 
d="M366 402h-109l32 271h89zM172 402h-104l41 271h93z" />
    <glyph glyph-name="quotedblright" unicode="&#x201d;" horiz-adv-x="451" 
d="M85 673h109l-32 -271h-89zM279 673h104l-41 -271h-93z" />
    <glyph glyph-name="quoteleft" unicode="&#x2018;" horiz-adv-x="269" 
d="M109 673h87l-12 -270h-116z" />
    <glyph glyph-name="quoteright" unicode="&#x2019;" horiz-adv-x="269" 
d="M85 673h116l-41 -271h-87z" />
    <glyph glyph-name="quotesinglbase" unicode="&#x201a;" horiz-adv-x="269" 
d="M85 109h116l-41 -271h-87z" />
    <glyph glyph-name="uni00A0" unicode="&#xa0;" horiz-adv-x="273" 
 />
    <glyph glyph-name="cent" unicode="&#xa2;" horiz-adv-x="586" 
d="M251 75q-46 8 -84 30.5t-65.5 55.5t-43 75.5t-15.5 90.5t15.5 90t43 75t65.5 55.5t84 31.5v170h98v-169q76 -12 128.5 -60t65.5 -121h-102q-13 42 -50 66.5t-88 24.5q-34 0 -62.5 -12t-49 -34t-32 -51.5t-11.5 -65.5t11.5 -65.5t32 -51.5t49 -34t62.5 -12q51 0 87.5 24.5
t50.5 66.5h102q-13 -73 -65.5 -121.5t-128.5 -60.5v-168h-98v170z" />
    <glyph glyph-name="currency" unicode="&#xa4;" horiz-adv-x="653" 
d="M576 11l-123 125q-28 -19 -61.5 -29t-70.5 -10q-36 0 -68.5 9.5t-60.5 26.5l-114 -122l-64 64l113 120q-20 29 -31.5 63t-11.5 72q0 37 11 70.5t31 62.5l-112 117l63 64l114 -119q28 18 61 28t68 10q38 0 71.5 -10.5t62.5 -29.5l121 121l64 -64l-121 -120
q19 -28 29.5 -61t10.5 -69q0 -37 -10.5 -69.5t-29.5 -61.5l122 -124zM321 189q30 0 55 10.5t43 29t28 44.5t10 57t-10 56.5t-28 44.5t-42.5 29.5t-54.5 10.5t-55 -10.5t-42.5 -29t-27.5 -44.5t-10 -57q0 -32 10 -57.5t27.5 -44.5t42 -29t54.5 -10z" />
    <glyph glyph-name="dollar" unicode="$" horiz-adv-x="525" 
d="M485 191q0 -69 -47.5 -113t-128.5 -55v-118h-98v119q-79 13 -126 61t-51 123h101q4 -48 39 -76t89 -28q57 0 88.5 21t31.5 61q0 18 -4 31t-14.5 23.5t-28 19.5t-44.5 18l-82 29q-81 29 -117 68t-36 99q0 63 42 104.5t112 52.5v118h98v-118q71 -11 112.5 -54t46.5 -111
h-101q-5 42 -33 64t-75 22q-48 0 -74 -19.5t-26 -57.5q0 -30 19 -48.5t72 -37.5l86 -31q41 -16 69.5 -32.5t46 -36.5t25.5 -44t8 -54z" />
    <glyph glyph-name="Euro" unicode="&#x20ac;" horiz-adv-x="829" 
d="M443 83q43 0 81 13t68 37t51.5 58t31.5 76h108q-10 -63 -39 -114t-74 -87.5t-102.5 -56.5t-124.5 -20q-59 0 -111 16t-95 45t-74.5 69.5t-49.5 90.5h-107v82h88q-3 22 -3 45q0 9 0.5 18t1.5 18h-86v82h103q17 51 49 93.5t75 72.5t96 46.5t113 16.5q67 0 125 -20
t102.5 -56.5t73.5 -87.5t39 -114h-108q-10 42 -31 76t-51 58t-68 37t-81 13q-75 0 -132 -36.5t-86 -98.5h312l-22 -82h-314q-1 -9 -1.5 -18t-0.5 -18q0 -23 3 -45h293l-22 -82h-244q30 -58 85.5 -92.5t127.5 -34.5z" />
    <glyph glyph-name="florin" unicode="&#x192;" horiz-adv-x="469" 
d="M448 673v-94h-49q-43 0 -65.5 -20t-27.5 -65l-12 -94h99v-91h-110l-33 -272q-21 -170 -181 -170h-64v94h44q46 0 68.5 20t28.5 65l32 263h-73v91h84l13 103q21 170 182 170h64z" />
    <glyph glyph-name="uni20B4" unicode="&#x20b4;" horiz-adv-x="572" 
d="M443 382q-35 -29 -94 -54l-71 -30h264v-78h-364q-8 -17 -8 -42q0 -47 35 -75t92 -28q52 0 88 23t47 63h102q-11 -80 -74.5 -126.5t-163.5 -46.5q-106 0 -167 51t-61 140q0 24 4 41h-42v78h93q17 14 40.5 27t55.5 27l71 30h-259v79h363q9 21 9 48q0 39 -30 64t-78 25
q-46 0 -76.5 -20.5t-38.5 -58.5h-101q10 77 67.5 121t147.5 44q47 0 85.5 -12.5t66 -35.5t42.5 -55.5t15 -71.5q0 -26 -6 -48h45v-79h-99z" />
    <glyph glyph-name="uni20BA" unicode="&#x20ba;" horiz-adv-x="535" 
d="M507 294v-51q0 -119 -76 -181t-221 -62h-89v249l-91 -35v87l91 35v88l-91 -35v88l91 35v161h104v-129l179 68v-87l-179 -68v-88l179 68v-87l-179 -68v-190q94 2 141 42.5t47 117.5v42h94z" />
    <glyph glyph-name="uni20BD" unicode="&#x20bd;" horiz-adv-x="589" 
d="M113 124h-81v85h81l-1 87h-80v86h80v291h237q47 0 85.5 -13t65.5 -37.5t41.5 -59t14.5 -76.5t-15 -77.5t-42 -60.5t-65 -39t-84 -14h-133v-87h257v-85h-257v-124h-105zM336 382q54 0 84 27t30 77q0 48 -30 74.5t-84 26.5h-120v-205h120z" />
    <glyph glyph-name="sterling" unicode="&#xa3;" horiz-adv-x="531" 
d="M269 221q0 -40 -17 -74.5t-49 -59.5h294v-87h-453v73q66 28 96.5 62.5t30.5 81.5q0 26 -8 53h-109v86h75q-15 33 -27.5 68.5t-12.5 78.5q0 41 15 74.5t42 57.5t65.5 37t85.5 13q98 0 154 -53.5t56 -146.5h-97q-1 48 -30 78t-77 30q-52 0 -80 -27t-28 -78q0 -33 13 -65
t27 -67h182v-86h-153q2 -12 3.5 -24t1.5 -25z" />
    <glyph glyph-name="uni20B8" unicode="&#x20b8;" horiz-adv-x="614" 
d="M33 673h549v-93h-549v93zM256 399h-223v93h549v-93h-222v-399h-104v399z" />
    <glyph glyph-name="uni20AE" unicode="&#x20ae;" horiz-adv-x="614" 
d="M360 578v-162l171 53v-87l-171 -53v-89l171 52v-86l-171 -53v-153h-104v128l-170 -53v87l170 53v88l-170 -53v88l170 52v188h-223v95h549v-95h-222z" />
    <glyph glyph-name="yen" unicode="&#xa5;" horiz-adv-x="613" 
d="M402 361h146v-84h-189v-89h189v-84h-189v-104h-105v104h-187v84h187v89h-187v84h146l-183 312h121l157 -286l156 286h120z" />
    <glyph glyph-name="Omega" unicode="&#x2126;" horiz-adv-x="819" 
d="M759 356q0 -160 -143 -265h136v-91h-290v91q92 42 140 105t48 148q0 53 -18 97.5t-50.5 77t-76.5 50.5t-96 18t-96 -18t-76.5 -50.5t-50.5 -77t-18 -97.5q0 -86 48 -148.5t140 -104.5v-91h-289v91h131q-139 104 -139 265q0 71 26.5 131t73.5 104t111 69t138 25
q75 0 139 -25t111.5 -69t74 -104.5t26.5 -130.5z" />
    <glyph glyph-name="approxequal" unicode="&#x2248;" horiz-adv-x="580" 
d="M398.258 366q-12.5059 0 -24.5303 2t-25.9736 6q-13.9482 4 -30.3018 11t-38.4795 18q-23.0869 11 -39.4404 18q-16.3545 7 -28.3789 11t-21.1631 5.5t-17.7969 1.5q-23.0869 0 -49.0605 -9.5t-62.5283 -31.5v96q36.5547 24 62.0469 33.5q25.4932 9.5 57.2383 9.5
q12.5049 0 24.5303 -2q12.0244 -2 25.4922 -6t30.3018 -11.5q16.835 -7.5 38.96 -17.5q23.0879 -11 39.4414 -18t28.3779 -11q12.0254 -4 21.1641 -5.5t17.7959 -1.5q23.0879 0 49.0615 9.5q25.9727 9.5 62.5283 31.5v-96q-36.5557 -24 -62.0479 -33.5t-57.2373 -9.5z
M398.258 148q-12.5059 0 -24.5303 2t-25.9736 6q-13.9482 4 -30.3018 11t-38.4795 18q-23.0869 11 -39.4404 18q-16.3545 7 -28.3789 11t-21.1631 5.5t-17.7969 1.5q-23.0869 0 -49.0605 -9.5t-62.5283 -31.5v96q36.5547 24 62.0469 33.5q25.4932 9.5 57.2383 9.5
q12.5049 0 24.5303 -2q12.0244 -2 25.4922 -6t30.3018 -11.5q16.835 -7.5 38.96 -17.5q23.0879 -11 39.4414 -18t28.3779 -11q12.0254 -4 21.1641 -5.5t17.7959 -1.5q23.0879 0 49.0615 9.5q25.9727 9.5 62.5283 31.5v-96q-36.5557 -24 -62.0479 -33.5t-57.2373 -9.5z" />
    <glyph glyph-name="asciitilde" unicode="~" horiz-adv-x="580" 
d="M404 257q-13 0 -25.5 2t-27 6t-31.5 11t-40 18q-24 11 -41 18t-29.5 11t-22 5.5t-18.5 1.5q-24 0 -51 -9.5t-65 -31.5v96q38 24 64.5 33.5t59.5 9.5q13 0 25.5 -2t26.5 -6t31.5 -11.5t40.5 -17.5q24 -11 41 -18t29.5 -11t22 -5.5t18.5 -1.5q24 0 51 9.5t65 31.5v-96
q-38 -24 -64.5 -33.5t-59.5 -9.5z" />
    <glyph glyph-name="uni2219" unicode="&#x2219;" horiz-adv-x="270" 
d="M135 276q-29 0 -49.5 20t-20.5 49q0 30 20.5 50t49.5 20q31 0 51 -20t20 -50q0 -29 -20 -49t-51 -20z" />
    <glyph glyph-name="divide" unicode="&#xf7;" horiz-adv-x="580" 
d="M290 461q-28 0 -47.5 19t-19.5 46t19.5 45t47.5 18t47.5 -18t19.5 -45t-19.5 -46t-47.5 -19zM53 382h474v-91h-474v91zM290 84q-28 0 -47.5 18t-19.5 45t19.5 46t47.5 19t47.5 -19t19.5 -46t-19.5 -45t-47.5 -18z" />
    <glyph glyph-name="equal" unicode="=" horiz-adv-x="580" 
d="M61 493h459v-91h-459v91zM61 278h459v-90h-459v90z" />
    <glyph glyph-name="greater" unicode="&#x3e;" horiz-adv-x="580" 
d="M521 379v-81l-465 -189v102l336 128l-336 128v101z" />
    <glyph glyph-name="greaterequal" unicode="&#x2265;" horiz-adv-x="580" 
d="M521 464v-75l-458 -169v98l320 109l-320 108v98zM63 136h451v-90h-451v90z" />
    <glyph glyph-name="Delta" unicode="&#x2206;" horiz-adv-x="669" 
d="M614 89v-89h-559l1 89l224 584h112zM167 92h339l-170 473z" />
    <glyph glyph-name="infinity" unicode="&#x221e;" horiz-adv-x="854" 
d="M631 517q43 0 79 -14t61.5 -39t39.5 -61t14 -79t-13.5 -78t-39 -60t-61 -39t-78.5 -14q-36 0 -66 9.5t-54.5 25.5t-45.5 37.5t-39 44.5q-18 -23 -38.5 -44.5t-45.5 -37.5t-55 -25.5t-67 -9.5q-44 0 -79.5 13.5t-60.5 38.5t-39 60.5t-14 78.5t14 79t39.5 61t61 39t79.5 14
q36 0 65.5 -9.5t54.5 -25.5t45.5 -37t38.5 -44q18 23 39 44t45.5 37t54 25.5t65.5 9.5zM232 227q45 0 77.5 29t62.5 70q-30 41 -62.5 69t-78.5 28q-45 0 -73 -26t-28 -71t28.5 -72t73.5 -27zM624 227q45 0 73 27t28 72t-28.5 71t-73.5 26t-77.5 -28.5t-62.5 -68.5
q31 -41 63.5 -70t77.5 -29z" />
    <glyph glyph-name="integral" unicode="&#x222b;" horiz-adv-x="324" 
d="M1 -31h50q48 0 73.5 24.5t25.5 72.5q0 30 -6 72.5t-15 92t-19.5 102.5t-19.5 104t-15 96t-6 79q0 84 47 127.5t135 43.5h73v-93h-49q-51 0 -75.5 -23.5t-24.5 -74.5q0 -28 6.5 -70.5t15.5 -92t19.5 -102.5t19 -104.5t14.5 -97t6 -78.5q0 -81 -47.5 -126t-134.5 -45h-73
v93z" />
    <glyph glyph-name="less" unicode="&#x3c;" horiz-adv-x="580" 
d="M524 467l-336 -128l336 -128v-102l-465 189v81l465 189v-101z" />
    <glyph glyph-name="lessequal" unicode="&#x2264;" horiz-adv-x="580" 
d="M517 535l-320 -108l320 -109v-98l-458 169v75l458 169v-98zM66 46v90h451v-90h-451z" />
    <glyph glyph-name="logicalnot" unicode="&#xac;" horiz-adv-x="580" 
d="M384 303h-337v91h438v-268h-101v177z" />
    <glyph glyph-name="mu" unicode="&#xb5;" horiz-adv-x="594" 
d="M577 90v-90h-52q-72 0 -101 50q-23 -28 -57 -43.5t-77 -15.5q-37 0 -66 10.5t-50 28.5v-193h-99v653h103v-291q0 -54 29 -84t80 -30q48 0 78.5 31.5t30.5 81.5v292h103v-343q0 -57 52 -57h26z" />
    <glyph glyph-name="minus" unicode="&#x2212;" horiz-adv-x="580" 
d="M53 384h473v-92h-473v92z" />
    <glyph glyph-name="multiply" unicode="&#xd7;" horiz-adv-x="580" 
d="M75 186l150 151l-150 151l64 65l152 -151l150 151l65 -65l-151 -151l151 -150l-64 -65l-152 150l-150 -150z" />
    <glyph glyph-name="notequal" unicode="&#x2260;" horiz-adv-x="580" 
d="M61 493h252l59 109h94l-59 -109h113v-91h-162l-66 -124h228v-90h-277l-55 -103h-94l55 103h-88v90h137l66 124h-203v91z" />
    <glyph glyph-name="partialdiff" unicode="&#x2202;" horiz-adv-x="577" 
d="M289 685q121 0 183 -80.5t62 -232.5q0 -89 -19.5 -160t-56 -121t-89 -77t-117.5 -27q-49 0 -89 14.5t-68.5 41t-44 63.5t-15.5 82q0 107 63.5 165.5t179.5 58.5q39 0 77 -5t73 -16q-6 202 -143 202q-45 0 -75 -22.5t-37 -60.5h-100q4 39 21.5 71t46 55.5t66.5 36t82 12.5
zM256 80q71 0 114.5 59t54.5 167q-63 20 -136 20q-72 0 -110.5 -34t-38.5 -97q0 -54 31 -84.5t85 -30.5z" />
    <glyph glyph-name="percent" unicode="%" horiz-adv-x="856" 
d="M208 342q-37 0 -69 13t-55 36t-36.5 54.5t-13.5 67.5t13.5 67.5t36.5 54.5t55 36t69 13t69 -13t55.5 -36t37 -54.5t13.5 -67.5t-13.5 -67t-37 -54.5t-55.5 -36.5t-69 -13zM580 673h96l-400 -673h-95zM209 423q39 0 64.5 25.5t25.5 65.5t-25.5 65.5t-64.5 25.5t-64 -25
t-25 -66q0 -40 25 -65.5t64 -25.5zM647 -11q-37 0 -69 13t-55 36t-36.5 54.5t-13.5 67.5t13 67.5t36.5 54.5t55 36t69.5 13q37 0 69.5 -13t55.5 -36t36.5 -54.5t13.5 -67.5t-13.5 -67t-37 -54.5t-55.5 -36.5t-69 -13zM649 70q38 0 63.5 25.5t25.5 66.5q0 39 -25.5 64.5
t-64.5 25.5t-64 -25t-25 -65q0 -41 25 -66.5t65 -25.5z" />
    <glyph glyph-name="perthousand" unicode="&#x2030;" horiz-adv-x="1269" 
d="M1059 -11q-37 0 -69 13t-55 36t-36.5 54.5t-13.5 67.5t13 67.5t36.5 54.5t55 36t69.5 13q37 0 69.5 -13t55.5 -36t36.5 -54.5t13.5 -67.5t-13.5 -67t-37 -54.5t-55.5 -36.5t-69 -13zM1061 70q38 0 63.5 25.5t25.5 66.5q0 39 -25.5 64.5t-64.5 25.5t-64 -25t-25 -65
q0 -42 25 -67t65 -25zM208 342q-37 0 -69 13t-55 36t-36.5 54.5t-13.5 67.5t13.5 67.5t36.5 54.5t55 36t69 13t69 -13t55.5 -36t37 -54.5t13.5 -67.5t-13.5 -67t-37 -54.5t-55.5 -36.5t-69 -13zM580 673h96l-400 -673h-95zM209 423q39 0 64.5 25.5t25.5 65.5t-25.5 65.5
t-64.5 25.5t-64 -25t-25 -66q0 -40 25 -65.5t64 -25.5zM647 -11q-37 0 -69 13t-55 36t-36.5 54.5t-13.5 67.5t13 67.5t36.5 54.5t55 36t69.5 13q37 0 69.5 -13t55.5 -36t36.5 -54.5t13.5 -67.5t-13.5 -67t-37 -54.5t-55.5 -36.5t-69 -13zM649 70q38 0 63.5 25.5t25.5 66.5
q0 39 -25.5 64.5t-64.5 25.5t-64 -25t-25 -65q0 -41 25 -66.5t65 -25.5z" />
    <glyph glyph-name="plus" unicode="+" horiz-adv-x="580" 
d="M242 302h-191v89h191v195h98v-195h189v-89h-189v-195h-98v195z" />
    <glyph glyph-name="plusminus" unicode="&#xb1;" horiz-adv-x="580" 
d="M242 378h-191v90h191v176h98v-176h189v-90h-189v-176h-98v176zM62 141h458v-89h-458v89z" />
    <glyph glyph-name="product" unicode="&#x220f;" horiz-adv-x="691" 
d="M88 673h516v-797h-105v702h-306v-702h-105v797z" />
    <glyph glyph-name="radical" unicode="&#x221a;" horiz-adv-x="720" 
d="M726 750l-486 -883h-87v332h-135v90h224v-240l379 701h105z" />
    <glyph glyph-name="summation" unicode="&#x2211;" horiz-adv-x="511" 
d="M483 -30v-94h-446v69l219 337l-219 322v69h434v-94h-300l186 -265v-62l-189 -282h315z" />
    <glyph glyph-name="lozenge" unicode="&#x25ca;" horiz-adv-x="521" 
d="M509 333l-224 -333h-49l-224 333l224 340h49zM398 333l-138 218l-137 -218l140 -213z" />
    <glyph glyph-name="uniF8FF" unicode="&#xf8ff;" horiz-adv-x="1207" 
d="M693 -74l-12 -2q42 10 72.5 28t50.5 37q1 0 3 2v1q2 2 7.5 8t11.5 13t10.5 13.5t4.5 8.5q-12 -8 -19.5 -20.5t-18.5 -21.5q5 6 6 7t1 3h-2v1l-4 -2q-22 -19 -43 -33.5t-43.5 -24t-48 -14.5t-55.5 -5q-14 0 -24.5 1t-21.5 4t-24 8.5t-32 13.5q8 -2 19.5 -7t22.5 -7
q9 -2 11 -1q-12 4 -22.5 8t-19.5 8q13 -2 25.5 -3t19.5 1q-25 1 -48.5 9t-40.5 25q6 -4 11 -6.5t11 -3.5q-22 14 -41 33q23 -19 49.5 -27t55.5 -8q25 0 50 5.5t48 14.5q-26 -2 -50.5 2.5t-62.5 15.5l23 -14q0 -1 -5.5 0t-13.5 3.5t-16.5 5.5t-13.5 6l-8 5q-1 0 -1 1
q3 2 13.5 4.5t15.5 3.5l2 -1h15q10 0 14.5 3t9.5 6l3 1q2 0 2 -1q5 -5 17 -11t29 -6q11 2 14 5.5t1 6.5q0 5 3 5q4 0 8 3t4 6q23 5 41.5 16.5t29.5 29.5q-9 -6 -13 -6q-3 0 -3 2t4.5 5.5t16.5 11.5q26 16 33.5 35.5t18.5 46.5q-8 2 -15 2h-13q-16 0 -33.5 -3t-34 -7.5
t-31 -9t-24.5 -6.5q0 -2 -2.5 -2.5t-4.5 -0.5t-3 -1h-10v1q0 1 1 3.5t6 3.5l28 10h3q0 2 2 2l4 1q2 0 4 2l3 2l7 2h2q3 1 5.5 2t5.5 3q1 0 2 0.5t3 0.5h3q2 0 3.5 0.5t3.5 0.5q4 0 10 1h1q5 0 8 1q1 1 3 0h1q1 1 2 1q1 1 3 1q0 -1 1 -1q1 1 2 1h7q2 0 3 2h5q2 0 8 2
q10 4 14 7q1 0 2.5 1t-0.5 2q-2 0 -4.5 0.5t-5.5 0.5q-2 0 -4.5 0.5t-4.5 -0.5q-5 0 -7 -1q-2 0 -2.5 -0.5t-2.5 -0.5h-3q-5 1 -8.5 3.5t-9.5 6.5q-1 0 -3 1l-4 2l-4 -1q-2 0 -3 -1l-11 -3l-14 -2h-2q-3 0 -5 1t-5 1q-2 0 -7 -2.5t-7 -2.5t-4 -1t-4 -1t-8.5 -2t-8.5 -2l-2 2
q1 3 10.5 7.5t21 9t22 7.5t13.5 3q1 0 -0.5 -1.5t-4 -3t-5 -2.5t-1.5 -2h2q3 0 10.5 2t15.5 3q13 0 18 -1h6q10 0 14 7q0 1 -3 1q-2 1 -2.5 0.5t-1.5 -0.5q-1 -1 -3 -1l-5 -1q-6 0 -8 1q-1 1 -6.5 1.5t-11.5 0.5l-1 1q0 1 2.5 1h17.5l13 3l10 1q1 1 4.5 1t4.5 -1
q4 -1 9 -0.5t5 2.5q0 1 -8 4q-1 1 -21 1q-1 0 -1 -0.5t-1 -0.5h-2q-10 0 -19.5 -1t-6.5 -2q-1 0 -1 1q0 2 9.5 4t11.5 1q-1 1 -5 1.5t-8 0.5q-38 0 -76 -9t-72 -26l-1 -1l-6 6q-16 18 -22.5 24.5t-16.5 17.5q-16 16 -35.5 28.5t-30.5 14.5q37 35 85 55t96 20q76 0 133 -36
q-20 11 -46 17.5t-53 6.5q-18 0 -34 -2t-27 -7q20 4 50 4q44 0 81.5 -13t63.5 -36q-18 10 -27 14t-28 9q30 -10 52 -29t36 -43.5t21 -52.5t7 -56q0 -44 -12 -80.5t-41 -72.5q-26 -30 -55.5 -51t-80.5 -33l4 2q-8 -2 -9 -2h-3zM82 -6q2 16 8 24q6 0 10 4q5 5 8 11
q11 5 15.5 8.5t7.5 8.5l12 23l1 1l16 1l14 5q0 1 4 5l2.5 5t-0.5 3l-7 20l-2 29q0 2 -2 2q-12 -3 -18.5 -3.5t-14.5 0.5q-19 2 -31 14t-12 32q0 13 7 23.5t15.5 18t15.5 13t8 9.5q0 3 -4 5q-10 2 -14 1.5t-9 1.5q-22 7 -25 30q0 10 4 15l26 -13q31 -8 39 -15q5 -8 5 -17
q0 -10 -8 -18t-17 -16t-17 -17t-8 -20q0 -30 31 -30q10 0 18.5 3.5t24.5 12.5q23 17 30.5 22t13.5 7q8 3 17 3t17 3q6 1 11 4t19 16q8 7 16 9.5t19 3.5q16 2 35 16.5t42 21.5l31 17q12 4 19 4q9 0 15 -3q13 -5 29 -16.5t31.5 -27t30 -32.5t23.5 -32q4 -9 6 -20q5 -41 19 -76
l10 -11l33 -36q1 0 1 -1l-2 -2q-17 -3 -35 18q-5 11 -10 16.5t-12 7.5l-1 -1q1 -2 3 -4.5t3 -4.5q6 -11 7.5 -14.5t2.5 -6.5q1 -9 18 -18l10 -5q2 -3 1 -4l-2 -1q-26 0 -43 17q-3 6 -10 6q-13 -13 -24 -14q-2 1 -3.5 1h-9.5q-14 0 -24 -5t-19 -5q-10 0 -11 6v20l5 7
q0 2 -2 2q-6 3 -7 3q0 3 3 6.5t12 12.5q3 11 10 20l-2 2q-15 -4 -24 -3q-11 -7 -23 -4q-1 1 -1 4q12 18 9 41q-1 2 -3 2q-1 0 -3 -2q-4 -25 -11 -36q-1 -1 -0.5 -1t0 -0.5t-5 -1.5t-14.5 -4q-4 -2 -4 -5l5 -12l16 -28q0 -5 -0.5 -8t-4.5 -16q1 -2 3 0q6 5 12 19v6.5t-2 3.5
l-16 31l5 3l11 -3q5 -16 14 -28q2 -2 2 -3.5v-6.5q0 -6 -2 -8q-3 -5 -5.5 -10t-6.5 -10q-3 -3 -7 -3.5t-9 -0.5h-5q-11 -6 -22 -10t-23 -7q-2 -1 -7 -1q-9 0 -13 4q-4 3 -6.5 7.5t-4.5 8.5q-2 3 -8 3q-5 0 -8 1l-12 21q0 1 2 5q10 2 17 2h4q7 0 11 -4q5 -8 9 -15t12 -11h3
q11 0 21 5q3 2 6 4.5t3 7.5q-1 8 -5.5 14t-10.5 11q-16 7 -27 20q-2 4 -3 7.5t-3 7.5q-3 3 -5 1t-1 -4t1 -5q1 -2 -1 -8q-2 -2 -8 -2q-13 0 -24 0.5t-24 -0.5q-5 0 -11.5 -1t-11.5 -1q-10 0 -15 4q-2 1 -2.5 2t-1.5 2q-2 3 -2 6.5v6.5q0 7 1 14t3 14q0 2 -4 2q-2 2 -5 -1
q-2 -11 -3.5 -21t-3.5 -20q-8 -17 -25 -26q-8 -5 -16.5 -6.5t-18.5 -2.5q-17 0 -32.5 -5t-25.5 -20q-1 -2 -2 -4.5t-1 -4.5h3q23 25 59 23q25 0 36 4.5t22 18.5l9 13q1 1 1.5 0.5l4.5 -4.5l-7 -16q-4 -8 -6.5 -12t-6.5 -6q-4 -1 -5.5 -1.5t-14.5 -8.5q-8 -3 -15 -3
q-6 0 -8 1q-11 2 -12 2h-5q-9 0 -16 -3q-4 -2 -7 -5.5t-7 -5.5q-10 -5 -13.5 -6.5t-4.5 -2t-1 0t-1 0.5q-11 2 -13 2t-4 -2l-15 -19q-4 -2 -9 -2zM660 673h83q78 0 78 -63q0 -27 -21 -50q23 -11 32.5 -25t9.5 -37q0 -29 -21.5 -49.5t-52.5 -20.5h-108v245zM495 426
q-31 0 -52 23t-21 57q0 33 21 56.5t52 23.5q28 0 48 -20v121h50v-260h-49v20q-21 -21 -49 -21zM62 673h94q31 0 52 -21t21 -52q0 -25 -16 -45t-40 -25l72 -102h-61l-52 80v59h12q14 0 24 9t10 23q0 13 -9.5 22t-23.5 9h-31v-202h-52v245zM319 422q-33 0 -57 24t-24 58t24 58
t57 24q36 0 57.5 -22.5t21.5 -59.5v-10h-109q0 -1 0.5 -1t0.5 -1q0 -13 9.5 -22t23.5 -9q10 0 18.5 5.5t12.5 13.5l39 -19q-11 -18 -30.5 -28.5t-43.5 -10.5zM939 305h-86v40h215v-40h-87v-200h-42v200zM1027 286h41v-120l54 81q10 15 15 31t5 28q0 25 -21 39q20 0 37.5 -16
t19.5 -38q2 -30 -22 -65l-76 -114q-6 -7 -13 -7h-40v181zM937 420q-35 0 -56 17t-21 46v95h48v-88q0 -28 29 -28q27 0 27 28v88h49v-95q0 -29 -20.5 -46t-55.5 -17zM1122 685h50v-258h-50v258zM1040 685h49v-258h-49v258zM759 470q29 2 31 32q0 14 -9 23t-22 9h-31v44h17
q25 0 25 27q0 11 -7 18.5t-18 7.5h-33v-161h47zM509 465q15 0 25 11.5t10 28.5q0 16 -10.5 27t-24.5 11q-15 0 -26 -11t-11 -27q0 -17 10.5 -28.5t26.5 -11.5zM350 522q0 12 -9 20.5t-22 8.5q-12 0 -20.5 -8.5t-8.5 -20.5h60zM758 87q4 2 9 0q7 8 13 12t11 12q4 7 7 13.5
t8 26.5l-1 -1q0 -1 -2.5 -7t-7.5 -6q-2 0 -4 0.5t-2 2.5q-4 -12 -13 -20t-14 -18q2 -2 2 -3q0 -2 -3 -5.5t-3 -6.5zM580 111h2q1 0 3 3l1 1v2q1 2 1 7q0 11 -10 21l-3 3l-2 4q-2 3 -6 6q-5 3 -8 -3l-1 -3v-1l-2 -4l-2 -4l-3 -3q0 -2 -0.5 -3t-0.5 -3t1 -3v-1h1q2 0 2 1l2 3
l3 2q1 2 5 4q3 0 6 -4l2 -2q1 -1 2 -1l2 -4q3 -2 3 -7l1 -7v-2q0 -1 1 -2zM394 34q-3 3 -4 7.5t-4 8.5q-1 3 -4 4t-2 3l2 2h10t10 1q5 0 5.5 -4.5t2.5 -8.5q1 -2 2.5 -4t-0.5 -4q-4 -2 -8.5 -4t-9.5 -1zM58 -3v4q4 4 4 8.5t1 9.5q1 4 7 8q3 -1 5 -3.5t4 -4.5v-2
q-2 -5 -3.5 -11.5t-3.5 -12.5zM478 198h3v1q2 8 2 14q0 9 -3 17q-2 2 -4 4.5t-5 4.5t-6 -1q-2 -3 1 -8l2 -2v-1l2 -4q3 -6 4.5 -12t3.5 -13zM84 28q-3 3 -3 5t-0.5 3.5t1.5 3.5q4 2 7.5 4.5t6.5 6.5h5q4 -4 5 -7q-3 -5 -6 -9.5t-8 -6.5q-4 -1 -8 0zM677 194q-2 2 -1 3
q3 2 6 3t6 3q8 4 26 5l-2 -1q-20 -10 -24.5 -12.5t-9.5 -1.5zM552 60q6 0 9 1q3 2 3 9v3q0 1 -2 3h-2l-16 -13q0 -1 0.5 -1.5t0.5 -1.5h7z" />
    <glyph glyph-name="bar" unicode="|" horiz-adv-x="345" 
d="M126 780h94v-901h-94v901z" />
    <glyph glyph-name="brokenbar" unicode="&#xa6;" horiz-adv-x="345" 
d="M126 780h94v-320h-94v320zM126 199h94v-320h-94v320z" />
    <glyph glyph-name="at" unicode="@" horiz-adv-x="936" 
d="M487 663q87 0 160.5 -27t127.5 -74.5t84.5 -112.5t30.5 -142q0 -60 -19 -108.5t-53 -82.5t-82 -52.5t-105 -18.5h-47v55q-22 -31 -57 -48.5t-80 -17.5q-42 0 -77.5 16t-61.5 44t-41 66.5t-15 84.5q0 45 14.5 83t41 66t62.5 43.5t79 15.5q44 0 79 -16.5t56 -47.5v55h84
v-315q63 8 99 53.5t36 123.5q0 61 -23 111.5t-65 86.5t-99.5 56t-126.5 20q-77 0 -142 -25t-111.5 -70t-72.5 -107t-26 -136t26 -135.5t73.5 -105t113.5 -67.5t146 -24h102v-82h-104q-101 -1 -183.5 29t-141 84.5t-91 129.5t-32.5 165q0 93 33.5 171t93 135t140 89t174.5 32
zM464 117q53 0 85 35t32 92t-32 91t-85 34q-54 0 -86.5 -34.5t-32.5 -90.5q0 -57 32.5 -92t86.5 -35z" />
    <glyph glyph-name="ampersand" unicode="&#x26;" horiz-adv-x="630" 
d="M613 0h-121l-61 70q-77 -81 -187 -81q-47 0 -85 13t-65 36t-42 56t-15 72q0 57 32.5 103.5t103.5 93.5q-40 46 -56 82t-16 77q0 36 12 66t34.5 51.5t53 33t68.5 11.5q36 0 66.5 -11t52.5 -30.5t34.5 -46.5t12.5 -60q0 -49 -29.5 -93.5t-94.5 -92.5l-2 -2l112 -129l82 145
h110l-126 -219zM269 600q-33 0 -52.5 -21.5t-19.5 -56.5q0 -25 12 -49t44 -61l2 1q82 63 82 119q0 30 -19 49t-49 19zM250 78q68 0 120 61l-139 158q-24 -19 -41 -35t-27.5 -31t-15 -30t-4.5 -31q0 -42 29 -67t78 -25z" />
    <glyph glyph-name="paragraph" unicode="&#xb6;" horiz-adv-x="570" 
d="M271 240q-53 0 -98 16t-77 45t-50 69t-18 88t17.5 87.5t50 68t77 44t98.5 15.5h59v-433h-59zM225 -68h65q51 0 74.5 22t23.5 70v649h104v-660q0 -87 -46 -131.5t-135 -44.5h-86v95z" />
    <glyph glyph-name="copyright" unicode="&#xa9;" horiz-adv-x="766" 
d="M392 -12q-73 0 -137 27t-111.5 74.5t-75 111t-27.5 135.5q0 73 27.5 136.5t75 110.5t111.5 74.5t138 27.5q73 0 137.5 -27.5t112.5 -74.5t75.5 -111t27.5 -136t-27.5 -135.5t-75.5 -111t-112.5 -74.5t-138.5 -27zM393 55q60 0 111.5 21.5t89 59t59 89t21.5 111.5
t-21.5 112t-59.5 89.5t-89 59t-111 21.5t-111 -21.5t-88.5 -59t-58.5 -89.5t-21 -112t21 -111.5t58.5 -89t88.5 -59t111 -21.5zM393 144q-41 0 -76 14.5t-60.5 39.5t-40 59.5t-14.5 75.5q0 40 14.5 74t40.5 59.5t60.5 40t75.5 14.5q35 0 65 -10.5t53 -30t38.5 -47
t21.5 -60.5h-79q-21 76 -100 76q-49 0 -79 -32t-30 -84q0 -53 29.5 -84.5t79.5 -31.5q79 0 100 75h79q-11 -68 -60 -108t-118 -40z" />
    <glyph glyph-name="registered" unicode="&#xae;" horiz-adv-x="478" 
d="M239 685q44 0 81.5 -16t65.5 -43.5t43.5 -65.5t15.5 -82q0 -43 -15.5 -80.5t-43.5 -65.5t-65.5 -44t-81.5 -16q-43 0 -80.5 16t-65.5 44t-44 65.5t-16 80.5t16 81t44 66t65.5 44t80.5 16zM239 322q34 0 62 11.5t48.5 32t32 49t11.5 63.5t-11.5 64t-32 49.5t-48.5 32
t-62 11.5t-62.5 -11.5t-49 -32.5t-32 -50t-11.5 -63t11.5 -62.5t32 -49.5t49 -32.5t62.5 -11.5zM329 513q0 -44 -39 -61l54 -79h-60l-48 71h-23v-71h-56v210h92q36 0 58 -19t22 -51zM213 487h31q28 0 28 25t-28 25h-31v-50z" />
    <glyph glyph-name="section" unicode="&#xa7;" horiz-adv-x="535" 
d="M506 226q0 -90 -91 -140q13 -27 13 -60q0 -32 -12.5 -58.5t-35.5 -45t-55 -29t-70 -10.5h-125v89h124q31 0 49.5 15t18.5 39q0 22 -13.5 39t-47.5 38l-118 71q-31 19 -52.5 36.5t-35 36t-19.5 39t-6 44.5q0 47 23 80t70 57q-15 30 -15 63q0 32 12.5 58.5t35.5 45t54.5 29
t70.5 10.5h125v-88h-124q-31 0 -50 -15.5t-19 -38.5q0 -22 14 -39t48 -38l118 -71q61 -38 87 -73t26 -84zM327 175q11 -7 20.5 -13.5t18.5 -14.5q37 33 37 73q0 25 -14 42.5t-52 40.5l-129 79q-19 12 -37 27q-38 -31 -38 -72q0 -13 3 -23t10.5 -19.5t20 -19t32.5 -21.5z" />
    <glyph glyph-name="trademark" unicode="&#x2122;" horiz-adv-x="632" 
d="M19 673h215v-59h-76v-205h-65v205h-74v59zM575 673v-264h-65v182l-69 -182h-47l-71 183v-183h-64v264h94l65 -180l66 180h91z" />
    <glyph glyph-name="degree" unicode="&#xb0;" horiz-adv-x="419" 
d="M210 323q-39 0 -72.5 14t-58.5 38t-39 57t-14 72q0 38 14 71t38.5 57.5t58.5 38.5t73 14t73 -14t58.5 -38t38.5 -57t14 -72t-14 -72t-38.5 -57t-58.5 -38t-73 -14zM210 402q45 0 73 28.5t28 73.5t-28 73t-73 28t-73 -28t-28 -73t28 -73.5t73 -28.5z" />
    <glyph glyph-name="estimated" unicode="&#x212e;" horiz-adv-x="853" 
d="M442 -12q-80 0 -150 27.5t-122 74.5t-82 111t-30 137q0 72 29 135t79.5 110t117.5 74.5t144 27.5q76 0 143 -27.5t117 -74.5t79 -110t29 -135v-12h-574q-13 0 -13 -12v-198q0 -7 1.5 -10t6.5 -7q49 -38 106.5 -58t120.5 -20q77 0 144 28.5t117 82.5h42
q-55 -69 -134 -106.5t-171 -37.5zM634 358q12 0 12 12v191q0 8 -1.5 11.5t-6.5 7.5q-90 72 -210 72q-60 0 -114 -17.5t-97 -52.5q-5 -4 -6.5 -7.5t-1.5 -12.5v-192q0 -12 13 -12h412z" />
    <glyph glyph-name="uni2113" unicode="&#x2113;" horiz-adv-x="414" 
d="M178 185q4 -96 101 -96h82v-89h-96q-143 0 -173 119q-36 -27 -78 -54v106q19 14 36.5 26t33.5 24v270q0 94 40.5 144t118.5 50q70 0 108.5 -41.5t38.5 -118.5q0 -42 -12 -83.5t-37.5 -83t-65.5 -84.5t-97 -89zM178 299q65 60 92.5 111t27.5 103q0 79 -54 79
q-66 0 -66 -95v-198z" />
    <glyph glyph-name="uni2116" unicode="&#x2116;" horiz-adv-x="1103" 
d="M877 323q-39 0 -72.5 14t-58.5 38t-39 57t-14 72q0 38 14 71t38.5 57t58.5 38t73 14t73 -13.5t58.5 -37.5t38.5 -57t14 -72t-14 -72t-39 -57t-58.5 -38t-72.5 -14zM501 673h104v-673h-112l-302 507v-507h-103v673h116l297 -498v498zM876 605q-44 0 -72 -28t-28 -73
q0 -44 28 -73t72 -29q45 0 73.5 28.5t28.5 73.5t-28.5 73t-73.5 28zM727 248h300v-85h-300v85z" />
    <glyph glyph-name="asciicircum" unicode="^" horiz-adv-x="480" 
d="M350 283l-110 262l-108 -262h-104l167 390h89l169 -390h-103z" />
    <glyph glyph-name="dagger" unicode="&#x2020;" horiz-adv-x="471" 
d="M182 435h-147v90h147v148h99v-148h152v-90h-152v-255h-99v255z" />
    <glyph glyph-name="daggerdbl" unicode="&#x2021;" horiz-adv-x="485" 
d="M182 228h-147v88h148v134h-148v88h147v135h99v-135h152v-88h-153v-134h153v-88h-152v-138h-99v138z" />
    <glyph glyph-name="minute" unicode="&#x2032;" horiz-adv-x="269" 
d="M105 673h117l-75 -318h-89z" />
    <glyph glyph-name="second" unicode="&#x2033;" horiz-adv-x="457" 
d="M105 673h115l-71 -318h-91zM300 673h111l-75 -318h-96z" />
    <glyph glyph-name="uni0308" unicode="&#x308;" 
d="M-103 591q-26 0 -44 18t-18 43q0 26 18 43.5t44 17.5q28 0 46 -17.5t18 -43.5t-18.5 -43.5t-45.5 -17.5zM95 591q-26 0 -44 18t-18 43q0 26 18 43.5t44 17.5q28 0 46 -17.5t18 -43.5t-18.5 -43.5t-45.5 -17.5z" />
    <glyph glyph-name="uni0307" unicode="&#x307;" 
d="M-2 591q-29 0 -47.5 18.5t-18.5 46.5t18.5 45.5t47.5 17.5q28 0 46.5 -17.5t18.5 -45.5t-18.5 -46.5t-46.5 -18.5z" />
    <glyph glyph-name="gravecomb" unicode="&#x300;" 
d="M-158 734h119l89 -174h-96z" />
    <glyph glyph-name="acutecomb" unicode="&#x301;" 
d="M36 734h117l-112 -174h-96z" />
    <glyph glyph-name="uni030B" unicode="&#x30b;" 
d="M-23 734h96l-114 -174h-90zM148 734h101l-130 -174h-84z" />
    <glyph glyph-name="uni0302" unicode="&#x302;" 
d="M66 560l-68 97l-68 -97h-93l118 174h85l119 -174h-93z" />
    <glyph glyph-name="uni030C" unicode="&#x30c;" 
d="M159 734l-118 -174h-85l-119 174h93l68 -97l68 97h93z" />
    <glyph glyph-name="uni0306" unicode="&#x306;" 
d="M-3 561q-71 0 -111.5 44t-40.5 121h81q0 -91 71 -91t71 91h82q0 -77 -41 -121t-112 -44z" />
    <glyph glyph-name="uni030A" unicode="&#x30a;" 
d="M-3 541q-25 0 -46.5 8.5t-37.5 24t-25 36.5t-9 46t9 46t25 36.5t37.5 24t46.5 8.5t47 -8.5t38 -24t25 -36.5t9 -46t-9 -46t-25 -36.5t-38 -24t-47 -8.5zM-1 605q20 0 34.5 15t14.5 36t-14.5 35.5t-34.5 14.5q-22 0 -36 -14t-14 -36t14 -36.5t36 -14.5z" />
    <glyph glyph-name="tildecomb" unicode="&#x303;" 
d="M56 565q-15 0 -30 5t-35 18q-25 15 -37 19.5t-24 4.5q-15 -1 -33 -10t-46 -26v83q31 20 49 28t38 8q15 0 29.5 -5t37.5 -18q23 -15 35 -19.5t25 -4.5q15 1 33 9.5t46 26.5v-83q-30 -20 -49 -28t-39 -8z" />
    <glyph glyph-name="uni0304" unicode="&#x304;" 
d="M-141 668h275v-79h-275v79z" />
    <glyph glyph-name="uni0312" unicode="&#x312;" 
d="M-33 734h87l-13 -174h-98z" />
    <glyph glyph-name="uni0326" unicode="&#x326;" 
d="M-54 -48h96l-22 -169h-86z" />
    <glyph glyph-name="uni0327" unicode="&#x327;" 
d="M-44 -192h-30.5t-19 0.5t-13 1t-11.5 1.5v69h60q65 0 65 59q0 20 -8 37t-26 37l48 21q35 -20 52.5 -48t17.5 -60q0 -55 -35.5 -86.5t-99.5 -31.5z" />
    <glyph glyph-name="uni0328" unicode="&#x328;" 
d="M-71 -190q-57 0 -90 23.5t-33 63.5q0 39 35.5 76.5t117.5 72.5l38 -46l-43 -27q-31 -18 -41.5 -29.5t-10.5 -28.5q0 -34 55 -34h40v-67q-20 -2 -38 -3t-30 -1z" />
    <glyph glyph-name="uni0308.aalt" 
d="M104 746q-27 0 -46.5 19t-19.5 45t19 45t47 19q29 0 48 -18.5t19 -45.5t-19.5 -45.5t-47.5 -18.5zM-109 746q-27 0 -46 19t-19 45t18.5 44.5t46.5 18.5q29 0 48 -18t19 -45t-19 -45.5t-48 -18.5z" />
    <glyph glyph-name="uni0307.aalt" 
d="M-2 741q-29 0 -50 20t-21 49t21 48.5t50 19.5q30 0 50.5 -19.5t20.5 -48.5t-20.5 -49t-50.5 -20z" />
    <glyph glyph-name="gravecomb.aalt" 
d="M-160 905h121l88 -173h-96z" />
    <glyph glyph-name="acutecomb.aalt" 
d="M35 905h123l-115 -173h-96z" />
    <glyph glyph-name="uni030B.aalt" 
d="M-24 905h96l-110 -173h-91zM148 905h105l-129 -173h-85z" />
    <glyph glyph-name="uni0302.aalt" 
d="M70 732l-73 97l-72 -97h-92l121 173h87l122 -173h-93z" />
    <glyph glyph-name="uni030C.aalt" 
d="M163 905l-122 -173h-86l-122 173h92l73 -97l72 97h93z" />
    <glyph glyph-name="uni0306.aalt" 
d="M-3 733q-39 0 -73 12.5t-58.5 35t-38.5 52.5t-14 65h82q0 -37 29.5 -63.5t72.5 -26.5t72 26.5t29 63.5h83q0 -35 -14 -65t-38.5 -52.5t-58.5 -35t-73 -12.5z" />
    <glyph glyph-name="uni030A.aalt" 
d="M-2 688q-26 0 -47.5 8.5t-37 24t-24.5 36.5t-9 46t9 46t24.5 36.5t37 24t47.5 8.5q25 0 46.5 -8.5t37.5 -24t25 -36.5t9 -46t-9 -46t-25 -36.5t-37.5 -24t-46.5 -8.5zM-1 752q20 0 34.5 14.5t14.5 36.5t-14.5 36t-34.5 14q-23 0 -36.5 -14t-13.5 -36q0 -23 14 -37t36 -14
z" />
    <glyph glyph-name="tildecomb.aalt" 
d="M72 731q-20 0 -38 5t-43 19q-26 14 -39.5 18.5t-27.5 4.5q-20 0 -41.5 -8t-47.5 -25v83q24 19 45 27t44 9q19 0 36.5 -5t45.5 -19t41 -18t25 -4q20 0 41 7.5t48 24.5v-83q-25 -19 -45.5 -27t-43.5 -9z" />
    <glyph glyph-name="uni0304.aalt" 
d="M-150 844h295v-81h-295v81z" />
    <glyph glyph-name="glyph645" 
d="M47 12v-137h-97v137h97z" />
    <glyph glyph-name="glyph646" 
d="M-121 668h237v-79h-237v79z" />
    <glyph glyph-name="glyph647" 
d="M-90 -190q-57 0 -90 23t-33 64q0 21 8 40t27.5 39.5t52 44t80.5 53.5l42 -33l-81 -73q-11 -10 -17 -16.5t-10 -12.5t-5 -11.5t-1 -12.5q0 -37 54 -37h41v-64q-23 -4 -68 -4z" />
    <glyph glyph-name="glyph648" 
d="M-31 673h111l-45 -193h-78z" />
    <glyph glyph-name="acute" unicode="&#xb4;" horiz-adv-x="263" 
d="M118 734h117l-112 -174h-96z" />
    <glyph glyph-name="breve" unicode="&#x2d8;" horiz-adv-x="360" 
d="M180 561q-71 0 -111.5 44t-40.5 121h81q0 -91 71 -91t71 91h82q0 -77 -41 -121t-112 -44z" />
    <glyph glyph-name="caron" unicode="&#x2c7;" horiz-adv-x="377" 
d="M350 734l-118 -174h-85l-119 174h93l68 -97l68 97h93z" />
    <glyph glyph-name="cedilla" unicode="&#xb8;" horiz-adv-x="264" 
d="M102 -192h-30.5t-19 0.5t-13 1t-11.5 1.5v69h60q65 0 65 59q0 20 -8 37t-26 37l48 21q35 -20 52.5 -48t17.5 -60q0 -55 -35.5 -86.5t-99.5 -31.5z" />
    <glyph glyph-name="circumflex" unicode="&#x2c6;" horiz-adv-x="377" 
d="M257 560l-68 97l-68 -97h-93l118 174h85l119 -174h-93z" />
    <glyph glyph-name="dieresis" unicode="&#xa8;" horiz-adv-x="378" 
d="M89 591q-26 0 -44 18t-18 43q0 26 18 43.5t44 17.5q28 0 46 -17.5t18 -43.5t-18.5 -43.5t-45.5 -17.5zM287 591q-26 0 -44 18t-18 43q0 26 18 43.5t44 17.5q28 0 46 -17.5t18 -43.5t-18.5 -43.5t-45.5 -17.5z" />
    <glyph glyph-name="dotaccent" unicode="&#x2d9;" horiz-adv-x="186" 
d="M93 591q-29 0 -47.5 18.5t-18.5 46.5t18.5 45.5t47.5 17.5q28 0 46.5 -17.5t18.5 -45.5t-18.5 -46.5t-46.5 -18.5z" />
    <glyph glyph-name="grave" unicode="`" horiz-adv-x="264" 
d="M28 734h119l89 -174h-96z" />
    <glyph glyph-name="hungarumlaut" unicode="&#x2dd;" horiz-adv-x="435" 
d="M136 734h96l-114 -174h-90zM307 734h101l-130 -174h-84z" />
    <glyph glyph-name="macron" unicode="&#xaf;" horiz-adv-x="330" 
d="M27 668h275v-79h-275v79z" />
    <glyph glyph-name="ogonek" unicode="&#x2db;" horiz-adv-x="246" 
d="M150 -190q-57 0 -90 23.5t-33 63.5q0 39 35.5 76.5t117.5 72.5l38 -46l-43 -27q-31 -18 -41.5 -29.5t-10.5 -28.5q0 -34 55 -34h40v-67q-20 -2 -38 -3t-30 -1z" />
    <glyph glyph-name="ring" unicode="&#x2da;" horiz-adv-x="291" 
d="M145 541q-25 0 -46.5 8.5t-37.5 24t-25 36.5t-9 46t9 46t25 36.5t37.5 24t46.5 8.5t47 -8.5t38 -24t25 -36.5t9 -46t-9 -46t-25 -36.5t-38 -24t-47 -8.5zM147 605q20 0 34.5 15t14.5 36t-14.5 35.5t-34.5 14.5q-22 0 -36 -14t-14 -36t14 -36.5t36 -14.5z" />
    <glyph glyph-name="tilde" unicode="&#x2dc;" horiz-adv-x="348" 
d="M233 565q-15 0 -30 5t-35 18q-25 15 -37 19.5t-24 4.5q-15 -1 -33 -10t-46 -26v83q31 20 49 28t38 8q15 0 29.5 -5t37.5 -18q23 -15 35 -19.5t25 -4.5q15 1 33 9.5t46 26.5v-83q-30 -20 -49 -28t-39 -8z" />
    <glyph glyph-name="tonos" unicode="&#x384;" horiz-adv-x="222" 
d="M85 734h110l-79 -174h-88z" />
    <glyph glyph-name="dieresistonos" unicode="&#x385;" horiz-adv-x="486" 
d="M225 734h107l-79 -174h-85zM89 586q-25 0 -43 17.5t-18 41.5q0 26 17.5 43t43.5 17q27 0 44.5 -17t17.5 -43q0 -25 -18 -42t-44 -17zM396 586q-25 0 -43 17t-18 42q0 26 17.5 43t43.5 17q27 0 44.5 -17t17.5 -43q0 -25 -17.5 -42t-44.5 -17z" />
    <glyph glyph-name="glyph664" 
d="M-3 561q-76 0 -118.5 43.5t-42.5 121.5h81q0 -91 80 -91q79 0 79 91h82q0 -78 -42.5 -121.5t-118.5 -43.5z" />
    <glyph glyph-name="glyph665" 
d="M-2 733q-86 0 -138.5 42.5t-52.5 122.5h82q0 -41 29.5 -65.5t79.5 -24.5q49 0 78 24.5t29 65.5h83q0 -80 -52.5 -122.5t-137.5 -42.5z" />
    </font>
</defs>
</svg>
