<?xml version="1.0" standalone="no"?>
<!DOCTYPE svg PUBLIC "-//W3C//DTD SVG 1.1//EN" "http://www.w3.org/Graphics/SVG/1.1/DTD/svg11.dtd" >
<svg xmlns="http://www.w3.org/2000/svg" xmlns:xlink="http://www.w3.org/1999/xlink" version="1.1">
<metadata>
 By Katja
Exclusively designed for Red Bull TV. Copyright (C) 2015 by Red Bull Media House GmbH. All rights reserved.
</metadata>
<defs>
<font id="Font" horiz-adv-x="580" >
  <font-face 
    font-family="Font"
    font-weight="700"
    font-stretch="normal"
    units-per-em="1000"
    panose-1="2 11 8 4 4 0 0 0 0 0"
    ascent="800"
    descent="-200"
    x-height="496"
    cap-height="673"
    bbox="-238 -218 1253 975"
    underline-thickness="100"
    underline-position="-110"
    unicode-range="U+0020-FB02"
  />
<missing-glyph horiz-adv-x="721" 
d="M643 673v-673h-565v673h565zM547 586h-377l377 -506v506z" />
    <glyph glyph-name="uniFB01" unicode="fi" horiz-adv-x="615" 
d="M294 558q-35 0 -51.5 -14t-16.5 -46v-3h114v-119h-114v-376h-140v376h-69v119h69v3q0 90 47.5 132.5t147.5 42.5h71v-115h-58zM481 575q-36 0 -59.5 23t-23.5 58t23.5 58t59.5 23q35 0 58.5 -23t23.5 -58t-23.5 -58t-58.5 -23zM410 496h140v-496h-140v496z" />
    <glyph glyph-name="uniFB02" unicode="fl" horiz-adv-x="615" 
d="M294 558q-35 0 -51.5 -14t-16.5 -46v-3h114v-119h-114v-376h-140v376h-69v119h69v3q0 90 47.5 132.5t147.5 42.5h71v-115h-58zM410 673h140v-673h-140v673z" />
    <glyph glyph-name=".notdef" horiz-adv-x="721" 
d="M643 673v-673h-565v673h565zM547 586h-377l377 -506v506z" />
    <glyph glyph-name="glyph1" horiz-adv-x="0" 
 />
    <glyph glyph-name="glyph2" horiz-adv-x="272" 
 />
    <glyph glyph-name="space" unicode=" " horiz-adv-x="272" 
 />
    <glyph glyph-name="A" unicode="A" horiz-adv-x="680" 
d="M468 141h-253l-49 -141h-150l249 673h152l248 -673h-150zM251 250h181l-91 282z" />
    <glyph glyph-name="Aacute" unicode="&#xc1;" horiz-adv-x="680" 
d="M468 141h-253l-49 -141h-150l249 673h152l248 -673h-150zM251 250h181l-91 282zM357 910h164l-120 -180h-123z" />
    <glyph glyph-name="Abreve" unicode="&#x102;" horiz-adv-x="680" 
d="M468 141h-253l-49 -141h-150l249 673h152l248 -673h-150zM251 250h181l-91 282zM340 728q-44 0 -80.5 13t-62.5 36.5t-40.5 56t-14.5 71.5h105q0 -35 26.5 -58t67.5 -23q39 0 65.5 23t26.5 58h106q0 -39 -14.5 -71.5t-41 -56t-63 -36.5t-80.5 -13z" />
    <glyph glyph-name="Acircumflex" unicode="&#xc2;" horiz-adv-x="680" 
d="M468 141h-253l-49 -141h-150l249 673h152l248 -673h-150zM251 250h181l-91 282zM410 730l-70 89l-70 -89h-117l130 180h115l130 -180h-118z" />
    <glyph glyph-name="Adieresis" unicode="&#xc4;" horiz-adv-x="680" 
d="M468 141h-253l-49 -141h-150l249 673h152l248 -673h-150zM251 250h181l-91 282zM226 735q-34 0 -57.5 23t-23.5 55q0 33 23 56t58 23q36 0 59 -22t23 -57q0 -32 -23.5 -55t-58.5 -23zM454 735q-34 0 -58 23.5t-24 54.5q0 33 23.5 56t58.5 23t58.5 -22t23.5 -57
q0 -16 -6.5 -30.5t-17.5 -25t-26 -16.5t-32 -6z" />
    <glyph glyph-name="Agrave" unicode="&#xc0;" horiz-adv-x="680" 
d="M468 141h-253l-49 -141h-150l249 673h152l248 -673h-150zM251 250h181l-91 282zM165 910h160l78 -180h-123z" />
    <glyph glyph-name="Amacron" unicode="&#x100;" horiz-adv-x="680" 
d="M468 141h-253l-49 -141h-150l249 673h152l248 -673h-150zM251 250h181l-91 282zM181 861h317v-106h-317v106z" />
    <glyph glyph-name="Aogonek" unicode="&#x104;" horiz-adv-x="680" 
d="M468 141h-253l-49 -141h-150l249 673h152l248 -673h-150zM251 250h181l-91 282zM589 -191q-62 0 -97 25.5t-35 69.5q0 42 38.5 80.5t118.5 68.5l52 -53l-37 -22q-26 -15 -35 -25t-9 -24q0 -31 46 -31h35v-84q-23 -2 -42.5 -3.5t-34.5 -1.5z" />
    <glyph glyph-name="Aring" unicode="&#xc5;" horiz-adv-x="680" 
d="M468 141h-253l-49 -141h-150l249 673h152l248 -673h-150zM251 250h181l-91 282zM339 728q-28 0 -51.5 9t-40.5 25.5t-26.5 39.5t-9.5 50t9.5 49.5t26.5 39t40.5 25.5t51.5 9t51.5 -9t40.5 -25.5t27 -39t10 -49.5t-10 -50t-27 -39.5t-40.5 -25.5t-51.5 -9zM341 806
q20 0 32.5 13t12.5 33t-12.5 33t-32.5 13t-33 -13t-13 -33t13 -33t33 -13z" />
    <glyph glyph-name="Atilde" unicode="&#xc3;" horiz-adv-x="680" 
d="M468 141h-253l-49 -141h-150l249 673h152l248 -673h-150zM251 250h181l-91 282zM420 724q-21 0 -41 5t-48 19q-26 13 -41 17t-29 4q-23 0 -46 -7.5t-52 -25.5v105q28 20 50 28.5t48 8.5q20 0 40 -5t49 -18t42.5 -17t27.5 -4q23 0 46 7.5t52 25.5v-105q-28 -20 -50 -28.5
t-48 -9.5z" />
    <glyph glyph-name="AE" unicode="&#xc6;" horiz-adv-x="856" 
d="M816 122v-122h-338l-23 130h-245l-60 -130h-147l308 673h493v-122h-286l25 -147h253v-116h-234l28 -166h226zM257 242h180l-50 316z" />
    <glyph glyph-name="B" unicode="B" horiz-adv-x="635" 
d="M501 352q49 -22 74.5 -63.5t25.5 -102.5q0 -87 -61 -136.5t-167 -49.5h-293v673h268q105 0 163.5 -46.5t58.5 -129.5q0 -99 -69 -145zM361 118q50 0 76.5 23t26.5 65q0 41 -27.5 63t-78.5 22h-143v-173h146zM215 555v-152h129q44 0 67.5 19.5t23.5 56.5q0 76 -89 76h-131
z" />
    <glyph glyph-name="C" unicode="C" horiz-adv-x="779" 
d="M396 -12q-78 0 -143.5 26t-113 72.5t-74 110.5t-26.5 140q0 75 27 138.5t74.5 110t113 73t142.5 26.5q69 0 129 -20t105.5 -56.5t74 -87.5t36.5 -113h-150q-17 67 -69.5 106.5t-125.5 39.5q-45 0 -83 -16.5t-65.5 -45.5t-43.5 -68.5t-16 -86.5t15.5 -87t43.5 -69
t66 -45.5t83 -16.5q73 0 125.5 39.5t69.5 106.5h150q-8 -62 -37 -113t-74 -87.5t-105 -56.5t-129 -20z" />
    <glyph glyph-name="Cacute" unicode="&#x106;" horiz-adv-x="779" 
d="M396 -12q-78 0 -143.5 26t-113 72.5t-74 110.5t-26.5 140q0 75 27 138.5t74.5 110t113 73t142.5 26.5q69 0 129 -20t105.5 -56.5t74 -87.5t36.5 -113h-150q-17 67 -69.5 106.5t-125.5 39.5q-45 0 -83 -16.5t-65.5 -45.5t-43.5 -68.5t-16 -86.5t15.5 -87t43.5 -69
t66 -45.5t83 -16.5q73 0 125.5 39.5t69.5 106.5h150q-8 -62 -37 -113t-74 -87.5t-105 -56.5t-129 -20zM414 910h164l-120 -180h-123z" />
    <glyph glyph-name="Ccaron" unicode="&#x10c;" horiz-adv-x="779" 
d="M396 -12q-78 0 -143.5 26t-113 72.5t-74 110.5t-26.5 140q0 75 27 138.5t74.5 110t113 73t142.5 26.5q69 0 129 -20t105.5 -56.5t74 -87.5t36.5 -113h-150q-17 67 -69.5 106.5t-125.5 39.5q-45 0 -83 -16.5t-65.5 -45.5t-43.5 -68.5t-16 -86.5t15.5 -87t43.5 -69
t66 -45.5t83 -16.5q73 0 125.5 39.5t69.5 106.5h150q-8 -62 -37 -113t-74 -87.5t-105 -56.5t-129 -20zM584 910l-130 -180h-115l-130 180h118l70 -89l70 89h117z" />
    <glyph glyph-name="Ccedilla" unicode="&#xc7;" horiz-adv-x="779" 
d="M396 -12q-78 0 -143.5 26t-113 72.5t-74 110.5t-26.5 140q0 75 27 138.5t74.5 110t113 73t142.5 26.5q69 0 129 -20t105.5 -56.5t74 -87.5t36.5 -113h-150q-17 67 -69.5 106.5t-125.5 39.5q-45 0 -83 -16.5t-65.5 -45.5t-43.5 -68.5t-16 -86.5t15.5 -87t43.5 -69
t66 -45.5t83 -16.5q73 0 125.5 39.5t69.5 106.5h150q-8 -62 -37 -113t-74 -87.5t-105 -56.5t-129 -20zM355 -193h-28t-19.5 0.5t-16 1.5t-16.5 2v87h60q28 0 43.5 13.5t15.5 39.5q0 18 -6.5 33.5t-21.5 35.5l62 23q35 -20 53.5 -49t18.5 -61q0 -60 -37.5 -93t-107.5 -33z
" />
    <glyph glyph-name="D" unicode="D" horiz-adv-x="731" 
d="M78 673h245q83 0 151 -24.5t117 -68.5t75.5 -105.5t26.5 -136.5q0 -74 -27.5 -136t-76.5 -107t-117 -70t-149 -25h-245v673zM323 129q51 0 92 15t70 42.5t44.5 66t15.5 85.5t-15.5 85t-44.5 65t-70 41.5t-92 14.5h-102v-415h102z" />
    <glyph glyph-name="Eth" unicode="&#xd0;" horiz-adv-x="753" 
d="M345 673q82 0 150.5 -24t117 -68.5t75.5 -106t27 -136.5q0 -74 -27.5 -136t-76.5 -107t-117 -70t-149 -25h-245v290h-84v111h84v272h245zM344 129q51 0 92 15t70 42.5t44.5 66t15.5 85.5t-15.5 85t-44.5 65t-70 41.5t-92 14.5h-102v-143h118v-111h-118v-161h102z" />
    <glyph glyph-name="Dcaron" unicode="&#x10e;" horiz-adv-x="731" 
d="M78 673h245q83 0 151 -24.5t117 -68.5t75.5 -105.5t26.5 -136.5q0 -74 -27.5 -136t-76.5 -107t-117 -70t-149 -25h-245v673zM323 129q51 0 92 15t70 42.5t44.5 66t15.5 85.5t-15.5 85t-44.5 65t-70 41.5t-92 14.5h-102v-415h102zM490 910l-130 -180h-115l-130 180h118
l70 -89l70 89h117z" />
    <glyph glyph-name="Dcroat" unicode="&#x110;" horiz-adv-x="753" 
d="M345 673q82 0 150.5 -24t117 -68.5t75.5 -106t27 -136.5q0 -74 -27.5 -136t-76.5 -107t-117 -70t-149 -25h-245v290h-84v111h84v272h245zM344 129q51 0 92 15t70 42.5t44.5 66t15.5 85.5t-15.5 85t-44.5 65t-70 41.5t-92 14.5h-102v-143h118v-111h-118v-161h102z" />
    <glyph glyph-name="E" unicode="E" horiz-adv-x="538" 
d="M78 673h407v-122h-264v-147h254v-116h-254v-166h275v-122h-418v673z" />
    <glyph glyph-name="Eacute" unicode="&#xc9;" horiz-adv-x="538" 
d="M78 673h407v-122h-264v-147h254v-116h-254v-166h275v-122h-418v673zM306 910h164l-120 -180h-123z" />
    <glyph glyph-name="Ecaron" unicode="&#x11a;" horiz-adv-x="538" 
d="M78 673h407v-122h-264v-147h254v-116h-254v-166h275v-122h-418v673zM476 910l-130 -180h-115l-130 180h118l70 -89l70 89h117z" />
    <glyph glyph-name="Ecircumflex" unicode="&#xca;" horiz-adv-x="538" 
d="M78 673h407v-122h-264v-147h254v-116h-254v-166h275v-122h-418v673zM359 730l-70 89l-70 -89h-117l130 180h115l130 -180h-118z" />
    <glyph glyph-name="Edieresis" unicode="&#xcb;" horiz-adv-x="538" 
d="M78 673h407v-122h-264v-147h254v-116h-254v-166h275v-122h-418v673zM175 735q-34 0 -57.5 23t-23.5 55q0 33 23 56t58 23q36 0 59 -22t23 -57q0 -32 -23.5 -55t-58.5 -23zM403 735q-34 0 -58 23.5t-24 54.5q0 33 23.5 56t58.5 23t58.5 -22t23.5 -57q0 -16 -6.5 -30.5
t-17.5 -25t-26 -16.5t-32 -6z" />
    <glyph glyph-name="Edotaccent" unicode="&#x116;" horiz-adv-x="538" 
d="M78 673h407v-122h-264v-147h254v-116h-254v-166h275v-122h-418v673zM289 728q-19 0 -35 6.5t-28 18t-19 27t-7 33.5q0 37 25.5 62t63.5 25t63.5 -25t25.5 -62q0 -18 -7 -33.5t-19 -27t-28 -18t-35 -6.5z" />
    <glyph glyph-name="Egrave" unicode="&#xc8;" horiz-adv-x="538" 
d="M78 673h407v-122h-264v-147h254v-116h-254v-166h275v-122h-418v673zM114 910h160l78 -180h-123z" />
    <glyph glyph-name="Emacron" unicode="&#x112;" horiz-adv-x="538" 
d="M78 673h407v-122h-264v-147h254v-116h-254v-166h275v-122h-418v673zM130 861h317v-106h-317v106z" />
    <glyph glyph-name="Eogonek" unicode="&#x118;" horiz-adv-x="538" 
d="M78 673h407v-122h-264v-147h254v-116h-254v-166h275v-122h-418v673zM420 -191q-62 0 -97 25.5t-35 69.5q0 42 38.5 80.5t118.5 68.5l52 -53l-37 -22q-26 -15 -35 -25t-9 -24q0 -31 46 -31h35v-84q-23 -2 -42.5 -3.5t-34.5 -1.5z" />
    <glyph glyph-name="F" unicode="F" horiz-adv-x="513" 
d="M78 673h404v-129h-261v-159h252v-124h-252v-261h-143v673z" />
    <glyph glyph-name="G" unicode="G" horiz-adv-x="783" 
d="M725 363v-205q-50 -82 -132.5 -126t-187.5 -44q-80 0 -147 26t-115.5 72.5t-75.5 111t-27 141.5q0 76 26.5 139.5t74 109.5t113.5 71.5t145 25.5q61 0 114.5 -16t95 -45t70 -71.5t41.5 -94.5h-156q-21 48 -63.5 73.5t-101.5 25.5q-48 0 -87.5 -16t-68 -45t-44 -69.5
t-15.5 -89.5q0 -50 16.5 -91t46 -70.5t71 -46t91.5 -16.5q54 0 98.5 19.5t76.5 57.5v60h-179v113h320z" />
    <glyph glyph-name="Gbreve" unicode="&#x11e;" horiz-adv-x="783" 
d="M725 363v-205q-50 -82 -132.5 -126t-187.5 -44q-80 0 -147 26t-115.5 72.5t-75.5 111t-27 141.5q0 76 26.5 139.5t74 109.5t113.5 71.5t145 25.5q61 0 114.5 -16t95 -45t70 -71.5t41.5 -94.5h-156q-21 48 -63.5 73.5t-101.5 25.5q-48 0 -87.5 -16t-68 -45t-44 -69.5
t-15.5 -89.5q0 -50 16.5 -91t46 -70.5t71 -46t91.5 -16.5q54 0 98.5 19.5t76.5 57.5v60h-179v113h320zM396 728q-44 0 -80.5 13t-62.5 36.5t-40.5 56t-14.5 71.5h105q0 -35 26.5 -58t67.5 -23q39 0 65.5 23t26.5 58h106q0 -39 -14.5 -71.5t-41 -56t-63 -36.5t-80.5 -13z" />
    <glyph glyph-name="uni0122" unicode="&#x122;" horiz-adv-x="783" 
d="M725 363v-205q-50 -82 -132.5 -126t-187.5 -44q-80 0 -147 26t-115.5 72.5t-75.5 111t-27 141.5q0 76 26.5 139.5t74 109.5t113.5 71.5t145 25.5q61 0 114.5 -16t95 -45t70 -71.5t41.5 -94.5h-156q-21 48 -63.5 73.5t-101.5 25.5q-48 0 -87.5 -16t-68 -45t-44 -69.5
t-15.5 -89.5q0 -50 16.5 -91t46 -70.5t71 -46t91.5 -16.5q54 0 98.5 19.5t76.5 57.5v60h-179v113h320zM328 -46h127l-24 -172h-111z" />
    <glyph glyph-name="H" unicode="H" horiz-adv-x="696" 
d="M78 673h142v-256h256v256h142v-673h-142v288h-256v-288h-142v673z" />
    <glyph glyph-name="I" unicode="I" horiz-adv-x="299" 
d="M78 673h143v-673h-143v673z" />
    <glyph glyph-name="Iacute" unicode="&#xcd;" horiz-adv-x="299" 
d="M78 673h143v-673h-143v673zM166 910h164l-120 -180h-123z" />
    <glyph glyph-name="Icircumflex" unicode="&#xce;" horiz-adv-x="299" 
d="M78 673h143v-673h-143v673zM219 730l-70 89l-70 -89h-117l130 180h115l130 -180h-118z" />
    <glyph glyph-name="Idieresis" unicode="&#xcf;" horiz-adv-x="299" 
d="M78 673h143v-673h-143v673zM35 735q-34 0 -57.5 23t-23.5 55q0 33 23 56t58 23q36 0 59 -22t23 -57q0 -32 -23.5 -55t-58.5 -23zM263 735q-34 0 -58 23.5t-24 54.5q0 33 23.5 56t58.5 23t58.5 -22t23.5 -57q0 -16 -6.5 -30.5t-17.5 -25t-26 -16.5t-32 -6z" />
    <glyph glyph-name="Idotaccent" unicode="&#x130;" horiz-adv-x="299" 
d="M78 673h143v-673h-143v673zM149 728q-19 0 -35 6.5t-28 18t-19 27t-7 33.5q0 37 25.5 62t63.5 25t63.5 -25t25.5 -62q0 -18 -7 -33.5t-19 -27t-28 -18t-35 -6.5z" />
    <glyph glyph-name="Igrave" unicode="&#xcc;" horiz-adv-x="299" 
d="M78 673h143v-673h-143v673zM-26 910h160l78 -180h-123z" />
    <glyph glyph-name="Imacron" unicode="&#x12a;" horiz-adv-x="299" 
d="M78 673h143v-673h-143v673zM-10 861h317v-106h-317v106z" />
    <glyph glyph-name="Iogonek" unicode="&#x12e;" horiz-adv-x="299" 
d="M78 673h143v-673h-143v673zM144 -191q-62 0 -97 25.5t-35 69.5q0 42 38.5 80.5t118.5 68.5l52 -53l-37 -22q-26 -15 -35 -25t-9 -24q0 -31 46 -31h35v-84q-23 -2 -42.5 -3.5t-34.5 -1.5z" />
    <glyph glyph-name="J" unicode="J" horiz-adv-x="379" 
d="M10 129h61q45 0 66 18t21 56v470h142v-488q0 -185 -202 -185h-88v129z" />
    <glyph glyph-name="K" unicode="K" horiz-adv-x="625" 
d="M458 0l-237 312v-312h-143v673h143v-283l225 283h164l-252 -318l270 -355h-170z" />
    <glyph glyph-name="uni0136" unicode="&#x136;" horiz-adv-x="625" 
d="M458 0l-237 312v-312h-143v673h143v-283l225 283h164l-252 -318l270 -355h-170zM266 -46h127l-24 -172h-111z" />
    <glyph glyph-name="L" unicode="L" horiz-adv-x="486" 
d="M78 673h143v-544h245v-129h-388v673z" />
    <glyph glyph-name="Lacute" unicode="&#x139;" horiz-adv-x="486" 
d="M78 673h143v-544h245v-129h-388v673zM169 910h164l-120 -180h-123z" />
    <glyph glyph-name="Lcaron" unicode="&#x13d;" horiz-adv-x="486" 
d="M78 673h143v-544h245v-129h-388v673zM325 673h144l-50 -193h-102z" />
    <glyph glyph-name="uni013B" unicode="&#x13b;" horiz-adv-x="486" 
d="M78 673h143v-544h245v-129h-388v673zM220 -46h127l-24 -172h-111z" />
    <glyph glyph-name="Ldot" unicode="&#x13f;" horiz-adv-x="528" 
d="M78 673h143v-544h245v-129h-388v673zM410 325q-37 0 -62 24t-25 61t25 61.5t62 24.5q38 0 63 -24.5t25 -61.5t-25 -61t-63 -24z" />
    <glyph glyph-name="Lslash" unicode="&#x141;" horiz-adv-x="499" 
d="M91 239l-75 -33v132l75 33v302h143v-246l184 84v-133l-184 -83v-166h245v-129h-388v239z" />
    <glyph glyph-name="M" unicode="M" horiz-adv-x="864" 
d="M786 673v-673h-136v469l-161 -469h-115l-160 469v-469h-135l-1 673h189l165 -494l163 494h191z" />
    <glyph glyph-name="N" unicode="N" horiz-adv-x="697" 
d="M619 673v-673h-149l-255 451v-451h-137v673h152l251 -444v444h138z" />
    <glyph glyph-name="Nacute" unicode="&#x143;" horiz-adv-x="697" 
d="M619 673v-673h-149l-255 451v-451h-137v673h152l251 -444v444h138zM366 910h164l-120 -180h-123z" />
    <glyph glyph-name="Ncaron" unicode="&#x147;" horiz-adv-x="697" 
d="M619 673v-673h-149l-255 451v-451h-137v673h152l251 -444v444h138zM536 910l-130 -180h-115l-130 180h118l70 -89l70 89h117z" />
    <glyph glyph-name="uni0145" unicode="&#x145;" horiz-adv-x="697" 
d="M619 673v-673h-149l-255 451v-451h-137v673h152l251 -444v444h138zM281 -46h127l-24 -172h-111z" />
    <glyph glyph-name="Ntilde" unicode="&#xd1;" horiz-adv-x="697" 
d="M619 673v-673h-149l-255 451v-451h-137v673h152l251 -444v444h138zM429 724q-21 0 -41 5t-48 19q-26 13 -41 17t-29 4q-23 0 -46 -7.5t-52 -25.5v105q28 20 50 28.5t48 8.5q20 0 40 -5t49 -18t42.5 -17t27.5 -4q23 0 46 7.5t52 25.5v-105q-28 -20 -50 -28.5t-48 -9.5z
" />
    <glyph glyph-name="O" unicode="O" horiz-adv-x="797" 
d="M399 -12q-78 0 -144 26.5t-114 73t-75 110.5t-27 139t27 139t75 110.5t114 72.5t144 26t144 -26.5t114 -73t75 -110t27 -138.5t-27 -139t-75 -110.5t-114 -73t-144 -26.5zM398 119q46 0 84.5 16.5t66.5 45.5t44 69t16 88q0 46 -16 86t-44 68.5t-66.5 45t-84.5 16.5
q-45 0 -84 -16.5t-67 -45t-44 -68.5t-16 -86q0 -48 16 -88t44 -69t66.5 -45.5t84.5 -16.5z" />
    <glyph glyph-name="Oacute" unicode="&#xd3;" horiz-adv-x="797" 
d="M399 -12q-78 0 -144 26.5t-114 73t-75 110.5t-27 139t27 139t75 110.5t114 72.5t144 26t144 -26.5t114 -73t75 -110t27 -138.5t-27 -139t-75 -110.5t-114 -73t-144 -26.5zM398 119q46 0 84.5 16.5t66.5 45.5t44 69t16 88q0 46 -16 86t-44 68.5t-66.5 45t-84.5 16.5
q-45 0 -84 -16.5t-67 -45t-44 -68.5t-16 -86q0 -48 16 -88t44 -69t66.5 -45.5t84.5 -16.5zM416 910h164l-120 -180h-123z" />
    <glyph glyph-name="Ocircumflex" unicode="&#xd4;" horiz-adv-x="797" 
d="M399 -12q-78 0 -144 26.5t-114 73t-75 110.5t-27 139t27 139t75 110.5t114 72.5t144 26t144 -26.5t114 -73t75 -110t27 -138.5t-27 -139t-75 -110.5t-114 -73t-144 -26.5zM398 119q46 0 84.5 16.5t66.5 45.5t44 69t16 88q0 46 -16 86t-44 68.5t-66.5 45t-84.5 16.5
q-45 0 -84 -16.5t-67 -45t-44 -68.5t-16 -86q0 -48 16 -88t44 -69t66.5 -45.5t84.5 -16.5zM469 730l-70 89l-70 -89h-117l130 180h115l130 -180h-118z" />
    <glyph glyph-name="Odieresis" unicode="&#xd6;" horiz-adv-x="797" 
d="M399 -12q-78 0 -144 26.5t-114 73t-75 110.5t-27 139t27 139t75 110.5t114 72.5t144 26t144 -26.5t114 -73t75 -110t27 -138.5t-27 -139t-75 -110.5t-114 -73t-144 -26.5zM398 119q46 0 84.5 16.5t66.5 45.5t44 69t16 88q0 46 -16 86t-44 68.5t-66.5 45t-84.5 16.5
q-45 0 -84 -16.5t-67 -45t-44 -68.5t-16 -86q0 -48 16 -88t44 -69t66.5 -45.5t84.5 -16.5zM285 735q-34 0 -57.5 23t-23.5 55q0 33 23 56t58 23q36 0 59 -22t23 -57q0 -32 -23.5 -55t-58.5 -23zM513 735q-34 0 -58 23.5t-24 54.5q0 33 23.5 56t58.5 23t58.5 -22t23.5 -57
q0 -16 -6.5 -30.5t-17.5 -25t-26 -16.5t-32 -6z" />
    <glyph glyph-name="Ograve" unicode="&#xd2;" horiz-adv-x="797" 
d="M399 -12q-78 0 -144 26.5t-114 73t-75 110.5t-27 139t27 139t75 110.5t114 72.5t144 26t144 -26.5t114 -73t75 -110t27 -138.5t-27 -139t-75 -110.5t-114 -73t-144 -26.5zM398 119q46 0 84.5 16.5t66.5 45.5t44 69t16 88q0 46 -16 86t-44 68.5t-66.5 45t-84.5 16.5
q-45 0 -84 -16.5t-67 -45t-44 -68.5t-16 -86q0 -48 16 -88t44 -69t66.5 -45.5t84.5 -16.5zM224 910h160l78 -180h-123z" />
    <glyph glyph-name="Ohungarumlaut" unicode="&#x150;" horiz-adv-x="797" 
d="M399 -12q-78 0 -144 26.5t-114 73t-75 110.5t-27 139t27 139t75 110.5t114 72.5t144 26t144 -26.5t114 -73t75 -110t27 -138.5t-27 -139t-75 -110.5t-114 -73t-144 -26.5zM398 119q46 0 84.5 16.5t66.5 45.5t44 69t16 88q0 46 -16 86t-44 68.5t-66.5 45t-84.5 16.5
q-45 0 -84 -16.5t-67 -45t-44 -68.5t-16 -86q0 -48 16 -88t44 -69t66.5 -45.5t84.5 -16.5zM348 910h122l-98 -180h-114zM539 910h136l-128 -180h-105z" />
    <glyph glyph-name="Omacron" unicode="&#x14c;" horiz-adv-x="797" 
d="M399 -12q-78 0 -144 26.5t-114 73t-75 110.5t-27 139t27 139t75 110.5t114 72.5t144 26t144 -26.5t114 -73t75 -110t27 -138.5t-27 -139t-75 -110.5t-114 -73t-144 -26.5zM398 119q46 0 84.5 16.5t66.5 45.5t44 69t16 88q0 46 -16 86t-44 68.5t-66.5 45t-84.5 16.5
q-45 0 -84 -16.5t-67 -45t-44 -68.5t-16 -86q0 -48 16 -88t44 -69t66.5 -45.5t84.5 -16.5zM240 861h317v-106h-317v106z" />
    <glyph glyph-name="Oslash" unicode="&#xd8;" horiz-adv-x="817" 
d="M682 567q41 -45 63 -103.5t22 -126.5q0 -75 -27 -139t-75 -110.5t-114 -73t-144 -26.5q-49 0 -93.5 10.5t-83.5 30.5l-52 -61h-157l112 136q-41 45 -63.5 104.5t-22.5 128.5q0 75 27 139t75 110.5t114 72.5t144 26q99 0 180 -43l52 63h157zM407 554q-45 0 -84 -16.5
t-67 -45t-44 -68.5t-16 -86q0 -70 33 -123l270 319q-43 20 -92 20zM407 119q46 0 84.5 16.5t66.5 45.5t44 69t16 88q0 34 -8.5 63.5t-23.5 55.5l-268 -320q40 -18 89 -18z" />
    <glyph glyph-name="Otilde" unicode="&#xd5;" horiz-adv-x="797" 
d="M399 -12q-78 0 -144 26.5t-114 73t-75 110.5t-27 139t27 139t75 110.5t114 72.5t144 26t144 -26.5t114 -73t75 -110t27 -138.5t-27 -139t-75 -110.5t-114 -73t-144 -26.5zM398 119q46 0 84.5 16.5t66.5 45.5t44 69t16 88q0 46 -16 86t-44 68.5t-66.5 45t-84.5 16.5
q-45 0 -84 -16.5t-67 -45t-44 -68.5t-16 -86q0 -48 16 -88t44 -69t66.5 -45.5t84.5 -16.5zM479 724q-21 0 -41 5t-48 19q-26 13 -41 17t-29 4q-23 0 -46 -7.5t-52 -25.5v105q28 20 50 28.5t48 8.5q20 0 40 -5t49 -18t42.5 -17t27.5 -4q23 0 46 7.5t52 25.5v-105
q-28 -20 -50 -28.5t-48 -9.5z" />
    <glyph glyph-name="OE" unicode="&#x152;" horiz-adv-x="1061" 
d="M1019 122v-122h-409v69q-39 -38 -95.5 -59.5t-120.5 -21.5q-77 0 -142 26.5t-112 73t-74 110.5t-27 139t27 138.5t74.5 110t112.5 73t142 26.5q63 0 119 -21.5t96 -59.5v69h398v-122h-262v-147h252v-116h-252v-166h273zM399 120q46 0 84.5 16.5t66.5 45t44 68t16 86.5
t-16 86.5t-44 68.5t-66.5 45.5t-84.5 16.5t-85 -16t-67 -45t-43.5 -69t-15.5 -87t16 -86.5t44 -68.5t66.5 -45t84.5 -16z" />
    <glyph glyph-name="P" unicode="P" horiz-adv-x="575" 
d="M78 673h234q55 0 98.5 -15t74.5 -42.5t47.5 -67.5t16.5 -90q0 -100 -63 -157t-174 -57h-91v-244h-143v673zM307 359q47 0 73.5 26t26.5 72q0 45 -26 70.5t-74 25.5h-87v-194h87z" />
    <glyph glyph-name="Thorn" unicode="&#xde;" horiz-adv-x="608" 
d="M78 673h145v-107h116q56 0 101.5 -15.5t77 -44.5t48.5 -70t17 -93q0 -51 -17 -92.5t-49 -71t-77 -45t-101 -15.5h-116v-119h-145v673zM335 247q46 0 72 25.5t26 70.5t-26 70t-72 25h-112v-191h112z" />
    <glyph glyph-name="Q" unicode="Q" horiz-adv-x="797" 
d="M784 -14v-123l-471 134q-65 18 -115.5 50t-86 75t-54 96.5t-18.5 113.5q0 75 27.5 139.5t76.5 112t114.5 74.5t142.5 27q76 0 142 -26.5t115 -73t76.5 -109.5t27.5 -136q0 -103 -53 -179t-144 -114zM400 554q-46 0 -85 -16.5t-67.5 -45t-44.5 -68.5t-16 -86
q0 -47 16 -87.5t44.5 -69.5t67.5 -45.5t85 -16.5q45 0 84 16.5t67.5 46t44.5 69.5t16 87q0 46 -16 86t-44.5 68.5t-67.5 45t-84 16.5z" />
    <glyph glyph-name="R" unicode="R" horiz-adv-x="615" 
d="M78 673h234q55 0 98.5 -15t74.5 -42.5t47.5 -67.5t16.5 -90q0 -69 -31 -118t-88 -74l165 -266h-165l-145 244h-64v-244h-143v673zM307 359q47 0 73.5 26t26.5 72q0 45 -26 70.5t-74 25.5h-87v-194h87z" />
    <glyph glyph-name="Racute" unicode="&#x154;" horiz-adv-x="615" 
d="M78 673h234q55 0 98.5 -15t74.5 -42.5t47.5 -67.5t16.5 -90q0 -69 -31 -118t-88 -74l165 -266h-165l-145 244h-64v-244h-143v673zM307 359q47 0 73.5 26t26.5 72q0 45 -26 70.5t-74 25.5h-87v-194h87zM307 910h164l-120 -180h-123z" />
    <glyph glyph-name="Rcaron" unicode="&#x158;" horiz-adv-x="615" 
d="M78 673h234q55 0 98.5 -15t74.5 -42.5t47.5 -67.5t16.5 -90q0 -69 -31 -118t-88 -74l165 -266h-165l-145 244h-64v-244h-143v673zM307 359q47 0 73.5 26t26.5 72q0 45 -26 70.5t-74 25.5h-87v-194h87zM477 910l-130 -180h-115l-130 180h118l70 -89l70 89h117z" />
    <glyph glyph-name="uni0156" unicode="&#x156;" horiz-adv-x="615" 
d="M78 673h234q55 0 98.5 -15t74.5 -42.5t47.5 -67.5t16.5 -90q0 -69 -31 -118t-88 -74l165 -266h-165l-145 244h-64v-244h-143v673zM307 359q47 0 73.5 26t26.5 72q0 45 -26 70.5t-74 25.5h-87v-194h87zM240 -46h127l-24 -172h-111z" />
    <glyph glyph-name="S" unicode="S" horiz-adv-x="556" 
d="M283 -13q-113 0 -179.5 59t-70.5 164h139q2 -51 30.5 -79.5t77.5 -28.5q47 0 74 21.5t27 57.5q0 30 -18 48t-66 37l-79 30q-85 32 -124 80t-39 120q0 42 16.5 77t47 60t72.5 38.5t93 13.5q101 0 160.5 -52.5t66.5 -149.5h-137q-2 42 -25 65t-65 23q-41 0 -65 -19t-24 -51
t19 -52.5t64 -37.5l84 -32q87 -33 124 -76.5t37 -112.5q0 -47 -17 -84.5t-48 -64t-75.5 -40.5t-99.5 -14z" />
    <glyph glyph-name="Sacute" unicode="&#x15a;" horiz-adv-x="556" 
d="M283 -13q-113 0 -179.5 59t-70.5 164h139q2 -51 30.5 -79.5t77.5 -28.5q47 0 74 21.5t27 57.5q0 30 -18 48t-66 37l-79 30q-85 32 -124 80t-39 120q0 42 16.5 77t47 60t72.5 38.5t93 13.5q101 0 160.5 -52.5t66.5 -149.5h-137q-2 42 -25 65t-65 23q-41 0 -65 -19t-24 -51
t19 -52.5t64 -37.5l84 -32q87 -33 124 -76.5t37 -112.5q0 -47 -17 -84.5t-48 -64t-75.5 -40.5t-99.5 -14zM295 910h164l-120 -180h-123z" />
    <glyph glyph-name="Scaron" unicode="&#x160;" horiz-adv-x="556" 
d="M283 -13q-113 0 -179.5 59t-70.5 164h139q2 -51 30.5 -79.5t77.5 -28.5q47 0 74 21.5t27 57.5q0 30 -18 48t-66 37l-79 30q-85 32 -124 80t-39 120q0 42 16.5 77t47 60t72.5 38.5t93 13.5q101 0 160.5 -52.5t66.5 -149.5h-137q-2 42 -25 65t-65 23q-41 0 -65 -19t-24 -51
t19 -52.5t64 -37.5l84 -32q87 -33 124 -76.5t37 -112.5q0 -47 -17 -84.5t-48 -64t-75.5 -40.5t-99.5 -14zM465 910l-130 -180h-115l-130 180h118l70 -89l70 89h117z" />
    <glyph glyph-name="Scedilla" unicode="&#x15e;" horiz-adv-x="556" 
d="M283 -13q-113 0 -179.5 59t-70.5 164h139q2 -51 30.5 -79.5t77.5 -28.5q47 0 74 21.5t27 57.5q0 30 -18 48t-66 37l-79 30q-85 32 -124 80t-39 120q0 42 16.5 77t47 60t72.5 38.5t93 13.5q101 0 160.5 -52.5t66.5 -149.5h-137q-2 42 -25 65t-65 23q-41 0 -65 -19t-24 -51
t19 -52.5t64 -37.5l84 -32q87 -33 124 -76.5t37 -112.5q0 -47 -17 -84.5t-48 -64t-75.5 -40.5t-99.5 -14zM236 -193h-28t-19.5 0.5t-16 1.5t-16.5 2v87h60q28 0 43.5 13.5t15.5 39.5q0 18 -6.5 33.5t-21.5 35.5l62 23q35 -20 53.5 -49t18.5 -61q0 -60 -37.5 -93t-107.5 -33z
" />
    <glyph glyph-name="uni0218" unicode="&#x218;" horiz-adv-x="556" 
d="M283 -13q-113 0 -179.5 59t-70.5 164h139q2 -51 30.5 -79.5t77.5 -28.5q47 0 74 21.5t27 57.5q0 30 -18 48t-66 37l-79 30q-85 32 -124 80t-39 120q0 42 16.5 77t47 60t72.5 38.5t93 13.5q101 0 160.5 -52.5t66.5 -149.5h-137q-2 42 -25 65t-65 23q-41 0 -65 -19t-24 -51
t19 -52.5t64 -37.5l84 -32q87 -33 124 -76.5t37 -112.5q0 -47 -17 -84.5t-48 -64t-75.5 -40.5t-99.5 -14zM210 -46h127l-24 -172h-111z" />
    <glyph glyph-name="T" unicode="T" horiz-adv-x="567" 
d="M208 544h-179v129h510v-129h-189v-544h-142v544z" />
    <glyph glyph-name="Tcaron" unicode="&#x164;" horiz-adv-x="567" 
d="M208 544h-179v129h510v-129h-189v-544h-142v544zM471 910l-130 -180h-115l-130 180h118l70 -89l70 89h117z" />
    <glyph glyph-name="uni0162" unicode="&#x162;" horiz-adv-x="567" 
d="M208 544h-179v129h510v-129h-189v-544h-142v544zM242 -193h-28t-19.5 0.5t-16 1.5t-16.5 2v87h60q28 0 43.5 13.5t15.5 39.5q0 18 -6.5 33.5t-21.5 35.5l62 23q35 -20 53.5 -49t18.5 -61q0 -60 -37.5 -93t-107.5 -33z" />
    <glyph glyph-name="uni021A" unicode="&#x21a;" horiz-adv-x="567" 
d="M208 544h-179v129h510v-129h-189v-544h-142v544zM216 -46h127l-24 -172h-111z" />
    <glyph glyph-name="U" unicode="U" horiz-adv-x="685" 
d="M341 -12q-61 0 -111 19.5t-85 56t-54.5 88t-19.5 114.5v407h143v-408q0 -67 33.5 -105.5t93.5 -38.5q62 0 95.5 38t33.5 106v408h143v-407q0 -64 -19 -115.5t-54.5 -87.5t-85.5 -55.5t-113 -19.5z" />
    <glyph glyph-name="Uacute" unicode="&#xda;" horiz-adv-x="685" 
d="M341 -12q-61 0 -111 19.5t-85 56t-54.5 88t-19.5 114.5v407h143v-408q0 -67 33.5 -105.5t93.5 -38.5q62 0 95.5 38t33.5 106v408h143v-407q0 -64 -19 -115.5t-54.5 -87.5t-85.5 -55.5t-113 -19.5zM360 910h164l-120 -180h-123z" />
    <glyph glyph-name="Ucircumflex" unicode="&#xdb;" horiz-adv-x="685" 
d="M341 -12q-61 0 -111 19.5t-85 56t-54.5 88t-19.5 114.5v407h143v-408q0 -67 33.5 -105.5t93.5 -38.5q62 0 95.5 38t33.5 106v408h143v-407q0 -64 -19 -115.5t-54.5 -87.5t-85.5 -55.5t-113 -19.5zM413 730l-70 89l-70 -89h-117l130 180h115l130 -180h-118z" />
    <glyph glyph-name="Udieresis" unicode="&#xdc;" horiz-adv-x="685" 
d="M341 -12q-61 0 -111 19.5t-85 56t-54.5 88t-19.5 114.5v407h143v-408q0 -67 33.5 -105.5t93.5 -38.5q62 0 95.5 38t33.5 106v408h143v-407q0 -64 -19 -115.5t-54.5 -87.5t-85.5 -55.5t-113 -19.5zM229 735q-34 0 -57.5 23t-23.5 55q0 33 23 56t58 23q36 0 59 -22t23 -57
q0 -32 -23.5 -55t-58.5 -23zM457 735q-34 0 -58 23.5t-24 54.5q0 33 23.5 56t58.5 23t58.5 -22t23.5 -57q0 -16 -6.5 -30.5t-17.5 -25t-26 -16.5t-32 -6z" />
    <glyph glyph-name="Ugrave" unicode="&#xd9;" horiz-adv-x="685" 
d="M341 -12q-61 0 -111 19.5t-85 56t-54.5 88t-19.5 114.5v407h143v-408q0 -67 33.5 -105.5t93.5 -38.5q62 0 95.5 38t33.5 106v408h143v-407q0 -64 -19 -115.5t-54.5 -87.5t-85.5 -55.5t-113 -19.5zM168 910h160l78 -180h-123z" />
    <glyph glyph-name="Uhungarumlaut" unicode="&#x170;" horiz-adv-x="685" 
d="M341 -12q-61 0 -111 19.5t-85 56t-54.5 88t-19.5 114.5v407h143v-408q0 -67 33.5 -105.5t93.5 -38.5q62 0 95.5 38t33.5 106v408h143v-407q0 -64 -19 -115.5t-54.5 -87.5t-85.5 -55.5t-113 -19.5zM292 910h122l-98 -180h-114zM483 910h136l-128 -180h-105z" />
    <glyph glyph-name="Umacron" unicode="&#x16a;" horiz-adv-x="685" 
d="M341 -12q-61 0 -111 19.5t-85 56t-54.5 88t-19.5 114.5v407h143v-408q0 -67 33.5 -105.5t93.5 -38.5q62 0 95.5 38t33.5 106v408h143v-407q0 -64 -19 -115.5t-54.5 -87.5t-85.5 -55.5t-113 -19.5zM184 861h317v-106h-317v106z" />
    <glyph glyph-name="Uogonek" unicode="&#x172;" horiz-adv-x="685" 
d="M341 -12q-61 0 -111 19.5t-85 56t-54.5 88t-19.5 114.5v407h143v-408q0 -67 33.5 -105.5t93.5 -38.5q62 0 95.5 38t33.5 106v408h143v-407q0 -64 -19 -115.5t-54.5 -87.5t-85.5 -55.5t-113 -19.5zM421 -191q-62 0 -97.5 25t-35.5 70q0 21 8 39.5t28 39t54 44.5t87 56
l59 -33l-77 -73q-19 -19 -24.5 -27.5t-5.5 -20.5q0 -16 12 -24.5t33 -8.5h35v-82q-18 -2 -36.5 -3.5t-39.5 -1.5z" />
    <glyph glyph-name="Uring" unicode="&#x16e;" horiz-adv-x="685" 
d="M341 -12q-61 0 -111 19.5t-85 56t-54.5 88t-19.5 114.5v407h143v-408q0 -67 33.5 -105.5t93.5 -38.5q62 0 95.5 38t33.5 106v408h143v-407q0 -64 -19 -115.5t-54.5 -87.5t-85.5 -55.5t-113 -19.5zM342 683q-28 0 -51.5 9t-40.5 25.5t-26.5 39.5t-9.5 50t9.5 49.5t26.5 39
t40.5 25.5t51.5 9t51.5 -9t40.5 -25.5t27 -39t10 -49.5t-10 -50t-27 -39.5t-40.5 -25.5t-51.5 -9zM344 761q20 0 32.5 13t12.5 33t-12.5 33t-32.5 13t-33 -13t-13 -33t13 -33t33 -13z" />
    <glyph glyph-name="V" unicode="V" horiz-adv-x="647" 
d="M632 673l-232 -673h-153l-231 673h154l154 -488l153 488h155z" />
    <glyph glyph-name="W" unicode="W" horiz-adv-x="993" 
d="M957 673l-188 -673h-156l-116 485l-117 -485h-155l-189 673h154l120 -486l111 486h151l112 -486l119 486h154z" />
    <glyph glyph-name="X" unicode="X" horiz-adv-x="653" 
d="M468 0l-142 241l-142 -241h-162l214 346l-202 327h161l132 -223l128 223h162l-201 -327l215 -346h-163z" />
    <glyph glyph-name="Y" unicode="Y" horiz-adv-x="624" 
d="M384 289v-289h-143v289l-224 384h164l132 -253l131 253h163z" />
    <glyph glyph-name="Yacute" unicode="&#xdd;" horiz-adv-x="624" 
d="M384 289v-289h-143v289l-224 384h164l132 -253l131 253h163zM330 910h164l-120 -180h-123z" />
    <glyph glyph-name="Ydieresis" unicode="&#x178;" horiz-adv-x="624" 
d="M384 289v-289h-143v289l-224 384h164l132 -253l131 253h163zM199 735q-34 0 -57.5 23t-23.5 55q0 33 23 56t58 23q36 0 59 -22t23 -57q0 -32 -23.5 -55t-58.5 -23zM427 735q-34 0 -58 23.5t-24 54.5q0 33 23.5 56t58.5 23t58.5 -22t23.5 -57q0 -16 -6.5 -30.5t-17.5 -25
t-26 -16.5t-32 -6z" />
    <glyph glyph-name="Z" unicode="Z" horiz-adv-x="571" 
d="M530 129v-129h-488v118l311 426h-298v129h471v-119l-315 -425h319z" />
    <glyph glyph-name="Zacute" unicode="&#x179;" horiz-adv-x="571" 
d="M530 129v-129h-488v118l311 426h-298v129h471v-119l-315 -425h319zM303 910h164l-120 -180h-123z" />
    <glyph glyph-name="Zcaron" unicode="&#x17d;" horiz-adv-x="571" 
d="M530 129v-129h-488v118l311 426h-298v129h471v-119l-315 -425h319zM473 910l-130 -180h-115l-130 180h118l70 -89l70 89h117z" />
    <glyph glyph-name="Zdotaccent" unicode="&#x17b;" horiz-adv-x="571" 
d="M530 129v-129h-488v118l311 426h-298v129h471v-119l-315 -425h319zM286 728q-19 0 -35 6.5t-28 18t-19 27t-7 33.5q0 37 25.5 62t63.5 25t63.5 -25t25.5 -62q0 -18 -7 -33.5t-19 -27t-28 -18t-35 -6.5z" />
    <glyph glyph-name="Iacute_J.locl" horiz-adv-x="678" 
d="M309 129h61q45 0 66 18t21 56v470h142v-488q0 -185 -202 -185h-88v129zM543 910h164l-120 -180h-123zM78 673h143v-673h-143v673zM166 910h164l-120 -180h-123z" />
    <glyph glyph-name="Idotaccent.aalt" horiz-adv-x="299" 
d="M78 673h143v-673h-143v673zM149 728q-19 0 -35 6.5t-28 18t-19 27t-7 33.5q0 37 25.5 62t63.5 25t63.5 -25t25.5 -62q0 -18 -7 -33.5t-19 -27t-28 -18t-35 -6.5z" />
    <glyph glyph-name="A.aalt" horiz-adv-x="434" 
d="M286 342h-138l-22 -73h-116l140 404h134l140 -404h-117zM217 581l-45 -158h91z" />
    <glyph glyph-name="C.aalt" horiz-adv-x="481" 
d="M244 261q-48 0 -88 16t-69 44t-45.5 66.5t-16.5 84.5q0 45 16.5 83.5t45.5 66.5t69 43.5t88 15.5q43 0 80.5 -13t65.5 -36t45.5 -55t20.5 -71h-116q-8 32 -34.5 51.5t-61.5 19.5q-44 0 -73 -29.5t-29 -75.5q0 -47 29 -77t73 -30q35 0 61.5 19.5t34.5 52.5h116
q-4 -39 -22 -71.5t-46 -56t-65 -36t-79 -12.5z" />
    <glyph glyph-name="D.aalt" horiz-adv-x="462" 
d="M51 673h165q49 0 90 -15t70 -41.5t45.5 -63.5t16.5 -81t-16.5 -81.5t-46 -64.5t-70.5 -42t-89 -15h-165v404zM214 367q48 0 77 28.5t29 76.5t-29 75.5t-77 27.5h-50v-208h50z" />
    <glyph glyph-name="E.aalt" horiz-adv-x="336" 
d="M52 673h253v-96h-140v-57h133v-90h-133v-65h145v-96h-258v404z" />
    <glyph glyph-name="G.aalt" horiz-adv-x="484" 
d="M249 498h197v-136q-29 -48 -82 -74.5t-117 -26.5q-49 0 -89.5 16t-70 44t-46 66.5t-16.5 84.5q0 45 16 83.5t45.5 66.5t70 43.5t88.5 15.5q40 0 75.5 -11t62 -31t43.5 -47.5t20 -60.5h-116q-8 21 -31.5 33.5t-52.5 12.5q-46 0 -75 -29.5t-29 -75.5q0 -47 29 -77t77 -30
q24 0 46 7.5t39 20.5v22h-84v83z" />
    <glyph glyph-name="H.aalt" horiz-adv-x="444" 
d="M51 673h113v-147h116v147h114v-404h-114v159h-116v-159h-113v404z" />
    <glyph glyph-name="I.aalt" horiz-adv-x="215" 
d="M51 673h113v-404h-113v404z" />
    <glyph glyph-name="J.aalt" horiz-adv-x="250" 
d="M7 367h40q40 0 40 38v268h113v-281q0 -123 -136 -123h-57v98z" />
    <glyph glyph-name="K.aalt" horiz-adv-x="413" 
d="M280 269l-116 182v-182h-113v404h113v-167l109 167h127l-132 -194l140 -210h-128z" />
    <glyph glyph-name="M.aalt" horiz-adv-x="548" 
d="M499 673v-404h-112v221l-72 -221h-80l-72 226v-226h-111v404h146l78 -244l74 244h149z" />
    <glyph glyph-name="N.aalt" horiz-adv-x="444" 
d="M394 673v-404h-114l-118 217v-217h-110v404h114l118 -219v219h110z" />
    <glyph glyph-name="P.aalt" horiz-adv-x="371" 
d="M51 673h150q72 0 113 -36.5t41 -101.5q0 -63 -41 -99t-113 -36h-37v-131h-113v404zM198 493q20 0 31.5 11t11.5 31q0 18 -11.5 29t-31.5 11h-34v-82h34z" />
    <glyph glyph-name="R.aalt" horiz-adv-x="397" 
d="M257 269l-66 131h-26v-131h-113v404h150q72 0 113 -36.5t41 -101.5q0 -75 -57 -110l86 -156h-128zM165 493h34q20 0 31.5 11t11.5 31q0 18 -11.5 29t-31.5 11h-34v-82z" />
    <glyph glyph-name="S.aalt" horiz-adv-x="353" 
d="M178 261q-74 0 -115 36t-43 102h109q2 -24 12.5 -36.5t36.5 -12.5q19 0 30.5 7.5t11.5 24.5q0 12 -7 18.5t-25 12.5l-53 17q-52 17 -77.5 50t-25.5 77q0 57 40 90.5t106 33.5q65 0 103 -33.5t43 -96.5h-109q-1 17 -9 29t-28 12q-15 0 -25.5 -7.5t-10.5 -22.5
q0 -23 30 -32l55 -18q56 -18 80 -50t24 -75q0 -60 -40.5 -93t-112.5 -33z" />
    <glyph glyph-name="T.aalt" horiz-adv-x="355" 
d="M117 571h-99v102h318v-102h-106v-302h-113v302z" />
    <glyph glyph-name="U.aalt" horiz-adv-x="437" 
d="M219 261q-39 0 -71 12t-54.5 34t-34.5 53t-12 69v244h113v-243q0 -30 15.5 -47.5t42.5 -17.5q28 0 43.5 17t15.5 48v243h113v-244q0 -78 -46.5 -123t-124.5 -45z" />
    <glyph glyph-name="Z.aalt" horiz-adv-x="355" 
d="M329 366v-97h-300v89l163 217h-159v98h294v-89l-168 -218h170z" />
    <glyph glyph-name="a" unicode="a" horiz-adv-x="541" 
d="M267 508q101 0 158.5 -53t57.5 -147v-308h-126v47q-54 -59 -152 -59q-79 0 -124.5 39.5t-45.5 109.5q0 72 49 112t139 40h126v24q0 43 -23 65.5t-65 22.5q-69 0 -78 -63h-126q5 79 60.5 124.5t149.5 45.5zM243 84q48 0 77 27t29 72v17h-100q-78 0 -78 -58t72 -58z" />
    <glyph glyph-name="aacute" unicode="&#xe1;" horiz-adv-x="541" 
d="M267 508q101 0 158.5 -53t57.5 -147v-308h-126v47q-54 -59 -152 -59q-79 0 -124.5 39.5t-45.5 109.5q0 72 49 112t139 40h126v24q0 43 -23 65.5t-65 22.5q-69 0 -78 -63h-126q5 79 60.5 124.5t149.5 45.5zM243 84q48 0 77 27t29 72v17h-100q-78 0 -78 -58t72 -58z
M285 739h156l-115 -179h-122z" />
    <glyph glyph-name="abreve" unicode="&#x103;" horiz-adv-x="541" 
d="M267 508q101 0 158.5 -53t57.5 -147v-308h-126v47q-54 -59 -152 -59q-79 0 -124.5 39.5t-45.5 109.5q0 72 49 112t139 40h126v24q0 43 -23 65.5t-65 22.5q-69 0 -78 -63h-126q5 79 60.5 124.5t149.5 45.5zM243 84q48 0 77 27t29 72v17h-100q-78 0 -78 -58t72 -58z
M268 559q-81 0 -125 46t-44 129h103q0 -39 17 -60.5t49 -21.5t48.5 21.5t16.5 60.5h103q0 -83 -44 -129t-124 -46z" />
    <glyph glyph-name="acircumflex" unicode="&#xe2;" horiz-adv-x="541" 
d="M267 508q101 0 158.5 -53t57.5 -147v-308h-126v47q-54 -59 -152 -59q-79 0 -124.5 39.5t-45.5 109.5q0 72 49 112t139 40h126v24q0 43 -23 65.5t-65 22.5q-69 0 -78 -63h-126q5 79 60.5 124.5t149.5 45.5zM243 84q48 0 77 27t29 72v17h-100q-78 0 -78 -58t72 -58z
M332 560l-64 87l-64 -87h-119l126 179h114l126 -179h-119z" />
    <glyph glyph-name="adieresis" unicode="&#xe4;" horiz-adv-x="541" 
d="M267 508q101 0 158.5 -53t57.5 -147v-308h-126v47q-54 -59 -152 -59q-79 0 -124.5 39.5t-45.5 109.5q0 72 49 112t139 40h126v24q0 43 -23 65.5t-65 22.5q-69 0 -78 -63h-126q5 79 60.5 124.5t149.5 45.5zM243 84q48 0 77 27t29 72v17h-100q-78 0 -78 -58t72 -58z
M161 575q-16 0 -30.5 6t-25 16.5t-16.5 24.5t-6 29q0 32 22.5 54t55.5 22q35 0 56.5 -21.5t21.5 -54.5q0 -32 -22.5 -54t-55.5 -22zM375 575q-16 0 -30.5 6t-25 16.5t-16.5 24.5t-6 29q0 32 22.5 54t55.5 22q35 0 56.5 -21.5t21.5 -54.5q0 -32 -22.5 -54t-55.5 -22z" />
    <glyph glyph-name="agrave" unicode="&#xe0;" horiz-adv-x="541" 
d="M267 508q101 0 158.5 -53t57.5 -147v-308h-126v47q-54 -59 -152 -59q-79 0 -124.5 39.5t-45.5 109.5q0 72 49 112t139 40h126v24q0 43 -23 65.5t-65 22.5q-69 0 -78 -63h-126q5 79 60.5 124.5t149.5 45.5zM243 84q48 0 77 27t29 72v17h-100q-78 0 -78 -58t72 -58zM94 739
h157l81 -179h-122z" />
    <glyph glyph-name="amacron" unicode="&#x101;" horiz-adv-x="541" 
d="M267 508q101 0 158.5 -53t57.5 -147v-308h-126v47q-54 -59 -152 -59q-79 0 -124.5 39.5t-45.5 109.5q0 72 49 112t139 40h126v24q0 43 -23 65.5t-65 22.5q-69 0 -78 -63h-126q5 79 60.5 124.5t149.5 45.5zM243 84q48 0 77 27t29 72v17h-100q-78 0 -78 -58t72 -58z
M120 685h296v-101h-296v101z" />
    <glyph glyph-name="aogonek" unicode="&#x105;" horiz-adv-x="541" 
d="M267 508q101 0 158.5 -53t57.5 -147v-308h-126v47q-54 -59 -152 -59q-79 0 -124.5 39.5t-45.5 109.5q0 72 49 112t139 40h126v24q0 43 -23 65.5t-65 22.5q-69 0 -78 -63h-126q5 79 60.5 124.5t149.5 45.5zM243 84q48 0 77 27t29 72v17h-100q-78 0 -78 -58t72 -58z
M405 -191q-62 0 -97 25.5t-35 69.5q0 42 38.5 80.5t118.5 68.5l52 -53l-37 -22q-26 -15 -35 -25t-9 -24q0 -31 46 -31h35v-84q-23 -2 -42.5 -3.5t-34.5 -1.5z" />
    <glyph glyph-name="aring" unicode="&#xe5;" horiz-adv-x="541" 
d="M267 508q101 0 158.5 -53t57.5 -147v-308h-126v47q-54 -59 -152 -59q-79 0 -124.5 39.5t-45.5 109.5q0 72 49 112t139 40h126v24q0 43 -23 65.5t-65 22.5q-69 0 -78 -63h-126q5 79 60.5 124.5t149.5 45.5zM243 84q48 0 77 27t29 72v17h-100q-78 0 -78 -58t72 -58z
M268 538q-28 0 -51.5 9t-40.5 25.5t-26.5 39.5t-9.5 50t9.5 49.5t26.5 39t40.5 25.5t51.5 9t51.5 -9t41 -25.5t27 -39t9.5 -49.5t-10 -50t-27 -39.5t-40.5 -25.5t-51.5 -9zM269 616q19 0 32 13t13 33t-13 33t-32 13q-20 0 -33 -13t-13 -33t13 -33t33 -13z" />
    <glyph glyph-name="atilde" unicode="&#xe3;" horiz-adv-x="541" 
d="M267 508q101 0 158.5 -53t57.5 -147v-308h-126v47q-54 -59 -152 -59q-79 0 -124.5 39.5t-45.5 109.5q0 72 49 112t139 40h126v24q0 43 -23 65.5t-65 22.5q-69 0 -78 -63h-126q5 79 60.5 124.5t149.5 45.5zM243 84q48 0 77 27t29 72v17h-100q-78 0 -78 -58t72 -58z
M331 563q-17 0 -33 5t-38 18q-25 14 -37.5 18t-24.5 4q-17 -1 -36.5 -9t-51.5 -27v105q33 21 53 29t41 8q16 0 32 -5t40 -17q23 -14 36 -18.5t26 -4.5q17 1 36.5 9t51.5 27v-105q-33 -21 -53 -29t-42 -8z" />
    <glyph glyph-name="ae" unicode="&#xe6;" horiz-adv-x="903" 
d="M616 508q60 0 109 -22.5t82.5 -62t50 -94t10.5 -118.5h-376q10 -51 44.5 -81t86.5 -30q78 0 105 56h132q-24 -80 -86.5 -124t-152.5 -44q-65 0 -117.5 24.5t-87.5 68.5q-53 -93 -189 -93q-87 0 -139.5 39.5t-52.5 105.5q0 74 49.5 115t139.5 41h119v21q0 44 -21.5 67.5
t-60.5 23.5q-69 0 -78 -63h-126q5 80 60.5 125t148.5 45q58 0 100.5 -19t67.5 -54q35 35 81 54t101 19zM616 396q-44 0 -75 -25t-44 -68h235q-8 42 -38.5 67.5t-77.5 25.5zM244 84q45 0 72 26t27 69v25h-94q-78 0 -78 -58q0 -62 73 -62z" />
    <glyph glyph-name="b" unicode="b" horiz-adv-x="631" 
d="M357 508q51 0 94 -19.5t74.5 -54.5t49.5 -83t18 -105t-17.5 -104t-49 -81.5t-75.5 -53.5t-96 -19q-53 0 -94.5 20t-67.5 56v-64h-128v673h140v-232q26 32 65 49.5t87 17.5zM326 112q57 0 92 37t35 99t-35 99t-92 37t-91.5 -37t-34.5 -100q0 -62 34.5 -98.5t91.5 -36.5z
" />
    <glyph glyph-name="c" unicode="c" horiz-adv-x="588" 
d="M302 -12q-57 0 -106 20t-84.5 54.5t-56 82t-20.5 102.5t20.5 103t56 83t84.5 55t106 20q49 0 92 -14.5t76 -41t54.5 -64t28.5 -82.5h-136q-11 36 -41.5 56.5t-72.5 20.5q-28 0 -51.5 -10t-40.5 -28t-26.5 -43t-9.5 -55q0 -60 35.5 -97t92.5 -37q42 0 72.5 20.5t41.5 56.5
h136q-7 -45 -28.5 -82.5t-54.5 -64t-76 -41t-92 -14.5z" />
    <glyph glyph-name="cacute" unicode="&#x107;" horiz-adv-x="588" 
d="M302 -12q-57 0 -106 20t-84.5 54.5t-56 82t-20.5 102.5t20.5 103t56 83t84.5 55t106 20q49 0 92 -14.5t76 -41t54.5 -64t28.5 -82.5h-136q-11 36 -41.5 56.5t-72.5 20.5q-28 0 -51.5 -10t-40.5 -28t-26.5 -43t-9.5 -55q0 -60 35.5 -97t92.5 -37q42 0 72.5 20.5t41.5 56.5
h136q-7 -45 -28.5 -82.5t-54.5 -64t-76 -41t-92 -14.5zM323 739h156l-115 -179h-122z" />
    <glyph glyph-name="ccaron" unicode="&#x10d;" horiz-adv-x="588" 
d="M302 -12q-57 0 -106 20t-84.5 54.5t-56 82t-20.5 102.5t20.5 103t56 83t84.5 55t106 20q49 0 92 -14.5t76 -41t54.5 -64t28.5 -82.5h-136q-11 36 -41.5 56.5t-72.5 20.5q-28 0 -51.5 -10t-40.5 -28t-26.5 -43t-9.5 -55q0 -60 35.5 -97t92.5 -37q42 0 72.5 20.5t41.5 56.5
h136q-7 -45 -28.5 -82.5t-54.5 -64t-76 -41t-92 -14.5zM488 739l-126 -179h-113l-126 179h119l64 -87l64 87h118z" />
    <glyph glyph-name="ccedilla" unicode="&#xe7;" horiz-adv-x="588" 
d="M302 -12q-57 0 -106 20t-84.5 54.5t-56 82t-20.5 102.5t20.5 103t56 83t84.5 55t106 20q49 0 92 -14.5t76 -41t54.5 -64t28.5 -82.5h-136q-11 36 -41.5 56.5t-72.5 20.5q-28 0 -51.5 -10t-40.5 -28t-26.5 -43t-9.5 -55q0 -60 35.5 -97t92.5 -37q42 0 72.5 20.5t41.5 56.5
h136q-7 -45 -28.5 -82.5t-54.5 -64t-76 -41t-92 -14.5zM264 -193h-28t-19.5 0.5t-16 1.5t-16.5 2v87h60q28 0 43.5 13.5t15.5 39.5q0 18 -6.5 33.5t-21.5 35.5l62 23q35 -20 53.5 -49t18.5 -61q0 -60 -37.5 -93t-107.5 -33z" />
    <glyph glyph-name="d" unicode="d" horiz-adv-x="631" 
d="M566 673v-673h-129v63q-26 -35 -67 -55t-94 -20q-52 0 -96 19t-75.5 53.5t-49 81.5t-17.5 104t17.5 105t49 83t74.5 54.5t94 19.5q48 0 87.5 -17.5t65.5 -49.5v232h140zM305 112q57 0 91.5 36.5t34.5 98.5q0 63 -34.5 100t-91.5 37t-92 -37t-35 -99t35 -99t92 -37z" />
    <glyph glyph-name="eth" unicode="&#xf0;" horiz-adv-x="574" 
d="M438 466q28 -36 47.5 -67t32 -59t18 -55.5t5.5 -55.5q0 -54 -18.5 -98.5t-51.5 -76t-80 -49t-104 -17.5q-56 0 -102 16.5t-79 47t-51 72.5t-18 93q0 48 16.5 89t46.5 71t71 46.5t89 16.5q25 0 50 -5l-55 72l-159 -47v101l95 29l-64 83h151l35 -46l159 49v-105l-94 -28z
M288 101q25 0 47 9t37.5 24.5t24.5 37t9 47.5q0 50 -33 82t-85 32q-26 0 -47 -8.5t-37 -24t-24.5 -36.5t-8.5 -46q0 -51 33 -84t84 -33z" />
    <glyph glyph-name="dcaron" unicode="&#x10f;" horiz-adv-x="812" 
d="M566 673v-673h-129v63q-26 -35 -67 -55t-94 -20q-52 0 -96 19t-75.5 53.5t-49 81.5t-17.5 104t17.5 105t49 83t74.5 54.5t94 19.5q48 0 87.5 -17.5t65.5 -49.5v232h140zM305 112q57 0 91.5 36.5t34.5 98.5q0 63 -34.5 100t-91.5 37t-92 -37t-35 -99t35 -99t92 -37z
M648 673h144l-50 -193h-102z" />
    <glyph glyph-name="dcroat" unicode="&#x111;" horiz-adv-x="643" 
d="M648 520h-78v-520h-129v60q-25 -35 -66.5 -53.5t-96.5 -18.5q-53 0 -96.5 18t-75 50t-49 76.5t-17.5 98.5q0 53 17.5 97t48.5 76t74 49.5t95 17.5q49 0 88.5 -18t66.5 -50v117h-178v101h178v52h140v-52h78v-101zM307 102q59 0 93.5 35.5t34.5 95.5t-35 96t-93 36
q-57 0 -92 -37t-35 -95t35.5 -94.5t91.5 -36.5z" />
    <glyph glyph-name="e" unicode="e" horiz-adv-x="586" 
d="M299 508q60 0 109 -22.5t82.5 -62.5t50 -94.5t10.5 -118.5h-376q10 -51 44.5 -80.5t86.5 -29.5q39 0 63.5 13.5t38.5 42.5h135q-24 -80 -86.5 -124t-152.5 -44q-58 0 -107 19t-84.5 53.5t-55.5 82t-20 103.5t20 104t55 83t83 55t104 20zM299 396q-43 0 -74 -25t-45 -67
h235q-8 42 -39 67t-77 25z" />
    <glyph glyph-name="eacute" unicode="&#xe9;" horiz-adv-x="586" 
d="M299 508q60 0 109 -22.5t82.5 -62.5t50 -94.5t10.5 -118.5h-376q10 -51 44.5 -80.5t86.5 -29.5q39 0 63.5 13.5t38.5 42.5h135q-24 -80 -86.5 -124t-152.5 -44q-58 0 -107 19t-84.5 53.5t-55.5 82t-20 103.5t20 104t55 83t83 55t104 20zM299 396q-43 0 -74 -25t-45 -67
h235q-8 42 -39 67t-77 25zM314 739h156l-115 -179h-122z" />
    <glyph glyph-name="ecaron" unicode="&#x11b;" horiz-adv-x="586" 
d="M299 508q60 0 109 -22.5t82.5 -62.5t50 -94.5t10.5 -118.5h-376q10 -51 44.5 -80.5t86.5 -29.5q39 0 63.5 13.5t38.5 42.5h135q-24 -80 -86.5 -124t-152.5 -44q-58 0 -107 19t-84.5 53.5t-55.5 82t-20 103.5t20 104t55 83t83 55t104 20zM299 396q-43 0 -74 -25t-45 -67
h235q-8 42 -39 67t-77 25zM479 739l-126 -179h-113l-126 179h119l64 -87l64 87h118z" />
    <glyph glyph-name="ecircumflex" unicode="&#xea;" horiz-adv-x="586" 
d="M299 508q60 0 109 -22.5t82.5 -62.5t50 -94.5t10.5 -118.5h-376q10 -51 44.5 -80.5t86.5 -29.5q39 0 63.5 13.5t38.5 42.5h135q-24 -80 -86.5 -124t-152.5 -44q-58 0 -107 19t-84.5 53.5t-55.5 82t-20 103.5t20 104t55 83t83 55t104 20zM299 396q-43 0 -74 -25t-45 -67
h235q-8 42 -39 67t-77 25zM361 560l-64 87l-64 -87h-119l126 179h114l126 -179h-119z" />
    <glyph glyph-name="edieresis" unicode="&#xeb;" horiz-adv-x="586" 
d="M299 508q60 0 109 -22.5t82.5 -62.5t50 -94.5t10.5 -118.5h-376q10 -51 44.5 -80.5t86.5 -29.5q39 0 63.5 13.5t38.5 42.5h135q-24 -80 -86.5 -124t-152.5 -44q-58 0 -107 19t-84.5 53.5t-55.5 82t-20 103.5t20 104t55 83t83 55t104 20zM299 396q-43 0 -74 -25t-45 -67
h235q-8 42 -39 67t-77 25zM190 575q-16 0 -30.5 6t-25 16.5t-16.5 24.5t-6 29q0 32 22.5 54t55.5 22q35 0 56.5 -21.5t21.5 -54.5q0 -32 -22.5 -54t-55.5 -22zM404 575q-16 0 -30.5 6t-25 16.5t-16.5 24.5t-6 29q0 32 22.5 54t55.5 22q35 0 56.5 -21.5t21.5 -54.5
q0 -32 -22.5 -54t-55.5 -22z" />
    <glyph glyph-name="edotaccent" unicode="&#x117;" horiz-adv-x="586" 
d="M299 508q60 0 109 -22.5t82.5 -62.5t50 -94.5t10.5 -118.5h-376q10 -51 44.5 -80.5t86.5 -29.5q39 0 63.5 13.5t38.5 42.5h135q-24 -80 -86.5 -124t-152.5 -44q-58 0 -107 19t-84.5 53.5t-55.5 82t-20 103.5t20 104t55 83t83 55t104 20zM299 396q-43 0 -74 -25t-45 -67
h235q-8 42 -39 67t-77 25zM297 575q-35 0 -59 23t-24 58t24 58t59 23t59 -23t24 -58t-24 -58t-59 -23z" />
    <glyph glyph-name="egrave" unicode="&#xe8;" horiz-adv-x="586" 
d="M299 508q60 0 109 -22.5t82.5 -62.5t50 -94.5t10.5 -118.5h-376q10 -51 44.5 -80.5t86.5 -29.5q39 0 63.5 13.5t38.5 42.5h135q-24 -80 -86.5 -124t-152.5 -44q-58 0 -107 19t-84.5 53.5t-55.5 82t-20 103.5t20 104t55 83t83 55t104 20zM299 396q-43 0 -74 -25t-45 -67
h235q-8 42 -39 67t-77 25zM123 739h157l81 -179h-122z" />
    <glyph glyph-name="emacron" unicode="&#x113;" horiz-adv-x="586" 
d="M299 508q60 0 109 -22.5t82.5 -62.5t50 -94.5t10.5 -118.5h-376q10 -51 44.5 -80.5t86.5 -29.5q39 0 63.5 13.5t38.5 42.5h135q-24 -80 -86.5 -124t-152.5 -44q-58 0 -107 19t-84.5 53.5t-55.5 82t-20 103.5t20 104t55 83t83 55t104 20zM299 396q-43 0 -74 -25t-45 -67
h235q-8 42 -39 67t-77 25zM149 685h296v-101h-296v101z" />
    <glyph glyph-name="eogonek" unicode="&#x119;" horiz-adv-x="586" 
d="M299 508q60 0 109 -22.5t82.5 -62.5t50 -94.5t10.5 -118.5h-376q10 -51 44.5 -80.5t86.5 -29.5q39 0 63.5 13.5t38.5 42.5h135q-24 -80 -86.5 -124t-152.5 -44q-58 0 -107 19t-84.5 53.5t-55.5 82t-20 103.5t20 104t55 83t83 55t104 20zM299 396q-43 0 -74 -25t-45 -67
h235q-8 42 -39 67t-77 25zM372 -191q-62 0 -97.5 25t-35.5 70q0 21 8 39.5t28 39t54 44.5t87 56l59 -33l-77 -73q-19 -19 -24.5 -27.5t-5.5 -20.5q0 -16 12 -24.5t33 -8.5h35v-82q-18 -2 -36.5 -3.5t-39.5 -1.5z" />
    <glyph glyph-name="f" unicode="f" horiz-adv-x="345" 
d="M294 558q-35 0 -51.5 -14t-16.5 -46v-3h114v-119h-114v-376h-140v376h-69v119h69v3q0 90 47.5 132.5t147.5 42.5h71v-115h-58z" />
    <glyph glyph-name="g" unicode="g" horiz-adv-x="630" 
d="M566 496v-433q0 -112 -70 -175t-193 -63q-110 0 -174 44.5t-75 121.5h137q9 -28 37.5 -43.5t76.5 -15.5q57 0 89 30t32 87v46q-26 -32 -66 -50t-88 -18q-50 0 -92.5 18.5t-74 51t-49.5 77t-18 95.5t18 94.5t50 76t75 50.5t94 18q54 0 95.5 -20.5t66.5 -56.5v65h129z
M305 138q56 0 90.5 36t34.5 94q0 57 -34 92t-91 35t-92.5 -35t-35.5 -92t35.5 -93.5t92.5 -36.5z" />
    <glyph glyph-name="gbreve" unicode="&#x11f;" horiz-adv-x="630" 
d="M566 496v-433q0 -112 -70 -175t-193 -63q-110 0 -174 44.5t-75 121.5h137q9 -28 37.5 -43.5t76.5 -15.5q57 0 89 30t32 87v46q-26 -32 -66 -50t-88 -18q-50 0 -92.5 18.5t-74 51t-49.5 77t-18 95.5t18 94.5t50 76t75 50.5t94 18q54 0 95.5 -20.5t66.5 -56.5v65h129z
M305 138q56 0 90.5 36t34.5 94q0 57 -34 92t-91 35t-92.5 -35t-35.5 -92t35.5 -93.5t92.5 -36.5zM309 559q-81 0 -125 46t-44 129h103q0 -39 17 -60.5t49 -21.5t48.5 21.5t16.5 60.5h103q0 -83 -44 -129t-124 -46z" />
    <glyph glyph-name="uni0123" unicode="&#x123;" horiz-adv-x="630" 
d="M566 496v-433q0 -112 -70 -175t-193 -63q-110 0 -174 44.5t-75 121.5h137q9 -28 37.5 -43.5t76.5 -15.5q57 0 89 30t32 87v46q-26 -32 -66 -50t-88 -18q-50 0 -92.5 18.5t-74 51t-49.5 77t-18 95.5t18 94.5t50 76t75 50.5t94 18q54 0 95.5 -20.5t66.5 -56.5v65h129z
M305 138q56 0 90.5 36t34.5 94q0 57 -34 92t-91 35t-92.5 -35t-35.5 -92t35.5 -93.5t92.5 -36.5zM262 739h112l-8 -179h-130z" />
    <glyph glyph-name="h" unicode="h" horiz-adv-x="579" 
d="M338 508q40 0 73.5 -14.5t57.5 -41t37 -63.5t13 -82v-307h-139v288q0 42 -23.5 67t-62.5 25t-64 -25.5t-25 -66.5v-288h-140v673h140v-217q25 25 58 38.5t75 13.5z" />
    <glyph glyph-name="i" unicode="i" horiz-adv-x="270" 
d="M136 575q-36 0 -59.5 23t-23.5 58t23.5 58t59.5 23q35 0 58.5 -23t23.5 -58t-23.5 -58t-58.5 -23zM65 496h140v-496h-140v496z" />
    <glyph glyph-name="dotlessi" unicode="&#x131;" horiz-adv-x="270" 
d="M65 496h140v-496h-140v496z" />
    <glyph glyph-name="iacute" unicode="&#xed;" horiz-adv-x="270" 
d="M65 496h140v-496h-140v496zM153 739h156l-115 -179h-122z" />
    <glyph glyph-name="icircumflex" unicode="&#xee;" horiz-adv-x="270" 
d="M65 496h140v-496h-140v496zM200 560l-64 87l-64 -87h-119l126 179h114l126 -179h-119z" />
    <glyph glyph-name="idieresis" unicode="&#xef;" horiz-adv-x="270" 
d="M65 496h140v-496h-140v496zM29 575q-16 0 -30.5 6t-25 16.5t-16.5 24.5t-6 29q0 32 22.5 54t55.5 22q35 0 56.5 -21.5t21.5 -54.5q0 -32 -22.5 -54t-55.5 -22zM243 575q-16 0 -30.5 6t-25 16.5t-16.5 24.5t-6 29q0 32 22.5 54t55.5 22q35 0 56.5 -21.5t21.5 -54.5
q0 -32 -22.5 -54t-55.5 -22z" />
    <glyph glyph-name="igrave" unicode="&#xec;" horiz-adv-x="270" 
d="M65 496h140v-496h-140v496zM-38 739h157l81 -179h-122z" />
    <glyph glyph-name="imacron" unicode="&#x12b;" horiz-adv-x="270" 
d="M65 496h140v-496h-140v496zM7 685h260v-101h-260v101z" />
    <glyph glyph-name="iogonek" unicode="&#x12f;" horiz-adv-x="270" 
d="M65 496h140v-496h-140v496zM136 575q-35 0 -59 23t-24 58t24 58t59 23t59 -23t24 -58t-24 -58t-59 -23zM125 -191q-62 0 -97 25.5t-35 69.5q0 42 38.5 80.5t118.5 68.5l52 -53l-37 -22q-26 -15 -35 -25t-9 -24q0 -31 46 -31h35v-84q-23 -2 -42.5 -3.5t-34.5 -1.5z" />
    <glyph glyph-name="j" unicode="j" horiz-adv-x="270" 
d="M137 575q-36 0 -59.5 23t-23.5 58t23.5 58t59.5 23q35 0 58.5 -23t23.5 -58t-23.5 -58t-58.5 -23zM-43 -49h32q41 0 58.5 17t17.5 56v472h139v-482q0 -86 -46 -131.5t-134 -45.5h-67v114z" />
    <glyph glyph-name="uni0237" unicode="&#x237;" horiz-adv-x="270" 
d="M-43 -49h32q41 0 58.5 17t17.5 56v472h139v-482q0 -86 -46 -131.5t-134 -45.5h-67v114z" />
    <glyph glyph-name="k" unicode="k" horiz-adv-x="525" 
d="M376 0l-171 217v-217h-140v673h140v-386l159 209h154l-180 -242l198 -254h-160z" />
    <glyph glyph-name="uni0137" unicode="&#x137;" horiz-adv-x="525" 
d="M376 0l-171 217v-217h-140v673h140v-386l159 209h154l-180 -242l198 -254h-160zM207 -46h127l-24 -172h-111z" />
    <glyph glyph-name="l" unicode="l" horiz-adv-x="270" 
d="M65 673h140v-673h-140v673z" />
    <glyph glyph-name="lacute" unicode="&#x13a;" horiz-adv-x="270" 
d="M65 673h140v-673h-140v673zM153 910h164l-120 -180h-123z" />
    <glyph glyph-name="lcaron" unicode="&#x13e;" horiz-adv-x="456" 
d="M65 673h140v-673h-140v673zM291 673h144l-50 -193h-102z" />
    <glyph glyph-name="uni013C" unicode="&#x13c;" horiz-adv-x="270" 
d="M65 673h140v-673h-140v673zM68 -46h127l-24 -172h-111z" />
    <glyph glyph-name="ldot" unicode="&#x140;" horiz-adv-x="408" 
d="M65 673h140v-673h-140v673zM342 244q-37 0 -62 24t-25 61t25 61.5t62 24.5q38 0 63 -24.5t25 -61.5t-25 -61t-63 -24z" />
    <glyph glyph-name="lslash" unicode="&#x142;" horiz-adv-x="330" 
d="M16 344l78 35v294h140v-238l79 36v-130l-79 -36v-305h-140v249l-78 -35v130z" />
    <glyph glyph-name="m" unicode="m" horiz-adv-x="881" 
d="M631 508q89 0 139 -53t50 -148v-307h-139v288q0 43 -22 67.5t-59 24.5q-38 0 -63 -25t-25 -63v-292h-139v288q0 43 -22 67.5t-60 24.5t-62 -25t-24 -67v-288h-140v496h128v-45q51 57 137 57q48 0 84.5 -18.5t60.5 -52.5q27 34 67.5 52.5t88.5 18.5z" />
    <glyph glyph-name="n" unicode="n" 
d="M336 508q42 0 75.5 -14.5t57.5 -40.5t37 -63.5t13 -82.5v-307h-139v288q0 42 -23.5 67t-62.5 25t-64 -25.5t-25 -66.5v-288h-140v496h128v-46q26 28 62 43t81 15z" />
    <glyph glyph-name="nacute" unicode="&#x144;" 
d="M336 508q42 0 75.5 -14.5t57.5 -40.5t37 -63.5t13 -82.5v-307h-139v288q0 42 -23.5 67t-62.5 25t-64 -25.5t-25 -66.5v-288h-140v496h128v-46q26 28 62 43t81 15zM308 739h156l-115 -179h-122z" />
    <glyph glyph-name="ncaron" unicode="&#x148;" 
d="M336 508q42 0 75.5 -14.5t57.5 -40.5t37 -63.5t13 -82.5v-307h-139v288q0 42 -23.5 67t-62.5 25t-64 -25.5t-25 -66.5v-288h-140v496h128v-46q26 28 62 43t81 15zM473 739l-126 -179h-113l-126 179h119l64 -87l64 87h118z" />
    <glyph glyph-name="uni0146" unicode="&#x146;" 
d="M336 508q42 0 75.5 -14.5t57.5 -40.5t37 -63.5t13 -82.5v-307h-139v288q0 42 -23.5 67t-62.5 25t-64 -25.5t-25 -66.5v-288h-140v496h128v-46q26 28 62 43t81 15zM225 -46h127l-24 -172h-111z" />
    <glyph glyph-name="ntilde" unicode="&#xf1;" 
d="M336 508q42 0 75.5 -14.5t57.5 -40.5t37 -63.5t13 -82.5v-307h-139v288q0 42 -23.5 67t-62.5 25t-64 -25.5t-25 -66.5v-288h-140v496h128v-46q26 28 62 43t81 15zM354 563q-17 0 -33 5t-38 18q-25 14 -37.5 18t-24.5 4q-17 -1 -36.5 -9t-51.5 -27v105q33 21 53 29t41 8
q16 0 32 -5t40 -17q23 -14 36 -18.5t26 -4.5q17 1 36.5 9t51.5 27v-105q-33 -21 -53 -29t-42 -8z" />
    <glyph glyph-name="o" unicode="o" horiz-adv-x="608" 
d="M304 -12q-57 0 -106 20t-85.5 55t-57 82.5t-20.5 102.5t20.5 102.5t57 82.5t85.5 55t106 20t106 -20t85.5 -55t57 -82.5t20.5 -102.5t-20.5 -102.5t-57 -82.5t-85.5 -55t-106 -20zM304 111q28 0 51.5 10t41 28.5t27 43.5t9.5 55q0 60 -36 98t-93 38t-93 -38t-36 -98
q0 -30 9.5 -55t27 -43.5t41 -28.5t51.5 -10z" />
    <glyph glyph-name="oacute" unicode="&#xf3;" horiz-adv-x="608" 
d="M304 -12q-57 0 -106 20t-85.5 55t-57 82.5t-20.5 102.5t20.5 102.5t57 82.5t85.5 55t106 20t106 -20t85.5 -55t57 -82.5t20.5 -102.5t-20.5 -102.5t-57 -82.5t-85.5 -55t-106 -20zM304 111q28 0 51.5 10t41 28.5t27 43.5t9.5 55q0 60 -36 98t-93 38t-93 -38t-36 -98
q0 -30 9.5 -55t27 -43.5t41 -28.5t51.5 -10zM322 739h156l-115 -179h-122z" />
    <glyph glyph-name="ocircumflex" unicode="&#xf4;" horiz-adv-x="608" 
d="M304 -12q-57 0 -106 20t-85.5 55t-57 82.5t-20.5 102.5t20.5 102.5t57 82.5t85.5 55t106 20t106 -20t85.5 -55t57 -82.5t20.5 -102.5t-20.5 -102.5t-57 -82.5t-85.5 -55t-106 -20zM304 111q28 0 51.5 10t41 28.5t27 43.5t9.5 55q0 60 -36 98t-93 38t-93 -38t-36 -98
q0 -30 9.5 -55t27 -43.5t41 -28.5t51.5 -10zM369 560l-64 87l-64 -87h-119l126 179h114l126 -179h-119z" />
    <glyph glyph-name="odieresis" unicode="&#xf6;" horiz-adv-x="608" 
d="M304 -12q-57 0 -106 20t-85.5 55t-57 82.5t-20.5 102.5t20.5 102.5t57 82.5t85.5 55t106 20t106 -20t85.5 -55t57 -82.5t20.5 -102.5t-20.5 -102.5t-57 -82.5t-85.5 -55t-106 -20zM304 111q28 0 51.5 10t41 28.5t27 43.5t9.5 55q0 60 -36 98t-93 38t-93 -38t-36 -98
q0 -30 9.5 -55t27 -43.5t41 -28.5t51.5 -10zM198 575q-16 0 -30.5 6t-25 16.5t-16.5 24.5t-6 29q0 32 22.5 54t55.5 22q35 0 56.5 -21.5t21.5 -54.5q0 -32 -22.5 -54t-55.5 -22zM412 575q-16 0 -30.5 6t-25 16.5t-16.5 24.5t-6 29q0 32 22.5 54t55.5 22q35 0 56.5 -21.5
t21.5 -54.5q0 -32 -22.5 -54t-55.5 -22z" />
    <glyph glyph-name="ograve" unicode="&#xf2;" horiz-adv-x="608" 
d="M304 -12q-57 0 -106 20t-85.5 55t-57 82.5t-20.5 102.5t20.5 102.5t57 82.5t85.5 55t106 20t106 -20t85.5 -55t57 -82.5t20.5 -102.5t-20.5 -102.5t-57 -82.5t-85.5 -55t-106 -20zM304 111q28 0 51.5 10t41 28.5t27 43.5t9.5 55q0 60 -36 98t-93 38t-93 -38t-36 -98
q0 -30 9.5 -55t27 -43.5t41 -28.5t51.5 -10zM131 739h157l81 -179h-122z" />
    <glyph glyph-name="ohungarumlaut" unicode="&#x151;" horiz-adv-x="608" 
d="M304 -12q-57 0 -106 20t-85.5 55t-57 82.5t-20.5 102.5t20.5 102.5t57 82.5t85.5 55t106 20t106 -20t85.5 -55t57 -82.5t20.5 -102.5t-20.5 -102.5t-57 -82.5t-85.5 -55t-106 -20zM304 111q28 0 51.5 10t41 28.5t27 43.5t9.5 55q0 60 -36 98t-93 38t-93 -38t-36 -98
q0 -30 9.5 -55t27 -43.5t41 -28.5t51.5 -10zM254 739h123l-103 -179h-114zM444 739h130l-127 -179h-105z" />
    <glyph glyph-name="omacron" unicode="&#x14d;" horiz-adv-x="608" 
d="M304 -12q-57 0 -106 20t-85.5 55t-57 82.5t-20.5 102.5t20.5 102.5t57 82.5t85.5 55t106 20t106 -20t85.5 -55t57 -82.5t20.5 -102.5t-20.5 -102.5t-57 -82.5t-85.5 -55t-106 -20zM304 111q28 0 51.5 10t41 28.5t27 43.5t9.5 55q0 60 -36 98t-93 38t-93 -38t-36 -98
q0 -30 9.5 -55t27 -43.5t41 -28.5t51.5 -10zM157 685h296v-101h-296v101z" />
    <glyph glyph-name="oslash" unicode="&#xf8;" horiz-adv-x="638" 
d="M524 419q31 -34 48 -77.5t16 -93.5q-1 -55 -21.5 -102.5t-56.5 -82.5t-85 -55t-106 -20q-66 0 -124 28l-40 -51h-135l90 115q-29 34 -45 76.5t-15 91.5q0 55 20.5 102.5t56.5 82.5t85.5 55t106.5 20q33 0 63.5 -7t57.5 -20l47 60h134zM177 248q-1 -38 14 -71l175 213
q-22 8 -47 8q-31 0 -57 -11t-45 -31t-29.5 -47.5t-10.5 -60.5zM319 97q31 0 57 11t45 31.5t29.5 48t10.5 60.5q0 40 -17 74l-177 -216q24 -9 52 -9z" />
    <glyph glyph-name="otilde" unicode="&#xf5;" horiz-adv-x="608" 
d="M304 -12q-57 0 -106 20t-85.5 55t-57 82.5t-20.5 102.5t20.5 102.5t57 82.5t85.5 55t106 20t106 -20t85.5 -55t57 -82.5t20.5 -102.5t-20.5 -102.5t-57 -82.5t-85.5 -55t-106 -20zM304 111q28 0 51.5 10t41 28.5t27 43.5t9.5 55q0 60 -36 98t-93 38t-93 -38t-36 -98
q0 -30 9.5 -55t27 -43.5t41 -28.5t51.5 -10zM368 563q-17 0 -33 5t-38 18q-25 14 -37.5 18t-24.5 4q-17 -1 -36.5 -9t-51.5 -27v105q33 21 53 29t41 8q16 0 32 -5t40 -17q23 -14 36 -18.5t26 -4.5q17 1 36.5 9t51.5 27v-105q-33 -21 -53 -29t-42 -8z" />
    <glyph glyph-name="oe" unicode="&#x153;" horiz-adv-x="982" 
d="M696 507q61 0 110.5 -22t82.5 -61.5t48.5 -94t9.5 -119.5h-382q10 -54 46.5 -84.5t91.5 -30.5q78 0 102 56h134q-23 -77 -86 -120t-152 -43q-66 0 -117.5 23.5t-84.5 67.5q-32 -44 -83 -67.5t-115 -23.5q-56 0 -104 20t-83.5 55t-56 82t-20.5 102t20.5 103t56 83t83.5 55
t104 20q65 0 116 -24t83 -68q32 43 82 67t114 24zM695 400q-48 0 -81 -25.5t-46 -70.5h250q-8 45 -40.5 70.5t-82.5 25.5zM307 111q28 0 51.5 10t40 28t26 43t9.5 55q0 61 -35 99t-92 38q-29 0 -52.5 -10t-41 -28.5t-27 -43.5t-9.5 -55t9.5 -55t27 -43t41 -28t52.5 -10z" />
    <glyph glyph-name="p" unicode="p" horiz-adv-x="632" 
d="M355 508q52 0 96 -19.5t75.5 -54t49 -82t17.5 -104.5t-17.5 -105t-48.5 -82.5t-74.5 -53.5t-94.5 -19q-48 0 -87.5 17.5t-65.5 49.5v-218h-140v659h128v-65q25 36 66.5 56.5t95.5 20.5zM326 112q57 0 92.5 37.5t35.5 98.5t-35.5 98.5t-92.5 37.5t-91 -37t-34 -99t34 -99
t91 -37z" />
    <glyph glyph-name="thorn" unicode="&#xfe;" horiz-adv-x="632" 
d="M355 508q52 0 96 -19.5t75.5 -54t49 -82t17.5 -104.5t-17.5 -104.5t-49 -82t-74.5 -54t-94 -19.5q-48 0 -87.5 17.5t-65.5 49.5v-218h-140v836h128v-242q25 36 66.5 56.5t95.5 20.5zM326 112q57 0 92 37t35 99q0 61 -35 98.5t-92 37.5q-58 0 -92 -37t-34 -99t34.5 -99
t91.5 -37z" />
    <glyph glyph-name="q" unicode="q" horiz-adv-x="632" 
d="M277 508q54 0 95.5 -20.5t66.5 -56.5v65h128v-659h-140v218q-26 -32 -65.5 -49.5t-87.5 -17.5q-51 0 -94.5 19t-74.5 53.5t-48.5 82.5t-17.5 105t17.5 104.5t49 82t75.5 54t96 19.5zM306 112q57 0 91 37t34 99t-34 99t-91 37t-92.5 -37.5t-35.5 -98.5t35.5 -98.5
t92.5 -37.5z" />
    <glyph glyph-name="r" unicode="r" horiz-adv-x="379" 
d="M369 496v-131h-41q-60 0 -91.5 -31t-31.5 -92v-242h-140v496h128v-65q45 65 138 65h38z" />
    <glyph glyph-name="racute" unicode="&#x155;" horiz-adv-x="379" 
d="M369 496v-131h-41q-60 0 -91.5 -31t-31.5 -92v-242h-140v496h128v-65q45 65 138 65h38zM205 739h156l-115 -179h-122z" />
    <glyph glyph-name="rcaron" unicode="&#x159;" horiz-adv-x="379" 
d="M369 496v-131h-41q-60 0 -91.5 -31t-31.5 -92v-242h-140v496h128v-65q45 65 138 65h38zM370 739l-126 -179h-113l-126 179h119l64 -87l64 87h118z" />
    <glyph glyph-name="uni0157" unicode="&#x157;" horiz-adv-x="379" 
d="M369 496v-131h-41q-60 0 -91.5 -31t-31.5 -92v-242h-140v496h128v-65q45 65 138 65h38zM66 -46h127l-24 -172h-111z" />
    <glyph glyph-name="s" unicode="s" horiz-adv-x="459" 
d="M237 -12q-96 0 -151.5 45t-60.5 125h134q6 -62 79 -62q64 0 64 43q0 17 -10 26t-37 16l-81 22q-63 17 -97 56t-34 95q0 35 13.5 63.5t38 48.5t59.5 31t77 11q85 0 136 -42t57 -116h-130q-3 24 -20 37t-44 13q-26 0 -41 -11t-15 -31q0 -30 42 -40l85 -23q66 -17 100 -55.5
t34 -95.5q0 -73 -52.5 -114.5t-145.5 -41.5z" />
    <glyph glyph-name="sacute" unicode="&#x15b;" horiz-adv-x="459" 
d="M237 -12q-96 0 -151.5 45t-60.5 125h134q6 -62 79 -62q64 0 64 43q0 17 -10 26t-37 16l-81 22q-63 17 -97 56t-34 95q0 35 13.5 63.5t38 48.5t59.5 31t77 11q85 0 136 -42t57 -116h-130q-3 24 -20 37t-44 13q-26 0 -41 -11t-15 -31q0 -30 42 -40l85 -23q66 -17 100 -55.5
t34 -95.5q0 -73 -52.5 -114.5t-145.5 -41.5zM250 739h156l-115 -179h-122z" />
    <glyph glyph-name="scaron" unicode="&#x161;" horiz-adv-x="459" 
d="M237 -12q-96 0 -151.5 45t-60.5 125h134q6 -62 79 -62q64 0 64 43q0 17 -10 26t-37 16l-81 22q-63 17 -97 56t-34 95q0 35 13.5 63.5t38 48.5t59.5 31t77 11q85 0 136 -42t57 -116h-130q-3 24 -20 37t-44 13q-26 0 -41 -11t-15 -31q0 -30 42 -40l85 -23q66 -17 100 -55.5
t34 -95.5q0 -73 -52.5 -114.5t-145.5 -41.5zM415 739l-126 -179h-113l-126 179h119l64 -87l64 87h118z" />
    <glyph glyph-name="scedilla" unicode="&#x15f;" horiz-adv-x="459" 
d="M237 -12q-96 0 -151.5 45t-60.5 125h134q6 -62 79 -62q64 0 64 43q0 17 -10 26t-37 16l-81 22q-63 17 -97 56t-34 95q0 35 13.5 63.5t38 48.5t59.5 31t77 11q85 0 136 -42t57 -116h-130q-3 24 -20 37t-44 13q-26 0 -41 -11t-15 -31q0 -30 42 -40l85 -23q66 -17 100 -55.5
t34 -95.5q0 -73 -52.5 -114.5t-145.5 -41.5zM191 -193h-28t-19.5 0.5t-16 1.5t-16.5 2v87h60q28 0 43.5 13.5t15.5 39.5q0 18 -6.5 33.5t-21.5 35.5l62 23q35 -20 53.5 -49t18.5 -61q0 -60 -37.5 -93t-107.5 -33z" />
    <glyph glyph-name="uni0219" unicode="&#x219;" horiz-adv-x="459" 
d="M237 -12q-96 0 -151.5 45t-60.5 125h134q6 -62 79 -62q64 0 64 43q0 17 -10 26t-37 16l-81 22q-63 17 -97 56t-34 95q0 35 13.5 63.5t38 48.5t59.5 31t77 11q85 0 136 -42t57 -116h-130q-3 24 -20 37t-44 13q-26 0 -41 -11t-15 -31q0 -30 42 -40l85 -23q66 -17 100 -55.5
t34 -95.5q0 -73 -52.5 -114.5t-145.5 -41.5zM165 -46h127l-24 -172h-111z" />
    <glyph glyph-name="germandbls" unicode="&#xdf;" horiz-adv-x="586" 
d="M67 461q0 110 60 167t177 57q98 0 153 -39.5t55 -111.5q0 -32 -7.5 -56t-27.5 -53q-11 -16 -18 -26.5t-10.5 -17.5t-4.5 -12t-1 -11q0 -7 2 -13.5t8 -14.5t16 -18l25 -25q22 -21 35.5 -36.5t21.5 -30t11 -29.5t3 -34q0 -73 -54.5 -115t-150.5 -42h-69v118h62q63 0 63 42
q0 9 -2 16.5t-8 16t-17.5 19.5t-30.5 28q-32 28 -46 51t-14 50q0 22 8 41t29 48q18 24 25 39.5t7 31.5q0 62 -71 62q-47 0 -68 -25t-21 -82v-456h-140v461z" />
    <glyph glyph-name="t" unicode="t" horiz-adv-x="382" 
d="M361 119v-119h-82q-98 0 -145 41.5t-47 128.5v206h-76v120h76v118h140v-118h125v-120h-125v-189q0 -36 17.5 -52t57.5 -16h59z" />
    <glyph glyph-name="tcaron" unicode="&#x165;" horiz-adv-x="439" 
d="M361 119v-119h-82q-98 0 -145 41.5t-47 128.5v206h-76v120h76v118h140v-118h125v-120h-125v-189q0 -36 17.5 -52t57.5 -16h59zM324 762h144l-50 -193h-102z" />
    <glyph glyph-name="uni0163" unicode="&#x163;" horiz-adv-x="382" 
d="M361 119v-119h-66q24 -30 24 -67q0 -60 -37.5 -93t-107.5 -33h-28t-19.5 0.5t-16 1.5t-16.5 2v87h60q59 0 59 53q0 29 -21 60q-105 31 -105 159v206h-76v120h76v118h140v-118h125v-120h-125v-189q0 -36 17.5 -52t57.5 -16h59z" />
    <glyph glyph-name="uni021B" unicode="&#x21b;" horiz-adv-x="382" 
d="M361 119v-119h-82q-98 0 -145 41.5t-47 128.5v206h-76v120h76v118h140v-118h125v-120h-125v-189q0 -36 17.5 -52t57.5 -16h59zM161 -46h127l-24 -172h-111z" />
    <glyph glyph-name="u" unicode="u" 
d="M514 496v-496h-128v45q-26 -27 -61.5 -42t-80.5 -15q-42 0 -76 14t-58 40.5t-37 63.5t-13 82v308h140v-288q0 -42 23 -67.5t62 -25.5t64.5 25.5t25.5 67.5v288h139z" />
    <glyph glyph-name="uacute" unicode="&#xfa;" 
d="M514 496v-496h-128v45q-26 -27 -61.5 -42t-80.5 -15q-42 0 -76 14t-58 40.5t-37 63.5t-13 82v308h140v-288q0 -42 23 -67.5t62 -25.5t64.5 25.5t25.5 67.5v288h139zM306 739h156l-115 -179h-122z" />
    <glyph glyph-name="ucircumflex" unicode="&#xfb;" 
d="M514 496v-496h-128v45q-26 -27 -61.5 -42t-80.5 -15q-42 0 -76 14t-58 40.5t-37 63.5t-13 82v308h140v-288q0 -42 23 -67.5t62 -25.5t64.5 25.5t25.5 67.5v288h139zM353 560l-64 87l-64 -87h-119l126 179h114l126 -179h-119z" />
    <glyph glyph-name="udieresis" unicode="&#xfc;" 
d="M514 496v-496h-128v45q-26 -27 -61.5 -42t-80.5 -15q-42 0 -76 14t-58 40.5t-37 63.5t-13 82v308h140v-288q0 -42 23 -67.5t62 -25.5t64.5 25.5t25.5 67.5v288h139zM182 575q-16 0 -30.5 6t-25 16.5t-16.5 24.5t-6 29q0 32 22.5 54t55.5 22q35 0 56.5 -21.5t21.5 -54.5
q0 -32 -22.5 -54t-55.5 -22zM396 575q-16 0 -30.5 6t-25 16.5t-16.5 24.5t-6 29q0 32 22.5 54t55.5 22q35 0 56.5 -21.5t21.5 -54.5q0 -32 -22.5 -54t-55.5 -22z" />
    <glyph glyph-name="ugrave" unicode="&#xf9;" 
d="M514 496v-496h-128v45q-26 -27 -61.5 -42t-80.5 -15q-42 0 -76 14t-58 40.5t-37 63.5t-13 82v308h140v-288q0 -42 23 -67.5t62 -25.5t64.5 25.5t25.5 67.5v288h139zM115 739h157l81 -179h-122z" />
    <glyph glyph-name="uhungarumlaut" unicode="&#x171;" 
d="M514 496v-496h-128v45q-26 -27 -61.5 -42t-80.5 -15q-42 0 -76 14t-58 40.5t-37 63.5t-13 82v308h140v-288q0 -42 23 -67.5t62 -25.5t64.5 25.5t25.5 67.5v288h139zM238 739h123l-103 -179h-114zM428 739h130l-127 -179h-105z" />
    <glyph glyph-name="umacron" unicode="&#x16b;" 
d="M514 496v-496h-128v45q-26 -27 -61.5 -42t-80.5 -15q-42 0 -76 14t-58 40.5t-37 63.5t-13 82v308h140v-288q0 -42 23 -67.5t62 -25.5t64.5 25.5t25.5 67.5v288h139zM141 685h296v-101h-296v101z" />
    <glyph glyph-name="uogonek" unicode="&#x173;" 
d="M514 496v-496h-128v45q-26 -27 -61.5 -42t-80.5 -15q-42 0 -76 14t-58 40.5t-37 63.5t-13 82v308h140v-288q0 -42 23 -67.5t62 -25.5t64.5 25.5t25.5 67.5v288h139zM439 -191q-62 0 -97 25.5t-35 69.5q0 42 38.5 80.5t118.5 68.5l52 -53l-37 -22q-26 -15 -35 -25t-9 -24
q0 -31 46 -31h35v-84q-23 -2 -42.5 -3.5t-34.5 -1.5z" />
    <glyph glyph-name="uring" unicode="&#x16f;" 
d="M514 496v-496h-128v45q-26 -27 -61.5 -42t-80.5 -15q-42 0 -76 14t-58 40.5t-37 63.5t-13 82v308h140v-288q0 -42 23 -67.5t62 -25.5t64.5 25.5t25.5 67.5v288h139zM289 538q-28 0 -51.5 9t-40.5 25.5t-26.5 39.5t-9.5 50t9.5 49.5t26.5 39t40.5 25.5t51.5 9t51.5 -9
t41 -25.5t27 -39t9.5 -49.5t-10 -50t-27 -39.5t-40.5 -25.5t-51.5 -9zM290 616q19 0 32 13t13 33t-13 33t-32 13q-20 0 -33 -13t-13 -33t13 -33t33 -13z" />
    <glyph glyph-name="v" unicode="v" horiz-adv-x="532" 
d="M524 496l-181 -496h-152l-182 496h148l111 -342l108 342h148z" />
    <glyph glyph-name="w" unicode="w" horiz-adv-x="862" 
d="M844 496l-166 -496h-148l-99 341l-98 -341h-148l-166 496h148l98 -336l94 336h145l93 -337l98 337h149z" />
    <glyph glyph-name="x" unicode="x" horiz-adv-x="552" 
d="M386 0l-111 160l-109 -160h-161l182 255l-171 241h161l99 -147l99 147h161l-172 -240l183 -256h-161z" />
    <glyph glyph-name="y" unicode="y" horiz-adv-x="534" 
d="M525 496l-243 -659h-154l63 165l-182 494h148l110 -344l110 344h148z" />
    <glyph glyph-name="yacute" unicode="&#xfd;" horiz-adv-x="534" 
d="M525 496l-243 -659h-154l63 165l-182 494h148l110 -344l110 344h148zM284 739h156l-115 -179h-122z" />
    <glyph glyph-name="ydieresis" unicode="&#xff;" horiz-adv-x="534" 
d="M525 496l-243 -659h-154l63 165l-182 494h148l110 -344l110 344h148zM160 575q-16 0 -30.5 6t-25 16.5t-16.5 24.5t-6 29q0 32 22.5 54t55.5 22q35 0 56.5 -21.5t21.5 -54.5q0 -32 -22.5 -54t-55.5 -22zM374 575q-16 0 -30.5 6t-25 16.5t-16.5 24.5t-6 29q0 32 22.5 54
t55.5 22q35 0 56.5 -21.5t21.5 -54.5q0 -32 -22.5 -54t-55.5 -22z" />
    <glyph glyph-name="z" unicode="z" horiz-adv-x="478" 
d="M447 116v-116h-417v107l247 273h-236v116h399v-108l-249 -272h256z" />
    <glyph glyph-name="zacute" unicode="&#x17a;" horiz-adv-x="478" 
d="M447 116v-116h-417v107l247 273h-236v116h399v-108l-249 -272h256zM256 739h156l-115 -179h-122z" />
    <glyph glyph-name="zcaron" unicode="&#x17e;" horiz-adv-x="478" 
d="M447 116v-116h-417v107l247 273h-236v116h399v-108l-249 -272h256zM421 739l-126 -179h-113l-126 179h119l64 -87l64 87h118z" />
    <glyph glyph-name="zdotaccent" unicode="&#x17c;" horiz-adv-x="478" 
d="M447 116v-116h-417v107l247 273h-236v116h399v-108l-249 -272h256zM239 575q-35 0 -59 23t-24 58t24 58t59 23t59 -23t24 -58t-24 -58t-59 -23z" />
    <glyph glyph-name="iacute_j.locl" horiz-adv-x="540" 
d="M65 496h140v-496h-140v496zM153 739h156l-115 -179h-122zM227 -49h32q41 0 58.5 17t17.5 56v472h139v-482q0 -86 -46 -131.5t-134 -45.5h-67v114zM423 739h156l-115 -179h-122z" />
    <glyph glyph-name="glyph230" horiz-adv-x="270" 
d="M65 496h140v-496h-140v496zM136 575q-35 0 -59 23t-24 58t24 58t59 23t59 -23t24 -58t-24 -58t-59 -23z" />
    <glyph glyph-name="ordfeminine" unicode="&#xaa;" horiz-adv-x="434" 
d="M217 681q82 0 128.5 -43.5t46.5 -120.5v-248h-106v41q-21 -23 -51.5 -36t-72.5 -13q-64 0 -101 31.5t-37 85.5q0 57 40.5 88.5t115.5 31.5h99v24q0 32 -17 48.5t-49 16.5q-56 0 -62 -49h-109q4 65 50 104t125 39zM197 341q35 0 58.5 19t23.5 55v11h-78q-29 0 -44.5 -10
t-15.5 -32q0 -43 56 -43z" />
    <glyph glyph-name="ordmasculine" unicode="&#xba;" horiz-adv-x="490" 
d="M245 261q-49 0 -89.5 15.5t-70 43.5t-45.5 66.5t-16 84.5t16 84.5t45.5 66.5t70 43.5t89.5 15.5q48 0 89 -15.5t70 -43.5t45.5 -66.5t16.5 -84.5t-16.5 -84.5t-46 -66.5t-70 -43.5t-88.5 -15.5zM245 365q46 0 74.5 30t28.5 77q0 45 -28.5 75t-74.5 30q-45 0 -74 -29.5
t-29 -75.5q0 -47 28.5 -77t74.5 -30z" />
    <glyph glyph-name="uni0410" unicode="&#x410;" horiz-adv-x="680" 
d="M468 141h-253l-49 -141h-150l249 673h152l248 -673h-150zM251 250h181l-91 282z" />
    <glyph glyph-name="uni0411" unicode="&#x411;" horiz-adv-x="618" 
d="M78 673h454v-119h-313v-132h150q98 0 155.5 -56.5t57.5 -154.5q0 -48 -15.5 -86.5t-43.5 -66.5t-67.5 -43t-86.5 -15h-291v673zM356 119q44 0 68 24t24 70q0 48 -23.5 72t-68.5 24h-137v-190h137z" />
    <glyph glyph-name="uni0412" unicode="&#x412;" horiz-adv-x="635" 
d="M501 352q49 -22 74.5 -63.5t25.5 -102.5q0 -87 -61 -136.5t-167 -49.5h-293v673h268q105 0 163.5 -46.5t58.5 -129.5q0 -99 -69 -145zM361 118q50 0 76.5 23t26.5 65q0 41 -27.5 63t-78.5 22h-143v-173h146zM215 555v-152h129q44 0 67.5 19.5t23.5 56.5q0 76 -89 76h-131
z" />
    <glyph glyph-name="uni0413" unicode="&#x413;" horiz-adv-x="486" 
d="M466 673v-129h-245v-544h-143v673h388z" />
    <glyph glyph-name="uni0403" unicode="&#x403;" horiz-adv-x="486" 
d="M466 673v-129h-245v-544h-143v673h388zM283 910h164l-120 -180h-123z" />
    <glyph glyph-name="uni0490" unicode="&#x490;" horiz-adv-x="483" 
d="M78 673h243v124h143v-253h-243v-544h-143v673z" />
    <glyph glyph-name="uni0414" unicode="&#x414;" horiz-adv-x="706" 
d="M687 129v-254h-133v125h-406v-125h-133v254h18q54 0 87 69t33 203v272h445v-544h89zM286 401q0 -185 -72 -272h244v415h-172v-143z" />
    <glyph glyph-name="uni0415" unicode="&#x415;" horiz-adv-x="538" 
d="M78 673h407v-122h-264v-147h254v-116h-254v-166h275v-122h-418v673z" />
    <glyph glyph-name="uni0400" unicode="&#x400;" horiz-adv-x="538" 
d="M78 673h407v-122h-264v-147h254v-116h-254v-166h275v-122h-418v673zM114 910h160l78 -180h-123z" />
    <glyph glyph-name="uni0401" unicode="&#x401;" horiz-adv-x="538" 
d="M78 673h407v-122h-264v-147h254v-116h-254v-166h275v-122h-418v673zM175 735q-34 0 -57.5 23t-23.5 55q0 33 23 56t58 23q36 0 59 -22t23 -57q0 -32 -23.5 -55t-58.5 -23zM403 735q-34 0 -58 23.5t-24 54.5q0 33 23.5 56t58.5 23t58.5 -22t23.5 -57q0 -16 -6.5 -30.5
t-17.5 -25t-26 -16.5t-32 -6z" />
    <glyph glyph-name="uni0416" unicode="&#x416;" horiz-adv-x="923" 
d="M757 0l-223 313v-313h-143v317l-225 -317h-170l256 354l-238 319h164l213 -287v287h143v-283l211 283h164l-239 -318l257 -355h-170z" />
    <glyph glyph-name="uni0417" unicode="&#x417;" horiz-adv-x="552" 
d="M407 354q54 -24 82.5 -66.5t28.5 -99.5q0 -41 -16 -77t-46.5 -63.5t-76 -43.5t-104.5 -16q-115 0 -178 60t-68 167h134q3 -47 34.5 -73.5t77.5 -26.5q48 0 75.5 26t27.5 64q0 14 -5 30t-18 29t-35 21.5t-56 8.5h-63v110h60q29 0 48 7t30 18t15 24.5t4 27.5
q0 36 -24.5 62.5t-71.5 26.5q-42 0 -69 -24t-30 -71h-129q3 50 21 89t48.5 66t72 41t91.5 14q53 0 94 -15t69.5 -41t43.5 -60.5t15 -73.5q0 -48 -21 -83.5t-61 -57.5z" />
    <glyph glyph-name="uni0418" unicode="&#x418;" horiz-adv-x="697" 
d="M621 673v-673h-144v457l-255 -457h-142v673h143v-451l252 451h146z" />
    <glyph glyph-name="uni0419" unicode="&#x419;" horiz-adv-x="697" 
d="M621 673v-673h-144v457l-255 -457h-142v673h143v-451l252 451h146zM347 728q-46 0 -83.5 12t-64.5 34.5t-41.5 55.5t-14.5 75h105q0 -38 27 -59.5t73 -21.5q45 0 71.5 21.5t26.5 59.5h106q0 -85 -56 -131t-149 -46z" />
    <glyph glyph-name="uni040D" unicode="&#x40d;" horiz-adv-x="697" 
d="M621 673v-673h-144v457l-255 -457h-142v673h143v-451l252 451h146zM173 910h160l78 -180h-123z" />
    <glyph glyph-name="uni041A" unicode="&#x41a;" horiz-adv-x="625" 
d="M458 0l-237 312v-312h-143v673h143v-283l225 283h164l-252 -318l270 -355h-170z" />
    <glyph glyph-name="uni040C" unicode="&#x40c;" horiz-adv-x="625" 
d="M340 910h164l-120 -180h-123zM458 0l-237 312v-312h-143v673h143v-283l225 283h164l-252 -318l270 -355h-170z" />
    <glyph glyph-name="uni041B" unicode="&#x41b;" horiz-adv-x="646" 
d="M-9 129q38 0 62 17t38 50t19 82.5t5 114.5v280h453v-672h-142v543h-174v-154q0 -98 -13 -172.5t-44 -124t-81 -74.5t-123 -25v135z" />
    <glyph glyph-name="uni041C" unicode="&#x41c;" horiz-adv-x="864" 
d="M786 673v-673h-136v469l-161 -469h-115l-160 469v-469h-135l-1 673h189l165 -494l163 494h191z" />
    <glyph glyph-name="uni041D" unicode="&#x41d;" horiz-adv-x="696" 
d="M78 673h142v-256h256v256h142v-673h-142v288h-256v-288h-142v673z" />
    <glyph glyph-name="uni041E" unicode="&#x41e;" horiz-adv-x="797" 
d="M399 -12q-78 0 -144 26.5t-114 73t-75 110.5t-27 139t27 139t75 110.5t114 72.5t144 26t144 -26.5t114 -73t75 -110t27 -138.5t-27 -139t-75 -110.5t-114 -73t-144 -26.5zM398 119q46 0 84.5 16.5t66.5 45.5t44 69t16 88q0 46 -16 86t-44 68.5t-66.5 45t-84.5 16.5
q-45 0 -84 -16.5t-67 -45t-44 -68.5t-16 -86q0 -48 16 -88t44 -69t66.5 -45.5t84.5 -16.5z" />
    <glyph glyph-name="uni041F" unicode="&#x41f;" horiz-adv-x="674" 
d="M78 673h518v-673h-143v544h-231v-544h-144v673z" />
    <glyph glyph-name="uni0420" unicode="&#x420;" horiz-adv-x="575" 
d="M78 673h234q55 0 98.5 -15t74.5 -42.5t47.5 -67.5t16.5 -90q0 -100 -63 -157t-174 -57h-91v-244h-143v673zM307 359q47 0 73.5 26t26.5 72q0 45 -26 70.5t-74 25.5h-87v-194h87z" />
    <glyph glyph-name="uni0421" unicode="&#x421;" horiz-adv-x="779" 
d="M396 -12q-78 0 -143.5 26t-113 72.5t-74 110.5t-26.5 140q0 75 27 138.5t74.5 110t113 73t142.5 26.5q69 0 129 -20t105.5 -56.5t74 -87.5t36.5 -113h-150q-17 67 -69.5 106.5t-125.5 39.5q-45 0 -83 -16.5t-65.5 -45.5t-43.5 -68.5t-16 -86.5t15.5 -87t43.5 -69
t66 -45.5t83 -16.5q73 0 125.5 39.5t69.5 106.5h150q-8 -62 -37 -113t-74 -87.5t-105 -56.5t-129 -20z" />
    <glyph glyph-name="uni0422" unicode="&#x422;" horiz-adv-x="567" 
d="M208 544h-179v129h510v-129h-189v-544h-142v544z" />
    <glyph glyph-name="uni0423" unicode="&#x423;" horiz-adv-x="642" 
d="M637 673l-327 -673h-160l106 208l-247 465h164l162 -322l142 322h160z" />
    <glyph glyph-name="uni040E" unicode="&#x40e;" horiz-adv-x="642" 
d="M637 673l-327 -673h-160l106 208l-247 465h164l162 -322l142 322h160zM330 728q-44 0 -80.5 13t-62.5 36.5t-40.5 56t-14.5 71.5h105q0 -35 26.5 -58t67.5 -23q39 0 65.5 23t26.5 58h106q0 -39 -14.5 -71.5t-41 -56t-63 -36.5t-80.5 -13z" />
    <glyph glyph-name="uni0424" unicode="&#x424;" horiz-adv-x="836" 
d="M795 348q0 -62 -21.5 -112.5t-61.5 -87t-96.5 -57.5t-125.5 -23v-68h-143v68q-69 2 -125.5 23t-96.5 57.5t-62 87t-22 112.5q0 61 22 111t62 86t96.5 56.5t125.5 22.5v49h143v-49q70 -2 126 -23t96 -57t61.5 -85.5t21.5 -110.5zM182 345q0 -72 42.5 -112.5t122.5 -43.5
v314q-79 -3 -122 -44.5t-43 -113.5zM490 189q81 4 123 43.5t42 112.5t-43 113.5t-122 44.5v-314z" />
    <glyph glyph-name="uni0425" unicode="&#x425;" horiz-adv-x="653" 
d="M468 0l-142 241l-142 -241h-162l214 346l-202 327h161l132 -223l128 223h162l-201 -327l215 -346h-163z" />
    <glyph glyph-name="uni0427" unicode="&#x427;" horiz-adv-x="634" 
d="M556 673v-673h-143v237q-56 -17 -110 -17q-125 0 -190.5 65.5t-65.5 191.5v196h143v-184q0 -70 32 -103.5t101 -33.5q23 0 45 4t45 14v303h143z" />
    <glyph glyph-name="uni0426" unicode="&#x426;" horiz-adv-x="703" 
d="M548 0h-470v673h143v-544h230v544h143v-544h89v-254h-135v125z" />
    <glyph glyph-name="uni0428" unicode="&#x428;" horiz-adv-x="924" 
d="M78 673h144v-544h168v544h144v-544h169v544h143v-673h-768v673z" />
    <glyph glyph-name="uni0429" unicode="&#x429;" horiz-adv-x="955" 
d="M798 0h-720v673h144v-544h168v544h144v-544h169v544h143v-544h89v-254h-137v125z" />
    <glyph glyph-name="uni040F" unicode="&#x40f;" horiz-adv-x="676" 
d="M598 0h-192v-125h-135v125h-193v673h143v-544h234v544h143v-673z" />
    <glyph glyph-name="uni042C" unicode="&#x42c;" horiz-adv-x="601" 
d="M78 673h143v-227h110q54 0 97 -15.5t74 -45t47.5 -70.5t16.5 -92t-16.5 -92t-47 -70.5t-74 -45t-97.5 -15.5h-253v673zM322 126q45 0 71.5 25.5t26.5 70.5q0 46 -26.5 72t-71.5 26h-102v-194h102z" />
    <glyph glyph-name="uni042A" unicode="&#x42a;" horiz-adv-x="635" 
d="M113 544h-137v129h280v-227h110q54 0 97 -15.5t73.5 -45t47 -70.5t16.5 -92t-16.5 -92t-47 -70.5t-73.5 -45t-97 -15.5h-253v544zM357 126q45 0 71.5 25.5t26.5 70.5q0 46 -26.5 72t-71.5 26h-102v-194h102z" />
    <glyph glyph-name="uni042B" unicode="&#x42b;" horiz-adv-x="856" 
d="M78 673h143v-227h110q54 0 97 -15.5t74 -45t47.5 -70.5t16.5 -92t-16.5 -92t-47 -70.5t-74 -45t-97.5 -15.5h-253v673zM322 126q45 0 71.5 25.5t26.5 70.5q0 46 -26.5 72t-71.5 26h-102v-194h102zM635 673h143v-673h-143v673z" />
    <glyph glyph-name="uni0409" unicode="&#x409;" horiz-adv-x="906" 
d="M-9 126q38 0 63 17t40 50t21 82.5t6 114.5v283h418v-227h101q53 0 96 -15.5t73 -44.5t46 -70t16 -92q0 -52 -16 -93.5t-46 -70.5t-73 -44.5t-96 -15.5h-243v544h-139v-154q0 -98 -14 -172.5t-46 -124t-83 -74.5t-124 -25v132zM631 126q44 0 69.5 25.5t25.5 71.5t-25 71.5
t-70 25.5h-92v-194h92z" />
    <glyph glyph-name="uni040A" unicode="&#x40a;" horiz-adv-x="1002" 
d="M78 673h143v-251h240v251h143v-229h131q54 0 97 -15.5t73 -44.5t46 -70t16 -92q0 -104 -61.5 -163t-170.5 -59h-274v294h-240v-294h-143v673zM726 126q45 0 70 25t25 70q0 46 -25 71.5t-70 25.5h-122v-192h122z" />
    <glyph glyph-name="uni0405" unicode="&#x405;" horiz-adv-x="556" 
d="M283 -13q-113 0 -179.5 59t-70.5 164h139q2 -51 30.5 -79.5t77.5 -28.5q47 0 74 21.5t27 57.5q0 30 -18 48t-66 37l-79 30q-85 32 -124 80t-39 120q0 42 16.5 77t47 60t72.5 38.5t93 13.5q101 0 160.5 -52.5t66.5 -149.5h-137q-2 42 -25 65t-65 23q-41 0 -65 -19t-24 -51
t19 -52.5t64 -37.5l84 -32q87 -33 124 -76.5t37 -112.5q0 -47 -17 -84.5t-48 -64t-75.5 -40.5t-99.5 -14z" />
    <glyph glyph-name="uni0404" unicode="&#x404;" horiz-adv-x="777" 
d="M397 119q75 0 125.5 39t67.5 107h149q-8 -62 -36 -113t-73 -87.5t-104.5 -56.5t-128.5 -20q-79 0 -144.5 25.5t-113 71.5t-73.5 110t-26 141t26 141.5t73.5 110.5t113 71.5t144.5 25.5q69 0 128.5 -20t104.5 -56.5t73.5 -87.5t35.5 -113h-149q-17 68 -67.5 107t-125.5 39
q-77 0 -131 -41t-72 -111h284v-121h-286q16 -75 71 -118.5t134 -43.5z" />
    <glyph glyph-name="uni042D" unicode="&#x42d;" horiz-adv-x="777" 
d="M380 119q79 0 134 43.5t71 118.5h-286v121h284q-18 70 -72 111t-131 41q-75 0 -125.5 -39t-67.5 -107h-149q7 62 35.5 113t73.5 87.5t104.5 56.5t128.5 20q79 0 144.5 -25.5t112.5 -71.5t73.5 -110.5t26.5 -141.5t-26 -141t-73.5 -110t-113 -71.5t-144.5 -25.5
q-69 0 -128.5 20t-104.5 56.5t-73.5 87.5t-35.5 113h149q17 -68 67.5 -107t125.5 -39z" />
    <glyph glyph-name="uni0406" unicode="&#x406;" horiz-adv-x="299" 
d="M78 673h143v-673h-143v673z" />
    <glyph glyph-name="uni0407" unicode="&#x407;" horiz-adv-x="299" 
d="M31 735q-34 0 -57.5 23t-23.5 55q0 33 23 56t58 23q36 0 59 -22t23 -57q0 -32 -23.5 -55t-58.5 -23zM259 735q-34 0 -58 23.5t-24 54.5q0 33 23.5 56t58.5 23t58.5 -22t23.5 -57q0 -16 -6.5 -30.5t-17.5 -25t-26 -16.5t-32 -6zM78 673h143v-673h-143v673z" />
    <glyph glyph-name="uni0408" unicode="&#x408;" horiz-adv-x="379" 
d="M10 129h61q45 0 66 18t21 56v470h142v-488q0 -185 -202 -185h-88v129z" />
    <glyph glyph-name="uni040B" unicode="&#x40b;" horiz-adv-x="712" 
d="M414 417q121 0 187 -66t66 -186v-165h-143v158q0 132 -125 132q-47 0 -97 -20v-270h-142v544h-130v129h451v-129h-179v-145q28 8 56.5 13t55.5 5z" />
    <glyph glyph-name="uni042E" unicode="&#x42e;" horiz-adv-x="1067" 
d="M670 -12q-70 0 -130.5 21t-107 59.5t-77 91.5t-40.5 116h-94v-276h-143v673h143v-268h95q11 62 42 113.5t77.5 88.5t106 57.5t128.5 20.5q78 0 144 -26.5t114 -73t75 -110t27 -138.5t-27 -139t-75 -110.5t-114 -73t-144 -26.5zM669 119q46 0 84.5 16.5t66.5 45.5t44 69
t16 88q0 46 -16 86t-44 68.5t-66.5 45t-84.5 16.5q-45 0 -84 -16.5t-67 -45t-44 -68.5t-16 -86q0 -48 16 -88t44 -69t66.5 -45.5t84.5 -16.5z" />
    <glyph glyph-name="uni042F" unicode="&#x42f;" horiz-adv-x="616" 
d="M538 673v-673h-143v239h-57l-152 -239h-166l168 253q-69 22 -105 74t-36 128q0 51 16.5 91t47.5 68.5t75.5 43.5t100.5 15h251zM395 554h-105q-48 0 -75 -26t-27 -74t27 -74.5t75 -26.5h105v201z" />
    <glyph glyph-name="uni0402" unicode="&#x402;" horiz-adv-x="707" 
d="M431 418q113 0 177.5 -56.5t64.5 -154.5q0 -109 -70.5 -163t-207.5 -50v118q69 0 100.5 22t31.5 70q0 88 -115 88q-55 0 -110 -21v-271h-142v544h-130v129h451v-129h-179v-144q63 18 129 18z" />
    <glyph glyph-name="uni0462" unicode="&#x462;" horiz-adv-x="682" 
d="M140 493h-125v110h125v76h142v-76h232v-110h-232v-63h128q54 0 97.5 -15t74 -43.5t47 -68.5t16.5 -90q0 -100 -62 -156.5t-173 -56.5h-270v493zM402 121q46 0 72 25t26 68q0 45 -26 70t-72 25h-120v-188h120z" />
    <glyph glyph-name="uni0472" unicode="&#x472;" horiz-adv-x="797" 
d="M400 685q78 0 144 -26.5t114 -73t75 -110t27 -138.5t-27 -139t-75 -110.5t-114 -73t-144 -26.5t-144 26.5t-114 73t-75 110.5t-27 139t27 139t75 110.5t114 72.5t144 26zM400 554q-39 0 -72.5 -12t-60.5 -33.5t-45.5 -52t-26.5 -66.5q53 25 105 25q28 0 52.5 -6
t47.5 -12.5t47.5 -12.5t53.5 -6q25 0 49 5t53 16q-9 34 -27.5 63t-45 49t-59.5 31.5t-71 11.5zM400 119q78 0 133 45t72 119q-28 -14 -52.5 -19.5t-51.5 -5.5q-29 0 -54 6t-48 12.5t-47 12.5t-52 6q-25 0 -49.5 -5t-53.5 -16q9 -35 28 -63.5t45.5 -49t59 -31.5t70.5 -11z
" />
    <glyph glyph-name="uni0474" unicode="&#x474;" horiz-adv-x="674" 
d="M674 673v-129h-34q-26 0 -42.5 -14.5t-27.5 -49.5l-164 -480h-153l-237 673h154l160 -499l121 375q21 67 55.5 95.5t93.5 28.5h74z" />
    <glyph glyph-name="uni0492" unicode="&#x492;" horiz-adv-x="515" 
d="M243 544v-163h193v-129h-193v-252h-143v252h-84v129h84v292h385v-129h-242z" />
    <glyph glyph-name="uni0496" unicode="&#x496;" horiz-adv-x="962" 
d="M807 0h-50l-223 313v-313h-143v317l-225 -317h-170l256 354l-238 319h164l213 -287v287h143v-283l211 283h164l-239 -318l163 -226h109v-254h-135v125z" />
    <glyph glyph-name="uni0498" unicode="&#x498;" horiz-adv-x="552" 
d="M407 354q54 -24 82.5 -66.5t28.5 -99.5q0 -41 -16 -77t-46.5 -63.5t-76 -43.5t-104.5 -16q-115 0 -178 60t-68 167h134q3 -47 34.5 -73.5t77.5 -26.5q48 0 75.5 26t27.5 64q0 14 -5 30t-18 29t-35 21.5t-56 8.5h-63v110h60q29 0 48 7t30 18t15 24.5t4 27.5
q0 36 -24.5 62.5t-71.5 26.5q-42 0 -69 -24t-30 -71h-129q3 50 21 89t48.5 66t72 41t91.5 14q53 0 94 -15t69.5 -41t43.5 -60.5t15 -73.5q0 -48 -21 -83.5t-61 -57.5zM349 12v-137h-125v137h125z" />
    <glyph glyph-name="uni049A" unicode="&#x49a;" horiz-adv-x="659" 
d="M504 0h-46l-237 312v-312h-143v673h143v-283l225 283h164l-252 -318l172 -226h109v-254h-135v125z" />
    <glyph glyph-name="uni04A0" unicode="&#x4a0;" horiz-adv-x="649" 
d="M-24 673h269v-283l225 283h164l-252 -318l270 -355h-170l-237 312v-312h-143v544h-126v129z" />
    <glyph glyph-name="uni04A2" unicode="&#x4a2;" horiz-adv-x="727" 
d="M708 129v-254h-136v125h-96v287h-256v-287h-142v673h142v-257h256v257h142v-544h90z" />
    <glyph glyph-name="uni04AA" unicode="&#x4aa;" horiz-adv-x="779" 
d="M460 12v-137h-125v137h125zM396 -12q-78 0 -143.5 26t-113 72.5t-74 110.5t-26.5 140q0 75 27 138.5t74.5 110t113 73t142.5 26.5q69 0 129 -20t105.5 -56.5t74 -87.5t36.5 -113h-150q-17 67 -69.5 106.5t-125.5 39.5q-45 0 -83 -16.5t-65.5 -45.5t-43.5 -68.5t-16 -86.5
t15.5 -87t43.5 -69t66 -45.5t83 -16.5q73 0 125.5 39.5t69.5 106.5h150q-8 -62 -37 -113t-74 -87.5t-105 -56.5t-129 -20z" />
    <glyph glyph-name="uni04AE" unicode="&#x4ae;" horiz-adv-x="624" 
d="M384 289v-289h-143v289l-224 384h164l132 -253l131 253h163z" />
    <glyph glyph-name="uni04B0" unicode="&#x4b0;" horiz-adv-x="648" 
d="M406 306h155v-124h-165v-182h-143v182h-165v124h155l-214 367h164l132 -253l131 253h163z" />
    <glyph glyph-name="uni04B2" unicode="&#x4b2;" horiz-adv-x="672" 
d="M518 0h-50l-142 241l-142 -241h-162l214 346l-202 327h161l132 -223l128 223h162l-201 -327l135 -217h102v-254h-135v125z" />
    <glyph glyph-name="uni04B6" unicode="&#x4b6;" horiz-adv-x="664" 
d="M645 129v-254h-136v125h-96v237q-56 -17 -110 -17q-125 0 -190.5 65.5t-65.5 191.5v196h143v-184q0 -70 32 -103.5t101 -33.5q23 0 45 4t45 14v303h143v-544h89z" />
    <glyph glyph-name="uni04BA" unicode="&#x4ba;" horiz-adv-x="634" 
d="M78 0v673h143v-237q56 17 110 17q125 0 190.5 -65.5t65.5 -191.5v-196h-143v184q0 70 -32 103.5t-101 33.5q-23 0 -45 -4t-45 -14v-303h-143z" />
    <glyph glyph-name="uni04C0" unicode="&#x4c0;" horiz-adv-x="299" 
d="M78 673h143v-673h-143v673z" />
    <glyph glyph-name="uni04D8" unicode="&#x4d8;" horiz-adv-x="780" 
d="M387 685q78 0 143.5 -25.5t113 -71.5t73.5 -110t26 -140t-26.5 -140t-74 -110.5t-112.5 -73t-142 -26.5q-83 0 -150.5 30t-114 83t-68 126t-13.5 160h547q-14 77 -67.5 122t-135.5 45q-59 0 -103.5 -22.5t-64.5 -63.5h-156q16 51 46.5 91t72.5 68t94 43t112 15zM388 119
q79 0 130.5 40.5t68.5 112.5h-399q11 -70 64.5 -111.5t135.5 -41.5z" />
    <glyph glyph-name="uni04E2" unicode="&#x4e2;" horiz-adv-x="697" 
d="M621 673v-673h-144v457l-255 -457h-142v673h143v-451l252 451h146zM189 861h317v-106h-317v106z" />
    <glyph glyph-name="uni04E6" unicode="&#x4e6;" horiz-adv-x="797" 
d="M282 735q-34 0 -57.5 23t-23.5 55q0 33 23 56t58 23q36 0 59 -22t23 -57q0 -32 -23.5 -55t-58.5 -23zM510 735q-34 0 -58 23.5t-24 54.5q0 33 23.5 56t58.5 23t58.5 -22t23.5 -57q0 -16 -6.5 -30.5t-17.5 -25t-26 -16.5t-32 -6zM399 -12q-78 0 -144 26.5t-114 73
t-75 110.5t-27 139t27 139t75 110.5t114 72.5t144 26t144 -26.5t114 -73t75 -110t27 -138.5t-27 -139t-75 -110.5t-114 -73t-144 -26.5zM398 119q46 0 84.5 16.5t66.5 45.5t44 69t16 88q0 46 -16 86t-44 68.5t-66.5 45t-84.5 16.5q-45 0 -84 -16.5t-67 -45t-44 -68.5
t-16 -86q0 -48 16 -88t44 -69t66.5 -45.5t84.5 -16.5z" />
    <glyph glyph-name="uni04E8" unicode="&#x4e8;" horiz-adv-x="797" 
d="M400 685q78 0 144 -26.5t114 -73t75 -110t27 -138.5t-27 -139t-75 -110.5t-114 -73t-144 -26.5t-144 26.5t-114 73t-75 110.5t-27 139t27 139t75 110.5t114 72.5t144 26zM400 554q-38 0 -71 -11t-59 -31t-45 -48.5t-28 -63.5h407q-18 71 -73 112.5t-131 41.5zM400 119
q39 0 73 11.5t60.5 32.5t45 51.5t26.5 68.5h-410q8 -38 26.5 -68.5t45 -51.5t60.5 -32.5t73 -11.5z" />
    <glyph glyph-name="uni04EE" unicode="&#x4ee;" horiz-adv-x="642" 
d="M637 673l-327 -673h-160l106 208l-247 465h164l162 -322l142 322h160zM171 861h317v-106h-317v106z" />
    <glyph glyph-name="uni04F2" unicode="&#x4f2;" horiz-adv-x="642" 
d="M637 673l-327 -673h-160l106 208l-247 465h164l162 -322l142 322h160zM279 910h122l-98 -180h-114zM470 910h136l-128 -180h-105z" />
    <glyph glyph-name="uni0414.aalt" horiz-adv-x="726" 
d="M707 129v-254h-133v125h-422v-125h-133v254h64l206 544h154l201 -544h63zM231 129h267l-132 386z" />
    <glyph glyph-name="uni041B.aalt" horiz-adv-x="647" 
d="M477 0l-151 490l-156 -490h-154l233 673h152l231 -673h-155z" />
    <glyph glyph-name="uni0413.aalt" horiz-adv-x="310" 
d="M297 673v-102h-133v-302h-113v404h246z" />
    <glyph glyph-name="uni0415.aalt" horiz-adv-x="336" 
d="M52 673h253v-96h-140v-57h133v-90h-133v-65h145v-96h-258v404z" />
    <glyph glyph-name="uni0419.aalt" horiz-adv-x="444" 
d="M223 703q-62 0 -98 30.5t-36 84.5h82q0 -19 13 -31.5t39 -12.5t38.5 12.5t12.5 31.5h82q0 -54 -35.5 -84.5t-97.5 -30.5zM394 673v-404h-111v225l-118 -225h-113v404h112v-223l118 223h112z" />
    <glyph glyph-name="uni041C.aalt" horiz-adv-x="548" 
d="M499 673v-404h-112v221l-72 -221h-80l-72 226v-226h-111v404h146l78 -244l74 244h149z" />
    <glyph glyph-name="uni041E.aalt" horiz-adv-x="490" 
d="M245 261q-49 0 -89.5 15.5t-70 43.5t-45.5 66.5t-16 84.5t16 84.5t45.5 66.5t70 43.5t89.5 15.5q48 0 89 -15.5t70 -43.5t45.5 -66.5t16.5 -84.5t-16.5 -84.5t-46 -66.5t-70 -43.5t-88.5 -15.5zM245 365q46 0 74.5 30t28.5 77q0 45 -28.5 75t-74.5 30q-45 0 -74 -29.5
t-29 -75.5q0 -47 28.5 -77t74.5 -30z" />
    <glyph glyph-name="uni0425.aalt" horiz-adv-x="420" 
d="M278 269l-68 131l-67 -131h-129l125 211l-118 193h128l64 -118l57 118h129l-115 -197l123 -207h-129z" />
    <glyph glyph-name="uni042F.aalt" horiz-adv-x="397" 
d="M347 673v-404h-113v127h-28l-64 -127h-128l82 150q-29 17 -45 46.5t-16 68.5q0 63 40.5 101t113.5 38h158zM234 575h-42q-20 0 -31.5 -11.5t-11.5 -31.5q0 -18 10.5 -30.5t32.5 -12.5h42v86z" />
    <glyph glyph-name="uni0430" unicode="&#x430;" horiz-adv-x="541" 
d="M267 508q101 0 158.5 -53t57.5 -147v-308h-126v47q-54 -59 -152 -59q-79 0 -124.5 39.5t-45.5 109.5q0 72 49 112t139 40h126v24q0 43 -23 65.5t-65 22.5q-69 0 -78 -63h-126q5 79 60.5 124.5t149.5 45.5zM243 84q48 0 77 27t29 72v17h-100q-78 0 -78 -58t72 -58z" />
    <glyph glyph-name="uni0431" unicode="&#x431;" horiz-adv-x="590" 
d="M332 447q48 0 89 -17t71 -47t47.5 -71t17.5 -88q0 -51 -19 -94.5t-52 -75t-79 -49t-100 -17.5q-59 0 -107.5 20t-83 57t-53.5 88t-19 114v29q0 83 15 143.5t48 103.5t86.5 70.5t131.5 45.5l192 42v-128l-185 -39q-40 -8 -68.5 -20t-47.5 -28.5t-29 -39.5t-13 -53
q32 26 72.5 40t85.5 14zM307 101q24 0 45 9.5t36.5 25.5t24.5 38t9 47q0 49 -32 80.5t-82 31.5q-26 0 -48 -8.5t-38.5 -24t-26 -36.5t-9.5 -45q0 -25 9.5 -46.5t26 -37.5t38.5 -25t47 -9z" />
    <glyph glyph-name="uni0432" unicode="&#x432;" horiz-adv-x="545" 
d="M425 262q85 -33 85 -116q0 -33 -12.5 -60t-35.5 -46t-55 -29.5t-72 -10.5h-264v496h232q82 0 129 -35.5t47 -97.5q0 -65 -54 -101zM198 299h98q28 0 43.5 13.5t15.5 36.5q0 48 -59 48h-98v-98zM313 101q67 0 67 56q0 54 -67 54h-115v-110h115z" />
    <glyph glyph-name="uni0433" unicode="&#x433;" horiz-adv-x="411" 
d="M71 496h335v-120h-195v-376h-140v496z" />
    <glyph glyph-name="uni0453" unicode="&#x453;" horiz-adv-x="411" 
d="M71 496h335v-120h-195v-376h-140v496zM266 739h156l-115 -179h-122z" />
    <glyph glyph-name="uni0491" unicode="&#x491;" horiz-adv-x="445" 
d="M71 496h236v129h132v-249h-228v-376h-140v496z" />
    <glyph glyph-name="uni0434" unicode="&#x434;" horiz-adv-x="634" 
d="M611 117v-242h-132v125h-329v-125h-133v242h21q48 0 68 44.5t20 147.5v187h401v-379h84zM265 303q0 -131 -48 -186h171v265h-123v-79z" />
    <glyph glyph-name="uni0435" unicode="&#x435;" horiz-adv-x="586" 
d="M299 508q60 0 109 -22.5t82.5 -62.5t50 -94.5t10.5 -118.5h-376q10 -51 44.5 -80.5t86.5 -29.5q39 0 63.5 13.5t38.5 42.5h135q-24 -80 -86.5 -124t-152.5 -44q-58 0 -107 19t-84.5 53.5t-55.5 82t-20 103.5t20 104t55 83t83 55t104 20zM299 396q-43 0 -74 -25t-45 -67
h235q-8 42 -39 67t-77 25z" />
    <glyph glyph-name="uni0450" unicode="&#x450;" horiz-adv-x="586" 
d="M299 508q60 0 109 -22.5t82.5 -62.5t50 -94.5t10.5 -118.5h-376q10 -51 44.5 -80.5t86.5 -29.5q39 0 63.5 13.5t38.5 42.5h135q-24 -80 -86.5 -124t-152.5 -44q-58 0 -107 19t-84.5 53.5t-55.5 82t-20 103.5t20 104t55 83t83 55t104 20zM299 396q-43 0 -74 -25t-45 -67
h235q-8 42 -39 67t-77 25zM123 739h157l81 -179h-122z" />
    <glyph glyph-name="uni0451" unicode="&#x451;" horiz-adv-x="586" 
d="M299 508q60 0 109 -22.5t82.5 -62.5t50 -94.5t10.5 -118.5h-376q10 -51 44.5 -80.5t86.5 -29.5q39 0 63.5 13.5t38.5 42.5h135q-24 -80 -86.5 -124t-152.5 -44q-58 0 -107 19t-84.5 53.5t-55.5 82t-20 103.5t20 104t55 83t83 55t104 20zM299 396q-43 0 -74 -25t-45 -67
h235q-8 42 -39 67t-77 25zM190 575q-16 0 -30.5 6t-25 16.5t-16.5 24.5t-6 29q0 32 22.5 54t55.5 22q35 0 56.5 -21.5t21.5 -54.5q0 -32 -22.5 -54t-55.5 -22zM404 575q-16 0 -30.5 6t-25 16.5t-16.5 24.5t-6 29q0 32 22.5 54t55.5 22q35 0 56.5 -21.5t21.5 -54.5
q0 -32 -22.5 -54t-55.5 -22z" />
    <glyph glyph-name="uni0436" unicode="&#x436;" horiz-adv-x="760" 
d="M614 0l-164 223v-223h-140v224l-165 -224h-156l193 260l-179 236h152l155 -207v207h140v-206l156 206h152l-180 -235l192 -261h-156z" />
    <glyph glyph-name="uni0437" unicode="&#x437;" horiz-adv-x="499" 
d="M389 262q39 -15 60.5 -44.5t21.5 -75.5q0 -38 -17 -66.5t-46 -48t-68 -29.5t-84 -10q-47 0 -87.5 10.5t-70.5 32.5t-47.5 55t-18.5 77h127q4 -38 31 -52.5t61 -14.5q38 0 62.5 14.5t24.5 46.5q0 23 -19 38t-64 15h-77v88h64q45 0 59 14.5t14 34.5q0 27 -18.5 39.5
t-49.5 12.5t-52 -12.5t-29 -43.5h-124q2 40 19 71t45 51.5t65.5 31t80.5 10.5q37 0 71 -9.5t60 -27.5t42 -44.5t16 -60.5q0 -33 -14.5 -59.5t-37.5 -43.5z" />
    <glyph glyph-name="uni0438" unicode="&#x438;" horiz-adv-x="607" 
d="M536 500v-500h-140v294l-201 -298h-124v500h140v-290l199 294h126z" />
    <glyph glyph-name="uni0439" unicode="&#x439;" horiz-adv-x="607" 
d="M536 500v-500h-140v294l-201 -298h-124v500h140v-290l199 294h126zM303 559q-84 0 -129 45.5t-45 129.5h102q0 -82 72 -82q71 0 71 82h103q0 -84 -45 -129.5t-129 -45.5z" />
    <glyph glyph-name="uni045D" unicode="&#x45d;" horiz-adv-x="607" 
d="M536 500v-500h-140v294l-201 -298h-124v500h140v-290l199 294h126zM129 739h157l81 -179h-122z" />
    <glyph glyph-name="uni043A" unicode="&#x43a;" horiz-adv-x="527" 
d="M377 0l-166 213v-213h-140v496h140v-212l157 212h155l-180 -242l195 -254h-161z" />
    <glyph glyph-name="uni045C" unicode="&#x45c;" horiz-adv-x="527" 
d="M377 0l-166 213v-213h-140v496h140v-212l157 212h155l-180 -242l195 -254h-161zM304 739h156l-115 -179h-122z" />
    <glyph glyph-name="uni043B" unicode="&#x43b;" horiz-adv-x="574" 
d="M4 117q30 0 50 11.5t31 35.5t15.5 61.5t4.5 90.5v180h398v-496h-140v378h-124v-82q0 -78 -12 -135t-40 -93.5t-72.5 -54t-110.5 -17.5v121z" />
    <glyph glyph-name="uni043C" unicode="&#x43c;" horiz-adv-x="726" 
d="M655 496v-496h-118v323l-127 -323h-94l-126 321v-321h-119v496h167l126 -332l124 332h167z" />
    <glyph glyph-name="uni043D" unicode="&#x43d;" horiz-adv-x="599" 
d="M71 496h140v-181h177v181h140v-496h-140v197h-177v-197h-140v496z" />
    <glyph glyph-name="uni043E" unicode="&#x43e;" horiz-adv-x="608" 
d="M304 -12q-57 0 -106 20t-85.5 55t-57 82.5t-20.5 102.5t20.5 102.5t57 82.5t85.5 55t106 20t106 -20t85.5 -55t57 -82.5t20.5 -102.5t-20.5 -102.5t-57 -82.5t-85.5 -55t-106 -20zM304 111q28 0 51.5 10t41 28.5t27 43.5t9.5 55q0 60 -36 98t-93 38t-93 -38t-36 -98
q0 -30 9.5 -55t27 -43.5t41 -28.5t51.5 -10z" />
    <glyph glyph-name="uni043F" unicode="&#x43f;" horiz-adv-x="590" 
d="M71 496h449v-496h-140v377h-169v-377h-140v496z" />
    <glyph glyph-name="uni0440" unicode="&#x440;" horiz-adv-x="632" 
d="M355 508q52 0 96 -19.5t75.5 -54t49 -82t17.5 -104.5t-17.5 -105t-48.5 -82.5t-74.5 -53.5t-94.5 -19q-48 0 -87.5 17.5t-65.5 49.5v-218h-140v659h128v-65q25 36 66.5 56.5t95.5 20.5zM326 112q57 0 92.5 37.5t35.5 98.5t-35.5 98.5t-92.5 37.5t-91 -37t-34 -99t34 -99
t91 -37z" />
    <glyph glyph-name="uni0441" unicode="&#x441;" horiz-adv-x="588" 
d="M302 -12q-57 0 -106 20t-84.5 54.5t-56 82t-20.5 102.5t20.5 103t56 83t84.5 55t106 20q49 0 92 -14.5t76 -41t54.5 -64t28.5 -82.5h-136q-11 36 -41.5 56.5t-72.5 20.5q-28 0 -51.5 -10t-40.5 -28t-26.5 -43t-9.5 -55q0 -60 35.5 -97t92.5 -37q42 0 72.5 20.5t41.5 56.5
h136q-7 -45 -28.5 -82.5t-54.5 -64t-76 -41t-92 -14.5z" />
    <glyph glyph-name="uni0442" unicode="&#x442;" horiz-adv-x="460" 
d="M160 379h-153v118h446v-118h-153v-379h-140v379z" />
    <glyph glyph-name="uni0443" unicode="&#x443;" horiz-adv-x="534" 
d="M525 496l-243 -659h-154l63 165l-182 494h148l110 -344l110 344h148z" />
    <glyph glyph-name="uni045E" unicode="&#x45e;" horiz-adv-x="534" 
d="M525 496l-243 -659h-154l63 165l-182 494h148l110 -344l110 344h148zM267 559q-84 0 -129 45.5t-45 129.5h102q0 -82 72 -82q71 0 71 82h103q0 -84 -45 -129.5t-129 -45.5z" />
    <glyph glyph-name="uni0444" unicode="&#x444;" horiz-adv-x="767" 
d="M313 -10q-64 1 -115.5 19.5t-87.5 52t-55.5 80.5t-19.5 106q0 58 19.5 105t56 81t88 52.5t114.5 19.5v167h140v-167q64 -1 115.5 -19.5t88 -52t56 -81t19.5 -105.5q0 -59 -19.5 -106.5t-55.5 -81t-88 -52t-116 -18.5v-153h-140v153zM313 386q-67 -3 -102.5 -38.5
t-35.5 -99.5t36 -100t102 -38v276zM453 110q66 2 102.5 38t36.5 100t-36.5 100t-102.5 38v-276z" />
    <glyph glyph-name="uni0445" unicode="&#x445;" horiz-adv-x="552" 
d="M386 0l-111 160l-109 -160h-161l182 255l-171 241h161l99 -147l99 147h161l-172 -240l183 -256h-161z" />
    <glyph glyph-name="uni0447" unicode="&#x447;" horiz-adv-x="560" 
d="M489 496v-496h-140v158q-21 -5 -42 -8.5t-40 -3.5q-106 0 -164 58t-58 170v122h142v-109q0 -57 25.5 -84.5t73.5 -27.5q30 0 63 11v210h140z" />
    <glyph glyph-name="uni0446" unicode="&#x446;" horiz-adv-x="628" 
d="M471 0h-400v496h140v-377h169v377h140v-377h84v-244h-133v125z" />
    <glyph glyph-name="uni0448" unicode="&#x448;" horiz-adv-x="796" 
d="M71 496h140v-378h118v378h139v-378h118v378h140v-496h-655v496z" />
    <glyph glyph-name="uni0449" unicode="&#x449;" horiz-adv-x="834" 
d="M677 0h-606v496h140v-378h118v378h139v-378h118v378h140v-378h84v-243h-133v125z" />
    <glyph glyph-name="uni045F" unicode="&#x45f;" horiz-adv-x="590" 
d="M520 0h-158v-125h-133v125h-158v496h140v-377h169v377h140v-496z" />
    <glyph glyph-name="uni044C" unicode="&#x44c;" horiz-adv-x="518" 
d="M71 496h140v-131h69q99 0 154.5 -48t55.5 -133q0 -86 -56 -135t-154 -49h-209v496zM269 110q83 0 83 73q0 35 -22 54.5t-61 19.5h-62v-147h62z" />
    <glyph glyph-name="uni044A" unicode="&#x44a;" horiz-adv-x="554" 
d="M103 377h-116v119h256v-131h74q99 0 154.5 -47t55.5 -134q0 -88 -56 -136t-154 -48h-214v377zM307 109q82 0 82 74q0 35 -21.5 54.5t-60.5 19.5h-67v-148h67z" />
    <glyph glyph-name="uni044B" unicode="&#x44b;" horiz-adv-x="760" 
d="M71 496h140v-131h69q99 0 154.5 -48t55.5 -133q0 -86 -56 -135t-154 -49h-209v496zM269 110q83 0 83 73q0 35 -22 54.5t-61 19.5h-62v-147h62zM549 496h140v-496h-140v496z" />
    <glyph glyph-name="uni0459" unicode="&#x459;" horiz-adv-x="826" 
d="M4 117q61 0 83.5 45t22.5 142v192h404v-134h74q98 0 153.5 -47.5t55.5 -130.5q0 -86 -56 -135t-153 -49h-214v378h-129v-94q0 -74 -13 -128t-42 -89.5t-74.5 -53t-111.5 -17.5v121zM578 110q82 0 82 73q0 34 -22 53t-60 19h-67v-145h67z" />
    <glyph glyph-name="uni045A" unicode="&#x45a;" horiz-adv-x="834" 
d="M71 496h140v-174h171v174h140v-138h78q97 0 151.5 -46t54.5 -131t-54.5 -133t-151.5 -48h-218v203h-171v-203h-140v496zM590 114q78 0 78 66q0 32 -20 49t-58 17h-71v-132h71z" />
    <glyph glyph-name="uni0455" unicode="&#x455;" horiz-adv-x="459" 
d="M237 -12q-96 0 -151.5 45t-60.5 125h134q6 -62 79 -62q64 0 64 43q0 17 -10 26t-37 16l-81 22q-63 17 -97 56t-34 95q0 35 13.5 63.5t38 48.5t59.5 31t77 11q85 0 136 -42t57 -116h-130q-3 24 -20 37t-44 13q-26 0 -41 -11t-15 -31q0 -30 42 -40l85 -23q66 -17 100 -55.5
t34 -95.5q0 -73 -52.5 -114.5t-145.5 -41.5z" />
    <glyph glyph-name="uni0454" unicode="&#x454;" horiz-adv-x="588" 
d="M304 105q45 0 77 22.5t44 62.5h128q-7 -45 -28.5 -82.5t-54.5 -64t-75.5 -41t-91.5 -14.5q-57 0 -106 20t-85 54.5t-56.5 82t-20.5 102.5t20.5 103t56.5 83t85 55t106 20q49 0 91.5 -14.5t75.5 -41t54.5 -64t28.5 -82.5h-128q-12 39 -44 62t-77 23q-47 0 -81 -24.5
t-48 -66.5h172v-99h-174q13 -44 47.5 -70t83.5 -26z" />
    <glyph glyph-name="uni044D" unicode="&#x44d;" horiz-adv-x="588" 
d="M284 105q49 0 83.5 26t47.5 70h-174v99h172q-14 42 -48 66.5t-81 24.5q-45 0 -77 -23t-44 -62h-128q7 45 28.5 82.5t54.5 64t75.5 41t91.5 14.5q57 0 106 -20t85 -55t56.5 -83t20.5 -103t-20.5 -102.5t-56.5 -82t-85 -54.5t-106 -20q-49 0 -91.5 14.5t-75.5 41t-54.5 64
t-28.5 82.5h128q12 -40 44 -62.5t77 -22.5z" />
    <glyph glyph-name="uni0456" unicode="&#x456;" horiz-adv-x="270" 
d="M136 575q-36 0 -59.5 23t-23.5 58t23.5 58t59.5 23q35 0 58.5 -23t23.5 -58t-23.5 -58t-58.5 -23zM65 496h140v-496h-140v496z" />
    <glyph glyph-name="uni0457" unicode="&#x457;" horiz-adv-x="270" 
d="M65 496h140v-496h-140v496zM29 575q-16 0 -30.5 6t-25 16.5t-16.5 24.5t-6 29q0 32 22.5 54t55.5 22q35 0 56.5 -21.5t21.5 -54.5q0 -32 -22.5 -54t-55.5 -22zM243 575q-16 0 -30.5 6t-25 16.5t-16.5 24.5t-6 29q0 32 22.5 54t55.5 22q35 0 56.5 -21.5t21.5 -54.5
q0 -32 -22.5 -54t-55.5 -22z" />
    <glyph glyph-name="uni0458" unicode="&#x458;" horiz-adv-x="270" 
d="M137 575q-36 0 -59.5 23t-23.5 58t23.5 58t59.5 23q35 0 58.5 -23t23.5 -58t-23.5 -58t-58.5 -23zM-43 -49h32q41 0 58.5 17t17.5 56v472h139v-482q0 -86 -46 -131.5t-134 -45.5h-67v114z" />
    <glyph glyph-name="uni045B" unicode="&#x45b;" horiz-adv-x="598" 
d="M356 451q40 0 73.5 -14.5t57.5 -41t37 -63.5t13 -82v-250h-139v230q0 43 -23.5 68t-62.5 25t-64 -25.5t-25 -67.5v-230h-140v503h-78v108h78v62h140v-62h194v-108h-194v-105q51 53 133 53z" />
    <glyph glyph-name="uni044E" unicode="&#x44e;" horiz-adv-x="859" 
d="M555 -12q-50 0 -94 15.5t-78.5 43t-58.5 65.5t-33 83h-80v-195h-140v496h140v-180h84q11 42 35 77t58 60.5t76.5 40t90.5 14.5q57 0 106 -20t85.5 -55t57 -82.5t20.5 -102.5t-20.5 -102.5t-57 -82.5t-85.5 -55t-106 -20zM555 111q28 0 51.5 10t41 28.5t27 43.5t9.5 55
q0 60 -36 98t-93 38t-93 -38t-36 -98q0 -30 9.5 -55t27 -43.5t41 -28.5t51.5 -10z" />
    <glyph glyph-name="uni044F" unicode="&#x44f;" horiz-adv-x="549" 
d="M478 496v-496h-138v143h-60l-95 -143h-158l122 169q-40 21 -61.5 57t-21.5 86q0 88 55 136t153 48h204zM342 389h-59q-38 0 -58.5 -19t-20.5 -56q0 -35 21 -53.5t58 -18.5h59v147z" />
    <glyph glyph-name="uni0452" unicode="&#x452;" horiz-adv-x="597" 
d="M356 445q40 0 73.5 -14.5t57.5 -41t37 -63.5t13 -82v-239q0 -185 -187 -185h-60v112h24q45 0 64 19t19 61v213q0 42 -23 67t-62 25t-64 -25.5t-25 -66.5v-225h-140v503h-78v108h78v62h140v-62h194v-108h-194v-111q51 53 133 53z" />
    <glyph glyph-name="uni0463" unicode="&#x463;" horiz-adv-x="559" 
d="M103 429h-98v109h98v135h140v-135h172v-109h-172v-73h77q97 0 152 -47t55 -130t-55.5 -131t-151.5 -48h-217v429zM309 107q82 0 82 72q0 70 -82 70h-69v-142h69z" />
    <glyph glyph-name="uni0473" unicode="&#x473;" horiz-adv-x="608" 
d="M304 508q57 0 106 -20t85.5 -55t57 -82.5t20.5 -102.5t-20.5 -102.5t-57 -82.5t-85.5 -55t-106 -20t-106 20t-85.5 55t-57 82.5t-20.5 102.5t20.5 102.5t57 82.5t85.5 55t106 20zM304 393q-48 0 -82.5 -26t-47.5 -70q30 13 61 13q19 0 35.5 -4t32 -8.5t32 -8.5t36.5 -4
q16 0 30.5 3t32.5 9q-14 44 -48 70t-82 26zM304 102q50 0 85 28t47 75q-35 -16 -65 -16q-20 0 -36.5 4t-32.5 9t-32 9t-35 4q-31 0 -62 -12q12 -46 47 -73.5t84 -27.5z" />
    <glyph glyph-name="uni0475" unicode="&#x475;" horiz-adv-x="544" 
d="M537 496v-120h-30q-20 0 -30.5 -8.5t-18.5 -30.5l-115 -337h-152l-182 496h148l110 -347l81 248q17 54 45 76.5t80 22.5h64z" />
    <glyph glyph-name="uni0493" unicode="&#x493;" horiz-adv-x="488" 
d="M234 375v-103h206v-118h-206v-154h-140v154h-78v118h78v224h347v-121h-207z" />
    <glyph glyph-name="uni0497" unicode="&#x497;" horiz-adv-x="818" 
d="M661 0h-47l-164 223v-223h-140v224l-165 -224h-156l193 260l-179 236h152l155 -207v207h140v-206l156 206h152l-180 -235l105 -143h110v-243h-132v125z" />
    <glyph glyph-name="uni0499" unicode="&#x499;" horiz-adv-x="499" 
d="M389 262q39 -15 60.5 -44.5t21.5 -75.5q0 -38 -17 -66.5t-46 -48t-68 -29.5t-84 -10q-47 0 -87.5 10.5t-70.5 32.5t-47.5 55t-18.5 77h127q4 -38 31 -52.5t61 -14.5q38 0 62.5 14.5t24.5 46.5q0 23 -19 38t-64 15h-77v88h64q45 0 59 14.5t14 34.5q0 27 -18.5 39.5
t-49.5 12.5t-52 -12.5t-29 -43.5h-124q2 40 19 71t45 51.5t65.5 31t80.5 10.5q37 0 71 -9.5t60 -27.5t42 -44.5t16 -60.5q0 -33 -14.5 -59.5t-37.5 -43.5zM320 12v-137h-125v137h125z" />
    <glyph glyph-name="uni049B" unicode="&#x49b;" horiz-adv-x="585" 
d="M428 0h-51l-166 213v-213h-140v496h140v-212l157 212h155l-180 -242l104 -136h114v-243h-133v125z" />
    <glyph glyph-name="uni04A1" unicode="&#x4a1;" horiz-adv-x="542" 
d="M394 0l-168 222v-222h-140v377h-99v119h239v-202l160 202h155l-182 -233l194 -263h-159z" />
    <glyph glyph-name="uni04A3" unicode="&#x4a3;" horiz-adv-x="636" 
d="M479 0h-91v196h-177v-196h-140v496h140v-179h177v179h140v-377h84v-244h-133v125z" />
    <glyph glyph-name="uni04AB" unicode="&#x4ab;" horiz-adv-x="588" 
d="M369 12v-137h-125v137h125zM302 -12q-57 0 -106 20t-84.5 54.5t-56 82t-20.5 102.5t20.5 103t56 83t84.5 55t106 20q49 0 92 -14.5t76 -41t54.5 -64t28.5 -82.5h-136q-11 36 -41.5 56.5t-72.5 20.5q-28 0 -51.5 -10t-40.5 -28t-26.5 -43t-9.5 -55q0 -60 35.5 -97
t92.5 -37q42 0 72.5 20.5t41.5 56.5h136q-7 -45 -28.5 -82.5t-54.5 -64t-76 -41t-92 -14.5z" />
    <glyph glyph-name="uni04AF" unicode="&#x4af;" horiz-adv-x="532" 
d="M336 3v-176h-140v178l-187 491h149l109 -336l108 336h149z" />
    <glyph glyph-name="uni04B1" unicode="&#x4b1;" horiz-adv-x="562" 
d="M353 8h145v-111h-147v-70h-140v70h-146v111h145l-186 488h149l109 -336l108 336h149z" />
    <glyph glyph-name="uni04B3" unicode="&#x4b3;" horiz-adv-x="602" 
d="M578 118v-243h-133v125h-59l-111 160l-109 -160h-161l182 255l-171 241h161l99 -147l99 147h161l-172 -240l99 -138h115z" />
    <glyph glyph-name="uni04B7" unicode="&#x4b7;" horiz-adv-x="609" 
d="M585 119v-244h-133v125h-92v158q-23 -5 -45 -8.5t-42 -3.5q-112 0 -170 57.5t-58 169.5v123h140v-110q0 -111 107 -111q32 0 68 11v210h140v-377h85z" />
    <glyph glyph-name="uni04BB" unicode="&#x4bb;" horiz-adv-x="579" 
d="M338 508q40 0 73.5 -14.5t57.5 -41t37 -63.5t13 -82v-307h-139v288q0 42 -23.5 67t-62.5 25t-64 -25.5t-25 -66.5v-288h-140v673h140v-217q25 25 58 38.5t75 13.5z" />
    <glyph glyph-name="uni04CF" unicode="&#x4cf;" horiz-adv-x="281" 
d="M71 673h140v-673h-140v673z" />
    <glyph glyph-name="uni04D9" unicode="&#x4d9;" horiz-adv-x="586" 
d="M287 -12q-60 0 -109 22.5t-82.5 62.5t-50 94.5t-10.5 118.5h376q-10 51 -44.5 80.5t-86.5 29.5q-39 0 -63.5 -13.5t-38.5 -42.5h-135q24 80 86.5 124t152.5 44q58 0 107 -19t84.5 -53.5t55.5 -82t20 -103.5t-20 -104t-55 -83t-83 -55t-104 -20zM287 100q43 0 74 25t45 67
h-235q8 -42 39 -67t77 -25z" />
    <glyph glyph-name="uni04E3" unicode="&#x4e3;" horiz-adv-x="607" 
d="M536 500v-500h-140v294l-201 -298h-124v500h140v-290l199 294h126zM155 685h296v-101h-296v101z" />
    <glyph glyph-name="uni04E7" unicode="&#x4e7;" horiz-adv-x="608" 
d="M198 575q-16 0 -30.5 6t-25 16.5t-16.5 24.5t-6 29q0 32 22.5 54t55.5 22q35 0 56.5 -21.5t21.5 -54.5q0 -32 -22.5 -54t-55.5 -22zM412 575q-16 0 -30.5 6t-25 16.5t-16.5 24.5t-6 29q0 32 22.5 54t55.5 22q35 0 56.5 -21.5t21.5 -54.5q0 -32 -22.5 -54t-55.5 -22z
M304 -12q-57 0 -106 20t-85.5 55t-57 82.5t-20.5 102.5t20.5 102.5t57 82.5t85.5 55t106 20t106 -20t85.5 -55t57 -82.5t20.5 -102.5t-20.5 -102.5t-57 -82.5t-85.5 -55t-106 -20zM304 111q28 0 51.5 10t41 28.5t27 43.5t9.5 55q0 60 -36 98t-93 38t-93 -38t-36 -98
q0 -30 9.5 -55t27 -43.5t41 -28.5t51.5 -10z" />
    <glyph glyph-name="uni04E9" unicode="&#x4e9;" horiz-adv-x="608" 
d="M304 508q57 0 106 -20t85.5 -55t57 -82.5t20.5 -102.5t-20.5 -102.5t-57 -82.5t-85.5 -55t-106 -20t-106 20t-85.5 55t-57 82.5t-20.5 102.5t20.5 102.5t57 82.5t85.5 55t106 20zM304 393q-48 0 -81.5 -25.5t-47.5 -68.5h258q-14 43 -47.5 68.5t-81.5 25.5zM304 102
q49 0 83.5 27.5t47.5 72.5h-262q13 -45 47.5 -72.5t83.5 -27.5z" />
    <glyph glyph-name="uni04EF" unicode="&#x4ef;" horiz-adv-x="534" 
d="M118 685h296v-101h-296v101zM525 496l-243 -659h-154l63 165l-182 494h148l110 -344l110 344h148z" />
    <glyph glyph-name="uni04F3" unicode="&#x4f3;" horiz-adv-x="534" 
d="M215 739h123l-103 -179h-114zM405 739h130l-127 -179h-105zM525 496l-243 -659h-154l63 165l-182 494h148l110 -344l110 344h148z" />
    <glyph glyph-name="uni0432.aalt" horiz-adv-x="589" 
d="M448 365q51 -23 78.5 -65.5t27.5 -102.5q0 -47 -18 -85t-50.5 -66t-77.5 -43t-100 -15q-57 0 -103 16.5t-78.5 47.5t-49.5 75t-17 99v228q0 110 61 170.5t173 60.5q50 0 90 -12.5t68.5 -36t44 -56.5t15.5 -74q0 -46 -16.5 -81.5t-47.5 -59.5zM288 566q-44 0 -67.5 -27.5
t-23.5 -78.5v-57h71q106 0 106 83q0 38 -23 59t-63 21zM307 107q50 0 78.5 25t28.5 69q0 43 -31 67t-88 24h-98v-68q0 -57 28 -87t82 -30z" />
    <glyph glyph-name="uni0433.aalt" horiz-adv-x="459" 
d="M223 -12q-93 0 -145.5 41.5t-52.5 114.5q0 53 32.5 88.5t101.5 58.5l85 28q23 8 32.5 16.5t9.5 22.5q0 20 -15 31t-41 11q-27 0 -44 -13t-20 -37h-130q6 74 57 116t136 42q42 0 77 -11t59.5 -31t38 -48.5t13.5 -63.5q0 -103 -131 -148l-81 -27q-29 -10 -38 -17.5
t-9 -23.5q0 -42 64 -42q73 0 79 62h134q-5 -80 -60.5 -125t-151.5 -45z" />
    <glyph glyph-name="uni0453.aalt" horiz-adv-x="459" 
d="M223 -12q-93 0 -145.5 41.5t-52.5 114.5q0 53 32.5 88.5t101.5 58.5l85 28q23 8 32.5 16.5t9.5 22.5q0 20 -15 31t-41 11q-27 0 -44 -13t-20 -37h-130q6 74 57 116t136 42q42 0 77 -11t59.5 -31t38 -48.5t13.5 -63.5q0 -103 -131 -148l-81 -27q-29 -10 -38 -17.5
t-9 -23.5q0 -42 64 -42q73 0 79 62h134q-5 -80 -60.5 -125t-151.5 -45zM246 739h156l-115 -179h-122z" />
    <glyph glyph-name="uni0491.aalt" horiz-adv-x="459" 
d="M223 -12q-93 0 -145.5 41.5t-52.5 114.5q0 53 32.5 88.5t101.5 58.5l85 28q23 8 32.5 16.5t9.5 22.5q0 20 -15 31t-41 11q-27 0 -44 -13t-20 -37h-130q5 57 37.5 96t87.5 53v120h131v-118q58 -14 91.5 -52.5t33.5 -94.5q0 -103 -131 -148l-81 -27q-29 -10 -38 -17.5
t-9 -23.5q0 -42 64 -42q73 0 79 62h134q-5 -80 -60.5 -125t-151.5 -45z" />
    <glyph glyph-name="uni0434.aalt" horiz-adv-x="630" 
d="M566 496v-433q0 -112 -70 -175t-193 -63q-110 0 -174 44.5t-75 121.5h137q9 -28 37.5 -43.5t76.5 -15.5q57 0 89 30t32 87v46q-26 -32 -66 -50t-88 -18q-50 0 -92.5 18.5t-74 51t-49.5 77t-18 95.5t18 94.5t50 76t75 50.5t94 18q54 0 95.5 -20.5t66.5 -56.5v65h129z
M305 138q56 0 90.5 36t34.5 94q0 57 -34 92t-91 35t-92.5 -35t-35.5 -92t35.5 -93.5t92.5 -36.5z" />
    <glyph glyph-name="uni0436.aalt" horiz-adv-x="760" 
d="M614 0l-164 223v-223h-140v224l-165 -224h-156l191 261l-177 235h152l155 -207v384h140v-383l156 206h152l-178 -235l190 -261h-156z" />
    <glyph glyph-name="uni0437.aalt" horiz-adv-x="496" 
d="M370 179q48 -21 73.5 -62t25.5 -98q0 -44 -16.5 -79.5t-46.5 -61t-71.5 -39.5t-92.5 -14q-100 0 -158 53.5t-65 151.5h131q2 -39 25.5 -61t63.5 -22q43 0 68.5 25t25.5 67q0 39 -27.5 62t-75.5 23h-59v107h58q42 0 67 21.5t25 57.5q0 38 -22 58.5t-61 20.5
q-38 0 -60.5 -21t-25.5 -61h-129q6 94 65 147.5t157 53.5q47 0 85.5 -13t66 -37t42.5 -57.5t15 -73.5q0 -51 -21.5 -88.5t-62.5 -59.5z" />
    <glyph glyph-name="uni0438.locl" 
d="M514 496v-496h-128v45q-26 -27 -61.5 -42t-80.5 -15q-42 0 -76 14t-58 40.5t-37 63.5t-13 82v308h140v-288q0 -42 23 -67.5t62 -25.5t64.5 25.5t25.5 67.5v288h139z" />
    <glyph glyph-name="uni0439.aalt" 
d="M514 496v-496h-128v45q-26 -27 -61.5 -42t-80.5 -15q-42 0 -76 14t-58 40.5t-37 63.5t-13 82v308h140v-288q0 -42 23 -67.5t62 -25.5t64.5 25.5t25.5 67.5v288h139zM289 559q-84 0 -129 45.5t-45 129.5h102q0 -82 72 -82q71 0 71 82h103q0 -84 -45 -129.5t-129 -45.5z
" />
    <glyph glyph-name="uni045D.aalt" 
d="M110 739h157l81 -179h-122zM514 496v-496h-128v45q-26 -27 -61.5 -42t-80.5 -15q-42 0 -76 14t-58 40.5t-37 63.5t-13 82v308h140v-288q0 -42 23 -67.5t62 -25.5t64.5 25.5t25.5 67.5v288h139z" />
    <glyph glyph-name="uni043A.aalt" horiz-adv-x="525" 
d="M376 0l-171 217v-217h-140v673h140v-386l159 209h154l-180 -242l198 -254h-160z" />
    <glyph glyph-name="uni045C.aalt" horiz-adv-x="525" 
d="M345 739h156l-115 -179h-122zM376 0l-171 217v-217h-140v673h140v-386l159 209h154l-180 -242l198 -254h-160z" />
    <glyph glyph-name="uni043B.aalt" horiz-adv-x="532" 
d="M268 342l-111 -342h-148l182 496h152l181 -496h-148z" />
    <glyph glyph-name="uni043F.aalt" 
d="M336 508q42 0 75.5 -14.5t57.5 -40.5t37 -63.5t13 -82.5v-307h-139v288q0 42 -23.5 67t-62.5 25t-64 -25.5t-25 -66.5v-288h-140v496h128v-46q26 28 62 43t81 15z" />
    <glyph glyph-name="uni0442.aalt" horiz-adv-x="881" 
d="M631 508q89 0 139 -53t50 -148v-307h-139v288q0 43 -22 67.5t-59 24.5q-38 0 -63 -25t-25 -63v-292h-139v288q0 43 -22 67.5t-60 24.5t-62 -25t-24 -67v-288h-140v496h128v-45q51 57 137 57q48 0 84.5 -18.5t60.5 -52.5q27 34 67.5 52.5t88.5 18.5z" />
    <glyph glyph-name="uni0447.aalt" horiz-adv-x="569" 
d="M498 496v-496h-140v148q-23 -5 -45 -8.5t-42 -3.5q-111 0 -168.5 58t-57.5 170v132h140v-119q0 -112 106 -112q32 0 67 11v220h140z" />
    <glyph glyph-name="uni0446.aalt" horiz-adv-x="615" 
d="M590 119v-244h-132v133q-36 12 -55 39q-27 -29 -65.5 -44t-88.5 -15q-42 0 -77 14.5t-59.5 41t-38.5 63t-14 81.5v308h140v-288q0 -43 23 -68t61 -25q40 0 65 25.5t25 67.5v288h140v-321q0 -56 48 -56h28z" />
    <glyph glyph-name="uni0448.aalt" horiz-adv-x="886" 
d="M250 -12q-89 0 -139 53t-50 148v307h139v-288q0 -43 22 -67.5t59 -24.5q38 0 63 25t25 63v292h139v-288q0 -43 22 -67.5t60 -24.5t62 25t24 67v288h140v-496h-128v45q-51 -57 -137 -57q-48 0 -84.5 18.5t-60.5 52.5q-27 -34 -67.5 -52.5t-88.5 -18.5z" />
    <glyph glyph-name="uni0449.aalt" horiz-adv-x="916" 
d="M892 119v-244h-133v133q-35 12 -56 39q-51 -59 -142 -59q-51 0 -90 19t-63 54q-29 -35 -71 -54t-94 -19q-85 0 -134 53.5t-49 146.5v308h139v-288q0 -43 21.5 -68t59.5 -25t62.5 25t24.5 64v292h140v-288q0 -44 22 -68.5t60 -24.5t62 25.5t24 67.5v288h140v-321
q0 -56 48 -56h29z" />
    <glyph glyph-name="uni044C.aalt" horiz-adv-x="518" 
d="M268 365q51 0 91.5 -13t69.5 -37t44.5 -58t15.5 -76q0 -44 -14.5 -79.5t-42 -60.5t-66 -39t-86.5 -14q-51 0 -92 15.5t-69.5 44t-43.5 69t-15 90.5v289h140v-131h68zM278 106q38 0 57 20t19 55q0 36 -23.5 55.5t-65.5 19.5h-69v-58q0 -44 20 -68t62 -24z" />
    <glyph glyph-name="uni044A.aalt" horiz-adv-x="561" 
d="M324 -12q-51 0 -92 15.5t-69.5 44t-43.5 69t-15 90.5v170h-117v119h257v-131h68q51 0 91.5 -13t69.5 -37t44.5 -58t15.5 -76q0 -44 -14.5 -79.5t-42 -60.5t-66 -39t-86.5 -14zM322 106q38 0 57 20t19 55q0 36 -23.5 55.5t-66.5 19.5h-69v-58q0 -44 20.5 -68t62.5 -24z
" />
    <glyph glyph-name="uni044B.aalt" horiz-adv-x="762" 
d="M268 365q51 0 91.5 -13t69.5 -37t44.5 -58t15.5 -76q0 -44 -14.5 -79.5t-42 -60.5t-66 -39t-86.5 -14q-51 0 -92 15.5t-69.5 44t-43.5 69t-15 90.5v289h140v-131h68zM278 106q38 0 57 20t19 55q0 36 -23.5 55.5t-65.5 19.5h-69v-58q0 -44 20 -68t62 -24zM552 496h140
v-496h-140v496z" />
    <glyph glyph-name="uni044E.aalt" horiz-adv-x="859" 
d="M554 -12q-50 0 -94.5 15.5t-79 43t-58 66t-32.5 83.5h-79v-196h-140v673h140v-358h82q11 42 35.5 77.5t58.5 61t76.5 40t90.5 14.5q57 0 106 -20t85.5 -55t57 -82.5t20.5 -102.5t-20.5 -102.5t-57 -82.5t-85.5 -55t-106 -20zM554 111q28 0 51.5 10t41 28.5t27 43.5
t9.5 55q0 60 -36 98t-93 38t-93 -38t-36 -98q0 -30 9.5 -55t27 -43.5t41 -28.5t51.5 -10z" />
    <glyph glyph-name="uni0431.aalt" horiz-adv-x="574" 
d="M392 441q77 -44 112 -96t35 -122q0 -52 -18.5 -95.5t-52 -74.5t-80 -48t-102.5 -17t-102 16.5t-79 47t-51.5 72.5t-18.5 93q0 38 11.5 72.5t32 62.5t49 48.5t62.5 30.5l-38 23q-73 44 -73 111q0 24 10 44t27 34t41 22t52 8h278v-112h-218q-34 0 -34 -18q0 -11 20 -22z
M288 101q24 0 45.5 9t37 25t24.5 38t9 47q0 24 -9 45t-24.5 36t-36.5 23.5t-46 8.5q-26 0 -47.5 -8.5t-37.5 -24t-25 -36.5t-9 -46q0 -51 33.5 -84t85.5 -33z" />
    <glyph glyph-name="uni0438.locl" horiz-adv-x="594" 
d="M524 496v-496h-140v242l-173 -159v-83h-140v496h140v-247l173 158v89h140z" />
    <glyph glyph-name="uni04D4" unicode="&#x4d4;" horiz-adv-x="856" 
d="M816 122v-122h-338l-23 130h-245l-60 -130h-147l308 673h493v-122h-286l25 -147h253v-116h-234l28 -166h226zM257 242h180l-50 316z" />
    <glyph glyph-name="uni04D5" unicode="&#x4d5;" horiz-adv-x="903" 
d="M616 508q60 0 109 -22.5t82.5 -62t50 -94t10.5 -118.5h-376q10 -51 44.5 -81t86.5 -30q78 0 105 56h132q-24 -80 -86.5 -124t-152.5 -44q-65 0 -117.5 24.5t-87.5 68.5q-53 -93 -189 -93q-87 0 -139.5 39.5t-52.5 105.5q0 74 49.5 115t139.5 41h119v21q0 44 -21.5 67.5
t-60.5 23.5q-69 0 -78 -63h-126q5 80 60.5 125t148.5 45q58 0 100.5 -19t67.5 -54q35 35 81 54t101 19zM616 396q-44 0 -75 -25t-44 -68h235q-8 42 -38.5 67.5t-77.5 25.5zM244 84q45 0 72 26t27 69v25h-94q-78 0 -78 -58q0 -62 73 -62z" />
    <glyph glyph-name="Alpha" unicode="&#x391;" horiz-adv-x="680" 
d="M468 141h-253l-49 -141h-150l249 673h152l248 -673h-150zM251 250h181l-91 282z" />
    <glyph glyph-name="Beta" unicode="&#x392;" horiz-adv-x="635" 
d="M501 352q49 -22 74.5 -63.5t25.5 -102.5q0 -87 -61 -136.5t-167 -49.5h-293v673h268q105 0 163.5 -46.5t58.5 -129.5q0 -99 -69 -145zM361 118q50 0 76.5 23t26.5 65q0 41 -27.5 63t-78.5 22h-143v-173h146zM215 555v-152h129q44 0 67.5 19.5t23.5 56.5q0 76 -89 76h-131
z" />
    <glyph glyph-name="Gamma" unicode="&#x393;" horiz-adv-x="486" 
d="M466 673v-129h-245v-544h-143v673h388z" />
    <glyph glyph-name="uni0394" unicode="&#x394;" horiz-adv-x="677" 
d="M625 118v-118h-573l1 118l211 555h152zM199 120h282l-141 416z" />
    <glyph glyph-name="Epsilon" unicode="&#x395;" horiz-adv-x="538" 
d="M78 673h407v-122h-264v-147h254v-116h-254v-166h275v-122h-418v673z" />
    <glyph glyph-name="Zeta" unicode="&#x396;" horiz-adv-x="571" 
d="M530 129v-129h-488v118l311 426h-298v129h471v-119l-315 -425h319z" />
    <glyph glyph-name="Eta" unicode="&#x397;" horiz-adv-x="696" 
d="M78 673h142v-256h256v256h142v-673h-142v288h-256v-288h-142v673z" />
    <glyph glyph-name="Theta" unicode="&#x398;" horiz-adv-x="797" 
d="M398 -12q-78 0 -144 26.5t-114 73t-75 110.5t-27 139t27 139t75 110.5t114 72.5t144 26t144 -26.5t114 -73t75 -110t27 -138.5t-27 -139t-75 -110.5t-114 -73t-144 -26.5zM399 115q46 0 85.5 16.5t68 46.5t44.5 71t16 89q0 47 -16 87.5t-44.5 70t-68 46t-85.5 16.5
q-47 0 -86 -16.5t-68 -46t-45 -69.5t-16 -88t16 -89t44.5 -71t68 -46.5t86.5 -16.5zM254 396h289v-117h-289v117z" />
    <glyph glyph-name="Iota" unicode="&#x399;" horiz-adv-x="299" 
d="M78 673h143v-673h-143v673z" />
    <glyph glyph-name="Kappa" unicode="&#x39a;" horiz-adv-x="625" 
d="M458 0l-237 312v-312h-143v673h143v-283l225 283h164l-252 -318l270 -355h-170z" />
    <glyph glyph-name="Lambda" unicode="&#x39b;" horiz-adv-x="661" 
d="M491 0l-160 492l-161 -492h-154l239 673h152l239 -673h-155z" />
    <glyph glyph-name="Mu" unicode="&#x39c;" horiz-adv-x="864" 
d="M786 673v-673h-136v469l-161 -469h-115l-160 469v-469h-135l-1 673h189l165 -494l163 494h191z" />
    <glyph glyph-name="Nu" unicode="&#x39d;" horiz-adv-x="697" 
d="M619 673v-673h-149l-255 451v-451h-137v673h152l251 -444v444h138z" />
    <glyph glyph-name="Xi" unicode="&#x39e;" horiz-adv-x="594" 
d="M42 673h510v-129h-510v129zM79 406h435v-121h-435v121zM42 129h510v-129h-510v129z" />
    <glyph glyph-name="Omicron" unicode="&#x39f;" horiz-adv-x="797" 
d="M399 -12q-78 0 -144 26.5t-114 73t-75 110.5t-27 139t27 139t75 110.5t114 72.5t144 26t144 -26.5t114 -73t75 -110t27 -138.5t-27 -139t-75 -110.5t-114 -73t-144 -26.5zM398 119q46 0 84.5 16.5t66.5 45.5t44 69t16 88q0 46 -16 86t-44 68.5t-66.5 45t-84.5 16.5
q-45 0 -84 -16.5t-67 -45t-44 -68.5t-16 -86q0 -48 16 -88t44 -69t66.5 -45.5t84.5 -16.5z" />
    <glyph glyph-name="Pi" unicode="&#x3a0;" horiz-adv-x="673" 
d="M78 673h517v-673h-142v544h-233v-544h-142v673z" />
    <glyph glyph-name="Rho" unicode="&#x3a1;" horiz-adv-x="575" 
d="M78 673h234q55 0 98.5 -15t74.5 -42.5t47.5 -67.5t16.5 -90q0 -100 -63 -157t-174 -57h-91v-244h-143v673zM307 359q47 0 73.5 26t26.5 72q0 45 -26 70.5t-74 25.5h-87v-194h87z" />
    <glyph glyph-name="Sigma" unicode="&#x3a3;" horiz-adv-x="534" 
d="M500 129v-129h-458v121l145 220l-145 211v121h446v-129h-278l141 -203l-143 -212h292z" />
    <glyph glyph-name="Tau" unicode="&#x3a4;" horiz-adv-x="567" 
d="M208 544h-179v129h510v-129h-189v-544h-142v544z" />
    <glyph glyph-name="Upsilon" unicode="&#x3a5;" horiz-adv-x="624" 
d="M384 289v-289h-143v289l-224 384h164l132 -253l131 253h163z" />
    <glyph glyph-name="Phi" unicode="&#x3a6;" horiz-adv-x="829" 
d="M789 337q0 -65 -22.5 -120.5t-63 -98.5t-96 -70t-121.5 -34v-84h-143v84q-66 7 -122 34t-96 69.5t-62.5 98.5t-22.5 121q0 64 22.5 120t62.5 98.5t96 69.5t122 34v84h143v-84q66 -7 122 -34t96 -69.5t62.5 -98.5t22.5 -120zM189 338q0 -74 42 -124.5t112 -63.5v373
q-70 -12 -112 -61.5t-42 -123.5zM486 150q70 13 112 63.5t42 124.5q0 73 -42 122.5t-112 62.5v-373z" />
    <glyph glyph-name="Chi" unicode="&#x3a7;" horiz-adv-x="653" 
d="M468 0l-142 241l-142 -241h-162l214 346l-202 327h161l132 -223l128 223h162l-201 -327l215 -346h-163z" />
    <glyph glyph-name="Psi" unicode="&#x3a8;" horiz-adv-x="782" 
d="M320 146q-134 0 -209.5 70t-75.5 195v262h142v-259q0 -71 34.5 -104t108.5 -33v420h142v-420q73 0 107.5 33t34.5 104v259h143v-262q0 -125 -75 -195t-210 -70v-146h-142v146z" />
    <glyph glyph-name="uni03A9" unicode="&#x3a9;" horiz-adv-x="817" 
d="M767 360q0 -146 -122 -242h113v-118h-304v118q80 36 122 92.5t42 131.5q0 46 -15.5 85t-43.5 67t-66.5 44t-83.5 16q-46 0 -84.5 -15.5t-66.5 -44t-43.5 -67.5t-15.5 -85q0 -76 42 -132.5t123 -91.5v-118h-305v118h109q-58 48 -87.5 109.5t-29.5 133.5q0 70 27 129
t75 102.5t113 68t142 24.5q76 0 142 -24.5t114 -68t75.5 -103t27.5 -129.5z" />
    <glyph glyph-name="Alphatonos" unicode="&#x386;" horiz-adv-x="730" 
d="M47 673h144l-50 -193h-102zM518 141h-253l-49 -141h-150l249 673h152l248 -673h-150zM301 250h181l-91 282z" />
    <glyph glyph-name="Epsilontonos" unicode="&#x388;" horiz-adv-x="738" 
d="M48 673h144l-50 -193h-102zM278 673h407v-122h-264v-147h254v-116h-254v-166h275v-122h-418v673z" />
    <glyph glyph-name="Etatonos" unicode="&#x389;" horiz-adv-x="886" 
d="M48 673h144l-50 -193h-102zM268 673h142v-256h256v256h142v-673h-142v288h-256v-288h-142v673z" />
    <glyph glyph-name="Iotatonos" unicode="&#x38a;" horiz-adv-x="489" 
d="M48 673h144l-50 -193h-102zM268 673h143v-673h-143v673z" />
    <glyph glyph-name="Omicrontonos" unicode="&#x38c;" horiz-adv-x="927" 
d="M44 673h144l-50 -193h-102zM529 -12q-78 0 -144 26.5t-114 73t-75 110.5t-27 139t27 139t75 110.5t114 72.5t144 26t144 -26.5t114 -73t75 -110t27 -138.5t-27 -139t-75 -110.5t-114 -73t-144 -26.5zM528 119q46 0 84.5 16.5t66.5 45.5t44 69t16 88q0 46 -16 86t-44 68.5
t-66.5 45t-84.5 16.5q-45 0 -84 -16.5t-67 -45t-44 -68.5t-16 -86q0 -48 16 -88t44 -69t66.5 -45.5t84.5 -16.5z" />
    <glyph glyph-name="Upsilontonos" unicode="&#x38e;" horiz-adv-x="840" 
d="M48 673h144l-50 -193h-102zM600 289v-289h-143v289l-224 384h164l132 -253l131 253h163z" />
    <glyph glyph-name="Omegatonos" unicode="&#x38f;" horiz-adv-x="948" 
d="M898 360q0 -146 -122 -242h113v-118h-304v118q80 36 122 92.5t42 131.5q0 46 -15.5 85t-43.5 67t-66.5 44t-83.5 16q-46 0 -84.5 -15.5t-66.5 -44t-43.5 -67.5t-15.5 -85q0 -76 42 -132.5t123 -91.5v-118h-305v118h109q-58 48 -87.5 109.5t-29.5 133.5q0 70 27 129
t75 102.5t113 68t142 24.5q76 0 142 -24.5t114 -68t75.5 -103t27.5 -129.5zM48 673h144l-50 -193h-102z" />
    <glyph glyph-name="Iotadieresis" unicode="&#x3aa;" horiz-adv-x="299" 
d="M35 735q-34 0 -57.5 23t-23.5 55q0 33 23 56t58 23q36 0 59 -22t23 -57q0 -32 -23.5 -55t-58.5 -23zM263 735q-34 0 -58 23.5t-24 54.5q0 33 23.5 56t58.5 23t58.5 -22t23.5 -57q0 -16 -6.5 -30.5t-17.5 -25t-26 -16.5t-32 -6zM78 673h143v-673h-143v673z" />
    <glyph glyph-name="Upsilondieresis" unicode="&#x3ab;" horiz-adv-x="624" 
d="M198 735q-34 0 -57.5 23t-23.5 55q0 33 23 56t58 23q36 0 59 -22t23 -57q0 -32 -23.5 -55t-58.5 -23zM426 735q-34 0 -58 23.5t-24 54.5q0 33 23.5 56t58.5 23t58.5 -22t23.5 -57q0 -16 -6.5 -30.5t-17.5 -25t-26 -16.5t-32 -6zM384 289v-289h-143v289l-224 384h164
l132 -253l131 253h163z" />
    <glyph glyph-name="Eta.aalt" horiz-adv-x="444" 
d="M51 673h113v-147h116v147h114v-404h-114v159h-116v-159h-113v404z" />
    <glyph glyph-name="Nu.aalt" horiz-adv-x="444" 
d="M394 673v-404h-114l-118 217v-217h-110v404h114l118 -219v219h110z" />
    <glyph glyph-name="Omicron.aalt" horiz-adv-x="490" 
d="M245 261q-49 0 -89.5 15.5t-70 43.5t-45.5 66.5t-16 84.5t16 84.5t45.5 66.5t70 43.5t89.5 15.5q48 0 89 -15.5t70 -43.5t45.5 -66.5t16.5 -84.5t-16.5 -84.5t-46 -66.5t-70 -43.5t-88.5 -15.5zM245 365q46 0 74.5 30t28.5 77q0 45 -28.5 75t-74.5 30q-45 0 -74 -29.5
t-29 -75.5q0 -47 28.5 -77t74.5 -30z" />
    <glyph glyph-name="Sigma.aalt" horiz-adv-x="331" 
d="M309 367v-98h-281v91l72 114l-72 108v91h274v-98h-145l71 -100l-73 -108h154z" />
    <glyph glyph-name="alpha" unicode="&#x3b1;" horiz-adv-x="639" 
d="M627 121v-121h-71q-84 0 -112 58q-27 -32 -68.5 -51t-92.5 -19q-54 0 -99 18.5t-77.5 52.5t-50.5 82t-18 106q0 57 17.5 105t49 82.5t74.5 54t94 19.5t90.5 -20.5t64.5 -57.5v66h128v-322q0 -53 46 -53h25zM300 112q54 0 87.5 37t33.5 99t-33.5 99t-87.5 37
q-53 0 -87.5 -37.5t-34.5 -98.5t34.5 -98.5t87.5 -37.5z" />
    <glyph glyph-name="beta" unicode="&#x3b2;" horiz-adv-x="613" 
d="M478 364q46 -26 72.5 -68t26.5 -97q0 -46 -17 -85t-47.5 -67t-72.5 -43.5t-93 -15.5q-84 0 -142 42v-193h-140l1 604q0 115 65.5 179.5t179.5 64.5q53 0 96 -14t74 -39t47.5 -60t16.5 -77q0 -41 -17.5 -74.5t-49.5 -56.5zM332 112q48 0 77 26.5t29 68.5q0 44 -32 70
t-89 26h-38v91h27q48 0 74 23t26 61q0 37 -27 60.5t-70 23.5q-48 0 -76.5 -29.5t-28.5 -80.5v-297q29 -20 61.5 -31.5t66.5 -11.5z" />
    <glyph glyph-name="gamma" unicode="&#x3b3;" horiz-adv-x="548" 
d="M518 496q0 -41 -3.5 -76t-12.5 -70.5t-24.5 -74.5t-39.5 -86l-101 -197v-155h-140v156l-188 503h148l115 -348l48 100q17 36 28 65t17.5 57t9 58t2.5 68h141z" />
    <glyph glyph-name="delta" unicode="&#x3b4;" horiz-adv-x="578" 
d="M416 440q60 -47 93.5 -98t33.5 -117q0 -52 -18.5 -95.5t-52 -75t-80.5 -49t-104 -17.5q-56 0 -102.5 17t-80 47t-52 72t-18.5 93q0 49 16.5 88t43.5 67.5t62.5 45t74.5 21.5l-157 128v106h428v-115h-238zM290 104q24 0 45.5 9t37 25t24.5 38t9 47q0 24 -9 45t-24.5 36
t-36.5 23.5t-46 8.5t-46.5 -8.5t-37.5 -23.5t-25.5 -36.5t-9.5 -46.5q0 -24 8.5 -45.5t24 -37.5t37.5 -25t49 -9z" />
    <glyph glyph-name="epsilon" unicode="&#x3b5;" horiz-adv-x="499" 
d="M110 262q-23 17 -37.5 43.5t-14.5 59.5q0 34 15.5 60.5t42 44.5t60.5 27.5t71 9.5q43 0 80.5 -10.5t65.5 -31t45 -51.5t19 -71h-124q-8 31 -29 43.5t-52 12.5t-49.5 -12.5t-18.5 -39.5q0 -20 14 -34.5t59 -14.5h64v-88h-77q-45 0 -64 -15t-19 -38q0 -32 24.5 -46.5
t62.5 -14.5q34 0 61 14.5t31 52.5h127q-1 -44 -18.5 -77t-47.5 -55t-70.5 -32.5t-87.5 -10.5q-45 0 -84 10t-68 29.5t-46 48t-17 66.5q0 46 21.5 75.5t60.5 44.5z" />
    <glyph glyph-name="zeta" unicode="&#x3b6;" horiz-adv-x="457" 
d="M291 404q-31 -32 -52 -58t-33.5 -48t-18 -42.5t-5.5 -41.5q0 -94 158 -117l96 -14v-246h-136v146l-33 5q-110 17 -171 72t-61 137q0 31 7.5 60.5t24 61t43 66t64.5 75.5l89 92h-191v121h373v-113z" />
    <glyph glyph-name="eta" unicode="&#x3b7;" horiz-adv-x="599" 
d="M342 507q93 0 145.5 -54t52.5 -146v-470h-140v451q0 42 -23.5 67t-62.5 25q-40 0 -65.5 -25.5t-25.5 -66.5v-288h-140v324q0 53 -47 53h-23v119h73q77 0 106 -51q56 62 150 62z" />
    <glyph glyph-name="theta" unicode="&#x3b8;" horiz-adv-x="639" 
d="M319 685q127 0 196 -89.5t69 -255.5q0 -84 -18 -149.5t-52 -110.5t-83.5 -68.5t-111.5 -23.5q-125 0 -194.5 92t-69.5 260q0 166 69 255.5t195 89.5zM319 568q-113 0 -128 -168h256q-17 168 -128 168zM319 105q116 0 130 189h-260q13 -189 130 -189z" />
    <glyph glyph-name="iota" unicode="&#x3b9;" horiz-adv-x="288" 
d="M207 0q-142 0 -142 150v346h140v-325q0 -52 47 -52h23v-119h-68z" />
    <glyph glyph-name="kappa" unicode="&#x3ba;" horiz-adv-x="525" 
d="M375 0l-170 229v-229h-140v496h140v-197l158 197h156l-181 -231l198 -265h-161z" />
    <glyph glyph-name="lambda" unicode="&#x3bb;" horiz-adv-x="545" 
d="M531 119v-119h-60q-51 0 -82 23t-51 78l-65 170l-104 -271h-148l181 443l-25 61q-11 28 -28.5 39t-47.5 11h-24v119h64q63 0 103 -27t66 -97l146 -390q9 -24 20.5 -32t31.5 -8h23z" />
    <glyph glyph-name="uni03BC" unicode="&#x3bc;" horiz-adv-x="605" 
d="M592 119v-119h-61q-72 0 -108 45q-21 -26 -52.5 -40t-71.5 -14q-31 0 -56 8.5t-44 22.5v-185h-134v659h140v-287q0 -43 23.5 -68t64.5 -25q38 0 63 25.5t25 66.5v288h140v-325q0 -52 47 -52h24z" />
    <glyph glyph-name="nu" unicode="&#x3bd;" horiz-adv-x="548" 
d="M518 496q0 -38 -4.5 -72.5t-14 -70t-25.5 -74.5t-39 -87l-92 -192h-152l-182 496h148l114 -351l49 104q16 36 27 65.5t18 58t9.5 58t2.5 65.5h141z" />
    <glyph glyph-name="xi" unicode="&#x3be;" horiz-adv-x="522" 
d="M181 200q0 -41 34.5 -60.5t112.5 -30.5l141 -19v-253h-136v145l-74 10q-112 16 -171.5 63.5t-59.5 135.5q0 54 28 95.5t80 67.5q-41 24 -60.5 60t-19.5 83q0 41 16.5 75.5t46.5 59.5t71 39t90 14q99 0 159.5 -51t68.5 -140h-131q-19 68 -90 68q-39 0 -63.5 -22.5
t-24.5 -55.5q0 -38 25 -60.5t80 -22.5h91v-119h-100q-56 0 -85 -21t-29 -61z" />
    <glyph glyph-name="omicron" unicode="&#x3bf;" horiz-adv-x="608" 
d="M304 -12q-57 0 -106 20t-85.5 55t-57 82.5t-20.5 102.5t20.5 102.5t57 82.5t85.5 55t106 20t106 -20t85.5 -55t57 -82.5t20.5 -102.5t-20.5 -102.5t-57 -82.5t-85.5 -55t-106 -20zM304 111q28 0 51.5 10t41 28.5t27 43.5t9.5 55q0 60 -36 98t-93 38t-93 -38t-36 -98
q0 -30 9.5 -55t27 -43.5t41 -28.5t51.5 -10z" />
    <glyph glyph-name="pi" unicode="&#x3c0;" horiz-adv-x="644" 
d="M95 377h-85v119h612v-119h-83v-204q0 -54 48 -54h23v-119h-62q-148 0 -148 150v227h-165v-377h-140v377z" />
    <glyph glyph-name="rho" unicode="&#x3c1;" horiz-adv-x="636" 
d="M327 507q59 0 109 -19.5t86 -54t56 -82t20 -104.5q0 -55 -18.5 -102t-51.5 -82t-78 -55t-97 -20q-46 0 -85 14.5t-68 40.5v-206h-140v389q0 64 19.5 116t54.5 88.5t84 56.5t109 20zM330 112q28 0 51.5 10t40.5 28t26.5 43t9.5 55q0 60 -35.5 98t-92.5 38q-28 0 -52 -10
t-41.5 -28t-27.5 -43t-10 -55q0 -31 10 -56t27.5 -43t41.5 -27.5t52 -9.5z" />
    <glyph glyph-name="sigma1" unicode="&#x3c2;" horiz-adv-x="571" 
d="M175 249q0 -39 15.5 -65.5t41 -43t59.5 -25t71 -13.5l122 -16v-249h-136v142l-32 5q-62 10 -113.5 29.5t-89 51t-58 75.5t-20.5 103q0 55 19 103.5t53.5 84.5t81.5 56.5t104 20.5q49 0 91 -15.5t73.5 -43t52 -66.5t26.5 -87h-135q-11 45 -39 66t-68 21q-27 0 -49 -10.5
t-37.5 -28.5t-24 -42.5t-8.5 -52.5z" />
    <glyph glyph-name="sigma" unicode="&#x3c3;" horiz-adv-x="647" 
d="M636 377h-115q24 -29 37.5 -64.5t13.5 -75.5q0 -53 -20.5 -98.5t-56.5 -79t-85 -52.5t-106 -19t-106.5 19.5t-85.5 54t-56.5 82.5t-20.5 104q0 55 19.5 100.5t56.5 78.5t89 51t117 18h319v-119zM304 111q28 0 52 10t41.5 28t27 43t9.5 55q0 28 -9.5 52.5t-27 41.5t-41 27
t-51.5 10q-29 0 -52.5 -10t-41 -27t-27 -41.5t-9.5 -52.5q0 -60 36 -98t93 -38z" />
    <glyph glyph-name="tau" unicode="&#x3c4;" horiz-adv-x="464" 
d="M283 377v-190q0 -36 17.5 -52t57.5 -16h61v-119h-84q-98 0 -145 41.5t-47 128.5v207h-142v119h443v-119h-161z" />
    <glyph glyph-name="upsilon" unicode="&#x3c5;" horiz-adv-x="594" 
d="M301 -12q-116 0 -178.5 63.5t-62.5 181.5v263h140v-266q0 -61 27.5 -88t75.5 -27q52 0 80.5 31t28.5 94q0 30 -4 63.5t-10 67.5t-13.5 66t-14.5 59h137q18 -54 32.5 -118t14.5 -127q0 -128 -66 -195.5t-187 -67.5z" />
    <glyph glyph-name="phi" unicode="&#x3c6;" horiz-adv-x="767" 
d="M313 -10q-64 1 -115.5 19.5t-87.5 52t-55.5 80.5t-19.5 106q0 58 19.5 105t56 81t88 52.5t114.5 19.5v167h140v-167q64 -1 115.5 -19.5t88 -52t56 -81t19.5 -105.5q0 -59 -19.5 -106.5t-55.5 -81t-88 -52t-116 -18.5v-153h-140v153zM313 386q-67 -3 -102.5 -38.5
t-35.5 -99.5t36 -100t102 -38v276zM453 110q66 2 102.5 38t36.5 100t-36.5 100t-102.5 38v-276z" />
    <glyph glyph-name="chi" unicode="&#x3c7;" horiz-adv-x="545" 
d="M446 -6q13 -22 27.5 -30t41.5 -8h26v-119h-68q-25 0 -43.5 3.5t-33.5 12t-27 22.5t-24 35l-76 137l-126 -210h-141l196 330l-95 176q-11 19 -24.5 26.5t-39.5 7.5h-28v119h67q50 0 78.5 -16.5t51.5 -56.5l70 -136l123 209h140l-192 -327z" />
    <glyph glyph-name="psi" unicode="&#x3c8;" horiz-adv-x="798" 
d="M334 -11q-64 0 -114.5 17.5t-86 50.5t-54.5 80t-19 106v253h140v-242q0 -67 35 -103t99 -36v529h140v-529q69 0 105.5 33t36.5 96q0 28 -3.5 60t-9.5 65t-13.5 65.5t-14.5 61.5h137q19 -54 32.5 -114.5t13.5 -122.5q0 -64 -19.5 -114t-56 -85t-89.5 -53t-119 -18v-152
h-140v152z" />
    <glyph glyph-name="omega" unicode="&#x3c9;" horiz-adv-x="800" 
d="M675 496q40 -40 62.5 -105t22.5 -142q0 -60 -14.5 -108.5t-41 -82t-64 -52t-84.5 -18.5q-106 0 -156 77q-50 -77 -156 -77q-47 0 -84.5 18.5t-64 52t-41 82t-14.5 108.5q0 75 23 141.5t63 107.5h144q-41 -48 -64 -116t-23 -143q0 -57 21 -90.5t58 -33.5q35 0 53.5 24.5
t18.5 69.5v195h132v-205q0 -38 19.5 -61t52.5 -23q37 0 58 33.5t21 90.5q0 77 -22.5 143t-63.5 114h144z" />
    <glyph glyph-name="iotatonos" unicode="&#x3af;" horiz-adv-x="288" 
d="M207 0q-142 0 -142 150v346h140v-325q0 -52 47 -52h23v-119h-68zM128 739h151l-85 -179h-117z" />
    <glyph glyph-name="iotadieresis" unicode="&#x3ca;" horiz-adv-x="288" 
d="M207 0q-142 0 -142 150v346h140v-325q0 -52 47 -52h23v-119h-68zM29 575q-16 0 -30.5 6t-25 16.5t-16.5 24.5t-6 29q0 32 22.5 54t55.5 22q35 0 56.5 -21.5t21.5 -54.5q0 -32 -22.5 -54t-55.5 -22zM243 575q-16 0 -30.5 6t-25 16.5t-16.5 24.5t-6 29q0 32 22.5 54
t55.5 22q35 0 56.5 -21.5t21.5 -54.5q0 -32 -22.5 -54t-55.5 -22z" />
    <glyph glyph-name="iotadieresistonos" unicode="&#x390;" horiz-adv-x="288" 
d="M207 0q-142 0 -142 150v346h140v-325q0 -52 47 -52h23v-119h-68zM129 739h143l-85 -179h-109zM-14 573q-16 0 -30 6t-24.5 16.5t-16.5 23.5t-6 28q0 32 22.5 53t54.5 21q33 0 55 -21t22 -53q0 -31 -22.5 -52.5t-54.5 -21.5zM347 573q-32 0 -54.5 22t-22.5 52
q0 31 22.5 52.5t54.5 21.5q33 0 55 -21t22 -53q0 -31 -22.5 -52.5t-54.5 -21.5z" />
    <glyph glyph-name="upsilontonos" unicode="&#x3cd;" horiz-adv-x="594" 
d="M301 -12q-116 0 -178.5 63.5t-62.5 181.5v263h140v-266q0 -61 27.5 -88t75.5 -27q52 0 80.5 31t28.5 94q0 30 -4 63.5t-10 67.5t-13.5 66t-14.5 59h137q18 -54 32.5 -118t14.5 -127q0 -128 -66 -195.5t-187 -67.5zM277 739h151l-85 -179h-117z" />
    <glyph glyph-name="upsilondieresis" unicode="&#x3cb;" horiz-adv-x="594" 
d="M301 -12q-116 0 -178.5 63.5t-62.5 181.5v263h140v-266q0 -61 27.5 -88t75.5 -27q52 0 80.5 31t28.5 94q0 30 -4 63.5t-10 67.5t-13.5 66t-14.5 59h137q18 -54 32.5 -118t14.5 -127q0 -128 -66 -195.5t-187 -67.5zM178 575q-16 0 -30.5 6t-25 16.5t-16.5 24.5t-6 29
q0 32 22.5 54t55.5 22q35 0 56.5 -21.5t21.5 -54.5q0 -32 -22.5 -54t-55.5 -22zM392 575q-16 0 -30.5 6t-25 16.5t-16.5 24.5t-6 29q0 32 22.5 54t55.5 22q35 0 56.5 -21.5t21.5 -54.5q0 -32 -22.5 -54t-55.5 -22z" />
    <glyph glyph-name="upsilondieresistonos" unicode="&#x3b0;" horiz-adv-x="594" 
d="M301 -12q-116 0 -178.5 63.5t-62.5 181.5v263h140v-266q0 -61 27.5 -88t75.5 -27q52 0 80.5 31t28.5 94q0 30 -4 63.5t-10 67.5t-13.5 66t-14.5 59h137q18 -54 32.5 -118t14.5 -127q0 -128 -66 -195.5t-187 -67.5zM277 739h143l-85 -179h-109zM134 573q-16 0 -30 6
t-24.5 16.5t-16.5 23.5t-6 28q0 32 22.5 53t54.5 21q33 0 55 -21t22 -53q0 -31 -22.5 -52.5t-54.5 -21.5zM495 573q-32 0 -54.5 22t-22.5 52q0 31 22.5 52.5t54.5 21.5q33 0 55 -21t22 -53q0 -31 -22.5 -52.5t-54.5 -21.5z" />
    <glyph glyph-name="omicrontonos" unicode="&#x3cc;" horiz-adv-x="608" 
d="M293 739h151l-85 -179h-117zM304 -12q-57 0 -106 20t-85.5 55t-57 82.5t-20.5 102.5t20.5 102.5t57 82.5t85.5 55t106 20t106 -20t85.5 -55t57 -82.5t20.5 -102.5t-20.5 -102.5t-57 -82.5t-85.5 -55t-106 -20zM304 111q28 0 51.5 10t41 28.5t27 43.5t9.5 55q0 60 -36 98
t-93 38t-93 -38t-36 -98q0 -30 9.5 -55t27 -43.5t41 -28.5t51.5 -10z" />
    <glyph glyph-name="omegatonos" unicode="&#x3ce;" horiz-adv-x="800" 
d="M675 496q40 -40 62.5 -105t22.5 -142q0 -60 -14.5 -108.5t-41 -82t-64 -52t-84.5 -18.5q-106 0 -156 77q-50 -77 -156 -77q-47 0 -84.5 18.5t-64 52t-41 82t-14.5 108.5q0 75 23 141.5t63 107.5h144q-41 -48 -64 -116t-23 -143q0 -57 21 -90.5t58 -33.5q35 0 53.5 24.5
t18.5 69.5v195h132v-205q0 -38 19.5 -61t52.5 -23q37 0 58 33.5t21 90.5q0 77 -22.5 143t-63.5 114h144zM392 739h151l-85 -179h-117z" />
    <glyph glyph-name="alphatonos" unicode="&#x3ac;" horiz-adv-x="639" 
d="M627 121v-121h-71q-84 0 -112 58q-27 -32 -68.5 -51t-92.5 -19q-54 0 -99 18.5t-77.5 52.5t-50.5 82t-18 106q0 57 17.5 105t49 82.5t74.5 54t94 19.5t90.5 -20.5t64.5 -57.5v66h128v-322q0 -53 46 -53h25zM300 112q54 0 87.5 37t33.5 99t-33.5 99t-87.5 37
q-53 0 -87.5 -37.5t-34.5 -98.5t34.5 -98.5t87.5 -37.5zM314 739h151l-85 -179h-117z" />
    <glyph glyph-name="epsilontonos" unicode="&#x3ad;" horiz-adv-x="499" 
d="M110 262q-23 17 -37.5 43.5t-14.5 59.5q0 34 15.5 60.5t42 44.5t60.5 27.5t71 9.5q43 0 80.5 -10.5t65.5 -31t45 -51.5t19 -71h-124q-8 31 -29 43.5t-52 12.5t-49.5 -12.5t-18.5 -39.5q0 -20 14 -34.5t59 -14.5h64v-88h-77q-45 0 -64 -15t-19 -38q0 -32 24.5 -46.5
t62.5 -14.5q34 0 61 14.5t31 52.5h127q-1 -44 -18.5 -77t-47.5 -55t-70.5 -32.5t-87.5 -10.5q-45 0 -84 10t-68 29.5t-46 48t-17 66.5q0 46 21.5 75.5t60.5 44.5zM247 739h151l-85 -179h-117z" />
    <glyph glyph-name="etatonos" unicode="&#x3ae;" horiz-adv-x="599" 
d="M342 507q93 0 145.5 -54t52.5 -146v-470h-140v451q0 42 -23.5 67t-62.5 25q-40 0 -65.5 -25.5t-25.5 -66.5v-288h-140v324q0 53 -47 53h-23v119h73q77 0 106 -51q56 62 150 62zM301 739h151l-85 -179h-117z" />
    <glyph glyph-name="zero" unicode="0" horiz-adv-x="779" 
d="M390 -12q-76 0 -140 26.5t-111 73t-73.5 110.5t-26.5 139t26.5 139t73 110.5t111 72.5t140.5 26t140.5 -26t111 -72.5t73 -110.5t26.5 -139t-26.5 -139t-73.5 -110.5t-111 -73t-140 -26.5zM390 118q45 0 82.5 16.5t65 45.5t43 69.5t15.5 88.5q0 47 -15.5 86.5t-43 68.5
t-65.5 45.5t-82 16.5q-45 0 -82.5 -16.5t-65.5 -45.5t-43.5 -68.5t-15.5 -86.5q0 -48 15.5 -88.5t43.5 -69.5t65.5 -45.5t82.5 -16.5z" />
    <glyph glyph-name="one" unicode="1" horiz-adv-x="391" 
d="M306 673v-673h-140v534l-118 -36l-32 120l175 55h115z" />
    <glyph glyph-name="two" unicode="2" horiz-adv-x="552" 
d="M515 122v-122h-474v56q0 45 15 83t40.5 70.5t58.5 59t69 49.5q40 25 67 43t43.5 33.5t23 31.5t6.5 37q0 47 -24.5 69t-61.5 22q-42 0 -66.5 -27.5t-24.5 -77.5h-141q0 55 16.5 98.5t47 74t74.5 47t99 16.5q51 0 92.5 -14t71 -41t45.5 -66t16 -88q0 -43 -12.5 -75
t-36 -58.5t-57 -50.5t-75.5 -50q-53 -34 -87.5 -60.5t-51.5 -59.5h327z" />
    <glyph glyph-name="three" unicode="3" horiz-adv-x="560" 
d="M416 349q49 -22 74.5 -62t25.5 -97q0 -45 -18 -82t-50 -63.5t-76 -41.5t-97 -15q-109 0 -171.5 60t-67.5 168h137q2 -46 28 -73.5t70 -27.5q47 0 75 24t28 66t-27 64.5t-77 22.5h-67v111h65q92 0 92 80q0 38 -23 58t-66 20q-42 0 -67.5 -23.5t-27.5 -63.5h-135
q2 48 20 86.5t49 66.5t74 43t94 15q50 0 90.5 -13.5t69.5 -38t44.5 -59.5t15.5 -77q0 -104 -82 -148z" />
    <glyph glyph-name="four" unicode="4" horiz-adv-x="584" 
d="M559 112h-84v-112h-140v112h-308v111l292 450h156v-442h84v-119zM166 231h179v283z" />
    <glyph glyph-name="five" unicode="5" horiz-adv-x="583" 
d="M332 447q46 0 85 -17t67.5 -47.5t45 -72t16.5 -90.5q0 -52 -18 -95t-50 -73.5t-77.5 -47t-100.5 -16.5q-52 0 -94.5 15t-73.5 43t-49 67.5t-21 89.5h137q5 -39 33 -64.5t67 -25.5q47 0 76.5 31.5t29.5 81.5q0 47 -29.5 76.5t-75.5 29.5q-29 0 -53 -13t-41 -36h-128v390
h428v-122h-295v-136q52 32 121 32z" />
    <glyph glyph-name="six" unicode="6" horiz-adv-x="563" 
d="M302 456q47 0 88 -18t71.5 -48.5t48 -72.5t17.5 -90q0 -51 -19 -94.5t-52.5 -75.5t-78.5 -50.5t-97 -18.5t-96.5 18.5t-77.5 50.5t-51.5 76.5t-18.5 95.5q0 22 4 43.5t13.5 44.5t25 50.5t38.5 62.5l163 243h164l-143 -217h1zM281 115q24 0 44 8.5t34.5 23t22.5 35t8 44.5
t-8 44.5t-22.5 35t-34.5 23t-44 8.5q-47 0 -77.5 -31.5t-30.5 -79.5q0 -24 8 -44.5t22.5 -35t34.5 -23t43 -8.5z" />
    <glyph glyph-name="seven" unicode="7" horiz-adv-x="520" 
d="M485 673v-119l-260 -554h-153l267 546h-310v127h456z" />
    <glyph glyph-name="eight" unicode="8" horiz-adv-x="573" 
d="M429 353q49 -24 75 -66.5t26 -100.5q0 -45 -17 -81.5t-49 -62.5t-77 -40t-100 -14q-56 0 -100.5 14t-76.5 40t-49 62t-17 81q0 58 26 100.5t75 67.5q-42 23 -64.5 60.5t-22.5 86.5q0 41 16.5 75t46.5 58.5t72.5 38t93.5 13.5t93 -13.5t72 -38t46.5 -58.5t16.5 -75
q0 -48 -22 -86t-64 -61zM288 575q-42 0 -67.5 -23.5t-25.5 -60.5q0 -39 25.5 -63.5t66.5 -24.5t66 24.5t25 63.5q0 37 -25 60.5t-65 23.5zM286 98q47 0 75.5 26t28.5 68q0 45 -28.5 72t-73.5 27q-48 0 -76.5 -27.5t-28.5 -72.5q0 -42 28.5 -67.5t74.5 -25.5z" />
    <glyph glyph-name="nine" unicode="9" horiz-adv-x="563" 
d="M261 217q-47 0 -88 18t-71.5 48.5t-48 72.5t-17.5 90q0 51 19 94.5t52.5 75.5t78.5 50.5t97 18.5t96.5 -18.5t77.5 -50.5t51.5 -76.5t18.5 -95.5q0 -23 -4 -44t-13.5 -44t-25 -50.5t-38.5 -62.5l-163 -243h-164l143 217h-1zM282 558q-24 0 -44 -8.5t-34.5 -23t-22.5 -35
t-8 -44.5t8 -44.5t22.5 -35t34.5 -23t44 -8.5q47 0 77.5 31.5t30.5 79.5q0 24 -8 44.5t-22.5 35t-34.5 23t-43 8.5z" />
    <glyph glyph-name="zero.tnum" 
d="M290 -12q-56 0 -102 17.5t-78 50.5t-49.5 79.5t-17.5 103.5v195q0 57 17.5 103.5t49.5 79.5t78 50.5t102 17.5t101.5 -17.5t77.5 -50.5t49.5 -79.5t17.5 -103.5v-195q0 -57 -17.5 -103.5t-49.5 -79.5t-77.5 -50.5t-101.5 -17.5zM290 114q51 0 78.5 33t27.5 93v193
q0 60 -27.5 93t-78.5 33t-79 -33t-28 -93v-193q0 -60 28 -93t79 -33z" />
    <glyph glyph-name="one.aalt" 
d="M530 129v-129h-432v129h160v406l-154 -48l-32 119l210 67h116v-544h132z" />
    <glyph glyph-name="two.aalt" 
d="M528 122v-122h-474v56q0 45 15 83t40.5 70.5t58.5 59t69 49.5q40 25 67 43t43.5 33.5t23 31.5t6.5 37q0 47 -24.5 69t-61.5 22q-42 0 -66.5 -27.5t-24.5 -77.5h-141q0 55 16.5 98.5t47 74t74.5 47t99 16.5q51 0 92.5 -14t71 -41t45.5 -66t16 -88q0 -43 -12.5 -75
t-36 -58.5t-57 -50.5t-75.5 -50q-53 -34 -87.5 -60.5t-51.5 -59.5h327z" />
    <glyph glyph-name="three.aalt" 
d="M431 349q49 -22 74.5 -62t25.5 -97q0 -45 -18 -82t-50 -63.5t-76 -41.5t-97 -15q-109 0 -171.5 60t-67.5 168h137q2 -46 28 -73.5t70 -27.5q47 0 75 24t28 66t-27 64.5t-77 22.5h-67v111h65q92 0 92 80q0 38 -23 58t-66 20q-42 0 -67.5 -23.5t-27.5 -63.5h-135
q2 48 20 86.5t49 66.5t74 43t94 15q50 0 90.5 -13.5t69.5 -38t44.5 -59.5t15.5 -77q0 -104 -82 -148z" />
    <glyph glyph-name="four.aalt" 
d="M553 112h-83v-112h-140v112h-303v111l286 450h157v-442h83v-119zM162 231h178v286z" />
    <glyph glyph-name="five.aalt" 
d="M331 447q46 0 85 -17t67.5 -47.5t45 -72t16.5 -90.5q0 -52 -18 -95t-50 -73.5t-77.5 -47t-100.5 -16.5q-52 0 -94.5 15t-73.5 43t-49 67.5t-21 89.5h137q5 -39 33 -64.5t67 -25.5q47 0 76.5 31.5t29.5 81.5q0 47 -29.5 76.5t-75.5 29.5q-29 0 -53 -13t-41 -36h-128v390
h428v-122h-295v-136q52 32 121 32z" />
    <glyph glyph-name="six.aalt" 
d="M311 456q47 0 88 -18t71.5 -48.5t48 -72.5t17.5 -90q0 -51 -19 -94.5t-52.5 -75.5t-78.5 -50.5t-97 -18.5t-96.5 18.5t-77.5 50.5t-51.5 76.5t-18.5 95.5q0 22 4 43.5t13.5 44.5t25 50.5t38.5 62.5l163 243h164l-143 -217h1zM290 115q24 0 44 8.5t34.5 23t22.5 35t8 44.5
t-8 44.5t-22.5 35t-34.5 23t-44 8.5q-47 0 -77.5 -31.5t-30.5 -79.5q0 -24 8 -44.5t22.5 -35t34.5 -23t43 -8.5z" />
    <glyph glyph-name="seven.aalt" 
d="M517 673v-119l-260 -554h-153l267 546h-320v127h466z" />
    <glyph glyph-name="eight.aalt" 
d="M432 353q49 -24 75 -66.5t26 -100.5q0 -45 -17 -81.5t-49 -62.5t-77 -40t-100 -14q-56 0 -100.5 14t-76.5 40t-49 62t-17 81q0 58 26 100.5t75 67.5q-42 23 -64.5 60.5t-22.5 86.5q0 41 16.5 75t46.5 58.5t72.5 38t93.5 13.5t93 -13.5t72 -38t46.5 -58.5t16.5 -75
q0 -48 -22 -86t-64 -61zM291 575q-42 0 -67.5 -23.5t-25.5 -60.5q0 -39 25.5 -63.5t66.5 -24.5t66 24.5t25 63.5q0 37 -25 60.5t-65 23.5zM289 98q47 0 75.5 26t28.5 68q0 45 -28.5 72t-73.5 27q-48 0 -76.5 -27.5t-28.5 -72.5q0 -42 28.5 -67.5t74.5 -25.5z" />
    <glyph glyph-name="nine.aalt" 
d="M269 217q-47 0 -88 18t-71.5 48.5t-48 72.5t-17.5 90q0 51 19 94.5t52.5 75.5t78.5 50.5t97 18.5t96.5 -18.5t77.5 -50.5t51.5 -76.5t18.5 -95.5q0 -23 -4 -44t-13.5 -44t-25 -50.5t-38.5 -62.5l-163 -243h-164l143 217h-1zM290 558q-24 0 -44 -8.5t-34.5 -23t-22.5 -35
t-8 -44.5t8 -44.5t22.5 -35t34.5 -23t44 -8.5q47 0 77.5 31.5t30.5 79.5q0 24 -8 44.5t-22.5 35t-34.5 23t-43 8.5z" />
    <glyph glyph-name="zero.zero" horiz-adv-x="779" 
d="M390 685q76 0 140.5 -26t111 -72.5t73 -110.5t26.5 -139t-26.5 -139t-73.5 -110.5t-111 -73t-140 -26.5t-140 26.5t-111 73t-73.5 110.5t-26.5 139t26.5 139t73 110.5t111 72.5t140.5 26zM391 562q-46 0 -85 -17t-67.5 -47t-44.5 -71t-16 -89q0 -58 23 -106l300 300
q-24 14 -51.5 22t-58.5 8zM391 111q46 0 85 17t67 47.5t44 72t16 90.5q0 56 -22 105l-301 -301q50 -31 111 -31z" />
    <glyph glyph-name="fraction" unicode="&#x2044;" horiz-adv-x="246" 
d="M264 673h118l-391 -673h-117z" />
    <glyph glyph-name="onehalf" unicode="&#xbd;" horiz-adv-x="758" 
d="M486 673h118l-391 -673h-117zM214 674v-359h-97v272l-77 -22l-20 76l110 33h84zM732 78v-77h-287v30q0 39 24.5 71t81.5 65q25 15 41 25.5t25 19t12.5 16.5t3.5 17q0 20 -12 32t-32 12t-33 -14.5t-13 -38.5h-93q0 59 39 96t102 37q62 0 100.5 -32.5t38.5 -84.5
q0 -19 -5.5 -35.5t-18.5 -32t-33.5 -32t-51.5 -35.5q-20 -12 -34.5 -21.5t-23.5 -17.5h169z" />
    <glyph glyph-name="onethird" unicode="&#x2153;" horiz-adv-x="773" 
d="M486 673h118l-391 -673h-117zM214 674v-359h-97v272l-77 -22l-20 76l110 33h84zM691 188q51 -25 51 -79q0 -24 -10 -45t-28 -36t-43 -23.5t-54 -8.5q-67 0 -105.5 32.5t-40.5 91.5h90q1 -21 15.5 -34t36.5 -13q20 0 33 11.5t13 29.5q0 40 -47 40h-35v65h33q41 0 41 37
t-43 37q-18 0 -31 -11.5t-15 -28.5h-88q2 53 40 84.5t98 31.5q59 0 95 -29.5t36 -77.5q0 -49 -42 -74z" />
    <glyph glyph-name="twothirds" unicode="&#x2154;" horiz-adv-x="885" 
d="M599 673h118l-391 -673h-117zM316 392v-77h-287v30q0 39 24.5 71t81.5 65q25 15 41 25.5t25 19t12.5 16.5t3.5 17q0 20 -12 32t-32 12t-33 -14.5t-13 -38.5h-93q0 59 39 96t102 37q62 0 100.5 -32.5t38.5 -84.5q0 -19 -5.5 -35.5t-18.5 -32t-33.5 -32t-51.5 -35.5
q-20 -12 -34.5 -21.5t-23.5 -17.5h169zM804 188q51 -25 51 -79q0 -24 -10 -45t-28 -36t-43 -23.5t-54 -8.5q-67 0 -105.5 32.5t-40.5 91.5h90q1 -21 15.5 -34t36.5 -13q20 0 33 11.5t13 29.5q0 40 -47 40h-35v65h33q41 0 41 37t-43 37q-18 0 -31 -11.5t-15 -28.5h-88
q2 53 40 84.5t98 31.5q59 0 95 -29.5t36 -77.5q0 -49 -42 -74z" />
    <glyph glyph-name="onequarter" unicode="&#xbc;" horiz-adv-x="732" 
d="M486 673h118l-391 -673h-117zM214 674v-359h-97v272l-77 -22l-20 76l110 33h84zM713 61h-43v-60h-93v60h-179v66l166 235h106v-225h43v-76zM498 137h86l-1 125z" />
    <glyph glyph-name="threequarters" unicode="&#xbe;" horiz-adv-x="794" 
d="M555 673h118l-391 -673h-117zM256 502q51 -25 51 -79q0 -24 -10 -45t-28 -36t-43 -23.5t-54 -8.5q-67 0 -105.5 32.5t-40.5 91.5h90q1 -21 15.5 -34t36.5 -13q20 0 33 11.5t13 29.5q0 40 -47 40h-35v65h33q41 0 41 37t-43 37q-18 0 -31 -11.5t-15 -28.5h-88q2 53 40 84.5
t98 31.5q59 0 95 -29.5t36 -77.5q0 -49 -42 -74zM775 61h-43v-60h-93v60h-179v66l166 235h106v-225h43v-76zM560 137h86l-1 125z" />
    <glyph glyph-name="uni00B9" unicode="&#xb9;" horiz-adv-x="278" 
d="M213 773v-359h-97v272l-77 -22l-20 76l110 33h84z" />
    <glyph glyph-name="uni00B2" unicode="&#xb2;" horiz-adv-x="342" 
d="M315 491v-77h-287v30q0 39 24.5 71t81.5 65q25 15 41 25.5t25 19t12.5 16.5t3.5 17q0 20 -12 32t-32 12t-33 -14.5t-13 -38.5h-93q0 59 39 96t102 37q62 0 100.5 -32.5t38.5 -84.5q0 -19 -5.5 -35.5t-18.5 -32t-33.5 -32t-51.5 -35.5q-20 -12 -34.5 -21.5t-23.5 -17.5
h169z" />
    <glyph glyph-name="uni00B3" unicode="&#xb3;" horiz-adv-x="337" 
d="M255 601q51 -25 51 -79q0 -24 -10 -45t-28 -36t-43 -23.5t-54 -8.5q-67 0 -105.5 32.5t-40.5 91.5h90q1 -21 15.5 -34t36.5 -13q20 0 33 11.5t13 29.5q0 40 -47 40h-35v65h33q41 0 41 37t-43 37q-18 0 -31 -11.5t-15 -28.5h-88q2 53 40 84.5t98 31.5q59 0 95 -29.5
t36 -77.5q0 -49 -42 -74z" />
    <glyph glyph-name="uni2074" unicode="&#x2074;" horiz-adv-x="352" 
d="M333 474h-43v-60h-93v60h-179v66l166 235h106v-225h43v-76zM118 550h86l-1 125z" />
    <glyph glyph-name="asterisk" unicode="*" horiz-adv-x="423" 
d="M289 518l100 -54l-42 -72l-97 60l4 -114h-84l4 114l-97 -60l-42 72l100 54l-100 54l42 73l97 -60l-4 113h84l-4 -113l97 60l42 -73z" />
    <glyph glyph-name="backslash" unicode="\" horiz-adv-x="522" 
d="M343 -30l-301 733h136l301 -733h-136z" />
    <glyph glyph-name="periodcentered" unicode="&#xb7;" horiz-adv-x="285" 
d="M142 255q-37 0 -62 24t-25 61t25 61.5t62 24.5q38 0 63 -24.5t25 -61.5t-25 -61t-63 -24z" />
    <glyph glyph-name="bullet" unicode="&#x2022;" horiz-adv-x="417" 
d="M209 170q-34 0 -64 12t-52.5 33.5t-36 50.5t-13.5 64t13.5 64.5t36 51t52.5 33.5t64 12q33 0 63 -12t52.5 -33.5t35.5 -51t13 -64.5t-13 -64.5t-35.5 -50.5t-52.5 -33t-63 -12z" />
    <glyph glyph-name="colon" unicode=":" horiz-adv-x="305" 
d="M152 308q-37 0 -62 24t-25 61t25 61.5t62 24.5q38 0 63 -24.5t25 -61.5t-25 -61t-63 -24zM152 -12q-37 0 -62 24t-25 61t25 61.5t62 24.5q38 0 63 -24.5t25 -61.5t-25 -61t-63 -24z" />
    <glyph glyph-name="comma" unicode="," horiz-adv-x="280" 
d="M75 135h146l-49 -294h-106z" />
    <glyph glyph-name="ellipsis" unicode="&#x2026;" horiz-adv-x="867" 
d="M433 -12q-37 0 -62 24t-25 61t25 61.5t62 24.5q38 0 63 -24.5t25 -61.5t-25 -61t-63 -24zM156 -12q-37 0 -62 24t-25 61t25 61.5t62 24.5q38 0 63 -24.5t25 -61.5t-25 -61t-63 -24zM709 -12q-37 0 -62 24t-25 61t25 61.5t62 24.5q38 0 63 -24.5t25 -61.5t-25 -61t-63 -24
z" />
    <glyph glyph-name="exclam" unicode="!" horiz-adv-x="323" 
d="M80 673h164l-24 -446h-116zM161 -12q-36 0 -60 23t-24 58q0 36 24 59t60 23q37 0 61 -23t24 -59q0 -35 -24 -58t-61 -23z" />
    <glyph glyph-name="exclamdown" unicode="&#xa1;" horiz-adv-x="326" 
d="M214 283l24 -446h-164l24 446h116zM155 522q37 0 61 -23t24 -58q0 -36 -24 -59t-61 -23q-36 0 -60 23t-24 59q0 35 24 58t60 23z" />
    <glyph glyph-name="numbersign" unicode="#" horiz-adv-x="628" 
d="M515 395l-17 -127h94v-111h-109l-21 -157h-123l21 157h-138l-20 -157h-123l21 157h-85v111h100l17 127h-95v110h109l22 162h123l-22 -162h139l21 162h122l-22 -162h85v-110h-99zM380 265l18 133h-147l-19 -133h148z" />
    <glyph glyph-name="period" unicode="." horiz-adv-x="285" 
d="M142 -12q-37 0 -62 24t-25 61t25 61.5t62 24.5q38 0 63 -24.5t25 -61.5t-25 -61t-63 -24z" />
    <glyph glyph-name="question" unicode="?" horiz-adv-x="412" 
d="M191 673q89 0 139 -43.5t50 -121.5q0 -26 -7 -49t-25 -47t-48 -51t-75 -60v-74h-120v128q45 33 71.5 54.5t41 35.5t18.5 24.5t4 22.5q0 60 -74 60h-117v121h142zM166 151q37 0 61 -23t24 -59q0 -35 -24 -58t-61 -23q-36 0 -60 23t-24 58q0 36 24 59t60 23z" />
    <glyph glyph-name="questiondown" unicode="&#xbf;" horiz-adv-x="397" 
d="M221 -163q-89 0 -139 43.5t-50 121.5q0 26 7 49t25 47t48 51t75 60v74h120v-128q-45 -33 -71.5 -54.5t-41 -35.5t-18.5 -24.5t-4 -22.5q0 -60 74 -60h117v-121h-142zM246 359q-37 0 -61 23t-24 59q0 35 24 58t61 23q36 0 60 -23t24 -58q0 -36 -24 -59t-60 -23z" />
    <glyph glyph-name="quotedbl" unicode="&#x22;" horiz-adv-x="457" 
d="M57 673h130v-286h-113zM269 673h130l-17 -286h-113v286z" />
    <glyph glyph-name="quotesingle" unicode="'" horiz-adv-x="258" 
d="M57 673h144l-17 -286h-110z" />
    <glyph glyph-name="semicolon" unicode=";" horiz-adv-x="305" 
d="M152 308q-37 0 -62 24t-25 61t25 61.5t62 24.5q38 0 63 -24.5t25 -61.5t-25 -61t-63 -24zM85 135h146l-49 -294h-106z" />
    <glyph glyph-name="slash" unicode="/" horiz-adv-x="522" 
d="M344 703h136l-301 -733h-136z" />
    <glyph glyph-name="underscore" unicode="_" horiz-adv-x="488" 
d="M29 -63h431v-114h-431v114z" />
    <glyph glyph-name="exclamdown.aalt" horiz-adv-x="323" 
d="M220 446l24 -446h-164l24 446h116zM161 685q37 0 61 -23t24 -58q0 -36 -24 -59t-61 -23q-36 0 -60 23t-24 59q0 35 24 58t60 23z" />
    <glyph glyph-name="questiondown.aalt" horiz-adv-x="412" 
d="M221 0q-89 0 -139 43.5t-50 121.5q0 26 7 49t25 47t48 51t75 60v74h120v-128q-45 -33 -71.5 -54.5t-41 -35.5t-18.5 -24.5t-4 -22.5q0 -60 74 -60h117v-121h-142zM246 522q-37 0 -61 23t-24 59q0 35 24 58t61 23q36 0 60 -23t24 -58q0 -36 -24 -59t-60 -23z" />
    <glyph glyph-name="braceleft" unicode="{" horiz-adv-x="411" 
d="M306 655q-66 0 -66 -64q0 -16 3.5 -37t7 -44t7 -45.5t3.5 -40.5q0 -38 -17.5 -58.5t-58.5 -28.5q41 -8 58.5 -28.5t17.5 -57.5q0 -18 -3.5 -40.5t-7 -45.5t-7 -44t-3.5 -37q0 -65 66 -65h55v-110h-83q-159 0 -159 143q0 23 3.5 47t7.5 46.5t7.5 43t3.5 36.5q0 57 -56 57
h-47v111h47q56 0 56 56q0 16 -3.5 36.5t-7.5 43.5t-7.5 47t-3.5 47q0 142 159 142h83v-110h-55z" />
    <glyph glyph-name="braceright" unicode="}" horiz-adv-x="411" 
d="M50 655v110h83q159 0 159 -142q0 -23 -3.5 -47t-7.5 -47t-7.5 -43.5t-3.5 -36.5q0 -56 56 -56h47v-111h-47q-56 0 -56 -57q0 -16 3.5 -36.5t7.5 -43t7.5 -46.5t3.5 -47q0 -143 -159 -143h-83v110h55q66 0 66 65q0 16 -3.5 37t-7 44t-7 45.5t-3.5 40.5q0 37 17.5 57.5
t58.5 28.5q-41 8 -58.5 28.5t-17.5 58.5q0 18 3.5 40.5t7 45.5t7 44t3.5 37q0 64 -66 64h-55z" />
    <glyph glyph-name="bracketleft" unicode="[" horiz-adv-x="366" 
d="M81 765h238v-107h-115v-641h115v-108h-238v856z" />
    <glyph glyph-name="bracketright" unicode="]" horiz-adv-x="366" 
d="M47 -91v108h115v641h-115v107h238v-856h-238z" />
    <glyph glyph-name="parenleft" unicode="(" horiz-adv-x="372" 
d="M236 -84q-78 85 -118 191t-40 230q0 123 40 229.5t118 191.5h141q-86 -85 -131 -192.5t-45 -228.5t45 -228.5t131 -192.5h-141z" />
    <glyph glyph-name="parenright" unicode=")" horiz-adv-x="372" 
d="M-5 -84q86 85 131 192.5t45 228.5t-45 228.5t-131 192.5h141q78 -85 118 -191.5t40 -229.5q0 -124 -40 -230t-118 -191h-141z" />
    <glyph glyph-name="emdash" unicode="&#x2014;" horiz-adv-x="997" 
d="M48 374h900v-120h-900v120z" />
    <glyph glyph-name="endash" unicode="&#x2013;" horiz-adv-x="497" 
d="M33 374h431v-120h-431v120z" />
    <glyph glyph-name="hyphen" unicode="-" horiz-adv-x="328" 
d="M39 374h251v-120h-251v120z" />
    <glyph glyph-name="uni00AD" unicode="&#xad;" horiz-adv-x="328" 
d="M39 374h251v-120h-251v120z" />
    <glyph glyph-name="emdash.aalt" horiz-adv-x="997" 
d="M48 335h900v-120h-900v120z" />
    <glyph glyph-name="endash.aalt" horiz-adv-x="497" 
d="M33 335h431v-120h-431v120z" />
    <glyph glyph-name="glyph549" horiz-adv-x="328" 
d="M39 335h251v-120h-251v120z" />
    <glyph glyph-name="guillemotleft" unicode="&#xab;" horiz-adv-x="533" 
d="M135 97l-107 218l106 217h142l-103 -217l103 -218h-141zM368 97l-107 218l106 217h142l-103 -217l103 -218h-141z" />
    <glyph glyph-name="guillemotright" unicode="&#xbb;" horiz-adv-x="533" 
d="M128 315l-103 217h142l106 -217l-107 -218h-141zM361 315l-103 217h142l106 -217l-107 -218h-141z" />
    <glyph glyph-name="guilsinglleft" unicode="&#x2039;" horiz-adv-x="301" 
d="M135 97l-107 218l106 217h142l-103 -217l103 -218h-141z" />
    <glyph glyph-name="guilsinglright" unicode="&#x203a;" horiz-adv-x="301" 
d="M128 315l-103 217h142l106 -217l-107 -218h-141z" />
    <glyph glyph-name="quotedblbase" unicode="&#x201e;" horiz-adv-x="486" 
d="M73 132h143l-37 -286h-115zM296 132h136l-50 -286h-122z" />
    <glyph glyph-name="quotedblleft" unicode="&#x201c;" horiz-adv-x="486" 
d="M413 387h-143l37 286h115zM190 387h-136l50 286h122z" />
    <glyph glyph-name="quotedblright" unicode="&#x201d;" horiz-adv-x="486" 
d="M73 673h143l-37 -286h-115zM296 673h136l-50 -286h-122z" />
    <glyph glyph-name="quoteleft" unicode="&#x2018;" horiz-adv-x="280" 
d="M103 673h113l-8 -286h-155z" />
    <glyph glyph-name="quoteright" unicode="&#x2019;" horiz-adv-x="280" 
d="M73 672h154l-50 -286h-113z" />
    <glyph glyph-name="quotesinglbase" unicode="&#x201a;" horiz-adv-x="280" 
d="M73 132h154l-50 -286h-113z" />
    <glyph glyph-name="uni00A0" unicode="&#xa0;" horiz-adv-x="272" 
 />
    <glyph glyph-name="cent" unicode="&#xa2;" horiz-adv-x="589" 
d="M238 73q-45 10 -82 33t-63.5 56t-41.5 74.5t-15 88.5t15 89t41.5 75t63.5 56t82 33v171h124v-169q77 -15 128.5 -67t63.5 -129h-136q-11 36 -41.5 56.5t-72.5 20.5q-28 0 -51.5 -10t-40.5 -28t-26.5 -43t-9.5 -55q0 -60 35.5 -97t92.5 -37q42 0 72.5 20.5t41.5 56.5h136
q-12 -77 -63.5 -129t-128.5 -68v-168h-124v170z" />
    <glyph glyph-name="currency" unicode="&#xa4;" horiz-adv-x="657" 
d="M563 4l-117 120q-56 -31 -123 -31q-65 0 -120 29l-109 -118l-84 84l105 113q-18 28 -28 60.5t-10 68.5q0 35 10 66.5t28 58.5l-105 109l84 85l108 -113q56 31 120 31q35 0 66.5 -8.5t58.5 -23.5l114 114l85 -85l-112 -112q16 -26 25 -57t9 -65q0 -35 -9 -66t-26 -58
l114 -118zM324 214q49 0 79.5 32.5t30.5 83.5t-30.5 83.5t-80.5 32.5t-80 -32t-30 -84q0 -53 30 -84.5t81 -31.5z" />
    <glyph glyph-name="dollar" unicode="$" horiz-adv-x="530" 
d="M497 197q0 -71 -46 -116.5t-127 -57.5v-120h-124v122q-78 16 -122.5 65t-47.5 124h132q3 -43 31 -66.5t73 -23.5q46 0 71 17t25 49q0 14 -4 25t-13 19.5t-24.5 16.5t-39.5 16l-72 26q-83 31 -120.5 72.5t-37.5 101.5q0 63 40 105.5t109 56.5v120h124v-119
q70 -14 110.5 -58t45.5 -114h-129q-11 73 -88 73q-38 0 -58.5 -16t-20.5 -45q0 -12 3.5 -21.5t12.5 -18t24.5 -16t39.5 -16.5l75 -28q43 -17 73.5 -35t49 -38t27 -44.5t8.5 -55.5z" />
    <glyph glyph-name="Euro" unicode="&#x20ac;" horiz-adv-x="823" 
d="M438 111q78 0 133.5 44.5t73.5 120.5h140q-8 -65 -37 -118t-74.5 -90.5t-105.5 -58.5t-129 -21q-60 0 -112.5 15.5t-95.5 44t-75 68.5t-51 89h-101v100h78q-1 8 -1 16v16v11.5t1 11.5h-78v100h98q18 51 50 92.5t75.5 71t97 45.5t114.5 16q70 0 129.5 -21t105 -58.5
t74.5 -91t37 -117.5h-140q-17 76 -72.5 120.5t-133.5 44.5q-61 0 -108.5 -27t-75.5 -75h272l-27 -100h-275q-1 -6 -1 -11.5v-11.5q0 -8 0.5 -16t1.5 -16h260l-27 -100h-199q29 -44 74.5 -69t103.5 -25z" />
    <glyph glyph-name="florin" unicode="&#x192;" horiz-adv-x="473" 
d="M456 673v-127h-51q-38 0 -58 -17t-25 -56l-9 -71h91v-116h-105l-28 -232q-22 -187 -200 -187h-73v126h45q42 0 62.5 17.5t26.5 56.5l27 219h-72v116h86l10 83q22 188 200 188h73z" />
    <glyph glyph-name="uni20B4" unicode="&#x20b4;" horiz-adv-x="583" 
d="M451 371q-36 -25 -92 -50l-22 -10h219v-91h-350q-6 -17 -6 -37q0 -38 28.5 -61.5t73.5 -23.5t74.5 20.5t37.5 55.5h136q-4 -44 -23.5 -78.5t-51.5 -58.5t-76.5 -37t-98.5 -13q-55 0 -99.5 14t-75.5 39.5t-47.5 62t-16.5 81.5q0 19 3 36h-37v91h105q18 11 41 23t52 25
l27 12h-225v91h355q7 17 7 40q0 32 -24.5 52.5t-62.5 20.5t-62.5 -17.5t-31.5 -49.5h-134q10 83 70 130t157 47q50 0 91 -13t70 -37t45 -58t16 -75q0 -11 -1 -21t-3 -19h37v-91h-105z" />
    <glyph glyph-name="uni20BA" unicode="&#x20ba;" horiz-adv-x="557" 
d="M529 299v-51q0 -121 -77.5 -184.5t-223.5 -63.5h-118v242l-83 -33v106l83 33v72l-83 -33v106l83 33v147h140v-102l167 64v-106l-167 -64v-72l167 64v-106l-167 -64v-164q157 5 157 138v38h122z" />
    <glyph glyph-name="uni20BD" unicode="&#x20bd;" horiz-adv-x="606" 
d="M110 109h-79v108h79l-1 71h-78v109h78v276h256q49 0 89 -13.5t68 -38.5t43 -60.5t15 -78.5q0 -44 -15.5 -79.5t-43.5 -61t-68 -39.5t-88 -14h-115v-71h250v-108h-250v-109h-141zM347 396q43 0 67 22t24 63q0 39 -23.5 60.5t-67.5 21.5h-98v-167h98z" />
    <glyph glyph-name="sterling" unicode="&#xa3;" horiz-adv-x="560" 
d="M293 226q0 -69 -55 -113h288v-113h-489v96q68 24 98 53t30 71q0 11 -1.5 20.5t-3.5 19.5h-113v108h70q-13 29 -22 59.5t-9 67.5q0 43 16 78t45 60t70.5 38.5t92.5 13.5q108 0 166.5 -55.5t58.5 -155.5h-125q-1 42 -25.5 66.5t-65.5 24.5q-44 0 -68 -24t-24 -69
q0 -26 9 -52t20 -52h183v-108h-148q1 -8 1.5 -16.5t0.5 -17.5z" />
    <glyph glyph-name="uni20B8" unicode="&#x20b8;" horiz-adv-x="616" 
d="M29 673h559v-123h-559v123zM239 355h-210v123h559v-123h-209v-355h-140v355z" />
    <glyph glyph-name="uni20AE" unicode="&#x20ae;" horiz-adv-x="616" 
d="M379 546v-127l158 44v-106l-158 -44v-73l158 44v-106l-158 -44v-134h-140v105l-157 -44v106l157 44v70l-157 -42v106l157 42v159h-210v127h559v-127h-209z" />
    <glyph glyph-name="yen" unicode="&#xa5;" horiz-adv-x="624" 
d="M431 370h131v-105h-178v-73h178v-105h-178v-87h-143v87h-178v105h178v73h-178v105h131l-177 303h164l132 -253l131 253h163z" />
    <glyph glyph-name="Omega" unicode="&#x2126;" horiz-adv-x="817" 
d="M767 360q0 -146 -122 -242h113v-118h-304v118q80 36 122 92.5t42 131.5q0 46 -15.5 85t-43.5 67t-66.5 44t-83.5 16q-46 0 -84.5 -15.5t-66.5 -44t-43.5 -67.5t-15.5 -85q0 -76 42 -132.5t123 -91.5v-118h-305v118h109q-58 48 -87.5 109.5t-29.5 133.5q0 70 27 129
t75 102.5t113 68t142 24.5q76 0 142 -24.5t114 -68t75.5 -103t27.5 -129.5z" />
    <glyph glyph-name="approxequal" unicode="&#x2248;" 
d="M399.092 356q-13.4961 0 -25.5459 1.5t-26.0273 5.5q-13.9785 4 -30.3662 11.5t-39.5234 18.5q-23.1357 10 -38.5596 17t-26.9912 11q-11.5684 4 -20.7266 5.5q-9.15723 1.5 -18.7979 1.5q-23.1357 0 -49.1631 -9.5t-69.4072 -32.5v122q19.2803 13 35.1855 21.5
q15.9062 8.5 30.3662 13.5q14.459 5 28.9189 7t30.8477 2q13.4961 0 25.5459 -1.5t26.0273 -5.5q13.9785 -4 30.8477 -11.5q16.8701 -7.5 40.0059 -18.5q22.1719 -11 38.0781 -17.5q15.9053 -6.5 27.4736 -10.5q11.5674 -4 20.7256 -5.5t18.7979 -1.5q23.1357 0 49.1631 9.5
t68.4434 32.5v-121q-19.2793 -13 -35.1855 -21.5t-30.3652 -14q-14.46 -5.5 -28.9199 -7.5t-30.8477 -2zM399.092 126q-13.4961 0 -25.5459 1.5t-26.0273 5.5q-13.9785 4 -30.3662 11.5t-39.5234 18.5q-23.1357 10 -38.5596 17t-26.9912 11q-11.5684 4 -20.7266 5.5
q-9.15723 1.5 -18.7979 1.5q-23.1357 0 -49.1631 -9.5t-69.4072 -32.5v122q19.2803 13 35.1855 21.5q15.9062 8.5 30.3662 13.5q14.459 5 28.9189 7t30.8477 2q13.4961 0 25.5459 -1.5t26.0273 -5.5q13.9785 -4 30.8477 -11.5q16.8701 -7.5 40.0059 -18.5
q22.1719 -11 38.0781 -17.5q15.9053 -6.5 27.4736 -10.5q11.5674 -4 20.7256 -5.5t18.7979 -1.5q23.1357 0 49.1631 9.5t68.4434 32.5v-121q-19.2793 -13 -35.1855 -21.5t-30.3652 -14q-14.46 -5.5 -28.9199 -7.5t-30.8477 -2z" />
    <glyph glyph-name="asciitilde" unicode="~" 
d="M404 237q-14 0 -26.5 1.5t-27 5.5t-31.5 11.5t-41 18.5q-24 10 -40 17t-28 11t-21.5 5.5t-19.5 1.5q-24 0 -51 -9.5t-72 -32.5v122q20 13 36.5 21.5t31.5 13.5t30 7t32 2q14 0 26.5 -1.5t27 -5.5t32 -11.5t41.5 -18.5q23 -11 39.5 -17.5t28.5 -10.5t21.5 -5.5t19.5 -1.5
q24 0 51 9.5t71 32.5v-121q-20 -13 -36.5 -21.5t-31.5 -14t-30 -7.5t-32 -2z" />
    <glyph glyph-name="uni2219" unicode="&#x2219;" horiz-adv-x="280" 
d="M140 255q-37 0 -62 24t-25 61t25 61.5t62 24.5q38 0 63 -24.5t25 -61.5t-25 -61t-63 -24z" />
    <glyph glyph-name="divide" unicode="&#xf7;" 
d="M290 456q-35 0 -59 23t-24 56q0 34 24 56.5t59 22.5t59.5 -22.5t24.5 -56.5q0 -33 -24.5 -56t-59.5 -23zM46 397h488v-121h-488v121zM290 59q-35 0 -59 22.5t-24 56.5t24 56.5t59 22.5t59.5 -22.5t24.5 -56.5t-24.5 -56.5t-59.5 -22.5z" />
    <glyph glyph-name="equal" unicode="=" 
d="M54 505h472v-115h-472v115zM54 284h472v-116h-472v116z" />
    <glyph glyph-name="greater" unicode="&#x3e;" 
d="M528 390v-105l-479 -201v132l310 122l-310 122v132z" />
    <glyph glyph-name="greaterequal" unicode="&#x2265;" 
d="M526 477v-95l-468 -173v126l283 95l-283 94v126zM58 148h463v-117h-463v117z" />
    <glyph glyph-name="Delta" unicode="&#x2206;" horiz-adv-x="677" 
d="M625 118v-118h-573l1 118l211 555h152zM199 120h282l-141 416z" />
    <glyph glyph-name="infinity" unicode="&#x221e;" horiz-adv-x="903" 
d="M665 539q48 0 87 -15t66.5 -43t42.5 -67t15 -88q0 -48 -14.5 -87t-42 -66.5t-66.5 -42.5t-87 -15q-38 0 -69 9.5t-56.5 25.5t-47 37t-40.5 44q-19 -23 -40.5 -44t-47.5 -37t-57.5 -25.5t-69.5 -9.5q-48 0 -87 15t-66.5 42.5t-42.5 66.5t-15 87q0 49 15 88t42.5 67
t66.5 43t87 15q37 0 68 -9t57 -25t48 -36.5t41 -43.5q19 23 40.5 43.5t47.5 36.5t56.5 25t68.5 9zM253 240q39 0 68.5 25.5t58.5 63.5q-28 36 -58 61t-70 25q-41 0 -65.5 -23.5t-24.5 -62.5q0 -42 25 -65.5t66 -23.5zM652 240q41 0 65.5 23.5t24.5 64.5q0 40 -24.5 63.5
t-65.5 23.5q-40 0 -70 -25t-58 -62q29 -37 58.5 -62.5t69.5 -25.5z" />
    <glyph glyph-name="integral" unicode="&#x222b;" horiz-adv-x="345" 
d="M-2 2h50q92 0 92 86q0 26 -5.5 65t-14 85t-18.5 96.5t-18.5 98.5t-14 91t-5.5 75q0 89 51.5 136t149.5 47h84v-125h-51q-47 0 -69 -20.5t-22 -65.5q0 -26 6 -64.5t14.5 -84.5t18 -96.5t18 -99t14 -91.5t5.5 -75q0 -88 -52.5 -135.5t-148.5 -47.5h-84v125z" />
    <glyph glyph-name="less" unicode="&#x3c;" 
d="M531 460l-310 -122l310 -122v-132l-479 201v105l479 202v-132z" />
    <glyph glyph-name="lessequal" unicode="&#x2264;" 
d="M522 524l-283 -94l283 -95v-126l-468 173v95l468 173v-126zM59 31v117h463v-117h-463z" />
    <glyph glyph-name="logicalnot" unicode="&#xac;" 
d="M361 284h-321v119h454v-284h-133v165z" />
    <glyph glyph-name="mu" unicode="&#xb5;" horiz-adv-x="605" 
d="M592 119v-119h-61q-72 0 -108 45q-21 -26 -52.5 -40t-71.5 -14q-31 0 -56 8.5t-44 22.5v-185h-134v659h140v-287q0 -43 23.5 -68t64.5 -25q38 0 63 25.5t25 66.5v288h140v-325q0 -52 47 -52h24z" />
    <glyph glyph-name="minus" unicode="&#x2212;" 
d="M46 395h487v-120h-487v120z" />
    <glyph glyph-name="multiply" unicode="&#xd7;" 
d="M60 191l145 146l-145 145l84 84l146 -145l145 145l84 -84l-145 -145l145 -146l-83 -84l-147 145l-145 -145z" />
    <glyph glyph-name="notequal" unicode="&#x2260;" 
d="M54 505h251l55 107h116l-54 -107h104v-115h-163l-54 -106h217v-116h-276l-49 -97h-117l49 97h-79v116h138l54 106h-192v115z" />
    <glyph glyph-name="partialdiff" unicode="&#x2202;" horiz-adv-x="601" 
d="M304 685q126 0 191.5 -81t65.5 -236q0 -88 -20.5 -158.5t-59 -120t-93 -76t-122.5 -26.5q-52 0 -94.5 14.5t-72.5 41.5t-46.5 64.5t-16.5 84.5q0 106 63 163.5t180 57.5q35 0 71.5 -5.5t69.5 -15.5q-4 90 -34 132t-88 42q-38 0 -63.5 -19.5t-31.5 -54.5h-129
q3 44 20.5 80t47.5 61t71 38.5t91 13.5zM272 109q58 0 94.5 45t48.5 130q-29 9 -60 14t-60 5q-57 0 -87 -26.5t-30 -75.5q0 -44 24.5 -68t69.5 -24z" />
    <glyph glyph-name="percent" unicode="%" horiz-adv-x="874" 
d="M211 335q-39 0 -72 13.5t-57.5 36.5t-38 55t-13.5 70q0 37 13.5 69.5t38 55.5t57.5 36.5t72 13.5t72 -13.5t57 -36.5t38 -55.5t14 -69.5t-14 -69t-38 -55.5t-57 -37t-72 -13.5zM577 673h123l-404 -673h-121zM211 436q33 0 53.5 21t20.5 55q0 33 -21 54t-53 21
q-33 0 -53.5 -20.5t-20.5 -54.5t20.5 -55t53.5 -21zM663 -12q-39 0 -72 13.5t-57.5 37t-38 55.5t-13.5 70q0 37 13.5 69t37.5 55.5t57.5 36.5t72.5 13t72 -13.5t57.5 -36.5t38 -55t13.5 -69q0 -38 -14 -70t-38 -55.5t-57 -37t-72 -13.5zM664 89q32 0 52.5 21.5t20.5 54.5
t-21 54.5t-53 21.5q-33 0 -53.5 -21t-20.5 -55t20.5 -55t54.5 -21z" />
    <glyph glyph-name="perthousand" unicode="&#x2030;" horiz-adv-x="1283" 
d="M1072 -12q-39 0 -72 13.5t-57.5 37t-38 55.5t-13.5 70q0 37 13.5 69t37.5 55.5t57.5 36.5t72.5 13t72 -13.5t57.5 -36.5t38 -55t13.5 -69q0 -38 -14 -70t-38 -55.5t-57 -37t-72 -13.5zM1074 89q32 0 52.5 21.5t20.5 54.5t-21 54.5t-53 21.5q-33 0 -53.5 -21t-20.5 -55
t20.5 -55t54.5 -21zM211 335q-39 0 -72 13.5t-57.5 36.5t-38 55t-13.5 70q0 37 13.5 69.5t38 55.5t57.5 36.5t72 13.5t72 -13.5t57 -36.5t38 -55.5t14 -69.5t-14 -69t-38 -55.5t-57 -37t-72 -13.5zM577 673h123l-404 -673h-121zM211 436q33 0 53.5 21t20.5 55q0 33 -21 54
t-53 21q-33 0 -53.5 -20.5t-20.5 -54.5t20.5 -55t53.5 -21zM663 -12q-39 0 -72 13.5t-57.5 37t-38 55.5t-13.5 70q0 37 13.5 69t37.5 55.5t57.5 36.5t72.5 13t72 -13.5t57.5 -36.5t38 -55t13.5 -69q0 -38 -14 -70t-38 -55.5t-57 -37t-72 -13.5zM664 89q32 0 52.5 21.5
t20.5 54.5t-21 54.5t-53 21.5q-33 0 -53.5 -21t-20.5 -55t20.5 -55t54.5 -21z" />
    <glyph glyph-name="plus" unicode="+" 
d="M227 284h-184v114h184v188h127v-188h183v-114h-183v-188h-127v188z" />
    <glyph glyph-name="plusminus" unicode="&#xb1;" 
d="M227 370h-184v114h184v169h127v-169h183v-114h-183v-169h-127v169zM54 148h474v-112h-474v112z" />
    <glyph glyph-name="product" unicode="&#x220f;" horiz-adv-x="696" 
d="M78 673h540v-799h-142v670h-256v-670h-142v799z" />
    <glyph glyph-name="radical" unicode="&#x221a;" horiz-adv-x="724" 
d="M732 750l-449 -883h-127v314h-143v115h249v-235l340 689h130z" />
    <glyph glyph-name="summation" unicode="&#x2211;" horiz-adv-x="520" 
d="M494 1v-127h-460v93l201 313l-201 300v93h448v-127h-270l158 -224v-81l-161 -240h285z" />
    <glyph glyph-name="lozenge" unicode="&#x25ca;" horiz-adv-x="532" 
d="M522 334l-226 -334h-61l-225 334l225 339h61zM385 334l-118 186l-119 -186l122 -185z" />
    <glyph glyph-name="uniF8FF" unicode="&#xf8ff;" horiz-adv-x="1209" 
d="M693 -74l-12 -2q42 10 72.5 28t50.5 37q1 0 3 2v1q2 2 7.5 8t11.5 13t10.5 13.5t4.5 8.5q-12 -8 -19.5 -20.5t-18.5 -21.5q5 6 6 7t1 3h-2v1l-4 -2q-22 -19 -43 -33.5t-43.5 -24t-48 -14.5t-55.5 -5q-14 0 -24.5 1t-21.5 4t-24 8.5t-32 13.5q8 -2 19.5 -7t22.5 -7
q9 -2 11 -1q-12 4 -22.5 8t-19.5 8q13 -2 25.5 -3t19.5 1q-25 1 -48.5 9t-40.5 25q6 -4 11 -6.5t11 -3.5q-22 14 -41 33q23 -19 49.5 -27t55.5 -8q25 0 50 5.5t48 14.5q-26 -2 -50.5 2.5t-62.5 15.5l23 -14q0 -1 -5.5 0t-13.5 3.5t-16.5 5.5t-13.5 6l-8 5q-1 0 -1 1
q3 2 13.5 4.5t15.5 3.5l2 -1h15q10 0 14.5 3t9.5 6l3 1q2 0 2 -1q5 -5 17 -11t29 -6q11 2 14 5.5t1 6.5q0 5 3 5q4 0 8 3t4 6q23 5 41.5 16.5t29.5 29.5q-9 -6 -13 -6q-3 0 -3 2t4.5 5.5t16.5 11.5q26 16 33.5 35.5t18.5 46.5q-8 2 -15 2h-13q-16 0 -33.5 -3t-34 -7.5
t-31 -9t-24.5 -6.5q0 -2 -2.5 -2.5t-4.5 -0.5t-3 -1h-10v1q0 1 1 3.5t6 3.5l28 10h3q0 2 2 2l4 1q2 0 4 2l3 2l7 2h2q3 1 5.5 2t5.5 3q1 0 2 0.5t3 0.5h3q2 0 3.5 0.5t3.5 0.5q4 0 10 1h1q5 0 8 1q1 1 3 0h1q1 1 2 1q1 1 3 1q0 -1 1 -1q1 1 2 1h7q2 0 3 2h5q2 0 8 2
q10 4 14 7q1 0 2.5 1t-0.5 2q-2 0 -4.5 0.5t-5.5 0.5q-2 0 -4.5 0.5t-4.5 -0.5q-5 0 -7 -1q-2 0 -2.5 -0.5t-2.5 -0.5h-3q-5 1 -8.5 3.5t-9.5 6.5q-1 0 -3 1l-4 2l-4 -1q-2 0 -3 -1l-11 -3l-14 -2h-2q-3 0 -5 1t-5 1q-2 0 -7 -2.5t-7 -2.5t-4 -1t-4 -1t-8.5 -2t-8.5 -2l-2 2
q1 3 10.5 7.5t21 9t22 7.5t13.5 3q1 0 -0.5 -1.5t-4 -3t-5 -2.5t-1.5 -2h2q3 0 10.5 2t15.5 3q13 0 18 -1h6q10 0 14 7q0 1 -3 1q-2 1 -2.5 0.5t-1.5 -0.5q-1 -1 -3 -1l-5 -1q-6 0 -8 1q-1 1 -6.5 1.5t-11.5 0.5l-1 1q0 1 2.5 1h17.5l13 3l10 1q1 1 4.5 1t4.5 -1
q4 -1 9 -0.5t5 2.5q0 1 -8 4q-1 1 -21 1q-1 0 -1 -0.5t-1 -0.5h-2q-10 0 -19.5 -1t-6.5 -2q-1 0 -1 1q0 2 9.5 4t11.5 1q-1 1 -5 1.5t-8 0.5q-38 0 -76 -9t-72 -26l-1 -1l-6 6q-16 18 -22.5 24.5t-16.5 17.5q-16 16 -35.5 28.5t-30.5 14.5q37 35 85 55t96 20q76 0 133 -36
q-20 11 -46 17.5t-53 6.5q-18 0 -34 -2t-27 -7q20 4 50 4q44 0 81.5 -13t63.5 -36q-18 10 -27 14t-28 9q30 -10 52 -29t36 -43.5t21 -52.5t7 -56q0 -44 -12 -80.5t-41 -72.5q-26 -30 -55.5 -51t-80.5 -33l4 2q-8 -2 -9 -2h-3zM82 -6q2 16 8 24q6 0 10 4q5 5 8 11
q11 5 15.5 8.5t7.5 8.5l12 23l1 1l16 1l14 5q0 1 4 5l2.5 5t-0.5 3l-7 20l-2 29q0 2 -2 2q-12 -3 -18.5 -3.5t-14.5 0.5q-19 2 -31 14t-12 32q0 13 7 23.5t15.5 18t15.5 13t8 9.5q0 3 -4 5q-10 2 -14 1.5t-9 1.5q-22 7 -25 30q0 10 4 15l26 -13q31 -8 39 -15q5 -8 5 -17
q0 -10 -8 -18t-17 -16t-17 -17t-8 -20q0 -30 31 -30q10 0 18.5 3.5t24.5 12.5q23 17 30.5 22t13.5 7q8 3 17 3t17 3q6 1 11 4t19 16q8 7 16 9.5t19 3.5q16 2 35 16.5t42 21.5l31 17q12 4 19 4q9 0 15 -3q13 -5 29 -16.5t31.5 -27t30 -32.5t23.5 -32q4 -9 6 -20q5 -41 19 -76
l10 -11l33 -36q1 0 1 -1l-2 -2q-17 -3 -35 18q-5 11 -10 16.5t-12 7.5l-1 -1q1 -2 3 -4.5t3 -4.5q6 -11 7.5 -14.5t2.5 -6.5q1 -9 18 -18l10 -5q2 -3 1 -4l-2 -1q-26 0 -43 17q-3 6 -10 6q-13 -13 -24 -14q-2 1 -3.5 1h-9.5q-14 0 -24 -5t-19 -5q-10 0 -11 6v20l5 7
q0 2 -2 2q-6 3 -7 3q0 3 3 6.5t12 12.5q3 11 10 20l-2 2q-15 -4 -24 -3q-11 -7 -23 -4q-1 1 -1 4q12 18 9 41q-1 2 -3 2q-1 0 -3 -2q-4 -25 -11 -36q-1 -1 -0.5 -1t0 -0.5t-5 -1.5t-14.5 -4q-4 -2 -4 -5l5 -12l16 -28q0 -5 -0.5 -8t-4.5 -16q1 -2 3 0q6 5 12 19v6.5t-2 3.5
l-16 31l5 3l11 -3q5 -16 14 -28q2 -2 2 -3.5v-6.5q0 -6 -2 -8q-3 -5 -5.5 -10t-6.5 -10q-3 -3 -7 -3.5t-9 -0.5h-5q-11 -6 -22 -10t-23 -7q-2 -1 -7 -1q-9 0 -13 4q-4 3 -6.5 7.5t-4.5 8.5q-2 3 -8 3q-5 0 -8 1l-12 21q0 1 2 5q10 2 17 2h4q7 0 11 -4q5 -8 9 -15t12 -11h3
q11 0 21 5q3 2 6 4.5t3 7.5q-1 8 -5.5 14t-10.5 11q-16 7 -27 20q-2 4 -3 7.5t-3 7.5q-3 3 -5 1t-1 -4t1 -5q1 -2 -1 -8q-2 -2 -8 -2q-13 0 -24 0.5t-24 -0.5q-5 0 -11.5 -1t-11.5 -1q-10 0 -15 4q-2 1 -2.5 2t-1.5 2q-2 3 -2 6.5v6.5q0 7 1 14t3 14q0 2 -4 2q-2 2 -5 -1
q-2 -11 -3.5 -21t-3.5 -20q-8 -17 -25 -26q-8 -5 -16.5 -6.5t-18.5 -2.5q-17 0 -32.5 -5t-25.5 -20q-1 -2 -2 -4.5t-1 -4.5h3q23 25 59 23q25 0 36 4.5t22 18.5l9 13q1 1 1.5 0.5l4.5 -4.5l-7 -16q-4 -8 -6.5 -12t-6.5 -6q-4 -1 -5.5 -1.5t-14.5 -8.5q-8 -3 -15 -3
q-6 0 -8 1q-11 2 -12 2h-5q-9 0 -16 -3q-4 -2 -7 -5.5t-7 -5.5q-10 -5 -13.5 -6.5t-4.5 -2t-1 0t-1 0.5q-11 2 -13 2t-4 -2l-15 -19q-4 -2 -9 -2zM660 673h83q78 0 78 -63q0 -27 -21 -50q23 -11 32.5 -25t9.5 -37q0 -29 -21.5 -49.5t-52.5 -20.5h-108v245zM495 426
q-31 0 -52 23t-21 57q0 33 21 56.5t52 23.5q28 0 48 -20v121h50v-260h-49v20q-21 -21 -49 -21zM62 673h94q31 0 52 -21t21 -52q0 -25 -16 -45t-40 -25l72 -102h-61l-52 80v59h12q14 0 24 9t10 23q0 13 -9.5 22t-23.5 9h-31v-202h-52v245zM319 422q-33 0 -57 24t-24 58t24 58
t57 24q36 0 57.5 -22.5t21.5 -59.5v-10h-109q0 -1 0.5 -1t0.5 -1q0 -13 9.5 -22t23.5 -9q10 0 18.5 5.5t12.5 13.5l39 -19q-11 -18 -30.5 -28.5t-43.5 -10.5zM939 305h-86v40h215v-40h-87v-200h-42v200zM1027 286h41v-120l54 81q10 15 15 31t5 28q0 25 -21 39q20 0 37.5 -16
t19.5 -38q2 -30 -22 -65l-76 -114q-6 -7 -13 -7h-40v181zM937 420q-35 0 -56 17t-21 46v95h48v-88q0 -28 29 -28q27 0 27 28v88h49v-95q0 -29 -20.5 -46t-55.5 -17zM1122 685h50v-258h-50v258zM1040 685h49v-258h-49v258zM759 470q29 2 31 32q0 14 -9 23t-22 9h-31v44h17
q25 0 25 27q0 11 -7 18.5t-18 7.5h-33v-161h47zM509 465q15 0 25 11.5t10 28.5q0 16 -10.5 27t-24.5 11q-15 0 -26 -11t-11 -27q0 -17 10.5 -28.5t26.5 -11.5zM350 522q0 12 -9 20.5t-22 8.5q-12 0 -20.5 -8.5t-8.5 -20.5h60zM758 87q4 2 9 0q7 8 13 12t11 12q4 7 7 13.5
t8 26.5l-1 -1q0 -1 -2.5 -7t-7.5 -6q-2 0 -4 0.5t-2 2.5q-4 -12 -13 -20t-14 -18q2 -2 2 -3q0 -2 -3 -5.5t-3 -6.5zM580 111h2q1 0 3 3l1 1v2q1 2 1 7q0 11 -10 21l-3 3l-2 4q-2 3 -6 6q-5 3 -8 -3l-1 -3v-1l-2 -4l-2 -4l-3 -3q0 -2 -0.5 -3t-0.5 -3t1 -3v-1h1q2 0 2 1l2 3
l3 2q1 2 5 4q3 0 6 -4l2 -2q1 -1 2 -1l2 -4q3 -2 3 -7l1 -7v-2q0 -1 1 -2zM394 34q-3 3 -4 7.5t-4 8.5q-1 3 -4 4t-2 3l2 2h10t10 1q5 0 5.5 -4.5t2.5 -8.5q1 -2 2.5 -4t-0.5 -4q-4 -2 -8.5 -4t-9.5 -1zM58 -3v4q4 4 4 8.5t1 9.5q1 4 7 8q3 -1 5 -3.5t4 -4.5v-2
q-2 -5 -3.5 -11.5t-3.5 -12.5zM478 198h3v1q2 8 2 14q0 9 -3 17q-2 2 -4 4.5t-5 4.5t-6 -1q-2 -3 1 -8l2 -2v-1l2 -4q3 -6 4.5 -12t3.5 -13zM84 28q-3 3 -3 5t-0.5 3.5t1.5 3.5q4 2 7.5 4.5t6.5 6.5h5q4 -4 5 -7q-3 -5 -6 -9.5t-8 -6.5q-4 -1 -8 0zM677 194q-2 2 -1 3
q3 2 6 3t6 3q8 4 26 5l-2 -1q-20 -10 -24.5 -12.5t-9.5 -1.5zM552 60q6 0 9 1q3 2 3 9v3q0 1 -2 3h-2l-16 -13q0 -1 0.5 -1.5t0.5 -1.5h7z" />
    <glyph glyph-name="bar" unicode="|" horiz-adv-x="347" 
d="M113 780h121v-901h-121v901z" />
    <glyph glyph-name="brokenbar" unicode="&#xa6;" horiz-adv-x="347" 
d="M113 780h121v-320h-121v320zM113 199h121v-320h-121v320z" />
    <glyph glyph-name="at" unicode="@" horiz-adv-x="948" 
d="M496 671q89 0 165 -27.5t131.5 -76t86.5 -115t31 -145.5q0 -62 -19.5 -111.5t-55 -84.5t-85.5 -53.5t-111 -18.5h-64v50q-20 -29 -52 -45t-74 -16t-77 16t-60.5 44t-39.5 66.5t-14 84.5t14 84.5t39.5 66t61 43t77.5 15.5q85 0 125 -59v50h105v-292q57 7 89.5 48.5
t32.5 112.5q0 58 -22.5 105.5t-62.5 81.5t-96 53t-123 19q-76 0 -139.5 -24t-109 -67.5t-70.5 -104.5t-25 -134q0 -72 25 -131.5t70.5 -102t109 -65.5t141.5 -23h106v-103h-107q-104 -1 -189 30t-145 87t-93 133t-33 169q0 96 34.5 176.5t96 139t145 91.5t181.5 33zM472 133
q45 0 71 28.5t26 76.5t-26 77t-71 29t-72 -29t-27 -77q0 -47 27 -76t72 -29z" />
    <glyph glyph-name="ampersand" unicode="&#x26;" horiz-adv-x="651" 
d="M511 144l127 -144h-156l-47 53q-75 -65 -182 -65q-50 0 -90.5 13.5t-69.5 38t-45 58t-16 73.5q0 56 31.5 101t97.5 89q-38 43 -52 78.5t-14 77.5q0 37 13 68t37 53.5t57.5 34.5t74.5 12q39 0 72.5 -11.5t57.5 -32.5t37.5 -50t13.5 -63q0 -49 -27.5 -91.5t-91.5 -89.5
l-4 -3l91 -103l70 123h143l-125 -215zM276 581q-27 0 -43 -17.5t-16 -46.5q0 -20 10 -40.5t36 -50.5l1 -2l1 1q34 26 51 50t17 49q0 26 -15.5 41.5t-41.5 15.5zM170 178q0 -36 25 -56.5t68 -20.5q51 0 94 40l-121 136q-35 -28 -50.5 -50.5t-15.5 -48.5z" />
    <glyph glyph-name="paragraph" unicode="&#xb6;" horiz-adv-x="602" 
d="M274 229q-55 0 -101 16.5t-79 46t-51.5 70.5t-18.5 90t18 89.5t51 70t79 45.5t102 16h57v-444h-57zM236 -36h64q48 0 70 18.5t22 60.5v630h140v-646q0 -94 -51.5 -142t-150.5 -48h-94v127z" />
    <glyph glyph-name="copyright" unicode="&#xa9;" horiz-adv-x="767" 
d="M391 -12q-74 0 -139 27t-113 74.5t-76 111t-28 135.5t28 136t76.5 111t114 74.5t139.5 27.5t139.5 -27.5t114 -75t76.5 -111t28 -135.5t-28 -135.5t-77 -111t-114.5 -74.5t-140.5 -27zM391 71q58 0 107 20t85 55.5t56.5 84t20.5 105.5t-20.5 105.5t-56.5 84.5t-85.5 56
t-106.5 20t-105.5 -20t-84 -56t-55.5 -84.5t-20 -105.5t20 -106t55 -84t84 -55t106 -20zM394 150q-41 0 -75.5 14t-59.5 38.5t-39.5 58.5t-14.5 73t14.5 72t40 58t60 39t74.5 14q71 0 119 -41t58 -110h-96q-17 63 -81 63q-40 0 -64.5 -26t-24.5 -69t24 -69t65 -26
q64 0 81 62h96q-5 -34 -20 -62t-38.5 -47.5t-53.5 -30.5t-65 -11z" />
    <glyph glyph-name="registered" unicode="&#xae;" horiz-adv-x="481" 
d="M241 685q45 0 83.5 -16.5t67 -45t45 -67t16.5 -83.5t-16.5 -84t-45 -67.5t-67 -44.5t-83.5 -16t-83.5 16.5t-67.5 45t-45.5 67.5t-16.5 83q0 45 16.5 83.5t45 67t67.5 45t84 16.5zM241 316q34 0 62 11.5t48 32.5t31.5 49.5t11.5 63.5q0 34 -11.5 63t-31.5 50t-48 32.5
t-62 11.5t-62 -11.5t-48.5 -32.5t-32 -50t-11.5 -63t11.5 -63t32 -50t48.5 -32.5t62 -11.5zM336 506q0 -43 -39 -62l49 -77h-66l-42 68h-20v-68h-63v211h95q38 0 62 -20t24 -52zM218 480h27q25 0 25 23q0 24 -25 24h-27v-47z" />
    <glyph glyph-name="section" unicode="&#xa7;" horiz-adv-x="561" 
d="M538 232q0 -50 -23 -88.5t-68 -63.5q9 -26 9 -53q0 -35 -13.5 -63t-38 -47.5t-59 -30.5t-77.5 -11h-135v113h134q25 0 39 10.5t14 29.5q0 17 -12 30.5t-39 28.5l-124 68q-34 19 -57 36.5t-37.5 36.5t-20.5 40.5t-6 47.5q0 95 94 144q-12 28 -12 61q0 34 13.5 62.5t38 48
t59 30.5t77.5 11h135v-113h-134q-24 0 -38.5 -10.5t-14.5 -28.5q0 -17 11.5 -30.5t39.5 -28.5l124 -68q34 -19 57 -36.5t37 -37t20.5 -41t6.5 -47.5zM349 184q9 -5 17.5 -10.5t16.5 -11.5q26 25 26 58q0 20 -13 34.5t-48 34.5l-135 76q-20 12 -33 22q-27 -26 -27 -58
q0 -21 12.5 -35t47.5 -34z" />
    <glyph glyph-name="trademark" unicode="&#x2122;" horiz-adv-x="641" 
d="M17 673h217v-72h-69v-192h-79v192h-69v72zM589 673v-264h-77v166l-61 -166h-53l-62 167v-167h-77v264h110l56 -160l57 160h107z" />
    <glyph glyph-name="degree" unicode="&#xb0;" horiz-adv-x="425" 
d="M212 313q-41 0 -75.5 14t-60 39t-40 59.5t-14.5 74.5q0 39 14.5 73t40 59t60 39t75.5 14t75.5 -14t60 -39t40 -58.5t14.5 -73.5t-14.5 -74.5t-40 -59.5t-60.5 -39t-75 -14zM212 415q38 0 61 23t23 61t-23 61t-61 23q-36 0 -59.5 -23t-23.5 -61q0 -36 23.5 -60t59.5 -24z
" />
    <glyph glyph-name="estimated" unicode="&#x212e;" horiz-adv-x="855" 
d="M442 -12q-80 0 -150 27.5t-122 74.5t-82 111t-30 137q0 72 29 135t79.5 110t117.5 74.5t144 27.5q76 0 143 -27.5t117 -74.5t79 -110t29 -135v-12h-574q-13 0 -13 -12v-197q0 -7 1.5 -10t6.5 -7q49 -38 106.5 -58t120.5 -20q76 0 142.5 28t116.5 82h44
q-55 -69 -134 -106.5t-171 -37.5zM634 359q12 0 12 12v189q0 8 -1.5 11.5t-6.5 7.5q-90 72 -210 72q-59 0 -112.5 -17.5t-98.5 -52.5q-5 -4 -6.5 -7.5t-1.5 -12.5v-190q0 -12 13 -12h412z" />
    <glyph glyph-name="uni2113" unicode="&#x2113;" horiz-adv-x="449" 
d="M210 180q16 -62 93 -62h88v-118h-108q-142 0 -184 104l-83 -51v133q17 11 33.5 21t31.5 21v247q0 103 46.5 156.5t134.5 53.5q79 0 122.5 -45t43.5 -129q0 -44 -11.5 -84.5t-37 -80t-67 -80.5t-102.5 -86zM206 319q57 50 79.5 91.5t22.5 86.5q0 67 -46 67q-56 0 -56 -82
v-163z" />
    <glyph glyph-name="uni2116" unicode="&#x2116;" horiz-adv-x="1106" 
d="M881 313q-41 0 -75.5 14t-60 39t-40 59.5t-14.5 74.5q0 39 14.5 73t40 59t60 39t75.5 14t75.5 -14t60 -39t40 -58.5t14.5 -73.5t-14.5 -74.5t-40 -59.5t-60.5 -39t-75 -14zM481 673h138v-673h-149l-255 451v-451h-137v673h152l251 -444v444zM881 583q-36 0 -59.5 -23
t-23.5 -61q0 -36 23.5 -60t59.5 -24q38 0 61 23t23 61t-23 61t-61 23zM728 246h306v-115h-306v115z" />
    <glyph glyph-name="asciicircum" unicode="^" horiz-adv-x="504" 
d="M346 278l-94 225l-93 -225h-135l169 395h117l170 -395h-134z" />
    <glyph glyph-name="dagger" unicode="&#x2020;" horiz-adv-x="491" 
d="M176 408h-143v121h143v144h134v-144h148v-121h-148v-248h-134v248z" />
    <glyph glyph-name="daggerdbl" unicode="&#x2021;" horiz-adv-x="501" 
d="M176 192h-143v115h146v124h-146v115h143v127h134v-127h148v-115h-150v-124h150v-115h-148v-130h-134v130z" />
    <glyph glyph-name="minute" unicode="&#x2032;" horiz-adv-x="280" 
d="M92 673h156l-90 -328h-115z" />
    <glyph glyph-name="second" unicode="&#x2033;" horiz-adv-x="495" 
d="M92 673h151l-82 -328h-118zM319 673h144l-90 -328h-128z" />
    <glyph glyph-name="uni0308" unicode="&#x308;" horiz-adv-x="0" 
d="M-109 575q-16 0 -30.5 6t-25 16.5t-16.5 24.5t-6 29q0 32 22.5 54t55.5 22q35 0 56.5 -21.5t21.5 -54.5q0 -32 -22.5 -54t-55.5 -22zM105 575q-16 0 -30.5 6t-25 16.5t-16.5 24.5t-6 29q0 32 22.5 54t55.5 22q35 0 56.5 -21.5t21.5 -54.5q0 -32 -22.5 -54t-55.5 -22z" />
    <glyph glyph-name="uni0307" unicode="&#x307;" horiz-adv-x="0" 
d="M-2 575q-35 0 -59 23t-24 58t24 58t59 23t59 -23t24 -58t-24 -58t-59 -23z" />
    <glyph glyph-name="gravecomb" unicode="&#x300;" horiz-adv-x="0" 
d="M-175 739h157l81 -179h-122z" />
    <glyph glyph-name="acutecomb" unicode="&#x301;" horiz-adv-x="0" 
d="M15 739h156l-115 -179h-122z" />
    <glyph glyph-name="uni030B" unicode="&#x30b;" horiz-adv-x="0" 
d="M-53 739h123l-103 -179h-114zM137 739h130l-127 -179h-105z" />
    <glyph glyph-name="uni0302" unicode="&#x302;" horiz-adv-x="0" 
d="M62 560l-64 87l-64 -87h-119l126 179h114l126 -179h-119z" />
    <glyph glyph-name="uni030C" unicode="&#x30c;" horiz-adv-x="0" 
d="M181 739l-126 -179h-113l-126 179h119l64 -87l64 87h118z" />
    <glyph glyph-name="uni0306" unicode="&#x306;" horiz-adv-x="0" 
d="M-2 559q-81 0 -125 46t-44 129h103q0 -39 17 -60.5t49 -21.5t48.5 21.5t16.5 60.5h103q0 -83 -44 -129t-124 -46z" />
    <glyph glyph-name="uni030A" unicode="&#x30a;" horiz-adv-x="0" 
d="M-2 538q-28 0 -51.5 9t-40.5 25.5t-26.5 39.5t-9.5 50t9.5 49.5t26.5 39t40.5 25.5t51.5 9t51.5 -9t41 -25.5t27 -39t9.5 -49.5t-10 -50t-27 -39.5t-40.5 -25.5t-51.5 -9zM-1 616q19 0 32 13t13 33t-13 33t-32 13q-20 0 -33 -13t-13 -33t13 -33t33 -13z" />
    <glyph glyph-name="tildecomb" unicode="&#x303;" horiz-adv-x="0" 
d="M62 563q-17 0 -33 5t-38 18q-25 14 -37.5 18t-24.5 4q-17 -1 -36.5 -9t-51.5 -27v105q33 21 53 29t41 8q16 0 32 -5t40 -17q23 -14 36 -18.5t26 -4.5q17 1 36.5 9t51.5 27v-105q-33 -21 -53 -29t-42 -8z" />
    <glyph glyph-name="uni0304" unicode="&#x304;" horiz-adv-x="0" 
d="M-150 685h296v-101h-296v101z" />
    <glyph glyph-name="uni0312" unicode="&#x312;" horiz-adv-x="0" 
d="M-49 739h112l-8 -179h-130z" />
    <glyph glyph-name="uni0326" unicode="&#x326;" horiz-adv-x="0" 
d="M-70 -46h127l-24 -172h-111z" />
    <glyph glyph-name="uni0327" unicode="&#x327;" horiz-adv-x="0" 
d="M-44 -193h-28t-19.5 0.5t-16 1.5t-16.5 2v87h60q28 0 43.5 13.5t15.5 39.5q0 18 -6.5 33.5t-21.5 35.5l62 23q35 -20 53.5 -49t18.5 -61q0 -60 -37.5 -93t-107.5 -33z" />
    <glyph glyph-name="uni0328" unicode="&#x328;" horiz-adv-x="0" 
d="M-78 -191q-62 0 -97 25.5t-35 69.5q0 42 38.5 80.5t118.5 68.5l52 -53l-37 -22q-26 -15 -35 -25t-9 -24q0 -31 46 -31h35v-84q-23 -2 -42.5 -3.5t-34.5 -1.5z" />
    <glyph glyph-name="uni0308.aalt" horiz-adv-x="0" 
d="M-115 735q-34 0 -57.5 23t-23.5 55q0 33 23 56t58 23q36 0 59 -22t23 -57q0 -32 -23.5 -55t-58.5 -23zM113 735q-34 0 -58 23.5t-24 54.5q0 33 23.5 56t58.5 23t58.5 -22t23.5 -57q0 -16 -6.5 -30.5t-17.5 -25t-26 -16.5t-32 -6z" />
    <glyph glyph-name="uni0307.aalt" horiz-adv-x="0" 
d="M-1 728q-19 0 -35 6.5t-28 18t-19 27t-7 33.5q0 37 25.5 62t63.5 25t63.5 -25t25.5 -62q0 -18 -7 -33.5t-19 -27t-28 -18t-35 -6.5z" />
    <glyph glyph-name="gravecomb.aalt" horiz-adv-x="0" 
d="M-177 910h160l78 -180h-123z" />
    <glyph glyph-name="acutecomb.aalt" horiz-adv-x="0" 
d="M15 910h164l-120 -180h-123z" />
    <glyph glyph-name="uni030B.aalt" horiz-adv-x="0" 
d="M-53 910h122l-98 -180h-114zM138 910h136l-128 -180h-105z" />
    <glyph glyph-name="uni0302.aalt" horiz-adv-x="0" 
d="M69 730l-70 89l-70 -89h-117l130 180h115l130 -180h-118z" />
    <glyph glyph-name="uni030C.aalt" horiz-adv-x="0" 
d="M185 910l-130 -180h-115l-130 180h118l70 -89l70 89h117z" />
    <glyph glyph-name="uni0306.aalt" horiz-adv-x="0" 
d="M-2 728q-44 0 -80.5 13t-62.5 36.5t-40.5 56t-14.5 71.5h105q0 -35 26.5 -58t67.5 -23q39 0 65.5 23t26.5 58h106q0 -39 -14.5 -71.5t-41 -56t-63 -36.5t-80.5 -13z" />
    <glyph glyph-name="uni030A.aalt" horiz-adv-x="0" 
d="M-3 683q-28 0 -51.5 9t-40.5 25.5t-26.5 39.5t-9.5 50t9.5 49.5t26.5 39t40.5 25.5t51.5 9t51.5 -9t40.5 -25.5t27 -39t10 -49.5t-10 -50t-27 -39.5t-40.5 -25.5t-51.5 -9zM-1 761q20 0 32.5 13t12.5 33t-12.5 33t-32.5 13t-33 -13t-13 -33t13 -33t33 -13z" />
    <glyph glyph-name="tildecomb.aalt" horiz-adv-x="0" 
d="M78 724q-21 0 -41 5t-48 19q-26 13 -41 17t-29 4q-23 0 -46 -7.5t-52 -25.5v105q28 20 50 28.5t48 8.5q20 0 40 -5t49 -18t42.5 -17t27.5 -4q23 0 46 7.5t52 25.5v-105q-28 -20 -50 -28.5t-48 -9.5z" />
    <glyph glyph-name="uni0304.aalt" horiz-adv-x="0" 
d="M-161 861h317v-106h-317v106z" />
    <glyph glyph-name="glyph645" horiz-adv-x="0" 
d="M61 12v-137h-125v137h125z" />
    <glyph glyph-name="glyph646" horiz-adv-x="0" 
d="M-131 685h260v-101h-260v101z" />
    <glyph glyph-name="glyph647" horiz-adv-x="0" 
d="M-105 -191q-62 0 -97.5 25t-35.5 70q0 21 8 39.5t28 39t54 44.5t87 56l59 -33l-77 -73q-19 -19 -24.5 -27.5t-5.5 -20.5q0 -16 12 -24.5t33 -8.5h35v-82q-18 -2 -36.5 -3.5t-39.5 -1.5z" />
    <glyph glyph-name="glyph648" horiz-adv-x="0" 
d="M-47 673h144l-50 -193h-102z" />
    <glyph glyph-name="acute" unicode="&#xb4;" horiz-adv-x="294" 
d="M110 739h156l-115 -179h-122z" />
    <glyph glyph-name="breve" unicode="&#x2d8;" horiz-adv-x="393" 
d="M197 559q-81 0 -125 46t-44 129h103q0 -39 17 -60.5t49 -21.5t48.5 21.5t16.5 60.5h103q0 -83 -44 -129t-124 -46z" />
    <glyph glyph-name="caron" unicode="&#x2c7;" horiz-adv-x="422" 
d="M393 739l-126 -179h-113l-126 179h119l64 -87l64 87h118z" />
    <glyph glyph-name="cedilla" unicode="&#xb8;" horiz-adv-x="282" 
d="M108 -193h-28t-19.5 0.5t-16 1.5t-16.5 2v87h60q28 0 43.5 13.5t15.5 39.5q0 18 -6.5 33.5t-21.5 35.5l62 23q35 -20 53.5 -49t18.5 -61q0 -60 -37.5 -93t-107.5 -33z" />
    <glyph glyph-name="circumflex" unicode="&#x2c6;" horiz-adv-x="422" 
d="M275 560l-64 87l-64 -87h-119l126 179h114l126 -179h-119z" />
    <glyph glyph-name="dieresis" unicode="&#xa8;" horiz-adv-x="428" 
d="M107 575q-16 0 -30.5 6t-25 16.5t-16.5 24.5t-6 29q0 32 22.5 54t55.5 22q35 0 56.5 -21.5t21.5 -54.5q0 -32 -22.5 -54t-55.5 -22zM321 575q-16 0 -30.5 6t-25 16.5t-16.5 24.5t-6 29q0 32 22.5 54t55.5 22q35 0 56.5 -21.5t21.5 -54.5q0 -32 -22.5 -54t-55.5 -22z" />
    <glyph glyph-name="dotaccent" unicode="&#x2d9;" horiz-adv-x="222" 
d="M111 575q-35 0 -59 23t-24 58t24 58t59 23t59 -23t24 -58t-24 -58t-59 -23z" />
    <glyph glyph-name="grave" unicode="`" horiz-adv-x="294" 
d="M28 739h157l81 -179h-122z" />
    <glyph glyph-name="hungarumlaut" unicode="&#x2dd;" horiz-adv-x="471" 
d="M123 739h123l-103 -179h-114zM313 739h130l-127 -179h-105z" />
    <glyph glyph-name="macron" unicode="&#xaf;" horiz-adv-x="353" 
d="M28 685h296v-101h-296v101z" />
    <glyph glyph-name="ogonek" unicode="&#x2db;" horiz-adv-x="266" 
d="M161 -191q-62 0 -97 25.5t-35 69.5q0 42 38.5 80.5t118.5 68.5l52 -53l-37 -22q-26 -15 -35 -25t-9 -24q0 -31 46 -31h35v-84q-23 -2 -42.5 -3.5t-34.5 -1.5z" />
    <glyph glyph-name="ring" unicode="&#x2da;" horiz-adv-x="313" 
d="M156 538q-28 0 -51.5 9t-40.5 25.5t-26.5 39.5t-9.5 50t9.5 49.5t26.5 39t40.5 25.5t51.5 9t51.5 -9t41 -25.5t27 -39t9.5 -49.5t-10 -50t-27 -39.5t-40.5 -25.5t-51.5 -9zM157 616q19 0 32 13t13 33t-13 33t-32 13q-20 0 -33 -13t-13 -33t13 -33t33 -13z" />
    <glyph glyph-name="tilde" unicode="&#x2dc;" horiz-adv-x="373" 
d="M250 563q-17 0 -33 5t-38 18q-25 14 -37.5 18t-24.5 4q-17 -1 -36.5 -9t-51.5 -27v105q33 21 53 29t41 8q16 0 32 -5t40 -17q23 -14 36 -18.5t26 -4.5q17 1 36.5 9t51.5 27v-105q-33 -21 -53 -29t-42 -8z" />
    <glyph glyph-name="tonos" unicode="&#x384;" horiz-adv-x="259" 
d="M79 739h151l-85 -179h-117z" />
    <glyph glyph-name="dieresistonos" unicode="&#x385;" horiz-adv-x="572" 
d="M248 739h143l-85 -179h-109zM105 573q-16 0 -30 6t-24.5 16.5t-16.5 23.5t-6 28q0 32 22.5 53t54.5 21q33 0 55 -21t22 -53q0 -31 -22.5 -52.5t-54.5 -21.5zM466 573q-32 0 -54.5 22t-22.5 52q0 31 22.5 52.5t54.5 21.5q33 0 55 -21t22 -53q0 -31 -22.5 -52.5
t-54.5 -21.5z" />
    <glyph glyph-name="glyph664" horiz-adv-x="0" 
d="M-2 559q-84 0 -129 45.5t-45 129.5h102q0 -82 72 -82q71 0 71 82h103q0 -84 -45 -129.5t-129 -45.5z" />
    <glyph glyph-name="glyph665" horiz-adv-x="0" 
d="M-3 728q-46 0 -83.5 12t-64.5 34.5t-41.5 55.5t-14.5 75h105q0 -38 27 -59.5t73 -21.5q45 0 71.5 21.5t26.5 59.5h106q0 -85 -56 -131t-149 -46z" />
    </font>
</defs>
</svg>
