<?xml version="1.0" encoding="UTF-8" standalone="no"?>
<svg width="20px" height="20px" viewBox="0 0 20 20" version="1.1" xmlns="http://www.w3.org/2000/svg" xmlns:xlink="http://www.w3.org/1999/xlink">
    <!-- Generator: Sketch 46.2 (44496) - http://www.bohemiancoding.com/sketch -->
    <title>f-rbcom-rbtickets-icon-download-20x20-dark</title>
    <desc>Created with Sketch.</desc>
    <defs></defs>
    <g id="Symbols" stroke="none" stroke-width="1" fill="none" fill-rule="evenodd">
        <g id="f-rbcom-rbtickets-icon-download-20x20-dark" fill-rule="nonzero" fill="#DB0A40">
            <g transform="translate(0.000000, 1.000000)" id="Shape">
                <path d="M14.7176975,15 L1.48230255,15 C0.663680534,15 0,15.6715908 0,16.5 C0,17.3284092 0.663747579,18 1.48230255,18 L14.7176975,18 C15.5363195,18 16.2,17.3284092 16.2,16.5 C16.2,15.6715908 15.5363195,15 14.7176975,15 Z M7.0033415,13.3510928 C7.27380188,13.6220221 7.62116311,13.7632191 7.97489364,13.7874223 C8.01686394,13.7909757 8.05715811,13.8000268 8.1,13.8000268 C8.14243962,13.8000268 8.18233152,13.7909757 8.2238325,13.7875564 C8.57809939,13.7636213 8.92599699,13.6223573 9.19679259,13.3510928 L13.9411128,8.59310329 C14.5352004,7.99807804 14.5352004,7.03316498 13.9411128,6.43813972 C13.3470922,5.84304742 12.3839878,5.84304742 11.7899002,6.43813972 L9.60006953,8.63426898 L9.60006953,1.5 C9.60006953,0.671590757 8.92854471,0 8.1,0 C7.27158939,0 6.60006456,0.671590757 6.60006456,1.5 L6.60006456,8.63426898 L4.41023391,6.43813972 C3.81621335,5.84304742 2.85304187,5.84304742 2.25902131,6.43813972 C1.66500074,7.03316498 1.66500074,7.99807804 2.25902131,8.59310329 L7.0033415,13.3510928 Z"></path>
            </g>
        </g>
    </g>
</svg>