<?xml version="1.0" encoding="UTF-8" standalone="no"?>
<svg width="100px" height="100px" viewBox="0 0 100 100" version="1.1" xmlns="http://www.w3.org/2000/svg" xmlns:xlink="http://www.w3.org/1999/xlink">
    <!-- Generator: Sketch 46.2 (44496) - http://www.bohemiancoding.com/sketch -->
    <title>f-rbcom-rbtickets-icon-error-100x100</title>
    <desc>Created with Sketch.</desc>
    <defs></defs>
    <g id="Symbols" stroke="none" stroke-width="1" fill="none" fill-rule="evenodd">
        <g id="f-rbcom-rbtickets-icon-error-100x100" fill="#8A909A">
            <g transform="translate(5.000000, 11.000000)" id="Fill-1">
                <path d="M70.5864305,6.64470416 C72.248992,6.95517553 74.7085601,7.35508733 76.3199659,7.35508733 C76.9348579,7.35508733 77.2151914,7.29546038 77.3267109,7.26050665 C78.0029898,7.04770012 78.5554718,6.58404916 78.8828685,5.95385396 C79.2123115,5.32365876 79.2757446,4.60299508 79.0639598,3.92345344 C78.6362978,2.55100549 77.1302728,1.74192944 75.7439523,2.17885107 C74.8118947,2.47184558 72.4822622,4.65953788 70.5864305,6.64470416 M76.3199659,9.41118913 C73.4828685,9.41118913 68.5780561,8.3440723 68.3703638,8.29883806 L66.6494847,7.92257143 L67.8281129,6.60666628 C68.6793444,5.6557192 73.0357673,0.875282533 75.1331527,0.21732996 C75.5894619,0.073402834 76.0631641,0.000411220359 76.5368662,0.000411220359 C78.6004888,0.000411220359 80.4001478,1.32968103 81.0160629,3.30867901 C81.3925692,4.5125266 81.2779803,5.79039387 80.6968511,6.90788519 C80.1146987,8.02434847 79.1345548,8.84678918 77.9385335,9.22305581 C77.5354263,9.34950607 77.0054528,9.41118913 76.3199659,9.41118913 M79.0670292,27.9263858 C80.3715006,30.3196883 82.0402008,33.0224341 82.8576696,33.5652449 C84.0424365,34.3506758 85.7510383,33.990858 86.5306518,32.8075714 C87.3327738,31.5831628 86.9951459,29.9280009 85.775593,29.1189248 C84.9611936,28.5791981 81.7977226,28.1474167 79.0670292,27.9263858 M84.3115157,36.0613525 C83.3927586,36.0613525 82.5006025,35.7920032 81.7312202,35.2810619 C79.9039371,34.0700179 76.9645282,28.374616 76.3946533,27.2458161 L75.5966237,25.6667299 L77.3563812,25.7530862 C78.6281129,25.8147692 85.0686207,26.1869237 86.9020424,27.4031079 C89.0628609,28.8351828 89.6624062,31.7671839 88.2382304,33.9394555 C87.3624441,35.2687253 85.8952975,36.0613525 84.3115157,36.0613525 M46.9616862,29.1518224 C44.9911671,29.1518224 43.395108,30.7555818 43.395108,32.7356079 C43.395108,34.7156339 44.9911671,36.3193933 46.9616862,36.3193933 C48.9322054,36.3193933 50.5292876,34.7156339 50.5292876,32.7356079 C50.5292876,30.7555818 48.9322054,29.1518224 46.9616862,29.1518224 M24.3723342,29.1518224 C22.4028382,29.1518224 20.805756,30.7555818 20.805756,32.7356079 C20.805756,34.7156339 22.4028382,36.3193933 24.3723342,36.3193933 C26.3428534,36.3193933 27.9389125,34.7156339 27.9389125,32.7356079 C27.9389125,30.7555818 26.3428534,29.1518224 24.3723342,29.1518224 M35.874191,53.4755067 C41.8993141,53.4765347 47.485521,56.4846116 50.4505078,61.3257033 L52.1928723,60.2472779 C48.8585411,54.8037484 42.6052634,51.4204329 35.874191,51.4194049 C29.1328875,51.4194049 22.8724479,54.8119728 19.5370936,60.2719511 L21.2815044,61.3472924 C24.2475142,56.491808 29.8388367,53.4755067 35.874191,53.4755067 M35.6685449,6.45451475 C15.9694922,6.45451475 -0.000306934444,22.498277 -0.000306934444,42.292369 C-0.000306934444,62.086461 15.9694922,78.1322794 35.6685449,78.1322794 C55.3665745,78.1322794 71.3363736,62.086461 71.3363736,42.292369 C71.3363736,22.498277 55.3665745,6.45451475 35.6685449,6.45451475 M35.6685449,8.51061654 C54.2073854,8.51061654 69.290144,23.6651148 69.290144,42.292369 C69.290144,60.9206512 54.2073854,76.0761776 35.6685449,76.0761776 C17.1286813,76.0761776 2.0459227,60.9206512 2.0459227,42.292369 C2.0459227,23.6651148 17.1286813,8.51061654 35.6685449,8.51061654"></path>
            </g>
        </g>
    </g>
</svg>