<?xml version="1.0" encoding="UTF-8" standalone="no"?>
<svg width="20px" height="20px" viewBox="0 0 20 20" version="1.1" xmlns="http://www.w3.org/2000/svg" xmlns:xlink="http://www.w3.org/1999/xlink">
    <!-- Generator: Sketch 47 (45396) - http://www.bohemiancoding.com/sketch -->
    <title>f-rbcom-icon-meta-time-dark-20x20</title>
    <desc>Created with Sketch.</desc>
    <defs></defs>
    <g id="Symbols" stroke="none" stroke-width="1" fill="none" fill-rule="evenodd">
        <g id="f-rbcom-icon-meta-time-dark-20x20">
            <g>
                <g id="icon__bounds">
                    <rect id="bounds" x="0" y="0" width="20" height="20"></rect>
                </g>
                <g id="icon__shape" transform="translate(1.000000, 1.000000)" fill-rule="nonzero" fill="#CDCECF">
                    <path d="M0,9 C0,4.02943725 4.02943725,0 9,0 C13.9705627,0 18,4.02943725 18,9 C18,13.9705627 13.9705627,18 9,18 C4.02943725,18 0,13.9705627 0,9 Z M9,15 C12.3137085,15 15,12.3137085 15,9 C15,5.6862915 12.3137085,3 9,3 C5.6862915,3 3,5.6862915 3,9 C3,12.3137085 5.6862915,15 9,15 Z M8,5 L10,5 L10,9 L12,11 L10.5,12.5 L8,10 L8,5 Z" id="shape"></path>
                </g>
            </g>
        </g>
    </g>
</svg>