<?xml version="1.0" encoding="UTF-8" standalone="no"?>
<svg width="75px" height="30px" viewBox="0 0 75 30" version="1.1" xmlns="http://www.w3.org/2000/svg" xmlns:xlink="http://www.w3.org/1999/xlink">
    <!-- Generator: Sketch 46.2 (44496) - http://www.bohemiancoding.com/sketch -->
    <title>f-rbcom-rbtickets-icon-paypal-75x30</title>
    <desc>Created with Sketch.</desc>
    <defs></defs>
    <g id="Symbols" stroke="none" stroke-width="1" fill="none" fill-rule="evenodd">
        <g id="f-rbcom-rbtickets-icon-paypal-75x30" fill-rule="nonzero" fill="#10151E">
            <g transform="translate(6.000000, 5.000000)" id="Shape">
                <path d="M45.5847042,0.986386434 L40.4964241,0.986386434 C40.1971135,0.986386434 39.8978029,1.30315639 39.7481476,1.61992634 L37.6529735,15.5578042 C37.6529735,15.8745742 37.8026288,16.0329592 38.1019394,16.0329592 L40.7957347,16.0329592 C41.0950453,16.0329592 41.2447006,15.8745742 41.2447006,15.5578042 L41.8433218,11.5981798 C41.8433218,11.2814099 42.1426324,10.9646399 42.5915983,10.9646399 L44.2378065,10.9646399 C47.6798784,10.9646399 49.6253972,9.22240519 50.0743631,5.73793572 C50.3736737,4.31247093 50.0743631,3.04539112 49.4757419,2.25346624 C48.5778101,1.46154136 47.2309125,0.986386434 45.5847042,0.986386434 M46.1833254,6.21309064 C45.8840148,8.11371036 44.5371171,8.11371036 43.1902195,8.11371036 L42.2922877,8.11371036 L42.8909089,4.47085591 C42.8909089,4.31247093 43.0405642,4.15408596 43.3398748,4.15408596 L43.6391853,4.15408596 C44.5371171,4.15408596 45.4350489,4.15408596 45.8840148,4.78762586 C46.1833254,4.94601084 46.1833254,5.42116576 46.1833254,6.21309064"></path>
                <path d="M8.31798868,1.02546844 L3.03030421,1.02546844 C2.71926395,1.02546844 2.40822368,1.3381245 2.25270355,1.65078055 L0.0754217095,15.407647 C0.0754217095,15.7203031 0.230941841,15.8766311 0.541982104,15.8766311 L3.03030421,15.8766311 C3.34134447,15.8766311 3.65238473,15.5639751 3.80790487,15.251319 L4.42998539,11.4994463 C4.42998539,11.1867903 4.74102566,10.8741342 5.20758605,10.8741342 L6.9183075,10.8741342 C10.4952705,10.8741342 12.5170322,9.15452591 12.9835926,5.71530929 C13.2946329,4.30835704 12.9835926,3.05773281 12.3615121,2.27609267 C11.4283913,1.49445253 10.1842303,1.02546844 8.31798868,1.02546844 M8.94006921,6.18429338 C8.62902894,8.06022972 7.22934776,8.06022972 5.82966658,8.06022972 L5.05206592,8.06022972 L5.67414644,4.46468506 C5.67414644,4.30835704 5.82966658,4.15202901 6.14070684,4.15202901 L6.4517471,4.15202901 C7.38486789,4.15202901 8.31798868,4.15202901 8.78454907,4.77734112 C8.94006921,4.93366915 9.09558934,5.40265323 8.94006921,6.18429338"></path>
                <path d="M24.3365622,6.02796535 L21.8482401,6.02796535 C21.69272,6.02796535 21.3816797,6.18429338 21.3816797,6.3406214 L21.2261596,7.12226155 L21.0706395,6.80960549 C20.4485589,6.02796535 19.359918,5.71530929 18.115757,5.71530929 C15.3163946,5.71530929 12.8280725,7.90390169 12.3615121,10.8741342 C12.0504718,12.4374145 12.5170322,13.8443668 13.2946329,14.7823349 C14.0722335,15.7203031 15.1608745,16.0329592 16.5605557,16.0329592 C18.8933576,16.0329592 20.1375187,14.6260069 20.1375187,14.6260069 L19.9819985,15.407647 C19.9819985,15.7203031 20.1375187,15.8766311 20.4485589,15.8766311 L22.7813609,15.8766311 C23.0924012,15.8766311 23.4034414,15.5639751 23.5589616,15.251319 L24.9586428,6.49694943 C24.8031226,6.3406214 24.4920824,6.02796535 24.3365622,6.02796535 M20.7595992,11.0304623 C20.4485589,12.4374145 19.359918,13.5317107 17.8047167,13.5317107 C17.027116,13.5317107 16.4050355,13.2190546 16.0939953,12.9063986 C15.782955,12.4374145 15.6274349,11.8121024 15.6274349,11.0304623 C15.782955,9.62351 17.027116,8.5292138 18.4267972,8.5292138 C19.2043979,8.5292138 19.6709583,8.84186986 20.1375187,9.15452591 C20.6040791,9.62351 20.7595992,10.4051501 20.7595992,11.0304623"></path>
                <path d="M62.1161464,6.30588184 L59.6583531,6.30588184 C59.504741,6.30588184 59.1975169,6.45786743 59.1975169,6.60985301 L59.0439048,7.36978092 L58.8902927,7.06580976 C58.2758444,6.30588184 57.2005598,6.00191068 55.9716632,6.00191068 C53.2066458,6.00191068 50.7488525,8.12970884 50.2880163,11.0174349 C49.9807921,12.5372907 50.4416283,13.905161 51.2096887,14.8170745 C51.9777491,15.728988 53.0530337,16.0329592 54.4355424,16.0329592 C56.7397236,16.0329592 57.9686202,14.6650889 57.9686202,14.6650889 L57.8150082,15.4250168 C57.8150082,15.728988 57.9686202,15.8809736 58.2758444,15.8809736 L60.5800256,15.8809736 C60.8872497,15.8809736 61.1944739,15.5770024 61.348086,15.2730312 L62.7305947,6.76183859 C62.5769826,6.60985301 62.4233705,6.30588184 62.1161464,6.30588184 M58.5830686,11.1694205 C58.2758444,12.5372907 57.2005598,13.6011898 55.664439,13.6011898 C54.8963786,13.6011898 54.2819303,13.2972187 53.9747062,12.9932475 C53.667482,12.5372907 53.5138699,11.9293484 53.5138699,11.1694205 C53.667482,9.80155025 54.8963786,8.73765117 56.2788874,8.73765117 C57.0469478,8.73765117 57.507784,9.04162234 57.9686202,9.3455935 C58.5830686,9.80155025 58.7366806,10.5614782 58.5830686,11.1694205"></path>
                <path d="M38.5079984,6.00191068 L35.8277487,6.00191068 C35.5124252,6.00191068 35.3547635,6.16044736 35.1971017,6.31898405 L31.7285433,11.7092314 L30.1519258,6.63605742 C29.9942641,6.31898405 29.8366024,6.16044736 29.3636171,6.16044736 L26.8410292,6.16044736 C26.5257057,6.16044736 26.3680439,6.47752073 26.3680439,6.7945941 L29.2059554,15.1970385 L26.5257057,19.0019189 C26.3680439,19.3189923 26.5257057,19.7946023 26.8410292,19.7946023 L29.3636171,19.7946023 C29.6789406,19.7946023 29.8366024,19.6360657 29.9942641,19.477529 L38.6656601,6.95313079 C39.1386454,6.47752073 38.8233219,6.00191068 38.5079984,6.00191068"></path>
                <path d="M65.1686968,1.36373332 L62.7305947,15.5597583 C62.7305947,15.8752255 62.9047448,16.0329592 63.2530451,16.0329592 L65.6911472,16.0329592 C66.0394475,16.0329592 66.3877478,15.7174919 66.5618979,15.4020247 L69,1.52146693 C69,1.20599971 68.8258499,1.04826609 68.4775496,1.04826609 L65.6911472,1.04826609 C65.5169971,0.890532483 65.3428469,1.04826609 65.1686968,1.36373332"></path>
            </g>
        </g>
    </g>
</svg>