<?xml version="1.0" encoding="UTF-8" standalone="no"?>
<svg width="16px" height="16px" viewBox="0 0 16 16" version="1.1" xmlns="http://www.w3.org/2000/svg" xmlns:xlink="http://www.w3.org/1999/xlink">
    <!-- Generator: Sketch 46.2 (44496) - http://www.bohemiancoding.com/sketch -->
    <title>f-rbcom-icon-meta-location-dark-15x15</title>
    <desc>Created with Sketch.</desc>
    <defs></defs>
    <g id="Symbols" stroke="none" stroke-width="1" fill="none" fill-rule="evenodd">
        <g id="f-rbcom-icon-meta-location-dark-15x15">
            <g>
                <g id="icon__bounds">
                    <rect id="bounds" x="0" y="0" width="16" height="16"></rect>
                </g>
                <g id="icon__shape" transform="translate(0.000000, 1.000000)" fill="#A0A1A1">
                    <path d="M5.87093353,0.511100679 L9.12906647,2.42311107 C9.60765839,2.70396907 10,3.38266195 10,3.93585331 L10,7.99835845 C10,8.54408003 9.68401459,9.31598543 9.29422684,9.70577318 L5,14 L0.70577316,9.70577348 C0.312772393,9.31277274 3.16789336e-17,8.55155013 7.07568785e-17,7.99835873 L3.57735967e-16,3.93585327 C3.96286239e-16,3.39013166 0.389930225,2.70538407 0.870933533,2.42311097 L4.12906647,0.511100658 C4.60765839,0.230242663 5.38993022,0.228827567 5.87093353,0.511100679 Z M5,8 C6.1045695,8 7,7.1045695 7,6 C7,4.8954305 6.1045695,4 5,4 C3.8954305,4 3,4.8954305 3,6 C3,7.1045695 3.8954305,8 5,8 Z" id="shape"></path>
                </g>
            </g>
        </g>
    </g>
</svg>