<?xml version="1.0" encoding="UTF-8" standalone="no"?>
<svg width="20px" height="20px" viewBox="0 0 20 20" version="1.1" xmlns="http://www.w3.org/2000/svg" xmlns:xlink="http://www.w3.org/1999/xlink">
    <!-- Generator: Sketch 46.2 (44496) - http://www.bohemiancoding.com/sketch -->
    <title>f-rbcom-rbtickets-icon-folder-20x20</title>
    <desc>Created with Sketch.</desc>
    <defs></defs>
    <g id="Symbols" stroke="none" stroke-width="1" fill="none" fill-rule="evenodd">
        <g id="f-rbcom-rbtickets-icon-folder-20x20" fill-rule="nonzero" fill="#10151E">
            <g transform="translate(0.000000, 2.000000)" id="Shape">
                <path d="M5.28119705,7.39261545 C5.99640172,7.05223072 6.68052164,6.88196303 7.33319196,6.88196303 L16,6.88196303 L16,5.16147228 C16,4.50198157 15.7707682,3.93540182 15.3122681,3.46226027 C14.853841,2.98915638 14.3054433,2.7526421 13.6664546,2.7526421 L7.99979934,2.7526421 L7.99979934,2.40856654 C7.99979934,1.74907584 7.77067699,1.18275972 7.31235934,0.709768816 C6.85400519,0.236664928 6.30538853,0 5.66650933,0 L2.33329001,0 C1.69441081,0 1.14579414,0.236627267 0.68744,0.709768816 C0.229085859,1.18279738 0,1.74911351 0,2.40860421 L0,12.7310215 C0,12.7597949 0.00178773803,12.8046497 0.00525376075,12.8656991 C0.00868329902,12.9265224 0.0105075215,12.9714149 0.0105075215,13 L0.0625343467,12.9358248 L3.57292215,8.67751318 C3.99650661,8.16132453 4.5659559,7.73292485 5.28119705,7.39261545 Z"></path>
                <path d="M19.721311,8.14249988 C19.5355552,8.04757657 19.3234525,8 19.0848553,8 L7.6384183,8 C7.17552136,8 6.67227477,8.129514 6.1287891,8.38842708 C5.58526657,8.64760831 5.16264556,8.96248707 4.86114717,9.33463393 L1.32622406,13.6655193 C1.10874135,13.9207167 1,14.1613959 1,14.387557 C1,14.60621 1.09296999,14.7630365 1.27879942,14.8576533 C1.46462885,14.9525767 1.67676845,15 1.91529193,15 L13.3620606,15 C13.8248838,15 14.3278724,14.870486 14.8715055,14.6117261 C15.415028,14.352928 15.8374648,14.0375512 16.1390737,13.6655193 L19.6740337,9.33463393 C19.8914059,9.07939826 19.9999998,8.83898718 19.9999998,8.61259624 C20.0001472,8.39398151 19.9073246,8.23730826 19.721311,8.14249988 Z"></path>
            </g>
        </g>
    </g>
</svg>