<?xml version="1.0" encoding="UTF-8" standalone="no"?>
<svg width="30px" height="30px" viewBox="0 0 30 30" version="1.1" xmlns="http://www.w3.org/2000/svg" xmlns:xlink="http://www.w3.org/1999/xlink">
    <!-- Generator: Sketch 46.2 (44496) - http://www.bohemiancoding.com/sketch -->
    <title>f-rbcom-rbtickets-checkbox-checked</title>
    <desc>Created with Sketch.</desc>
    <defs>
        <rect id="path-1" x="0" y="0" width="30" height="30"></rect>
    </defs>
    <g id="Symbols" stroke="none" stroke-width="1" fill="none" fill-rule="evenodd">
        <g id="f-rbcom-rbtickets-checkbox-checked">
            <g>
                <g id="f-rbcom-rbtickets-checkbox">
                    <g>
                        <use fill="#FFFFFF" fill-rule="evenodd" xlink:href="#path-1"></use>
                        <rect stroke="#EDEDED" stroke-width="2" x="1" y="1" width="28" height="28"></rect>
                    </g>
                </g>
                <g id="correct-symbol" transform="translate(6.000000, 8.000000)" fill-rule="nonzero" fill="#DB0A40">
                    <path d="M17.6748444,1.98781289 L16.0955181,0.339347481 C15.8789648,0.113144131 15.6155946,0 15.3060177,0 C14.9961561,0 14.7327859,0.113144131 14.5162325,0.339347481 L6.89806177,8.30303852 L3.48384863,4.72721698 C3.26705124,4.50092872 3.00384375,4.38791195 2.69426684,4.38791195 C2.38448656,4.38791195 2.12127907,4.50092872 1.90448168,4.72721698 L0.325155409,6.37572484 C0.10835802,6.60197065 0,6.87678564 0,7.20008491 C0,7.52312945 0.10835802,7.79819918 0.325155409,8.02440253 L4.52895034,12.4121447 L6.10839863,14.0606101 C6.325074,14.2869832 6.58836284,14.4 6.89806177,14.4 C7.20763868,14.4 7.47092752,14.286686 7.68772491,14.0606101 L9.26713253,12.4121447 L17.6748444,3.63640566 C17.8914384,3.4101174 17.9999998,3.13534486 17.9999998,2.81204559 C18.0001625,2.48891614 17.8914384,2.21410115 17.6748444,1.98781289 Z" id="Shape"></path>
                </g>
            </g>
        </g>
    </g>
</svg>