<?xml version="1.0" encoding="UTF-8" standalone="no"?>
<svg width="20px" height="20px" viewBox="0 0 20 20" version="1.1" xmlns="http://www.w3.org/2000/svg" xmlns:xlink="http://www.w3.org/1999/xlink">
    <!-- Generator: Sketch 46.2 (44496) - http://www.bohemiancoding.com/sketch -->
    <title>f-rbcom-rbtickets-icon-zoom-dark-20x20</title>
    <desc>Created with Sketch.</desc>
    <defs></defs>
    <g id="Symbols" stroke="none" stroke-width="1" fill="none" fill-rule="evenodd">
        <g id="f-rbcom-rbtickets-icon-zoom-dark-20x20">
            <g>
                <g id="icon__bounds">
                    <rect id="bounds" x="0" y="0" width="20" height="20"></rect>
                </g>
                <g id="icon__shape" transform="translate(1.000000, 0.000000)" fill="#FFFFFF">
                    <path d="M0,8.00052094 C0,12.4180504 3.58090773,16 7.99947906,16 C12.4180504,16 16,12.4180504 16,8.00052094 C16,3.5819496 12.4180504,0 7.99947906,0 C3.58090773,0 0,3.5819496 0,8.00052094 Z M7.99955974,3 C10.7564498,3 13,5.24266972 13,8.00044026 C13,10.7573303 10.7564498,13 7.99955974,13 C5.24266972,13 3,10.7573303 3,8.00044026 C3,5.24266972 5.24266972,3 7.99955974,3" id="shape"></path>
                    <polygon id="Fill-3" points="18 17 14 13 12 13 12 15 16 19"></polygon>
                    <rect id="Rectangle" transform="translate(8.000000, 8.000000) rotate(90.000000) translate(-8.000000, -8.000000) " x="7" y="4" width="2" height="8"></rect>
                    <rect id="Rectangle" x="7" y="4" width="2" height="8"></rect>
                </g>
            </g>
        </g>
    </g>
</svg>