<?xml version="1.0" encoding="UTF-8" standalone="no"?>
<svg width="16px" height="17px" viewBox="0 0 16 17" version="1.1" xmlns="http://www.w3.org/2000/svg" xmlns:xlink="http://www.w3.org/1999/xlink">
    <!-- Generator: Sketch 46.2 (44496) - http://www.bohemiancoding.com/sketch -->
    <title>f-rbcom-rbtickets-icon-ticket-dark-15x15</title>
    <desc>Created with Sketch.</desc>
    <defs></defs>
    <g id="Symbols" stroke="none" stroke-width="1" fill="none" fill-rule="evenodd">
        <g id="f-rbcom-rbtickets-icon-ticket-dark-15x15">
            <g>
                <g id="icon__bounds">
                    <rect id="bounds" x="0" y="0" width="16" height="16"></rect>
                </g>
                <g id="icon__shape" transform="translate(0.000000, 3.000000)" fill-rule="nonzero" fill="#A0A1A1">
                    <path d="M12.7957319,4.19361642 L11.750742,3.14848828 C11.5517293,3.25691496 11.3236736,3.31873477 11.0812349,3.31873477 C10.3080033,3.31873477 9.68123064,2.69196215 9.68123064,1.91886882 C9.68123064,1.67643007 9.74318875,1.44837445 9.85161543,1.24936169 L8.80648729,0.204233555 C8.53417589,-0.0680778518 8.0889903,-0.0680778518 7.81667889,0.204233555 L0.204129831,7.81719752 C-0.068043277,8.08937062 -0.068043277,8.53469451 0.204129831,8.80686762 L1.24939627,9.85199576 C1.44827072,9.74356907 1.67646464,9.68188756 1.91890339,9.68188756 C2.69213502,9.68188756 3.31876935,10.3083836 3.31876935,11.0816152 C3.31876935,11.324054 3.25694954,11.5521096 3.14838455,11.7512606 L4.19351269,12.7963888 C4.4658241,13.0685619 4.91114799,13.0685619 5.18345939,12.7963888 L12.7960085,5.18356312 C13.0680433,4.91125171 13.0680433,4.46592782 12.7957319,4.19361642 Z" id="Shape"></path>
                </g>
            </g>
        </g>
    </g>
</svg>