<?xml version="1.0" encoding="UTF-8" standalone="no"?>
<svg width="75px" height="30px" viewBox="0 0 75 30" version="1.1" xmlns="http://www.w3.org/2000/svg" xmlns:xlink="http://www.w3.org/1999/xlink">
    <!-- Generator: Sketch 46.2 (44496) - http://www.bohemiancoding.com/sketch -->
    <title>f-rbcom-rbtickets-icon-creditcard-75x30</title>
    <desc>Created with Sketch.</desc>
    <defs></defs>
    <g id="Symbols" stroke="none" stroke-width="1" fill="none" fill-rule="evenodd">
        <g id="f-rbcom-rbtickets-icon-creditcard-75x30" fill-rule="nonzero" fill="#10151E">
            <g transform="translate(40.000000, 3.000000)" id="Shape">
                <path d="M32.4478419,0 L2.55209829,0 C1.14263327,0 0,1.2187474 0,2.72224349 L0,3.40282031 C0,3.77861458 0.28567327,4.08333333 0.638039525,4.08333333 L34.3619605,4.08333333 C34.7143267,4.08333333 35,3.77861458 35,3.40275651 L35,2.72217969 C34.9999402,1.2187474 33.8573069,0 32.4478419,0 Z"></path>
                <path d="M34.3619592,8.16666667 L0.638040771,8.16666667 C0.285673828,8.16666667 0,8.44645182 0,8.7916862 L0,20.6667057 C0,22.0473503 1.1426355,23.1666667 2.55210327,23.1666667 L32.4479565,23.1666667 C33.8573645,23.1666667 35,22.0473503 35,20.6666471 L35,8.7916862 C35,8.44645182 34.7143262,8.16666667 34.3619592,8.16666667 Z"></path>
            </g>
        </g>
    </g>
</svg>