<?xml version="1.0" encoding="UTF-8" standalone="no"?>
<svg width="124px" height="40px" viewBox="0 0 124 40" version="1.1" xmlns="http://www.w3.org/2000/svg" xmlns:xlink="http://www.w3.org/1999/xlink">
    <!-- Generator: Sketch 46.2 (44496) - http://www.bohemiancoding.com/sketch -->
    <title>f-rbcom-rbtickets-logo-dark</title>
    <desc>Created with Sketch.</desc>
    <defs></defs>
    <g id="Symbols" stroke="none" stroke-width="1" fill="none" fill-rule="evenodd">
        <g id="f-rbcom-rbtickets-logo-dark">
            <g transform="translate(62.000000, 20.000000) scale(-1, 1) translate(-62.000000, -20.000000) " id="logo">
                <g transform="translate(62.000000, 20.000000) scale(-1, -1) translate(-62.000000, -20.000000) ">
                    <path d="M28.4608226,35.4765781 L27.1953497,35.4794606 L27.2245416,25.9008753 L24.7560093,25.8932537 L24.7189542,37.445158 L28.7906319,37.4584959 C28.850146,37.4613784 28.9071537,37.4613784 28.9666678,37.4613784 C30.8959858,37.469 32.4697918,35.944136 32.4751486,34.0605177 C32.4787853,32.4545517 31.3467399,31.1062066 29.8205549,30.7349939 L33.2443596,25.918024 L30.3344598,25.9123078 L27.8576712,29.6872637 L27.8476949,32.4554799 L28.4176246,32.4497637 C29.3320086,32.4583625 30.0672607,33.1348801 30.0659338,33.9698398 C30.0630343,34.8047995 29.3713734,35.4794606 28.4608226,35.4765781 L28.4608226,35.4765781 Z M59.7443463,36.60927 C60.2790393,36.0434126 60.5842272,35.3200903 60.5881587,34.5356972 C60.5925817,33.6663913 60.204831,32.8772592 59.5723402,32.288488 C61.1361208,31.5651657 61.6054516,30.6328836 61.6128232,29.3151228 C61.6128232,27.5068414 60.0377394,26.0335211 58.0734305,25.9981977 L52.9515823,25.9657569 L52.918164,37.4623555 L56.8890461,37.4537568 C58.2085781,37.4584959 59.1870467,37.2113791 59.7443463,36.60927 L59.7443463,36.60927 Z M57.6419411,27.9963848 L55.4186403,27.9906197 L55.3979995,35.4851769 L56.9431052,35.4918214 C57.6286721,35.4918214 58.1790914,34.9421843 58.18204,34.2713829 C58.18204,33.5919827 57.6345694,33.043274 56.9529341,33.0394632 L56.1454886,33.0366295 L56.1553175,30.9611513 L57.6311293,30.9649621 C58.4552839,30.9687729 59.0784372,30.3094039 59.0858089,29.4868538 C59.0538649,28.6433442 58.5334238,28.0583838 57.6419411,27.9963848 L57.6419411,27.9963848 Z M47.4699957,26.7672987 C46.8542141,26.1479921 46.034974,25.7625134 45.1282564,25.760608 C43.2130921,25.7539146 41.6557003,27.438149 41.6473458,29.5202717 C41.6429228,31.6081107 43.1909771,33.3009438 45.1036841,33.3075883 C46.00303,33.311448 46.8242359,32.9431179 47.4424748,32.34096 L47.4169196,38.0720862 L49.7385096,38.080685 L49.7788081,25.9790948 L47.472453,25.9733786 L47.4699957,26.7672987 L47.4699957,26.7672987 Z M44.0726308,29.5765545 C44.0726308,30.5976091 44.8314232,31.4277809 45.7730333,31.4315917 C46.7116948,31.4373079 47.4778589,30.606159 47.4778589,29.5880359 C47.4832648,28.5622422 46.7234895,27.7310933 45.7818794,27.7310933 C44.8407606,27.7253771 44.0780367,28.5545717 44.0726308,29.5765545 Z M40.5296997,29.0527138 C40.5431162,29.211107 40.5526994,29.373311 40.5482764,29.5383975 C40.5786477,32.0346778 38.9123024,33.4011487 36.7920086,33.3953837 C34.6745652,33.3887392 32.9634983,31.657749 32.9689042,29.5250597 C32.975637,27.3894878 34.6999238,25.6661193 36.8188907,25.6709072 C38.4349119,25.6756952 39.6936521,26.405662 40.3411811,27.5497864 L38.4512279,28.4085881 C38.2135647,27.8904636 37.6571989,27.5306834 37.0022,27.5297552 C36.1283602,27.5259444 35.4203833,28.1652821 35.4180735,28.9592023 C35.4180735,29.0087917 35.3986614,28.9877834 35.4024947,29.0393271 L40.5296997,29.0527138 Z M35.4040673,30.3657356 C35.4011678,31.1424582 36.0362141,31.7741743 36.8188907,31.777008 C37.600781,31.7798905 38.238137,31.1500798 38.2394639,30.3714518 L35.4040673,30.3657356 L35.4040673,30.3657356 Z M73.2699179,26.0201344 L70.9488193,26.0134899 L70.9124523,38.161787 L73.232568,38.1703857 L73.2699179,26.0201344 Z M77.1960784,26.0335211 L74.873997,26.0278049 L74.8366471,38.1770302 L77.1567628,38.1818182 L77.1960784,26.0335211 Z M64.7261324,28.9152801 L64.7261324,33.0747865 L62.4060168,33.0709757 L62.4183029,28.4629655 C62.4242003,26.9085432 64.0533431,25.6498989 66.054019,25.6565922 C68.0542035,25.6623085 69.6700773,26.9285744 69.6671286,28.4858793 L69.6509109,33.0919352 L67.3715852,33.0652594 L67.3799398,28.9238789 C67.3799398,28.2339745 66.7882391,27.66714 66.054019,27.6633292 C65.319799,27.6633292 64.7261324,28.2196595 64.7261324,28.9152801 L64.7261324,28.9152801 Z" id="path14" fill="#E31449"></path>
                    <path d="M97.4575163,29.8989899 C97.0160201,29.8692753 96.7447393,29.7666247 96.4444444,29.7340123 C96.4671721,29.4404514 96.6243312,29.2082843 96.8564431,28.8888889 C96.9478372,29.377142 97.3438782,29.5459506 97.4575163,29.8989899" id="path16" fill="#FCD205"></path>
                    <path d="M95.2287929,32.0938804 C95.215997,36.4494361 98.744696,39.9884415 103.106601,39.999972 C107.471459,40.0114533 111.020336,36.4944783 111.032639,32.139904 C111.04642,27.7910703 107.519197,24.252948 103.154339,24.2424479 C98.7909578,24.2318988 95.2420808,27.7441145 95.2287929,32.0938804" id="path18" fill="#FCD205" fill-rule="nonzero"></path>
                    <path d="M94.3409887,28.181073 C94.3557535,28.088328 94.4901132,27.9926449 94.394142,27.9151778 C94.2400959,27.7880084 94.0501221,27.7076522 93.8384933,27.7420766 C93.677557,27.8568571 93.6834629,28.095967 93.5431973,28.2461023 C93.5082539,28.3656817 93.3113899,28.3656817 93.3547,28.4985803 L93.4157278,28.541623 C93.6401528,28.541623 93.8680229,28.549311 94.0885106,28.5837353 C94.3149042,28.5780061 94.2484626,28.3140206 94.3409887,28.181073 L94.3409887,28.181073 Z M84.1158721,28.0710913 C84.0021831,27.8625864 83.8624097,27.6292548 83.6448749,27.4982169 C83.5592391,27.4743206 83.4627757,27.4800498 83.3810772,27.5144742 C83.3446573,27.5546278 83.2570528,27.6043791 83.2536077,27.6751376 C83.2693568,27.7506949 83.2442567,27.8568571 83.3102061,27.9046987 C83.4829543,28.0089022 83.6448749,28.1170231 83.7969524,28.2461023 C83.8427233,28.2623596 83.9052276,28.2910547 83.9475534,28.2576097 C84.0125185,28.1992401 84.0902798,28.147628 84.1158721,28.0710913 L84.1158721,28.0710913 Z M83.2181722,27.2141546 L83.2181722,27.1433961 C83.1158029,26.906196 83.0552672,26.6058765 82.9765216,26.3352314 C82.78704,26.3524191 82.6408685,26.4165179 82.4833773,26.4643595 C82.4395751,26.5054435 82.4833773,26.5580839 82.4873146,26.5972581 C82.6664608,26.7579705 82.6162605,26.9654961 82.6487431,27.1873692 C82.6797491,27.3203168 82.7944224,27.4216802 82.9095879,27.4762303 C83.0493613,27.4484656 83.1369658,27.3203168 83.2181722,27.2141546 L83.2181722,27.2141546 Z M84.4042779,36.2999852 C84.8836417,36.1794754 85.4215726,36.1661072 85.7921691,35.7911607 C85.9895253,35.5425021 86.0165941,35.1264716 85.8630402,34.8682643 C85.5884149,34.3824057 85.0194779,34.1251288 84.6646305,33.6985702 C84.3196263,33.4068689 84.1882196,32.9583238 84.309291,32.5269663 C84.4352839,32.150159 84.8157236,31.8823541 85.2099438,31.8536589 C85.8108712,31.8374016 86.2764546,32.1415407 86.7568028,32.4208041 C87.2396117,32.7641664 87.6850166,33.2127116 88.25543,33.3532982 C88.6117539,33.491975 89.0409174,33.417397 89.3873981,33.5646922 C89.7885085,33.6459788 90.0833123,33.971125 90.3914045,34.2542569 C90.7349322,34.532541 91.1414564,34.7008923 91.5947358,34.6836557 C92.0042129,34.6195568 92.232083,34.9916142 92.5037553,35.227835 C92.9737681,35.6486643 93.5879838,35.7003254 94.1362501,35.9441851 C94.5161976,36.0733132 94.8365938,36.3430279 95.1929177,36.5352755 C95.5334924,36.6825217 96.0163014,36.7093071 96.3622899,36.5792486 C96.5965581,36.4730864 96.8268889,36.3783827 97.0306432,36.227317 L98.6961127,34.8567569 C98.7157991,34.800346 98.7876545,34.7659216 98.8329332,34.7218995 C99.3073754,34.1614629 99.798059,33.6057762 100.182928,32.9908384 C100.311874,32.7737151 100.360598,32.5384248 100.423594,32.3089127 C100.504801,31.3735295 100.762693,30.5587051 101.068324,29.741922 C101.154452,29.6137733 101.314404,29.5276879 101.40693,29.3928305 C101.669251,29.0332109 101.836586,28.5741377 102.256398,28.333167 L102.5074,28.2097682 C102.523641,28.181073 102.532008,28.147628 102.5074,28.1227524 L102.471964,28.0873486 C101.965532,28.0012632 101.577217,28.3111315 101.310467,28.6822096 C101.144609,29.0064745 100.924613,29.355517 100.557462,29.481805 C100.540236,29.4903744 100.521042,29.4702976 100.508738,29.4578598 C100.558938,29.3412184 100.669182,29.2522439 100.721843,29.1412828 C100.861125,28.9194097 100.989578,28.6669317 101.060942,28.4393293 C101.136242,28.181073 101.424648,27.9821658 101.653994,27.8434889 L101.988663,27.6751376 C102.02902,27.6483522 102.039848,27.5843023 102.008842,27.5460095 L101.958149,27.5230925 C101.40693,27.4991473 100.918215,27.6818462 100.53187,28.0816194 C100.442296,28.1753438 100.321225,28.2690682 100.190803,28.2690682 C99.9447227,28.0510145 99.6991348,27.8348706 99.3718484,27.8147938 C99.032258,27.8664059 98.6454202,27.8683156 98.3417575,27.7382571 C98.0592576,27.6407132 97.7767578,27.5230925 97.4657126,27.508745 C97.3185568,27.5068352 97.1477773,27.5747046 97.097577,27.7191597 C97.097577,27.887462 96.9642016,28.095967 97.0773984,28.2795963 L97.2865664,28.5894646 C97.2850899,28.626778 97.2565446,28.6612024 97.2156954,28.6688414 C97.1261222,28.6822096 96.9912704,28.5387829 96.956327,28.6908279 C96.9765056,29.0074048 97.2742624,29.1939232 97.4844147,29.4129073 C97.5321542,29.6625452 97.6271411,29.8748696 97.8067795,30.0757356 C97.8077639,30.1034514 97.7797107,30.128327 97.749689,30.1445843 C97.4917971,30.102472 97.2235699,30.0288244 96.9386093,30.0384221 C96.7132,29.9160026 96.4331609,29.8337367 96.1678867,29.9160026 C96.1127647,29.950427 96.1344198,30.0135465 96.1452473,30.0623184 C96.4218412,30.4391257 96.5197811,30.9288039 96.4508787,31.4118223 C96.4331609,31.4271003 96.4218412,31.4806711 96.3829606,31.4682333 C96.3322681,31.4682333 96.3283308,31.4251906 96.3150425,31.3945857 C96.2540147,30.957499 96.1142412,30.5921501 95.8789887,30.2239612 C95.6963974,30.0336233 95.4109446,30.0460611 95.1722469,29.9695734 C95.1151564,29.942788 95.0546207,29.8921063 95.0546207,29.824188 C95.0487148,29.6701842 95.1589586,29.5506538 95.2229394,29.4177061 L95.7672684,28.4507877 C95.7795724,28.181073 95.6678521,27.9180669 95.6087929,27.6846863 C95.6353695,27.6340046 95.6752345,27.653151 95.7121465,27.6770473 C95.9006438,27.8434889 96.0177779,28.0643827 96.0945548,28.2986937 C96.1162099,28.4087244 96.0714233,28.5263451 96.0423859,28.6133609 L95.4803391,29.6979489 C95.5142982,29.7696868 95.6058399,29.7562696 95.6678521,29.7811452 C95.8027039,29.790694 95.9055654,29.7208659 96.0266367,29.6845318 C96.1560748,29.3497878 96.2864972,29.0236622 96.5266713,28.7319609 C96.5783481,28.5569499 96.6339622,28.3140206 96.5123987,28.1561974 C96.4001862,27.9151778 96.2727168,27.7067218 96.1191628,27.48289 C95.9793894,27.3365741 95.762839,27.3451925 95.5635142,27.3289352 L95.4020857,27.3289352 C94.9261669,27.065929 94.3995557,26.8985571 93.8847563,26.7340252 C93.6519646,26.6383911 93.3857061,26.7053301 93.2119736,26.8593338 C93.0308587,26.9980107 92.9550661,27.2141546 92.8295653,27.3939644 C92.6863467,27.5718645 92.465859,27.4169303 92.3044305,27.5144742 C92.1631806,27.7420766 92.0258679,27.9630194 91.8924926,28.1964 C91.8885553,28.2576097 91.9047966,28.3207292 91.9495831,28.3627926 C92.1331588,28.4249817 92.3344523,28.4345304 92.5436203,28.456517 C92.7296568,28.4689548 92.9156933,28.4450585 93.0407019,28.3054023 C93.2907192,28.0184999 93.3940728,27.6292548 93.7622085,27.4484656 C94.0417554,27.4197705 94.3026002,27.5230925 94.5378527,27.6368937 C94.6820556,27.7210694 94.8503743,27.8463291 94.8503743,28.0299584 C94.824782,28.3828694 94.5772255,28.6688414 94.283406,28.8754366 C93.9738373,29.0332109 93.6440901,29.2541537 93.419173,29.5391463 C93.308437,29.6921707 93.277923,29.8786891 93.2134501,30.0537001 C93.1858891,30.0900342 93.1238769,30.1034514 93.0894257,30.0757356 C92.9688465,29.9695734 93.0598961,29.7954928 93.0761374,29.6701842 C93.0894257,29.5860575 93.1440555,29.4961526 93.096316,29.4205952 C92.92406,29.2790293 92.6651838,29.3469477 92.4373137,29.3412184 C91.9825579,29.3660451 91.5666826,29.5391463 91.0927325,29.4980623 C90.6374845,29.4741171 90.0345885,29.1738464 89.6959824,29.6137733 C89.5242186,30.0317135 89.5763875,30.5395587 89.6497194,30.9737563 C89.6521802,31.0206185 89.5980426,31.0483832 89.5586698,31.0589113 C89.5217578,31.0713492 89.4745104,31.0483832 89.4631907,31.0024514 C89.3509782,30.5845112 89.3180035,30.1120697 89.2244931,29.6759134 C89.0601117,29.2838281 88.7869628,28.8754366 88.3892975,28.6726609 C88.0314972,28.4890316 87.627926,28.4201829 87.2081135,28.3885986 C86.440836,28.3733207 85.7109627,28.2164768 85.2439028,27.5546278 C85.2099438,27.4905779 85.1346433,27.4437157 85.1567905,27.3538108 C85.1853358,27.3298656 85.2355361,27.3203168 85.2694952,27.341373 C85.798075,27.9343242 86.4826696,28.162906 87.2455177,28.1390097 C87.9881871,28.1437596 88.7205212,28.273867 89.1792144,28.8984025 C89.3002857,29.0399195 89.3741097,29.1939232 89.4814006,29.3364196 C89.5640835,29.3469477 89.624127,29.2426952 89.6841706,29.1939232 C89.6969667,28.9748902 89.5153597,28.827595 89.4459651,28.6411256 C89.356392,28.4393293 89.2500854,28.1944902 89.0369801,28.0844595 C88.7899158,28.0261389 88.5841929,27.8568571 88.3686268,27.7248889 C88.1348508,27.6215668 87.8567804,27.5747046 87.5900297,27.6464425 C87.2514236,27.7048121 86.8060188,27.7880084 86.4841461,27.6368937 C86.3182882,27.5278424 86.185405,27.3509217 86.0234843,27.2437801 C85.788724,27.1500557 85.5957973,26.9568777 85.3221563,26.9702949 C85.1375963,27.0018302 84.9067732,27.1271388 84.7517428,26.9578571 C84.5593083,26.7713387 84.5017255,26.4595606 84.244818,26.3380715 C83.9421396,26.1687898 83.6212513,26.3333216 83.3102061,26.3610374 C83.3579456,26.6556278 83.3997793,26.9568777 83.5872922,27.1720913 C83.7039341,27.1873692 83.823529,27.207446 83.909657,27.2935314 C84.0322049,27.3977839 84.121778,27.5374401 84.2059374,27.6703387 C84.4653057,27.8310511 84.7724135,27.9630194 84.939748,28.2422828 C85.0603272,28.5091084 85.0696782,28.7511073 85.2739246,28.9892378 L85.3782625,29.0399195 L85.9230837,29.0800731 C86.1514459,29.1738464 86.357661,29.2819184 86.5633839,29.4358732 C86.6268725,29.5057013 86.6386843,29.6051549 86.6239195,29.6941294 C86.5279483,29.9561562 86.4364066,30.1464941 86.367012,30.4190489 C86.2981096,30.7107502 86.3497864,30.9948125 86.3113979,31.3171186 C86.2912194,31.3448344 86.2720251,31.3945857 86.2164111,31.3945857 C85.8551656,31.3152089 85.4949045,31.2109564 85.0952705,31.2702564 C84.5534023,31.3429246 83.9820046,31.6929955 83.7777581,32.2400639 C83.5917217,32.7125054 83.6315866,33.3743543 83.9859418,33.7530714 C84.3142126,34.1604836 84.7222132,34.473241 85.1134804,34.8022557 C85.179922,34.852007 85.1853358,34.9236959 85.1976398,34.9916142 C85.195179,35.0662412 85.121355,35.1379301 85.0494996,35.1666252 C84.7994824,35.220196 84.5159982,35.1446386 84.2733633,35.2479607 C83.85109,35.398096 83.5154369,35.7949802 83.4598228,36.2330462 C83.4396442,36.4291133 83.4760641,36.6069644 83.5779412,36.7676768 C83.8565038,36.6174925 84.0917562,36.3812718 84.4042779,36.2999852 L84.4042779,36.2999852 Z M99.3231246,28.9309171 C99.3418266,28.7950804 99.3393658,28.6353474 99.229122,28.5531305 C99.0957466,28.5091084 98.9495751,28.4928511 98.8024193,28.5033792 C98.7669837,28.5148866 98.7157991,28.5349634 98.7305639,28.5780061 C98.7940525,28.7635451 98.9756596,28.9548134 99.1789217,28.9978561 C99.2335514,28.9997659 99.3132814,29.0074048 99.3231246,28.9309171 Z M99.7586862,31.3343553 C99.9968916,31.0799185 100.147493,30.7949259 100.075637,30.4362856 C100.034788,30.3731661 100.048076,30.262205 99.9521051,30.2383087 C99.9097793,30.2306698 99.8758203,30.2564758 99.8787732,30.2966294 C99.8605633,30.4831478 99.8605633,30.6811247 99.7498273,30.8350795 C99.6203892,30.9661173 99.4830766,31.1937687 99.2886734,31.1956784 C99.145947,31.1564552 99.0401326,30.9900136 98.9544967,30.8810113 C98.9480986,30.8695038 98.9264436,30.8666637 98.9151239,30.875282 C98.8329332,31.0674807 98.985995,31.2348527 99.0509601,31.4060441 C99.1720314,31.5208247 99.145947,31.8737357 99.4097447,31.7609139 C99.5869223,31.6614113 99.625803,31.4682333 99.7586862,31.3343553 L99.7586862,31.3343553 Z M96.4695808,34.1815397 C96.6044326,33.8726508 96.6073856,33.4604397 96.513383,33.1342651 C96.498126,33.1189872 96.479424,33.1103688 96.4631827,33.1247164 C96.4031392,33.4106884 96.3322681,33.7071885 96.2239929,33.9778336 C96.1605043,34.1365873 95.9518284,34.2695349 96.0497683,34.4569837 C96.0916019,34.5019361 96.1678867,34.5076653 96.2225164,34.4837691 C96.3312838,34.4120312 96.4046156,34.290591 96.4695808,34.1815397 L96.4695808,34.1815397 Z" id="path20" fill="#E31449"></path>
                    <path d="M112.485056,28.5416902 C112.455494,28.343299 112.392428,28.1468799 112.321479,27.9591379 C112.261863,27.8406652 112.086462,27.87917 111.968214,27.8946015 C111.836663,27.9388747 111.643032,27.9533202 111.615934,28.1295749 C111.597211,28.3019346 111.678999,28.4560034 111.760295,28.5801951 C111.949491,28.6100721 112.169728,28.5686584 112.357447,28.6042545 C112.4146,28.6235315 112.468797,28.5956266 112.485056,28.5416902 L112.485056,28.5416902 Z M122.335106,28.4126669 C122.499668,28.2759032 122.715963,28.1632481 122.848992,27.9783656 C122.866729,27.8926788 122.808591,27.8166058 122.763755,27.7501467 C122.692806,27.691428 122.616438,27.64326 122.518391,27.64326 C122.420343,27.6510004 122.328209,27.7068102 122.272534,27.7925464 C122.165125,27.9437063 122.027662,28.0871751 121.976914,28.2518438 C122.045399,28.3587305 122.193209,28.5359219 122.335106,28.4126669 Z M123.375688,27.4940228 C123.48014,27.3418769 123.439246,27.1223351 123.473735,26.9586525 C123.503297,26.8373202 123.650122,26.7400474 123.572275,26.6129469 L123.123426,26.4646465 C123.046565,26.4694781 123.076127,26.562856 123.048043,26.6119608 C123.001236,26.8719796 122.938663,27.056862 122.85589,27.3091403 C122.835689,27.4516724 122.982021,27.5527415 123.07859,27.6345828 C123.198809,27.6683054 123.28306,27.5585591 123.375688,27.4940228 L123.375688,27.4940228 Z M111.68639,36.502237 C111.906134,36.3568454 112.005166,36.0621673 112.275658,35.9986171 C112.722044,35.903267 113.171879,35.7963803 113.578849,35.5970523 C113.875454,35.4488012 114.144961,35.2378873 114.393281,35.0183455 C114.638646,34.8825678 114.943134,34.8999221 115.209685,34.8064948 C115.593005,34.7082852 115.910303,34.416516 116.255686,34.1950515 C116.711926,33.8339636 117.345045,33.8946051 117.860901,33.6606178 C118.677797,33.404494 119.337522,32.7776191 120.097757,32.3972542 C120.490439,32.1873263 121.079708,32.1045482 121.471404,32.3481494 C121.731057,32.5359407 121.900053,32.7833874 121.8429,33.1184931 C121.691641,33.9504643 120.772756,34.3943794 120.334253,35.0818958 C120.239162,35.2542555 120.195805,35.4603379 120.233743,35.6635114 C120.382045,36.07469 120.82646,36.2884635 121.187116,36.4473145 C121.471404,36.5889099 121.836987,36.5600189 122.110928,36.7237015 C122.208483,36.7785746 122.285836,36.8739247 122.366147,36.9403345 C122.425763,36.937475 122.427241,36.8739247 122.441037,36.8296022 C122.526767,36.3404771 122.437095,35.8330117 122.012388,35.544102 C121.847827,35.4343557 121.653703,35.3813561 121.455145,35.3332373 C121.29551,35.2610099 120.970821,35.4016192 120.986095,35.1117728 C121.02354,34.9827001 121.155584,34.8787222 121.260529,34.7920493 C121.830582,34.3153976 122.357771,33.7135682 122.428719,32.975961 C122.456311,32.4068681 122.061658,31.906157 121.572407,31.6634926 C121.215693,31.5104099 120.750584,31.4535647 120.35741,31.5604514 C120.248524,31.5797285 120.082484,31.6760153 120.012028,31.5402376 C119.987393,31.3852321 120.09086,31.2619771 120.101699,31.1059856 C120.140622,30.836353 120.138652,30.4964158 120.055385,30.2345236 C120.017447,30.03135 119.801152,29.783854 119.996754,29.5758489 C120.188414,29.2937429 120.550548,29.3804158 120.857993,29.3341705 C121.02354,29.2995112 121.07281,29.1203971 121.126022,28.9962053 C121.180219,28.8411506 121.194014,28.6504997 121.25905,28.5349359 C121.252153,28.2325667 121.594086,28.1112345 121.771951,27.9099838 C121.984304,27.6856597 122.162169,27.2985404 122.518391,27.3216631 C122.629741,27.0693847 122.710051,26.8450114 122.747496,26.5590105 L122.699704,26.5205056 C122.405562,26.5205056 122.033082,26.4338327 121.812352,26.6446974 C121.567973,26.8045837 121.480765,27.2523444 121.123558,27.131949 C120.969343,27.0039117 120.734325,26.9644208 120.546607,27.0443393 C120.369728,27.1059668 120.242118,27.2696494 120.079528,27.3649995 C119.588799,27.7193329 118.94287,27.9013559 118.306794,27.755915 C117.943675,27.6567687 117.653475,27.9138786 117.358348,28.0823928 C116.979954,28.2450894 116.863185,28.6610997 116.777455,29.0115876 L116.708477,29.4468256 C116.714882,29.4873025 116.743459,29.5267441 116.784353,29.5392668 L116.840028,29.5392668 C117.060757,29.0318014 117.488913,28.4656173 118.042707,28.2855664 C118.549695,28.0862384 119.029092,28.343299 119.568598,28.2450894 C120.079035,28.1834619 120.481078,27.8541739 120.880657,27.5508187 C120.916132,27.5402188 120.944708,27.5749274 120.962445,27.6047551 L120.962445,27.6394144 C120.497337,28.2277844 119.840568,28.5359219 119.081811,28.4762172 C118.458546,28.343299 117.82592,28.5474586 117.467234,29.0818922 C117.270154,29.3823386 117.113476,29.7068443 117.055337,30.0631005 C116.998184,30.4704336 116.90802,30.9230259 116.772528,31.2908681 C116.735083,31.3197591 116.691725,31.3572779 116.647382,31.329373 L116.61043,31.2619771 C116.678422,30.8719984 116.785831,30.400129 116.648367,29.9870275 C116.552784,29.6625218 116.21627,29.5354213 115.907347,29.519053 C115.598425,29.4969164 115.311673,29.5594806 114.994868,29.5594806 C114.24892,29.5883716 113.61186,29.2792974 112.848668,29.3592159 C112.910748,29.5334985 113.030474,29.7212898 112.965438,29.9273228 C112.934891,29.9687365 112.886606,29.9725821 112.845712,29.9687365 C112.707263,29.878218 112.722044,29.6971811 112.634836,29.5797438 C112.477173,29.3072023 112.172684,29.0742011 111.863762,29.0115876 C111.647466,28.8411506 111.437576,28.6100721 111.263653,28.4039898 C111.195661,28.343299 111.191719,28.2325667 111.213398,28.1391887 C111.370077,27.7713466 111.785915,27.7222418 112.119473,27.6345828 C112.282556,27.6221094 112.437757,27.6769825 112.513632,27.8166058 C112.656515,28.0448247 112.68115,28.4088214 113.011752,28.4560034 L113.727151,28.4579261 C113.783812,28.4299719 113.838502,28.3991582 113.861658,28.3346712 L113.830618,28.2364616 C113.67936,28.0486703 113.610382,27.7925464 113.399014,27.6529232 C113.286185,27.6162918 113.131478,27.6567687 113.052153,27.5508187 C113.016186,27.3091403 112.952135,27.0443393 112.707263,26.9094984 C112.53137,26.7544929 112.251023,26.8286431 112.053944,26.8892846 C111.672101,27.0356622 111.263653,27.1059668 110.886738,27.2292218 C110.716264,27.2773406 110.654677,27.4815001 110.487652,27.5219278 C110.320134,27.567187 110.135371,27.4343181 110.002835,27.5806957 C109.909222,27.7578378 109.876211,27.8897699 109.827927,28.0862384 C109.764861,28.2056478 109.731358,28.343299 109.705245,28.4858311 C109.676668,28.6042545 109.708201,28.6870818 109.744661,28.7978141 L110.266922,29.7559491 C110.313236,29.813731 110.352652,29.8753585 110.415225,29.9042495 C110.541356,29.878218 110.67537,29.8156538 110.79756,29.7530403 L110.777359,29.6847077 L110.235389,28.8527365 C110.117141,28.5744268 110.244258,28.277826 110.35955,28.0505931 C110.389112,28.0371336 110.398966,27.9937972 110.42902,28.0111022 C110.413747,28.1757708 110.396009,28.3471939 110.430006,28.5224132 C110.464495,28.6755452 110.557615,28.8257683 110.65714,28.9692371 L111.080369,29.6028171 C111.128161,29.7155214 111.119785,29.8801408 111.046373,29.9745048 C110.857669,30.1671277 110.592104,30.2143097 110.431484,30.4608197 C110.07674,30.9278082 110.047671,31.4738278 109.998894,32.0737345 C109.99643,32.1228393 109.957014,32.1834807 109.902324,32.2017718 C109.867343,32.2133578 109.827927,32.1632669 109.807233,32.134376 C109.693912,31.7559338 109.763876,31.2783454 109.867343,30.9345626 C109.933857,30.6601477 110.049149,30.4088061 110.171831,30.1555418 C110.183656,30.106437 110.152616,30.0573322 110.106302,30.0409639 C109.823492,30.0216868 109.536741,30.0496411 109.261815,30.0756232 C108.882436,30.1334052 108.614408,30.4203428 108.316324,30.636039 C108.28085,30.6639932 108.245868,30.6235163 108.222711,30.5927026 C108.308441,30.1796504 108.76813,29.9475859 108.910027,29.5652983 C108.997728,29.2600203 109.28645,29.0250963 109.36134,28.7053729 C109.36134,28.6504997 109.32291,28.6004089 109.282016,28.5744268 C109.184461,28.543613 109.080501,28.6119949 108.986889,28.5628901 C108.973586,28.3837759 109.083458,28.201753 109.008567,28.0178565 C108.913969,27.8647245 108.77355,27.6818141 108.584846,27.6712142 C108.211872,27.8002375 107.854172,27.9513974 107.481198,28.0621297 C107.210706,28.0823928 106.946619,28.0505931 106.693865,28.0111022 C106.454412,28.0602069 106.286895,28.2701348 106.100654,28.4088214 C106.047935,28.4242036 105.99226,28.4299719 105.953337,28.3885582 C105.535035,27.9716113 105.093083,27.5277454 104.475731,27.5546643 C104.441735,27.5643275 104.407738,27.5989868 104.40626,27.6345828 L104.413158,27.6769825 C104.684635,27.9177242 105.01031,28.1757708 105.120182,28.5108765 C105.199507,28.7939685 105.458174,28.9962053 105.539469,29.2792974 C105.555236,29.3274161 105.513356,29.348616 105.47394,29.3543843 L105.402992,29.3226338 C105.112299,29.0019737 104.876788,28.6697768 104.661479,28.3289028 C104.438778,28.096789 104.111133,27.9610606 103.775112,28.0467475 C103.731754,28.0737157 103.730276,28.137266 103.753433,28.172862 C105.022627,28.9557284 105.16551,30.3461926 105.513356,31.6095562 C105.758228,32.4492678 105.927224,33.3120527 106.585471,33.9957235 C107.562987,35.0751414 108.789809,35.7242022 109.859952,36.6659196 C110.02205,36.8074656 110.185134,36.9490116 110.396009,36.9644432 C110.902505,37.0058568 111.312923,36.7978517 111.68639,36.502237 L111.68639,36.502237 Z M110.527067,35.185923 C110.583728,35.098264 110.518199,35.0270226 110.476319,34.9547952 C110.190554,34.6784575 109.842708,34.3963022 109.631832,34.0660281 C109.552508,33.9591414 109.498803,33.8416548 109.440172,33.7174137 C109.435738,33.7068631 109.417015,33.7010455 109.39238,33.7068631 C109.33572,33.8743913 109.409625,34.0515827 109.446577,34.2152653 C109.595373,34.6090896 109.92154,34.9721495 110.261502,35.2253646 C110.337871,35.2783642 110.484695,35.2908376 110.527067,35.185923 L110.527067,35.185923 Z M107.462476,28.9182096 C107.504848,28.8324734 107.583187,28.7304183 107.534903,28.6331454 C107.453115,28.5686584 107.30629,28.6042545 107.194447,28.6187 C107.067824,28.6870818 107.042203,28.8324734 107.025944,28.9750055 C107.025944,29.007742 107.032842,29.0453101 107.067824,29.0722783 C107.217604,29.0742011 107.364429,29.037619 107.462476,28.9182096 L107.462476,28.9182096 Z M107.383644,31.6452016 C107.514209,31.4843784 107.605359,31.3081731 107.684191,31.1213679 C107.69503,31.0770947 107.684191,31.0327722 107.668917,30.9923445 C107.639355,30.958622 107.597968,30.9075944 107.546728,30.9422537 C107.410742,30.9894357 107.427494,31.206118 107.252586,31.1935953 C107.12005,31.2022724 107.042203,31.0896174 106.939229,31.0308494 C106.755452,30.8719984 106.509102,30.6976665 106.469686,30.4540653 C106.43569,30.3616241 106.447515,30.2373831 106.371639,30.1873415 C106.321384,30.1748188 106.26965,30.2143097 106.265216,30.2576462 C106.238117,30.5811659 106.340599,30.8912261 106.578573,31.1098312 C106.811127,31.2947137 106.971254,31.5556691 107.158973,31.7771337 C107.268352,31.7983336 107.345706,31.7222606 107.383644,31.6452016 L107.383644,31.6452016 Z" id="path22" fill="#E31449"></path>
                    <g id="Tickets" fill="#FFFFFF">
                        <polyline id="path24" fill-rule="nonzero" points="104.892477 8.08130072 104.892477 10.5050505 101.954818 10.5050505 101.954818 8.08130072 100.496732 8.08130072 100.496732 5.65656566 106.372549 5.65656566 106.372549 8.08130072 104.892477 8.08130072"></polyline>
                        <path d="M112.891343,17.1123369 L109.64022,17.1123369 L109.64022,19.5237528 L112.891343,19.5237528 L112.891343,17.1123369 Z M117.209823,13.7000308 L116.124807,13.8579372 C114.162754,14.1105482 113.499089,14.7124345 113.499089,15.657864 C113.499089,16.6989779 114.253008,17.4568599 115.763789,17.4568599 C117.390822,17.4568599 118.930544,16.8568353 120.378049,15.8473222 C120.528146,15.7516377 120.679715,15.7831896 120.800381,15.941096 L123.062629,19.3821123 C123.184276,19.5725505 123.153374,19.7313877 123.003277,19.8567623 C121.163361,21.3074138 118.507721,22.2222222 115.672554,22.2222222 C111.024939,22.2222222 108.038694,19.5400187 108.038694,15.5315585 C108.038694,15.4693366 108.04458,15.4119161 108.04507,15.3506741 L112.891343,15.3506741 L112.891343,12.9393072 L108.46544,12.9393072 C109.336592,10.5938857 111.532621,9.27718275 114.886751,8.77578227 L115.97422,8.61694502 C117.994644,8.33371303 118.567564,7.73466831 118.567564,6.81892897 C118.567564,5.6179979 117.572312,4.79794305 115.672554,4.79794305 C113.619265,4.79794305 111.689094,5.80843601 110.45251,6.94425459 C110.330863,7.07247084 110.149373,7.07247084 110.028707,6.9136336 L107.312734,3.5692816 C107.276926,3.53096861 107.252401,3.48888311 107.236214,3.44581773 L105.562092,3.44581773 L105.562092,1.03440183 L110.569252,1.03440183 C112.077091,0.414338858 113.846372,0 115.61173,0 C121.102047,0 124,2.90419351 124,6.88208172 C124,10.9536947 121.705869,13.0369025 117.209823,13.7000308 L117.209823,13.7000308 Z" id="path26" fill-rule="nonzero"></path>
                        <polyline id="path28" fill-rule="nonzero" points="94.4183007 8.08080808 90.3320408 8.08080808 90.3320408 5.6754779 88.1372549 5.6754779 88.1372549 3.23232323 92.0211409 3.23232323 92.0211409 5.63765341 94.4183007 5.63765341 94.4183007 8.08080808"></polyline>
                        <path d="M96.500016,12.1349249 L96.500016,14.5454545 L94.2156863,14.5454545 L94.2156863,8.07331003 L96.5642536,8.07331003 L96.5642536,5.65988738 L94.2156863,5.65988738 L94.2156863,0.62719582 C94.2156863,0.56300983 94.2453719,0.532363349 94.2745708,0.499804528 C94.3354019,0.435618538 94.3650875,0.404040404 94.4254319,0.404040404 L99.1848577,0.404040404 C99.2437422,0.404040404 99.3045734,0.404040404 99.3337723,0.435618538 C99.4238023,0.499804528 99.4549478,0.532363349 99.4836601,0.62719582 L99.4836601,12.1349249 L96.500016,12.1349249" id="path30" fill-rule="nonzero"></path>
                        <path d="M105.096804,21.6626214 C105.096804,21.6929759 105.067759,21.7243016 105.067759,21.7243016 C105.006224,21.7869046 104.945181,21.8181818 104.855585,21.8181818 L88.9567802,21.8181818 C88.8361706,21.7869046 88.745098,21.6626214 88.745098,21.5051669 L88.745098,17.2498643 C88.745098,17.1881841 88.745098,17.1246584 88.7766042,17.0639495 C88.8051567,17.0639495 88.8051567,17.0307296 88.8051567,17.0307296 L88.8361706,17.0003752 C88.8661999,16.9700208 88.8962292,16.9368494 88.9567802,16.9368494 L94.1346235,16.9368494 C94.1356081,16.9368494 94.1356081,16.9358781 94.1361004,16.9358781 L96.662502,16.9358781 L96.662502,14.5454545 L99.6157138,14.5454545 L99.6157138,16.8429207 C99.6467277,16.8741979 99.6467277,16.9055237 99.6762647,16.9055237 C99.7062941,16.9368494 99.7378002,16.9368494 99.7973666,16.9368494 L104.915151,16.9368494 C104.975702,16.9368494 105.035761,16.9700208 105.067759,17.0003752 C105.127326,17.0639495 105.156863,17.1578297 105.156863,17.2498643 L105.156863,21.5051669 C105.156863,21.5687413 105.127326,21.6313442 105.096804,21.6626214" id="path32" fill-rule="nonzero"></path>
                        <polygon id="path34" points="65.0392157 12.1212121 71.5228758 12.1212121 71.5228758 14.5454545 65.0392157 14.5454545"></polygon>
                        <polygon id="path36" fill-rule="nonzero" points="48.0196078 5.65656566 51.2614379 5.65656566 51.2614379 8.08080808 48.0196078 8.08080808 48.0196078 5.65656566"></polygon>
                        <path d="M54.3792214,7.28818818 L54.3792214,9.6969697 L51.7357911,9.6969697 L51.7357911,2.81184352 L48.8300654,2.81184352 L48.8300654,0.404969888 L52.0327016,0.404969888 C52.0336767,0.404969888 52.0346518,0.404040404 52.0356268,0.404040404 L56.7140402,0.404040404 C56.8929666,0.404040404 57.0143636,0.532064556 57.0143636,0.721238953 L57.0143636,5.69828182 L58.1503268,7.28818818 L54.3792214,7.28818818" id="path38" fill-rule="nonzero"></path>
                        <path d="M57.1372549,14.5188118 L57.1372549,21.5039783 C57.1372549,21.6925004 57.0161017,21.8181818 56.8375346,21.8181818 L52.1685148,21.8181818 C51.9889745,21.8181818 51.869281,21.6925004 51.869281,21.5039783 L51.869281,12.1212121 L54.5074037,12.1212121 L54.5074037,14.5188118 L57.1372549,14.5188118" id="path40" fill-rule="nonzero"></path>
                        <polygon id="path42" fill-rule="nonzero" points="44.5751634 9.6969697 51.869281 9.6969697 51.869281 12.1212121 44.5751634 12.1212121"></polygon>
                        <path d="M48.2237562,5.34491979 L44.1712865,7.18086614 C43.9578422,7.27388572 43.8360156,7.21154542 43.7448932,6.99006556 C43.1669594,5.72455749 42.4355042,4.96523301 41.0341015,4.96523301 C39.7232763,4.96523301 38.9012931,5.62869087 38.5364569,6.83190773 C38.3233097,7.4953165 38.231395,8.15970701 38.231395,11.1327502 C38.231395,11.4951584 38.2327321,11.8230095 38.2358521,12.1212121 L35.8581523,12.1212121 L35.8581523,9.70329208 L32.8235294,9.70329208 C32.8689916,7.54710313 33.0372708,6.52702931 33.4184001,5.31232613 C34.5142953,1.80242003 37.1954722,0 40.9425829,0 C44.5976798,0 47.216953,1.80242003 48.3762872,4.9029418 C48.4679048,5.12245819 48.4367053,5.24998583 48.2237562,5.34491979" id="path44" fill-rule="nonzero"></path>
                        <path d="M38.3482078,14.5261656 C38.3959739,14.9109171 38.4591835,15.1667664 38.5413511,15.4216869 C38.9060067,16.6170024 39.7275831,17.2805289 41.0377595,17.2805289 C42.4384686,17.2805289 43.1695618,16.5225132 43.7472095,15.2622333 C43.8382868,15.0426546 43.9600532,14.9796455 44.1733918,15.0732059 L48.2238558,16.9005678 C48.4366994,16.9960347 48.4678835,17.1211241 48.3763112,17.3426092 C47.2175508,20.4292245 44.599574,22.2222222 40.9462862,22.2222222 C38.1126939,22.2222222 35.8910518,21.1939859 34.5024202,19.1804808 L39.145233,19.1804808 L39.145233,21.5873407 L42.4275789,21.5873407 L42.4275789,19.1804808 L39.145233,19.1804808 L39.145233,16.7716656 L33.3768734,16.7716656 C33.0068224,15.5534243 32.853476,14.4755726 32.8235294,12.1212121 L35.8643721,12.1212121 L35.8643721,14.5261656 L38.3482078,14.5261656" id="path46" fill-rule="nonzero"></path>
                        <polygon id="path48" fill-rule="nonzero" points="33.6339869 21.8181818 36.875817 21.8181818 36.875817 24.2424242 33.6339869 24.2424242"></polygon>
                        <polygon id="path50" fill-rule="nonzero" points="30.3921569 19.3939394 33.6339869 19.3939394 33.6339869 21.8181818 30.3921569 21.8181818"></polygon>
                        <path d="M15.8978536,6.96678386 L12.6350043,6.96678386 L12.6350043,9.37327463 L15.8978536,9.37327463 L15.8978536,6.96678386 Z M21.8221486,21.6616363 C21.8221486,21.6921829 21.7906435,21.7237071 21.7906435,21.7237071 C21.7310298,21.7867065 21.6702348,21.8181818 21.5798544,21.8181818 L5.68270642,21.8181818 C5.5602302,21.7867065 5.47058824,21.6616363 5.47058824,21.5031846 L5.47058824,17.220933 C5.47058824,17.1588622 5.47058824,17.0949342 5.50061657,17.0338408 C5.53020186,17.0338408 5.53020186,17.0004105 5.53020186,17.0004105 L5.5602302,16.9698639 C5.59173534,16.9393172 5.62117295,16.9059358 5.68270642,16.9059358 L12.975752,16.9059358 L12.975752,14.6253951 L14.2666258,14.6253951 L14.2666258,12.093834 L11.0120958,12.093834 L11.0120958,0.626469006 C11.0120958,0.562492069 11.041878,0.531945403 11.0717095,0.499492626 C11.1316677,0.435515689 11.1630251,0.404040404 11.2232295,0.404040404 L16.0385929,0.404040404 C16.0987973,0.404040404 16.15974,0.404040404 16.1895222,0.435515689 C16.2802964,0.499492626 16.3106693,0.531945403 16.3405007,0.626469006 L16.3405007,16.8114122 C16.3702829,16.8428875 16.3702829,16.8744117 16.4014435,16.8744117 C16.4314718,16.9059358 16.4616478,16.9059358 16.5227875,16.9059358 L21.6400587,16.9059358 C21.6996724,16.9059358 21.7612058,16.9393172 21.7906435,16.9698639 C21.8521769,17.0338408 21.8823529,17.1283155 21.8823529,17.220933 L21.8823529,21.5031846 C21.8823529,21.5671615 21.8521769,21.630161 21.8221486,21.6616363 L21.8221486,21.6616363 Z" id="path52" fill-rule="nonzero"></path>
                        <polygon id="path54" fill-rule="nonzero" points="3.24183007 12.1212121 6.48366013 12.1212121 6.48366013 14.5454545 3.24183007 14.5454545"></polygon>
                        <polygon id="path56" fill-rule="nonzero" points="6.48366013 9.6969697 9.7254902 9.6969697 9.7254902 12.1212121 6.48366013 12.1212121 6.48366013 9.6969697"></polygon>
                        <polygon id="path58" points="0 7.07070707 3.24183007 7.07070707 3.24183007 9.49494949 0 9.49494949"></polygon>
                        <path d="M29.5816993,12.1212121 L29.5816993,21.5039783 C29.5816993,21.6925004 29.462289,21.8181818 29.2822975,21.8181818 L24.6136626,21.8181818 C24.434401,21.8181818 24.3137255,21.6925004 24.3137255,21.5039783 L24.3137255,12.1212121 L29.5816993,12.1212121" id="path60" fill-rule="nonzero"></path>
                        <polyline id="path62" fill-rule="nonzero" points="24.3137255 9.6969697 24.3137255 7.01609 26.4102683 7.01609 26.4102683 4.64646465 29.5816993 4.64646465 29.5816993 9.6969697 24.3137255 9.6969697"></polyline>
                        <path d="M26.468873,4.64646465 L19.6535948,4.64646465 L19.6535948,2.192574 L24.4379885,2.192574 L24.4379885,0.727441834 C24.4379885,0.534568094 24.5604588,0.404040404 24.7423866,0.404040404 L29.4804588,0.404040404 C29.6631273,0.404040404 29.7843137,0.534568094 29.7843137,0.727441834 L29.7843137,2.192574 L26.468873,2.192574 L26.468873,4.64646465" id="path64" fill-rule="nonzero"></path>
                        <polyline id="path66" fill-rule="nonzero" points="22.6928105 14.3434343 19.3707158 14.3434343 19.3707158 12.0964052 17.4248366 12.0964052 17.4248366 9.6969697 20.7465804 9.6969697 20.7465804 11.9430235 22.6928105 11.9430235 22.6928105 14.3434343"></polyline>
                        <polyline id="path68" fill-rule="nonzero" points="89.7459944 14.5454545 89.7459944 12.1221976 86.9215686 12.1221976 86.9215686 9.6969697 89.8765867 9.6969697 89.8765867 12.1221976 93 12.1221976 93 14.5454545 89.7459944 14.5454545"></polyline>
                        <path d="M78.3386151,17.1283155 L86.617852,17.1283155 C86.8007722,17.1283155 86.9215686,17.2543144 86.9215686,17.4414555 L86.9215686,21.5031846 C86.9215686,21.6921829 86.8007722,21.8181818 86.617852,21.8181818 L73.12169,21.8181818 C72.941235,21.8181818 72.8184664,21.6921829 72.8184664,21.5031846 L72.8184664,9.68641461 L66.7801259,9.68641461 L66.7801259,5.87858943 L62.9604946,13.1276798 L69.1176594,21.408661 C69.2374697,21.5977082 69.1778111,21.8181818 68.9352322,21.8181818 L63.5975107,21.8181818 C63.3554249,21.8181818 63.2341355,21.7237071 63.081291,21.5347088 L57.7706872,13.9848926 L57.7706872,12.0967176 L54.503268,12.0967176 L54.503268,9.68832073 L60.4809638,9.68832073 L60.4809638,7.28178107 L60.1106859,7.28178107 L63.3850077,0.687562338 C63.4762213,0.499492626 63.5975107,0.404040404 63.8711515,0.404040404 L69.2986075,0.404040404 C69.5111105,0.404040404 69.5722483,0.594016229 69.4815277,0.752467894 L67.3081787,4.87626779 L70.0480381,4.87626779 L70.0480381,7.28178107 L72.8184664,7.28178107 L72.8184664,4.87626779 L75.4306268,4.87626779 L75.4306268,2.47070563 L72.8184664,2.47070563 L72.8184664,0.720943735 C72.8184664,0.531945403 72.941235,0.404040404 73.12169,0.404040404 L86.617852,0.404040404 C86.8007722,0.404040404 86.9215686,0.531945403 86.9215686,0.720943735 L86.9215686,4.78174419 C86.9215686,4.97074252 86.8007722,5.09581279 86.617852,5.09581279 L78.3386151,5.09581279 C78.2173257,5.09581279 78.1561879,5.15881223 78.1561879,5.28578861 L78.1561879,8.71845186 C78.1561879,8.84542825 78.2173257,8.9074502 78.3386151,8.9074502 L85.133289,8.9074502 C85.314237,8.9074502 85.4350334,9.0353552 85.4350334,9.22342491 L85.4350334,13.1897018 C85.4350334,13.378749 85.314237,13.5047479 85.133289,13.5047479 L78.3386151,13.5047479 C78.2173257,13.5047479 78.1561879,13.5677473 78.1561879,13.6937462 L78.1561879,16.9393172 C78.1561879,17.0643875 78.2173257,17.1283155 78.3386151,17.1283155" id="path70" fill-rule="nonzero"></path>
                    </g>
                </g>
            </g>
        </g>
    </g>
</svg>