<?xml version="1.0" encoding="UTF-8" standalone="no"?>
<svg width="75px" height="30px" viewBox="0 0 75 30" version="1.1" xmlns="http://www.w3.org/2000/svg" xmlns:xlink="http://www.w3.org/1999/xlink">
    <!-- Generator: Sketch 46.2 (44496) - http://www.bohemiancoding.com/sketch -->
    <title>f-rbcom-rbtickets-icon-sofort-75x30</title>
    <desc>Created with Sketch.</desc>
    <defs></defs>
    <g id="Symbols" stroke="none" stroke-width="1" fill="none" fill-rule="evenodd">
        <g id="f-rbcom-rbtickets-icon-sofort-75x30" fill="#10151E">
            <g transform="translate(0.000000, 3.000000)" id="path-1">
                <path d="M73.8611156,3.3515625 C73.8611156,3.3515625 69.1653005,3.3515625 69.1653005,3.3515625 C69.1653005,3.3515625 65.5055926,13.4848346 65.5055926,13.4848346 C65.5055926,13.4848346 61.8514402,13.4848346 61.8514402,13.4848346 C61.8514402,13.4848346 65.5097592,3.3515625 65.5097592,3.3515625 C65.5097592,3.3515625 63.0819909,3.3515625 63.0819909,3.3515625 C63.1903238,2.41268382 63.009769,1.59512868 62.5347708,0.905790441 C62.3500493,0.636948529 62.127828,0.402573529 61.8694956,0.197150735 C61.8694956,0.197150735 75,0.197150735 75,0.197150735 C75,0.197150735 73.8611156,3.3515625 73.8611156,3.3515625 Z M61.7625516,4.41038603 C61.0361656,6.38327206 59.2820057,7.35661765 58.0722882,7.81020221 C58.277843,8.13005515 58.4320091,8.51332721 58.5792307,8.85661765 C59.1514507,10.1870404 59.9306143,13.4806985 59.9306143,13.4806985 C59.9306143,13.4806985 55.6459088,13.4806985 55.6459088,13.4806985 C55.6459088,13.4806985 54.618135,8.99724265 54.5320243,8.80560662 C54.5320243,8.80560662 52.7875866,13.4806985 52.7875866,13.4806985 C52.7875866,13.4806985 48.7126025,13.4806985 48.7126025,13.4806985 C48.7126025,13.4806985 53.5111949,0.197150735 53.5111949,0.197150735 C53.5111949,0.197150735 57.9472887,0.197150735 57.9472887,0.197150735 C59.862559,0.198529412 61.0861654,0.627297794 61.6875519,1.5 C62.1833833,2.21829044 62.2083832,3.19852941 61.7625516,4.41038603 Z M56.8695151,2.93933824 C56.8695151,2.93933824 56.1959067,2.93933824 56.1959067,2.93933824 C56.1959067,2.93933824 56.1959067,2.93933824 56.1959067,2.93933824 C56.1959067,2.93933824 55.0139668,6.15303309 55.0139668,6.15303309 C55.0139668,6.15303309 55.7056308,6.15303309 55.7056308,6.15303309 C55.7056308,6.15303309 55.7111863,6.15303309 55.7111863,6.15303309 C57.0472922,6.15303309 57.7500673,5.49678309 58.1403435,4.43520221 C58.5570086,3.30330882 58.098677,2.94071691 56.8695151,2.93933824 Z M42.0098509,13.6943934 C42.0098509,13.6943934 42.0029064,13.6943934 42.0029064,13.6943934 C40.0140253,13.691636 39.0376402,12.8823529 38.5681976,12.2068015 C37.7376453,11.0087316 37.7279231,9.19301471 38.5404199,6.95266544 C38.9695849,5.76700368 39.5195828,4.70542279 40.161247,3.78998162 C41.150132,2.38097426 42.3598495,1.31801471 43.6945665,0.681066176 C44.6278962,0.237132353 45.6237257,0 46.6487217,0 C48.2167711,0.00137867647 49.3431556,0.483915441 50.0028753,1.43382353 C51.0917599,3.00551471 50.4973178,5.33547794 50.0431529,6.58318015 C48.3334373,11.3023897 45.6306701,13.6943934 42.0098509,13.6943934 Z M45.6890032,3.00551471 C45.6890032,3.00551471 45.6862254,3.00551471 45.6862254,3.00551471 C44.3709528,3.00551471 43.283457,4.48621324 42.4431825,6.80101103 C41.3195758,9.90303309 41.7390186,10.6695772 42.9417917,10.6695772 C42.9417917,10.6695772 42.9445694,10.6695772 42.9445694,10.6695772 C44.177898,10.6695772 44.9987281,9.88648897 46.1265015,6.76930147 C47.2264972,3.73897059 46.9389983,3.00689338 45.6890032,3.00551471 Z M39.2181951,3.34329044 C37.8737559,3.34329044 35.273766,3.34191176 35.0432114,3.34191176 C34.6293241,3.34191176 34.344603,3.57215074 34.2279368,3.86167279 C34.2279368,3.86167279 33.6584945,5.47610294 33.6584945,5.47610294 C33.6584945,5.47610294 37.1876474,5.47886029 37.1876474,5.47886029 C37.1876474,5.47886029 36.1807069,8.26792279 36.1807069,8.26792279 C36.1807069,8.26792279 32.640443,8.26516544 32.640443,8.26516544 C32.640443,8.26516544 30.7598947,13.4724265 30.7598947,13.4724265 C30.7598947,13.4724265 26.7543548,13.4724265 26.7543548,13.4724265 C26.7543548,13.4724265 30.411285,3.34329044 30.411285,3.34329044 C31.1682265,1.28768382 32.770998,0.188878676 34.9237674,0.188878676 C34.9237674,0.188878676 42.6237374,0.188878676 42.6237374,0.188878676 C41.4529086,0.909926471 40.2015246,1.92876838 39.3181947,3.19025735 C39.2834726,3.23988971 39.2529172,3.29365809 39.2181951,3.34329044 Z M20.1654916,13.6943934 C20.1654916,13.6943934 20.1571583,13.6943934 20.1571583,13.6943934 C18.1696661,13.691636 17.193281,12.8823529 16.7224495,12.2068015 C15.893286,11.0087316 15.8835639,9.19301471 16.6946718,6.95266544 C17.1252257,5.76700368 17.6752235,4.70542279 18.3168877,3.78998162 C19.3043838,2.38097426 20.5154902,1.31801471 21.8488184,0.681066176 C22.7835369,0.237132353 23.7779775,0 24.8043624,0 C26.3724118,0.00137867647 27.4987963,0.483915441 28.1571271,1.43382353 C29.2474006,3.00551471 28.6515696,5.33547794 28.1987936,6.58318015 C26.4876892,11.3023897 23.7849219,13.6943934 20.1654916,13.6943934 Z M23.843255,3.00551471 C23.843255,3.00551471 23.843255,3.00551471 23.843255,3.00551471 C22.5265935,3.00551471 21.4390977,4.48621324 20.5988232,6.80101103 C19.4738276,9.90303309 19.8960482,10.6695772 21.0974324,10.6695772 C21.0974324,10.6695772 21.1002102,10.6695772 21.1002102,10.6695772 C22.3335387,10.6695772 23.15298,9.88648897 24.2821422,6.76930147 C24.2821422,6.76930147 24.2835311,6.76930147 24.2835311,6.76930147 C25.3821379,3.73897059 25.0960279,3.00689338 23.843255,3.00551471 Z M17.5099464,3.34329044 C17.5099464,3.34329044 12.6710764,3.34329044 12.6710764,3.34329044 C12.3363555,3.34329044 12.0488566,3.40946691 11.829413,3.53216912 C11.6113583,3.65487132 11.45997,3.83272059 11.3974702,4.0546875 C11.3377482,4.26838235 11.3696926,4.47794118 11.4752477,4.65027574 C11.5808029,4.82398897 11.7599688,4.95909926 11.9933012,5.02665441 C12.1335785,5.06801471 12.4085774,5.14659926 12.6474654,5.21553309 C12.8863533,5.28584559 13.0905192,5.34512868 13.0905192,5.34512868 C14.0002379,5.60707721 14.6238465,6.01930147 14.9696785,6.5859375 C15.3141216,7.15257353 15.3780103,7.87362132 15.1682889,8.76011029 C14.6099577,11.1162684 13.2891295,12.2936581 11.9141349,12.8823529 C10.5377514,13.4724265 9.10581251,13.4724265 8.32248223,13.4724265 C8.32248223,13.4724265 0.000292457686,13.4724265 0.000292457686,13.4724265 C0.000292457686,13.4724265 1.22945433,10.0684743 1.22945433,10.0684743 C1.22945433,10.0684743 9.00442401,10.0684743 9.00442401,10.0684743 C9.62803269,10.0643382 10.0377533,10.027114 10.3169189,9.9140625 C10.5960845,9.80101103 10.7433061,9.61488971 10.8391391,9.32674632 C10.8780278,9.21369485 10.8946944,9.10753676 10.8919167,9.00827206 C10.8891389,8.90900735 10.8669168,8.81663603 10.8252502,8.73391544 C10.7599727,8.60707721 10.6585842,8.51608456 10.5446958,8.44715074 C10.4308073,8.37821691 10.3058078,8.33272059 10.1905305,8.29825368 C9.99608681,8.23759191 9.68914357,8.14659926 9.42525571,8.07077206 C9.16136785,7.99494485 8.94331314,7.93152574 8.92664654,7.92738971 C8.51275926,7.80055147 8.12803854,7.60064338 7.80581758,7.35523897 C7.48359661,7.11121324 7.22665317,6.8203125 7.06832045,6.51286765 C6.94054317,6.25919118 6.88082118,5.96829044 6.89193225,5.62637868 C6.90165444,5.28446691 6.98220968,4.89154412 7.13498686,4.43520221 C7.84053966,2.31204044 8.75581387,1.25045956 9.79192094,0.719669118 C10.8294169,0.188878676 11.9863568,0.188878676 13.1780188,0.188878676 C13.1780188,0.188878676 20.7335449,0.188878676 20.7335449,0.188878676 C19.5613273,0.909926471 18.491887,1.92876838 17.6085571,3.19025735 C17.5752239,3.23988971 17.5432796,3.29365809 17.5099464,3.34329044 Z M3.50166769,16.1443015 C3.2405576,16.1443015 3.08361377,16.0988051 3.02528066,16.0064338 C2.96694755,15.9154412 2.97944751,15.754136 3.0641694,15.5225184 C3.15028017,15.28125 3.25861308,15.1144301 3.38500148,15.0193015 C3.51416764,14.9269301 3.70583356,14.8800551 3.96277701,14.8800551 C4.22527598,14.8800551 4.38638646,14.9255515 4.4419418,15.0151654 C4.49888603,15.1061581 4.48499719,15.2674632 4.4002753,15.5018382 C4.31416452,15.7403493 4.20860938,15.9057904 4.0808321,16.0009191 C3.9544437,16.0974265 3.76000002,16.1443015 3.50166769,16.1443015 Z M5.70582576,16.1443015 C5.44610455,16.1443015 5.28777184,16.0988051 5.2322165,16.0064338 C5.17527228,15.9154412 5.18916111,15.754136 5.27249412,15.5225184 C5.35999378,15.28125 5.46554892,15.1144301 5.5933262,15.0193015 C5.7197146,14.9269301 5.91138052,14.8800551 6.17249061,14.8800551 C6.43082294,14.8800551 6.59054454,14.9255515 6.64887764,15.0151654 C6.70721075,15.1061581 6.6947108,15.2674632 6.6099889,15.5018382 C6.52387813,15.7403493 6.4169341,15.9057904 6.28776794,16.0009191 C6.15860178,16.0974265 5.96554697,16.1443015 5.70582576,16.1443015 Z M1.66695262,16.9094669 C1.68084146,16.875 1.70167471,16.8446691 1.73223015,16.8170956 C1.7613967,16.7895221 1.80584097,16.7674632 1.86417408,16.7509191 C1.92250718,16.734375 1.99611801,16.7205882 2.08361767,16.7095588 C2.17111732,16.6999081 2.28083912,16.6943934 2.41278305,16.6943934 C2.54056033,16.6943934 2.64472659,16.6999081 2.72528183,16.7095588 C2.80583707,16.7205882 2.86833683,16.734375 2.9127811,16.7509191 C2.95722537,16.7674632 2.98639192,16.7895221 2.99750299,16.8170956 C3.01000294,16.8446691 3.01000294,16.875 2.99750299,16.9094669 C2.99750299,16.9094669 1.59195292,20.8028493 1.59195292,20.8028493 C1.49750884,21.0647978 1.44750904,21.2909007 1.4419535,21.4825368 C1.43639797,21.6755515 1.47112005,21.8340993 1.54611976,21.9595588 C1.61973059,22.0850184 1.72945238,22.1787684 1.87250738,22.2421875 C2.01695126,22.3056066 2.19195058,22.3373162 2.39889421,22.3373162 C2.60722674,22.3373162 2.80583707,22.3042279 2.99333634,22.2408088 C3.18222449,22.1746324 3.35583493,22.0808824 3.51555653,21.9568015 C3.67527813,21.8327206 3.81833312,21.6810662 3.94749929,21.4990809 C4.07388768,21.3170956 4.18083171,21.1102941 4.26416472,20.8786765 C4.26416472,20.8786765 5.69749246,16.9094669 5.69749246,16.9094669 C5.70999241,16.875 5.73082567,16.8446691 5.7613811,16.8170956 C5.79054766,16.7895221 5.83360304,16.7674632 5.89054727,16.7509191 C5.94888037,16.734375 6.02110231,16.7205882 6.10999085,16.7095588 C6.20026828,16.6999081 6.30860119,16.6943934 6.43637847,16.6943934 C6.56554463,16.6943934 6.66832201,16.6999081 6.74748837,16.7095588 C6.82665473,16.7205882 6.8877656,16.734375 6.93220987,16.7509191 C6.97665414,16.7674632 7.00443181,16.7895221 7.014154,16.8170956 C7.02526506,16.8446691 7.02526506,16.875 7.01137623,16.9094669 C7.01137623,16.9094669 5.58360402,20.863511 5.58360402,20.863511 C5.43777125,21.2688419 5.2488831,21.6300551 5.01416179,21.9485294 C4.78221825,22.269761 4.50999709,22.5399816 4.20166496,22.7605699 C3.89333283,22.9811581 3.54888973,23.1479779 3.16972454,23.2637868 C2.79194824,23.3795956 2.3836165,23.4375 1.94472932,23.4375 C1.53361981,23.4375 1.18223229,23.3851103 0.89334453,23.2817096 C0.604456767,23.1783088 0.385013179,23.0211397 0.235013763,22.8102022 C0.0836254649,22.5992647 0.00723687391,22.3373162 0.000292456546,22.0229779 C-0.00526307735,21.7086397 0.0683477467,21.3419118 0.219736045,20.9200368 C0.219736045,20.9200368 1.66695262,16.9094669 1.66695262,16.9094669 Z M8.80720256,17.1479779 C8.86136901,16.9990809 8.93775761,16.8915441 9.03775722,16.8253676 C9.13775683,16.7578125 9.24331197,16.7261029 9.35442265,16.7261029 C9.35442265,16.7261029 10.9974718,16.7261029 10.9974718,16.7261029 C11.3988591,16.7261029 11.7266356,16.7591912 11.9794124,16.8267463 C12.2335781,16.8943015 12.4307995,16.9977022 12.5710768,17.1355699 C12.711354,17.2720588 12.794687,17.4471507 12.8196869,17.6580882 C12.8446868,17.8690257 12.8057981,18.1171875 12.7030207,18.4025735 C12.6446876,18.5625 12.5696879,18.7127757 12.4794105,18.8534007 C12.3877442,18.9940257 12.282189,19.1222426 12.1641339,19.2380515 C12.0446899,19.3538603 11.912746,19.4558824 11.7683021,19.5441176 C11.6224694,19.6323529 11.4669144,19.7040441 11.3030262,19.7578125 C11.4766366,19.7909007 11.6252471,19.8515625 11.7516355,19.9356618 C11.8780239,20.0211397 11.9752458,20.1314338 12.0433011,20.2651654 C12.1113563,20.4002757 12.1460784,20.5560662 12.1488562,20.7366728 C12.1502451,20.9159007 12.1113563,21.1185662 12.0308011,21.3432904 C11.9460792,21.5776654 11.8377463,21.7899816 11.7044135,21.980239 C11.5710807,22.1691176 11.4224701,22.3386949 11.257193,22.4848346 C11.090527,22.6309743 10.911361,22.7564338 10.7155285,22.8612132 C10.5210848,22.9673713 10.3169189,23.0542279 10.1030308,23.1217831 C9.89053167,23.1893382 9.67108808,23.2389706 9.44470007,23.2720588 C9.21970095,23.3037684 8.97525746,23.3203125 8.71275848,23.3203125 C8.71275848,23.3203125 6.97387637,23.3203125 6.97387637,23.3203125 C6.8627657,23.3203125 6.78082157,23.2872243 6.728044,23.2210478 C6.67665531,23.1548713 6.67804419,23.0473346 6.73082177,22.8970588 C6.73082177,22.8970588 8.80720256,17.1479779 8.80720256,17.1479779 Z M10.8655279,19.1842831 C10.9696941,19.1043199 11.0599716,19.0105699 11.1363601,18.9044118 C11.2113599,18.796875 11.2710818,18.6852022 11.3141372,18.5652574 C11.3627481,18.4329044 11.3849703,18.3143382 11.3821925,18.2081801 C11.3794148,18.1034007 11.3516371,18.0151654 11.2946929,17.9462316 C11.2391375,17.8759191 11.1571934,17.8235294 11.0474716,17.7863051 C10.9377498,17.7477022 10.780806,17.7297794 10.5752512,17.7297794 C10.5752512,17.7297794 9.90303162,17.7297794 9.90303162,17.7297794 C9.90303162,17.7297794 9.28497847,19.4420956 9.28497847,19.4420956 C9.28497847,19.4420956 10.0266422,19.4420956 10.0266422,19.4420956 C10.2196971,19.4420956 10.3808075,19.4186581 10.5113626,19.3731618 C10.6433065,19.3276654 10.7613616,19.2642463 10.8655279,19.1842831 Z M9.21414542,22.2959559 C9.39886692,22.2959559 9.56136628,22.2766544 9.7030324,22.2380515 C9.84330963,22.1980699 9.97386468,22.1401654 10.0933087,22.0643382 C10.2141415,21.9871324 10.3210855,21.8920037 10.4155296,21.7789522 C10.5085848,21.6659007 10.5808068,21.5363051 10.6335843,21.3887868 C10.6891397,21.2357537 10.7127507,21.0992647 10.7058063,20.9779412 C10.6988618,20.8579963 10.661362,20.7573529 10.5933067,20.676011 C10.5252514,20.5932904 10.422474,20.53125 10.2863635,20.4871324 C10.1502529,20.4430147 9.96136473,20.4209559 9.719699,20.4209559 C9.719699,20.4209559 8.93081319,20.4209559 8.93081319,20.4209559 C8.93081319,20.4209559 8.25442694,22.2959559 8.25442694,22.2959559 C8.25442694,22.2959559 9.21414542,22.2959559 9.21414542,22.2959559 Z M15.0807892,17.1479779 C15.1349557,16.9990809 15.2113443,16.8915441 15.3113439,16.823989 C15.4127324,16.7578125 15.5168986,16.7247243 15.6293982,16.7247243 C15.6293982,16.7247243 18.8946632,16.7247243 18.8946632,16.7247243 C18.9252187,16.7247243 18.9488297,16.734375 18.9654963,16.7509191 C18.9835518,16.7674632 18.993274,16.7977941 18.9960517,16.8391544 C18.9974406,16.8818934 18.9891073,16.9370404 18.9738296,17.0032169 C18.9585519,17.0693934 18.9321631,17.1534926 18.8960521,17.254136 C18.86133,17.3506434 18.8279968,17.4319853 18.7946636,17.4967831 C18.7627193,17.5629596 18.7321639,17.6181066 18.7002195,17.6580882 C18.6682752,17.6994485 18.6377198,17.7284007 18.6071643,17.7477022 C18.5766089,17.765625 18.5460535,17.7752757 18.515498,17.7752757 C18.515498,17.7752757 16.179396,17.7752757 16.179396,17.7752757 C16.179396,17.7752757 15.5988427,19.3855699 15.5988427,19.3855699 C15.5988427,19.3855699 17.5752239,19.3855699 17.5752239,19.3855699 C17.6057794,19.3855699 17.6293904,19.3952206 17.6488347,19.4131434 C17.6668902,19.4324449 17.6780013,19.4613971 17.6793902,19.5013787 C17.6835568,19.5399816 17.6766124,19.5923713 17.6613347,19.6585478 C17.646057,19.7247243 17.6210571,19.8060662 17.586335,19.9011949 C17.550224,19.9990809 17.5168908,20.0804228 17.4849465,20.1452206 C17.4543911,20.2100184 17.4224467,20.2624081 17.3918913,20.301011 C17.359947,20.339614 17.3293915,20.3685662 17.2988361,20.3851103 C17.2668918,20.4016544 17.2349475,20.4099265 17.2057809,20.4099265 C17.2057809,20.4099265 15.2280109,20.4099265 15.2280109,20.4099265 C15.2280109,20.4099265 14.5571801,22.2711397 14.5571801,22.2711397 C14.5571801,22.2711397 16.9127265,22.2711397 16.9127265,22.2711397 C16.9432819,22.2711397 16.9682818,22.2807904 16.9863373,22.2987132 C17.0043928,22.316636 17.0155039,22.3469669 17.0168928,22.3869485 C17.0196705,22.4283088 17.0127261,22.4820772 16.9974484,22.5482537 C16.9807818,22.6144301 16.9557819,22.6971507 16.9196709,22.7950368 C16.8849488,22.8943015 16.8502268,22.9770221 16.8196713,23.0431985 C16.7863381,23.109375 16.7543938,23.1617647 16.7224495,23.203125 C16.691894,23.2444853 16.6585608,23.2734375 16.6280054,23.2913603 C16.5946722,23.3106618 16.5641168,23.3203125 16.5335613,23.3203125 C16.5335613,23.3203125 13.247463,23.3203125 13.247463,23.3203125 C13.1363523,23.3203125 13.0557971,23.2872243 13.0030195,23.2210478 C12.950242,23.1548713 12.9516308,23.0473346 13.0057973,22.8970588 C13.0057973,22.8970588 15.0807892,17.1479779 15.0807892,17.1479779 Z M20.5682678,17.1479779 C20.6224343,16.9990809 20.6988229,16.8915441 20.7988225,16.823989 C20.8988221,16.7578125 21.0043772,16.7247243 21.1154879,16.7247243 C21.1154879,16.7247243 22.8099257,16.7247243 22.8099257,16.7247243 C22.9807584,16.7247243 23.1210356,16.7288603 23.2293685,16.7357537 C23.3390903,16.7426471 23.4363122,16.7509191 23.5238118,16.7605699 C23.7738109,16.7991728 23.9876989,16.8625919 24.1640871,16.9549632 C24.3418642,17.0473346 24.4779748,17.1659007 24.57103,17.3147978 C24.6640852,17.4623162 24.7126961,17.6374081 24.7182516,17.8386949 C24.7224183,18.0413603 24.677974,18.2729779 24.582141,18.5349265 C24.5029747,18.7555147 24.4015862,18.9568015 24.2807533,19.1387868 C24.1599205,19.3207721 24.0196432,19.4820772 23.8599216,19.6254596 C23.7002,19.7674632 23.522423,19.8929228 23.3265904,19.9977022 C23.1293689,20.1024816 22.9196475,20.1879596 22.6932595,20.2527574 C22.7752036,20.2996324 22.8446478,20.3575368 22.9057587,20.4264706 C22.9682584,20.4940257 23.0182583,20.5753676 23.0599248,20.6732537 C23.1002024,20.769761 23.1335356,20.8814338 23.1543688,21.004136 C23.1779799,21.1282169 23.1932576,21.2688419 23.200202,21.4246324 C23.200202,21.4246324 23.2821461,22.7247243 23.2821461,22.7247243 C23.2863128,22.8529412 23.2849239,22.9466912 23.2807572,23.0073529 C23.2765906,23.066636 23.2682573,23.113511 23.2557573,23.1465993 C23.2432574,23.1838235 23.2252019,23.2169118 23.2015909,23.2417279 C23.1793687,23.2665441 23.1390911,23.2886029 23.0821469,23.3051471 C23.0252027,23.3216912 22.9474252,23.3340993 22.8474256,23.3409926 C22.747426,23.347886 22.6127043,23.3506434 22.4446494,23.3506434 C22.3015944,23.3506434 22.1904837,23.347886 22.1085396,23.3409926 C22.0265955,23.3340993 21.9654846,23.3216912 21.9238181,23.3023897 C21.8807627,23.2844669 21.8557628,23.2596507 21.8446517,23.2306985 C21.8363184,23.203125 21.8307629,23.1672794 21.8321518,23.1259191 C21.8321518,23.1259191 21.7779853,21.6534926 21.7779853,21.6534926 C21.7668742,21.4866728 21.7515965,21.3391544 21.7307633,21.2109375 C21.70993,21.0813419 21.6738191,20.9738051 21.6224304,20.8869485 C21.5710417,20.8000919 21.4988197,20.7352941 21.4071534,20.6911765 C21.3154871,20.6456801 21.1988209,20.6236213 21.0585437,20.6236213 C21.0585437,20.6236213 20.6432675,20.6236213 20.6432675,20.6236213 C20.6432675,20.6236213 19.7363266,23.1369485 19.7363266,23.1369485 C19.7238267,23.1714154 19.7002156,23.2017463 19.6696602,23.2279412 C19.6377159,23.2555147 19.5932716,23.2775735 19.5363274,23.2954963 C19.480772,23.3120404 19.4085501,23.3258272 19.3196616,23.3354779 C19.2321619,23.3465074 19.1224401,23.3506434 18.9904962,23.3506434 C18.8627189,23.3506434 18.7571638,23.3465074 18.6752196,23.3354779 C18.5932755,23.3258272 18.5293869,23.3120404 18.4863315,23.2954963 C18.4404983,23.2775735 18.4141095,23.2555147 18.4029985,23.2279412 C18.3918874,23.2017463 18.3932763,23.1714154 18.4057762,23.1369485 C18.4057762,23.1369485 20.5682678,17.1479779 20.5682678,17.1479779 Z M21.6835412,19.6199449 C21.8724294,19.6199449 22.0446509,19.597886 22.2029837,19.5523897 C22.3613164,19.5055147 22.5029825,19.4407169 22.6265931,19.3579963 C22.7515926,19.2752757 22.8585367,19.1746324 22.9474252,19.0588235 C23.0363137,18.9443934 23.1057579,18.8147978 23.1585355,18.6727941 C23.236313,18.4549632 23.2543684,18.2715993 23.2099242,18.1227022 C23.1654799,17.9724265 23.0432582,17.8676471 22.8432589,17.8056066 C22.7821481,17.7890625 22.711315,17.7752757 22.6293709,17.765625 C22.5460379,17.7559743 22.4293717,17.7490809 22.2765945,17.7490809 C22.2765945,17.7490809 21.6807635,17.7490809 21.6807635,17.7490809 C21.6807635,17.7490809 21.0057661,19.6199449 21.0057661,19.6199449 C21.0057661,19.6199449 21.6835412,19.6199449 21.6835412,19.6199449 Z M26.3293565,16.9370404 C26.3501897,16.8667279 26.3890784,16.8143382 26.4446338,16.777114 C26.5001891,16.738511 26.5779666,16.7164522 26.6765773,16.7081801 C26.775188,16.6985294 26.9112986,16.6943934 27.0835202,16.6943934 C27.2418529,16.6943934 27.3654635,16.6971507 27.4571298,16.7026654 C27.5487961,16.7081801 27.6126848,16.7192096 27.6543513,16.738511 C27.6946289,16.7564338 27.716851,16.7840074 27.7210177,16.8198529 C27.7251843,16.8556985 27.7210177,16.9053309 27.7071289,16.9701287 C27.7071289,16.9701287 27.0307426,22.0202206 27.0307426,22.0202206 C27.0307426,22.0202206 27.0362981,22.0202206 27.0362981,22.0202206 C27.0362981,22.0202206 30.0404531,17.0045956 30.0404531,17.0045956 C30.0765641,16.9425551 30.112675,16.8887868 30.1501749,16.8474265 C30.1862859,16.8074449 30.2348968,16.7757353 30.2946188,16.7536765 C30.3543408,16.7316176 30.4321182,16.7164522 30.5265623,16.7081801 C30.6210064,16.6985294 30.7432281,16.6943934 30.8960053,16.6943934 C31.0571158,16.6943934 31.1848931,16.6985294 31.2793372,16.7054228 C31.3723923,16.7123162 31.4404476,16.7261029 31.4848919,16.7481618 C31.5293362,16.7702206 31.555725,16.8019301 31.5654471,16.8419118 C31.5737804,16.8832721 31.5723916,16.9384191 31.5612805,17.0045956 C31.5612805,17.0045956 30.9848939,22.0202206 30.9848939,22.0202206 C30.9848939,22.0202206 30.994616,22.0202206 30.994616,22.0202206 C30.994616,22.0202206 33.9598823,16.9852941 33.9598823,16.9852941 C33.9890488,16.9315257 34.0209931,16.8846507 34.0515486,16.8446691 C34.082104,16.8060662 34.1251594,16.7757353 34.1807147,16.7536765 C34.2348812,16.7316176 34.308492,16.7164522 34.3987694,16.7081801 C34.4904357,16.6985294 34.6154353,16.6943934 34.773768,16.6943934 C34.9209896,16.6943934 35.0348781,16.6985294 35.1154333,16.7081801 C35.1945997,16.7164522 35.2445995,16.738511 35.2695994,16.777114 C35.2932104,16.8143382 35.2890437,16.8681066 35.2584883,16.9425551 C35.226544,17.015625 35.1723775,17.1148897 35.0973778,17.2403493 C35.0973778,17.2403493 31.5237806,22.9784007 31.5237806,22.9784007 C31.4751697,23.0611213 31.4223922,23.1259191 31.3682257,23.1755515 C31.316837,23.2238051 31.2487817,23.2610294 31.1696154,23.2872243 C31.090449,23.3120404 30.9918383,23.3299632 30.8779498,23.3382353 C30.7640614,23.3465074 30.6210064,23.3506434 30.4487848,23.3506434 C30.2571189,23.3506434 30.1043417,23.3465074 29.9904533,23.3382353 C29.8779537,23.3299632 29.791843,23.3120404 29.7335098,23.2872243 C29.6751767,23.2610294 29.6404547,23.2238051 29.6279547,23.1755515 C29.6154548,23.1259191 29.6154548,23.0611213 29.6279547,22.9784007 C29.6279547,22.9784007 30.089064,18.7996324 30.089064,18.7996324 C30.089064,18.7996324 30.0793418,18.7996324 30.0793418,18.7996324 C30.0793418,18.7996324 27.5793516,22.9784007 27.5793516,22.9784007 C27.5349073,23.0569853 27.4876853,23.1217831 27.4404632,23.1700368 C27.3918523,23.2196691 27.3293526,23.2582721 27.2543528,23.2844669 C27.1793531,23.3120404 27.0821313,23.3299632 26.966854,23.3382353 C26.8515766,23.3465074 26.7001883,23.3506434 26.5154668,23.3506434 C26.3196343,23.3506434 26.1654682,23.3465074 26.0515798,23.3382353 C25.9390802,23.3299632 25.8529694,23.3120404 25.7946363,23.2872243 C25.7363032,23.2610294 25.7015811,23.2238051 25.6890812,23.1755515 C25.6765812,23.1259191 25.6738035,23.0611213 25.6835256,22.9784007 C25.6835256,22.9784007 26.27519,17.2251838 26.27519,17.2251838 C26.2890788,17.1024816 26.3071343,17.0059743 26.3293565,16.9370404 Z M36.5418166,17.1479779 C36.5959831,16.9990809 36.6723717,16.8915441 36.7723713,16.823989 C36.8723709,16.7578125 36.977926,16.7247243 37.0890367,16.7247243 C37.0890367,16.7247243 40.3543018,16.7247243 40.3543018,16.7247243 C40.3862461,16.7247243 40.4098571,16.734375 40.4265237,16.7509191 C40.4445792,16.7674632 40.4543014,16.7977941 40.4556903,16.8391544 C40.4570791,16.8818934 40.4501347,16.9370404 40.434857,17.0032169 C40.4181904,17.0693934 40.3931905,17.1534926 40.3570795,17.254136 C40.3223574,17.3506434 40.2890242,17.4319853 40.255691,17.4967831 C40.2237467,17.5629596 40.1918024,17.6181066 40.1598581,17.6580882 C40.1293026,17.6994485 40.0973583,17.7284007 40.0681918,17.7477022 C40.0362475,17.765625 40.005692,17.7752757 39.9751366,17.7752757 C39.9751366,17.7752757 37.6404235,17.7752757 37.6404235,17.7752757 C37.6404235,17.7752757 37.0584813,19.3855699 37.0584813,19.3855699 C37.0584813,19.3855699 39.0362513,19.3855699 39.0362513,19.3855699 C39.0654179,19.3855699 39.0904178,19.3952206 39.1098622,19.4131434 C39.1279177,19.4324449 39.1390287,19.4613971 39.1404176,19.5013787 C39.1431954,19.5399816 39.1376398,19.5923713 39.1209732,19.6585478 C39.1056955,19.7247243 39.0806956,19.8060662 39.0473624,19.9011949 C39.0112514,19.9990809 38.9779182,20.0804228 38.9459739,20.1452206 C38.9140296,20.2100184 38.8834742,20.2624081 38.8515298,20.301011 C38.8209744,20.339614 38.790419,20.3685662 38.7584747,20.3851103 C38.7265303,20.4016544 38.6959749,20.4099265 38.6654195,20.4099265 C38.6654195,20.4099265 36.6890383,20.4099265 36.6890383,20.4099265 C36.6890383,20.4099265 36.0168187,22.2711397 36.0168187,22.2711397 C36.0168187,22.2711397 38.372365,22.2711397 38.372365,22.2711397 C38.4029205,22.2711397 38.4279204,22.2807904 38.4459759,22.2987132 C38.4654202,22.316636 38.4751424,22.3469669 38.4779202,22.3869485 C38.480698,22.4283088 38.4723647,22.4820772 38.4584758,22.5482537 C38.4418092,22.6144301 38.4168093,22.6971507 38.3806984,22.7950368 C38.3806984,22.7950368 38.3806984,22.7950368 38.3806984,22.7950368 C38.3459763,22.8943015 38.3112542,22.9770221 38.2793099,23.0431985 C38.2473655,23.109375 38.2154212,23.1617647 38.182088,23.203125 C38.1515326,23.2444853 38.1209771,23.2734375 38.0876439,23.2913603 C38.0556996,23.3106618 38.0251442,23.3203125 37.9945887,23.3203125 C37.9945887,23.3203125 34.7084904,23.3203125 34.7084904,23.3203125 C34.5973798,23.3203125 34.5154356,23.2872243 34.4626581,23.2210478 C34.4112694,23.1548713 34.4126583,23.0473346 34.4668247,22.8970588 C34.4668247,22.8970588 36.5418166,17.1479779 36.5418166,17.1479779 Z M42.1820724,16.8170956 C42.2140167,16.7895221 42.258461,16.7674632 42.3167941,16.7509191 C42.3751272,16.734375 42.448738,16.7205882 42.5362377,16.7095588 C42.6237374,16.6999081 42.7320703,16.6943934 42.8612364,16.6943934 C42.9917915,16.6943934 43.0987355,16.6999081 43.1792907,16.7095588 C43.259846,16.7205882 43.3223457,16.734375 43.3654011,16.7509191 C43.4098454,16.7674632 43.439012,16.7895221 43.4515119,16.8170956 C43.462623,16.8446691 43.462623,16.875 43.450123,16.9080882 C43.450123,16.9080882 41.2015207,23.1369485 41.2015207,23.1369485 C41.1890207,23.1714154 41.1667986,23.2017463 41.1362432,23.2293199 C41.1042988,23.2555147 41.0598546,23.2775735 41.0029103,23.2941176 C40.9459661,23.3120404 40.8737442,23.3258272 40.7862445,23.3354779 C40.697356,23.3451287 40.5876342,23.3506434 40.4570791,23.3506434 C40.3293019,23.3506434 40.2237467,23.3451287 40.1418026,23.3354779 C40.0598585,23.3258272 39.9959698,23.3120404 39.9515256,23.2941176 C39.9070813,23.2775735 39.8779147,23.2555147 39.8668037,23.2293199 C39.8543037,23.2017463 39.8556926,23.1714154 39.8668037,23.1369485 C39.8668037,23.1369485 42.115406,16.9080882 42.115406,16.9080882 C42.127906,16.875 42.1501281,16.8446691 42.1820724,16.8170956 Z M43.1362354,22.1125919 C43.1681797,22.0409007 43.200124,21.9829963 43.2306794,21.9388787 C43.2626238,21.894761 43.2945681,21.8630515 43.3265124,21.8451287 C43.3584567,21.8258272 43.390401,21.8175551 43.4237342,21.8175551 C43.4723452,21.8175551 43.5279005,21.8451287 43.5945669,21.9002757 C43.6598444,21.9568015 43.748733,22.0188419 43.8584548,22.0863971 C43.9681766,22.1553309 44.1070649,22.2173713 44.2737309,22.2725184 C44.4403969,22.3290441 44.6459517,22.3579963 44.893173,22.3579963 C45.0542834,22.3579963 45.2070606,22.3373162 45.3487267,22.2987132 C45.4917817,22.2601103 45.619559,22.2035846 45.7348363,22.1332721 C45.8487248,22.0615809 45.9501133,21.9733456 46.0348352,21.8671875 C46.1209459,21.7624081 46.1862235,21.6452206 46.2334455,21.515625 C46.287612,21.3667279 46.2931675,21.238511 46.2501121,21.1309743 C46.2084456,21.0248162 46.1376125,20.9296875 46.0376129,20.8455882 C45.9390022,20.7628676 45.8195582,20.6842831 45.6806699,20.6112132 C45.5403927,20.5395221 45.3987265,20.4609375 45.2528938,20.3795956 C45.107061,20.2982537 44.9709504,20.2058824 44.8431732,20.1011029 C44.714007,19.9977022 44.6112296,19.875 44.534841,19.730239 C44.4570635,19.5854779 44.4126193,19.4145221 44.404286,19.2173713 C44.3945638,19.0202206 44.4390081,18.7844669 44.5376188,18.5087316 C44.6528961,18.1930147 44.8112288,17.9159007 45.0126169,17.676011 C45.2167828,17.4361213 45.4445597,17.2375919 45.6987254,17.0790441 C45.952891,16.921875 46.22789,16.8033088 46.5237222,16.7247243 C46.8209432,16.6475184 47.1181643,16.6089154 47.419552,16.6089154 C47.5737181,16.6089154 47.7237175,16.6199449 47.8709391,16.644761 C48.0167719,16.6681985 48.1514936,16.6999081 48.2709376,16.7398897 C48.3903815,16.78125 48.4931589,16.8267463 48.5806586,16.8777574 C48.6667694,16.9287684 48.7209358,16.9715074 48.7417691,17.0059743 C48.7626023,17.0390625 48.7751023,17.0693934 48.77788,17.0928309 C48.7820467,17.1162684 48.7806578,17.1479779 48.7751023,17.1865809 C48.7681578,17.2251838 48.7570468,17.2748162 48.7389913,17.3340993 C48.7209358,17.3933824 48.6959359,17.4678309 48.6639916,17.5560662 C48.6292695,17.6553309 48.5959363,17.7380515 48.5653809,17.8056066 C48.5362143,17.8731618 48.5084366,17.9296875 48.480659,17.9738051 C48.4528813,18.0179228 48.4237147,18.0496324 48.3945482,18.0703125 C48.3653816,18.0909926 48.3320484,18.1020221 48.2945486,18.1020221 C48.2584376,18.1020221 48.2070489,18.0785846 48.1431603,18.0303309 C48.0792716,17.9820772 47.9987164,17.9310662 47.9014946,17.8745404 C47.8042727,17.8180147 47.6862176,17.7670037 47.5473293,17.7215074 C47.4098298,17.676011 47.2473304,17.6525735 47.0612201,17.6525735 C46.9167762,17.6525735 46.7834434,17.6704963 46.6626105,17.7063419 C46.5417776,17.7421875 46.4348336,17.7918199 46.3390007,17.8538603 C46.2431677,17.9172794 46.1626124,17.9917279 46.095946,18.0813419 C46.0278908,18.1695772 45.9765021,18.2633272 45.94178,18.3612132 C45.8890024,18.5073529 45.882058,18.6341912 45.9223356,18.7417279 C45.9626132,18.847886 46.0348352,18.9430147 46.1390014,19.0257353 C46.2417788,19.1098346 46.3640006,19.1884191 46.5056667,19.261489 C46.6487217,19.3345588 46.7931655,19.4117647 46.9376094,19.4931066 C47.0834422,19.5744485 47.2223305,19.6668199 47.3528856,19.7702206 C47.4848295,19.875 47.5903847,19.9977022 47.669551,20.1424632 C47.7487174,20.2872243 47.7931616,20.4581801 47.8042727,20.6525735 C47.8139949,20.8483456 47.7709395,21.0772059 47.6764954,21.3432904 C47.5514959,21.6893382 47.3764966,21.9940257 47.1542752,22.2545956 C46.9320539,22.5179228 46.680666,22.7357537 46.3973338,22.9094669 C46.1153904,23.0845588 45.8112249,23.2169118 45.4862262,23.3051471 C45.1612275,23.3933824 44.8320621,23.4375 44.49873,23.4375 C44.272342,23.4375 44.0681762,23.4195772 43.8876213,23.3809743 C43.7084554,23.34375 43.5529004,23.2996324 43.4237342,23.2472426 C43.2945681,23.1934743 43.1904018,23.1383272 43.1126243,23.0818015 C43.033458,23.0238971 42.9792915,22.972886 42.9529027,22.9287684 C42.9251251,22.8832721 42.9154029,22.8198529 42.9279028,22.7371324 C42.9390139,22.6544118 42.973736,22.5344669 43.0306802,22.3772978 C43.0667912,22.2725184 43.1029022,22.1829044 43.1362354,22.1125919 Z M50.7195391,16.9094669 C50.7320391,16.875 50.7528723,16.8446691 50.7820389,16.8170956 C50.8125943,16.7909007 50.8570386,16.7674632 50.9153717,16.7509191 C50.9737048,16.734375 51.0473156,16.7205882 51.1348153,16.7095588 C51.2237038,16.6999081 51.3334256,16.6943934 51.4639807,16.6943934 C51.5917579,16.6943934 51.6959242,16.6999081 51.7778683,16.7095588 C51.8570347,16.7205882 51.9195344,16.734375 51.9653676,16.7509191 C52.008423,16.7674632 52.0375895,16.7909007 52.0487006,16.8170956 C52.0612006,16.8446691 52.0612006,16.875 52.0487006,16.9094669 C52.0487006,16.9094669 50.6431505,20.8028493 50.6431505,20.8028493 C50.5487065,21.0647978 50.4987067,21.2922794 50.4931511,21.4825368 C50.4875956,21.6755515 50.5223177,21.8340993 50.5973174,21.9595588 C50.6709282,22.0850184 50.78065,22.1801471 50.9250939,22.2421875 C51.0695378,22.3056066 51.2431482,22.3373162 51.4487029,22.3373162 C51.6570355,22.3373162 51.8570347,22.3042279 52.044534,22.2394301 C52.2334221,22.1746324 52.4084214,22.0808824 52.5667541,21.9568015 C52.7264757,21.8327206 52.8709196,21.6810662 52.9986969,21.4990809 C53.1264742,21.3170956 53.2320293,21.1102941 53.3153623,20.8786765 C53.3153623,20.8786765 54.7486901,16.9094669 54.7486901,16.9094669 C54.76119,16.875 54.7820233,16.8446691 54.8125787,16.8170956 C54.8417453,16.7909007 54.8861895,16.7674632 54.9431338,16.7509191 C55.000078,16.734375 55.0722999,16.7205882 55.1611885,16.7095588 C55.2514659,16.6999081 55.3611877,16.6943934 55.488965,16.6943934 C55.6167423,16.6943934 55.7209085,16.6999081 55.798686,16.7095588 C55.8778523,16.7205882 55.9403521,16.734375 55.9847964,16.7509191 C56.0292406,16.7674632 56.0556294,16.7909007 56.0653516,16.8170956 C56.0764627,16.8446691 56.0764627,16.875 56.0639627,16.9094669 C56.0639627,16.9094669 54.6361905,20.863511 54.6361905,20.863511 C54.4889689,21.2674632 54.3000807,21.6300551 54.0667483,21.9499081 C53.8334159,22.269761 53.5625836,22.5386029 53.2528626,22.7605699 C52.9431416,22.9811581 52.6000873,23.1493566 52.222311,23.2651654 C51.841757,23.3795956 51.4334252,23.4375 50.9959269,23.4375 C50.5848174,23.4375 50.2348188,23.3851103 49.945931,23.2817096 C49.6556544,23.1783088 49.4362108,23.0211397 49.2862114,22.8102022 C49.136212,22.6006434 49.0584345,22.3373162 49.052879,22.0229779 C49.0459345,21.7086397 49.1195454,21.3405331 49.2709337,20.9200368 C49.2709337,20.9200368 50.7195391,16.9094669 50.7195391,16.9094669 Z M57.8389558,17.2045037 C57.8959,17.0445772 57.9861775,16.9246324 58.1070103,16.8446691 C58.2292321,16.7660846 58.3570093,16.7247243 58.491731,16.7247243 C58.491731,16.7247243 59.2042283,16.7247243 59.2042283,16.7247243 C59.3320055,16.7247243 59.4375607,16.7357537 59.516727,16.7578125 C59.5958934,16.7798713 59.6611709,16.8170956 59.7125596,16.8681066 C59.7625594,16.9191176 59.8014482,16.9894301 59.8306147,17.0804228 C59.8583924,17.1700368 59.8806145,17.2803309 59.8958922,17.4140625 C59.8958922,17.4140625 60.3000573,19.823989 60.3000573,19.823989 C60.3208906,19.9701287 60.3431127,20.113511 60.363946,20.2555147 C60.3861681,20.3961397 60.4056125,20.5367647 60.4222791,20.6787684 C60.4389457,20.8193934 60.4542234,20.957261 60.4695011,21.09375 C60.4847788,21.2288603 60.4972788,21.3639706 60.5083898,21.5004596 C60.5083898,21.5004596 60.5139454,21.5004596 60.5139454,21.5004596 C60.5889451,21.2633272 60.6708892,21.0151654 60.7597778,20.7559743 C60.8486663,20.4995404 60.9347771,20.2527574 61.0181101,20.0183824 C61.0181101,20.0183824 62.1361613,16.9246324 62.1361613,16.9246324 C62.1486612,16.8901654 62.1694945,16.8598346 62.2000499,16.832261 C62.2292165,16.8060662 62.2722719,16.78125 62.3264383,16.7605699 C62.3819936,16.7412684 62.4486601,16.7261029 62.5292153,16.7178309 C62.6097705,16.7095588 62.711159,16.7054228 62.8319919,16.7054228 C62.9472692,16.7054228 63.0417133,16.7095588 63.1153241,16.7178309 C63.1903238,16.7261029 63.2444903,16.7412684 63.2792124,16.7605699 C63.3139345,16.78125 63.3347677,16.8060662 63.3417121,16.832261 C63.3500454,16.8598346 63.3472677,16.8901654 63.3347677,16.9246324 C63.3347677,16.9246324 61.1931094,22.8515625 61.1931094,22.8515625 C61.1653317,22.9301471 61.1278319,22.9990809 61.0778321,23.0611213 C61.0292211,23.1217831 60.9750547,23.1727941 60.9153327,23.2141544 C60.8542218,23.254136 60.7889443,23.2844669 60.720889,23.3023897 C60.6514448,23.3216912 60.5847784,23.3313419 60.5195009,23.3313419 C60.5195009,23.3313419 59.9542253,23.3313419 59.9542253,23.3313419 C59.8361702,23.3313419 59.7389484,23.3189338 59.6611709,23.2954963 C59.5833934,23.2720588 59.5208937,23.2279412 59.469505,23.1645221 C59.4208941,23.1024816 59.3820053,23.0170037 59.3528388,22.9108456 C59.3236722,22.8033088 59.2986723,22.6654412 59.2750613,22.4944853 C59.2750613,22.4944853 58.7597855,19.4117647 58.7597855,19.4117647 C58.7320079,19.2284007 58.707008,19.0298713 58.6875636,18.8175551 C58.6653415,18.605239 58.6528415,18.3984375 58.647286,18.1985294 C58.647286,18.1985294 58.6375638,18.1985294 58.6375638,18.1985294 C58.5625641,18.4425551 58.4847866,18.6865809 58.4042314,18.9306066 C58.3236761,19.171875 58.2361765,19.4227941 58.1431213,19.6819853 C58.1431213,19.6819853 56.8959039,23.1314338 56.8959039,23.1314338 C56.8847929,23.1659007 56.8639596,23.1962316 56.8361819,23.2238051 C56.8070154,23.2513787 56.7667378,23.2734375 56.7153491,23.2913603 C56.6625715,23.3106618 56.5959051,23.3258272 56.5153499,23.3368566 C56.4334057,23.3465074 56.3320172,23.3520221 56.2111844,23.3520221 C56.0931293,23.3520221 55.9972963,23.3465074 55.9236855,23.3368566 C55.8486858,23.3258272 55.7945193,23.3106618 55.7556306,23.2913603 C55.7195196,23.2734375 55.6972975,23.2513787 55.6889642,23.2238051 C55.6834087,23.1962316 55.6861864,23.1659007 55.6986864,23.1314338 C55.6986864,23.1314338 57.8389558,17.2045037 57.8389558,17.2045037 Z M64.5180964,18.6383272 C64.8347619,18.2095588 65.1972604,17.8442096 65.6014255,17.5436581 C66.0069795,17.2417279 66.4472556,17.0128676 66.9250315,16.8529412 C67.4028074,16.6930147 67.8986388,16.6130515 68.4153035,16.6130515 C68.6972468,16.6130515 68.9486347,16.6323529 69.1666894,16.6723346 C69.3847441,16.7109375 69.5708545,16.7578125 69.7236317,16.8143382 C69.8777978,16.870864 70.0014084,16.9315257 70.0916858,16.9949449 C70.1833521,17.0597426 70.2430741,17.1162684 70.2708518,17.1631434 C70.3000183,17.2113971 70.3083516,17.2789522 70.2958517,17.3644301 C70.2861295,17.4512868 70.2500185,17.5795037 70.1889076,17.7490809 C70.1527967,17.8483456 70.1180746,17.9338235 70.0833525,18.004136 C70.0486304,18.0758272 70.018075,18.1323529 69.9875195,18.1750919 C69.9555752,18.2178309 69.9277976,18.2467831 69.898631,18.2647059 C69.8708533,18.28125 69.8416868,18.2895221 69.8111313,18.2895221 C69.7666871,18.2895221 69.7069651,18.2591912 69.6319654,18.1985294 C69.5569657,18.1378676 69.4500216,18.0716912 69.3152999,18 C69.1778005,17.9283088 69.0083567,17.8621324 68.8083575,17.8000919 C68.6055805,17.7394301 68.3555815,17.7090993 68.0597493,17.7090993 C67.7430839,17.7090993 67.4361406,17.765625 67.1403084,17.8745404 C66.8444762,17.9848346 66.5680884,18.1420037 66.3125339,18.3432904 C66.0583682,18.5459559 65.8305913,18.7886029 65.631981,19.0726103 C65.4305929,19.3566176 65.2680935,19.6695772 65.1444829,20.0128676 C65.0083723,20.3892463 64.9375392,20.722886 64.9333726,21.0096507 C64.9292059,21.2964154 64.9819835,21.5376838 65.0903164,21.7293199 C65.1986493,21.9237132 65.3611487,22.0698529 65.5764256,22.1691176 C65.7917026,22.2670037 66.0514238,22.316636 66.3555893,22.316636 C66.5041998,22.316636 66.656977,22.2987132 66.8139208,22.265625 C66.9708646,22.2311581 67.1250307,22.1801471 67.2736412,22.1125919 C67.2736412,22.1125919 67.8264169,20.5836397 67.8264169,20.5836397 C67.8264169,20.5836397 66.5875328,20.5836397 66.5875328,20.5836397 C66.5264219,20.5836397 66.4930887,20.5450368 66.4861443,20.4692096 C66.4805888,20.3920037 66.5111442,20.2624081 66.5764217,20.0790441 C66.6111438,19.9839154 66.644477,19.9039522 66.6764213,19.8405331 C66.7083657,19.7743566 66.74031,19.7233456 66.7694765,19.6847426 C66.8014209,19.644761 66.8319763,19.6158088 66.8625317,19.597886 C66.8916983,19.5785846 66.9222537,19.5689338 66.9528092,19.5689338 C66.9528092,19.5689338 69.1625228,19.5689338 69.1625228,19.5689338 C69.2166892,19.5689338 69.2611335,19.5785846 69.2958556,19.597886 C69.3319665,19.6158088 69.3583553,19.644761 69.3777997,19.6819853 C69.3958552,19.7192096 69.4041885,19.7633272 69.4014107,19.8157169 C69.4000218,19.8694853 69.386133,19.9287684 69.362522,19.9977022 C69.362522,19.9977022 68.4139146,22.6227022 68.4139146,22.6227022 C68.3778036,22.7247243 68.3264149,22.8129596 68.265304,22.8901654 C68.2014154,22.9659926 68.1069713,23.0266544 67.9819718,23.0707721 C67.8555834,23.1148897 67.7041951,23.160386 67.5250291,23.2086397 C67.3458632,23.2555147 67.1639194,23.296875 66.9778091,23.3313419 C66.7916987,23.3644301 66.6069772,23.3892463 66.4250334,23.4071691 C66.2417008,23.4237132 66.061146,23.4319853 65.88198,23.4319853 C65.3597598,23.4319853 64.9180949,23.3575368 64.5611518,23.2058824 C64.201431,23.0542279 63.9319876,22.8350184 63.748655,22.5482537 C63.5667113,22.261489 63.4736561,21.9113051 63.4722672,21.4977022 C63.4681005,21.0854779 63.5611557,20.6167279 63.7500439,20.0942096 C63.9458764,19.5537684 64.201431,19.0698529 64.5180964,18.6383272 Z"></path>
            </g>
        </g>
    </g>
</svg>