<?xml version="1.0" encoding="UTF-8" standalone="no"?>
<svg width="50px" height="28px" viewBox="0 0 50 28" version="1.1" xmlns="http://www.w3.org/2000/svg" xmlns:xlink="http://www.w3.org/1999/xlink">
    <!-- Generator: Sketch 46.2 (44496) - http://www.bohemiancoding.com/sketch -->
    <title>f-rbcom-logo-cornerbug</title>
    <desc>Created with Sketch.</desc>
    <defs>
        <linearGradient x1="66.154502%" y1="49.2818271%" x2="-52.0748737%" y2="156.704434%" id="linearGradient-1">
            <stop stop-color="#FFFFFF" offset="0%"></stop>
            <stop stop-color="#FFFFFF" stop-opacity="0" offset="100%"></stop>
        </linearGradient>
        <linearGradient x1="-6.78878334%" y1="49.8409047%" x2="106.332251%" y2="49.8409047%" id="linearGradient-2">
            <stop stop-color="#FFFFFF" offset="0%"></stop>
            <stop stop-color="#FFFFFF" stop-opacity="0.79" offset="18%"></stop>
            <stop stop-color="#FFFFFF" stop-opacity="0.45" offset="48%"></stop>
            <stop stop-color="#FFFFFF" stop-opacity="0.21" offset="73%"></stop>
            <stop stop-color="#FFFFFF" stop-opacity="0.06" offset="91%"></stop>
            <stop stop-color="#FFFFFF" stop-opacity="0" offset="100%"></stop>
        </linearGradient>
        <linearGradient x1="-7.08280255%" y1="115.673469%" x2="482.547771%" y2="-555.673469%" id="linearGradient-3">
            <stop stop-color="#FFFFFF" offset="23%"></stop>
            <stop stop-color="#FFFFFF" stop-opacity="0.64" offset="52%"></stop>
            <stop stop-color="#FFFFFF" stop-opacity="0" offset="100%"></stop>
        </linearGradient>
        <linearGradient x1="21594.8039%" y1="29176%" x2="31942.3833%" y2="37400%" id="linearGradient-4">
            <stop stop-color="#FFFFFF" offset="23%"></stop>
            <stop stop-color="#FFFFFF" stop-opacity="0.64" offset="52%"></stop>
            <stop stop-color="#FFFFFF" stop-opacity="0" offset="100%"></stop>
        </linearGradient>
        <linearGradient x1="1117.71716%" y1="32451%" x2="1649.14232%" y2="40675%" id="linearGradient-5">
            <stop stop-color="#FFFFFF" offset="23%"></stop>
            <stop stop-color="#FFFFFF" stop-opacity="0.64" offset="52%"></stop>
            <stop stop-color="#FFFFFF" stop-opacity="0" offset="100%"></stop>
        </linearGradient>
        <linearGradient x1="4733.01365%" y1="31230%" x2="7032.69824%" y2="39454%" id="linearGradient-6">
            <stop stop-color="#FFFFFF" offset="23%"></stop>
            <stop stop-color="#FFFFFF" stop-opacity="0.64" offset="52%"></stop>
            <stop stop-color="#FFFFFF" stop-opacity="0" offset="100%"></stop>
        </linearGradient>
    </defs>
    <g id="Symbols" stroke="none" stroke-width="1" fill="none" fill-rule="evenodd">
        <g id="f-rbcom-logo-cornerbug">
            <g id="cornerbug">
                <g>
                    <path d="M25.8569885,18.6133377 C26.0623031,18.2536529 26.2873055,18.1967144 26.4377758,18.0134002 C26.5238589,17.7927314 26.650699,17.5897727 26.8118422,17.4148515 C26.4040254,17.477345 25.6263611,17.6231631 25.2958889,17.6842678 C25.3774522,17.9189656 25.4491717,18.4536321 25.8569885,18.6133377 L25.8569885,18.6133377 Z" id="shape"></path>
                    <path d="M29.2081172,20.9272325 L29.2532317,20.9272325 L29.2983461,20.9272325 L29.2081172,20.9272325 Z" id="shape" fill="#FFFFFF" transform="translate(29.708117, 21.427233) scale(1, -1) translate(-29.708117, -21.427233) "></path>
                    <path d="M35.7134975,19.9493095 C34.9555209,19.5132439 34.6503615,18.6883299 34.1806691,18.0383976 C34.0161361,17.7981449 33.7250393,17.645383 33.574569,17.4106853 C33.027532,15.9497264 32.5606522,14.4943226 32.4186194,12.8153309 C32.3313319,12.389419 32.1866031,11.9769899 31.9883024,11.5890698 C31.2554904,10.4963817 30.4433491,9.45765061 29.5582771,8.48106045 C29.4809325,8.40467952 29.4795263,8.39634706 29.3163996,8.24219646 L26.3154308,5.78550808 C25.940079,5.52924006 25.5367649,5.31542161 25.1130745,5.14807452 C24.4232688,4.92394258 23.6750094,4.95103693 23.0036775,5.22445545 C22.3567957,5.56192027 21.7760084,6.05770193 21.09397,6.2771235 C20.1095848,6.71596665 18.9944169,6.80345753 18.1408142,7.55199062 C17.6486216,7.97833507 17.2295547,8.63937728 16.4968908,8.52411152 C15.6999381,8.50038878 14.9236885,8.77693293 14.3256182,9.297642 C13.7631123,9.79342366 13.2357631,10.3850287 12.5157556,10.5211256 C11.8843427,10.784987 11.1094909,10.66 10.4682342,10.898864 C9.44447352,11.1474492 8.63305881,11.9501433 7.76258098,12.565357 C6.88929062,13.0639161 6.05537567,13.6013601 4.96692681,13.5763627 C4.23397529,13.5215489 3.60083997,13.049357 3.34690991,12.3681553 C3.12424021,11.604047 3.37638028,10.7820252 3.99097913,10.2683742 C4.63364209,9.50456488 5.65880903,9.05322303 6.16365805,8.18525795 C6.43220086,7.65423312 6.38358063,7.02044211 6.03709423,6.53542991 C5.36489971,5.85077905 4.40160842,5.8271704 3.52972432,5.61608129 C2.96721845,5.46609693 2.54533905,5.04252996 2.04752136,4.78283481 C1.86581971,5.06419635 1.78601156,5.3980537 1.82111275,5.72995831 C1.95054431,6.53987709 2.51234355,7.21784779 3.29065933,7.50338458 C3.73222643,7.69086503 4.23988798,7.55337936 4.696924,7.6519802 C4.83501811,7.70347624 4.93581458,7.8225037 4.96270802,7.96583637 C4.95826799,8.09350814 4.90381842,8.21449332 4.81083143,8.3033012 C4.1076991,8.89073997 3.35675377,9.45318134 2.76331008,10.176717 C2.13049097,10.8530354 2.06017774,12.0376342 2.38643114,12.8889343 C2.75346622,13.8610552 3.78003943,14.5012663 4.76583096,14.6248645 C5.48583848,14.735964 6.13272022,14.5484836 6.78944582,14.4082204 C6.86347839,14.4261436 6.92452212,14.4776677 6.95397879,14.5470948 C7.0172607,15.1234237 6.92866603,15.6344815 7.05663611,16.1608155 C7.17750837,16.6033745 7.3302425,17.0368402 7.51367213,17.4579026 C7.54714816,17.6219817 7.50545161,17.7922819 7.39976469,17.9231318 C7.04215308,18.1797244 6.65509026,18.3936859 6.24662766,18.5605654 L5.26224239,18.6216701 L5.07380293,18.7119385 C4.70676785,19.1368942 4.69551773,19.5729599 4.46770285,20.0506879 C4.16535595,20.5478583 3.60706888,20.788111 3.14018901,21.075581 C2.99540751,21.3237175 2.81651813,21.5508526 2.60862096,21.7505107 C2.4431912,21.8817394 2.23856404,21.9554441 2.02642739,21.960211 C1.68611134,22.3504482 1.60454799,22.8878921 1.52157837,23.4128374 C2.08408424,23.4628322 2.66065275,23.7628009 3.20909598,23.4628322 C3.67738211,23.2489656 3.77160184,22.6865242 4.1316056,22.3518369 C4.41285853,22.0518682 4.83473793,22.2768447 5.15677254,22.3393382 C5.65037144,22.3615581 6.00053134,22.0129833 6.42241075,21.8477228 C6.71210127,21.6630198 6.95116626,21.3352762 7.25632569,21.1533507 C7.83851927,20.8756019 8.64712145,21.0228088 9.25744032,21.1380745 C9.72870248,21.2488171 10.2239806,21.1999063 10.663705,20.9992001 C11.0546466,20.7589474 11.4230879,20.4589786 11.8632488,20.3589891 C12.2555966,20.1603986 12.4468486,19.7229442 12.608569,19.3590933 C12.7365391,19.0230172 13.0670113,18.7591558 13.0402923,18.3703075 C12.937635,18.2842053 12.8237275,18.0925586 12.6718509,18.1092236 C12.4820052,18.3703075 12.342785,18.6452788 12.1276265,18.8980302 C11.2135545,20.1298463 10.4949532,20.2478895 8.6372776,20.250667 C7.25773196,20.2006722 6.01881279,20.6159067 5.0709904,21.678296 C5.00236928,21.7102662 4.92072056,21.6951478 4.86848829,21.6407999 C4.86757709,21.4590339 4.92035681,21.2809499 5.02036487,21.1283533 C5.86412367,19.9409771 7.18319993,19.6673945 8.57540195,19.6382308 C9.31052053,19.6165034 10.0332812,19.4458637 10.6988616,19.1368942 C11.3862018,18.7915402 11.9251474,18.2139711 12.2176274,17.5092861 C12.3807541,16.7232569 12.4426298,15.8733455 12.6395068,15.1234237 C12.7047206,15.0375158 12.8142319,14.9964199 12.9207598,15.0178791 C13.0229366,15.0281081 13.1113442,15.0925229 13.1513872,15.1859171 C13.0107607,15.9608364 12.7604456,16.8718525 13.0641988,17.6203856 C13.6717051,18.4091923 14.7995294,17.9814591 15.6207879,17.9425743 C16.412327,17.8930537 17.206618,17.9065217 17.995969,17.9828478 C18.3995669,17.9717379 18.6991013,18.0703387 19.0169171,17.818976 C19.104832,17.6768479 19.1396544,17.5088352 19.1153557,17.3440255 C19.0900429,17.1204377 18.8987909,16.9843408 19.1153557,16.7968603 C19.2168561,16.7513389 19.3360021,16.769315 19.4191088,16.8426889 C19.4972127,17.1665838 19.6212516,17.4779606 19.7875502,17.7675925 C20.2174834,18.2692741 20.7473927,18.6781817 21.3442852,18.9688562 C21.8744469,19.3299297 22.3174203,19.8395987 22.3567957,20.4784211 C22.3567957,20.8033872 22.0544488,21.0241975 21.7942898,21.1727931 C21.367843,21.4157324 20.8798095,21.532847 20.3880252,21.5102579 C19.7172369,21.1880693 19.5442664,20.489531 19.0970742,19.9826394 C18.8539499,19.7555009 18.5177293,19.6528636 18.187221,19.7048906 C17.827752,19.7200824 17.4711434,19.7750501 17.1240849,19.8687624 C17.0419159,19.9471046 17.003601,20.0600988 17.0214276,20.1715086 C17.2506487,20.5881318 17.5037763,20.9811464 17.756904,21.3922147 C18.049407,21.5699739 18.4600363,21.2936139 18.7047264,21.6033038 C18.9212911,21.9310474 19.0619176,22.3171183 19.388171,22.5754247 C19.7197155,22.8679994 20.1883043,22.9546649 20.6045899,22.8004013 C21.5514788,22.5355161 22.470645,22.1821027 23.3496186,21.7449557 L23.6407154,21.7449557 C23.9936878,21.7116258 24.3874419,21.7310683 24.6391633,21.4672069 C24.9087744,21.0857983 25.1494341,20.6852089 25.3591708,20.2687207 C25.5743293,19.9812507 25.4744845,19.5437962 25.3844835,19.2341063 C24.9918015,18.714391 24.6882263,18.1345098 24.4858804,17.5176186 C24.2830346,17.421916 24.0643792,17.3631111 23.8404049,17.3440255 C23.7264975,17.3926316 23.559152,17.3690229 23.4986826,17.4912324 L24.4999431,19.4438067 C24.5869808,19.618559 24.623015,19.8137967 24.6040067,20.0076368 C24.4715,20.4320736 24.229139,20.8150198 23.9008743,21.1186321 C23.8375924,21.1547394 23.7602479,21.1908468 23.7124349,21.1061334 C23.824936,20.6895102 24.0260319,20.2173372 24.0021254,19.7312767 L23.0261777,17.992569 C22.9136765,17.7578713 22.7097681,17.5426159 22.7210183,17.2690334 C22.7371545,17.1485914 22.8202483,17.047225 22.9361768,17.0065607 C23.3650875,16.8676863 23.8825929,16.8912949 24.2116588,16.5538301 C24.6433821,15.8927879 24.7319767,15.2428557 24.8444779,14.4568265 C24.8877286,14.3809776 24.962078,14.3273028 25.0483863,14.3096196 C25.1312635,14.3165314 25.2056485,14.3625721 25.2480759,14.4332178 C25.3903398,15.2782244 25.1881054,16.1444872 24.68557,16.8426889 C24.6346268,16.9279818 24.6510446,17.036842 24.7249454,17.1037728 C25.1986809,17.2190654 25.6994288,17.1425639 26.1157412,16.8912949 C26.6095693,16.8749088 27.1006963,16.8121321 27.5824752,16.7038145 C27.6359849,16.7255336 27.6746541,16.772614 27.6851325,16.8288015 C27.3888472,17.1552326 27.1893585,17.5559661 27.108564,17.9870141 C26.7288726,18.3758624 26.1860544,18.714716 26.1480853,19.2757686 C26.2099609,19.5535175 26.4518384,19.2868786 26.6163714,19.3160422 C26.6918555,19.3233751 26.7478505,19.3885031 26.7429352,19.4632491 L26.3632438,20.0187467 C26.1593354,20.3437129 26.4012129,20.7131188 26.4012129,21.0297525 C26.5235433,21.2747438 26.7833458,21.4227624 27.0593448,21.4047134 C27.6049876,21.3456112 28.1384004,21.20514 28.6413925,20.9880902 C29.2370299,20.7778858 29.8798696,20.7341541 30.4990681,20.8617144 C31.0939181,20.8242183 31.5368915,20.4339812 31.9784586,20.0465216 C32.2225493,20.0726155 32.4458944,20.1941499 32.5986213,20.3839865 C33.2606626,21.0815474 34.2029435,21.4516258 35.1692731,21.3936034 L35.2564615,21.3449974 C35.3095795,21.2827219 35.3020544,21.1898296 35.2395864,21.1366858 L35.2184924,21.1214096 L34.6250487,20.8214409 C34.2031693,20.5575795 33.6898827,20.2090047 33.5492562,19.7479416 C33.4004238,19.3032697 33.1958657,18.8787233 32.9403436,18.4841845 C32.8503427,18.2828166 32.6492468,18.1217223 32.5606522,17.9189656 C32.5779606,17.8868333 32.612427,17.8673836 32.6492468,17.8689708 C33.3073787,18.0925586 33.696914,18.7327697 34.0006672,19.3104872 C34.4844222,19.9701407 35.179117,20.5325821 36.0903765,20.3839865 L36.1663148,20.3187155 C36.199367,20.274561 36.199367,20.2142744 36.1663148,20.1701199 L35.7134975,19.9493095 Z M25.7754251,11.1557817 L25.7444873,11.1474492 L25.7444873,11.1613366 L25.7360497,11.1682804 C25.6936431,11.2143734 25.6231347,11.22211 25.5715167,11.186334 L25.5560478,11.1766128 C25.5564342,11.1701376 25.5564342,11.1636456 25.5560478,11.1571704 C25.466902,10.6399597 25.3255715,10.1328564 25.1341684,9.64343929 C24.9427654,9.15402217 25.0174485,9.44346014 25.0174485,9.44346014 L24.9710417,9.38096665 L24.8726032,9.237926 C24.7595985,9.09598887 24.7393504,8.90251625 24.8205714,8.7407556 L24.8318215,8.72270193 C24.9343745,8.63997964 25.0740965,8.61822106 25.1974503,8.66576342 L25.2129193,8.67270714 C25.4061641,8.82644871 25.5626957,9.02038679 25.6713615,9.24070349 C25.8046953,9.57241672 25.8706358,9.92679623 25.8654261,10.2836503 C25.8657211,10.5753447 25.826947,10.8657964 25.7501124,11.1474492 L25.7810502,11.1557817 L25.7754251,11.1557817 Z M30.6115693,19.3924231 C30.6110756,19.394712 30.6110756,19.397078 30.6115693,19.3993669 L30.6003192,19.3993669 C30.3448602,19.4754138 30.0776441,19.5055186 29.8114047,19.4882465 L29.7945296,19.4882465 L29.7410915,19.4660266 L29.6862472,19.431308 C29.6421075,19.3997167 29.6234102,19.3437639 29.6398404,19.2924336 C29.7718125,18.9088161 30.0879202,18.6148567 30.4835992,18.5077931 L30.5187559,18.5077931 L30.5764127,18.5077931 L30.6692262,18.5189031 C30.743883,18.5383806 30.799355,18.600283 30.8098526,18.6758312 C30.8177861,18.740337 30.8215438,18.805277 30.8211028,18.8702553 C30.8397946,19.0676278 30.7631905,19.2621557 30.6143819,19.3952006 L30.6115693,19.3924231 Z M32.161273,15.9886113 C32.161273,15.9969437 32.1247101,16.0927671 32.1247101,16.0927671 L32.0909598,16.2024779 C32.0677088,16.2885469 31.9986396,16.3551569 31.9109579,16.3760709 C31.8634693,16.3943848 31.809663,16.3858831 31.7703314,16.353851 C31.730283,16.3235493 31.7077144,16.2758646 31.709862,16.2260865 L31.7014244,16.1163757 L31.662049,15.7316936 C31.6391039,15.5766742 31.5814554,15.4286553 31.4932973,15.2984054 C31.4051392,15.1681555 31.3231392,15.1039812 31.3231392,15.1039812 L31.1276685,14.8887259 C31.0214005,14.7636057 30.8702072,14.6839739 30.7057891,14.6665268 C30.5836017,14.7105958 30.4754047,14.7858214 30.392192,14.8845597 L30.2515656,15.0498202 L30.1320331,15.2095258 C30.0972225,15.2495219 30.0395683,15.2614784 29.9914066,15.2386894 L29.9759377,15.2386894 C29.9728473,15.2320136 29.9704901,15.22503 29.9689064,15.2178583 C29.941792,15.1502269 29.9279521,15.0781194 29.9281247,15.0053804 C29.9311602,14.8970051 29.9560188,14.7903117 30.0012505,14.6915242 L30.1039078,14.4818239 L30.2206277,14.2374049 L30.2389092,14.2137962 C30.2873672,14.1564089 30.3232766,14.0897403 30.344379,14.0179833 L30.3781294,13.9318812 L30.4442238,13.7582882 C30.472964,13.6607146 30.5460882,13.5819296 30.6420222,13.5451775 C30.7379562,13.5084254 30.8457511,13.5179007 30.9336039,13.5708077 C31.0892832,13.6600496 31.2172034,13.7897383 31.3034515,13.9457686 L31.3611084,14.0388145 L31.4328279,14.155469 L31.5818919,14.3415607 C31.9463639,14.6899906 32.1634643,15.1619586 32.1893983,15.6622564 C32.189135,15.7748522 32.1764029,15.8870818 32.1514291,15.9969437 L32.161273,15.9886113 Z" id="shape" fill="#FFFFFF"></path>
                    <path d="M2.12486592,21.3672173 C2.491741,21.1081123 2.78280975,20.7579117 2.96862472,20.3520453 C2.90342933,20.2157545 2.80242115,20.0992199 2.67612167,20.0145805 C2.58529668,19.9757016 2.48131361,19.980836 2.39486873,20.028468 C2.1211182,20.2548688 1.83009618,20.4600855 1.5243909,20.6422929 C1.39642082,20.7270063 1.44845261,20.9200417 1.42173358,21.0589161 C1.45876314,21.1794168 1.54000301,21.28193 1.64954846,21.3463861 C1.79731237,21.4106693 1.96362559,21.4200404 2.11783459,21.3727723" id="shape" fill="#FFFFFF"></path>
                    <path d="M0.797352068,21.4033246 C0.575093705,21.5013221 0.405043266,21.6874087 0.329065933,21.9157712 C0.265784023,22.3157295 0.355784961,22.6906905 0.0478129988,22.9795492 C-0.00225862451,23.0501307 -0.00770121276,23.1425769 0.0337503521,23.2184132 C0.319220583,23.3259679 0.615165268,23.4041514 0.916884564,23.4517223 C1.07016741,22.9628843 1.18126232,22.4254403 1.35985794,22.0032621 L1.35985794,21.8754977 C1.20798135,21.6880172 1.0546985,21.4505419 0.797352068,21.3991584" id="shape" fill="#FFFFFF"></path>
                    <path d="M19.9872397,20.0617978 C20.2403674,20.3395466 20.227711,20.7561699 20.5202141,20.972814 C20.8874801,21.016916 21.2562367,20.9031152 21.5327246,20.6603465 C21.6958513,20.5214721 21.4553801,20.3464904 21.4314736,20.1840073 C21.2655343,19.9493095 21.3780355,19.4715816 20.9758438,19.4618603 C20.5727829,19.5164171 20.1662369,19.5419448 19.7594249,19.5382413 L19.6455174,19.6146222 C19.5709854,19.84932 19.9267704,19.84932 19.988646,20.0617978" id="shape" fill="#FFFFFF"></path>
                    <path d="M49.3964528,16.2010891 L49.3964528,16.1330406 C49.3964528,16.060826 49.3866089,15.9941662 49.3795776,15.9205628 L49.3795776,15.8552918 C49.37114,15.7830771 49.3598899,15.7164174 49.3486398,15.642814 C49.3486398,15.626149 49.3486398,15.6080954 49.3416085,15.5914304 C49.3275458,15.5094945 49.3120769,15.4303361 49.2937955,15.3525664 C49.2839516,15.3122929 49.2741078,15.273408 49.2642639,15.2345232 C49.25442,15.1956384 49.2459825,15.1623085 49.2361386,15.1262011 C49.2262948,15.0900938 49.2080133,15.0331553 49.1925444,14.9873267 L49.1700442,14.9137233 C49.1517627,14.8637285 49.1348875,14.8165112 49.1166061,14.7748489 L49.0955121,14.7206879 C49.0758244,14.6693043 49.0547305,14.6193095 49.0322302,14.5707035 L49.0181676,14.5387624 C48.9928548,14.4846014 48.9675421,14.4304403 48.940823,14.3776681 C48.7727447,14.0510049 48.5613522,13.7479076 48.3122227,13.4763731 L48.3122227,13.4763731 L48.2812849,13.4402658 C47.9409688,14.7706826 47.4515887,15.9400052 46.0467303,18.0606175 C45.5067247,18.8702553 44.5476522,18.9063627 43.9542085,19.6479521 C43.813582,19.5729599 43.8543637,19.4688041 43.6729556,19.6604508 C44.4210884,18.8660891 43.5660795,19.2743799 43.9148331,18.8924752 C45.2198467,17.4676238 46.4151717,16.1830354 46.9200207,14.2610135 C46.7076747,14.5248749 46.5782984,14.6054221 46.3575148,14.8734497 C46.5993923,14.0554794 46.7892381,13.3555524 46.96924,12.5195284 L46.7400188,12.42926 C46.6545126,12.5386373 46.5897213,12.6623713 46.5487668,12.7944997 C45.9609482,15.4150599 44.3985881,17.4828999 42.1991902,19.0438484 C39.2910349,21.1047447 41.5199644,20.4756436 41.5480897,20.4673111 C41.7875715,20.3554023 42.0179461,20.2253998 42.2371593,20.0784627 C41.1290228,21.2950026 39.1433771,22.5670922 36.816009,23.4558885 C32.878468,24.9543434 27.9466978,25.3626342 24.4802554,22.574036 C25.2397965,23.3308778 26.0762493,24.0084563 26.9763752,24.5960474 C26.454651,24.5085565 26.0805846,24.1085982 25.5897982,23.9558364 C25.5982358,23.9711126 26.7865294,25.5015086 30.3401602,25.9000782 C30.5679751,25.9264643 30.7859461,25.9472955 30.9968858,25.9681266 L30.9968858,25.9681266 L31.0503239,25.9681266 C34.2847326,26.2667066 35.4420885,25.8514721 36.5066308,25.5640021 C37.0691367,25.412629 38.0043027,25.1709875 38.6793097,24.994617 L39.5146309,24.7779729 C39.6665075,24.8432439 38.4261821,25.472345 36.7189768,25.9528504 C35.6909557,26.2488293 34.6313976,26.4250088 33.5619126,26.4777957 C33.1253556,26.4960719 32.6880176,26.479818 32.2540865,26.4291897 L32.2189298,26.4291897 C31.6268924,26.3597525 31.0545427,26.3292001 30.4807867,26.2125456 C29.0196777,25.9153544 28.6090484,25.9736816 28.6090484,25.9736816 L28.6188923,25.9736816 L28.6188923,25.9736816 C28.6709241,25.998679 29.0253028,26.1611621 30.843603,26.8069281 C30.7184454,26.8527566 30.1221892,26.9346925 27.6457571,25.884802 C27.6668511,25.9000782 30.6143819,27.2888223 32.3004932,27.4540829 C33.3222972,27.5543431 34.3521123,27.5445644 35.3717752,27.4249192 C35.615059,27.3957556 35.8555303,27.3638145 36.0917827,27.3235409 C38.803061,26.8638666 41.1388666,25.6570479 43.3467022,24.28358 C43.712331,24.055826 44.0751473,23.8211282 44.435151,23.5892079 C44.7370292,23.3920063 45.0375011,23.1938788 45.3365667,22.9948254 L45.6389136,22.7948463 C45.6389136,22.8128999 45.630476,22.8378973 45.630476,22.8587285 C45.678289,22.8656722 45.7373521,22.8740047 45.7865714,22.8781709 C45.7556335,22.9628843 45.7556335,22.9628843 45.3407855,23.453111 C46.2464199,22.730964 46.7118935,21.6102475 47.670966,20.9283742 C47.6019375,21.1066756 47.5102662,21.2756012 47.3981507,21.4310995 C47.3686191,21.4713731 47.3390876,21.5144242 47.309556,21.5546978 C46.751431,22.3495086 46.1047184,23.0799327 45.3815671,23.7322486 C45.460318,23.6711438 45.5390688,23.6044841 45.6332885,23.5169932 L45.5728191,23.578098 C45.5053184,23.6392027 45.4420365,23.691975 45.3815671,23.7391923 C43.2779282,25.6547926 40.7021362,26.9917677 37.9114892,27.6165659 C38.1734025,27.5863113 38.4324904,27.5356965 38.6863411,27.4651928 C38.2278988,27.594346 38.2152424,27.6040672 38.0211779,27.6693382 C38.1421166,27.654062 38.1421166,27.654062 38.7664981,27.5304638 C38.4022756,27.708223 37.9832087,27.7915477 36.9664794,27.9956931 C40.6227675,27.3707582 43.6532679,25.8459171 45.8779786,23.566988 C45.9750108,23.4669984 46.5726733,22.8281761 46.7737692,22.5948671 C47.6941684,21.5501506 48.420631,20.3532109 48.9197291,19.0591245 C49.0218688,18.782098 49.10687,18.4991988 49.174263,18.2119906 C49.1939507,18.1300547 49.2178572,18.0467301 49.2333261,17.9647942 C49.3303583,17.4245727 49.3359834,17.4273502 49.3739525,17.1065503 L49.3739525,17.0898854 C49.3842652,16.9898958 49.3917652,16.8912949 49.3964528,16.7940829 L49.3964528,16.7440881 L49.3964528,16.4913366 L49.3964528,16.4288431 C49.4020778,16.3510735 49.4006716,16.2760813 49.3964528,16.2010891 L49.3964528,16.2010891 Z" id="shape" fill="url(#linearGradient-1)"></path>
                    <g id="shape" opacity="0.4" transform="translate(27.701691, 11.954534)" fill="#FFFFFF">
                        <path d="M19.032703,0.477503908 L19.032703,0.477503908 C19.1950931,0.637153031 19.3710157,0.779063362 19.5198733,0.956451277 L19.032703,0.477503908 Z" id="Shape"></path>
                        <path d="M3.35847701,11.0888979 C1.12110992,9.83902814 2.74253309,10.6722746 4.7042723,11.126394 C6.13993587,11.4738851 7.62109583,11.6017489 9.09603686,11.5055211 C9.10154219,11.5039002 9.10740672,11.5039002 9.11291204,11.5055211 C11.4459051,10.6167249 13.4259258,9.34463523 14.5340623,8.12809536 C14.3150301,8.27531866 14.0846324,8.40533418 13.8449927,8.51694372 C13.8154611,8.52527619 11.5865316,9.15437728 14.4960932,7.09348098 C16.6954911,5.53392131 18.2578512,3.46608129 18.8456698,0.844132361 C18.8854794,0.713360987 18.9493601,0.590957637 19.0341093,0.483058885 C18.4080423,0.255876691 17.7579675,0.0993427116 17.0962766,0.0164408546 C16.1554855,2.20926785 16.014859,3.73410891 13.94765,4.94787129 C11.6371571,6.43382751 13.0827972,6.0588666 13.1038912,6.04220167 C13.282564,5.96847217 13.452363,5.87531467 13.6101465,5.76445284 C12.7213872,7.17680563 11.1604334,8.07810057 9.30697656,8.48639135 C9.28090105,8.61014581 9.21710758,8.72305882 9.12416216,8.80996873 C8.9680189,8.93569813 8.78055136,9.01771252 8.58134399,9.04744398 C8.51822566,9.05671441 8.46239097,9.09283353 8.42857036,9.14627231 C8.39474976,9.19971109 8.38634042,9.26510177 8.40556091,9.32519281 C8.44580298,9.46922437 8.41506728,9.62356051 8.3225913,9.74181605 C8.14087918,9.94723967 7.87428683,10.0597049 7.59836499,10.0473398 L7.45773852,10.0473398 C6.44401765,10.0531823 5.46369368,9.68977014 4.7042723,9.02661282 C4.66397005,8.99480561 4.61504298,8.97547861 4.56364583,8.97106305 C4.51706974,8.97317688 4.47212039,8.98861664 4.43426948,9.01550287 L4.37520637,9.05716519 C4.15870498,9.22354104 3.92261134,9.36343234 3.67207403,9.47378843 C3.4348475,9.57787031 3.17617255,9.62544054 2.91690991,9.61266285 C2.805815,9.61266285 2.70034515,9.61266285 2.59768783,9.60016415 C2.52456206,9.60016415 2.45706136,9.59044294 2.38252933,9.58627671 L2.06611978,9.5640568 L1.89877429,9.5640568 C1.79609126,9.56469066 1.69360627,9.57304729 1.59220859,9.58905419 C1.32182394,9.64406904 1.05617763,9.719752 0.79766905,9.81541949 L0.610635848,9.87652423 C0.455946735,9.92651902 0.290007504,9.97651381 0.122662008,10.0153986 C0.147974772,10.0334523 0.170475007,10.0501172 0.1986003,10.0667822 C0.368848888,10.1809618 0.545371112,10.285741 0.727355816,10.3806384 C2.22502769,11.1541688 4.42301937,11.5777358 3.35847701,11.0888979 L3.35847701,11.0888979 Z M15.1514125,4.97842366 C15.5409478,4.14517718 16.445176,3.6896691 16.7433041,2.67727462 C16.6997099,2.82587024 17.0245571,2.88836373 17.1511209,2.88836373 C17.5505001,2.88836373 17.7248769,2.14121939 17.7501896,2.10788953 C17.7822519,2.0632205 17.8118273,2.0168604 17.8387843,1.96901511 C17.6981578,2.46063054 17.6700326,3.09112038 17.3001849,3.75216258 L16.8853369,4.39237363 C16.4437698,5.05063835 15.9375145,5.28116988 15.4523532,5.89082856 C15.2970028,5.7971567 15.1039877,5.78825457 14.9404728,5.86721991 C14.8898473,5.56586243 15.5353228,5.15479416 15.1471937,4.97286868 L15.1514125,4.97842366 Z" id="Shape"></path>
                        <path d="M19.3814567,0.616378322 L19.2619242,0.563606045 C19.080516,1.39685253 18.8920766,2.0912246 18.650199,2.91613861 C18.8653575,2.648111 18.9933276,2.56617509 19.2127049,2.30231371 C18.7064496,4.22572434 17.5125309,5.50892392 16.2075173,6.93516415 C15.8587637,7.31568004 16.7137726,6.90877801 15.9656398,7.70313966 C16.1470479,7.51149297 16.1062662,7.61426003 16.2468927,7.69064096 C16.8403364,6.94905159 17.7937838,6.91294424 18.3394145,6.10330641 C19.7456792,3.98824909 20.233653,2.81476029 20.5739691,1.48434341 L20.6063132,1.52045076 L20.6063132,1.52045076 C20.2617755,1.14294391 19.8456441,0.835795324 19.3814567,0.616378322 L19.3814567,0.616378322 Z" id="Shape"></path>
                        <path d="M15.6379801,12.3346014 C13.4315508,13.7122355 11.0957452,14.9134992 8.38306068,15.3745623 C8.14680821,15.4148359 7.90493069,15.4481657 7.6616469,15.4759406 L7.6616469,15.4759406 C9.75416873,15.31068 10.9551188,15.1579182 12.9449833,14.2135722 C14.7028141,13.3803257 16.774242,11.7735487 17.7192518,10.9847421 L17.7009704,10.995852 C17.0161195,11.4485826 16.3340811,11.8999244 15.6379801,12.3346014 L15.6379801,12.3346014 Z" id="Shape"></path>
                    </g>
                    <path d="M49.6228614,15.941394 C49.8184711,13.9848408 49.2539659,12.0279799 48.0436262,10.4669646 C47.7715059,10.1075332 47.4780178,9.76437261 47.1647107,9.4392939 C46.5191774,8.74891032 45.7743225,8.15605197 44.9540627,7.67975508 C43.4549845,6.83678739 41.7688732,6.64097447 40.1727628,6.01326212 L40.1727628,6.01326212 C40.434328,6.08408807 40.7071434,6.15213653 40.9827713,6.20768629 C41.9902884,6.39234208 42.9876737,6.6273417 43.9710837,6.91177957 C44.1918672,6.98399427 44.4098383,7.0603752 44.6221842,7.15064356 C44.8106237,7.22980198 45.008907,7.32840281 45.2085966,7.43672486 C45.7945102,7.76173968 46.3535889,8.13182732 46.8806453,8.54355393 C46.9890061,8.62579601 47.0918773,8.71486086 47.1886172,8.81019281 L47.2012736,8.81852527 L47.2490866,8.85463262 L47.282837,8.87963002 C47.2914311,8.88814315 47.3020779,8.89435606 47.3137748,8.89768369 C47.4295331,9.02104126 47.5535645,9.1365679 47.6850287,9.24348098 C47.7399307,9.27149661 47.8063005,9.26553817 47.8551867,9.22820479 C47.8539386,9.16591725 47.8385611,9.10469904 47.8101862,9.0490568 C47.6484658,8.68242835 47.0845537,8.11026576 46.9762713,7.97139135 C46.8483012,7.8061308 45.1326583,5.22167796 40.4863598,3.93014591 C34.6784867,2.8191506 29.7396852,4.7856123 27.6162256,5.7202371 L27.5881003,5.7327358 C27.5488382,5.75297401 27.511225,5.77618938 27.4755991,5.80217301 C27.6485697,5.94104742 27.8271653,6.07992183 28.0226361,6.23129495 L28.3896711,6.53681866 L28.4937347,6.4659927 L28.6779554,6.37433559 C28.7388935,6.34285739 28.8007692,6.31276793 28.8635823,6.28406722 C29.3317834,6.07037677 29.8178172,5.89706416 30.3162537,5.76606566 C30.4568802,5.72718082 30.6073505,5.69107348 30.7521958,5.65635487 C31.7946464,5.42006314 32.8546256,5.26680889 33.9219164,5.19806931 L33.9219164,5.19806931 C33.308573,5.31962199 32.7047134,5.48390449 32.1148663,5.68968473 L31.7407999,5.81328296 C30.822509,6.12158416 29.8001546,6.49932256 28.9620209,6.84789734 L28.8495197,6.91039083 L29.042178,7.0700964 L29.042178,7.0700964 L29.1743668,7.02426785 C29.6561383,6.83990429 30.1499124,6.68772533 30.652351,6.56875977 C31.5336237,6.35830986 32.4254883,6.19374815 33.3242539,6.0757556 C33.8037901,6.00909588 34.3297331,5.94521365 34.9091142,5.8868864 C35.5279687,5.82285317 36.1503585,5.79826775 36.7724148,5.81328296 C37.5904737,5.8356574 38.4049873,5.92859393 39.206659,6.09103179 C39.2322768,6.09168017 39.2561536,6.10398245 39.2713472,6.12436165 C39.2713472,6.16463523 38.9324374,6.18963262 38.3797754,6.22018499 C36.8596032,6.30350964 33.7123829,6.4187754 31.4637657,6.94927566 C31.2912639,6.98908633 31.1248559,7.02982282 30.9645418,7.07148515 C30.4850055,7.19508338 30.0589073,7.32145909 29.6735908,7.45200104 L29.5442144,7.50060709 L29.9492187,7.83946066 C30.2227659,8.11400904 30.4796237,8.40430092 30.7184454,8.70881449 C30.8196965,8.83935644 30.9223538,8.9671209 31.0193861,9.09349661 C31.1600125,9.27264461 31.2922014,9.4392939 31.4117339,9.58094581 C31.5312664,9.72259771 31.63533,9.85869463 31.7393936,9.97951537 L31.8279883,9.92118812 C35.9947505,7.82140698 39.2643158,7.76030224 40.8083944,7.79224336 C41.0807756,7.81100817 41.3509147,7.85376628 41.6155904,7.92000782 C41.8448115,8.04499479 39.9140101,8.12554195 40.3837025,8.26580511 C40.8055819,8.38940334 41.8729368,8.10748828 41.9868442,8.09360083 C42.0283454,8.09374793 42.0694598,8.08572193 42.107783,8.06999218 C42.1489584,8.05238976 42.1938008,8.04477107 42.2385656,8.04777228 C42.6491031,8.04312235 43.0595483,8.06306429 43.4676409,8.10748828 C44.5743712,8.37412715 43.5365479,8.51300156 43.1484189,8.42273319 C42.958205,8.40763784 42.7669394,8.41135966 42.5774754,8.43384315 C42.4368489,8.4699505 42.155596,8.50328035 42.0149695,8.53522147 C41.8096549,8.58105003 41.411682,8.63798854 41.2091799,8.67409588 C41.0938662,8.6935383 39.7944776,8.6588197 39.9913547,8.82546899 C40.3796682,8.84288278 40.7660892,8.88930695 41.1473042,8.96434341 C41.3031989,8.9821666 41.4604166,8.98588538 41.6169966,8.97545336 C41.7290536,8.95809462 41.8426575,8.95250847 41.9559064,8.95878843 C42.0142152,8.95922579 42.0712202,8.94175501 42.1190331,8.90879364 C42.1965597,8.86922342 42.2837649,8.85190345 42.3707545,8.85879885 C42.442474,8.85879885 42.5577877,8.89629495 42.5366937,8.94906722 C42.325754,9.44068265 41.9741879,9.38929911 41.3287124,9.33930433 C40.9546986,9.30477225 40.5784716,9.300128 40.2037006,9.32541688 C39.4527553,9.38096665 38.6568095,9.7128765 38.516183,9.60316571 C38.4247758,9.52678478 39.3936922,9.15321261 39.1307207,9.09905159 C38.6877473,9.03239187 35.2719304,10.2336555 35.0919286,10.6988848 C35.0987793,10.7011105 35.1061718,10.7011105 35.1130225,10.6988848 C35.083491,10.7710995 35.1242726,10.7905419 35.1875546,10.8127619 C35.3619314,10.8502579 36.0861577,10.5905628 36.263347,10.5822303 C36.4770993,10.589174 36.5446,10.4822408 36.7499146,10.4780745 C36.9102288,10.4780745 37.4769534,10.2003257 37.6358613,10.2003257 C37.936802,10.2003257 38.0577407,10.3503101 38.3558689,10.2836503 C38.5991526,10.2281006 38.9014995,10.2600417 39.1391583,10.1794945 C39.376817,10.0989474 39.6060381,10.0211777 39.8422906,9.96007295 C39.8957287,9.94201928 39.9533855,9.92952058 40.0068236,9.91007817 C40.0321363,9.91007817 40.2149508,9.8670271 40.2444823,9.8670271 C40.403768,9.9024712 40.5522311,9.97482584 40.6776118,10.0781162 C41.2035548,10.3850287 41.3540251,10.6336139 41.8026236,10.6530563 L41.8926245,10.6530563 L41.9812192,10.6530563 C42.0880953,10.6350026 42.1963777,10.6183377 42.2962225,10.600284 C42.4368489,10.5669541 42.5690378,10.5502892 42.7054455,10.5294581 C42.9017882,10.5092008 43.0997339,10.5092008 43.2960766,10.5294581 C43.473266,10.5294581 43.6476428,10.5933403 43.8206134,10.611394 C44.0301468,10.6391688 43.7826442,10.773877 43.7109247,10.8155393 C43.4634523,10.966317 43.2021373,11.0937192 42.9304478,11.1960552 C42.7678423,11.2767165 42.5878506,11.3172223 42.4059111,11.3140985 C42.3069494,11.3092711 42.2080024,11.3239046 42.1148143,11.3571496 C42.0538101,11.3801904 41.9907077,11.3973972 41.9263749,11.4085331 L41.7505918,11.4085331 C41.6653577,11.4033966 41.5798857,11.4033966 41.4946516,11.4085331 C41.4552762,11.419643 41.4355885,11.4321417 41.390588,11.4404742 C41.3455875,11.4488067 41.3315249,11.4404742 41.3090247,11.4404742 C41.2493411,11.4329968 41.1887156,11.4391739 41.1318353,11.4585279 C41.0893393,11.4851343 41.0412309,11.5017625 40.9912088,11.5071339 L40.9138643,11.5071339 C40.8518783,11.4985542 40.7887132,11.5047444 40.7296436,11.5251876 C40.5832979,11.5793421 40.4273028,11.6034422 40.2712013,11.5960135 C40.2529704,11.5941156 40.2345879,11.5941156 40.216357,11.5960135 C40.2065132,11.604346 39.0055631,11.6779495 38.9929068,11.6904482 C38.8955062,11.7304528 38.7959847,11.7652222 38.6947786,11.794604 C38.484335,11.8946393 38.2689011,11.9840962 38.0493032,12.0626316 C37.9958651,12.0779078 37.9649273,12.0723528 37.9171143,12.0834627 C37.7764878,12.1154039 37.6358613,12.1640099 37.4952349,12.1973398 L37.3124205,12.3362142 C37.2278282,12.3898094 37.1353178,12.4301006 37.0381989,12.4556462 C36.9608543,12.4653674 36.8975724,12.4903648 36.8146028,12.5014747 C36.7532724,12.5210638 36.6983927,12.5565549 36.6556949,12.6042418 C36.6036631,12.6375717 36.5361624,12.625073 36.4855368,12.6542366 C36.3786607,12.7097863 34.897864,13.1986243 34.7895817,13.2569515 L34.6489552,13.319445 C34.5766408,13.3529688 34.5086553,13.3949304 34.4464531,13.444432 C34.4071996,13.5157511 34.3966528,13.5990743 34.4169215,13.677741 C34.4371903,13.7564077 34.4098902,13.677741 34.4042651,13.677741 L34.4169215,13.677741 C34.4183648,13.68741 34.4183648,13.6972357 34.4169215,13.7069046 C34.5446663,13.7403345 34.6785765,13.7436644 34.8078631,13.7166258 C34.8584561,13.7138772 34.9085172,13.7050157 34.9569272,13.6902397 C35.0286467,13.6735748 35.0863035,13.672186 35.1552105,13.6624648 C35.2847004,13.6377855 35.4094888,13.5932714 35.5250581,13.5305341 C35.5434027,13.5226675 35.5608452,13.512891 35.5770899,13.5013705 C37.1661689,13.1500182 39.8169778,12.0626316 42.4523178,11.8876498 C43.2287251,11.8666275 44.0055905,11.9070302 44.7754671,12.0084706 C45.5097433,12.0954495 46.2293132,12.2770693 46.9158019,12.548692 L46.9453335,12.5611907 L46.9453335,12.5611907 L47.064866,12.613963 C47.5261749,12.8329169 47.9398329,13.1385876 48.2826912,13.5138692 C49.0561367,14.3471157 49.7705192,15.8358494 49.1419189,18.2994815 L49.1348875,18.3314226 L49.1348875,18.3397551 L49.2150446,18.1300547 L49.2150446,18.1050573 L49.200982,18.1147785 C49.2811391,17.830086 49.3641087,17.580112 49.4147342,17.357913 C49.4386407,17.2523684 49.461141,17.1509901 49.4808287,17.0551668 L49.4808287,17.0454455 C49.5047352,16.9246248 49.5258291,16.7982491 49.5469231,16.6677071 L49.5581732,16.5899375 C49.5778609,16.4510631 49.5975486,16.3121886 49.6144238,16.1663705 L49.6144238,16.1566493 L49.6144238,16.1247082 C49.6411428,16.0427723 49.6228614,15.9886113 49.6228614,15.941394 L49.6228614,15.941394 Z M40.6551116,4.99253517 C40.7469678,5.0018977 40.8381023,5.01720682 40.9279269,5.03836373 C41.0376156,5.06197238 41.1613669,5.0939135 41.2851182,5.12585461 C41.5312145,5.19112559 41.773092,5.26472903 41.8926245,5.2952814 C42.1738774,5.36194112 42.8981037,5.63135748 42.9402917,5.75217822 C42.9434224,5.75926221 42.9434224,5.76731413 42.9402917,5.77439812 L42.8376344,5.77439812 L42.7799775,5.77439812 C41.459495,5.6258025 41.6127778,5.40776967 41.3919943,5.33694372 C41.2640242,5.2952814 41.1599606,5.25917405 41.0713659,5.22723293 C40.7057371,5.08835852 40.6494865,5.03697499 40.6494865,5.01475508 C40.6479841,5.01024483 40.6479841,5.00537789 40.6494865,5.00086764 L40.6494865,5.00086764 L40.6551116,4.99253517 Z" id="shape" fill="url(#linearGradient-2)"></path>
                    <path d="M32.1148663,5.68968473 C32.7043165,5.48416145 33.30769,5.31988336 33.9205101,5.19806931 C32.8536855,5.26682923 31.7941752,5.42008368 30.7521958,5.65635487 C30.6115693,5.68968473 30.461099,5.72718082 30.3162537,5.76606566 C29.8190108,5.89501024 29.3339332,6.06599427 28.8663949,6.2771235 C28.8035817,6.30675004 28.7417061,6.3368395 28.6807679,6.36739187 L28.4979535,6.45904898 C28.4627969,6.48404638 28.4332654,6.51043252 28.4009213,6.53542991 L28.8382696,6.89928088 L28.9648334,6.84789734 C29.8085922,6.49932256 30.8253216,6.12158416 31.7436124,5.81328296 L32.1148663,5.68968473 Z" id="shape" fill="url(#linearGradient-3)"></path>
                    <path d="M49.9589586,12.7014539 C49.8644916,11.6108442 49.6513862,10.5334499 49.323327,9.48789995 L49.1095748,8.88935122 C48.682315,7.80659866 48.1297348,6.77625456 47.4628389,5.81883794 C46.5979861,4.68840021 45.6656326,3.43158676 41.8982496,2.34697759 C45.4828182,3.20661021 45.7514148,3.64823085 46.2182946,3.9551433 L45.6656326,3.435753 C42.9402917,1.43873893 38.6568095,0.498559145 34.4155153,1.28181084 C37.0592928,0.436065659 41.4046507,0.54022147 44.1187415,2.20393695 C41.2541803,0.430510683 39.1574397,0.199979156 37.1197622,0.0333298593 C36.8061652,0.0208311621 36.4447552,0.00555497655 36.0341259,0.00555497655 C32.3778377,0.00555497655 27.9607604,1.81092236 25.6840179,3.86487493 C25.4801095,4.03846795 25.3057327,4.2037285 25.1594812,4.35510162 C25.1229183,4.39815268 25.0905742,4.43981501 25.0596364,4.48147733 C25.5764164,4.59591407 26.0661952,4.80711012 26.502464,5.10363471 C26.8329362,5.32444502 27.1380956,5.5438666 27.4671615,5.79800677 C27.5056284,5.77428998 27.5455494,5.75295485 27.586694,5.73412454 L27.6148193,5.72162585 C29.738279,4.78700104 34.6756742,2.82053934 40.4849536,3.93153465 C45.125627,5.2230667 46.8468949,7.80751954 46.974865,7.97278009 C47.0817411,8.11165451 47.6456533,8.68381709 47.80878,9.05044554 C47.8371549,9.10608779 47.8525324,9.16730599 47.8537804,9.22959354 L47.8537804,9.22959354 C47.8047634,9.26659681 47.7385928,9.27253737 47.6836224,9.24486972 C47.5521329,9.13798508 47.4280996,9.02245669 47.3123685,8.89907243 C47.3006716,8.89574481 47.2900248,8.88953189 47.2814307,8.88101876 L47.2476804,8.85602137 L47.1998674,8.81991402 L47.187211,8.81158155 C47.0910056,8.71577945 46.9886015,8.6262485 46.8806453,8.54355393 C46.3537363,8.13039126 45.7946535,7.75890787 45.2085966,7.43255862 C45.008907,7.32423658 44.8106237,7.22563575 44.6221842,7.14647733 C44.4098383,7.05759771 44.1918672,6.97982804 43.9710837,6.90761334 C42.9876256,6.62335453 41.9902495,6.38835709 40.9827713,6.20352006 C40.7015183,6.14380406 40.4357343,6.08131058 40.1727628,6.01048463 C41.7716857,6.63541949 43.4577971,6.83262116 44.9540627,7.67697759 C45.7743225,8.15327448 46.5191774,8.74613283 47.1647107,9.43651641 C47.4779956,9.76161473 47.7714826,10.104774 48.0436262,10.4641871 C49.2547865,12.0258646 49.8193448,13.9839027 49.6228614,15.941394 C49.6228614,15.9872225 49.636924,16.0372173 49.6327052,16.0802684 L49.6327052,16.1122095 L49.6327052,16.1219307 C49.6158301,16.2691376 49.5961424,16.4094007 49.5764547,16.5454977 L49.5652045,16.6232673 C49.5455168,16.7538093 49.5230166,16.8815737 49.4991101,17.0010057 L49.4991101,17.0148932 C49.4780161,17.1204377 49.4569222,17.2218161 49.4330157,17.3176394 C49.3823901,17.5398385 49.2994205,17.7898124 49.2192634,18.074505 L49.2333261,18.063395 L49.2333261,18.063395 C49.8468891,16.3445856 50.0939385,14.5190552 49.9589586,12.7014539 L49.9589586,12.7014539 Z" id="shape" fill="url(#linearGradient-4)"></path>
                    <path d="M36.7808524,5.81606045 C36.1587956,5.8009874 35.5364021,5.82557297 34.9175517,5.88966389 C34.3367644,5.94937989 33.8122277,6.01326212 33.3326915,6.07853309 C32.433934,6.19657615 31.5420722,6.36113737 30.6607886,6.57153726 C30.1579007,6.69053978 29.6636614,6.84271733 29.1813982,7.02704534 L29.0534281,7.07565138 L29.5484332,7.49227462 L29.6890597,7.45200104 C30.0743762,7.32284784 30.4990681,7.19508338 30.9800107,7.07148515 C31.1403248,7.03074865 31.3067328,6.99001216 31.4792346,6.94927566 C33.7292581,6.4187754 36.8750722,6.30350964 38.3952443,6.22018499 C38.9479063,6.18963262 39.2854098,6.16463523 39.2868161,6.12436165 C39.2712014,6.1046655 39.2474524,6.09293898 39.2221279,6.09242053 C38.418129,5.92991297 37.6012333,5.8374378 36.7808524,5.81606045 L36.7808524,5.81606045 Z" id="shape" fill="url(#linearGradient-5)"></path>
                    <path d="M41.3948068,5.32861126 C41.6155904,5.40082595 41.4623075,5.61885878 42.78279,5.76606566 L42.8404469,5.76606566 L42.9431042,5.76606566 C42.9462349,5.75898166 42.9462349,5.75092975 42.9431042,5.74384575 C42.9009163,5.62163627 42.1780962,5.35360865 41.895437,5.28694893 C41.7759045,5.25361907 41.534027,5.18279312 41.2879307,5.11752215 C41.1655857,5.08558103 41.0418344,5.05363992 40.9307395,5.03003127 C40.8409313,5.00879494 40.7497914,4.99348492 40.6579241,4.98420271 C40.6563156,4.98869559 40.6563156,4.99359727 40.6579241,4.99809015 C40.6579241,5.02031006 40.7141747,5.07863731 41.0798035,5.21195675 C41.1627731,5.25084158 41.2668367,5.28694893 41.3948068,5.32861126 L41.3948068,5.32861126 Z" id="shape" fill="url(#linearGradient-6)"></path>
                </g>
            </g>
        </g>
    </g>
</svg>