<?xml version="1.0" encoding="UTF-8" standalone="no"?>
<svg width="30px" height="30px" viewBox="0 0 30 30" version="1.1" xmlns="http://www.w3.org/2000/svg" xmlns:xlink="http://www.w3.org/1999/xlink">
    <!-- Generator: Sketch 46.2 (44496) - http://www.bohemiancoding.com/sketch -->
    <title>fb-rbcom-rbtickets-button-edit</title>
    <desc>Created with Sketch.</desc>
    <defs></defs>
    <g id="Symbols" stroke="none" stroke-width="1" fill="none" fill-rule="evenodd">
        <g id="fb-rbcom-rbtickets-button-edit">
            <g id="Oval-3" fill="#CDCECF">
                <circle cx="15" cy="15" r="15"></circle>
            </g>
            <path d="M22.2122234,9.82790906 L20.880772,11.1593604 L18.1704877,8.44926298 L17.1422973,9.47745334 L19.8525817,12.1877377 L13.2049506,18.834808 L10.4948532,16.1249909 L9.46666282,17.1531813 L12.1767603,19.8632787 L11.5143522,20.5256868 C11.4282803,20.634001 11.308845,20.7222224 11.1669805,20.7537166 L8.63968077,21.3172494 C8.60183155,21.3257538 8.56332815,21.3298659 8.52529202,21.3298659 C8.38735265,21.3298659 8.25333838,21.2755686 8.15399587,21.1759457 C8.02652344,21.0489405 7.97344108,20.8654887 8.01269212,20.6897001 L8.57594456,18.163148 C8.60771921,18.0213769 8.69612751,17.9016613 8.81687118,17.8283926 L19.5018456,7.11734432 C19.6586629,6.96080743 19.9134208,6.96080743 20.0702381,7.1178116 L22.2124103,9.25951661 C22.3692276,9.41633386 22.3692276,9.67109181 22.2122234,9.82790906 Z" id="Path" fill="#FFFFFF"></path>
        </g>
    </g>
</svg>